<svg preserveAspectRatio="none" width="100%" height="100%" overflow="visible" style="display: block;" viewBox="0 0 68.5122 89.374" fill="none" xmlns="http://www.w3.org/2000/svg">
<g id="Group">
<path id="Vector" d="M37.5464 87.7357C30.7535 87.7357 24.653 85.988 19.278 82.4926C13.892 78.9972 9.61614 74.051 6.42851 67.6538C3.24087 61.2566 1.64701 53.8591 1.64701 45.4394C1.64701 37.0198 3.27381 29.2046 6.5274 22.6535C9.78098 16.0915 14.2437 10.9583 19.9155 7.24311C25.5763 3.5279 31.8856 1.67029 38.8214 1.67029C47.1752 1.67029 53.9353 4.3193 59.1124 9.61733C64.2786 14.9153 66.8617 23.5329 66.8617 35.4369C66.8617 39.0422 65.0919 40.8449 61.5526 40.8449H21.1905C18.3547 40.8449 16.9367 42.0979 16.9367 44.615C16.9367 56.2004 19.1351 64.8948 23.5208 70.6875C27.9066 76.4801 33.5014 79.382 40.3053 79.382C45.6913 79.382 50.0771 77.9091 53.4736 74.9523C56.8701 72.0065 59.64 67.0272 61.7614 60.0365C62.1901 58.8384 63.1024 58.2338 64.5204 58.2338C66.2131 58.2338 66.8506 59.333 66.433 61.5094C64.1686 71.2371 60.5523 78.041 55.595 81.921C50.6377 85.8011 44.6142 87.7357 37.5354 87.7357H37.5464ZM20.553 36.745H42.0091C48.8021 36.745 52.2095 34.008 52.2095 28.5451C52.2095 21.4444 51.0774 15.8716 48.8131 11.8267C46.5487 7.7817 43.1522 5.75922 38.6126 5.75922C33.0947 5.75922 28.4452 8.22137 24.6969 13.1347C20.9377 18.059 18.4975 25.0497 17.3653 34.1179C17.0796 35.8656 18.1458 36.745 20.553 36.745Z" fill="var(--fill-0, black)"></path>
<path id="Vector_2" d="M37.5592 89.3739C30.4694 89.3739 24.0172 87.5163 18.3894 83.867C12.7836 80.2288 8.26588 75.0187 4.95733 68.3797C1.67077 61.7846 0 54.0684 0 45.4289C0 36.7894 1.70378 28.6555 5.05629 21.9066C8.43079 15.1137 13.1243 9.71671 19.0159 5.84761C24.9296 1.96752 31.5906 0 38.8232 0C47.5947 0 54.8164 2.84686 60.2903 8.45265C65.7423 14.0475 68.5122 23.1266 68.5122 35.4264C68.5122 39.911 65.9731 42.4831 61.5543 42.4831H21.1923C18.7851 42.4831 18.5872 43.4834 18.5872 44.6045C18.5872 55.7721 20.6867 64.2028 24.8416 69.6767C28.9306 75.0846 33.9978 77.7117 40.3071 77.7117C45.2535 77.7117 49.3205 76.3597 52.3982 73.6887C55.5418 70.9627 58.1689 66.1923 60.1914 59.5313C60.8728 57.5858 62.4117 56.5525 64.5331 56.5525C66.083 56.5525 66.9623 57.2121 67.413 57.7616C68.1934 58.7069 68.4023 60.0259 68.0616 61.7956C65.7093 71.919 61.8621 79.0966 56.619 83.1965C51.3869 87.2855 44.9677 89.3629 37.5482 89.3629L37.5592 89.3739ZM38.8342 3.29752C32.2501 3.29752 26.1936 5.07819 20.8296 8.60654C15.4326 12.1459 11.1238 17.1142 8.0131 23.3685C4.88042 29.6667 3.29755 37.0862 3.29755 45.4289C3.29755 53.7716 4.84741 60.7734 7.90314 66.9068C10.9369 73.0072 15.0699 77.7776 20.1811 81.0971C25.2593 84.4056 31.107 86.0764 37.5482 86.0764C43.9894 86.0764 49.958 84.2408 54.5855 80.6025C59.2131 76.9752 62.6646 70.4241 64.8299 61.1141C64.9838 60.3007 64.8849 59.96 64.8629 59.883C64.8409 59.894 64.731 59.8611 64.5221 59.8611C63.6318 59.8611 63.456 60.1798 63.3131 60.5645C61.1257 67.7641 58.1798 73.0402 54.5525 76.1838C50.8593 79.3934 46.0669 81.0202 40.3071 81.0202C32.9976 81.0202 26.9081 77.8765 22.2145 71.6772C17.62 65.6207 15.2897 56.5196 15.2897 44.6155C15.2897 41.1751 17.4441 39.1966 21.1923 39.1966H61.5543C64.1924 39.1966 65.2146 38.1414 65.2146 35.4374C65.2146 24.028 62.7634 15.7292 57.927 10.7609C53.1016 5.81464 46.6714 3.30851 38.8232 3.30851L38.8342 3.29752ZM42.0219 38.3832H20.5658C18.6532 38.3832 17.3122 37.9105 16.4878 36.9323C16.0151 36.3717 15.4985 35.3824 15.7513 33.8436C16.9055 24.5775 19.4776 17.257 23.4017 12.1239C27.4687 6.7929 32.5908 4.09992 38.6254 4.09992C43.7695 4.09992 47.6937 6.43017 50.2548 11.0137C52.651 15.2895 53.86 21.1921 53.86 28.5456C53.86 33.0412 51.8046 38.3942 42.0109 38.3942L42.0219 38.3832ZM19.0049 34.8109C19.0049 34.8109 19.3127 35.0966 20.5658 35.0966H42.0219C49.5953 35.0966 50.5735 31.6013 50.5735 28.5456C50.5735 21.7637 49.4963 16.4107 47.3859 12.6295C45.4184 9.11216 42.5494 7.40844 38.6254 7.40844C33.6021 7.40844 29.4802 9.60679 26.0177 14.1354C22.4564 18.7959 20.1041 25.5888 19.0159 34.3272C18.961 34.7009 19.0049 34.8109 19.0049 34.8109Z" fill="var(--fill-0, black)"></path>
</g>
</svg>