<svg preserveAspectRatio="none" width="100%" height="100%" overflow="visible" style="display: block;" viewBox="0 0 54.2219 65.0701" fill="none" xmlns="http://www.w3.org/2000/svg">
<g id="Group">
<path id="Vector" d="M33.907 6.80615C31.3174 6.26052 29.625 10.1715 29.625 10.1715V17.0835C39.2837 17.7196 39.1851 15.3557 39.1851 15.3557C48.446 15.2646 54.2219 8.46248 54.2219 8.46248C45.6575 10.6646 36.4959 7.35168 33.907 6.80615Z" fill="var(--fill-0, #85889C)"></path>
<path id="Vector_2" d="M24.5969 17.0835V10.1714C24.5969 10.1714 22.904 6.26052 20.315 6.80615C17.7259 7.35178 8.56431 10.6647 0 8.46262C0 8.46262 5.77582 15.2648 15.0367 15.3559C15.0367 15.3559 14.9382 17.7196 24.5969 17.0835Z" fill="var(--fill-0, #85889C)"></path>
<path id="Vector_3" d="M25.9082 6.451V25.6353C26.2766 25.6864 26.6717 25.7369 27.1079 25.7886C27.5343 25.7381 27.9207 25.6888 28.282 25.6388V6.451C28.9596 6.15867 29.5204 5.62531 29.8685 4.94222C30.2166 4.25913 30.3302 3.4688 30.19 2.70653C30.0498 1.94426 29.6643 1.25747 29.0997 0.763724C28.5351 0.269981 27.8265 0 27.0951 0C26.3637 0 25.655 0.269981 25.0904 0.763724C24.5258 1.25747 24.1404 1.94426 24.0001 2.70653C23.8599 3.4688 23.9735 4.25913 24.3216 4.94222C24.6697 5.62531 25.2306 6.15867 25.9082 6.451Z" fill="var(--fill-0, #85889C)"></path>
<path id="Vector_4" d="M26.4959 36.2098C26.6173 36.1525 26.7369 36.0946 26.8566 36.031C27.15 35.8851 27.4428 35.7187 27.7454 35.5291V30.9008C27.3336 30.7996 26.9174 30.7271 26.4989 30.6836C26.0704 30.7277 25.6442 30.8021 25.2227 30.9066V35.5141C25.5323 35.7087 25.8296 35.8787 26.1195 36.0225C26.2478 36.091 26.3715 36.1504 26.4959 36.2098Z" fill="var(--fill-0, #85889C)"></path>
<path id="Vector_5" d="M27.6937 49.8625C27.714 49.8528 27.728 49.8446 27.7454 49.8354V49.3602C27.5032 49.2774 27.2492 49.2134 26.988 49.1692C26.8306 49.1384 26.6627 49.1122 26.493 49.086C26.3269 49.1114 26.1672 49.1376 26.0179 49.1667C25.7426 49.2125 25.4757 49.2812 25.2227 49.3714V49.8229C25.247 49.8363 25.2697 49.8488 25.2988 49.8629C25.682 50.0339 26.0821 50.1847 26.496 50.314C26.9101 50.1847 27.3104 50.0337 27.6937 49.8625Z" fill="var(--fill-0, #85889C)"></path>
<path id="Vector_6" d="M26.4953 62C26.1265 62.1193 25.7449 62.2285 25.34 62.3271C25.2993 62.3366 25.2621 62.3448 25.2227 62.354L25.4044 63.8537C25.6236 64.3684 25.7873 65.0701 26.4843 65.0701C27.1808 65.0701 27.2905 64.626 27.5469 63.8537L27.7454 62.3489C27.7158 62.3419 27.6868 62.3355 27.6554 62.3282C27.2401 62.2268 26.8614 62.1187 26.4953 62Z" fill="var(--fill-0, #85889C)"></path>
<path id="Vector_7" d="M27.7203 56.6982C27.6955 56.5025 27.632 56.3166 27.5349 56.1558C27.2496 55.7523 26.8903 55.4318 26.4846 55.2188C26.0817 55.4291 25.7245 55.7459 25.4401 56.1451C25.3416 56.304 25.2765 56.4884 25.25 56.6832C25.2421 56.7175 25.2365 56.7524 25.2334 56.7877C25.2334 56.799 25.2328 56.8315 25.2322 56.8421L25.2227 56.9932L25.2322 57.2319C25.2417 57.2776 25.2492 57.3239 25.2548 57.3705C25.3582 57.7743 25.5666 58.1289 25.85 58.3831C26.0495 58.577 26.2621 58.7509 26.4858 58.9029C26.7076 58.7507 26.9186 58.5773 27.1168 58.3844C27.4017 58.1308 27.6107 57.7754 27.7133 57.3703C27.7193 57.3244 27.7271 57.2785 27.7359 57.2333L27.7454 56.9903L27.7359 56.8469C27.7347 56.8271 27.7341 56.8074 27.7341 56.7876C27.7317 56.7574 27.7271 56.7275 27.7203 56.6982Z" fill="var(--fill-0, #85889C)"></path>
<path id="Vector_8" d="M26.497 44.813C26.5138 44.8085 26.5307 44.8041 26.5469 44.8003C26.7462 44.7518 26.9396 44.7045 27.1284 44.6566C27.3434 44.601 27.5507 44.5443 27.7454 44.4836V41.729C27.3465 41.4941 26.9317 41.2935 26.5047 41.1289C26.0626 41.3173 25.634 41.542 25.2227 41.8011V44.4747C25.5961 44.5934 26.0109 44.6943 26.4448 44.7996C26.4615 44.8035 26.4796 44.8086 26.497 44.813Z" fill="var(--fill-0, #85889C)"></path>
<path id="Vector_9" d="M30.1957 56.8484C30.195 56.8551 30.195 56.8611 30.1944 56.8677L30.1794 57.191C30.1766 57.2532 30.1649 57.3146 30.1446 57.3734C30.1443 57.3854 30.143 57.3974 30.1408 57.4093C29.9849 58.0652 29.6131 58.6478 29.0867 59.0609C29.0621 59.0809 29.0363 59.0985 29.0117 59.1186C29.2851 59.2148 29.5474 59.2974 29.779 59.3649C30.0058 59.4288 30.2218 59.4847 30.4294 59.534C30.9189 59.0199 31.2649 58.3832 31.4319 57.689C31.4577 57.5577 31.4853 57.4031 31.5069 57.2488L31.5345 56.8252L31.5237 56.5169C31.5202 56.3899 31.5075 56.2633 31.4857 56.1381C31.4071 55.5772 31.2054 55.0412 30.8954 54.5698C30.76 54.3701 30.6085 54.1821 30.4424 54.0078C29.9384 54.2748 29.4723 54.4791 29.0426 54.6622C29.3122 54.8564 29.5491 55.0936 29.7439 55.3645C29.949 55.6546 30.0863 55.9882 30.1453 56.34C30.1632 56.4233 30.175 56.5078 30.1806 56.5929C30.1916 56.6414 30.1975 56.6909 30.1981 56.7407C30.1986 56.776 30.1974 56.81 30.1951 56.8422L30.1957 56.8484Z" fill="var(--fill-0, #85889C)"></path>
<path id="Vector_10" d="M40.3573 23.0159L40.3138 22.5752C40.246 22.02 40.0934 21.4802 39.8619 20.9769C39.6113 20.451 39.2582 19.9874 38.8257 19.6169C38.1133 19.0326 37.2575 18.6771 36.36 18.5926C35.7607 18.5344 35.1573 18.5407 34.5592 18.6116C34.4518 18.6242 34.3539 18.6396 34.2567 18.654C33.1046 18.2697 31.3229 18.0888 30.0928 19.9191C28.1386 22.8275 30.8377 23.8625 31.582 23.7632C32.2194 23.6792 34.1163 23.3479 35.146 21.9367C35.4383 21.8978 35.7335 21.8883 36.0276 21.9082C36.3009 21.9218 36.5684 21.9959 36.8131 22.1257C36.9181 22.1857 37.0088 22.2705 37.0781 22.3735C37.0921 22.3938 37.1051 22.4149 37.1169 22.4368C37.1855 22.5697 37.2363 22.712 37.268 22.8597C37.3067 22.9521 37.328 23.0515 37.3307 23.1525C37.3313 23.1594 37.3319 23.1936 37.3319 23.1999C37.3331 23.2328 37.3348 23.2682 37.3343 23.3068L37.3385 23.4926C37.3405 23.5581 37.3385 23.6236 37.3325 23.6887C37.3223 23.7646 37.3001 23.8382 37.2668 23.9062C37.221 24.0278 37.1626 24.1436 37.0925 24.2514C36.809 24.6559 36.4467 24.991 36.0301 25.234C35.8779 25.332 35.7173 25.4275 35.5465 25.5179C34.0875 26.218 32.5463 26.7073 30.9643 26.9727C30.7224 27.0201 30.4766 27.0663 30.2224 27.1105C29.9854 27.1523 29.743 27.1921 29.4912 27.2306C29.1796 27.2793 28.8495 27.326 28.4991 27.3735C28.1042 27.4266 27.6815 27.4797 27.2177 27.5341C27.1627 27.5405 27.1108 27.5468 27.0549 27.553C26.6603 27.5961 26.2795 27.6555 25.907 27.7251C25.0526 27.8772 24.2147 28.1197 23.406 28.449C22.7652 28.7096 22.1567 29.0516 21.5939 29.4676C21.5527 29.4986 21.5151 29.5302 21.4757 29.5618C21.2566 29.7325 21.0488 29.9189 20.8537 30.1196C20.6779 30.3021 20.5157 30.4987 20.3685 30.7076C20.239 30.8897 20.1219 31.0814 20.0181 31.2811C19.8469 31.6156 19.7206 31.9738 19.6427 32.3453C19.626 32.4256 19.608 32.5065 19.5961 32.5875C19.5822 32.6969 19.5675 32.8202 19.5583 32.9429L19.5508 33.2154V33.2242L19.5716 33.5865C19.5745 33.6118 19.5769 33.646 19.5787 33.6801C19.5816 33.7267 19.5868 33.7731 19.5943 33.8192C19.6253 34.0585 19.6709 34.2955 19.7309 34.5286C19.7524 34.5937 19.7721 34.6594 19.7924 34.7258C19.8286 34.8602 19.8739 34.9916 19.928 35.1191C19.9333 35.1305 19.9381 35.1419 19.9428 35.1533C20.0964 35.5273 20.2859 35.8836 20.5081 36.2167C21.2057 37.215 22.0917 38.0487 23.1098 38.6648C23.8572 38.1334 24.6528 37.6825 25.485 37.319C25.2653 37.2039 25.0409 37.0794 24.8075 36.9415C23.8741 36.4242 23.0653 35.6868 22.4432 34.7862C22.2495 34.5138 22.1192 34.1969 22.0628 33.8612C22.0064 33.5255 22.0255 33.1804 22.1186 32.854C22.1783 32.6728 22.2619 32.5015 22.3669 32.345H22.2919C22.6123 31.9419 23.0083 31.6136 23.4546 31.3808C23.4869 31.3625 23.5197 31.3454 23.5519 31.3277C23.5633 31.3214 23.574 31.315 23.5854 31.3094C23.6695 31.2644 23.7519 31.2227 23.836 31.1828C23.8665 31.169 23.8949 31.1544 23.9255 31.1405C24.0545 31.0818 24.1816 31.028 24.304 30.983C24.3123 30.9799 24.3207 30.9761 24.3296 30.973L24.3331 30.9717C24.4991 30.9085 24.6721 30.8547 24.8452 30.8003C25.1947 30.6933 25.5491 30.6053 25.9071 30.5367C26.1267 30.4937 26.3505 30.456 26.5822 30.4246C26.7893 30.3968 27.0016 30.3738 27.219 30.3557C27.253 30.3525 27.2849 30.3477 27.3193 30.3449C27.7389 30.3082 28.1293 30.2715 28.4993 30.2343C29.2944 30.1546 29.9897 30.0712 30.6265 29.9795C31.3893 29.8645 32.1706 29.7329 32.9573 29.5616C33.2265 29.5029 33.4959 29.439 33.7655 29.37C34.0131 29.3068 34.2615 29.2391 34.5086 29.1659C35.2961 28.9352 36.0658 28.6407 36.8107 28.2852C37.8454 27.8143 38.7562 27.0837 39.4645 26.1564C39.5152 26.0855 39.558 26.0103 39.6048 25.9376C39.9097 25.4752 40.1292 24.9558 40.2518 24.4069C40.2559 24.3873 40.2601 24.3684 40.2656 24.3487C40.2958 24.203 40.3175 24.0554 40.3307 23.9068L40.3635 23.1462L40.3587 23.0311C40.3579 23.0261 40.3574 23.021 40.3573 23.0159Z" fill="var(--fill-0, #85889C)"></path>
<path id="Vector_11" d="M32.5652 41.4479C32.2893 40.7215 31.8493 40.0732 31.2816 39.5564C31.1741 39.4571 31.0666 39.365 30.9577 39.2735C30.3711 39.5897 29.7666 39.8692 29.1474 40.1107C29.0398 40.155 28.9253 40.195 28.8137 40.2375C29.5286 40.5919 30.1236 41.1589 30.5216 41.8652C30.5764 41.9721 30.623 42.0833 30.6611 42.1976H30.6577C30.6618 42.2096 30.6664 42.2216 30.6705 42.2335C30.6798 42.2575 30.6896 42.2814 30.6972 42.3077C30.7329 42.4331 30.7561 42.562 30.7664 42.6922L30.767 42.694C30.7872 42.9592 30.7608 43.226 30.6891 43.4816C30.6844 43.4984 30.6775 43.5145 30.6728 43.5308C30.6536 43.5955 30.6257 43.6582 30.6013 43.7217C30.5798 43.7779 30.5642 43.8353 30.5379 43.8897C30.5258 43.922 30.5112 43.9532 30.4944 43.9831L30.4583 44.0446H30.4577L30.4461 44.0655C30.4234 44.1024 30.3971 44.1368 30.3676 44.1683C30.118 44.5162 29.7882 44.7946 29.4079 44.9786C29.3893 44.9876 29.3684 44.9948 29.3498 45.0037C29.2596 45.0444 29.1713 45.0857 29.0724 45.1198L29.0701 45.1204C28.8604 45.1957 28.6359 45.2615 28.4057 45.3237C28.3702 45.3326 28.3365 45.3423 28.3011 45.3518L28.2895 45.3556C28.0006 45.4303 27.6977 45.4997 27.3861 45.5702C27.3827 45.5715 27.378 45.572 27.3733 45.5733C27.2675 45.5972 27.1588 45.6234 27.0518 45.648C26.6391 45.7431 26.2177 45.8429 25.7811 45.9727L25.7764 45.9745C25.1829 46.1392 24.6178 46.398 24.1016 46.7416C24.0674 46.7649 24.0331 46.787 23.9986 46.8122C23.8381 46.9321 23.6892 47.0675 23.5538 47.2166C23.4355 47.3442 23.3268 47.4809 23.2288 47.6256C23.2038 47.6635 23.1816 47.7051 23.1585 47.7452C22.9913 48.0338 22.868 48.347 22.7928 48.6739C22.7591 48.8449 22.7341 49.0175 22.7178 49.1911L22.7031 49.5793L22.713 49.7294L22.7265 49.9224C22.7416 50.0366 22.7614 50.1508 22.7858 50.2626C22.8297 50.4592 22.8948 50.6501 22.98 50.8318C23.2509 51.3766 23.6575 51.8376 24.1583 52.1678C24.6126 51.8224 25.0952 51.5185 25.6007 51.2593C25.4425 51.1696 25.2903 51.0781 25.1508 50.9824C24.8103 50.7705 24.5364 50.4622 24.3619 50.0944C24.3608 50.0902 24.3503 50.0591 24.3484 50.0549C24.3415 50.0346 24.3327 50.0047 24.3234 49.9688C24.3041 49.8903 24.2926 49.81 24.2891 49.729C24.2874 49.7025 24.2851 49.6805 24.2833 49.6513C24.2822 49.6381 24.281 49.6244 24.2804 49.6106C24.2798 49.5903 24.2787 49.5682 24.2787 49.5454C24.2781 49.54 24.2781 49.5347 24.2775 49.5293H24.2781V49.5275C24.2781 49.5113 24.2781 49.4963 24.2787 49.4808C24.2805 49.4262 24.2877 49.3719 24.3002 49.3188C24.3083 49.25 24.3182 49.1973 24.3287 49.1465L24.3374 49.1023C24.3425 49.0662 24.3511 49.0307 24.3631 48.9963C24.4416 48.7266 24.597 48.4874 24.8092 48.3097C24.8557 48.269 24.9012 48.229 24.9574 48.1877C25.1749 48.0454 25.4074 47.9288 25.6504 47.8403C25.6905 47.8247 25.734 47.8104 25.7765 47.7954C25.9271 47.741 26.0846 47.6894 26.2537 47.6459C26.5031 47.5759 26.7729 47.5167 27.0508 47.4599C27.2251 47.4241 27.3995 47.3888 27.5815 47.3535C27.8175 47.3081 28.0574 47.2598 28.3011 47.2088C28.7284 47.119 29.1679 47.0157 29.6347 46.8703C29.7528 46.8321 29.876 46.7883 30.0015 46.7411C30.2288 46.6561 30.4504 46.5557 30.6648 46.4403C30.86 46.3356 31.0472 46.2156 31.2246 46.0815C31.3188 46.0103 31.4122 45.9357 31.5047 45.8519L31.7233 45.6354C31.7994 45.5486 31.8785 45.4458 31.9505 45.3489C31.9922 45.2953 32.031 45.2394 32.0668 45.1815L32.2395 44.8862C32.4137 44.5534 32.5528 44.2024 32.6545 43.8391C32.7978 43.3049 32.8313 42.7458 32.7527 42.1975C32.7186 41.941 32.6557 41.6895 32.5652 41.4479Z" fill="var(--fill-0, #85889C)"></path>
<path id="Vector_12" d="M23.861 60.7696C23.4721 60.8365 23.1273 60.8853 22.8329 60.9237C22.5055 60.9649 22.2079 60.9955 21.9702 61.0139C21.9602 61.0149 21.949 61.0155 21.9396 61.0161C21.8674 61.0197 21.7967 61.0361 21.7315 61.0643C21.6664 61.0925 21.6081 61.1319 21.56 61.1802C21.5118 61.2281 21.4749 61.2842 21.4514 61.3451C21.4279 61.4059 21.4183 61.4704 21.4231 61.5347C21.4311 61.6596 21.4921 61.7772 21.5938 61.8632C21.6955 61.9493 21.8301 61.9973 21.9702 61.9976L22.0027 61.9965C22.0108 61.9959 22.1054 61.9892 22.2728 61.9798L22.9798 61.9184C23.7282 61.8429 24.4713 61.7308 25.206 61.5829C24.7802 61.3758 24.3748 61.1368 23.9943 60.8685C23.9505 60.8386 23.9053 60.8023 23.861 60.7696Z" fill="var(--fill-0, #85889C)"></path>
<path id="Vector_13" d="M32.2625 60.9434V60.9428C32.2597 60.9429 32.257 60.9427 32.2542 60.9422V60.9428L32.2338 60.941C32.0913 60.9315 31.7743 60.9011 31.3493 60.8451C31.0459 60.8041 30.6903 60.7523 30.289 60.6802C30.0161 60.6307 29.7202 60.5712 29.4051 60.5005C29.2109 60.4558 29.0095 60.4081 28.7992 60.354C28.7064 60.329 28.6087 60.301 28.511 60.2736C28.426 60.2492 28.3378 60.2224 28.2495 60.1967C27.7815 60.0591 27.3228 59.8951 26.8761 59.7055C26.6046 59.5901 26.3402 59.4607 26.0842 59.3178C25.8727 59.1982 25.6689 59.0672 25.4739 58.9254C25.447 58.9063 25.4189 58.8885 25.3928 58.8689C25.3652 58.8486 25.3358 58.8309 25.3084 58.81C24.7494 58.4055 24.3542 57.8364 24.1873 57.1956C24.1848 57.1805 24.1822 57.1664 24.1803 57.1515C24.1608 57.0964 24.1494 57.0391 24.1464 56.9812L24.1303 56.6627C24.1222 56.5799 24.1267 56.4965 24.1437 56.4149C24.149 56.3205 24.1627 56.2267 24.1845 56.1345C24.2505 55.7915 24.3979 55.4666 24.6159 55.1835C24.822 54.9212 25.0724 54.6917 25.3572 54.504C25.3936 54.479 25.4351 54.4546 25.4736 54.4296C25.6639 54.3034 25.8617 54.1873 26.066 54.0818C26.2872 53.9675 26.5281 53.8551 26.7888 53.7448C26.8172 53.7328 26.8464 53.721 26.8745 53.7084C27.1404 53.5935 27.4209 53.4828 27.7188 53.366C27.8939 53.2982 28.0707 53.2279 28.2492 53.1552C28.3968 53.0956 28.5452 53.0349 28.696 52.9694C28.9267 52.8699 29.1634 52.7588 29.4061 52.636C29.5607 52.5573 29.7167 52.4777 29.8772 52.3864C29.9347 52.3518 29.9948 52.3148 30.0561 52.2758C30.6119 51.9417 31.0619 51.4755 31.3599 50.9253C31.4492 50.7507 31.5175 50.5676 31.5638 50.3792C31.5913 50.2661 31.613 50.153 31.6303 50.0397L31.6443 49.8475L31.6558 49.6998L31.6386 49.2919C31.6194 49.1167 31.5899 48.9426 31.5504 48.7703C31.4679 48.4537 31.3345 48.1506 31.1547 47.8711C30.8201 48.0124 30.4764 48.1345 30.1258 48.2367C29.8554 48.3129 29.5953 48.3767 29.3403 48.4351C29.5742 48.6126 29.7455 48.8517 29.8318 49.1211C29.844 49.1549 29.8532 49.1896 29.8593 49.2248L29.8689 49.2707C29.881 49.3242 29.8932 49.3802 29.9008 49.4415C29.9183 49.508 29.9263 49.5763 29.9245 49.6446H29.9251L29.9245 49.6512C29.9245 49.6672 29.9238 49.6821 29.9232 49.6958C29.9225 49.7146 29.9207 49.7338 29.9181 49.7523L29.913 49.8476L29.9078 49.9483C29.9031 50.0392 29.8776 50.1281 29.8331 50.209C29.6418 50.5769 29.3398 50.885 28.9639 51.0957C28.8111 51.191 28.6437 51.2822 28.4699 51.3714C28.3989 51.4078 28.3235 51.443 28.2494 51.4786C28.0717 51.5655 27.8889 51.6507 27.6972 51.7346C27.5054 51.8197 27.3092 51.9042 27.1086 51.9901C27.0317 52.0228 26.9519 52.0592 26.8753 52.0919C26.6204 52.2014 26.3627 52.311 26.1037 52.4306C25.8979 52.5265 25.6864 52.6313 25.4736 52.742C25.3336 52.8146 25.1936 52.8885 25.0544 52.9695C24.8301 53.1005 24.6141 53.2434 24.4076 53.3976C24.2156 53.5414 24.0343 53.6972 23.865 53.8639C23.6885 54.0348 23.5273 54.2189 23.3831 54.4144C23.0546 54.8723 22.8405 55.3931 22.7568 55.9383C22.7335 56.0595 22.7194 56.1821 22.7146 56.3051L22.7031 56.6189L22.7316 57.0364C22.7559 57.1876 22.784 57.3383 22.816 57.486C22.9953 58.1592 23.3623 58.7763 23.8799 59.2748C24.0593 59.4535 24.2526 59.6196 24.4584 59.7717C24.4711 59.7807 24.4833 59.789 24.4967 59.7985C24.7337 59.9711 24.9819 60.1298 25.24 60.2737C25.3186 60.3178 25.3966 60.3571 25.4739 60.3969C25.8338 60.5814 26.2052 60.7459 26.586 60.8894C26.6818 60.9252 26.7783 60.9586 26.8742 60.9925C27.1982 61.1055 27.5308 61.2092 27.8834 61.3045C28.0016 61.3366 28.1268 61.367 28.2496 61.398C28.3294 61.4182 28.4049 61.4395 28.488 61.4593C28.6318 61.492 28.7711 61.523 28.9079 61.5516C29.667 61.7106 30.4348 61.8306 31.208 61.9111C31.5218 61.9397 31.773 61.9623 31.9417 61.9768L32.2325 61.9934C32.3791 61.9929 32.5197 61.9392 32.6245 61.8438C32.7293 61.7483 32.79 61.6186 32.794 61.4821C32.7979 61.3456 32.7446 61.213 32.6454 61.1125C32.5462 61.012 32.4088 60.9512 32.2625 60.9434Z" fill="var(--fill-0, #85889C)"></path>
<path id="Vector_14" d="M34.6561 32.2744C34.6491 32.174 34.6345 32.051 34.6199 31.9299C34.6089 31.8556 34.5926 31.7807 34.5774 31.7064C34.5004 31.3393 34.3763 30.9854 34.2084 30.6548C34.1073 30.4581 33.9934 30.2693 33.8674 30.0899C32.8252 30.3589 31.7906 30.543 30.7857 30.6978C31.2564 30.9227 31.6676 31.2693 31.9824 31.7064C32.0743 31.8398 32.1497 31.9854 32.2068 32.1395C32.3016 32.4222 32.3348 32.7243 32.3037 33.0228C32.2725 33.3213 32.178 33.6082 32.0272 33.8615C31.572 34.7247 30.7326 35.5267 29.5325 36.2445C29.3046 36.3799 29.0859 36.5023 28.8709 36.6158C28.7228 36.6945 28.5777 36.7675 28.4331 36.8368C28.3131 36.8948 28.1936 36.9504 28.0753 37.0022C28.0607 37.0085 28.0455 37.0159 28.031 37.0222C27.7536 37.152 27.4739 37.2599 27.18 37.3723L27.1392 37.3885C26.9077 37.4765 26.6558 37.5733 26.3622 37.6962C26.2106 37.7618 26.0561 37.8305 25.9017 37.9017C25.4035 38.1277 24.919 38.3868 24.451 38.6775C24.2413 38.8092 24.0308 38.9496 23.8233 39.1049C23.6351 39.2447 23.4484 39.3977 23.2631 39.5599C23.153 39.6573 23.0428 39.7547 22.9338 39.8602C22.3694 40.3954 21.9312 41.0659 21.6549 41.8169C21.5632 42.0733 21.4991 42.3401 21.4637 42.6121C21.3846 43.183 21.4179 43.7653 21.5616 44.3216C21.6623 44.701 21.8015 45.0675 21.9767 45.4145L22.0548 45.5655L22.0653 45.583L22.1527 45.7284C22.1876 45.7873 22.2254 45.8441 22.2658 45.8987C22.3398 46.0011 22.4197 46.109 22.4972 46.2008L22.7368 46.4485C22.8213 46.5278 22.907 46.6002 22.9939 46.6683C23.1177 46.5455 23.2481 46.4304 23.3844 46.3237C23.8265 45.9903 24.3066 45.7187 24.8131 45.5155C24.4726 45.358 24.1717 45.1167 23.9347 44.8112C23.6978 44.5057 23.5316 44.1446 23.4496 43.7573C23.3797 43.375 23.4064 42.9795 23.5271 42.612C23.68 42.1553 23.9431 41.75 24.2895 41.4373C24.652 41.1096 25.0462 40.8242 25.4652 40.586C25.611 40.5005 25.7567 40.4213 25.9018 40.3463C26.0242 40.2827 26.1461 40.2215 26.2661 40.1652C26.5669 40.0242 26.8554 39.9018 27.1113 39.8038C27.1316 39.7959 27.1586 39.7864 27.1807 39.7776C27.3415 39.7165 27.5312 39.649 27.742 39.5754C27.9629 39.4986 28.199 39.4132 28.4333 39.3239C28.5661 39.2733 28.6992 39.2234 28.825 39.1698C29.18 39.0276 29.542 38.8614 29.9092 38.6767C30.1313 38.565 30.3539 38.4482 30.5801 38.321C30.5877 38.317 30.5949 38.3128 30.6028 38.3085C30.794 38.1962 30.9916 38.0738 31.1909 37.9446C32.186 37.335 33.0521 36.5108 33.7341 35.5242C33.9501 35.1963 34.1341 34.8456 34.2832 34.4775C34.2879 34.4663 34.2925 34.455 34.2972 34.4444C34.3502 34.3184 34.3948 34.1884 34.4307 34.0556C34.4499 33.9907 34.4691 33.9258 34.4897 33.8627C34.5472 33.6366 34.5914 33.4069 34.6221 33.1749C34.6301 33.126 34.6357 33.0766 34.639 33.027C34.6408 32.9933 34.6427 32.9596 34.6477 32.9128L34.6664 32.5776C34.6658 32.5645 34.6658 32.5514 34.6658 32.5381L34.6561 32.2744Z" fill="var(--fill-0, #85889C)"></path>
<path id="Vector_15" d="M20.8819 27.4807C21.5528 27.0422 22.2784 26.6813 23.0425 26.4062C23.2223 26.3399 23.4131 26.2839 23.601 26.2245C21.9627 25.9825 20.3667 25.5356 18.856 24.896C18.6805 24.8141 18.5137 24.727 18.3568 24.6375C17.9212 24.4124 17.5429 24.102 17.2478 23.7275C17.1775 23.6314 17.1191 23.5282 17.0736 23.4199C17.0449 23.3657 17.0243 23.308 17.0124 23.2485C17.0013 23.1807 16.9982 23.112 17.0031 23.0436L17.0038 23.0015L17.0062 22.8694C17.0062 22.8342 17.0074 22.8007 17.0087 22.7684C17.0087 22.7609 17.0093 22.7534 17.01 22.7465L17.0124 22.7176C17.0197 22.6424 17.0387 22.5686 17.0687 22.4984C17.1014 22.353 17.1567 22.2128 17.2329 22.0824C17.2453 22.0633 17.2582 22.0443 17.2723 22.0264C17.3433 21.9331 17.436 21.8561 17.5436 21.8014C17.8008 21.6817 18.082 21.6137 18.369 21.6017C18.458 21.5953 18.5599 21.5919 18.6637 21.5919C18.8668 21.593 19.0695 21.6049 19.2711 21.6277C20.3368 22.9162 22.3003 23.2186 22.9601 23.2954C23.7318 23.386 26.525 22.4413 24.5021 19.7868C23.2288 18.1162 21.3853 18.2812 20.1915 18.6321C20.0895 18.6182 19.9864 18.605 19.8745 18.5928C19.2538 18.5277 18.6275 18.5225 18.0056 18.5773C17.0795 18.6544 16.1967 18.9787 15.4626 19.5115C15.0146 19.8493 14.6489 20.2725 14.3901 20.7528C14.1476 21.2181 13.9889 21.7177 13.9205 22.2313L13.8711 22.7558L13.9063 23.4357C13.9197 23.5674 13.9413 23.6983 13.9711 23.8276C13.9773 23.8461 13.9823 23.8645 13.9866 23.883C14.0495 24.1432 14.1423 24.3963 14.2634 24.6378C14.4103 24.9372 14.5918 25.2206 14.8046 25.4832C15.5408 26.3313 16.4872 26.9991 17.5619 27.4285C18.3284 27.751 19.1203 28.0178 19.9307 28.2266C20.2256 27.9543 20.5437 27.7049 20.8819 27.4807Z" fill="var(--fill-0, #85889C)"></path>
</g>
</svg>