<svg preserveAspectRatio="none" width="100%" height="100%" overflow="visible" style="display: block;" viewBox="0 0 72.1017 27.1063" fill="none" xmlns="http://www.w3.org/2000/svg">
<g id="layer1">
<path id="path24" d="M19.7225 27.0439C19.6957 27.0004 19.7095 26.7782 19.7533 26.5499C19.8824 25.8768 20.3768 23.5367 20.5889 22.5955C20.6968 22.1161 20.7572 21.696 20.723 21.6618C20.6888 21.6276 16.0121 21.5906 10.3304 21.5796L0 21.5596L0.00405468 21.1652C0.00629081 20.9482 0.192358 19.8833 0.417551 18.7986C1.27676 14.66 1.46644 13.739 1.53043 13.3949C1.56674 13.1996 1.77821 12.1524 2.00038 11.0678C2.63658 7.96159 3.49404 3.76292 3.75548 2.47364C3.88696 1.82528 4.02885 1.23068 4.0708 1.1523C4.14375 1.01599 4.60091 1.0098 14.592 1.0098C21.8422 1.0098 25.0527 1.03529 25.0885 1.09314C25.1168 1.13897 25.0854 1.41409 25.0186 1.7045C24.9519 1.99492 24.7672 2.85376 24.6083 3.61304C24.4493 4.37231 24.2863 5.12647 24.246 5.28894L24.1727 5.58434L17.1416 5.60449L10.1105 5.62465L10.0525 5.82186C10.0206 5.93033 9.91854 6.44506 9.82579 6.96571C9.73304 7.48636 9.60446 8.15393 9.54006 8.44921C9.47567 8.74449 9.4437 9.0196 9.46902 9.06058C9.49726 9.10627 11.8748 9.13507 15.6194 9.13507C19.2227 9.13507 21.742 9.16462 21.7683 9.2072C21.7928 9.24687 21.6896 9.85923 21.5389 10.568C21.3881 11.2767 21.207 12.1406 21.1364 12.4877C21.0657 12.8348 20.9766 13.1987 20.9383 13.2963L20.8687 13.4738H14.7122C11.5948 13.5197 14.7122 13.4738 8.52898 13.5063L7.87351 17.0807C14.841 17.0834 12.4322 17.0899 14.841 17.0834L21.7587 17.0632L21.8579 16.5899C21.9125 16.3296 22.0692 15.6019 22.2061 14.9727C22.343 14.3436 22.5735 13.2609 22.7183 12.5667C23.0501 10.9758 23.598 8.38781 23.7455 7.71525C23.8073 7.43323 23.9372 6.83863 24.0341 6.39391L24.2103 5.58533L27.1329 5.58652C28.7403 5.58711 30.0992 5.6155 30.1526 5.64942C30.2276 5.69702 30.2026 5.92269 30.0435 6.63692C29.9301 7.14612 29.8581 7.5835 29.8834 7.60888C29.9088 7.63425 30.0151 7.5887 30.1195 7.50764C30.9404 6.87051 31.3036 6.62523 31.8611 6.3316C33.6259 5.40205 35.7742 5.03879 37.9601 5.30031C40.1412 5.56126 41.4066 6.10152 42.6 7.28136C43.4499 8.12147 43.9914 9.20002 44.1796 10.4273C44.2054 10.5957 44.2547 10.7022 44.2892 10.664C44.3467 10.6003 44.5157 9.88905 44.8118 8.46465C45.2199 6.50195 45.4151 5.70268 45.4996 5.64899C45.6322 5.56476 51.4074 5.57115 51.5408 5.65567C51.6287 5.71131 51.6313 5.80034 51.5552 6.14749C51.5042 6.38063 51.3921 6.89087 51.3062 7.28136C51.2203 7.67184 51.0311 8.55931 50.8858 9.2535C50.7404 9.9477 50.5963 10.6133 50.5654 10.7326C50.4663 11.1157 50.6587 10.9708 50.9568 10.4378C51.579 9.32513 52.8026 8.03124 53.9718 7.24959C56.4989 5.56005 60.2211 4.75645 64.2663 5.02707C66.5363 5.17893 67.7431 5.44708 69.1184 6.1052C70.5442 6.78745 71.3809 7.68972 71.8518 9.0528C72.045 9.61207 72.0861 9.86112 72.0932 10.5157L72.1017 11.3045H68.9134H65.7251L65.5687 10.8354C65.2365 9.83869 64.3156 9.27451 62.807 9.14352C60.7506 8.96496 59.1957 9.43436 57.9277 10.6165C56.4895 11.9571 55.7806 14.7768 56.4953 16.3138C57.0594 17.5269 58.2565 18.1282 60.1075 18.1282C62.1633 18.1282 63.7216 17.3756 64.6809 15.9195L65.0448 15.3672H68.2774C71.2103 15.3672 71.5101 15.3791 71.5101 15.4955C71.5101 15.5661 71.3618 15.8944 71.1807 16.2252C69.234 19.7796 66.4188 21.5518 61.8203 22.1176C60.5152 22.2782 57.0612 22.237 55.9278 22.0473C54.5029 21.8088 53.5896 21.5209 52.538 20.979C51.557 20.4734 50.5229 19.4579 50.1167 18.6015C49.8254 17.9871 49.631 17.3381 49.5409 16.679C49.4783 16.2211 49.377 16.2771 49.2686 16.8293C49.2263 17.0447 49.0675 17.8067 48.9156 18.5226C48.7637 19.2385 48.5831 20.0905 48.5142 20.4159C48.4454 20.7413 48.3538 21.1406 48.3108 21.3033L48.2326 21.5991H45.1961C42.6724 21.5991 42.1524 21.5806 42.1174 21.4892C42.0777 21.3858 42.2604 20.4008 42.6385 18.6804C42.729 18.2682 42.8389 17.7357 42.8826 17.4971C42.9264 17.2584 42.9803 17.0011 43.0025 16.9252C43.0694 16.6963 42.9185 16.7698 42.7597 17.0435C42.2224 17.969 41.0699 19.2308 40.089 19.967C38.0455 21.5009 35.7531 22.2286 32.9604 22.2297C30.592 22.2306 28.9963 21.7327 27.8285 20.6283C27.5989 20.4112 27.3877 20.2569 27.3591 20.2855C27.3305 20.3141 27.26 20.5593 27.2024 20.8303C27.1449 21.1013 26.9748 21.9088 26.8246 22.6247C26.6744 23.3406 26.478 24.2635 26.3882 24.6757C26.2984 25.0879 26.168 25.6913 26.0983 26.0168C26.0286 26.3422 25.9483 26.7149 25.9199 26.8451L25.8681 27.0817L22.8197 27.1023C20.8474 27.1157 19.7541 27.095 19.7225 27.0439ZM34.1348 17.5048C35.9167 16.9907 37 15.8757 37.5452 13.9945C37.813 13.0703 37.8255 12.0333 37.577 11.369C37.3428 10.7431 36.768 10.1788 36.0882 9.90752C35.0668 9.49987 33.3297 9.46081 32.1854 9.81977C30.0387 10.4932 28.6814 12.3501 28.6497 14.6571C28.6393 15.4106 28.6582 15.5281 28.8582 15.9587C29.302 16.9143 30.0926 17.4615 31.3177 17.6609C31.9561 17.7649 33.5371 17.6772 34.1348 17.5048ZM45.9012 3.40269C45.9548 3.01127 46.4753 0.555666 46.5756 0.220931L46.6347 0.0237157L49.6603 0.00304306C51.3244 -0.00832545 52.7168 0.0131614 52.7544 0.0507962C52.8199 0.116241 52.7102 0.747371 52.341 2.42974C52.2505 2.84192 52.1498 3.3034 52.1171 3.45525L52.0577 3.73136L48.9541 3.75199L45.8504 3.77265L45.9012 3.40269Z" fill="var(--fill-0, black)"></path>
</g>
</svg>