<svg preserveAspectRatio="none" width="100%" height="100%" overflow="visible" style="display: block;" viewBox="0 0 183.624 28.7833" fill="none" xmlns="http://www.w3.org/2000/svg">
<g id="Layer">
<path id="Layer_2" d="M62.4002 4.4876V21.5071H57.2152V4.4876H51.1562V0.0703125H68.4592V4.4876H62.4002Z" fill="var(--fill-0, black)"></path>
<path id="Layer_3" d="M85.9968 21.5122V19.4217C85.9968 19.4217 85.17 20.6382 84.1897 21.1815C83.7881 21.4059 83.3629 21.5831 82.8905 21.7248C82.4063 21.8666 81.9102 21.9374 81.3905 21.9374C80.3748 21.9374 79.5244 21.7603 78.8276 21.3941C78.1268 21.0319 77.5598 20.5634 77.1268 19.9886C76.6898 19.4099 76.3827 18.7603 76.1937 18.0162C75.9969 17.2839 75.8984 16.532 75.8984 15.7603V6.42969H80.9063V14.6147C80.9063 15.0398 80.9338 15.4414 80.9889 15.8194C81.0519 16.2052 81.17 16.5516 81.3433 16.8587C81.5086 17.154 81.733 17.3902 82.0283 17.5674C82.3118 17.7327 82.6779 17.8272 83.1385 17.8272C84.0125 17.8272 84.674 17.5044 85.1228 16.8587C85.5795 16.2052 85.8078 15.4454 85.8078 14.5792V6.42969H90.7802V21.5122H85.9968Z" fill="var(--fill-0, black)"></path>
<path id="Layer_4" fill-rule="evenodd" clip-rule="evenodd" d="M109.58 15.2715C109.58 16.4447 109.348 17.4289 108.883 18.2242C108.418 19.0195 107.804 19.6612 107.04 20.1494C106.269 20.6297 105.395 20.9762 104.418 21.1888C103.426 21.4132 102.434 21.5076 101.395 21.5076H92.8438V0.070826H101.395C102.222 0.0629521 103.072 0.145629 103.946 0.318855C104.812 0.492082 105.6 0.787355 106.308 1.20467C107.017 1.61806 107.584 2.17317 108.033 2.88182C108.481 3.59048 108.706 4.48811 108.706 5.57471C108.706 6.76368 108.383 7.74792 107.737 8.52744C107.088 9.30697 106.237 9.87389 105.186 10.2046V10.2636C105.789 10.3699 106.367 10.5589 106.899 10.8306C107.43 11.0904 107.903 11.4447 108.292 11.8699C108.686 12.2951 108.997 12.7912 109.225 13.3581C109.462 13.925 109.58 14.5628 109.58 15.2597V15.2715ZM103.698 6.28337C103.698 5.55109 103.418 5.0196 102.859 4.6889C102.304 4.35819 101.478 4.19284 100.391 4.19284H97.8398V8.62193H100.627C101.604 8.61406 102.355 8.41327 102.883 8.01957C103.426 7.62981 103.686 7.05108 103.686 6.28337H103.698ZM104.395 14.799C104.395 13.9093 104.064 13.2912 103.403 12.9447C102.733 12.6061 101.844 12.4369 100.733 12.4369H97.8516V17.3384H100.757C101.167 17.3384 101.588 17.303 102.021 17.2321C102.446 17.1612 102.848 17.0313 103.202 16.8541C103.556 16.673 103.844 16.4171 104.064 16.0864C104.285 15.7479 104.395 15.3187 104.395 14.799Z" fill="var(--fill-0, black)"></path>
<path id="Layer_5" d="M122.445 6.42969H127.418V21.5122H122.445V6.42969Z" fill="var(--fill-0, black)"></path>
<path id="Layer_6" fill-rule="evenodd" clip-rule="evenodd" d="M141.072 21.5077V19.5471H141.013C140.532 20.3108 139.839 20.9014 138.934 21.3187C138.036 21.7321 137.08 21.9447 136.064 21.9447C134.942 21.9447 133.926 21.7203 133.04 21.2715C132.151 20.8305 131.395 20.24 130.773 19.4998C130.158 18.7597 129.69 17.9054 129.367 16.9369C129.048 15.9684 128.883 14.9644 128.883 13.9133C128.883 12.8621 129.048 11.8582 129.379 10.9015C129.721 9.93298 130.194 9.09441 130.808 8.36213C131.422 7.64166 132.178 7.06293 133.052 6.63774C133.934 6.21254 134.918 5.99995 136.005 5.99995C139.359 5.99995 140.67 7.58261 140.67 7.58261V0H145.643V21.5077H141.072ZM140.895 13.9369C140.895 13.4526 140.8 12.9802 140.635 12.5196C140.461 12.055 140.217 11.6416 139.902 11.2794C139.587 10.9094 139.209 10.6141 138.769 10.3936C138.32 10.1692 137.812 10.0629 137.245 10.0629C136.69 10.0629 136.147 10.1692 135.71 10.3936C135.261 10.618 134.883 10.9015 134.587 11.2558C134.28 11.6101 134.052 12.0196 133.902 12.4841C133.749 12.9448 133.666 13.4172 133.666 13.9133C133.666 14.4014 133.745 14.8818 133.902 15.3542C134.052 15.8266 134.28 16.244 134.587 16.6062C134.887 16.9684 135.261 17.2597 135.71 17.4802C136.147 17.7046 136.666 17.8109 137.245 17.8109C137.835 17.8109 138.32 17.7046 138.769 17.4802C139.206 17.2558 139.584 16.9723 139.902 16.6062C140.221 16.24 140.458 15.8266 140.635 15.366C140.8 14.9054 140.895 14.4329 140.895 13.9369Z" fill="var(--fill-0, black)"></path>
<path id="Layer_7" fill-rule="evenodd" clip-rule="evenodd" d="M181.084 14.1461V14.7484C181.084 14.961 181.072 15.15 181.048 15.3272H170.111C170.151 15.7524 170.277 16.1382 170.489 16.4846C170.702 16.8272 170.974 17.1224 171.304 17.3705C171.635 17.6303 172.013 17.8193 172.426 17.961C172.84 18.1027 173.265 18.1854 173.714 18.1854C174.501 18.1854 175.166 18.0398 175.71 17.7484C176.253 17.4531 176.702 17.0752 177.044 16.6028L180.505 18.7878C179.796 19.8193 178.863 20.6106 177.706 21.1618C176.537 21.7169 175.19 22.0003 173.655 22.0003C172.521 22.0003 171.446 21.8232 170.442 21.4689C169.426 21.1145 168.552 20.6067 167.785 19.9216C167.029 19.2445 166.434 18.4138 166.001 17.4295C165.568 16.4374 165.352 15.3036 165.352 14.028C165.352 12.7642 165.564 11.6894 165.989 10.6855C166.415 9.6855 166.989 8.83511 167.714 8.13433C168.446 7.43749 169.296 6.906 170.289 6.51624C171.281 6.13041 172.355 5.9375 173.513 5.9375C174.659 5.9375 175.639 6.12648 176.572 6.50442C177.493 6.87056 178.296 7.41386 178.958 8.12252C179.631 8.81936 180.151 9.68156 180.517 10.6973C180.895 11.7052 181.084 12.8548 181.084 14.1461ZM176.501 12.2327C176.501 11.4532 176.253 10.7682 175.757 10.2131C175.269 9.64613 174.529 9.36267 173.537 9.36267C173.052 9.36267 172.603 9.43353 172.202 9.58707C171.792 9.74455 171.438 9.95321 171.139 10.2131C170.832 10.4847 170.596 10.7918 170.407 11.1343C170.226 11.4886 170.123 11.8587 170.1 12.2445H176.501V12.2327Z" fill="var(--fill-0, black)"></path>
<path id="Layer_8" d="M73.4209 6.4375C70.3737 6.4375 69.3225 8.96504 69.3225 8.96504V6.4375H64.5391V21.5082H69.5115V14.1973C69.5115 13.8902 69.5705 13.5477 69.6886 13.1461C69.8067 12.7367 70.0036 12.3626 70.2792 12.0241C70.5508 11.6815 70.917 11.3981 71.3776 11.1501C71.8264 10.9138 72.3933 10.7839 73.0547 10.7839H74.2358V6.4375H73.4209Z" fill="var(--fill-0, black)"></path>
<path id="Layer_9" d="M127.771 2.72832C127.779 3.11415 127.704 3.47241 127.547 3.80312C127.393 4.13382 127.192 4.42909 126.944 4.66531C126.684 4.91334 126.389 5.10232 126.035 5.24405C125.68 5.38578 125.303 5.45664 124.925 5.45664C124.114 5.45664 123.436 5.18893 122.893 4.6535C122.35 4.12201 122.078 3.47241 122.078 2.72832C122.078 2.36612 122.149 2.01967 122.291 1.68896C122.432 1.35038 122.637 1.06298 122.905 0.826764C123.165 0.578735 123.46 0.38976 123.803 0.224407C124.157 0.0826764 124.523 0 124.925 0C125.31 0 125.68 0.0708655 126.035 0.212597C126.389 0.354328 126.692 0.547239 126.944 0.791332C127.192 1.03936 127.393 1.32282 127.547 1.65353C127.704 1.98423 127.783 2.3425 127.783 2.72832H127.771Z" fill="var(--fill-0, black)"></path>
<path id="Layer_10" fill-rule="evenodd" clip-rule="evenodd" d="M163.877 6.42519V20.1022C163.877 21.5747 163.664 22.8542 163.239 23.9408C162.814 25.0392 162.212 25.9368 161.444 26.6573C160.676 27.366 159.743 27.9093 158.645 28.2636C157.546 28.6061 156.33 28.7833 154.995 28.7833C153.649 28.7833 152.29 28.5825 150.885 28.1809C150.176 27.9762 149.519 27.7282 148.912 27.4368L150.731 23.6337C151.168 23.9054 151.641 24.1416 152.125 24.3187C153.011 24.6258 153.873 24.7912 154.723 24.7912C156.18 24.7912 157.255 24.4053 157.948 23.6337C158.649 22.8699 158.999 21.8503 158.999 20.5747V19.6652H158.904C158.44 20.2715 157.814 20.7597 157.027 21.1298C156.239 21.492 155.342 21.6692 154.334 21.6613C153.176 21.6613 152.16 21.4605 151.275 21.0471C150.385 20.6298 149.633 20.0707 149.019 19.37C148.393 18.6613 147.92 17.8345 147.601 16.8897C147.283 15.9566 147.117 14.9645 147.117 13.9133C147.117 12.8621 147.283 11.8582 147.601 10.9133C147.92 9.95666 148.393 9.11808 149.019 8.39762C149.633 7.66534 150.385 7.08267 151.275 6.6496C152.16 6.2126 153.176 6 154.298 6C155.243 6 156.164 6.18897 157.027 6.57874C157.901 6.96456 158.597 7.55904 159.117 8.36218H159.176V6.42519H163.877ZM159.164 13.8779C159.164 13.3818 159.07 12.8858 158.904 12.4251C158.727 11.9645 158.479 11.5511 158.16 11.1968C157.842 10.8425 157.452 10.5708 157.003 10.37C156.562 10.1653 156.058 10.063 155.491 10.063C154.924 10.063 154.428 10.1693 153.991 10.37C153.558 10.5669 153.188 10.8385 152.881 11.185C152.582 11.5314 152.349 11.937 152.184 12.4015C152.019 12.8621 151.948 13.3818 151.948 13.8779C151.948 14.3858 152.031 14.87 152.184 15.3306C152.349 15.8031 152.586 16.2046 152.881 16.559C153.188 16.9133 153.554 17.1968 153.991 17.4093C154.428 17.6219 154.924 17.7282 155.491 17.7282C156.058 17.7282 156.566 17.6219 157.027 17.4093C157.475 17.1968 157.857 16.9172 158.172 16.5708C158.487 16.2322 158.731 15.8306 158.904 15.3661C159.082 14.9054 159.164 14.3858 159.164 13.8779Z" fill="var(--fill-0, black)"></path>
<path id="Layer_11" d="M119.94 6.4375C116.881 6.4375 115.842 8.96504 115.842 8.96504V6.4375H111.047V21.5082H116.019V14.1973C116.019 13.8902 116.078 13.5477 116.196 13.1461C116.322 12.7367 116.523 12.3626 116.799 12.0241C117.07 11.6815 117.437 11.3981 117.885 11.1501C118.334 10.9138 118.901 10.7839 119.574 10.7839H120.755V6.4375H119.94Z" fill="var(--fill-0, black)"></path>
<path id="Layer_12" fill-rule="evenodd" clip-rule="evenodd" d="M183.624 5.23552C183.624 5.53473 183.565 5.81426 183.447 6.0741C183.336 6.33394 183.183 6.55835 182.986 6.74732C182.797 6.9363 182.572 7.07803 182.313 7.19614C182.045 7.30637 181.761 7.36149 181.462 7.36149C181.167 7.36149 180.884 7.30244 180.612 7.19614C180.352 7.08984 180.116 6.9363 179.927 6.74732C179.726 6.55835 179.573 6.33394 179.466 6.0741C179.348 5.81426 179.289 5.53473 179.289 5.23552C179.289 4.94025 179.348 4.65679 179.466 4.39695C179.573 4.1253 179.726 3.90089 179.927 3.71192C180.116 3.51113 180.352 3.35759 180.612 3.25129C180.88 3.14106 181.163 3.08594 181.462 3.08594C181.761 3.08594 182.045 3.14106 182.313 3.25129C182.572 3.3694 182.797 3.52294 182.986 3.71192C183.187 3.90089 183.34 4.13711 183.447 4.39695C183.565 4.65679 183.624 4.94025 183.624 5.23552ZM183.21 5.23552C183.21 4.99143 183.163 4.75915 183.069 4.53868C182.982 4.32608 182.86 4.14105 182.702 3.98357C182.537 3.81821 182.348 3.68829 182.147 3.60562C181.935 3.51113 181.71 3.46389 181.462 3.46389C181.218 3.46389 180.99 3.51113 180.777 3.60562C180.553 3.68829 180.364 3.81821 180.21 3.98357C180.045 4.13711 179.915 4.32608 179.832 4.53868C179.738 4.75128 179.691 4.9875 179.691 5.23552C179.691 5.47174 179.738 5.69615 179.832 5.90875C179.915 6.12134 180.045 6.31032 180.21 6.46386C180.368 6.62134 180.557 6.74732 180.777 6.84181C180.99 6.92449 181.214 6.98354 181.462 6.98354C181.706 6.98354 181.935 6.9363 182.147 6.84181C182.352 6.74732 182.537 6.62134 182.702 6.46386C182.86 6.30638 182.982 6.12134 183.069 5.90875C183.163 5.69615 183.21 5.47174 183.21 5.23552Z" fill="var(--fill-0, black)"></path>
<path id="Layer_13" fill-rule="evenodd" clip-rule="evenodd" d="M182.03 5.37333L182.597 6.28277H181.889L181.464 5.46781H181.227V6.28277H180.625V4.08594H181.57C181.676 4.08594 181.782 4.09775 181.889 4.10956C181.995 4.14499 182.09 4.18042 182.184 4.22767C182.263 4.28279 182.33 4.35365 182.385 4.44027C182.44 4.53475 182.468 4.64499 182.468 4.77097C182.468 4.9127 182.42 5.04262 182.338 5.14892C182.259 5.25128 182.156 5.32608 182.03 5.37333ZM181.723 4.94813C181.782 4.9127 181.818 4.84184 181.818 4.77097C181.818 4.70011 181.782 4.65286 181.723 4.61743C181.653 4.582 181.593 4.55837 181.523 4.55837H181.204V5.019H181.523C181.601 5.019 181.672 4.99538 181.735 4.94813H181.723Z" fill="var(--fill-0, black)"></path>
<path id="Layer_14" d="M45.3303 0.0703125H0V21.5071H5.27948C6.72041 13.2159 13.9487 6.90883 22.6652 6.90883C31.3698 6.90883 38.6099 13.2159 40.0508 21.5071H45.3303V0.0703125Z" fill="var(--fill-0, black)"></path>
</g>
</svg>