<svg preserveAspectRatio="none" width="100%" height="100%" overflow="visible" style="display: block;" viewBox="0 0 104.734 30.1031" fill="none" xmlns="http://www.w3.org/2000/svg">
<g id="Group">
<path id="Vector" fill-rule="evenodd" clip-rule="evenodd" d="M0 15.0515C0 6.73557 6.73557 0 15.0515 0C23.3675 0 30.1031 6.73557 30.1031 15.0515C30.1031 23.3675 23.3675 30.1031 15.0515 30.1031C6.73557 30.1031 0 23.3675 0 15.0515ZM27.7827 15.0515C27.7827 8.02752 22.0756 2.32044 15.0515 2.32044C8.02752 2.32044 2.32044 8.02752 2.32044 15.0515C2.32044 16.3686 2.52239 17.6417 2.89742 18.8395H6.3091L8.80515 9.43228C8.96824 8.83021 9.44484 8.45393 10.0343 8.45393C10.6239 8.45393 11.1005 8.81772 11.251 9.38215L14.0356 19.6172L17.5852 5.95791C17.7483 5.38093 18.2249 5.01718 18.8144 5.01718C19.4039 5.01718 19.8806 5.38093 20.0311 5.94536L23.4678 18.8395H27.2082C27.582 17.6429 27.7827 16.3698 27.7827 15.0515ZM3.97988 21.323C6.17113 25.1712 10.3116 27.7827 15.0515 27.7827C19.7965 27.7827 23.9395 25.1788 26.1295 21.323H22.4895C21.9 21.323 21.4359 20.9593 21.2729 20.3698L18.8144 11.1507L15.2773 24.7598C15.1394 25.3493 14.6376 25.7131 14.0481 25.7131C13.4586 25.7131 12.982 25.3493 12.8314 24.7849L10.0343 14.5122L8.46649 20.3823C8.31598 20.9593 7.85186 21.323 7.24983 21.323H3.97988ZM40.0057 14.9625L35.9732 8.78009H33.8785V21.323H36.3871V13.6542L38.9835 17.4598C39.1967 17.7734 39.5856 17.9615 39.9995 17.9615C40.4134 17.9615 40.8273 17.7608 41.0405 17.4347L43.6119 13.6568V21.323H46.1204V8.78009H44.0383L40.0057 14.9625ZM66.1139 12.7888C65.4065 12.0977 64.383 11.7151 63.2792 11.7151C60.5699 11.7151 58.701 13.9477 58.701 16.657C58.701 19.3663 60.5072 21.5613 63.2792 21.5613C64.4733 21.5613 65.5997 21.1085 66.3146 20.2556V21.323H68.6225V8.78009H66.1139V12.7888ZM63.7307 19.2785C62.3134 19.2785 61.2598 18.2124 61.2598 16.632C61.2598 14.9136 62.4513 13.9979 63.7307 13.9979C65.0101 13.9979 66.1515 14.9136 66.1515 16.657C66.1515 18.2751 65.0854 19.2785 63.7307 19.2785ZM72.8871 8.78009L76.9194 14.9625L80.9525 8.78009H83.0341V21.323H80.5258V13.6568L77.9542 17.4347C77.7412 17.7608 77.3273 17.9615 76.9134 17.9615C76.4995 17.9615 76.1104 17.7734 75.8974 17.4598L73.301 13.6542V21.323H70.7925V8.78009H72.8871ZM102.225 8.78009V12.7888C101.517 12.0977 100.494 11.7151 99.3906 11.7151C96.6813 11.7151 94.8119 13.9477 94.8119 16.657C94.8119 19.3663 96.6181 21.5613 99.3906 21.5613C100.584 21.5613 101.711 21.1085 102.426 20.2556V21.323H104.734V8.78009H102.225ZM99.8422 19.2785C98.4243 19.2785 97.3707 18.2124 97.3707 16.632C97.3707 14.9136 98.5628 13.9979 99.8422 13.9979C101.122 13.9979 102.262 14.9136 102.262 16.657C102.262 18.2751 101.197 19.2785 99.8422 19.2785ZM89.3309 11.7151C86.6841 11.7151 84.4143 13.7847 84.4143 16.632C84.4143 19.4792 86.7473 21.5613 89.5567 21.5613C90.9994 21.5613 92.2283 21.0722 93.3196 20.1314L92.2532 18.4381C91.5887 18.9649 90.6984 19.3914 89.6319 19.3914C88.2623 19.3914 87.2553 18.7454 86.9475 17.4724H93.5702C93.6831 17.0333 93.7335 16.5693 93.7335 16.0926C93.7335 13.6342 91.9401 11.7151 89.3309 11.7151ZM89.2557 13.7471C90.2844 13.7471 91.2665 14.4219 91.3102 15.7038H86.9475C87.2252 14.5398 88.0606 13.7471 89.2542 13.7471H89.2557ZM47.5002 16.6069C47.5002 13.8474 49.783 11.7151 52.5299 11.7151C55.2894 11.7151 57.5596 13.86 57.5596 16.632C57.5596 19.4039 55.4147 21.5613 52.5173 21.5613C49.6199 21.5613 47.5002 19.3663 47.5002 16.6069ZM50.059 16.632C50.059 18.25 51.1753 19.2409 52.5173 19.2409C54.035 19.2409 55.0008 18.0117 55.0008 16.632C55.0008 15.2523 54.01 14.023 52.5299 14.023C51.0498 14.023 50.059 15.1519 50.059 16.632Z" fill="var(--fill-0, black)"></path>
</g>
</svg>