<svg preserveAspectRatio="none" width="100%" height="100%" overflow="visible" style="display: block;" viewBox="0 0 448.091 125.874" fill="none" xmlns="http://www.w3.org/2000/svg">
<g id="Group">
<path id="Vector" d="M428.525 118.303C414.126 128.206 393.385 128.382 378.864 118.632C365.168 109.432 357.87 93.9229 358.672 77.4133C360.233 45.4163 393.022 25.4333 422.271 38.4365L428.525 41.844V7.02208C428.525 6.54944 429.658 5.6701 430.108 5.42828C432.131 4.39506 442.837 0.394059 444.859 0.0752982C446.651 -0.210487 447.552 0.295133 448.091 2.00985L447.981 122.271C447.607 123.557 446.596 123.974 445.332 124.117C442.243 124.458 434.417 124.447 431.339 124.084C430.35 123.963 428.536 123.304 428.536 122.128V118.292L428.525 118.303ZM401.749 54.6054C371.313 56.7927 372.313 102.661 401.145 104.805C437.945 107.531 437.242 52.0553 401.749 54.6054Z" fill="var(--fill-0, black)"></path>
<path id="Vector_2" d="M111.578 91.5775L131.584 36.8386C132.078 36.5309 132.54 36.333 133.133 36.2671C134.87 36.0582 139.322 36.0692 141.081 36.2671C142.048 36.377 142.762 36.6408 143.29 37.4981L162.515 91.3137C163.097 91.4346 162.844 91.0609 162.976 90.7312C169.758 72.9355 175.738 54.8321 182.63 37.0695C183.157 36.6188 183.762 36.344 184.465 36.2561C187.829 35.8494 196.117 35.9373 199.568 36.2561C201.503 36.4319 202.481 37.8059 201.942 39.7075L168.923 123.245C168.252 123.728 167.582 124.025 166.757 124.124C165.01 124.322 161.119 124.3 159.338 124.124C158.184 124.014 157.392 123.783 156.722 122.772L137.123 71.9792L117.525 122.761C117.008 123.531 116.327 123.959 115.415 124.08C113.733 124.322 109.501 124.278 107.753 124.113C106.467 123.992 105.731 123.739 105.049 122.585C95.1346 96.5348 84.2197 70.8581 74.36 44.7857C73.3927 42.2356 70.0732 36.6628 74.6788 36.2341C78.35 35.8933 85.8465 35.8933 89.5178 36.2341C90.2762 36.3 91.1226 36.377 91.6172 37.0475L111.6 91.5446L111.578 91.5775Z" fill="var(--fill-0, black)"></path>
<path id="Vector_3" d="M243.01 34.4832C282.339 32.1529 304.224 77.0212 281.383 108.051C261.312 135.321 218.828 130.331 205 99.5873C191.942 70.5471 210.826 36.3848 243.01 34.4722V34.4832ZM244.065 54.5981C213.596 56.8734 214.618 102.654 243.461 104.797C280.317 107.534 279.437 51.9711 244.065 54.5981Z" fill="var(--fill-0, black)"></path>
<path id="Vector_4" d="M32.1528 34.4953C43.4304 33.7479 56.115 36.8915 64.0951 45.2672C66.843 48.1471 67.6345 48.9165 64.8865 52.1591C63.4246 53.8848 58.2144 59.3586 56.5657 60.5018C54.1365 62.2055 52.8065 59.5895 51.2566 58.3694C48.1679 55.9072 45.332 54.2695 41.4189 53.3901C35.1536 51.9832 20.7323 51.9062 23.1285 61.8977C23.9309 65.2392 29.152 67.2617 32.0758 68.3059C46.9368 73.593 66.1616 75.6264 67.4146 95.6754C69.5031 129.321 26.514 132.751 5.78334 116.296C4.38738 115.186 0.0895681 111.58 0.00163332 109.932C-0.0313422 109.25 0.441307 108.514 0.848005 107.986C2.45281 105.832 6.08012 102.765 8.1356 100.721C9.49859 99.3686 10.3889 97.3022 12.8731 98.3464C19.787 106.041 32.2737 109.459 42.1993 106.733C50.2234 104.524 50.9928 96.5327 43.8591 92.4988C30.8997 85.1893 8.22353 86.7721 4.55226 67.5035C0.848005 48.0591 13.4886 35.7374 32.1528 34.4953Z" fill="var(--fill-0, black)"></path>
<path id="Vector_5" d="M321.631 45.0024C324.126 41.7928 326.962 39.0339 330.655 37.2312C338.57 33.3511 352.408 33.1643 359.322 39.1877C361.828 41.3751 361.191 41.8258 359.861 44.4748C358.399 47.3876 355.904 52.3009 354.123 54.873C351.969 57.9946 350.199 55.7633 348.001 54.7411C342.779 52.3009 335.195 53.0044 330.282 55.8952C324.786 59.1268 322.093 65.1173 321.631 71.3276C320.455 87.2217 322.796 104.655 321.631 120.56C321.488 122.582 321.093 123.868 318.839 124.121C315.729 124.473 307.672 124.473 304.55 124.121C302.934 123.945 301.967 123.319 301.769 121.615L301.835 38.3194C302.011 37.3192 302.725 36.4508 303.769 36.2859C308.606 36.6157 314.102 35.8023 318.85 36.253C320.059 36.3739 321.62 37.1323 321.62 38.5173V45.0024H321.631Z" fill="var(--fill-0, black)"></path>
</g>
</svg>