<svg preserveAspectRatio="none" width="100%" height="100%" overflow="visible" style="display: block;" viewBox="0 0 65.6802 89.385" fill="none" xmlns="http://www.w3.org/2000/svg">
<g id="Group">
<path id="Vector" d="M34.9892 87.727C28.7568 87.727 23.129 86.1112 18.1058 82.8906C13.0715 79.67 9.0814 75.0535 6.10261 69.041C3.12382 63.0285 1.63985 55.8729 1.63985 47.5631C1.63985 38.2751 3.44258 30.1852 7.05889 23.2933C10.6752 16.4125 15.5886 11.0815 21.821 7.31135C28.0534 3.54118 34.9892 1.6506 42.6395 1.6506C49.1467 1.6506 54.2469 2.62886 57.9402 4.60737C59.3581 5.3768 60.0615 6.5749 60.0615 8.21267L60.4902 28.2177C60.4902 29.8554 59.6439 30.6798 57.9402 30.6798C56.3793 30.6798 55.39 29.9653 54.9613 28.5474C52.9718 22.5349 51.0592 17.8854 49.2236 14.6099C47.377 11.3343 45.4644 9.05903 43.4859 7.80597C41.4964 6.55291 39.309 5.92639 36.9018 5.92639C34.0659 5.92639 31.131 7.17945 28.0863 9.69656C25.0416 12.2137 22.4915 16.2806 20.436 21.9084C18.3805 27.5362 17.3582 34.9446 17.3582 44.1227C17.3582 55.8179 19.3039 64.6223 23.195 70.5249C27.0861 76.4275 32.1533 79.3843 38.3857 79.3843C43.343 79.3843 47.4868 77.8014 50.8174 74.6248C54.1479 71.4592 57.0168 65.7215 59.4241 57.4117C59.8527 56.2136 60.6991 55.6091 61.9741 55.6091C63.6669 55.6091 64.3044 56.6973 63.8867 58.8846C62.3258 66.5349 60.1715 72.4704 57.4016 76.6693C54.6426 80.8791 51.378 83.781 47.6298 85.3638C43.8706 86.9466 39.6607 87.738 34.9892 87.738V87.727Z" fill="var(--fill-0, black)"></path>
<path id="Vector_2" d="M34.9871 89.3739C28.458 89.3739 22.4784 87.6592 17.2133 84.2737C11.9592 80.9103 7.71637 76.0189 4.62766 69.7646C1.54994 63.5543 0 56.0799 0 47.5503C0 38.0314 1.8907 29.6118 5.60595 22.5221C9.34318 15.3994 14.5093 9.80464 20.9725 5.89158C27.4357 1.97852 34.7233 0 42.6484 0C49.4084 0 54.8164 1.05521 58.7185 3.14364C60.686 4.20984 61.7082 5.95753 61.7082 8.19984L62.1369 28.1719C62.1369 30.7439 60.5322 32.3157 57.9381 32.3157C55.6408 32.3157 54.014 31.1396 53.3875 29.0072C51.4529 23.1706 49.5732 18.5761 47.7925 15.4104C46.0998 12.3877 44.3521 10.2993 42.6154 9.1891C40.8787 8.08993 39.0211 7.56232 36.9107 7.56232C34.4815 7.56232 31.8764 8.70547 29.1504 10.9588C26.3475 13.278 23.9403 17.1471 22.0057 22.4671C20.0272 27.8861 19.0269 35.1736 19.0269 44.1209C19.0269 55.4314 20.8955 64.0159 24.5998 69.6107C28.2051 75.0736 32.7228 77.7227 38.4166 77.7227C42.9782 77.7227 46.6715 76.3157 49.7052 73.4249C52.8049 70.4791 55.5418 64.9283 57.8611 56.9483C58.5536 54.9807 60.0155 53.9585 61.994 53.9585C63.5439 53.9585 64.4232 54.618 64.8739 55.1676C65.6543 56.1129 65.8631 57.4319 65.5224 59.2016C63.9286 67.0387 61.6643 73.227 58.8064 77.5798C55.8825 82.0424 52.3432 85.1751 48.2982 86.8788C44.3522 88.5385 39.8894 89.3849 35.02 89.3849L34.9871 89.3739ZM42.6374 3.29752C35.3278 3.29752 28.6118 5.12216 22.6652 8.71646C16.7296 12.3108 11.9591 17.4659 8.50768 24.0609C5.03425 30.678 3.27555 38.581 3.27555 47.5613C3.27555 55.5743 4.71551 62.554 7.56239 68.3137C10.3873 74.0294 14.2345 78.4701 18.9719 81.5148C23.6984 84.5485 29.0845 86.0874 34.9651 86.0874C39.3948 86.0874 43.4288 85.3289 46.9681 83.8451C50.3976 82.3941 53.4424 79.6792 56.0035 75.7661C58.6306 71.7541 60.7299 65.9615 62.2468 58.553C62.4117 57.7067 62.3128 57.3549 62.2908 57.278C62.2689 57.278 62.1699 57.256 61.961 57.256C61.3785 57.256 61.1587 57.4099 60.9609 57.9595C58.4767 66.544 55.5088 72.4136 51.9365 75.8211C48.3092 79.2835 43.7476 81.0312 38.3726 81.0312C31.5796 81.0312 26.0068 77.7996 21.8079 71.4354C17.7519 65.291 15.6964 56.1019 15.6964 44.1319C15.6964 34.7999 16.7626 27.1386 18.873 21.346C21.0165 15.4654 23.7535 11.1237 27.018 8.43067C30.3486 5.68274 33.6681 4.28678 36.8777 4.28678C39.5817 4.28678 42.0989 5.01224 44.3412 6.43017C46.5835 7.84811 48.639 10.2663 50.6285 13.8166C52.5081 17.1691 54.4756 21.9505 56.4871 28.0399C56.685 28.7104 56.9598 29.0402 57.8941 29.0402C58.7625 29.0402 58.7954 28.8863 58.7954 28.2268L58.3668 8.2548C58.3668 7.1886 57.9931 6.54009 57.1027 6.06745C53.6843 4.24282 48.8038 3.31951 42.5934 3.31951L42.6374 3.29752Z" fill="var(--fill-0, black)"></path>
</g>
</svg>