<svg preserveAspectRatio="none" width="100%" height="100%" overflow="visible" style="display: block;" viewBox="0 0 62 62" fill="none" xmlns="http://www.w3.org/2000/svg">
<g id="calendar-04">
<path id="Vector" d="M41.3333 5.16667V15.5M20.6667 5.16667V15.5" stroke="var(--stroke-0, #4A89E8)" stroke-width="1.5" stroke-linecap="round" stroke-linejoin="round"></path>
<path id="Vector_2" d="M33.5833 10.3333H28.4167C18.6743 10.3333 13.8031 10.3333 10.7766 13.3599C7.75 16.3865 7.75 21.2576 7.75 31V36.1667C7.75 45.9089 7.75 50.7803 10.7766 53.8067C13.8031 56.8333 18.6743 56.8333 28.4167 56.8333H33.5833C43.3256 56.8333 48.197 56.8333 51.2234 53.8067C54.25 50.7803 54.25 45.9089 54.25 36.1667V31C54.25 21.2576 54.25 16.3865 51.2234 13.3599C48.197 10.3333 43.3256 10.3333 33.5833 10.3333Z" stroke="var(--stroke-0, #4A89E8)" stroke-width="1.5" stroke-linecap="round" stroke-linejoin="round"></path>
<path id="Vector_3" d="M7.75 25.8333H54.25" stroke="var(--stroke-0, #4A89E8)" stroke-width="1.5" stroke-linecap="round" stroke-linejoin="round"></path>
</g>
</svg>