<svg preserveAspectRatio="none" width="100%" height="100%" overflow="visible" style="display: block;" viewBox="0 0 24 24" fill="none" xmlns="http://www.w3.org/2000/svg">
<g id="arrow-expand">
<path id="Vector" d="M8.00001 3.09779C8.00001 3.09779 4.03375 2.74194 3.38784 3.38785C2.74192 4.03375 3.09784 8 3.09784 8" stroke="var(--stroke-0, black)" stroke-linecap="round" stroke-linejoin="round"></path>
<path id="Vector_2" d="M8.00001 20.9022C8.00001 20.9022 4.03375 21.2581 3.38784 20.6122C2.74192 19.9662 3.09784 16 3.09784 16" stroke="var(--stroke-0, black)" stroke-linecap="round" stroke-linejoin="round"></path>
<path id="Vector_3" d="M16 3.09779C16 3.09779 19.9663 2.74194 20.6122 3.38785C21.2581 4.03375 20.9022 8 20.9022 8" stroke="var(--stroke-0, black)" stroke-linecap="round" stroke-linejoin="round"></path>
<path id="Vector_4" d="M16 20.9022C16 20.9022 19.9663 21.2581 20.6122 20.6122C21.2581 19.9662 20.9022 16 20.9022 16" stroke="var(--stroke-0, black)" stroke-linecap="round" stroke-linejoin="round"></path>
<path id="Vector_5" d="M14.0117 9.997L20.0635 3.94531" stroke="var(--stroke-0, black)" stroke-linecap="round" stroke-linejoin="round"></path>
<path id="Vector_6" d="M9.99792 14L3.64062 20.3783" stroke="var(--stroke-0, black)" stroke-linecap="round" stroke-linejoin="round"></path>
<path id="Vector_7" d="M9.99927 10.0029L3.84766 3.85938" stroke="var(--stroke-0, black)" stroke-linecap="round" stroke-linejoin="round"></path>
<path id="Vector_8" d="M13.9805 14L20.5289 20.4959" stroke="var(--stroke-0, black)" stroke-linecap="round" stroke-linejoin="round"></path>
</g>
</svg>