<svg preserveAspectRatio="none" width="100%" height="100%" overflow="visible" style="display: block;" viewBox="0 0 256 256" fill="none" xmlns="http://www.w3.org/2000/svg">
<g id="Frame 2147224370">
<circle id="Ellipse 1335" cx="129" cy="129" r="100" fill="url(#paint0_radial_0_4)"></circle>
<g id="Rectangle 34628405" filter="url(#filter0_f_0_4)">
<rect x="28" y="28" width="200" height="200" rx="100" stroke="var(--stroke-0, #D8F95D)" stroke-width="8"></rect>
</g>
<g id="Group 2117760390">
<path id="Vector" d="M128.984 78.1528C129.671 78.1528 130.229 77.5966 130.229 76.9104C130.229 76.2242 129.671 75.668 128.984 75.668C128.296 75.668 127.738 76.2242 127.738 76.9104C127.738 77.5966 128.296 78.1528 128.984 78.1528Z" fill="var(--fill-0, #7700EE)"></path>
<path id="Vector_2" d="M134.413 79.227C135.101 79.227 135.659 78.6708 135.659 77.9846C135.659 77.2984 135.101 76.7422 134.413 76.7422C133.726 76.7422 133.168 77.2984 133.168 77.9846C133.168 78.6708 133.726 79.227 134.413 79.227Z" fill="var(--fill-0, #7700EE)"></path>
<path id="Vector_3" d="M139.011 82.2934C139.699 82.2934 140.256 81.7372 140.256 81.051C140.256 80.3648 139.699 79.8086 139.011 79.8086C138.323 79.8086 137.766 80.3648 137.766 81.051C137.766 81.7372 138.323 82.2934 139.011 82.2934Z" fill="var(--fill-0, #7700EE)"></path>
<path id="Vector_4" d="M142.081 86.8833C142.769 86.8833 143.327 86.327 143.327 85.6409C143.327 84.9547 142.769 84.3984 142.081 84.3984C141.393 84.3984 140.836 84.9547 140.836 85.6409C140.836 86.327 141.393 86.8833 142.081 86.8833Z" fill="var(--fill-0, #7700EE)"></path>
<path id="Vector_5" d="M143.163 92.2934C143.851 92.2934 144.409 91.7372 144.409 91.051C144.409 90.3648 143.851 89.8086 143.163 89.8086C142.476 89.8086 141.918 90.3648 141.918 91.051C141.918 91.7372 142.476 92.2934 143.163 92.2934Z" fill="var(--fill-0, #7700EE)"></path>
<path id="Vector_6" d="M142.081 97.7074C142.769 97.7074 143.327 97.1511 143.327 96.465C143.327 95.7788 142.769 95.2225 142.081 95.2225C141.393 95.2225 140.836 95.7788 140.836 96.465C140.836 97.1511 141.393 97.7074 142.081 97.7074Z" fill="var(--fill-0, #7700EE)"></path>
<path id="Vector_7" d="M139.011 102.293C139.699 102.293 140.256 101.737 140.256 101.051C140.256 100.365 139.699 99.8086 139.011 99.8086C138.323 99.8086 137.766 100.365 137.766 101.051C137.766 101.737 138.323 102.293 139.011 102.293Z" fill="var(--fill-0, #7700EE)"></path>
<path id="Vector_8" d="M134.413 105.364C135.101 105.364 135.659 104.808 135.659 104.121C135.659 103.435 135.101 102.879 134.413 102.879C133.726 102.879 133.168 103.435 133.168 104.121C133.168 104.808 133.726 105.364 134.413 105.364Z" fill="var(--fill-0, #7700EE)"></path>
<path id="Vector_9" d="M128.984 106.438C129.671 106.438 130.229 105.882 130.229 105.196C130.229 104.509 129.671 103.953 128.984 103.953C128.296 103.953 127.738 104.509 127.738 105.196C127.738 105.882 128.296 106.438 128.984 106.438Z" fill="var(--fill-0, #7700EE)"></path>
<path id="Vector_10" d="M123.562 105.364C124.249 105.364 124.807 104.808 124.807 104.121C124.807 103.435 124.249 102.879 123.562 102.879C122.874 102.879 122.316 103.435 122.316 104.121C122.316 104.808 122.874 105.364 123.562 105.364Z" fill="var(--fill-0, #7700EE)"></path>
<path id="Vector_11" d="M118.964 102.293C119.652 102.293 120.209 101.737 120.209 101.051C120.209 100.365 119.652 99.8086 118.964 99.8086C118.276 99.8086 117.719 100.365 117.719 101.051C117.719 101.737 118.276 102.293 118.964 102.293Z" fill="var(--fill-0, #7700EE)"></path>
<path id="Vector_12" d="M115.89 97.7075C116.578 97.7075 117.135 97.1513 117.135 96.4651C117.135 95.7789 116.578 95.2227 115.89 95.2227C115.202 95.2227 114.645 95.7789 114.645 96.4651C114.645 97.1513 115.202 97.7075 115.89 97.7075Z" fill="var(--fill-0, #7700EE)"></path>
<path id="Vector_13" d="M114.812 92.2934C115.499 92.2934 116.057 91.7372 116.057 91.051C116.057 90.3648 115.499 89.8086 114.812 89.8086C114.124 89.8086 113.566 90.3648 113.566 91.051C113.566 91.7372 114.124 92.2934 114.812 92.2934Z" fill="var(--fill-0, #7700EE)"></path>
<path id="Vector_14" d="M115.89 86.8833C116.578 86.8833 117.135 86.327 117.135 85.6409C117.135 84.9547 116.578 84.3984 115.89 84.3984C115.202 84.3984 114.645 84.9547 114.645 85.6409C114.645 86.327 115.202 86.8833 115.89 86.8833Z" fill="var(--fill-0, #7700EE)"></path>
<path id="Vector_15" d="M118.964 82.2934C119.652 82.2934 120.209 81.7372 120.209 81.051C120.209 80.3648 119.652 79.8086 118.964 79.8086C118.276 79.8086 117.719 80.3648 117.719 81.051C117.719 81.7372 118.276 82.2934 118.964 82.2934Z" fill="var(--fill-0, #7700EE)"></path>
<path id="Vector_16" d="M123.562 79.227C124.249 79.227 124.807 78.6708 124.807 77.9846C124.807 77.2984 124.249 76.7422 123.562 76.7422C122.874 76.7422 122.316 77.2984 122.316 77.9846C122.316 78.6708 122.874 79.227 123.562 79.227Z" fill="var(--fill-0, #7700EE)"></path>
<path id="Vector_17" d="M90.0031 106.438C90.6909 106.438 91.2484 105.882 91.2484 105.196C91.2484 104.509 90.6909 103.953 90.0031 103.953C89.3154 103.953 88.7578 104.509 88.7578 105.196C88.7578 105.882 89.3154 106.438 90.0031 106.438Z" fill="var(--fill-0, #7700EE)"></path>
<path id="Vector_18" d="M95.4289 107.516C96.1167 107.516 96.6742 106.96 96.6742 106.274C96.6742 105.588 96.1167 105.031 95.4289 105.031C94.7411 105.031 94.1836 105.588 94.1836 106.274C94.1836 106.96 94.7411 107.516 95.4289 107.516Z" fill="var(--fill-0, #7700EE)"></path>
<path id="Vector_19" d="M100.027 110.583C100.714 110.583 101.272 110.026 101.272 109.34C101.272 108.654 100.714 108.098 100.027 108.098C99.3388 108.098 98.7812 108.654 98.7812 109.34C98.7812 110.026 99.3388 110.583 100.027 110.583Z" fill="var(--fill-0, #7700EE)"></path>
<path id="Vector_20" d="M103.101 115.165C103.789 115.165 104.346 114.608 104.346 113.922C104.346 113.236 103.789 112.68 103.101 112.68C102.413 112.68 101.855 113.236 101.855 113.922C101.855 114.608 102.413 115.165 103.101 115.165Z" fill="var(--fill-0, #7700EE)"></path>
<path id="Vector_21" d="M104.179 120.583C104.867 120.583 105.424 120.026 105.424 119.34C105.424 118.654 104.867 118.098 104.179 118.098C103.491 118.098 102.934 118.654 102.934 119.34C102.934 120.026 103.491 120.583 104.179 120.583Z" fill="var(--fill-0, #7700EE)"></path>
<path id="Vector_22" d="M103.101 125.993C103.789 125.993 104.346 125.436 104.346 124.75C104.346 124.064 103.789 123.508 103.101 123.508C102.413 123.508 101.855 124.064 101.855 124.75C101.855 125.436 102.413 125.993 103.101 125.993Z" fill="var(--fill-0, #7700EE)"></path>
<path id="Vector_23" d="M100.027 130.583C100.714 130.583 101.272 130.026 101.272 129.34C101.272 128.654 100.714 128.098 100.027 128.098C99.3388 128.098 98.7812 128.654 98.7812 129.34C98.7812 130.026 99.3388 130.583 100.027 130.583Z" fill="var(--fill-0, #7700EE)"></path>
<path id="Vector_24" d="M95.4289 133.645C96.1167 133.645 96.6742 133.089 96.6742 132.403C96.6742 131.716 96.1167 131.16 95.4289 131.16C94.7411 131.16 94.1836 131.716 94.1836 132.403C94.1836 133.089 94.7411 133.645 95.4289 133.645Z" fill="var(--fill-0, #7700EE)"></path>
<path id="Vector_25" d="M90.0031 134.723C90.6909 134.723 91.2484 134.167 91.2484 133.481C91.2484 132.795 90.6909 132.238 90.0031 132.238C89.3154 132.238 88.7578 132.795 88.7578 133.481C88.7578 134.167 89.3154 134.723 90.0031 134.723Z" fill="var(--fill-0, #7700EE)"></path>
<path id="Vector_26" d="M84.5773 133.645C85.2651 133.645 85.8227 133.089 85.8227 132.403C85.8227 131.716 85.2651 131.16 84.5773 131.16C83.8896 131.16 83.332 131.716 83.332 132.403C83.332 133.089 83.8896 133.645 84.5773 133.645Z" fill="var(--fill-0, #7700EE)"></path>
<path id="Vector_27" d="M79.9797 130.583C80.6675 130.583 81.225 130.026 81.225 129.34C81.225 128.654 80.6675 128.098 79.9797 128.098C79.2919 128.098 78.7344 128.654 78.7344 129.34C78.7344 130.026 79.2919 130.583 79.9797 130.583Z" fill="var(--fill-0, #7700EE)"></path>
<path id="Vector_28" d="M76.9055 125.993C77.5932 125.993 78.1508 125.436 78.1508 124.75C78.1508 124.064 77.5932 123.508 76.9055 123.508C76.2177 123.508 75.6602 124.064 75.6602 124.75C75.6602 125.436 76.2177 125.993 76.9055 125.993Z" fill="var(--fill-0, #7700EE)"></path>
<path id="Vector_29" d="M75.8273 120.583C76.5151 120.583 77.0727 120.026 77.0727 119.34C77.0727 118.654 76.5151 118.098 75.8273 118.098C75.1396 118.098 74.582 118.654 74.582 119.34C74.582 120.026 75.1396 120.583 75.8273 120.583Z" fill="var(--fill-0, #7700EE)"></path>
<path id="Vector_30" d="M76.9055 115.165C77.5932 115.165 78.1508 114.608 78.1508 113.922C78.1508 113.236 77.5932 112.68 76.9055 112.68C76.2177 112.68 75.6602 113.236 75.6602 113.922C75.6602 114.608 76.2177 115.165 76.9055 115.165Z" fill="var(--fill-0, #7700EE)"></path>
<path id="Vector_31" d="M79.9797 110.583C80.6675 110.583 81.225 110.026 81.225 109.34C81.225 108.654 80.6675 108.098 79.9797 108.098C79.2919 108.098 78.7344 108.654 78.7344 109.34C78.7344 110.026 79.2919 110.583 79.9797 110.583Z" fill="var(--fill-0, #7700EE)"></path>
<path id="Vector_32" d="M84.5773 107.516C85.2651 107.516 85.8227 106.96 85.8227 106.274C85.8227 105.588 85.2651 105.031 84.5773 105.031C83.8896 105.031 83.332 105.588 83.332 106.274C83.332 106.96 83.8896 107.516 84.5773 107.516Z" fill="var(--fill-0, #7700EE)"></path>
<path id="Vector_33" d="M167.968 106.438C168.656 106.438 169.213 105.882 169.213 105.196C169.213 104.509 168.656 103.953 167.968 103.953C167.28 103.953 166.723 104.509 166.723 105.196C166.723 105.882 167.28 106.438 167.968 106.438Z" fill="var(--fill-0, #7700EE)"></path>
<path id="Vector_34" d="M173.398 107.516C174.085 107.516 174.643 106.96 174.643 106.274C174.643 105.588 174.085 105.031 173.398 105.031C172.71 105.031 172.152 105.588 172.152 106.274C172.152 106.96 172.71 107.516 173.398 107.516Z" fill="var(--fill-0, #7700EE)"></path>
<path id="Vector_35" d="M177.995 110.583C178.683 110.583 179.241 110.026 179.241 109.34C179.241 108.654 178.683 108.098 177.995 108.098C177.308 108.098 176.75 108.654 176.75 109.34C176.75 110.026 177.308 110.583 177.995 110.583Z" fill="var(--fill-0, #7700EE)"></path>
<path id="Vector_36" d="M181.066 115.165C181.753 115.165 182.311 114.608 182.311 113.922C182.311 113.236 181.753 112.68 181.066 112.68C180.378 112.68 179.82 113.236 179.82 113.922C179.82 114.608 180.378 115.165 181.066 115.165Z" fill="var(--fill-0, #7700EE)"></path>
<path id="Vector_37" d="M182.148 120.583C182.835 120.583 183.393 120.026 183.393 119.34C183.393 118.654 182.835 118.098 182.148 118.098C181.46 118.098 180.902 118.654 180.902 119.34C180.902 120.026 181.46 120.583 182.148 120.583Z" fill="var(--fill-0, #7700EE)"></path>
<path id="Vector_38" d="M181.066 125.993C181.753 125.993 182.311 125.436 182.311 124.75C182.311 124.064 181.753 123.508 181.066 123.508C180.378 123.508 179.82 124.064 179.82 124.75C179.82 125.436 180.378 125.993 181.066 125.993Z" fill="var(--fill-0, #7700EE)"></path>
<path id="Vector_39" d="M177.995 130.583C178.683 130.583 179.241 130.026 179.241 129.34C179.241 128.654 178.683 128.098 177.995 128.098C177.308 128.098 176.75 128.654 176.75 129.34C176.75 130.026 177.308 130.583 177.995 130.583Z" fill="var(--fill-0, #7700EE)"></path>
<path id="Vector_40" d="M173.398 133.645C174.085 133.645 174.643 133.089 174.643 132.403C174.643 131.716 174.085 131.16 173.398 131.16C172.71 131.16 172.152 131.716 172.152 132.403C172.152 133.089 172.71 133.645 173.398 133.645Z" fill="var(--fill-0, #7700EE)"></path>
<path id="Vector_41" d="M167.968 134.723C168.656 134.723 169.213 134.167 169.213 133.481C169.213 132.795 168.656 132.238 167.968 132.238C167.28 132.238 166.723 132.795 166.723 133.481C166.723 134.167 167.28 134.723 167.968 134.723Z" fill="var(--fill-0, #7700EE)"></path>
<path id="Vector_42" d="M162.546 133.645C163.234 133.645 163.791 133.089 163.791 132.403C163.791 131.716 163.234 131.16 162.546 131.16C161.858 131.16 161.301 131.716 161.301 132.403C161.301 133.089 161.858 133.645 162.546 133.645Z" fill="var(--fill-0, #7700EE)"></path>
<path id="Vector_43" d="M157.948 130.583C158.636 130.583 159.194 130.026 159.194 129.34C159.194 128.654 158.636 128.098 157.948 128.098C157.261 128.098 156.703 128.654 156.703 129.34C156.703 130.026 157.261 130.583 157.948 130.583Z" fill="var(--fill-0, #7700EE)"></path>
<path id="Vector_44" d="M154.874 125.993C155.562 125.993 156.12 125.436 156.12 124.75C156.12 124.064 155.562 123.508 154.874 123.508C154.186 123.508 153.629 124.064 153.629 124.75C153.629 125.436 154.186 125.993 154.874 125.993Z" fill="var(--fill-0, #7700EE)"></path>
<path id="Vector_45" d="M153.792 120.583C154.48 120.583 155.038 120.026 155.038 119.34C155.038 118.654 154.48 118.098 153.792 118.098C153.104 118.098 152.547 118.654 152.547 119.34C152.547 120.026 153.104 120.583 153.792 120.583Z" fill="var(--fill-0, #7700EE)"></path>
<path id="Vector_46" d="M154.874 115.165C155.562 115.165 156.12 114.608 156.12 113.922C156.12 113.236 155.562 112.68 154.874 112.68C154.186 112.68 153.629 113.236 153.629 113.922C153.629 114.608 154.186 115.165 154.874 115.165Z" fill="var(--fill-0, #7700EE)"></path>
<path id="Vector_47" d="M157.948 110.583C158.636 110.583 159.194 110.026 159.194 109.34C159.194 108.654 158.636 108.098 157.948 108.098C157.261 108.098 156.703 108.654 156.703 109.34C156.703 110.026 157.261 110.583 157.948 110.583Z" fill="var(--fill-0, #7700EE)"></path>
<path id="Vector_48" d="M162.546 107.516C163.234 107.516 163.791 106.96 163.791 106.274C163.791 105.588 163.234 105.031 162.546 105.031C161.858 105.031 161.301 105.588 161.301 106.274C161.301 106.96 161.858 107.516 162.546 107.516Z" fill="var(--fill-0, #7700EE)"></path>
<path id="Vector_49" d="M128.984 132.004C129.671 132.004 130.229 131.448 130.229 130.762C130.229 130.076 129.671 129.52 128.984 129.52C128.296 129.52 127.738 130.076 127.738 130.762C127.738 131.448 128.296 132.004 128.984 132.004Z" fill="var(--fill-0, #7700EE)"></path>
<path id="Vector_50" d="M134.413 133.083C135.101 133.083 135.659 132.526 135.659 131.84C135.659 131.154 135.101 130.598 134.413 130.598C133.726 130.598 133.168 131.154 133.168 131.84C133.168 132.526 133.726 133.083 134.413 133.083Z" fill="var(--fill-0, #7700EE)"></path>
<path id="Vector_51" d="M139.011 136.149C139.699 136.149 140.256 135.593 140.256 134.906C140.256 134.22 139.699 133.664 139.011 133.664C138.323 133.664 137.766 134.22 137.766 134.906C137.766 135.593 138.323 136.149 139.011 136.149Z" fill="var(--fill-0, #7700EE)"></path>
<path id="Vector_52" d="M142.081 140.735C142.769 140.735 143.327 140.179 143.327 139.492C143.327 138.806 142.769 138.25 142.081 138.25C141.393 138.25 140.836 138.806 140.836 139.492C140.836 140.179 141.393 140.735 142.081 140.735Z" fill="var(--fill-0, #7700EE)"></path>
<path id="Vector_53" d="M143.163 146.145C143.851 146.145 144.409 145.589 144.409 144.903C144.409 144.216 143.851 143.66 143.163 143.66C142.476 143.66 141.918 144.216 141.918 144.903C141.918 145.589 142.476 146.145 143.163 146.145Z" fill="var(--fill-0, #7700EE)"></path>
<path id="Vector_54" d="M142.081 151.563C142.769 151.563 143.327 151.007 143.327 150.321C143.327 149.634 142.769 149.078 142.081 149.078C141.393 149.078 140.836 149.634 140.836 150.321C140.836 151.007 141.393 151.563 142.081 151.563Z" fill="var(--fill-0, #7700EE)"></path>
<path id="Vector_55" d="M139.011 156.149C139.699 156.149 140.256 155.593 140.256 154.906C140.256 154.22 139.699 153.664 139.011 153.664C138.323 153.664 137.766 154.22 137.766 154.906C137.766 155.593 138.323 156.149 139.011 156.149Z" fill="var(--fill-0, #7700EE)"></path>
<path id="Vector_56" d="M134.413 159.211C135.101 159.211 135.659 158.655 135.659 157.969C135.659 157.283 135.101 156.727 134.413 156.727C133.726 156.727 133.168 157.283 133.168 157.969C133.168 158.655 133.726 159.211 134.413 159.211Z" fill="var(--fill-0, #7700EE)"></path>
<path id="Vector_57" d="M128.984 160.29C129.671 160.29 130.229 159.733 130.229 159.047C130.229 158.361 129.671 157.805 128.984 157.805C128.296 157.805 127.738 158.361 127.738 159.047C127.738 159.733 128.296 160.29 128.984 160.29Z" fill="var(--fill-0, #7700EE)"></path>
<path id="Vector_58" d="M123.562 159.211C124.249 159.211 124.807 158.655 124.807 157.969C124.807 157.283 124.249 156.727 123.562 156.727C122.874 156.727 122.316 157.283 122.316 157.969C122.316 158.655 122.874 159.211 123.562 159.211Z" fill="var(--fill-0, #7700EE)"></path>
<path id="Vector_59" d="M118.964 156.149C119.652 156.149 120.209 155.593 120.209 154.906C120.209 154.22 119.652 153.664 118.964 153.664C118.276 153.664 117.719 154.22 117.719 154.906C117.719 155.593 118.276 156.149 118.964 156.149Z" fill="var(--fill-0, #7700EE)"></path>
<path id="Vector_60" d="M115.89 151.563C116.578 151.563 117.135 151.007 117.135 150.321C117.135 149.634 116.578 149.078 115.89 149.078C115.202 149.078 114.645 149.634 114.645 150.321C114.645 151.007 115.202 151.563 115.89 151.563Z" fill="var(--fill-0, #7700EE)"></path>
<path id="Vector_61" d="M114.812 146.145C115.499 146.145 116.057 145.589 116.057 144.903C116.057 144.216 115.499 143.66 114.812 143.66C114.124 143.66 113.566 144.216 113.566 144.903C113.566 145.589 114.124 146.145 114.812 146.145Z" fill="var(--fill-0, #7700EE)"></path>
<path id="Vector_62" d="M115.89 140.735C116.578 140.735 117.135 140.179 117.135 139.492C117.135 138.806 116.578 138.25 115.89 138.25C115.202 138.25 114.645 138.806 114.645 139.492C114.645 140.179 115.202 140.735 115.89 140.735Z" fill="var(--fill-0, #7700EE)"></path>
<path id="Vector_63" d="M118.964 136.149C119.652 136.149 120.21 135.593 120.21 134.907C120.21 134.22 119.652 133.664 118.964 133.664C118.277 133.664 117.719 134.22 117.719 134.907C117.719 135.593 118.277 136.149 118.964 136.149Z" fill="var(--fill-0, #7700EE)"></path>
<path id="Vector_64" d="M123.562 133.083C124.249 133.083 124.807 132.526 124.807 131.84C124.807 131.154 124.249 130.598 123.562 130.598C122.874 130.598 122.316 131.154 122.316 131.84C122.316 132.526 122.874 133.083 123.562 133.083Z" fill="var(--fill-0, #7700EE)"></path>
<path id="Vector_65" d="M102.019 184.227C102.707 184.227 103.264 183.671 103.264 182.985C103.264 182.298 102.707 181.742 102.019 181.742C101.331 181.742 100.773 182.298 100.773 182.985C100.773 183.671 101.331 184.227 102.019 184.227Z" fill="var(--fill-0, #7700EE)"></path>
<path id="Vector_66" d="M103.296 178.723C103.984 178.723 104.541 178.167 104.541 177.481C104.541 176.795 103.984 176.238 103.296 176.238C102.608 176.238 102.051 176.795 102.051 177.481C102.051 178.167 102.608 178.723 103.296 178.723Z" fill="var(--fill-0, #7700EE)"></path>
<path id="Vector_67" d="M105.499 173.524C106.187 173.524 106.745 172.968 106.745 172.281C106.745 171.595 106.187 171.039 105.499 171.039C104.811 171.039 104.254 171.595 104.254 172.281C104.254 172.968 104.811 173.524 105.499 173.524Z" fill="var(--fill-0, #7700EE)"></path>
<path id="Vector_68" d="M108.738 168.899C109.425 168.899 109.983 168.343 109.983 167.656C109.983 166.97 109.425 166.414 108.738 166.414C108.05 166.414 107.492 166.97 107.492 167.656C107.492 168.343 108.05 168.899 108.738 168.899Z" fill="var(--fill-0, #7700EE)"></path>
<path id="Vector_69" d="M112.956 165.149C113.644 165.149 114.202 164.593 114.202 163.906C114.202 163.22 113.644 162.664 112.956 162.664C112.268 162.664 111.711 163.22 111.711 163.906C111.711 164.593 112.268 165.149 112.956 165.149Z" fill="var(--fill-0, #7700EE)"></path>
<path id="Vector_70" d="M117.933 162.465C118.621 162.465 119.178 161.909 119.178 161.223C119.178 160.537 118.621 159.98 117.933 159.98C117.245 159.98 116.688 160.537 116.688 161.223C116.688 161.909 117.245 162.465 117.933 162.465Z" fill="var(--fill-0, #7700EE)"></path>
<path id="Vector_71" d="M140.027 162.469C140.714 162.469 141.272 161.913 141.272 161.227C141.272 160.541 140.714 159.984 140.027 159.984C139.339 159.984 138.781 160.541 138.781 161.227C138.781 161.913 139.339 162.469 140.027 162.469Z" fill="var(--fill-0, #7700EE)"></path>
<path id="Vector_72" d="M144.999 165.153C145.687 165.153 146.245 164.597 146.245 163.91C146.245 163.224 145.687 162.668 144.999 162.668C144.311 162.668 143.754 163.224 143.754 163.91C143.754 164.597 144.311 165.153 144.999 165.153Z" fill="var(--fill-0, #7700EE)"></path>
<path id="Vector_73" d="M149.222 168.907C149.91 168.907 150.467 168.35 150.467 167.664C150.467 166.978 149.91 166.422 149.222 166.422C148.534 166.422 147.977 166.978 147.977 167.664C147.977 168.35 148.534 168.907 149.222 168.907Z" fill="var(--fill-0, #7700EE)"></path>
<path id="Vector_74" d="M152.46 173.528C153.148 173.528 153.705 172.972 153.705 172.285C153.705 171.599 153.148 171.043 152.46 171.043C151.772 171.043 151.215 171.599 151.215 172.285C151.215 172.972 151.772 173.528 152.46 173.528Z" fill="var(--fill-0, #7700EE)"></path>
<path id="Vector_75" d="M154.675 178.723C155.363 178.723 155.92 178.167 155.92 177.481C155.92 176.795 155.363 176.238 154.675 176.238C153.987 176.238 153.43 176.795 153.43 177.481C153.43 178.167 153.987 178.723 154.675 178.723Z" fill="var(--fill-0, #7700EE)"></path>
<path id="Vector_76" d="M155.956 184.227C156.644 184.227 157.202 183.671 157.202 182.985C157.202 182.298 156.644 181.742 155.956 181.742C155.268 181.742 154.711 182.298 154.711 182.985C154.711 183.671 155.268 184.227 155.956 184.227Z" fill="var(--fill-0, #7700EE)"></path>
</g>
</g>
<defs>
<filter id="filter0_f_0_4" x="0" y="0" width="256" height="256" filterUnits="userSpaceOnUse" color-interpolation-filters="sRGB">
<feFlood flood-opacity="0" result="BackgroundImageFix"></feFlood>
<feBlend mode="normal" in="SourceGraphic" in2="BackgroundImageFix" result="shape"></feBlend>
<feGaussianBlur stdDeviation="12" result="effect1_foregroundBlur_0_4"></feGaussianBlur>
</filter>
<radialGradient id="paint0_radial_0_4" cx="0" cy="0" r="1" gradientUnits="userSpaceOnUse" gradientTransform="translate(129 129) rotate(90) scale(100)">
<stop offset="0.586538" stop-color="#FAFFEB" stop-opacity="0.25"></stop>
<stop offset="1" stop-color="#D9FF68"></stop>
</radialGradient>
</defs>
</svg>