<svg preserveAspectRatio="none" width="100%" height="100%" overflow="visible" style="display: block;" viewBox="0 0 44.9112 44.9117" fill="none" xmlns="http://www.w3.org/2000/svg">
<g id="GDPR">
<path id="Vector" d="M22.3569 4.40936e-05L23.1843 2.55017H25.8779L23.7037 4.12421L24.5311 6.66553L22.3569 5.09149L20.1827 6.66553L21.0101 4.12421L18.8359 2.55017H21.5295L22.3569 4.40936e-05Z" fill="var(--fill-0, black)"></path>
<path id="Vector_2" d="M22.3569 38.2463L23.1843 40.7876H25.8779L23.7037 42.3616L24.5311 44.9118L22.3569 43.3377L20.1827 44.9118L21.0101 42.3616L18.8359 40.7876H21.5295L22.3569 38.2463Z" fill="var(--fill-0, black)"></path>
<path id="Vector_3" d="M35.7681 32.2697L36.6044 34.8111H39.2891L37.1149 36.3851L37.9512 38.9352L35.7681 37.3612L33.5939 38.9352L34.4302 36.3851L32.2472 34.8111H34.9407L35.7681 32.2697Z" fill="var(--fill-0, black)"></path>
<path id="Vector_4" d="M9.13409 32.2697L9.97032 34.8111H12.6639L10.4809 36.3851L11.3171 38.9352L9.13409 37.3612L6.95988 38.9352L7.79611 36.3851L5.6131 34.8111H8.30666L9.13409 32.2697Z" fill="var(--fill-0, black)"></path>
<path id="Vector_5" d="M35.7681 5.71634L36.6044 8.26646H39.2891L37.1149 9.8405L37.9512 12.3906L35.7681 10.8166L33.5939 12.3906L34.4302 9.8405L32.2472 8.26646H34.9407L35.7681 5.71634Z" fill="var(--fill-0, black)"></path>
<path id="Vector_6" d="M9.13409 5.71634L9.97032 8.26646H12.6639L10.4809 9.8405L11.3171 12.3906L9.13409 10.8166L6.95988 12.3906L7.79611 9.8405L5.6131 8.26646H8.30666L9.13409 5.71634Z" fill="var(--fill-0, black)"></path>
<path id="Vector_7" d="M41.3902 19.2578L42.2264 21.7991H44.9112L42.737 23.3731L43.5644 25.9232L41.3902 24.3492L39.216 25.9232L40.0434 23.3731L37.8692 21.7991H40.5628L41.3902 19.2578Z" fill="var(--fill-0, black)"></path>
<path id="Vector_8" d="M3.52101 19.2578L4.34844 21.7991H7.042L4.86779 23.3731L5.69522 25.9232L3.52101 24.3492L1.3468 25.9232L2.17424 23.3731L2.78895e-05 21.7991H2.68478L3.52101 19.2578Z" fill="var(--fill-0, black)"></path>
</g>
</svg>