<svg preserveAspectRatio="none" width="100%" height="100%" overflow="visible" style="display: block;" viewBox="0 0 110.569 13.605" fill="none" xmlns="http://www.w3.org/2000/svg">
<g id="Group">
<path id="Vector" d="M9.67941 10.4365H2.98873L1.82093 13.3652H0L5.30343 0.164062H7.3412L12.6655 13.3652H10.8446L9.67941 10.4365ZM3.46682 8.9735H9.18564L6.33537 1.62969L3.46682 8.9735Z" fill="var(--fill-0, black)"></path>
<path id="Vector_2" d="M20.4666 11.9413C19.7534 12.9106 18.5856 13.6029 17.2402 13.6029C14.7452 13.6029 12.9844 11.7036 12.9844 8.59468C12.9844 5.54586 14.7269 3.56818 17.2402 3.56818C18.5255 3.56818 19.6933 4.20041 20.4666 5.25065V0.164062H21.9506V13.3652H20.4666V11.9413ZM20.4666 6.43935C19.9311 5.60856 18.7842 4.89535 17.5955 4.89535C15.6753 4.89535 14.5284 6.47854 14.5284 8.59729C14.5284 10.7161 15.6753 12.2783 17.5955 12.2783C18.7842 12.2783 19.9311 11.6043 20.4666 10.7735V6.43935Z" fill="var(--fill-0, black)"></path>
<path id="Vector_3" d="M23.1016 3.80469H24.7057L27.8929 11.6423L31.0593 3.80469H32.6817L28.7028 13.3639H27.0804L23.1016 3.80469Z" fill="var(--fill-0, black)"></path>
<path id="Vector_4" d="M39.4088 12.2779C38.6173 13.1478 37.5278 13.605 36.2425 13.605C34.6201 13.605 32.8984 12.5156 32.8984 10.4386C32.8984 8.3016 34.6201 7.29055 36.2425 7.29055C37.5487 7.29055 38.6382 7.70594 39.4088 8.59681V6.87516C39.4088 5.58979 38.3795 4.85567 36.9949 4.85567C35.848 4.85567 34.9179 5.27107 34.0662 6.18284L33.3739 5.1535C34.4032 4.08498 35.6311 3.57031 37.1934 3.57031C39.2129 3.57031 40.8954 4.47947 40.8954 6.79678V13.3673H39.4115V12.2779H39.4088ZM39.4088 9.54516C38.8341 8.75356 37.8257 8.35646 36.7754 8.35646C35.3908 8.35646 34.4189 9.22643 34.4189 10.4543C34.4189 11.6613 35.3882 12.5313 36.7754 12.5313C37.8257 12.5313 38.8341 12.1368 39.4088 11.3426V9.54516Z" fill="var(--fill-0, black)"></path>
<path id="Vector_5" d="M48.7238 7.11551C48.7238 5.43304 47.8721 4.89748 46.5867 4.89748C45.4189 4.89748 44.3112 5.6107 43.7574 6.38139V13.3673H42.2734V3.80805H43.7574V5.19269C44.4314 4.4011 45.7377 3.57031 47.1615 3.57031C49.1601 3.57031 50.2103 4.57875 50.2103 6.65832V13.3673H48.7264V7.11551H48.7238Z" fill="var(--fill-0, black)"></path>
<path id="Vector_6" d="M56.208 3.57031C57.9505 3.57031 58.9799 4.28353 59.7114 5.23188L58.7212 6.14104C58.089 5.27107 57.2765 4.89486 56.2863 4.89486C54.2486 4.89486 52.9815 6.45715 52.9815 8.57591C52.9815 10.6947 54.2486 12.2779 56.2863 12.2779C57.2765 12.2779 58.0864 11.8834 58.7212 11.0317L59.7114 11.9408C58.9799 12.8918 57.9505 13.6024 56.208 13.6024C53.3577 13.6024 51.4375 11.4262 51.4375 8.57591C51.4375 5.74654 53.3577 3.57031 56.208 3.57031Z" fill="var(--fill-0, black)"></path>
<path id="Vector_7" d="M64.7573 3.57031C67.6467 3.57031 69.3501 5.82753 69.3501 8.69609V9.07229H61.6118C61.7293 10.8723 62.9964 12.3771 65.0551 12.3771C66.1445 12.3771 67.2522 11.9408 68.0046 11.1701L68.7178 12.1394C67.7669 13.0904 66.4815 13.605 64.9166 13.605C62.0873 13.605 60.0469 11.5673 60.0469 8.57852C60.0469 5.80663 62.0272 3.57031 64.7573 3.57031ZM61.6118 7.98287H67.8871C67.8662 6.55904 66.9178 4.79559 64.739 4.79559C62.7012 4.79559 61.6902 6.51724 61.6118 7.98287Z" fill="var(--fill-0, black)"></path>
<path id="Vector_8" d="M77.8807 11.9413C77.1675 12.9106 75.9997 13.6029 74.6542 13.6029C72.1593 13.6029 70.3984 11.7036 70.3984 8.59468C70.3984 5.54586 72.141 3.56818 74.6542 3.56818C75.9396 3.56818 77.1074 4.20041 77.8807 5.25065V0.164062H79.3646V13.3652H77.8807V11.9413ZM77.8807 6.43935C77.3451 5.60856 76.1982 4.89535 75.0095 4.89535C73.0893 4.89535 71.9424 6.47854 71.9424 8.59729C71.9424 10.7161 73.0893 12.2783 75.0095 12.2783C76.1982 12.2783 77.3451 11.6043 77.8807 10.7735V6.43935Z" fill="var(--fill-0, black)"></path>
<path id="Vector_9" d="M87.7149 13.3702L85.1703 5.11721L84.0417 13.3702H80.7891L82.5813 0.226562H86.5209L89.2641 9.12221L91.8531 0.226562H95.8137L97.6059 13.3702H94.3298L93.1803 5.11721L90.6357 13.3702H87.7149Z" fill="var(--fill-0, black)"></path>
<path id="Vector_10" d="M98.7995 0.331791C99.774 0.177652 101.587 0 103.202 0C107.583 0 110.569 2.25722 110.569 6.65933C110.569 11.4611 107.45 13.5407 103.113 13.5407C101.543 13.5407 99.8158 13.4519 98.7969 13.2298V0.331791H98.7995ZM102.096 10.599C102.494 10.6434 103.047 10.6643 103.512 10.6643C105.702 10.6643 107.186 9.40248 107.186 6.65933C107.186 4.13563 105.527 3.03053 103.447 3.03053C103.027 3.03053 102.496 3.05143 102.096 3.09584V10.599Z" fill="var(--fill-0, black)"></path>
</g>
</svg>