<svg preserveAspectRatio="none" width="100%" height="100%" overflow="visible" style="display: block;" viewBox="0 0 97.6297 87.9121" fill="none" xmlns="http://www.w3.org/2000/svg">
<g id="Group">
<path id="Vector" d="M4.82748 86.2543C2.70606 86.2543 1.63985 85.6498 1.63985 84.4517C1.63985 83.4734 2.56318 82.8139 4.39882 82.4842L6.9489 82.1544C9.92769 81.7148 11.8732 81.0333 12.7856 80.11C13.7089 79.1866 14.1706 77.5709 14.1706 75.2736V20.1829C14.1706 18.2154 13.7748 16.8744 13.0054 16.1709C12.225 15.4565 10.84 14.9948 8.86151 14.775L4.39882 14.2804C2.55219 14.1704 1.63985 13.5659 1.63985 12.4777C1.63985 11.6094 2.77201 11.0048 5.03633 10.6751C9.42208 10.1255 12.7856 9.25713 15.1268 8.04804C17.4681 6.84994 19.9083 5.36606 22.4584 3.61837C23.7334 2.62911 24.7997 2.14547 25.646 2.14547C26.9211 2.14547 27.5586 2.80498 27.5586 4.113V11.4885C27.5586 12.4667 28.0203 13.1042 28.9436 13.368C29.8669 13.6428 30.8891 13.3461 32.0213 12.4667C37.6821 8.31184 42.6724 5.47597 47.0032 3.93713C51.323 2.40928 55.8846 1.63985 60.7101 1.63985C67.0853 1.63985 72.1855 3.36556 76.0107 6.80597C79.8359 10.2464 81.7484 15.3026 81.7484 21.9746V75.2626C81.7484 77.5599 82.2101 79.1757 83.1334 80.099C84.0567 81.0333 86.0023 81.6598 88.9701 81.9895L93.6416 82.4842C95.2024 82.704 95.9829 83.3635 95.9829 84.4517C95.9829 85.6608 95.1365 86.2543 93.4327 86.2543H57.7423C55.7527 86.2543 54.7634 85.6498 54.7634 84.4517C54.7634 83.3635 55.5439 82.704 57.1047 82.4842L60.0835 82.1544C63.0623 81.8247 65.0079 81.1762 65.9202 80.1869C66.8435 79.2086 67.3052 77.5599 67.3052 75.2626V23.7772C67.3052 18.4243 66.0301 14.6541 63.48 12.4667C60.9299 10.2794 57.3245 9.19118 52.642 9.19118C47.9595 9.19118 44.0354 10.2024 40.4301 12.2249C36.8138 14.2474 33.9559 16.9294 31.8235 20.2599C29.702 23.5904 28.6359 27.2836 28.6359 31.3286V75.2736C28.6359 77.5709 29.0975 79.2086 30.0208 80.1979C30.9441 81.1762 32.8896 81.7807 35.8574 82.0005L41.5952 82.4952C43.1561 82.715 43.9365 83.3195 43.9365 84.2978C43.9365 85.6058 42.8703 86.2653 40.7488 86.2653H4.84949L4.82748 86.2543Z" fill="var(--fill-0, black)"></path>
<path id="Vector_2" d="M93.4197 87.901H57.7292C53.5523 87.901 53.1016 85.4828 53.1016 84.4496C53.1016 83.5263 53.4643 81.3279 56.8608 80.8553L59.8836 80.5255C63.357 80.1408 64.4122 79.3824 64.709 79.0636C65.3246 78.4151 65.6433 77.0961 65.6433 75.2715V23.7861C65.6433 18.9608 64.5551 15.5753 62.3897 13.7287C60.1583 11.8161 56.8718 10.8489 52.6289 10.8489C48.3861 10.8489 44.572 11.7941 41.2194 13.6737C37.8669 15.5533 35.1629 18.0704 33.2064 21.1591C31.2608 24.2148 30.2826 27.6333 30.2826 31.3375V75.2825C30.2826 77.1071 30.6013 78.4261 31.2168 79.0746C31.5026 79.3824 32.5249 80.1079 35.9763 80.3607L41.736 80.8553C45.2204 81.3389 45.5832 83.4274 45.5832 84.2957C45.5832 85.3839 45.1105 87.912 40.7467 87.912H4.84741C0.483645 87.912 0.0110026 85.4938 0.0110026 84.4606C0.0110026 83.1526 0.725473 81.4708 4.13294 80.8663L6.75998 80.5255C10.2664 80.0089 11.3436 79.2505 11.6404 78.9537C12.2229 78.3712 12.5417 77.0631 12.5417 75.2825V20.1918C12.5417 18.1254 12.058 17.5318 11.9042 17.3889C11.6184 17.1251 10.816 16.6525 8.69455 16.4217L4.23187 15.927C0.417697 15.7072 0 13.4429 0 12.4866C0 9.74968 3.61632 9.22208 4.81443 9.04621C9.02431 8.5186 12.2339 7.69422 14.3883 6.58406C16.6526 5.41893 19.0599 3.96802 21.544 2.2643C23.0609 1.09918 24.4239 0.494629 25.666 0.494629C27.8643 0.494629 29.2273 1.87959 29.2273 4.11092V11.4864C29.2273 11.6403 29.2493 11.7172 29.2603 11.7282C29.2603 11.7282 29.3152 11.7502 29.4252 11.7832C29.9198 11.926 30.6453 11.4534 31.03 11.1566C36.8227 6.90282 42.0108 3.95703 46.4625 2.38521C50.9472 0.8024 55.7397 0 60.719 0C67.479 0 72.9968 1.87959 77.1188 5.58381C81.2847 9.34299 83.3951 14.8499 83.3951 21.9725V75.2605C83.3951 77.0412 83.7139 78.3492 84.2964 78.9317C84.5932 79.2285 85.6485 79.954 89.1549 80.3387L93.8154 80.8333C97.2558 81.3169 97.6295 83.5153 97.6295 84.4386C97.6295 85.252 97.3218 87.89 93.4307 87.89L93.4197 87.901ZM56.3992 84.4166C56.5201 84.4826 56.8938 84.6035 57.7402 84.6035H93.4307C93.9473 84.6035 94.2111 84.5265 94.321 84.4936V84.3836C94.321 84.3836 94.0902 84.2188 93.4087 84.1198L88.7921 83.6362C85.3407 83.2515 83.1753 82.5041 81.9552 81.273C80.7021 80.0199 80.0976 78.0524 80.0976 75.2715V21.9835C80.0976 15.8391 78.3499 11.1456 74.9094 8.04596C71.414 4.90232 66.6436 3.30851 60.719 3.30851C56.1134 3.30851 51.6946 4.04496 47.5727 5.50686C43.4178 6.97976 38.5264 9.77166 33.0195 13.8056C31.4807 14.9927 29.9418 15.3884 28.4909 14.9598C26.8641 14.4871 25.9298 13.2231 25.9298 11.4974V4.12191C25.9298 3.97901 25.9187 3.88009 25.9078 3.82513C25.8638 3.82513 25.7869 3.80314 25.666 3.80314C25.5011 3.80314 24.8526 3.88009 23.4896 4.9353C20.8186 6.77092 18.2904 8.29877 15.9052 9.51885C13.3771 10.8269 9.89267 11.7392 5.2651 12.3108C4.69353 12.3987 4.26483 12.4866 3.94607 12.5746C4.09995 12.5965 4.28684 12.6185 4.51767 12.6295L9.06827 13.1241C11.4315 13.3879 13.0913 13.9815 14.1355 14.9378C15.2897 15.993 15.8393 17.6967 15.8393 20.1699V75.2605C15.8393 78.0304 15.2347 79.9979 13.9816 81.262C12.7725 82.4821 10.6181 83.2845 7.21065 83.7791L4.63856 84.1089C4.045 84.2188 3.69325 84.3507 3.4954 84.4496C3.72623 84.5155 4.14394 84.6035 4.85841 84.6035H40.7577C41.78 84.6035 42.1757 84.4166 42.2856 84.3617C42.1647 84.2957 41.9009 84.1968 41.3843 84.1198L35.7345 83.6362C32.272 83.3834 30.0737 82.6469 28.8316 81.3169C27.6005 80.0089 27.0069 78.0304 27.0069 75.2715V31.3265C27.0069 26.9847 28.1611 22.9618 30.4474 19.3785C32.7117 15.8281 35.8005 12.9373 39.6366 10.7939C43.4838 8.63951 47.8695 7.55133 52.6619 7.55133C57.7182 7.55133 61.7302 8.7934 64.5661 11.2226C67.4899 13.7287 68.9629 17.9495 68.9629 23.7861V75.2715C68.9629 78.0304 68.3693 79.9979 67.1382 81.3169C65.9071 82.625 63.7307 83.4164 60.2683 83.8011L57.2895 84.1308C56.597 84.2298 56.4101 84.4166 56.4101 84.4166H56.3992Z" fill="var(--fill-0, black)"></path>
</g>
</svg>