<svg preserveAspectRatio="none" width="100%" height="100%" overflow="visible" style="display: block;" viewBox="0 0 140.179 30.8135" fill="none" xmlns="http://www.w3.org/2000/svg">
<g id="_Shadow">
<path id="Vector" d="M37.0469 10.1693H38.4475C38.8219 10.1683 39.1887 10.2748 39.5045 10.476C39.8201 10.6658 40.0629 10.956 40.1939 11.3002L43.6345 19.1906C43.7023 19.3611 43.7518 19.5382 43.7824 19.7191C43.815 19.9062 43.839 20.1084 43.8564 20.3216C43.8579 19.9328 43.937 19.5484 44.0891 19.1906L47.5297 11.2872C47.6742 10.9472 47.9193 10.6595 48.2322 10.4629C48.5428 10.2612 48.9057 10.1546 49.2761 10.1563H50.6745L45.046 23.0727H42.6754L37.0469 10.1693Z" fill="var(--fill-0, black)"></path>
<path id="Vector_2" d="M63.3257 15.5282C63.3305 15.7934 63.2739 16.0561 63.1604 16.2959C63.0572 16.51 62.9182 16.7049 62.7494 16.8722C62.5908 17.0279 62.4051 17.1533 62.2013 17.242C62.0215 17.3237 61.8268 17.3674 61.6293 17.3703H52.6581C52.7284 17.8615 52.8955 18.3338 53.1496 18.76C53.4001 19.1811 53.7199 19.5569 54.0956 19.8714C54.4769 20.1896 54.9093 20.4411 55.3745 20.6152C56.1983 20.9259 57.0985 20.9715 57.9495 20.7457C58.2948 20.652 58.6277 20.5177 58.9412 20.3455C59.0917 20.2596 59.2525 20.1931 59.4197 20.1476C59.5891 20.1061 59.7629 20.0857 59.9373 20.0867C60.1823 20.0837 60.425 20.1342 60.6485 20.2346C60.8737 20.3423 61.0778 20.4897 61.2509 20.6695L61.7185 21.1371C61.1052 21.7908 60.3701 22.3182 59.5545 22.69C58.7106 23.0756 57.7921 23.2709 56.8642 23.262C55.9791 23.2669 55.1025 23.0892 54.2892 22.74C52.6941 22.0642 51.4244 20.7944 50.7485 19.1993C50.4041 18.3849 50.2266 17.5097 50.2266 16.6254C50.2266 15.7411 50.4041 14.8659 50.7485 14.0515C51.4247 12.4563 52.6931 11.1855 54.287 10.5064C55.1003 10.1572 55.977 9.97953 56.8621 9.98448C57.6081 9.98153 58.3488 10.1104 59.05 10.3651C59.7316 10.6116 60.3701 10.9639 60.9421 11.409C61.5082 11.8534 62 12.3849 62.3992 12.9836C62.8003 13.5887 63.0945 14.2581 63.2692 14.9627C63.2939 15.0549 63.3063 15.15 63.3062 15.2455C63.3149 15.3433 63.317 15.4368 63.3257 15.5282ZM53.5802 14.9997H60.8073C60.6444 14.6146 60.4293 14.2538 60.1678 13.9275C59.6444 13.2745 58.9378 12.7929 58.1387 12.5443C57.2711 12.2733 56.34 12.284 55.4789 12.5747C55.0507 12.7214 54.6484 12.9351 54.287 13.2076C53.5648 13.7576 53.0374 14.5243 52.782 15.3955C52.8629 15.2935 52.9599 15.2054 53.0691 15.1345C53.2214 15.0377 53.4 14.9905 53.5802 14.9997Z" fill="var(--fill-0, black)"></path>
<path id="Vector_3" d="M67.0271 10.1694C67.0929 10.2632 67.1525 10.3613 67.2054 10.463C67.255 10.5689 67.2979 10.6778 67.3337 10.7892C67.3755 10.9221 67.3961 11.0609 67.3946 11.2002V12.0985C67.5513 11.7906 67.7595 11.5119 68.0101 11.2742C68.2771 11.0161 68.5743 10.7912 68.8953 10.6043C69.2289 10.4096 69.5854 10.2569 69.9566 10.1498C70.3346 10.0399 70.7264 9.9842 71.1201 9.9845C71.7637 9.97999 72.402 10.1011 72.9992 10.3412L72.8165 11.3851C72.7704 11.6961 72.6165 11.9809 72.3815 12.1898C72.1436 12.3864 71.8419 12.4893 71.5334 12.4791C71.5089 12.483 71.4839 12.483 71.4594 12.4791C71.4451 12.4759 71.4302 12.4759 71.4159 12.4791C71.3855 12.4808 71.355 12.4808 71.3246 12.4791C71.284 12.4791 71.2115 12.4791 71.1071 12.4791C70.6338 12.4768 70.1631 12.5503 69.713 12.6965C69.3027 12.8252 68.9136 13.0135 68.5582 13.2555C68.245 13.4658 67.9718 13.7302 67.7513 14.0363C67.5617 14.2907 67.4431 14.5909 67.4077 14.9062V23.0902H64.9609V10.1694H67.0271Z" fill="var(--fill-0, black)"></path>
<path id="Vector_4" d="M74.0315 12.0612C74.1192 11.9302 74.2174 11.8066 74.3251 11.6915C74.4424 11.5686 74.5658 11.4518 74.6948 11.3414C74.8594 11.203 75.0315 11.0737 75.2103 10.9542C75.7026 10.6404 76.2362 10.3967 76.7957 10.23C77.4118 10.0552 78.0498 9.97025 78.69 9.97772C79.3139 9.96531 79.9358 10.0527 80.5321 10.2365C81.0218 10.3895 81.4785 10.6329 81.8784 10.9542C82.247 11.2564 82.5554 11.6253 82.7875 12.0417C83.0273 12.4742 83.2135 12.9343 83.3421 13.4118C83.4792 13.9233 83.5716 14.4458 83.6183 14.9734C83.6661 15.5193 83.6922 16.0608 83.6922 16.6263V23.066H81.7C81.5872 22.9241 81.4983 22.7647 81.4369 22.5941C81.3686 22.4156 81.3332 22.2262 81.3325 22.0351V21.7089C81.0842 21.9532 80.8049 22.1638 80.5017 22.3353C79.8619 22.7092 79.1678 22.9814 78.4443 23.1421C78.1295 23.2142 77.808 23.2528 77.4852 23.2574C76.8817 23.2646 76.2812 23.1712 75.7083 22.9812C75.201 22.8143 74.7327 22.5465 74.3316 22.1939C73.9499 21.8542 73.6477 21.4347 73.4465 20.9651C73.2324 20.459 73.1257 19.9139 73.1333 19.3644C73.1242 18.7696 73.2459 18.1801 73.49 17.6376C73.7375 17.1184 74.1114 16.6698 74.5774 16.3327C75.1328 15.9369 75.7588 15.6512 76.4217 15.491C77.2805 15.2807 78.1627 15.1813 79.0467 15.1952C79.3251 15.1952 79.5926 15.1952 79.8514 15.2213C80.1102 15.2474 80.3408 15.2539 80.5452 15.2691C80.7496 15.2844 80.9193 15.3018 81.0563 15.3192C81.1403 15.3269 81.2238 15.3392 81.3064 15.3561C81.2924 14.8447 81.1992 14.3384 81.0302 13.8555C80.9067 13.5074 80.7076 13.191 80.4473 12.929C80.2193 12.7091 79.9407 12.5485 79.6361 12.4614C79.0162 12.2985 78.3657 12.2903 77.7418 12.4375C77.5336 12.4986 77.3307 12.5764 77.135 12.6702C76.9589 12.7572 76.7849 12.8333 76.6131 12.9029C76.3917 12.9803 76.1579 13.0157 75.9236 13.0073C75.7121 13.0088 75.5021 12.9719 75.3038 12.8986C75.0996 12.8183 74.9072 12.7107 74.7318 12.5789L74.0315 12.0612ZM77.4721 20.9238C77.7814 20.921 78.0899 20.8919 78.3943 20.8368C78.7309 20.7777 79.0636 20.6978 79.3903 20.5975C79.7305 20.4933 80.0646 20.3699 80.3908 20.2278C80.7178 20.0871 81.0353 19.9251 81.3412 19.7428V17.5788C81.2576 17.5671 81.1733 17.5613 81.0889 17.5614L80.5626 17.5419L79.8601 17.5245C79.6035 17.5245 79.3382 17.5245 79.0685 17.5245C78.5918 17.5227 78.1157 17.5561 77.6439 17.6245C77.2503 17.6771 76.8659 17.7847 76.5021 17.9442C76.2058 18.0714 75.9441 18.2675 75.7388 18.5162C75.5542 18.7596 75.459 19.0591 75.4691 19.3644C75.4613 19.6147 75.5143 19.8632 75.6235 20.0886C75.7253 20.2832 75.875 20.4486 76.0585 20.5693C76.2522 20.6982 76.4683 20.7897 76.6957 20.839C76.9505 20.896 77.211 20.9245 77.4721 20.9238Z" fill="var(--fill-0, black)"></path>
<path id="Vector_5" d="M95.5393 23.0729C95.4647 22.9839 95.4025 22.8851 95.3544 22.7793C95.3069 22.673 95.2655 22.5641 95.2304 22.4531C95.1883 22.3202 95.1677 22.1814 95.1695 22.042V21.9551C94.9313 22.1972 94.6648 22.4097 94.3757 22.5879C94.1099 22.7521 93.8279 22.8884 93.534 22.9946C93.2522 23.0965 92.9607 23.1694 92.6641 23.2121C92.3794 23.2513 92.0924 23.2716 91.805 23.273C90.9316 23.2808 90.0664 23.1029 89.267 22.7511C88.5013 22.4151 87.8106 21.9293 87.2357 21.3222C86.6631 20.7078 86.2122 19.9905 85.9068 19.2082C85.2602 17.5524 85.2602 15.7139 85.9068 14.0581C86.2154 13.275 86.6701 12.5576 87.2465 11.9442C87.8211 11.3388 88.511 10.8544 89.2757 10.5197C90.3432 10.0534 91.5196 9.89371 92.6728 10.0586C92.969 10.1033 93.2603 10.1761 93.5427 10.2761C93.834 10.3744 94.1134 10.505 94.3757 10.6654C94.6648 10.8436 94.9313 11.0561 95.1695 11.2983V5.46094H97.6032V23.0773L95.5393 23.0729ZM91.8029 12.3683C91.2438 12.3616 90.69 12.4774 90.1804 12.7076C89.6991 12.9242 89.2664 13.2356 88.9081 13.6232C88.5486 14.0162 88.268 14.4747 88.0817 14.9738C87.6903 16.0454 87.6903 17.2209 88.0817 18.2926C88.2693 18.7926 88.5514 19.2519 88.9125 19.6454C89.2713 20.0323 89.7039 20.3436 90.1848 20.561C90.6948 20.7894 91.2484 20.9044 91.8072 20.8981C93.07 20.8922 94.2796 20.389 95.1739 19.4975V13.7689C94.278 12.8797 93.0694 12.3769 91.8072 12.3683H91.8029Z" fill="var(--fill-0, black)"></path>
<path id="Vector_6" d="M99.461 6.92505C99.4584 6.70083 99.5029 6.47855 99.5915 6.27259C99.7616 5.87534 100.08 5.56012 100.479 5.39395C100.893 5.22285 101.357 5.22285 101.771 5.39395C101.968 5.47827 102.147 5.59932 102.299 5.75062C102.449 5.9035 102.569 6.08265 102.654 6.27911C102.825 6.69201 102.825 7.15591 102.654 7.5688C102.57 7.76613 102.449 7.94553 102.297 8.09729C102.146 8.24932 101.966 8.37046 101.769 8.45397C101.564 8.54011 101.344 8.58448 101.123 8.58448C100.901 8.58448 100.681 8.54011 100.477 8.45397C100.279 8.37046 100.1 8.24932 99.9482 8.09729C99.7966 7.94601 99.6762 7.76645 99.5937 7.5688C99.5054 7.36572 99.4602 7.14651 99.461 6.92505ZM102.325 10.1699V23.0734H99.8917V10.1699H102.325Z" fill="var(--fill-0, black)"></path>
<path id="Vector_7" d="M115.564 11.7917C115.448 12.1055 115.241 12.3769 114.968 12.5703C114.6 12.7779 114.178 12.8717 113.757 12.84C113.888 13.1451 113.991 13.4619 114.063 13.7861C114.14 14.1177 114.179 14.4569 114.181 14.7974C114.185 15.4419 114.055 16.0803 113.8 16.6721C113.31 17.8259 112.392 18.7445 111.238 19.2341C110.646 19.4892 110.008 19.6188 109.363 19.6147C108.621 19.6206 107.888 19.4539 107.221 19.1275C106.997 19.254 106.801 19.4232 106.643 19.6256C106.582 19.7158 106.544 19.8196 106.532 19.9279C106.532 19.9829 106.544 20.0373 106.569 20.0866L106.619 20.1367C106.726 20.2331 106.858 20.2985 106.999 20.3259C107.213 20.3856 107.431 20.4293 107.652 20.4564C107.902 20.489 108.174 20.5107 108.47 20.5238C108.765 20.5368 109.048 20.5412 109.318 20.5412C109.866 20.5412 110.425 20.5673 110.988 20.6151C111.52 20.658 112.044 20.7653 112.55 20.9348C113.174 21.1269 113.723 21.5066 114.124 22.0223C114.493 22.54 114.682 23.1639 114.663 23.7991C114.67 24.291 114.566 24.7781 114.357 25.2236C114.148 25.6557 113.84 26.0326 113.459 26.3241C113.029 26.6504 112.541 26.8925 112.021 27.0375C111.393 27.2136 110.744 27.2986 110.092 27.2898C109.522 27.2903 108.952 27.2452 108.389 27.1549C107.837 27.0636 107.302 26.9483 106.786 26.8091C106.269 26.6699 105.771 26.5133 105.286 26.3372C104.801 26.161 104.348 25.9914 103.922 25.8261L104.218 25.004C104.322 24.7086 104.535 24.4643 104.814 24.3211C105.111 24.1531 105.448 24.0661 105.79 24.0688C106.001 24.0693 106.211 24.0941 106.416 24.1427C106.61 24.1886 106.799 24.2504 106.982 24.3276L107.389 24.482C107.576 24.5516 107.808 24.6212 108.082 24.6995C108.388 24.7798 108.698 24.8437 109.011 24.8909C109.371 24.9449 109.734 24.9718 110.098 24.9714C110.317 24.9669 110.535 24.9459 110.751 24.9083C111.001 24.8704 111.246 24.8047 111.482 24.7125C111.7 24.6301 111.901 24.5068 112.073 24.3493C112.151 24.2813 112.213 24.1973 112.255 24.1031C112.297 24.0088 112.318 23.9066 112.317 23.8035C112.324 23.6691 112.295 23.5354 112.232 23.4163C112.118 23.285 111.966 23.1922 111.797 23.151C111.425 23.031 111.039 22.958 110.649 22.9335C110.214 22.9009 109.779 22.8748 109.309 22.8596C108.839 22.8443 108.378 22.8204 107.908 22.7922C107.457 22.765 107.009 22.701 106.569 22.6008C106.166 22.5118 105.779 22.3653 105.418 22.1658C105.072 21.9625 104.785 21.6714 104.587 21.3219C104.435 21.0579 104.36 20.7566 104.37 20.452C104.392 20.0537 104.541 19.6728 104.794 19.3646C105.143 18.9267 105.59 18.5772 106.099 18.3446C105.616 17.9033 105.229 17.3673 104.961 16.77C104.686 16.1545 104.546 15.487 104.55 14.8126C104.546 14.1681 104.676 13.5297 104.931 12.9379C105.416 11.782 106.33 10.8595 107.482 10.365C108.559 9.909 109.765 9.86106 110.875 10.2302C111.347 10.3905 111.793 10.6223 112.195 10.9174C112.403 10.8017 112.621 10.707 112.847 10.6347C113.176 10.5364 113.518 10.4909 113.861 10.4999C114.16 10.5027 114.458 10.5296 114.753 10.5803C115.125 10.6428 115.493 10.7307 115.853 10.8435L115.564 11.7917ZM106.873 14.7974C106.87 15.1296 106.938 15.4587 107.071 15.763C107.327 16.3552 107.799 16.8274 108.391 17.0832C108.696 17.2137 109.025 17.281 109.357 17.281C109.689 17.281 110.017 17.2137 110.322 17.0832C110.914 16.8257 111.385 16.3541 111.643 15.763C111.772 15.4578 111.838 15.1298 111.838 14.7985C111.838 14.4671 111.772 14.1391 111.643 13.8339C111.386 13.2418 110.914 12.7692 110.322 12.5116C110.017 12.3824 109.689 12.3158 109.357 12.3158C109.025 12.3158 108.697 12.3824 108.391 12.5116C107.798 12.7674 107.326 13.2406 107.071 13.8339C106.938 14.1374 106.87 14.4658 106.873 14.7974Z" fill="var(--fill-0, black)"></path>
<path id="Vector_8" d="M126.689 12.4968C126.834 12.0728 127.065 11.6839 127.37 11.355C127.665 11.0382 128.01 10.7722 128.392 10.5677C128.774 10.3622 129.183 10.2113 129.608 10.1197C130.03 10.0267 130.461 9.97935 130.893 9.97832C131.595 9.95716 132.29 10.127 132.903 10.4698C133.448 10.7914 133.909 11.2388 134.247 11.7748C134.603 12.3428 134.859 12.9682 135.003 13.6234C135.163 14.3233 135.243 15.039 135.243 15.7569V23.0688H132.761V15.7678C132.758 15.3873 132.732 15.0074 132.681 14.6303C132.632 14.2464 132.529 13.8714 132.374 13.5168C132.23 13.1927 132.015 12.9051 131.745 12.6751C131.453 12.442 131.086 12.3223 130.712 12.338C130.31 12.3354 129.909 12.3956 129.525 12.5164C129.173 12.6257 128.839 12.7893 128.538 13.0014C128.264 13.1922 128.028 13.4318 127.842 13.7082C127.671 13.9576 127.571 14.2484 127.552 14.5499V23.0666H125.058V15.7678C125.056 15.3873 125.029 15.0073 124.977 14.6303C124.93 14.2462 124.827 13.871 124.671 13.5168C124.527 13.1934 124.313 12.9059 124.044 12.6751C123.75 12.4414 123.381 12.3217 123.005 12.338C122.603 12.3353 122.203 12.3954 121.819 12.5164C121.466 12.6256 121.133 12.7893 120.83 13.0014C120.56 13.1924 120.328 13.4303 120.143 13.7039C119.972 13.953 119.873 14.244 119.856 14.5455V23.0623H117.422V10.1632H119.486C119.552 10.257 119.611 10.3551 119.664 10.4568C119.716 10.5622 119.759 10.6713 119.795 10.783C119.835 10.9162 119.856 11.0548 119.856 11.1941V11.7117C119.999 11.4218 120.194 11.1608 120.432 10.9418C120.672 10.7251 120.941 10.5435 121.232 10.4024C121.533 10.2565 121.851 10.1491 122.178 10.0827C122.514 10.0131 122.856 9.97809 123.198 9.97832C123.649 9.97022 124.098 10.0281 124.531 10.1501C124.89 10.2567 125.226 10.4293 125.521 10.6591C125.801 10.8781 126.038 11.1464 126.221 11.4507C126.418 11.7799 126.575 12.131 126.689 12.4968Z" fill="var(--fill-0, black)"></path>
<path id="Vector_9" d="M8.91961 15.4087C7.64448 13.8452 6.53515 12.1535 5.60948 10.3608C5.43984 10.0107 5.26803 9.65616 5.11796 9.29731C4.7405 8.42908 4.45758 7.52275 4.27412 6.59396C4.11272 5.78608 4.06586 4.9595 4.13493 4.13855C4.23525 3.05328 4.59719 2.00851 5.18973 1.09375C4.10448 1.76796 1.38373 4.62354 1.09013 5.18901C0.34289 6.35517 -0.0360231 7.71926 0.00269738 9.10375C0.0244459 10.711 0.529013 12.366 1.27281 13.9646C1.4903 14.4495 1.74476 14.928 2.00792 15.3956C2.53703 16.3215 3.11791 17.2167 3.7478 18.0772C4.38503 18.9472 5.02879 19.7562 5.616 20.4413C7.10031 22.1192 8.68584 23.7047 10.3637 25.189C12.1568 24.2606 13.8485 23.1483 15.4116 21.8702C13.0686 19.9039 10.8968 17.7423 8.91961 15.4087Z" fill="var(--fill-0, black)"></path>
<path id="Vector_10" d="M20.45 25.2031C19.7649 25.7903 18.9646 26.4341 18.0859 27.0713C19.293 26.7933 20.4494 26.3288 21.5135 25.6946C21.159 25.5446 20.8045 25.3793 20.45 25.2031Z" fill="var(--fill-0, black)"></path>
<path id="Vector_11" d="M10.3526 5.61039C11.0376 5.02318 11.838 4.37942 12.7166 3.74219C11.5095 4.02024 10.3531 4.48471 9.28906 5.11887C9.64791 5.26894 10.0024 5.44075 10.3526 5.61039Z" fill="var(--fill-0, black)"></path>
<path id="Vector_12" d="M5.18762 1.09036C4.59508 2.00512 4.23314 3.04989 4.13281 4.13516C4.95133 4.06683 5.77536 4.11147 6.5817 4.26783C8.70631 2.58046 11.272 1.54076 13.9719 1.27305C12.3799 0.529251 10.7183 0.024684 9.11106 0.00293541C7.72363 -0.0375443 6.35626 0.34144 5.18762 1.09036Z" fill="var(--fill-0, black)"></path>
<path id="Vector_13" d="M25.7985 26.7044C25.2684 26.6953 24.7401 26.64 24.2196 26.5391C22.0967 28.2262 19.5339 29.268 16.8359 29.5404C18.4279 30.282 20.0982 30.7866 21.6967 30.8083C23.0848 30.8484 24.4528 30.4695 25.6224 29.7209C26.5184 28.416 26.6554 26.8066 26.6685 26.6761C26.3792 26.701 26.0888 26.7104 25.7985 26.7044Z" fill="var(--fill-0, black)"></path>
<path id="Vector_14" d="M16.8332 1.27548C13.1581 0.902807 9.48261 1.97969 6.58966 4.27678C5.7315 4.95769 4.95434 5.73485 4.27344 6.593C4.45691 7.52179 4.73982 8.42812 5.11728 9.29635C5.94538 7.90479 7.04678 6.6954 8.35504 5.74112C9.6633 4.78684 11.1513 4.10745 12.7293 3.74394C13.5902 3.11356 14.4862 2.53266 15.4131 2.00406C15.8785 1.74525 16.3482 1.49949 16.8332 1.27548Z" fill="var(--fill-0, black)"></path>
<path id="Vector_15" d="M29.5387 13.9811C29.2659 11.2833 28.2242 8.7205 26.5374 6.59747C25.8557 5.73927 25.0778 4.96211 24.219 4.28125C23.2902 4.46472 22.3839 4.74763 21.5156 5.12509C22.9072 5.9532 24.1166 7.0546 25.0709 8.36285C26.0251 9.67111 26.7045 11.1591 27.068 12.7371C27.6984 13.598 28.2793 14.494 28.8079 15.4209C29.0711 15.8863 29.319 16.3648 29.5452 16.8497C29.5909 16.38 29.6148 15.9015 29.6148 15.4209C29.6148 14.9402 29.5822 14.4509 29.5387 13.9811Z" fill="var(--fill-0, black)"></path>
<path id="Vector_16" d="M21.5168 25.6914C20.4527 26.3255 19.2963 26.79 18.0892 27.068C17.2288 27.6979 16.3335 28.2788 15.4076 28.8079C14.94 29.0711 14.4616 29.319 13.9766 29.5452C14.4463 29.5909 14.9248 29.617 15.4076 29.617C15.8904 29.617 16.3667 29.5909 16.8365 29.5452C19.5382 29.2748 22.1051 28.233 24.231 26.5439C25.0859 25.859 25.8601 25.079 26.5385 24.219C26.3533 23.2904 26.0697 22.3842 25.6925 21.5156C24.6691 23.2328 23.234 24.668 21.5168 25.6914Z" fill="var(--fill-0, black)"></path>
<path id="Vector_17" d="M5.12063 21.5168C4.48646 20.4527 4.02199 19.2963 3.74394 18.0892C3.11405 17.2288 2.53317 16.3335 2.00406 15.4076C1.74525 14.94 1.49949 14.4616 1.27548 13.9766C0.902807 17.6517 1.97969 21.3272 4.27678 24.2201C4.95823 25.0785 5.73532 25.8563 6.593 26.5385C7.5216 26.3533 8.42783 26.0697 9.29635 25.6925C7.57916 24.6691 6.14402 23.234 5.12063 21.5168Z" fill="var(--fill-0, black)"></path>
<path id="Vector_18" d="M15.4021 21.8851C13.839 23.1633 12.1473 24.2756 10.3543 25.204C10.0041 25.3801 9.64964 25.5454 9.29079 25.6955C8.42226 26.0727 7.51603 26.3563 6.58744 26.5415C5.7788 26.6783 4.95715 26.7221 4.13855 26.672C3.05384 26.5736 2.00911 26.214 1.09375 25.6237C1.48522 26.3262 4.22989 29.1796 5.19118 29.7233C6.35735 30.4706 7.72144 30.8495 9.10592 30.8108C10.7131 30.789 12.3682 30.2844 13.9667 29.5428C14.4517 29.3253 14.9302 29.0687 15.3978 28.8055C16.3236 28.2764 17.2189 27.6955 18.0794 27.0657C18.9493 26.4284 19.7584 25.7847 20.4435 25.1975C22.1228 23.714 23.7097 22.1292 25.1955 20.4519C24.2676 18.6592 23.1553 16.9682 21.8767 15.4063C20.2912 17.4354 17.7575 19.9713 15.4021 21.8851Z" fill="var(--fill-0, black)"></path>
<path id="Vector_19" d="M29.7231 5.19454C28.7997 4.62134 27.7589 4.26376 26.6783 4.14844C26.74 4.96658 26.6932 5.7893 26.5391 6.59515C28.227 8.71756 29.2688 11.2807 29.5404 13.9788C30.282 12.3868 30.7866 10.7165 30.8083 9.11799C30.8494 7.73078 30.4712 6.36342 29.7231 5.19454Z" fill="var(--fill-0, black)"></path>
<path id="Vector_20" d="M25.1953 10.3604C25.7825 11.0455 26.4263 11.8458 27.0635 12.7244C26.7855 11.5173 26.321 10.3609 25.6868 9.29688C25.5368 9.65573 25.3715 10.0102 25.1953 10.3604Z" fill="var(--fill-0, black)"></path>
<path id="Vector_21" d="M5.61039 20.45C5.02318 19.7649 4.37942 18.9646 3.74219 18.0859C4.02024 19.293 4.48471 20.4494 5.11887 21.5135C5.26894 21.159 5.44075 20.8045 5.61039 20.45Z" fill="var(--fill-0, black)"></path>
<path id="Vector_22" d="M4.27412 24.2196C2.5862 22.0972 1.54435 19.5341 1.27281 16.8359C0.529013 18.4279 0.0244459 20.0895 0.00269738 21.6967C-0.0360231 23.0812 0.34289 24.4453 1.09013 25.6115C2.00549 26.2017 3.05022 26.5614 4.13493 26.6598C4.05735 25.844 4.10428 25.0212 4.27412 24.2196Z" fill="var(--fill-0, black)"></path>
<path id="Vector_23" d="M30.8064 21.7024C30.7847 20.0952 30.2801 18.4401 29.5385 16.8416C29.321 16.3566 29.0644 15.8782 28.8012 15.4127C28.2726 14.4859 27.6917 13.5898 27.0613 12.729C26.4241 11.859 25.7803 11.05 25.1931 10.3649C23.7095 8.68709 22.1247 7.10157 20.4476 5.61719C18.6568 6.54259 16.9672 7.65195 15.4063 8.92732C17.3941 10.4497 20.3345 13.438 21.8808 15.404C23.1521 16.9729 24.2639 18.6646 25.1996 20.4541C25.3758 20.8042 25.5411 21.1587 25.6911 21.5176C26.0686 22.3875 26.3522 23.2952 26.5372 24.2253C26.6837 25.0328 26.7275 25.8556 26.6677 26.6742C26.6546 26.8133 26.5176 28.414 25.6216 29.719C26.8634 28.7685 28.7707 26.8916 29.7212 25.6172C30.4932 24.5863 30.826 23.1705 30.8064 21.7024Z" fill="var(--fill-0, black)"></path>
<path id="Vector_24" d="M5.11887 21.5135C5.26894 21.1547 5.43423 20.8002 5.61039 20.45C5.02318 19.7649 4.37942 18.9646 3.74219 18.0859C4.02024 19.293 4.48471 20.4494 5.11887 21.5135Z" fill="var(--fill-0, black)"></path>
<path id="Vector_25" d="M1.27281 16.8359C0.529013 18.4279 0.0244459 20.0895 0.00269738 21.6967C-0.0360231 23.0812 0.34289 24.4453 1.09013 25.6115C2.00549 26.2017 3.05022 26.5614 4.13493 26.6598C4.05431 25.8415 4.09905 25.0157 4.26759 24.2109C2.58356 22.0902 1.54409 19.5304 1.27281 16.8359Z" fill="var(--fill-0, black)"></path>
<path id="Vector_26" d="M25.6202 1.09681C24.4462 0.358267 23.0813 -0.0198063 21.6946 0.00938379C20.0874 0.0311324 18.4323 0.535699 16.8338 1.2795C16.3488 1.50351 15.879 1.74927 15.4049 2.0146C14.4781 2.54321 13.582 3.12411 12.7212 3.75449C11.8512 4.39172 11.0487 5.042 10.3571 5.62269C8.65531 7.07904 7.06806 8.66411 5.60938 10.3639C6.53505 12.1565 7.64438 13.8482 8.91951 15.4117C10.4615 13.3369 13.5367 10.4356 15.4049 8.9263C16.9659 7.65092 18.6555 6.54156 20.4462 5.61617C20.7964 5.44 21.1509 5.27471 21.5098 5.12465C22.378 4.74718 23.2843 4.46427 24.2131 4.2808C25.021 4.12523 25.846 4.07842 26.6663 4.14161C27.7475 4.25642 28.7885 4.61483 29.7111 5.18989C28.5672 3.50438 26.4336 1.6166 25.6202 1.09681Z" fill="var(--fill-0, black)"></path>
<path id="Vector_27" d="M0.655155 21.7098C0.669943 20.8774 0.803223 20.0514 1.05098 19.2566C1.1692 18.8777 1.30713 18.5053 1.4642 18.1409C1.37938 17.7059 1.31631 17.2709 1.27281 16.8359C0.529013 18.4323 0.0244459 20.0939 0.00269738 21.7011C-0.0360231 23.0856 0.34289 24.4497 1.09013 25.6158C1.47089 25.8627 1.87611 26.0697 2.29935 26.2335C2.03401 25.8616 1.78173 25.4679 1.56424 25.1461C0.996607 24.2979 0.639931 22.9886 0.655155 21.7098Z" fill="var(--fill-0, black)"></path>
<path id="Vector_28" d="M25.8967 27.3612C26.0511 27.3612 26.3143 27.3612 26.5687 27.3394C26.6383 26.974 26.6622 26.7218 26.6666 26.6696C26.3774 26.6966 26.087 26.7082 25.7966 26.7044C25.2665 26.6953 24.7382 26.64 24.2177 26.5391C23.985 26.7239 23.7436 26.9001 23.5 27.0719C23.8175 27.1371 24.3112 27.2198 24.3895 27.2328C24.8873 27.3186 25.3916 27.3615 25.8967 27.3612Z" fill="var(--fill-0, black)"></path>
<path id="Vector_29" d="M30.8064 9.11665C30.8451 7.73216 30.4662 6.36807 29.719 5.20191C29.3058 4.94695 28.8687 4.7328 28.4141 4.5625C28.4141 4.5625 28.9056 5.16494 29.247 5.68255C29.8995 6.66124 30.1692 7.84218 30.1518 9.11883C30.1202 9.94948 29.988 10.7732 29.7581 11.5721C29.6502 11.9455 29.5112 12.3092 29.3427 12.6595C29.4268 13.0945 29.4921 13.5338 29.5385 13.9775C30.2801 12.3855 30.7847 10.7239 30.8064 9.11665Z" fill="var(--fill-0, black)"></path>
<path id="Vector_30" d="M6.99636 4.79222C9.02076 3.18232 11.4652 2.1881 14.0385 1.92794L14.2952 1.90401C14.5953 1.87356 15.2913 1.78657 15.8785 1.74742C16.1895 1.58213 16.5048 1.42337 16.8245 1.27548C13.1494 0.902807 9.47391 1.97969 6.58096 4.27678C5.72573 4.95887 4.9515 5.73675 4.27344 6.59518C4.32346 6.86921 4.38871 7.14107 4.46265 7.4151C4.65404 7.16934 4.82585 6.95403 4.97592 6.76264C5.57963 6.0379 6.25672 5.37758 6.99636 4.79222Z" fill="var(--fill-0, black)"></path>
<path id="Vector_31" d="M29.0831 15.9905V15.914L29.0547 15.8594L29.0831 15.9905Z" fill="var(--fill-0, black)"></path>
<path id="Vector_32" d="M29.6046 15.4122C29.6046 14.9294 29.5807 14.4509 29.535 13.9811C29.3404 12.0911 28.7695 10.2592 27.8559 8.59333C26.9422 6.92744 25.7044 5.46128 24.2153 4.28125C23.9456 4.33127 23.6759 4.39434 23.4063 4.46611C23.6433 4.6488 23.8717 4.84671 24.0435 4.98373C24.7705 5.5871 25.433 6.2642 26.0204 7.00417C27.6404 9.02246 28.6352 11.4702 28.8825 14.0464C28.9021 14.2638 29.0283 15.3513 29.0739 15.9189C29.2349 16.2212 29.3893 16.53 29.535 16.8411C29.5785 16.3713 29.6046 15.8863 29.6046 15.4122Z" fill="var(--fill-0, black)"></path>
<path id="Vector_33" d="M21.8504 26.2534C23.2815 25.3991 24.531 24.2722 25.5281 22.9367C25.6999 22.7062 25.8586 22.4756 25.9957 22.2842C25.9021 22.0233 25.8021 21.7644 25.6912 21.5078C24.8631 22.8994 23.7617 24.1088 22.4534 25.063C21.1452 26.0173 19.6572 26.6967 18.0792 27.0602C17.6051 27.4039 17.1092 27.7431 16.5938 28.0715L18.3576 27.667C19.5865 27.3748 20.7641 26.8982 21.8504 26.2534Z" fill="var(--fill-0, black)"></path>
<path id="Vector_34" d="M4.55602 21.8512C5.41028 23.2823 6.53713 24.5318 7.87268 25.5289C8.10538 25.7094 8.3294 25.8551 8.52513 25.9921C8.77959 25.8986 9.03405 25.8007 9.28633 25.692C7.89478 24.8639 6.68538 23.7625 5.7311 22.4542C4.77682 21.146 4.09744 19.658 3.73392 18.08C3.39899 17.6167 3.06407 17.1296 2.74219 16.625C2.81613 17.036 2.95967 17.6341 3.12714 18.3649C3.42476 19.5924 3.90651 20.7679 4.55602 21.8512Z" fill="var(--fill-0, black)"></path>
<path id="Vector_35" d="M3.48146 4.08853C3.40381 4.96654 3.45141 5.85114 3.62283 6.71576C3.816 7.68686 4.112 8.63463 4.50582 9.54307C4.66241 9.90844 4.83422 10.2803 5.01691 10.6435C5.9642 12.4839 7.10443 14.2183 8.41839 15.8175C9.78855 17.527 12.4527 20.2325 14.3557 21.868L14.8777 22.303C15.0561 22.1659 15.2279 22.0289 15.3975 21.8941C13.0581 19.9197 10.8906 17.7501 8.9186 15.4087C7.64347 13.8452 6.53415 12.1535 5.60847 10.3608C5.43883 10.0107 5.26702 9.65616 5.11695 9.29731C4.73949 8.42908 4.45658 7.52275 4.27311 6.59396C4.11171 5.78608 4.06486 4.9595 4.13392 4.13855C4.23425 3.05328 4.59619 2.00851 5.18872 1.09375C4.75309 1.393 4.34283 1.72761 3.96211 2.09418C3.79126 2.49795 3.66933 2.9207 3.5989 3.35343C3.54727 3.5963 3.50807 3.84165 3.48146 4.08853Z" fill="var(--fill-0, black)"></path>
<path id="Vector_36" d="M10.779 6.11638C11.4315 5.56397 12.2318 4.91151 13.1039 4.27863C13.9448 3.66556 14.8198 3.10064 15.7246 2.58659C16.1857 2.32561 16.6533 2.08637 17.11 1.87106C18.7868 1.09681 20.3332 0.683589 21.7033 0.661841C22.9612 0.635203 24.1995 0.976897 25.2657 1.64488C26.0789 2.22643 26.8368 2.88165 27.5298 3.60225C27.8419 3.89895 28.1367 4.21338 28.4128 4.54396C28.8685 4.71725 29.3056 4.93583 29.7177 5.19642C28.5672 3.50438 26.4336 1.6166 25.6202 1.09681C24.4462 0.358267 23.0813 -0.0198063 21.6946 0.00938379C20.0874 0.0311324 18.4323 0.535699 16.8338 1.2795C16.3488 1.50351 15.8791 1.74927 15.4049 2.0146C14.4781 2.54321 13.582 3.12411 12.7212 3.75449C11.8512 4.39172 11.0487 5.042 10.3571 5.62269C8.65531 7.07904 7.06806 8.66411 5.60938 10.3639C5.71159 10.5683 5.81599 10.7684 5.92473 10.9685C6.08784 10.7923 6.24661 10.6162 6.39015 10.4509C7.75112 8.9063 9.21759 7.45799 10.779 6.11638Z" fill="var(--fill-0, black)"></path>
<path id="Vector_37" d="M4.07765 27.3258H4.0994C4.97188 27.381 5.84783 27.3336 6.70923 27.1844C7.68033 26.9912 8.62811 26.6952 9.53655 26.3014C9.90192 26.1448 10.2716 25.973 10.637 25.7925C12.4761 24.8457 14.2104 23.7077 15.811 22.3975C17.9532 20.6576 20.6261 18.0478 21.8658 16.4645C22.0108 16.2702 22.1456 16.0875 22.2703 15.9165C22.1377 15.7446 22.005 15.5772 21.8745 15.4141C20.289 17.4389 17.7553 19.9813 15.4 21.8886C13.8369 23.1668 12.1452 24.279 10.3521 25.2074C10.002 25.3836 9.64746 25.5489 9.28861 25.699C8.4207 26.0752 7.51521 26.3581 6.58744 26.5428C5.7788 26.6796 4.95715 26.7234 4.13855 26.6733C3.05384 26.5749 2.00911 26.2153 1.09375 25.625C1.41104 26.0896 1.76757 26.5262 2.15943 26.9299C2.54584 27.0512 2.93955 27.1478 3.3382 27.2192C3.61876 27.2605 3.8232 27.2997 4.07765 27.3258Z" fill="var(--fill-0, black)"></path>
<path id="Vector_38" d="M9.10698 0.655155C9.93878 0.67644 10.7639 0.809576 11.5602 1.05098C11.9709 1.15592 12.3742 1.28815 12.7673 1.4468C13.1645 1.37141 13.5676 1.31341 13.9765 1.27281C12.3845 0.529013 10.7229 0.0244459 9.11568 0.00269738C7.73119 -0.0360231 6.3671 0.34289 5.20094 1.09013C4.96666 1.45186 4.76852 1.83576 4.60938 2.23628C4.89428 2.04924 5.26183 1.82305 5.67505 1.56424C6.70877 0.939756 7.89967 0.624294 9.10698 0.655155Z" fill="var(--fill-0, black)"></path>
<path id="Vector_39" d="M29.5376 16.8416C29.3201 16.3566 29.0635 15.8782 28.8003 15.4127C28.2717 14.4859 27.6908 13.5898 27.0604 12.729C26.4232 11.859 25.7794 11.05 25.1922 10.3649C23.7086 8.68709 22.1238 7.10157 20.4467 5.61719C20.2292 5.72158 20.0269 5.83467 19.8203 5.94342C19.9791 6.07826 20.1552 6.2305 20.351 6.40231C21.8799 7.78474 23.332 9.24989 24.7007 10.7912C25.3531 11.5589 25.9752 12.3397 26.5341 13.1117C27.1466 13.9535 27.7122 14.8284 28.2283 15.7324C28.4871 16.1935 28.7264 16.6589 28.9417 17.1178C29.7224 18.7946 30.1291 20.3388 30.1487 21.7111C30.1661 23.127 29.829 24.3797 29.1918 25.2366C28.5864 26.018 27.925 26.7543 27.2127 27.4397C26.9712 27.6702 26.6689 27.9334 26.3427 28.1987C26.1744 28.7386 25.929 29.2514 25.6141 29.7211C26.856 28.7707 28.7633 26.8938 29.7137 25.6193C30.4858 24.5798 30.8186 23.1639 30.8012 21.7046C30.7838 20.0952 30.2792 18.4336 29.5376 16.8416Z" fill="var(--fill-0, black)"></path>
<path id="Vector_40" d="M21.5105 25.6946C21.1516 25.5446 20.7971 25.3793 20.447 25.2031C20.2643 25.3597 20.0729 25.5207 19.875 25.6838C20.1737 25.8288 20.4724 25.9672 20.771 26.0992C21.0233 25.973 21.2691 25.8382 21.5105 25.6946Z" fill="var(--fill-0, black)"></path>
<path id="Vector_41" d="M25.9946 26.7065H25.7923C25.5596 26.7065 25.3247 26.6891 25.0898 26.6652C24.7984 26.6369 24.507 26.5956 24.2199 26.5391C23.985 26.7261 23.7458 26.9023 23.5 27.0741L24.0959 27.185L24.3917 27.2372H24.4243C24.5331 27.2546 24.6418 27.272 24.7505 27.285L25.0681 27.3198H25.1246C25.2247 27.3198 25.3269 27.3372 25.4247 27.3416H25.4813C25.5835 27.3416 25.6857 27.3416 25.7879 27.3416H25.9054C26.1229 27.3416 26.3404 27.3416 26.5578 27.3177C26.5578 27.2872 26.5578 27.2589 26.5731 27.2307C26.5883 27.2024 26.5948 27.1198 26.6035 27.0654C26.6253 26.9284 26.6427 26.7892 26.6557 26.65C26.4426 26.6913 26.2207 26.7044 25.9946 26.7065Z" fill="var(--fill-0, black)"></path>
<path id="Vector_42" d="M138.527 21.9733H138.277V22.4083H137.82V20.7815H138.56C138.69 20.7786 138.82 20.803 138.94 20.8533C139.043 20.8962 139.131 20.9696 139.191 21.0636C139.252 21.1577 139.282 21.2679 139.277 21.3796C139.281 21.4877 139.252 21.5944 139.195 21.6862C139.138 21.7748 139.057 21.8456 138.962 21.8907L139.31 22.3996H138.821L138.527 21.9733ZM138.745 21.2078C138.682 21.1617 138.605 21.14 138.527 21.1469H138.273V21.6188H138.542C138.62 21.6256 138.697 21.604 138.76 21.5579C138.784 21.5361 138.803 21.5092 138.816 21.4791C138.828 21.449 138.833 21.4164 138.832 21.3839C138.833 21.3491 138.825 21.3145 138.81 21.283C138.795 21.2516 138.773 21.2243 138.745 21.2034V21.2078Z" fill="var(--fill-0, black)"></path>
<path id="Vector_43" d="M138.496 23.2182C138.163 23.2182 137.837 23.1195 137.561 22.9345C137.284 22.7496 137.068 22.4867 136.941 22.1791C136.813 21.8715 136.78 21.533 136.845 21.2065C136.91 20.88 137.07 20.58 137.306 20.3446C137.541 20.1092 137.841 19.9489 138.167 19.8839C138.494 19.819 138.832 19.8523 139.14 19.9797C139.448 20.1071 139.711 20.3229 139.895 20.5997C140.08 20.8765 140.179 21.202 140.179 21.5349C140.179 21.9814 140.002 22.4095 139.686 22.7252C139.37 23.0409 138.942 23.2182 138.496 23.2182ZM138.496 20.0908C138.21 20.0908 137.93 20.1757 137.692 20.3347C137.454 20.4937 137.269 20.7197 137.159 20.9841C137.05 21.2485 137.022 21.5394 137.078 21.82C137.133 22.1006 137.271 22.3583 137.474 22.5605C137.676 22.7627 137.934 22.9003 138.215 22.9558C138.496 23.0114 138.787 22.9824 139.051 22.8726C139.315 22.7628 139.541 22.5771 139.699 22.339C139.858 22.1009 139.943 21.821 139.942 21.5349C139.941 21.1519 139.788 20.7849 139.517 20.5143C139.246 20.2436 138.879 20.0914 138.496 20.0908Z" fill="var(--fill-0, black)"></path>
</g>
</svg>