<svg preserveAspectRatio="none" width="100%" height="100%" overflow="visible" style="display: block;" viewBox="0 0 171.936 34.7164" fill="none" xmlns="http://www.w3.org/2000/svg">
<g id="Layer_5">
<path id="Vector" d="M1.113 26.6116H9.70134V27.6416H1.113V33.4225H10.3658V34.5189H0V19.8672H10.1166V20.9303H1.113V26.6116Z" fill="var(--fill-0, black)"></path>
<path id="Vector_2" d="M54.653 29.4366V34.5033H53.5234V19.8516C55.6664 19.8516 57.8093 19.8516 59.9522 19.8516C66.3146 19.8516 66.3146 29.4366 59.9522 29.4366H54.653ZM54.653 20.8981V28.4067H59.9522C64.8361 28.4067 64.8361 20.8981 59.9522 20.8981H54.653Z" fill="var(--fill-0, black)"></path>
<path id="Vector_3" d="M91.4154 34.5033L89.8041 30.8985H81.0496L79.4549 34.5033H78.2422L84.8205 19.8516H86.0498L92.6281 34.5033H91.4154ZM89.3555 29.8519L85.4185 20.9313L81.4815 29.8519H89.3555Z" fill="var(--fill-0, black)"></path>
<path id="Vector_4" d="M108.724 19.8516L118.575 31.9782V19.8516H119.688V34.5033H119.256L109.372 22.4098V34.5033H108.242V19.8516H108.724Z" fill="var(--fill-0, black)"></path>
<path id="Vector_5" d="M145.167 22.6728C144.103 20.9618 142.376 20.7126 140.731 20.6794C139.02 20.6794 136.296 21.3106 136.296 23.6529C136.296 25.5134 138.306 25.9619 140.781 26.4105C143.605 26.9587 146.545 27.457 146.545 30.6133C146.529 33.919 143.19 34.7164 140.748 34.7164C138.472 34.7164 135.864 33.7695 134.734 31.5269L135.748 31.0286C136.645 32.806 138.954 33.6865 140.748 33.6865C142.542 33.6865 145.416 33.1881 145.416 30.5967C145.432 28.4039 143.007 27.9221 140.598 27.457C137.924 26.9254 135.183 26.3938 135.183 23.6861C135.116 20.5963 138.339 19.6328 140.748 19.6328C142.841 19.6328 144.668 19.9651 146.097 22.1246L145.167 22.6728Z" fill="var(--fill-0, black)"></path>
<path id="Vector_6" d="M162.683 26.6116H171.272V27.6416H162.683V33.4225H171.936V34.5189H161.57V19.8672H171.687V20.9303H162.683V26.6116Z" fill="var(--fill-0, black)"></path>
<g id="Group">
<path id="Vector_7" d="M52.7637 3.22353L49.2253 7.9413H48.8267L45.3714 3.20692V11.1142H43.3281V0.25H45.687L49.0758 4.91794L52.4813 0.25H54.8236V11.1142H52.7803V3.22353H52.7637Z" fill="var(--fill-0, black)"></path>
<path id="Vector_8" d="M65.507 11.0907H57.3672C57.3672 7.46935 57.3672 3.84795 57.3672 0.226562H65.507V2.21999H59.4104V4.71177H65.2911V6.62214H59.4104V9.06409H65.507V11.0907Z" fill="var(--fill-0, black)"></path>
<path id="Vector_9" d="M77.7638 5.55898C77.8137 8.29994 76.1359 11.0907 72.3318 11.0907C71.0028 11.0907 69.3915 11.0907 68.0625 11.0907V0.226562C69.3915 0.226562 71.0028 0.226562 72.3318 0.226562C76.0528 0.226562 77.714 2.86785 77.7638 5.55898ZM70.1058 9.11392H72.3484C74.8235 9.11392 75.787 7.31984 75.7538 5.54237C75.704 3.84795 74.7073 2.15354 72.3484 2.15354H70.1058V9.11392Z" fill="var(--fill-0, black)"></path>
<path id="Vector_10" d="M80.2188 11.0907V0.226562H82.2454V11.0907H80.2188Z" fill="var(--fill-0, black)"></path>
<path id="Vector_11" d="M88.259 2.08709H84.8203V0.226562C87.96 0.226562 90.6012 0.226562 93.7575 0.226562V2.08709H90.3188V11.0907H88.2756V2.08709H88.259Z" fill="var(--fill-0, black)"></path>
<path id="Vector_12" d="M104.39 11.0907H96.25C96.25 7.46935 96.25 3.84795 96.25 0.226562H104.39V2.21999H98.2933V4.71177H104.174V6.62214H98.2933V9.06409H104.39V11.0907Z" fill="var(--fill-0, black)"></path>
<path id="Vector_13" d="M116.634 9.71796C115.521 10.8143 114.076 11.3293 112.514 11.3293C108.478 11.3293 106.767 8.55512 106.75 5.7311C106.733 2.89047 108.577 0 112.514 0C113.993 0 115.388 0.564804 116.501 1.66119L115.139 2.97353C114.425 2.27583 113.461 1.94359 112.514 1.94359C109.89 1.94359 108.76 3.90379 108.777 5.71449C108.793 7.50857 109.823 9.38572 112.514 9.38572C113.461 9.38572 114.541 9.00364 115.239 8.28933L116.634 9.71796Z" fill="var(--fill-0, black)"></path>
<path id="Vector_14" d="M126.587 11.1142V6.71202H121.254V11.0976H119.211V0.25H121.254V4.83488H126.587V0.25H128.613V11.1142H126.587Z" fill="var(--fill-0, black)"></path>
</g>
<path id="Vector_15" d="M25.1209 19.8672H23.875L28.925 25.8309L29.5397 25.0999L25.1209 19.8672Z" fill="var(--fill-0, black)"></path>
<path id="Vector_16" d="M31.8438 29.27L36.2293 34.5027H37.4752L32.4584 28.5391L31.8438 29.27Z" fill="var(--fill-0, black)"></path>
<path id="Vector_17" d="M23.875 34.5017H25.1209L29.523 29.2856L28.9084 28.5547L23.875 34.5017Z" fill="var(--fill-0, black)"></path>
<path id="Vector_18" d="M37.4752 19.8672H36.2293L31.8438 25.0833L32.475 25.8309L37.4752 19.8672Z" fill="var(--fill-0, black)"></path>
</g>
</svg>