<svg preserveAspectRatio="none" width="100%" height="100%" overflow="visible" style="display: block;" viewBox="0 0 73.8092 21.5942" fill="none" xmlns="http://www.w3.org/2000/svg">
<g id="Group">
<path id="Vector" d="M10.1959 2.7627V18.7251C10.1828 18.9296 10.2229 19.1341 10.3123 19.3184C10.4017 19.5027 10.5374 19.6606 10.706 19.7765C10.804 19.8299 10.8867 19.9076 10.9463 20.0022C11.0058 20.0968 11.0401 20.2051 11.0461 20.3167V20.9183C11.0461 21.1245 10.9288 21.2284 10.706 21.2284H6.52361C6.32636 21.2284 6.22774 21.133 6.22774 20.9456V20.3116C6.23608 20.2006 6.27144 20.0933 6.33075 19.9991C6.39006 19.905 6.47143 19.8268 6.5678 19.7714C6.73851 19.6566 6.87663 19.4993 6.96869 19.3151C7.06076 19.1308 7.10368 18.9258 7.09313 18.72V11.0004H3.9818V18.7251C3.96963 18.9295 4.01017 19.1336 4.09954 19.3177C4.18887 19.5019 4.32395 19.6599 4.49192 19.7765C4.59189 19.8285 4.67674 19.9056 4.73813 20.0003C4.79948 20.0949 4.83533 20.204 4.8421 20.3167V20.9183C4.8421 21.1245 4.72484 21.2284 4.49192 21.2284H0.297529C0.0985823 21.2284 0 21.133 0 20.9456V20.3116C0.00938468 20.1996 0.0463152 20.0917 0.107402 19.9974C0.168533 19.9032 0.251953 19.8255 0.350275 19.7714C0.517113 19.6538 0.651366 19.4955 0.740608 19.3116C0.829806 19.1278 0.870994 18.9242 0.860306 18.72V2.7627C0.871907 2.56025 0.831023 2.35832 0.741651 2.17646C0.652236 1.99456 0.517418 1.83901 0.350275 1.72491C0.248998 1.67135 0.163407 1.59226 0.102015 1.49541C0.0405368 1.39856 0.00543095 1.28738 0 1.17276V0.579726C0 0.371827 0.117352 0.269531 0.350275 0.269531H4.54797C4.74352 0.269531 4.84384 0.363334 4.84384 0.55242V1.17276C4.83628 1.28686 4.80031 1.39717 4.73909 1.49367C4.67792 1.59013 4.59345 1.66965 4.49357 1.72491C4.32769 1.84027 4.19382 1.99613 4.10467 2.17764C4.01543 2.35923 3.97372 2.56051 3.98354 2.7627V9.11219H7.08978V2.7627C7.10095 2.55907 7.05863 2.35601 6.96704 2.17389C6.87545 1.99177 6.73772 1.83696 6.5678 1.72491C6.46835 1.67017 6.38471 1.59052 6.32515 1.49376C6.26554 1.39699 6.23199 1.28642 6.22774 1.17276V0.579726C6.22774 0.371827 6.34335 0.269531 6.5678 0.269531H10.7519C10.9491 0.269531 11.0477 0.363334 11.0477 0.55242V1.17276C11.0413 1.28581 11.0069 1.39556 10.9475 1.49197C10.8881 1.58839 10.8057 1.66838 10.7077 1.72491C10.5416 1.8401 10.4074 1.99582 10.3178 2.17742C10.2283 2.35893 10.1864 2.56038 10.1959 2.7627Z" fill="var(--fill-0, #85889C)"></path>
<path id="Vector_2" d="M15.9322 18.7251C15.9201 18.9295 15.9606 19.1336 16.0499 19.3177C16.1393 19.5019 16.2743 19.6599 16.4423 19.7765C16.5423 19.8285 16.6271 19.9056 16.6885 20.0003C16.7499 20.0949 16.7857 20.204 16.7925 20.3167V20.9183C16.7925 21.1245 16.6752 21.2284 16.4423 21.2284H12.2411C12.0439 21.2284 11.9453 21.133 11.9453 20.9456V20.3116C11.9538 20.1993 11.9904 20.0911 12.0516 19.9967C12.1128 19.9023 12.1967 19.8248 12.2955 19.7714C12.4623 19.6536 12.5965 19.4954 12.6857 19.3116C12.7749 19.1277 12.8161 18.9242 12.8056 18.72V2.7627C12.817 2.56034 12.7761 2.3584 12.6867 2.17655C12.5974 1.99473 12.4626 1.83914 12.2955 1.72491C12.1941 1.67161 12.1083 1.59261 12.0469 1.49572C11.9854 1.39882 11.9504 1.28747 11.9453 1.17276V0.579726C11.9453 0.371827 12.0609 0.269531 12.2955 0.269531H16.4915C16.6888 0.269531 16.7874 0.363334 16.7874 0.55242V1.17276C16.7805 1.28638 16.7452 1.39638 16.6849 1.49284C16.6247 1.5893 16.5412 1.66904 16.4423 1.72491C16.2764 1.84027 16.1426 1.99613 16.0533 2.17764C15.9641 2.35923 15.9224 2.56051 15.9322 2.7627V18.7251Z" fill="var(--fill-0, #85889C)"></path>
<path id="Vector_3" d="M24.08 1.84213V18.735C24.0678 18.9394 24.1083 19.1435 24.1977 19.3277C24.287 19.5118 24.4221 19.6698 24.59 19.7865C24.6898 19.8385 24.7744 19.9157 24.8355 20.0104C24.8966 20.1051 24.9321 20.214 24.9386 20.3266V20.9282C24.9386 21.1344 24.8229 21.2383 24.59 21.2383H20.3939C20.1967 21.2383 20.0982 21.1429 20.0982 20.9554V20.3215C20.1075 20.2095 20.1445 20.1016 20.2056 20.0074C20.2667 19.9131 20.3501 19.8355 20.4484 19.7813C20.615 19.6634 20.7491 19.5052 20.8383 19.3213C20.9275 19.1375 20.9688 18.934 20.9585 18.7299V1.84213H20.3651C20.173 1.83028 19.9811 1.87039 19.8098 1.95823C19.6384 2.04602 19.4938 2.17841 19.3909 2.34145C19.1801 2.67429 18.9896 3.40707 18.8196 4.53976C18.8174 4.57399 18.8081 4.60743 18.7923 4.63787C18.7765 4.66836 18.7546 4.69518 18.7279 4.71665C18.7011 4.73816 18.6703 4.75384 18.6372 4.76268C18.6041 4.77152 18.5695 4.7734 18.5357 4.76813H18.0121C17.7077 4.76813 17.5547 4.63861 17.5547 4.37785V0.458431C17.5547 0.153376 17.6975 0 17.9848 0C18.3054 0.0156338 18.6245 0.0520402 18.9404 0.109045C19.4915 0.205591 20.0489 0.262508 20.6082 0.279492H25.3687C25.6101 0.244261 25.906 0.194834 26.2562 0.131254C26.7934 0.0494268 27.0893 0.0084922 27.1437 0.0084922C27.3851 0.0084922 27.5058 0.122109 27.5058 0.349343V4.37785C27.5058 4.63861 27.3902 4.76813 27.1573 4.76813H26.6472C26.4415 4.76813 26.3174 4.71021 26.2783 4.59768C26.1984 4.30765 26.1337 4.01352 26.0844 3.71666C25.9229 2.94302 25.7563 2.43856 25.5863 2.20005C25.4163 1.96141 25.1154 1.84213 24.6852 1.84213H24.08Z" fill="var(--fill-0, #85889C)"></path>
<path id="Vector_4" d="M32.2497 11.4179V18.7251C32.2375 18.9295 32.2781 19.1336 32.3674 19.3177C32.4567 19.5019 32.5918 19.6599 32.7597 19.7765C32.8597 19.8285 32.9445 19.9056 33.006 20.0003C33.0674 20.0949 33.1032 20.204 33.1099 20.3167V20.9183C33.1099 21.1245 32.9926 21.2284 32.7597 21.2284H28.5654C28.3682 21.2284 28.2695 21.133 28.2695 20.9456V20.3116C28.2779 20.2006 28.3132 20.0933 28.3725 19.9991C28.4318 19.905 28.5132 19.8268 28.6096 19.7714C28.7764 19.6538 28.9107 19.4955 28.9999 19.3116C29.0891 19.1278 29.1303 18.9242 29.1196 18.72V2.7627C29.1312 2.56025 29.0904 2.35832 29.001 2.17646C28.9116 1.99456 28.7767 1.83901 28.6096 1.72491C28.5101 1.67017 28.4265 1.59052 28.3669 1.49376C28.3073 1.39699 28.2737 1.28642 28.2695 1.17276V0.579726C28.2695 0.371827 28.3851 0.269531 28.6096 0.269531H32.1425C34.1331 0.269531 35.6481 0.718905 36.6887 1.61752C37.7292 2.51618 38.2498 3.8147 38.2498 5.51307C38.2498 8.21924 36.9989 9.96765 34.4972 10.7584C35.1333 11.0444 35.7033 11.4599 36.1703 11.9785C36.5527 12.4318 36.8503 13.0998 37.0528 13.9791L38.0421 18.253C38.1116 18.64 38.2363 19.0148 38.4131 19.3659C38.5678 19.5917 38.7729 19.7788 39.011 19.9129C39.0518 19.9412 39.0844 19.9797 39.1052 20.0246C39.1265 20.0694 39.1356 20.119 39.1317 20.1684V20.937C39.1378 20.9772 39.1348 21.0182 39.1217 21.0568C39.1091 21.0954 39.0879 21.1305 39.0587 21.1593C39.0305 21.188 38.9957 21.2098 38.9575 21.2227C38.9188 21.2355 38.878 21.2393 38.838 21.2335H36.1482C35.8879 21.2335 35.7233 21.0887 35.6516 20.799L33.8104 13.3861C33.6132 12.5698 33.3956 12.0381 33.1576 11.7961C33.0393 11.6753 32.8979 11.5796 32.742 11.5146C32.586 11.4496 32.4186 11.4167 32.2497 11.4179ZM32.2497 1.90041V9.81428C33.2187 9.81428 33.9315 9.50865 34.3886 8.8975C34.8452 8.28626 35.072 7.19847 35.0685 5.63409C35.0685 4.10721 34.8374 3.10295 34.3751 2.62122C33.9124 2.13957 33.2041 1.89928 32.2497 1.90041Z" fill="var(--fill-0, #85889C)"></path>
<path id="Vector_5" d="M49.2618 16.37C49.2618 17.9775 48.8543 19.2352 48.0379 20.1429C47.2215 21.0506 46.1549 21.5051 44.8363 21.5062C43.5194 21.5062 42.4393 21.0569 41.5959 20.1582C40.7526 19.2596 40.3307 18.0832 40.3307 16.629V2.76096C40.3425 2.55859 40.3016 2.35671 40.2121 2.17485C40.1226 1.99299 39.9879 1.83739 39.8207 1.72317C39.7212 1.66777 39.6373 1.58817 39.5765 1.49167C39.5157 1.39521 39.4796 1.28499 39.4727 1.17102V0.577983C39.4727 0.371826 39.5878 0.269531 39.8207 0.269531H44.0186C44.2158 0.269531 44.3145 0.363334 44.3145 0.55242V1.17102C44.3066 1.28512 44.271 1.39551 44.2102 1.49197C44.1485 1.58847 44.0642 1.66795 43.9643 1.72317C43.7974 1.83739 43.6623 1.99299 43.5732 2.17485C43.4837 2.35671 43.4429 2.55859 43.4542 2.76096V16.7722C43.4542 18.6422 44.0725 19.5766 45.309 19.5754C46.6693 19.5754 47.3462 18.4797 47.3406 16.2882V2.76096C47.3527 2.55859 47.3115 2.35658 47.2224 2.17472C47.1325 1.9929 46.9978 1.83731 46.8305 1.72317C46.731 1.66795 46.6467 1.58847 46.5855 1.49197C46.5238 1.39551 46.4881 1.28512 46.4803 1.17102V0.577983C46.4803 0.371826 46.5976 0.269531 46.8305 0.269531H49.8297C50.0269 0.269531 50.1273 0.363334 50.1273 0.55242V1.17102C50.1199 1.28512 50.0839 1.39551 50.0226 1.49197C49.9618 1.58847 49.8771 1.66795 49.7771 1.72317C49.6099 1.83739 49.4752 1.99299 49.3861 2.17485C49.2966 2.35671 49.2558 2.55859 49.267 2.76096L49.2618 16.37Z" fill="var(--fill-0, #85889C)"></path>
<path id="Vector_6" d="M52.3674 21.2499H51.6875C51.4633 21.2499 51.3477 21.129 51.3477 20.8853V15.8036C51.3477 15.4628 51.4698 15.2924 51.7113 15.2924H52.2896C52.3496 15.2844 52.4109 15.295 52.4647 15.3227C52.519 15.3504 52.5629 15.3939 52.592 15.4475C52.6937 15.7978 52.7637 16.1565 52.8014 16.5194C53.1686 18.8744 54.0067 20.052 55.3158 20.052C55.6381 20.0589 55.9566 19.9802 56.239 19.824C56.5219 19.6678 56.7578 19.4396 56.9242 19.1624C57.3287 18.5174 57.5316 17.7664 57.509 17.005C57.5146 16.1554 57.2987 15.319 56.8834 14.5784C56.4663 13.832 55.6616 12.8254 54.469 11.5587C53.7682 10.8454 53.1099 10.0908 52.4986 9.29908C52.0976 8.74402 51.7804 8.13321 51.5567 7.48587C51.3129 6.77321 51.1922 6.02396 51.1995 5.27053C51.1995 3.77771 51.5745 2.55074 52.3235 1.58967C53.0726 0.628524 53.9884 0.146839 55.0707 0.144531C55.6255 0.160165 56.1691 0.304221 56.6592 0.56551C56.8156 0.659617 56.9885 0.723764 57.1688 0.754596C57.2766 0.748978 57.38 0.710308 57.4647 0.643853C57.5881 0.576876 57.7271 0.543954 57.8679 0.548439H58.3658C58.626 0.548439 58.7568 0.669459 58.7568 0.911412V5.36765C58.7568 5.59488 58.6586 5.7085 58.4609 5.7085H57.8422C57.7827 5.71695 57.7223 5.70959 57.6667 5.68716C57.6111 5.66473 57.5629 5.62798 57.5259 5.58068C57.4099 5.263 57.3222 4.93565 57.2644 4.60251C56.8425 2.65303 56.1573 1.67825 55.2089 1.67825C54.9656 1.6739 54.7257 1.73099 54.5102 1.84417C54.2952 1.95735 54.1123 2.12297 53.9776 2.32581C53.6661 2.75964 53.5014 3.28235 53.5083 3.8169C53.5218 4.52373 53.7091 5.21632 54.054 5.83287C54.416 6.52132 55.1398 7.42225 56.2251 8.5356C57.6159 9.96476 58.5795 11.2213 59.1157 12.3051C59.6505 13.3994 59.9238 14.6038 59.9134 15.8224C59.9134 17.5265 59.4672 18.9153 58.5752 19.9889C57.6832 21.0625 56.6227 21.5976 55.3935 21.5942C54.7318 21.5687 54.0797 21.4208 53.471 21.158C53.3146 21.0806 53.146 21.0305 52.9731 21.0097C52.8458 21.0232 52.725 21.0703 52.6224 21.146C52.5477 21.2019 52.46 21.2377 52.3674 21.2499Z" fill="var(--fill-0, #85889C)"></path>
<path id="Vector_7" d="M67.0827 1.84213V18.735C67.0701 18.9394 67.1109 19.1435 67.2 19.3277C67.2895 19.5118 67.4242 19.6698 67.5923 19.7865C67.6905 19.8396 67.7735 19.9173 67.833 20.0118C67.8926 20.1065 67.9269 20.2149 67.9321 20.3266V20.9282C67.9321 21.1344 67.817 21.2383 67.5923 21.2383H63.3966C63.1989 21.2383 63.1003 21.1429 63.1003 20.9554V20.3215C63.1098 20.2095 63.1468 20.1016 63.208 20.0074C63.2689 19.9131 63.3523 19.8355 63.4505 19.7813C63.6173 19.6635 63.7516 19.5053 63.8406 19.3215C63.9301 19.1376 63.971 18.9341 63.9605 18.7299V1.84213H63.3692C63.1772 1.83028 62.9851 1.87039 62.8135 1.95823C62.6428 2.04602 62.4977 2.17841 62.3947 2.34145C62.184 2.67429 61.9937 3.40707 61.8234 4.53976C61.8216 4.57386 61.8121 4.60708 61.7969 4.63744C61.7808 4.66779 61.7591 4.69453 61.7326 4.71596C61.706 4.73742 61.6756 4.75315 61.6422 4.76212C61.6096 4.77109 61.5753 4.77313 61.5414 4.76813H61.0161C60.7115 4.76813 60.5586 4.63861 60.5586 4.37785V0.458431C60.5586 0.153376 60.7015 0 60.9887 0C61.3094 0.0156338 61.6283 0.0520402 61.9441 0.109045C62.4955 0.205591 63.0529 0.262508 63.6121 0.279492H68.3726C68.6142 0.244261 68.9101 0.194834 69.2603 0.131254C69.7977 0.0494268 70.0932 0.0084922 70.1479 0.0084922C70.3891 0.0084922 70.5098 0.122109 70.5098 0.349343V4.37785C70.5098 4.63861 70.3943 4.76813 70.1614 4.76813H69.6513C69.4458 4.76813 69.3215 4.71021 69.2824 4.59768C69.2008 4.30787 69.1356 4.01374 69.0869 3.71666C68.9253 2.94302 68.7585 2.43856 68.589 2.20005C68.4187 1.96141 68.1176 1.84213 67.6875 1.84213H67.0827Z" fill="var(--fill-0, #85889C)"></path>
<path id="Vector_8" d="M73.8089 1.17474C73.8141 1.39148 73.7546 1.60482 73.6381 1.7875C73.5217 1.97019 73.3536 2.1139 73.155 2.20038C72.9564 2.28687 72.737 2.31217 72.5241 2.27302C72.3112 2.23387 72.1153 2.13205 71.9606 1.98059C71.8059 1.82913 71.6999 1.63487 71.6556 1.42266C71.6117 1.2104 71.6313 0.989831 71.7134 0.789074C71.7946 0.588274 71.9341 0.41639 72.1136 0.295414C72.2926 0.174394 72.5041 0.109724 72.7209 0.10968C72.8622 0.106283 73.0029 0.131281 73.1354 0.183277C73.2671 0.235317 73.387 0.313224 73.4887 0.412471C73.5903 0.511717 73.6707 0.630255 73.7255 0.761161C73.7802 0.892066 73.8089 1.03273 73.8089 1.17474ZM71.9028 1.17474C71.8989 1.28583 71.9176 1.39657 71.9571 1.50021C71.9975 1.60395 72.0579 1.69845 72.1353 1.77801C72.2126 1.85766 72.3052 1.92076 72.4077 1.96348C72.5098 2.00624 72.6201 2.02776 72.7309 2.0268C72.8404 2.02649 72.949 2.00389 73.0494 1.96039C73.1502 1.91688 73.2406 1.85343 73.3166 1.77378C73.3918 1.69413 73.45 1.60003 73.4887 1.49704C73.5269 1.39413 73.5438 1.28443 73.5382 1.17474C73.5382 0.957345 73.4522 0.748881 73.2988 0.595156C73.1454 0.441431 72.9373 0.355075 72.7209 0.355075C72.5037 0.355075 72.2956 0.441431 72.1422 0.595156C71.9889 0.748881 71.9028 0.957345 71.9028 1.17474ZM72.5506 1.72858H72.3056V0.663525C72.4398 0.640227 72.5758 0.629341 72.7123 0.631126C72.84 0.620501 72.9686 0.647805 73.0811 0.709513C73.1146 0.738255 73.1411 0.774138 73.1589 0.814551C73.1767 0.855007 73.1845 0.898903 73.1832 0.942974C73.178 1.00229 73.1541 1.05833 73.1146 1.10262C73.0751 1.14695 73.022 1.17709 72.9638 1.18837V1.202C73.0168 1.22312 73.0629 1.25844 73.0968 1.3042C73.1315 1.34989 73.1519 1.40415 73.1572 1.46102C73.168 1.55304 73.1941 1.6424 73.2358 1.72518H72.9756C72.9343 1.64366 72.9069 1.55631 72.8921 1.46616C72.8717 1.35024 72.8074 1.29571 72.6727 1.29571H72.5506V1.72858ZM72.5506 1.12701H72.6662C72.8022 1.12701 72.913 1.08102 72.913 0.971977C72.913 0.862933 72.8417 0.801573 72.6866 0.801573C72.641 0.801094 72.5958 0.805056 72.5506 0.813461V1.12701Z" fill="var(--fill-0, #85889C)"></path>
</g>
</svg>