<svg preserveAspectRatio="none" width="100%" height="100%" overflow="visible" style="display: block;" viewBox="0 0 68.5012 89.374" fill="none" xmlns="http://www.w3.org/2000/svg">
<g id="Group">
<path id="Vector" d="M37.5464 87.7357C30.7535 87.7357 24.653 85.988 19.278 82.4926C13.892 78.9972 9.61608 74.051 6.42844 67.6538C3.24081 61.2566 1.64701 53.8591 1.64701 45.4394C1.64701 37.0198 3.27375 29.2046 6.53833 22.6535C9.79192 16.0915 14.2547 10.9583 19.9155 7.24311C25.5763 3.5279 31.8855 1.67029 38.8214 1.67029C47.1752 1.67029 53.9352 4.3193 59.1124 9.61733C64.2786 14.9153 66.8616 23.5329 66.8616 35.4369C66.8616 39.0422 65.0919 40.8449 61.5526 40.8449H21.1905C18.3546 40.8449 16.9367 42.0979 16.9367 44.615C16.9367 56.2004 19.1351 64.8948 23.5208 70.6875C27.9066 76.4801 33.5014 79.382 40.3054 79.382C45.6804 79.382 50.0771 77.9091 53.4736 74.9523C56.8701 72.0065 59.6399 67.0272 61.7613 60.0365C62.19 58.8384 63.1024 58.2338 64.5203 58.2338C66.224 58.2338 66.8616 59.333 66.4329 61.5094C64.1686 71.2371 60.5523 78.041 55.5949 81.921C50.6376 85.8011 44.6142 87.7357 37.5354 87.7357H37.5464ZM20.5529 36.745H42.009C48.802 36.745 52.2095 34.008 52.2095 28.5451C52.2095 21.4444 51.0774 15.8716 48.8131 11.8267C46.5487 7.7817 43.1522 5.75922 38.6126 5.75922C33.0947 5.75922 28.4451 8.22137 24.6969 13.1347C20.9377 18.059 18.4976 25.0497 17.3654 34.1179C17.0796 35.8656 18.1457 36.745 20.5529 36.745Z" fill="var(--fill-0, black)"></path>
<path id="Vector_2" d="M37.5592 89.3739C30.4694 89.3739 24.0172 87.5163 18.3893 83.867C12.7835 80.2288 8.26588 75.0187 4.95733 68.3797C1.67077 61.7846 0 54.0684 0 45.4289C0 36.7894 1.70371 28.6555 5.05622 21.9066C8.43072 15.1137 13.1243 9.71671 19.0049 5.84761C24.9186 1.96752 31.5796 0 38.8123 0C47.5838 0 54.8053 2.84686 60.2792 8.45265C65.7312 14.0475 68.5011 23.1266 68.5011 35.4264C68.5011 39.911 65.962 42.4831 61.5433 42.4831H21.1813C18.7851 42.4831 18.5762 43.4834 18.5762 44.6045C18.5762 55.7721 20.6756 64.2028 24.8305 69.6767C28.9305 75.0846 33.9868 77.7117 40.2961 77.7117C45.2425 77.7117 49.3094 76.3597 52.3872 73.6887C55.5308 70.9627 58.1578 66.1923 60.1693 59.5313C60.8508 57.5858 62.3896 56.5525 64.5111 56.5525C66.0609 56.5525 66.9404 57.2121 67.3911 57.7726C68.1715 58.7179 68.3803 60.0369 68.0395 61.8066C65.6873 71.93 61.8401 79.1076 56.608 83.2075C51.3759 87.2965 44.9567 89.3739 37.5372 89.3739H37.5592ZM38.8341 3.29752C32.25 3.29752 26.1935 5.07819 20.8295 8.60654C15.4325 12.1459 11.1238 17.1142 8.0241 23.3685C4.89142 29.6667 3.30856 37.0862 3.30856 45.4289C3.30856 53.7716 4.85834 60.7734 7.91407 66.9068C10.9478 73.0072 15.0808 77.7776 20.192 81.0971C25.2702 84.4056 31.118 86.0764 37.5592 86.0764C44.0004 86.0764 49.958 84.2408 54.5965 80.6025C59.2241 76.9862 62.6755 70.4241 64.8409 61.1141C64.9948 60.3117 64.9069 59.96 64.8739 59.883C64.8519 59.894 64.7419 59.8611 64.5331 59.8611C63.6427 59.8611 63.4669 60.1798 63.324 60.5645C61.1476 67.7531 58.1908 73.0292 54.5635 76.1838C50.8703 79.3934 46.0779 81.0202 40.3071 81.0202C32.9976 81.0202 26.908 77.8765 22.2145 71.6772C17.6199 65.6207 15.2897 56.5196 15.2897 44.6155C15.2897 41.1751 17.4441 39.1966 21.1923 39.1966H61.5543C64.1924 39.1966 65.2146 38.1414 65.2146 35.4374C65.2146 24.028 62.7634 15.7292 57.927 10.7609C53.1015 5.81464 46.6713 3.30851 38.8231 3.30851L38.8341 3.29752ZM42.0218 38.3832H20.5657C18.6531 38.3832 17.3122 37.9105 16.4878 36.9323C16.0151 36.3717 15.4985 35.3824 15.7513 33.8436C16.9054 24.5775 19.4776 17.2461 23.4017 12.1239C27.4687 6.7929 32.5908 4.09992 38.6254 4.09992C43.7695 4.09992 47.6936 6.43017 50.2547 11.0137C52.6509 15.2895 53.86 21.1921 53.86 28.5456C53.86 33.0412 51.8045 38.3942 42.0108 38.3942L42.0218 38.3832ZM18.9939 34.7999C18.9939 34.7999 19.3016 35.0857 20.5547 35.0857H42.0108C49.5842 35.0857 50.5625 31.5903 50.5625 28.5346C50.5625 21.7527 49.4853 16.3997 47.3748 12.6185C45.4073 9.10117 42.5384 7.39745 38.6144 7.39745C33.5911 7.39745 29.4582 9.59579 26.0067 14.1244C22.4454 18.7849 20.0931 25.5778 19.0049 34.3162C18.95 34.69 18.9939 34.7999 18.9939 34.7999Z" fill="var(--fill-0, black)"></path>
</g>
</svg>