<svg preserveAspectRatio="none" width="100%" height="100%" overflow="visible" style="display: block;" viewBox="0 0 40.9247 11.9736" fill="none" xmlns="http://www.w3.org/2000/svg">
<g id="Group">
<path id="Vector" d="M5.65306 1.53488V10.3851C5.64579 10.4985 5.668 10.6119 5.7176 10.7141C5.76717 10.8162 5.84238 10.9038 5.93587 10.9681C5.99022 10.9977 6.03606 11.0408 6.06908 11.0932C6.10209 11.1456 6.12112 11.2057 6.12442 11.2676V11.6011C6.12442 11.7154 6.05938 11.7731 5.93587 11.7731H3.61697C3.50761 11.7731 3.45292 11.7202 3.45292 11.6162V11.2647C3.45755 11.2032 3.47716 11.1437 3.51004 11.0915C3.54292 11.0393 3.58804 10.9959 3.64147 10.9652C3.73612 10.9016 3.8127 10.8144 3.86374 10.7122C3.91479 10.61 3.93859 10.4964 3.93273 10.3823V6.10218H2.20768V10.3851C2.20094 10.4984 2.22341 10.6116 2.27296 10.7137C2.32249 10.8158 2.39738 10.9034 2.49051 10.9681C2.54594 10.9969 2.59299 11.0396 2.62703 11.0921C2.66104 11.1446 2.68091 11.2051 2.68467 11.2676V11.6011C2.68467 11.7154 2.61965 11.7731 2.49051 11.7731H0.164963C0.0546582 11.7731 0 11.7202 0 11.6162V11.2647C0.00520327 11.2026 0.0256791 11.1428 0.0595485 11.0905C0.0934421 11.0383 0.139693 10.9952 0.194207 10.9652C0.28671 10.9 0.361145 10.8123 0.410625 10.7103C0.46008 10.6084 0.482917 10.4955 0.476991 10.3823V1.53488C0.483423 1.42263 0.460755 1.31067 0.411203 1.20984C0.361627 1.10898 0.286878 1.02274 0.194207 0.959478C0.138055 0.92978 0.0905996 0.885933 0.0565616 0.832234C0.0224753 0.778536 0.00301115 0.716894 0 0.653344V0.324539C0 0.209271 0.065065 0.152554 0.194207 0.152554H2.52159C2.63001 0.152554 2.68563 0.204562 2.68563 0.3094V0.653344C2.68144 0.716604 2.6615 0.777763 2.62756 0.831268C2.59364 0.884749 2.54681 0.928838 2.49143 0.959478C2.39945 1.02344 2.32524 1.10985 2.2758 1.21049C2.22633 1.31117 2.2032 1.42277 2.20864 1.53488V5.0553H3.93088V1.53488C3.93707 1.42197 3.91361 1.30939 3.86283 1.20841C3.81205 1.10744 3.73568 1.0216 3.64147 0.959478C3.58633 0.929128 3.53996 0.884967 3.50693 0.831317C3.47388 0.777667 3.45528 0.716362 3.45292 0.653344V0.324539C3.45292 0.209271 3.51703 0.152554 3.64147 0.152554H5.96133C6.07067 0.152554 6.12533 0.204562 6.12533 0.3094V0.653344C6.12179 0.716024 6.10269 0.77687 6.06976 0.830327C6.03683 0.883784 5.99116 0.928138 5.93681 0.959478C5.84469 1.02334 5.77028 1.10968 5.72063 1.21037C5.67101 1.311 5.64776 1.4227 5.65306 1.53488Z" fill="var(--fill-0, black)"></path>
<path id="Vector_2" d="M8.82864 10.3851C8.82192 10.4984 8.84437 10.6116 8.8939 10.7137C8.94345 10.8158 9.01835 10.9034 9.11145 10.9681C9.16693 10.9969 9.21395 11.0396 9.24799 11.0921C9.28203 11.1446 9.30188 11.2051 9.30563 11.2676V11.6011C9.30563 11.7154 9.24059 11.7731 9.11145 11.7731H6.78214C6.6728 11.7731 6.61814 11.7202 6.61814 11.6162V11.2647C6.62284 11.2025 6.64313 11.1425 6.67707 11.0901C6.71098 11.0378 6.7575 10.9948 6.8123 10.9652C6.90476 10.8999 6.97919 10.8122 7.02865 10.7103C7.0781 10.6083 7.10096 10.4955 7.09514 10.3823V1.53488C7.10147 1.42267 7.07875 1.31071 7.0292 1.20989C6.97968 1.10908 6.90495 1.02281 6.8123 0.959478C6.75606 0.929925 6.70853 0.886125 6.67447 0.832403C6.64036 0.778681 6.62096 0.716942 6.61814 0.653344V0.324539C6.61814 0.209271 6.68225 0.152554 6.8123 0.152554H9.13877C9.24816 0.152554 9.30282 0.204562 9.30282 0.3094V0.653344C9.29896 0.716338 9.27942 0.777329 9.24599 0.83081C9.21258 0.884291 9.1663 0.9285 9.11145 0.959478C9.0195 1.02344 8.94528 1.10985 8.8958 1.21049C8.84635 1.31117 8.82322 1.42277 8.82864 1.53488V10.3851Z" fill="var(--fill-0, black)"></path>
<path id="Vector_3" d="M13.3499 1.02135V10.3875C13.3432 10.5008 13.3657 10.614 13.4152 10.7161C13.4647 10.8182 13.5396 10.9058 13.6327 10.9705C13.6881 10.9993 13.735 11.0421 13.7688 11.0946C13.8027 11.1471 13.8224 11.2075 13.826 11.27V11.6035C13.826 11.7178 13.7618 11.7754 13.6327 11.7754H11.3062C11.1969 11.7754 11.1422 11.7225 11.1422 11.6186V11.2671C11.1474 11.205 11.1679 11.1452 11.2018 11.0929C11.2357 11.0407 11.2819 10.9976 11.3364 10.9676C11.4288 10.9022 11.5032 10.8145 11.5526 10.7126C11.6021 10.6107 11.625 10.4978 11.6192 10.3846V1.02135H11.2902C11.1837 1.01479 11.0774 1.03703 10.9824 1.08573C10.8874 1.1344 10.8071 1.2078 10.7501 1.2982C10.6332 1.48274 10.5276 1.88903 10.4334 2.51704C10.4321 2.53602 10.427 2.55456 10.4182 2.57144C10.4095 2.58834 10.3973 2.60321 10.3825 2.61511C10.3677 2.62704 10.3506 2.63573 10.3322 2.64064C10.3139 2.64554 10.2947 2.64658 10.2759 2.64365H9.98562C9.81688 2.64365 9.73204 2.57185 9.73204 2.42727V0.254174C9.73204 0.0850385 9.81122 0 9.97052 0C10.1483 0.00866803 10.3252 0.0288533 10.5003 0.0604591C10.8059 0.113988 11.1149 0.145546 11.425 0.154962H14.0645C14.1983 0.135429 14.3623 0.108024 14.5565 0.0727727C14.8544 0.0274043 15.0184 0.00470844 15.0486 0.00470844C15.1824 0.00470844 15.2494 0.0677025 15.2494 0.193691V2.42727C15.2494 2.57185 15.1853 2.64365 15.0561 2.64365H14.7733C14.6593 2.64365 14.5904 2.61154 14.5688 2.54915C14.5245 2.38835 14.4886 2.22527 14.4613 2.06067C14.3717 1.63174 14.2794 1.35204 14.1851 1.2198C14.0909 1.08749 13.924 1.02135 13.6855 1.02135H13.3499Z" fill="var(--fill-0, black)"></path>
<path id="Vector_4" d="M17.8794 6.33368V10.3851C17.8727 10.4984 17.8952 10.6116 17.9447 10.7137C17.9942 10.8158 18.0691 10.9034 18.1622 10.9681C18.2177 10.9969 18.2647 11.0396 18.2987 11.0921C18.3328 11.1446 18.3527 11.2051 18.3564 11.2676V11.6011C18.3564 11.7154 18.2914 11.7731 18.1622 11.7731H15.8367C15.7273 11.7731 15.6727 11.7202 15.6727 11.6162V11.2647C15.6773 11.2032 15.6969 11.1437 15.7298 11.0915C15.7626 11.0393 15.8078 10.9959 15.8612 10.9652C15.9537 10.9 16.0282 10.8123 16.0776 10.7103C16.1271 10.6084 16.1499 10.4955 16.144 10.3823V1.53488C16.1504 1.42263 16.1278 1.31067 16.0782 1.20984C16.0287 1.10898 15.9539 1.02274 15.8612 0.959478C15.8061 0.929128 15.7597 0.884967 15.7267 0.831317C15.6936 0.777667 15.675 0.716362 15.6727 0.653344V0.324539C15.6727 0.209271 15.7368 0.152554 15.8612 0.152554H17.82C18.9237 0.152554 19.7637 0.401706 20.3406 0.899937C20.9175 1.39819 21.2061 2.11815 21.2061 3.0598C21.2061 4.56021 20.5126 5.52961 19.1255 5.96801C19.4782 6.12659 19.7943 6.35698 20.0532 6.64452C20.2652 6.89585 20.4302 7.26621 20.5425 7.75374L21.091 10.1234C21.1295 10.3379 21.1987 10.5457 21.2967 10.7404C21.3825 10.8656 21.4962 10.9693 21.6282 11.0437C21.6508 11.0594 21.6689 11.0807 21.6804 11.1056C21.6922 11.1305 21.6973 11.158 21.6951 11.1854V11.6115C21.6985 11.6338 21.6968 11.6565 21.6896 11.6779C21.6826 11.6993 21.6708 11.7188 21.6547 11.7347C21.639 11.7507 21.6197 11.7627 21.5985 11.7699C21.5771 11.777 21.5545 11.7791 21.5323 11.7759H20.0409C19.8966 11.7759 19.8053 11.6956 19.7656 11.535L18.7448 7.42496C18.6354 6.97236 18.5148 6.67758 18.3828 6.5434C18.3172 6.4764 18.2388 6.42333 18.1524 6.38728C18.0659 6.35126 17.9731 6.33301 17.8794 6.33368ZM17.8794 1.05678V5.44457C18.4167 5.44457 18.8119 5.27512 19.0653 4.93627C19.3185 4.59737 19.4442 3.99426 19.4423 3.1269C19.4423 2.28033 19.3142 1.72352 19.0578 1.45643C18.8013 1.18939 18.4086 1.05615 17.8794 1.05678Z" fill="var(--fill-0, black)"></path>
<path id="Vector_5" d="M27.31 9.07935C27.31 9.97064 27.0841 10.6679 26.6314 11.1712C26.1788 11.6745 25.5874 11.9264 24.8563 11.9271C24.1262 11.9271 23.5273 11.6779 23.0597 11.1797C22.5922 10.6815 22.3583 10.0292 22.3583 9.22296V1.53391C22.3648 1.42171 22.3421 1.30977 22.2925 1.20894C22.2429 1.10811 22.1682 1.02184 22.0755 0.958512C22.0203 0.9278 21.9738 0.883663 21.9401 0.830158C21.9064 0.776677 21.8864 0.715566 21.8825 0.652379V0.323573C21.8825 0.209271 21.9463 0.152554 22.0755 0.152554H24.403C24.5123 0.152554 24.567 0.204562 24.567 0.3094V0.652379C24.5627 0.715639 24.5429 0.776846 24.5092 0.830327C24.475 0.883832 24.4283 0.927897 24.3728 0.958512C24.2803 1.02184 24.2054 1.10811 24.156 1.20894C24.1064 1.30977 24.0838 1.42171 24.09 1.53391V9.30233C24.09 10.3391 24.4328 10.8572 25.1184 10.8566C25.8726 10.8566 26.248 10.2491 26.2448 9.03401V1.53391C26.2516 1.42171 26.2287 1.3097 26.1793 1.20887C26.1294 1.10807 26.0548 1.0218 25.962 0.958512C25.9068 0.927897 25.8601 0.883832 25.8261 0.830327C25.7919 0.776846 25.7722 0.715639 25.7678 0.652379V0.323573C25.7678 0.209271 25.8329 0.152554 25.962 0.152554H27.6249C27.7343 0.152554 27.7899 0.204562 27.7899 0.3094V0.652379C27.7858 0.715639 27.7658 0.776846 27.7318 0.830327C27.6981 0.883832 27.6511 0.927897 27.5957 0.958512C27.503 1.02184 27.4283 1.10811 27.3789 1.20894C27.3293 1.30977 27.3067 1.42171 27.3129 1.53391L27.31 9.07935Z" fill="var(--fill-0, black)"></path>
<path id="Vector_6" d="M29.0317 11.7825H28.6547C28.5304 11.7825 28.4663 11.7155 28.4663 11.5803V8.76285C28.4663 8.57389 28.534 8.47939 28.6679 8.47939H28.9886C29.0218 8.47497 29.0558 8.48081 29.0856 8.49619C29.1158 8.51152 29.1401 8.53567 29.1562 8.56539C29.2126 8.75959 29.2514 8.95849 29.2723 9.15967C29.4759 10.4654 29.9406 11.1183 30.6664 11.1183C30.8451 11.1221 31.0217 11.0785 31.1783 10.9919C31.3351 10.9053 31.4659 10.7788 31.5582 10.6251C31.7824 10.2675 31.8949 9.85108 31.8824 9.42893C31.8855 8.95787 31.7658 8.49414 31.5355 8.08351C31.3043 7.66969 30.8581 7.11158 30.1969 6.40927C29.8083 6.01378 29.4434 5.59542 29.1044 5.15644C28.8821 4.84869 28.7062 4.51003 28.5822 4.15112C28.447 3.75598 28.3801 3.34057 28.3842 2.92284C28.3842 2.09515 28.5921 1.41487 29.0074 0.882013C29.4227 0.34911 29.9305 0.0820435 30.5305 0.0807638C30.8381 0.0894318 31.1395 0.169303 31.4112 0.314172C31.4979 0.36635 31.5938 0.401915 31.6938 0.41901C31.7535 0.415895 31.8109 0.394455 31.8578 0.357609C31.9262 0.320474 32.0033 0.302221 32.0814 0.304708H32.3574C32.5017 0.304708 32.5742 0.371806 32.5742 0.505956V2.97668C32.5742 3.10267 32.5198 3.16567 32.4102 3.16567H32.0672C32.0342 3.17035 32.0007 3.16627 31.9698 3.15383C31.939 3.1414 31.9123 3.12102 31.8918 3.0948C31.8275 2.91866 31.7788 2.73717 31.7468 2.55246C31.5129 1.47158 31.133 0.931124 30.6071 0.931124C30.4722 0.92871 30.3392 0.960363 30.2198 1.02312C30.1005 1.08587 29.9991 1.17769 29.9244 1.29016C29.7517 1.53069 29.6604 1.8205 29.6643 2.11688C29.6717 2.50878 29.7756 2.89278 29.9668 3.23462C30.1675 3.61633 30.5688 4.11584 31.1706 4.73313C31.9417 5.52552 32.476 6.2222 32.7732 6.82312C33.0698 7.42985 33.2213 8.09758 33.2155 8.77323C33.2155 9.71805 32.9681 10.4881 32.4735 11.0833C31.979 11.6786 31.391 11.9753 30.7095 11.9734C30.3426 11.9592 29.981 11.8772 29.6435 11.7315C29.5568 11.6886 29.4634 11.6608 29.3675 11.6493C29.2969 11.6568 29.2299 11.6829 29.1731 11.7249C29.1317 11.7559 29.083 11.7757 29.0317 11.7825Z" fill="var(--fill-0, black)"></path>
<path id="Vector_7" d="M37.1925 1.02135V10.3875C37.1856 10.5008 37.2082 10.614 37.2576 10.7161C37.3072 10.8182 37.3819 10.9058 37.4751 10.9705C37.5296 10.9999 37.5756 11.043 37.6086 11.0954C37.6416 11.1479 37.6606 11.208 37.6635 11.27V11.6035C37.6635 11.7178 37.5997 11.7754 37.4751 11.7754H35.1488C35.0392 11.7754 34.9845 11.7225 34.9845 11.6186V11.2671C34.9898 11.205 35.0103 11.1452 35.0443 11.0929C35.078 11.0407 35.1242 10.9976 35.1787 10.9676C35.2712 10.9023 35.3456 10.8146 35.395 10.7127C35.4446 10.6107 35.4673 10.4979 35.4615 10.3846V1.02135H35.1336C35.0272 1.01479 34.9207 1.03703 34.8255 1.08573C34.7309 1.1344 34.6504 1.2078 34.5933 1.2982C34.4765 1.48274 34.371 1.88903 34.2765 2.51704C34.2756 2.53594 34.2703 2.55437 34.2618 2.57119C34.2529 2.58802 34.2409 2.60285 34.2262 2.61473C34.2115 2.62663 34.1946 2.63535 34.1761 2.64032C34.158 2.6453 34.139 2.64643 34.1202 2.64365H33.829C33.6601 2.64365 33.5753 2.57185 33.5753 2.42727V0.254174C33.5753 0.0850385 33.6546 0 33.8138 0C33.9916 0.00866803 34.1684 0.0288533 34.3435 0.0604591C34.6492 0.113988 34.9583 0.145546 35.2683 0.154962H37.9077C38.0417 0.135429 38.2057 0.108024 38.3999 0.0727727C38.6979 0.0274043 38.8617 0.00470844 38.892 0.00470844C39.0257 0.00470844 39.0927 0.0677025 39.0927 0.193691V2.42727C39.0927 2.57185 39.0286 2.64365 38.8995 2.64365H38.6167C38.5028 2.64365 38.4339 2.61154 38.4122 2.54915C38.3669 2.38847 38.3308 2.22539 38.3038 2.06067C38.2142 1.63174 38.1217 1.35204 38.0277 1.2198C37.9333 1.08749 37.7663 1.02135 37.5279 1.02135H37.1925Z" fill="var(--fill-0, black)"></path>
<path id="Vector_8" d="M40.9243 0.644525C40.9272 0.764694 40.8942 0.88298 40.8297 0.984268C40.7651 1.08556 40.6719 1.16523 40.5618 1.21319C40.4517 1.26114 40.3301 1.27517 40.212 1.25346C40.094 1.23175 39.9853 1.1753 39.8996 1.09133C39.8138 1.00735 39.7551 0.899641 39.7305 0.781982C39.7062 0.6643 39.717 0.542005 39.7625 0.430697C39.8076 0.319365 39.8849 0.224065 39.9844 0.15699C40.0836 0.0898916 40.2009 0.0540358 40.3212 0.0540117C40.3994 0.0521284 40.4775 0.0659882 40.551 0.0948172C40.624 0.12367 40.6904 0.166865 40.7468 0.221892C40.8032 0.276918 40.8477 0.342641 40.8781 0.41522C40.9084 0.4878 40.9243 0.565788 40.9243 0.644525ZM39.8676 0.644525C39.8654 0.706119 39.8757 0.767519 39.8977 0.824984C39.9201 0.882497 39.9536 0.934892 39.9964 0.979005C40.0393 1.02317 40.0906 1.05815 40.1475 1.08184C40.2041 1.10555 40.2653 1.11748 40.3267 1.11694C40.3874 1.11678 40.4476 1.10424 40.5033 1.08012C40.5592 1.056 40.6093 1.02082 40.6514 0.976662C40.6931 0.932501 40.7254 0.880324 40.7468 0.823222C40.768 0.766167 40.7774 0.705346 40.7743 0.644525C40.7743 0.523993 40.7266 0.408412 40.6415 0.32318C40.5565 0.237949 40.4411 0.190069 40.3212 0.190069C40.2007 0.190069 40.0853 0.237949 40.0003 0.32318C39.9152 0.408412 39.8676 0.523993 39.8676 0.644525ZM40.2267 0.9516H40.0909V0.361087C40.1653 0.34817 40.2407 0.342134 40.3163 0.343124C40.3872 0.337233 40.4585 0.352371 40.5209 0.386585C40.5394 0.40252 40.5541 0.422416 40.564 0.444822C40.5738 0.467253 40.5782 0.491591 40.5775 0.516025C40.5746 0.548911 40.5613 0.579985 40.5394 0.604541C40.5175 0.62912 40.4881 0.645829 40.4558 0.652082V0.659639C40.4852 0.67135 40.5107 0.690931 40.5295 0.716307C40.5488 0.741635 40.5601 0.77172 40.563 0.803253C40.569 0.854271 40.5835 0.903817 40.6066 0.949717H40.4623C40.4394 0.904517 40.4243 0.856083 40.4161 0.806103C40.4047 0.741829 40.3691 0.7116 40.2944 0.7116H40.2267V0.9516ZM40.2267 0.618062H40.2908C40.3662 0.618062 40.4276 0.592565 40.4276 0.532106C40.4276 0.471647 40.3881 0.437627 40.3021 0.437627C40.2768 0.437361 40.2518 0.439558 40.2267 0.444218V0.618062Z" fill="var(--fill-0, black)"></path>
</g>
</svg>