<svg preserveAspectRatio="none" width="100%" height="100%" overflow="visible" style="display: block;" viewBox="0 0 29.9266 35.9204" fill="none" xmlns="http://www.w3.org/2000/svg">
<g id="Group">
<path id="Vector" d="M18.7138 3.7619C17.2845 3.46074 16.3503 5.61938 16.3503 5.61938V9.43447C21.6815 9.78556 21.627 8.48081 21.627 8.48081C26.7385 8.43051 29.9265 4.67611 29.9265 4.67611C25.1995 5.89157 20.1427 4.06301 18.7138 3.7619Z" fill="var(--fill-0, black)"></path>
<path id="Vector_2" d="M13.5764 9.43447V5.61936C13.5764 5.61936 12.642 3.46074 11.213 3.7619C9.78396 4.06306 4.72721 5.89161 0.000154656 4.67619C0.000154656 4.67619 3.18811 8.43063 8.29965 8.48093C8.29965 8.48093 8.24526 9.78556 13.5764 9.43447Z" fill="var(--fill-0, black)"></path>
<path id="Vector_3" d="M14.3039 3.56062V14.1494C14.5073 14.1776 14.7254 14.2055 14.9661 14.234C15.2015 14.2061 15.4147 14.1789 15.6141 14.1513V3.56062C15.9882 3.39927 16.2977 3.10488 16.4898 2.72785C16.682 2.35082 16.7447 1.9146 16.6673 1.49387C16.5899 1.07313 16.3771 0.694057 16.0655 0.421536C15.7539 0.149016 15.3627 0 14.959 0C14.5553 0 14.1642 0.149016 13.8526 0.421536C13.5409 0.694057 13.3282 1.07313 13.2508 1.49387C13.1734 1.9146 13.2361 2.35082 13.4282 2.72785C13.6204 3.10488 13.9299 3.39927 14.3039 3.56062Z" fill="var(--fill-0, black)"></path>
<path id="Vector_4" d="M14.6257 19.9926C14.6927 19.961 14.7587 19.929 14.8248 19.8939C14.9867 19.8134 15.1483 19.7215 15.3154 19.6169V17.0623C15.088 17.0065 14.8583 16.9665 14.6274 16.9424C14.3908 16.9668 14.1556 17.0079 13.9229 17.0655V19.6086C14.0938 19.716 14.2579 19.8099 14.418 19.8892C14.4887 19.9271 14.557 19.9598 14.6257 19.9926Z" fill="var(--fill-0, black)"></path>
<path id="Vector_5" d="M15.2868 27.5293C15.298 27.524 15.3057 27.5195 15.3154 27.5144V27.2521C15.1817 27.2064 15.0415 27.1711 14.8973 27.1467C14.8104 27.1297 14.7177 27.1152 14.6241 27.1007C14.5324 27.1148 14.4443 27.1292 14.3619 27.1453C14.2099 27.1706 14.0626 27.2085 13.9229 27.2583V27.5075C13.9364 27.5149 13.9489 27.5218 13.9649 27.5296C14.1765 27.624 14.3973 27.7072 14.6257 27.7785C14.8543 27.7072 15.0753 27.6239 15.2868 27.5293Z" fill="var(--fill-0, black)"></path>
<path id="Vector_6" d="M14.6254 34.2259C14.4218 34.2917 14.2112 34.352 13.9877 34.4064C13.9653 34.4117 13.9447 34.4162 13.9229 34.4213L14.0233 35.249C14.1442 35.5331 14.2346 35.9204 14.6193 35.9204C15.0037 35.9204 15.0643 35.6753 15.2058 35.249L15.3154 34.4185C15.299 34.4146 15.283 34.4111 15.2657 34.407C15.0365 34.3511 14.8275 34.2914 14.6254 34.2259Z" fill="var(--fill-0, black)"></path>
<path id="Vector_7" d="M15.3015 31.3004C15.2878 31.1924 15.2528 31.0898 15.1992 31.0011C15.0417 30.7783 14.8434 30.6014 14.6194 30.4838C14.3971 30.5999 14.1999 30.7748 14.043 30.9951C13.9886 31.0828 13.9526 31.1846 13.938 31.2921C13.9336 31.311 13.9306 31.3303 13.9289 31.3498C13.9289 31.3561 13.9285 31.374 13.9282 31.3798L13.9229 31.4632L13.9282 31.595C13.9334 31.6202 13.9376 31.6458 13.9407 31.6715C13.9977 31.8944 14.1128 32.0901 14.2692 32.2304C14.3793 32.3374 14.4967 32.4334 14.6201 32.5173C14.7425 32.4333 14.859 32.3376 14.9684 32.2311C15.1256 32.0911 15.241 31.895 15.2977 31.6714C15.301 31.6461 15.3053 31.6207 15.3101 31.5958L15.3154 31.4617L15.3101 31.3825C15.3094 31.3716 15.3091 31.3607 15.3091 31.3498C15.3078 31.3331 15.3053 31.3166 15.3015 31.3004Z" fill="var(--fill-0, black)"></path>
<path id="Vector_8" d="M14.6263 24.737C14.6356 24.7346 14.6449 24.7321 14.6539 24.73C14.7638 24.7032 14.8706 24.6771 14.9748 24.6507C15.0935 24.62 15.2079 24.5887 15.3154 24.5552V23.0348C15.0952 22.9052 14.8662 22.7944 14.6305 22.7036C14.3865 22.8076 14.15 22.9316 13.9229 23.0746V24.5503C14.1291 24.6158 14.358 24.6715 14.5975 24.7296C14.6067 24.7317 14.6167 24.7346 14.6263 24.737Z" fill="var(--fill-0, black)"></path>
<path id="Vector_9" d="M16.6673 31.3787C16.6669 31.3823 16.6669 31.3857 16.6666 31.3893L16.6583 31.5677C16.6568 31.6021 16.6503 31.636 16.6391 31.6684C16.6389 31.6751 16.6382 31.6817 16.637 31.6882C16.5509 32.0503 16.3457 32.3718 16.0552 32.5998C16.0416 32.6109 16.0274 32.6206 16.0138 32.6317C16.1647 32.6848 16.3095 32.7304 16.4373 32.7677C16.5625 32.8029 16.6817 32.8338 16.7963 32.861C17.0665 32.5772 17.2574 32.2258 17.3496 31.8426C17.3639 31.7702 17.3791 31.6848 17.391 31.5996L17.4063 31.3659L17.4003 31.1957C17.3984 31.1256 17.3914 31.0557 17.3793 30.9866C17.3359 30.677 17.2246 30.3812 17.0535 30.121C16.9788 30.0108 16.8952 29.907 16.8035 29.8108C16.5253 29.9582 16.268 30.0709 16.0308 30.172C16.1797 30.2792 16.3104 30.4101 16.418 30.5596C16.5312 30.7197 16.6069 30.9038 16.6395 31.098C16.6494 31.144 16.6559 31.1907 16.659 31.2376C16.6651 31.2644 16.6683 31.2917 16.6686 31.3192C16.6689 31.3387 16.6683 31.3574 16.667 31.3752L16.6673 31.3787Z" fill="var(--fill-0, black)"></path>
<path id="Vector_10" d="M22.2752 12.7047L22.2512 12.4615C22.2138 12.155 22.1295 11.8571 22.0018 11.5793C21.8635 11.289 21.6686 11.0331 21.4299 10.8286C21.0366 10.5061 20.5643 10.3099 20.0689 10.2633C19.7381 10.2312 19.4051 10.2347 19.075 10.2738C19.0157 10.2807 18.9617 10.2892 18.908 10.2971C18.2721 10.0851 17.2887 9.98522 16.6098 10.9954C15.5311 12.6007 17.0209 13.172 17.4317 13.1172C17.7835 13.0708 18.8305 12.8879 19.3988 12.109C19.5602 12.0876 19.7231 12.0823 19.8854 12.0933C20.0363 12.1008 20.184 12.1417 20.319 12.2134C20.377 12.2465 20.427 12.2933 20.4652 12.3501C20.473 12.3614 20.4802 12.373 20.4867 12.3851C20.5245 12.4584 20.5526 12.537 20.5701 12.6185C20.5914 12.6695 20.6032 12.7244 20.6047 12.7801C20.605 12.7839 20.6054 12.8028 20.6054 12.8063C20.606 12.8244 20.607 12.844 20.6067 12.8653L20.609 12.9678C20.6101 13.004 20.609 13.0401 20.6057 13.0761C20.6001 13.118 20.5878 13.1586 20.5694 13.1961C20.5442 13.2632 20.5119 13.3271 20.4732 13.3867C20.3168 13.6099 20.1168 13.7949 19.8868 13.929C19.8028 13.9831 19.7142 14.0358 19.6199 14.0857C18.8146 14.4721 17.9639 14.7422 17.0907 14.8887C16.9573 14.9148 16.8216 14.9403 16.6813 14.9648C16.5504 14.9878 16.4167 15.0098 16.2777 15.031C16.1057 15.0579 15.9235 15.0837 15.7301 15.1099C15.5121 15.1392 15.2788 15.1685 15.0228 15.1985C14.9925 15.202 14.9639 15.2055 14.933 15.209C14.7152 15.2327 14.505 15.2655 14.2994 15.304C13.8278 15.3879 13.3653 15.5218 12.919 15.7035C12.5653 15.8473 12.2294 16.0361 11.9188 16.2657C11.896 16.2828 11.8753 16.3003 11.8535 16.3177C11.7326 16.4119 11.6179 16.5148 11.5103 16.6256C11.4132 16.7263 11.3237 16.8348 11.2424 16.9502C11.1709 17.0507 11.1063 17.1564 11.049 17.2667C10.9545 17.4513 10.8848 17.649 10.8418 17.8541C10.8326 17.8984 10.8227 17.9431 10.8161 17.9878C10.8085 18.0481 10.8003 18.1162 10.7953 18.1839L10.7911 18.3343V18.3392L10.8026 18.5391C10.8042 18.5531 10.8055 18.572 10.8065 18.5908C10.8081 18.6165 10.811 18.6422 10.8151 18.6676C10.8322 18.7997 10.8574 18.9305 10.8905 19.0591C10.9024 19.0951 10.9133 19.1313 10.9245 19.168C10.9445 19.2422 10.9695 19.3147 10.9993 19.385C11.0022 19.3913 11.0049 19.3976 11.0075 19.4039C11.0923 19.6103 11.1968 19.807 11.3195 19.9909C11.7045 20.5419 12.1936 21.002 12.7555 21.3421C13.168 21.0488 13.6072 20.7999 14.0665 20.5993C13.9452 20.5358 13.8214 20.467 13.6925 20.3909C13.1774 20.1054 12.7309 19.6984 12.3876 19.2013C12.2807 19.051 12.2087 18.8761 12.1776 18.6908C12.1464 18.5055 12.157 18.315 12.2084 18.1348C12.2414 18.0348 12.2875 17.9403 12.3454 17.8539H12.304C12.4809 17.6314 12.6994 17.4502 12.9458 17.3217C12.9636 17.3116 12.9817 17.3022 12.9995 17.2924C13.0058 17.2889 13.0117 17.2854 13.018 17.2823C13.0644 17.2575 13.1099 17.2345 13.1563 17.2124C13.1731 17.2048 13.1888 17.1967 13.2057 17.1891C13.2769 17.1567 13.3471 17.127 13.4146 17.1022C13.4192 17.1004 13.4238 17.0984 13.4288 17.0966L13.4307 17.0959C13.5223 17.061 13.6178 17.0313 13.7134 17.0013C13.9062 16.9422 14.1019 16.8937 14.2995 16.8558C14.4207 16.8321 14.5442 16.8112 14.6721 16.7939C14.7864 16.7786 14.9035 16.7659 15.0236 16.7559C15.0423 16.7542 15.0599 16.7515 15.0789 16.75C15.3105 16.7297 15.526 16.7095 15.7302 16.6889C16.1691 16.6449 16.5529 16.5989 16.9043 16.5483C17.3253 16.4848 17.7566 16.4122 18.1908 16.3176C18.3394 16.2852 18.4881 16.25 18.6369 16.2119C18.7736 16.177 18.9106 16.1396 19.047 16.0992C19.4817 15.9719 19.9065 15.8093 20.3177 15.6131C20.8888 15.3532 21.3915 14.9499 21.7824 14.4381C21.8104 14.399 21.8341 14.3575 21.8599 14.3173C22.0282 14.0621 22.1493 13.7755 22.217 13.4725C22.2193 13.4617 22.2216 13.4512 22.2246 13.4404C22.2413 13.3599 22.2532 13.2784 22.2605 13.1964L22.2787 12.7766L22.276 12.7131C22.2755 12.7103 22.2753 12.7075 22.2752 12.7047Z" fill="var(--fill-0, black)"></path>
<path id="Vector_11" d="M17.9754 22.8808C17.8231 22.4798 17.5802 22.122 17.2669 21.8367C17.2075 21.7819 17.1482 21.7311 17.0881 21.6806C16.7644 21.8551 16.4307 22.0094 16.0889 22.1427C16.0295 22.1671 15.9663 22.1892 15.9047 22.2127C16.2993 22.4083 16.6277 22.7213 16.8474 23.1111C16.8776 23.1701 16.9034 23.2315 16.9244 23.2946H16.9225C16.9248 23.3012 16.9273 23.3078 16.9296 23.3144C16.9347 23.3276 16.9402 23.3408 16.9443 23.3553C16.964 23.4246 16.9768 23.4957 16.9825 23.5676L16.9829 23.5686C16.994 23.715 16.9794 23.8622 16.9399 24.0033C16.9373 24.0125 16.9334 24.0214 16.9309 24.0304C16.9203 24.0661 16.9049 24.1008 16.8914 24.1358C16.8795 24.1668 16.8709 24.1985 16.8564 24.2285C16.8497 24.2463 16.8417 24.2635 16.8324 24.28L16.8125 24.314H16.8122L16.8057 24.3255C16.7932 24.3459 16.7787 24.3649 16.7624 24.3823C16.6246 24.5743 16.4426 24.728 16.2327 24.8296C16.2224 24.8345 16.2109 24.8385 16.2006 24.8434C16.1509 24.8659 16.1021 24.8886 16.0475 24.9074L16.0462 24.9078C15.9305 24.9493 15.8066 24.9857 15.6795 25.02C15.6599 25.0249 15.6413 25.0303 15.6218 25.0355L15.6154 25.0376C15.4559 25.0789 15.2887 25.1171 15.1168 25.1561C15.1149 25.1568 15.1123 25.1571 15.1097 25.1577C15.0513 25.1709 14.9913 25.1855 14.9323 25.199C14.7045 25.2515 14.4719 25.3066 14.2309 25.3782L14.2283 25.3792C13.9007 25.4701 13.5888 25.613 13.3039 25.8026C13.285 25.8155 13.2661 25.8277 13.2471 25.8416C13.1585 25.9077 13.0763 25.9825 13.0015 26.0648C12.9362 26.1352 12.8762 26.2107 12.8222 26.2906C12.8084 26.3114 12.7961 26.3344 12.7833 26.3566C12.6911 26.5159 12.623 26.6887 12.5815 26.8692C12.5629 26.9635 12.5491 27.0588 12.5401 27.1546L12.532 27.3689L12.5375 27.4517L12.5449 27.5583C12.5533 27.6213 12.5642 27.6843 12.5776 27.746C12.6019 27.8545 12.6378 27.9599 12.6848 28.0602C12.8343 28.3609 13.0588 28.6153 13.3352 28.7976C13.5859 28.607 13.8523 28.4392 14.1313 28.2962C14.044 28.2467 13.96 28.1961 13.883 28.1433C13.6951 28.0264 13.5439 27.8562 13.4476 27.6532C13.4469 27.6509 13.4412 27.6337 13.4401 27.6314C13.4363 27.6202 13.4315 27.6037 13.4263 27.5839C13.4156 27.5405 13.4093 27.4962 13.4074 27.4515C13.4065 27.4369 13.4052 27.4247 13.4042 27.4086C13.4036 27.4013 13.4029 27.3937 13.4026 27.3862C13.4023 27.375 13.4016 27.3627 13.4016 27.3502C13.4013 27.3472 13.4013 27.3442 13.401 27.3413H13.4013V27.3403C13.4013 27.3314 13.4013 27.3231 13.4016 27.3145C13.4026 27.2844 13.4066 27.2544 13.4135 27.2251C13.418 27.1871 13.4235 27.158 13.4292 27.13L13.434 27.1056C13.4368 27.0857 13.4416 27.0661 13.4482 27.0471C13.4915 26.8982 13.5773 26.7662 13.6944 26.6681C13.7201 26.6457 13.7452 26.6236 13.7763 26.6008C13.8963 26.5223 14.0246 26.4579 14.1587 26.409C14.1809 26.4004 14.2049 26.3925 14.2284 26.3843C14.3115 26.3542 14.3984 26.3258 14.4918 26.3018C14.6294 26.2631 14.7783 26.2305 14.9317 26.1991C15.0279 26.1793 15.1242 26.1598 15.2246 26.1404C15.3549 26.1153 15.4873 26.0886 15.6218 26.0605C15.8577 26.0109 16.1002 25.9539 16.3579 25.8736C16.4231 25.8526 16.491 25.8284 16.5603 25.8023C16.6858 25.7554 16.8081 25.7 16.9264 25.6363C17.0342 25.5785 17.1375 25.5123 17.2354 25.4383C17.2874 25.399 17.339 25.3578 17.39 25.3115L17.5107 25.192C17.5527 25.1441 17.5963 25.0874 17.6361 25.0339C17.6591 25.0043 17.6805 24.9735 17.7003 24.9415L17.7956 24.7786C17.8917 24.5948 17.9685 24.4011 18.0246 24.2006C18.1038 23.9057 18.1222 23.5971 18.0789 23.2945C18.06 23.1529 18.0253 23.0141 17.9754 22.8808Z" fill="var(--fill-0, black)"></path>
<path id="Vector_12" d="M13.1783 33.5439C12.9637 33.5808 12.7734 33.6078 12.6108 33.629C12.4301 33.6517 12.2659 33.6686 12.1347 33.6787C12.1292 33.6793 12.123 33.6796 12.1178 33.68C12.078 33.682 12.0389 33.691 12.0029 33.7066C11.967 33.7221 11.9348 33.7439 11.9083 33.7706C11.8817 33.797 11.8613 33.8279 11.8484 33.8615C11.8354 33.8951 11.8301 33.9307 11.8327 33.9662C11.8371 34.0352 11.8708 34.1 11.927 34.1475C11.9831 34.195 12.0574 34.2216 12.1347 34.2217L12.1526 34.2211C12.1571 34.2208 12.2093 34.2171 12.3017 34.2119L12.692 34.178C13.105 34.1363 13.5152 34.0745 13.9207 33.9928C13.6857 33.8785 13.4619 33.7466 13.2519 33.5985C13.2277 33.582 13.2027 33.562 13.1783 33.5439Z" fill="var(--fill-0, black)"></path>
<path id="Vector_13" d="M17.8083 33.6429V33.6426C17.8068 33.6426 17.8052 33.6425 17.8037 33.6423V33.6426L17.7924 33.6416C17.7138 33.6364 17.5388 33.6196 17.3042 33.5887C17.1368 33.566 16.9405 33.5374 16.719 33.4977C16.5684 33.4704 16.4051 33.4375 16.2311 33.3985C16.124 33.3738 16.0128 33.3475 15.8967 33.3176C15.8455 33.3038 15.7916 33.2883 15.7376 33.2732C15.6907 33.2597 15.642 33.245 15.5933 33.2308C15.335 33.1549 15.0818 33.0643 14.8353 32.9597C14.6854 32.896 14.5395 32.8245 14.3982 32.7457C14.2815 32.6797 14.169 32.6074 14.0613 32.5291C14.0465 32.5186 14.031 32.5087 14.0165 32.4979C14.0013 32.4867 13.9851 32.4769 13.97 32.4654C13.6615 32.2421 13.4433 31.928 13.3512 31.5743C13.3498 31.566 13.3484 31.5582 13.3473 31.55C13.3366 31.5196 13.3303 31.488 13.3286 31.456L13.3197 31.2802C13.3152 31.2345 13.3177 31.1885 13.3271 31.1434C13.3301 31.0914 13.3376 31.0396 13.3496 30.9886C13.3861 30.7993 13.4674 30.62 13.5877 30.4637C13.7015 30.319 13.8397 30.1923 13.9969 30.0887C14.017 30.0749 14.0399 30.0614 14.0612 30.0476C14.1662 29.978 14.2754 29.9139 14.3882 29.8557C14.5102 29.7926 14.6432 29.7306 14.7871 29.6697C14.8028 29.6631 14.8189 29.6565 14.8344 29.6496C14.9811 29.5862 15.136 29.525 15.3004 29.4606C15.397 29.4232 15.4946 29.3844 15.5932 29.3442C15.6746 29.3114 15.7565 29.2779 15.8398 29.2417C15.9671 29.1868 16.0977 29.1254 16.2317 29.0576C16.317 29.0142 16.4031 28.9703 16.4917 28.9199C16.5235 28.9008 16.5566 28.8804 16.5905 28.8589C16.8972 28.6744 17.1456 28.4171 17.3101 28.1134C17.3594 28.0171 17.3971 27.916 17.4226 27.812C17.4378 27.7496 17.4498 27.6872 17.4593 27.6246L17.4671 27.5186L17.4734 27.437L17.4639 27.2119C17.4533 27.1152 17.437 27.0191 17.4152 26.924C17.3697 26.7493 17.2961 26.5819 17.1969 26.4277C17.0121 26.5057 16.8225 26.5731 16.6289 26.6295C16.4797 26.6716 16.3361 26.7067 16.1954 26.739C16.3245 26.837 16.419 26.9689 16.4667 27.1176C16.4734 27.1363 16.4785 27.1554 16.4818 27.1748L16.4871 27.2002C16.4938 27.2297 16.5005 27.2607 16.5048 27.2945C16.5144 27.3312 16.5188 27.3689 16.5178 27.4066H16.5182L16.5178 27.4102C16.5178 27.4191 16.5174 27.4273 16.5171 27.4348C16.5168 27.4452 16.5157 27.4558 16.5143 27.466L16.5115 27.5186L16.5086 27.5742C16.506 27.6243 16.4919 27.6734 16.4674 27.7181C16.3618 27.9212 16.1951 28.0912 15.9876 28.2075C15.9033 28.2601 15.8109 28.3104 15.7149 28.3597C15.6758 28.3798 15.6342 28.3992 15.5932 28.4188C15.4952 28.4668 15.3943 28.5138 15.2885 28.5602C15.1826 28.6071 15.0743 28.6538 14.9636 28.7012C14.9212 28.7192 14.8771 28.7393 14.8348 28.7573C14.6941 28.8178 14.5519 28.8783 14.4089 28.9443C14.2954 28.9972 14.1786 29.0551 14.0611 29.1162C13.9839 29.1563 13.9066 29.197 13.8298 29.2417C13.706 29.314 13.5868 29.3929 13.4728 29.478C13.3668 29.5574 13.2668 29.6434 13.1733 29.7354C13.0759 29.8297 12.9869 29.9314 12.9073 30.0393C12.726 30.292 12.6078 30.5794 12.5616 30.8804C12.5488 30.9473 12.541 31.0149 12.5384 31.0828L12.532 31.256L12.5477 31.4865C12.5611 31.5699 12.5767 31.6531 12.5943 31.7346C12.6933 32.1062 12.8958 32.4468 13.1815 32.7219C13.2805 32.8206 13.3872 32.9123 13.5008 32.9962C13.5078 33.0012 13.5146 33.0058 13.522 33.011C13.6528 33.1063 13.7898 33.1939 13.9322 33.2733C13.9756 33.2976 14.0187 33.3193 14.0613 33.3413C14.26 33.4431 14.465 33.5339 14.6752 33.6131C14.728 33.6329 14.7813 33.6513 14.8342 33.67C15.0131 33.7324 15.1966 33.7896 15.3912 33.8422C15.4565 33.86 15.5256 33.8768 15.5934 33.8939C15.6374 33.905 15.6791 33.9168 15.7249 33.9277C15.8043 33.9458 15.8812 33.9629 15.9567 33.9786C16.3757 34.0664 16.7995 34.1326 17.2263 34.177C17.3995 34.1928 17.5381 34.2053 17.6312 34.2133L17.7918 34.2225C17.8726 34.2222 17.9502 34.1926 18.0081 34.1399C18.0659 34.0872 18.0995 34.0156 18.1016 33.9403C18.1038 33.8649 18.0744 33.7917 18.0196 33.7363C17.9649 33.6808 17.8891 33.6472 17.8083 33.6429Z" fill="var(--fill-0, black)"></path>
<path id="Vector_14" d="M19.1367 17.8162C19.1328 17.7607 19.1247 17.6928 19.1167 17.626C19.1106 17.585 19.1016 17.5437 19.0932 17.5027C19.0507 17.3 18.9822 17.1047 18.8896 16.9222C18.8338 16.8137 18.7709 16.7095 18.7013 16.6104C18.1261 16.7589 17.555 16.8605 17.0004 16.946C17.2602 17.0701 17.4872 17.2614 17.6609 17.5026C17.7116 17.5763 17.7532 17.6566 17.7847 17.7417C17.8371 17.8977 17.8554 18.0645 17.8382 18.2293C17.8211 18.394 17.7689 18.5524 17.6857 18.6922C17.4344 19.1686 16.9711 19.6113 16.3087 20.0074C16.1829 20.0822 16.0622 20.1497 15.9435 20.2124C15.8618 20.2558 15.7817 20.2961 15.7019 20.3344C15.6356 20.3664 15.5697 20.3971 15.5044 20.4257C15.4963 20.4291 15.488 20.4332 15.4799 20.4367C15.3268 20.5083 15.1724 20.5679 15.0102 20.63L14.9877 20.6389C14.86 20.6875 14.7209 20.7409 14.5588 20.8087C14.4752 20.8449 14.3899 20.8829 14.3047 20.9221C14.0297 21.0469 13.7623 21.1899 13.504 21.3503C13.3882 21.423 13.272 21.5005 13.1575 21.5863C13.0536 21.6634 12.9506 21.7478 12.8483 21.8374C12.7875 21.8911 12.7267 21.9449 12.6665 22.0031C12.3551 22.2985 12.1132 22.6686 11.9607 23.0831C11.9101 23.2247 11.8747 23.3719 11.8551 23.522C11.8115 23.8371 11.8299 24.1586 11.9092 24.4656C11.9647 24.675 12.0416 24.8773 12.1383 25.0688L12.1814 25.1522L12.1872 25.1618L12.2354 25.2421C12.2547 25.2746 12.2755 25.3059 12.2978 25.3361C12.3387 25.3926 12.3828 25.4522 12.4256 25.5028L12.5578 25.6396C12.6045 25.6833 12.6517 25.7233 12.6997 25.7608C12.7681 25.6931 12.84 25.6296 12.9153 25.5707C13.1593 25.3866 13.4243 25.2367 13.7038 25.1246C13.5159 25.0377 13.3498 24.9045 13.219 24.7358C13.0882 24.5672 12.9965 24.3679 12.9513 24.1541C12.9126 23.9431 12.9274 23.7248 12.994 23.522C13.0784 23.2699 13.2236 23.0462 13.4149 22.8736C13.6149 22.6927 13.8325 22.5352 14.0638 22.4037C14.1442 22.3565 14.2246 22.3128 14.3048 22.2715C14.3723 22.2363 14.4396 22.2026 14.5058 22.1715C14.6718 22.0936 14.8311 22.0261 14.9723 21.972C14.9835 21.9677 14.9984 21.9624 15.0106 21.9576C15.0994 21.9238 15.2041 21.8866 15.3204 21.8459C15.4424 21.8035 15.5727 21.7564 15.702 21.7071C15.7753 21.6792 15.8487 21.6517 15.9182 21.6221C16.1141 21.5436 16.3139 21.4519 16.5166 21.3499C16.6392 21.2883 16.7621 21.2238 16.8869 21.1536C16.8911 21.1514 16.8951 21.1491 16.8995 21.1467C17.005 21.0847 17.1141 21.0171 17.2241 20.9458C17.7733 20.6094 18.2513 20.1545 18.6278 19.6099C18.747 19.4289 18.8485 19.2353 18.9308 19.0322C18.9334 19.026 18.936 19.0198 18.9386 19.0139C18.9678 18.9443 18.9925 18.8726 19.0122 18.7993C19.0228 18.7635 19.0335 18.7276 19.0448 18.6928C19.0766 18.5681 19.101 18.4413 19.1179 18.3132C19.1223 18.2862 19.1254 18.2589 19.1272 18.2316C19.1282 18.213 19.1292 18.1944 19.132 18.1685L19.1423 17.9835C19.142 17.9763 19.142 17.9691 19.142 17.9617L19.1367 17.8162Z" fill="var(--fill-0, black)"></path>
<path id="Vector_15" d="M11.5333 15.1691C11.9037 14.927 12.3041 14.7279 12.7259 14.576C12.8251 14.5394 12.9304 14.5085 13.0341 14.4757C12.1299 14.3421 11.249 14.0955 10.4152 13.7425C10.3183 13.6972 10.2262 13.6491 10.1396 13.5998C9.89919 13.4755 9.69037 13.3042 9.5275 13.0975C9.48872 13.0444 9.45646 12.9875 9.43134 12.9277C9.4155 12.8978 9.40413 12.8659 9.39758 12.8331C9.39145 12.7957 9.38973 12.7578 9.39247 12.72L9.39283 12.6968L9.39417 12.6239C9.39417 12.6044 9.39484 12.5859 9.39556 12.5681C9.39556 12.564 9.39587 12.5598 9.39623 12.556L9.3976 12.5401C9.40163 12.4986 9.41209 12.4578 9.42863 12.4191C9.44668 12.3388 9.47722 12.2615 9.51928 12.1895C9.52611 12.179 9.53328 12.1684 9.54105 12.1586C9.5802 12.1071 9.6314 12.0646 9.69077 12.0344C9.83272 11.9683 9.98792 11.9308 10.1464 11.9241C10.1955 11.9206 10.2517 11.9187 10.309 11.9187C10.4211 11.9193 10.533 11.9259 10.6442 11.9385C11.2325 12.6497 12.3162 12.8166 12.6804 12.859C13.1063 12.909 14.648 12.3875 13.5315 10.9224C12.8287 10.0003 11.8112 10.0914 11.1523 10.2851C11.096 10.2774 11.0391 10.2701 10.9773 10.2634C10.6347 10.2275 10.289 10.2246 9.94576 10.2548C9.43462 10.2974 8.94738 10.4764 8.54217 10.7705C8.29488 10.9569 8.09305 11.1905 7.95018 11.4556C7.81633 11.7124 7.72877 11.9882 7.69102 12.2716L7.66374 12.5612L7.68316 12.9364C7.69056 13.0091 7.70252 13.0814 7.71896 13.1527C7.72235 13.1629 7.7251 13.1731 7.72748 13.1833C7.76219 13.3269 7.81342 13.4666 7.88026 13.5999C7.96137 13.7652 8.06154 13.9216 8.17899 14.0665C8.58531 14.5347 9.1077 14.9032 9.7009 15.1403C10.124 15.3182 10.5611 15.4655 11.0083 15.5808C11.1711 15.4305 11.3467 15.2928 11.5333 15.1691Z" fill="var(--fill-0, black)"></path>
</g>
</svg>