<svg preserveAspectRatio="none" width="100%" height="100%" overflow="visible" style="display: block;" viewBox="0 0 46.2319 124.625" fill="none" xmlns="http://www.w3.org/2000/svg">
<g id="Group">
<path id="Vector" d="M4.19713 122.967C2.4934 122.967 1.64701 122.362 1.64701 121.164C1.64701 120.076 2.42744 119.416 3.98828 119.197L6.96703 118.867C9.94582 118.537 12.1332 117.889 13.5511 116.899C14.9691 115.921 15.6726 114.272 15.6726 111.975V18.0395C15.6726 16.072 15.2769 14.709 14.5074 13.9396C13.727 13.1702 12.3421 12.7415 10.3635 12.6316L5.47216 12.137C3.91131 11.9171 3.13089 11.2686 3.13089 10.1695C3.13089 9.07028 3.91131 8.42176 5.47216 8.20193C9.44021 7.54242 12.8367 6.78399 15.6726 5.90465C18.4975 5.0363 20.8387 4.15696 22.6854 3.27762C24.9497 2.18944 26.6424 1.63985 27.7856 1.63985C29.3464 1.63985 30.1269 2.51919 30.1269 4.26688V111.986C30.1269 114.283 30.5885 115.899 31.5118 116.822C32.4352 117.757 34.3807 118.383 37.3485 118.713L42.2399 119.208C43.8007 119.427 44.5812 120.087 44.5812 121.175C44.5812 122.384 43.7348 122.978 42.031 122.978H4.21907L4.19713 122.967Z" fill="var(--fill-0, black)"></path>
<path id="Vector_2" d="M42.0108 124.613H4.19889C0.30778 124.613 0 121.975 0 121.162C0 120.239 0.362712 118.04 3.75919 117.568L6.78195 117.238C9.46396 116.941 11.4315 116.381 12.6076 115.556C13.5639 114.897 14.0256 113.721 14.0256 111.995V18.0375C14.0256 16.004 13.5529 15.3115 13.3441 15.1137C13.0802 14.8499 12.3108 14.3882 10.2663 14.2783L5.30901 13.7837C1.85757 13.3 1.48387 11.1017 1.48387 10.1784C1.48387 9.25505 1.84658 7.0567 5.24307 6.58406C9.07922 5.94654 12.4428 5.1991 15.1907 4.34174C17.9387 3.49538 20.225 2.63802 21.9837 1.80265C24.5228 0.571571 26.3694 0 27.7874 0C30.2495 0 31.7774 1.63777 31.7774 4.27579V111.995C31.7774 113.776 32.0962 115.084 32.6787 115.666C32.9755 115.963 34.0307 116.688 37.5371 117.073L42.4065 117.568C45.8579 118.051 46.2317 120.25 46.2317 121.173C46.2317 121.986 45.9239 124.624 42.0328 124.624L42.0108 124.613ZM3.29755 121.195C3.40747 121.239 3.66029 121.316 4.19889 121.316H42.0108C42.5384 121.316 42.7912 121.239 42.9011 121.195V121.085C42.9011 121.085 42.6703 120.92 41.9888 120.821L37.1634 120.338C33.701 119.953 31.5356 119.206 30.3155 117.974C29.0624 116.721 28.4578 114.754 28.4578 111.973V4.2648C28.4578 3.28653 28.271 3.28653 27.7654 3.28653C27.2598 3.28653 26.0506 3.47339 23.3796 4.75943C21.467 5.67174 19.0379 6.58406 16.136 7.47439C13.2452 8.36472 9.74971 9.15613 5.71571 9.82662C4.93529 9.93654 4.74849 10.1234 4.74849 10.1234L4.77042 10.2333C4.77042 10.2333 5.00127 10.3982 5.68277 10.4971L10.5082 10.9808C12.8495 11.1127 14.5532 11.6952 15.6414 12.7504C16.7625 13.8496 17.3012 15.5753 17.3012 18.0265V111.973C17.3012 114.831 16.3448 116.941 14.4652 118.249C12.8055 119.403 10.3983 120.14 7.12269 120.503L4.14388 120.832C3.45139 120.931 3.26455 121.118 3.26455 121.118V121.195H3.29755Z" fill="var(--fill-0, black)"></path>
</g>
</svg>