<svg preserveAspectRatio="none" width="100%" height="100%" overflow="visible" style="display: block;" viewBox="0 0 18 18" fill="none" xmlns="http://www.w3.org/2000/svg">
<g id="Frame">
<path id="Vector" d="M14.4 2.4H3.6C2.937 2.4 2.4 2.937 2.4 3.6V14.4C2.4 15.063 2.937 15.6 3.6 15.6H14.4C15.063 15.6 15.6 15.063 15.6 14.4V3.6C15.6 2.937 15.063 2.4 14.4 2.4ZM6.5724 13.2H4.8024V7.5048H6.5724V13.2ZM5.6694 6.6906C5.0988 6.6906 4.6374 6.228 4.6374 5.6586C4.6374 5.0892 5.0994 4.6272 5.6694 4.6272C6.2382 4.6272 6.7008 5.0898 6.7008 5.6586C6.7008 6.228 6.2382 6.6906 5.6694 6.6906ZM13.2024 13.2H11.4336V10.4304C11.4336 9.7698 11.4216 8.9202 10.5138 8.9202C9.5928 8.9202 9.4512 9.6396 9.4512 10.3824V13.2H7.6824V7.5048H9.3804V8.283H9.4044C9.6408 7.8354 10.218 7.3632 11.079 7.3632C12.8712 7.3632 13.2024 8.5428 13.2024 10.0764V13.2Z" fill="var(--fill-0, black)"></path>
</g>
</svg>