<svg preserveAspectRatio="none" width="100%" height="100%" overflow="visible" style="display: block;" viewBox="0 0 81.2604 81.2621" fill="none" xmlns="http://www.w3.org/2000/svg">
<g id="GDPR">
<path id="Vector" d="M40.4525 0L41.9495 4.6151H46.8229L42.8892 7.46373L44.3862 12.0629L40.4525 9.21429L36.5187 12.0629L38.0158 7.46373L34.082 4.6151H38.9554L40.4525 0Z" fill="var(--fill-0, #85889C)"></path>
<path id="Vector_2" d="M40.4525 69.1992L41.9495 73.7984H46.8229L42.8892 76.647L44.3862 81.2621L40.4525 78.4135L36.5187 81.2621L38.0158 76.647L34.082 73.7984H38.9554L40.4525 69.1992Z" fill="var(--fill-0, #85889C)"></path>
<path id="Vector_3" d="M64.7103 58.3906L66.2233 62.9898H71.0807L67.147 65.8384L68.6599 70.4535L64.7103 67.6049L60.7765 70.4535L62.2895 65.8384L58.3398 62.9898H63.2132L64.7103 58.3906Z" fill="var(--fill-0, #85889C)"></path>
<path id="Vector_4" d="M16.5267 58.3906L18.0397 62.9898H22.913L18.9634 65.8384L20.4764 70.4535L16.5267 67.6049L12.5929 70.4535L14.1059 65.8384L10.1562 62.9898H15.0296L16.5267 58.3906Z" fill="var(--fill-0, #85889C)"></path>
<path id="Vector_5" d="M64.7103 10.3438L66.2233 14.9588H71.0807L67.147 17.8075L68.6599 22.4226L64.7103 19.5739L60.7765 22.4226L62.2895 17.8075L58.3398 14.9588H63.2132L64.7103 10.3438Z" fill="var(--fill-0, #85889C)"></path>
<path id="Vector_6" d="M16.5267 10.3438L18.0397 14.9588H22.913L18.9634 17.8075L20.4764 22.4226L16.5267 19.5739L12.5929 22.4226L14.1059 17.8075L10.1562 14.9588H15.0296L16.5267 10.3438Z" fill="var(--fill-0, #85889C)"></path>
<path id="Vector_7" d="M74.89 34.8398L76.4029 39.439H81.2604L77.3267 42.2877L78.8237 46.9028L74.89 44.0541L70.9562 46.9028L72.4533 42.2877L68.5195 39.439H73.3929L74.89 34.8398Z" fill="var(--fill-0, #85889C)"></path>
<path id="Vector_8" d="M6.37043 34.8398L7.86748 39.439H12.7409L8.80712 42.2877L10.3042 46.9028L6.37043 44.0541L2.43669 46.9028L3.93374 42.2877L0 39.439H4.85745L6.37043 34.8398Z" fill="var(--fill-0, #85889C)"></path>
</g>
</svg>