<svg preserveAspectRatio="none" width="100%" height="100%" overflow="visible" style="display: block;" viewBox="0 0 43.4649 27.888" fill="none" xmlns="http://www.w3.org/2000/svg">
<g id="Group">
<path id="Vector" d="M30.452 8.78707C30.4467 8.78184 26.5175 3.76841 21.5537 6.11968C20.7307 6.50895 20.0306 6.97398 19.4219 7.49909C21.3708 9.16589 22.8364 10.9607 23.7064 12.7999L24.033 13.6307C25.4777 11.0861 27.1837 9.50551 33.2474 8.93337C40.0608 8.29069 43.303 9.43236 43.4649 9.3148C41.8347 8.20186 34.1147 8.0843 30.452 8.78707Z" fill="var(--fill-0, black)"></path>
<path id="Vector_2" d="M10.6119 24.8653C10.8157 24.5988 10.9803 24.3219 11.0325 24.0423C11.09 23.7628 11.0639 23.478 10.9411 23.1802C10.8209 22.885 10.6093 22.5976 10.3689 22.3259C10.3323 22.2867 10.2879 22.2501 10.2487 22.2109C8.54276 25.1683 6.0687 27.5875 5.75781 27.888C5.7761 27.8827 5.797 27.8749 5.81529 27.8697C6.18627 27.7077 6.55202 27.5431 6.91516 27.3733C7.62316 27.0389 8.30764 26.6705 8.95032 26.2656C9.58516 25.8554 10.2017 25.4008 10.6119 24.8653Z" fill="var(--fill-0, black)"></path>
<path id="Vector_3" d="M0 0C0.0522505 0.0182877 0.125401 0.0470255 0.214227 0.0809883C0.143689 0.054863 0.0783758 0.0287378 0.00783758 0.00261253C2.99918 2.02471 5.20938 5.51504 5.97223 9.66373C7.35687 10.1497 9.10204 10.9177 10.9282 12.1482C11.1241 12.2606 11.3227 12.3703 11.516 12.4879C12.2188 12.9242 12.9006 13.397 13.5616 13.9065C14.2147 14.4264 14.8418 14.9854 15.427 15.5994C16.0069 16.2186 16.5451 16.89 16.9945 17.6398C17.3994 18.3295 17.7364 19.0897 17.9141 19.9101C18.0343 20.396 18.0787 20.8845 18.0212 21.3678C17.9872 21.893 17.8775 22.4129 17.6711 22.8857C17.3237 23.7505 16.7567 24.4585 16.1428 25.0646C15.3251 25.8431 14.4133 26.4544 13.4623 26.9639C13.7288 26.8829 14.0057 26.7941 14.2905 26.6948C13.9875 26.8045 13.6949 26.9012 13.4127 26.99C13.3761 27.0109 13.3396 27.0292 13.303 27.0475C18.8938 25.4982 22.7682 22.5278 23.5023 18.5698C24.9026 11.0249 14.395 2.7327 0 0ZM16.5634 25.6628C16.5451 25.6733 16.5294 25.6837 16.5112 25.6942C16.5294 25.6837 16.5477 25.6733 16.5634 25.6628ZM17.0154 25.3937C16.9501 25.4355 16.8848 25.4747 16.8168 25.5139C16.8821 25.4747 16.9475 25.4355 17.0154 25.3937Z" fill="var(--fill-0, black)"></path>
<path id="Vector_4" d="M16.5373 21.5736C16.9214 18.2296 12.2632 14.9482 10.8211 13.9346C9.14651 12.7537 7.51629 12.0379 6.21264 11.5938C6.24138 12.0091 6.25967 12.4271 6.25967 12.8504C6.25967 14.4153 6.05589 15.9227 5.67969 17.3387C10.0452 19.5567 13.1149 22.0778 12.7413 24.0764C12.2789 26.5583 7.71746 27.8384 7.73574 27.875C7.75926 27.9194 16.0488 25.798 16.5373 21.5736Z" fill="var(--fill-0, black)"></path>
</g>
</svg>