<svg preserveAspectRatio="none" width="100%" height="100%" overflow="visible" style="display: block;" viewBox="0 0 164 164" fill="none" xmlns="http://www.w3.org/2000/svg">
<path id="Ellipse 2603 (Stroke)" d="M82.0049 160C83.1094 160 84.0048 160.895 84.0049 162C84.0049 163.105 83.1094 164 82.0049 164H81.9951C80.8906 164 79.9951 163.105 79.9951 162C79.9952 160.895 80.8906 160 81.9951 160H82.0049ZM64.4199 160.088C64.6344 159.004 65.687 158.3 66.7705 158.515C66.7736 158.515 66.7772 158.516 66.7803 158.517C67.8636 158.731 68.5678 159.783 68.3535 160.866C68.1392 161.95 67.0874 162.655 66.0039 162.44C66.0007 162.44 65.9974 162.439 65.9941 162.438C64.9106 162.224 64.2055 161.171 64.4199 160.088ZM97.2295 158.515C98.313 158.3 99.3656 159.004 99.5801 160.088C99.7945 161.171 99.0894 162.224 98.0059 162.438C98.0026 162.439 97.9993 162.44 97.9961 162.44C96.9126 162.655 95.8608 161.95 95.6465 160.866C95.4322 159.783 96.1364 158.731 97.2197 158.517C97.2228 158.516 97.2264 158.515 97.2295 158.515ZM49.5254 155.161C49.9487 154.141 51.1185 153.657 52.1387 154.08C52.1416 154.081 52.1445 154.083 52.1475 154.084C53.1678 154.507 53.6516 155.677 53.2285 156.697C52.8055 157.718 51.6356 158.202 50.6152 157.779C50.6123 157.778 50.6094 157.777 50.6064 157.775C49.5862 157.352 49.1022 156.181 49.5254 155.161ZM111.861 154.08C112.881 153.657 114.051 154.141 114.475 155.161C114.898 156.181 114.414 157.352 113.394 157.775C113.391 157.777 113.388 157.778 113.385 157.779C112.364 158.202 111.195 157.718 110.771 156.697C110.348 155.677 110.832 154.507 111.853 154.084C111.855 154.083 111.858 154.081 111.861 154.08ZM35.8848 147.41C36.4993 146.492 37.7414 146.246 38.6592 146.86C38.6618 146.862 38.6644 146.864 38.667 146.866C39.5849 147.481 39.8312 148.723 39.2168 149.641C38.6024 150.558 37.3602 150.805 36.4424 150.19C36.4396 150.189 36.4364 150.186 36.4336 150.185C35.516 149.57 35.2705 148.328 35.8848 147.41ZM125.341 146.86C126.259 146.246 127.501 146.492 128.115 147.41C128.73 148.328 128.484 149.57 127.566 150.185C127.564 150.186 127.56 150.189 127.558 150.19C126.64 150.805 125.398 150.558 124.783 149.641C124.169 148.723 124.415 147.481 125.333 146.866C125.336 146.864 125.338 146.862 125.341 146.86ZM24.0137 137.15C24.7948 136.369 26.0618 136.37 26.8428 137.151C26.8449 137.153 26.8465 137.156 26.8486 137.158C27.6297 137.939 27.6305 139.205 26.8496 139.986C26.0686 140.767 24.8016 140.767 24.0205 139.986C24.0182 139.984 24.0159 139.982 24.0137 139.979C23.2327 139.198 23.2326 137.931 24.0137 137.15ZM137.158 137.151C137.939 136.37 139.205 136.369 139.986 137.15C140.767 137.931 140.767 139.198 139.986 139.979L139.979 139.986C139.198 140.767 137.931 140.767 137.15 139.986C136.369 139.205 136.37 137.939 137.151 137.158L137.158 137.151ZM14.3594 124.783C15.2773 124.169 16.5194 124.415 17.1338 125.333C17.1355 125.336 17.1379 125.338 17.1396 125.341C17.7539 126.259 17.5076 127.501 16.5898 128.115C15.6721 128.73 14.4299 128.484 13.8154 127.566C13.8136 127.564 13.8114 127.56 13.8096 127.558C13.1954 126.64 13.4417 125.398 14.3594 124.783ZM146.866 125.333C147.481 124.415 148.723 124.169 149.641 124.783C150.558 125.398 150.805 126.64 150.19 127.558C150.189 127.56 150.186 127.564 150.185 127.566C149.57 128.484 148.328 128.73 147.41 128.115C146.492 127.501 146.246 126.259 146.86 125.341C146.862 125.338 146.864 125.336 146.866 125.333ZM7.30273 110.771C8.32308 110.348 9.49297 110.832 9.91602 111.853C9.91723 111.855 9.9187 111.858 9.91992 111.861C10.343 112.881 9.85886 114.051 8.83887 114.475C7.81857 114.898 6.64778 114.414 6.22461 113.394C6.22338 113.391 6.22193 113.388 6.2207 113.385C5.79766 112.364 6.28241 111.195 7.30273 110.771ZM154.084 111.853C154.507 110.832 155.677 110.348 156.697 110.771C157.718 111.195 158.202 112.364 157.779 113.385C157.778 113.388 157.777 113.391 157.775 113.394C157.352 114.414 156.181 114.898 155.161 114.475C154.141 114.051 153.657 112.881 154.08 111.861C154.081 111.858 154.083 111.855 154.084 111.853ZM3.13379 95.6465C4.21721 95.4322 5.26889 96.1364 5.4834 97.2197C5.48401 97.2228 5.48474 97.2264 5.48535 97.2295C5.69977 98.313 4.99561 99.3656 3.91211 99.5801C2.82855 99.7945 1.77595 99.0894 1.56152 98.0059C1.56089 98.0026 1.56021 97.9993 1.55957 97.9961C1.34535 96.9126 2.05026 95.8608 3.13379 95.6465ZM158.517 97.2197C158.731 96.1364 159.783 95.4322 160.866 95.6465C161.95 95.8608 162.655 96.9126 162.44 97.9961C162.44 97.9993 162.439 98.0026 162.438 98.0059C162.224 99.0894 161.171 99.7945 160.088 99.5801C159.004 99.3656 158.3 98.313 158.515 97.2295C158.515 97.2264 158.516 97.2228 158.517 97.2197ZM0 82.0049V81.9951C6.6874e-05 80.8906 0.895486 79.9951 2 79.9951C3.10455 79.9952 4.00003 80.8906 4 81.9951V82.0049C4.00003 83.1094 3.10455 84.0048 2 84.0049C0.895486 84.0049 6.67548e-05 83.1094 0 82.0049ZM160 82.0049V81.9951C160 80.8906 160.895 79.9952 162 79.9951C163.105 79.9951 164 80.8906 164 81.9951V82.0049C164 83.1094 163.105 84.0049 162 84.0049C160.895 84.0048 160 83.1094 160 82.0049ZM1.56152 65.9941C1.77595 64.9106 2.82855 64.2055 3.91211 64.4199C4.99561 64.6344 5.69977 65.687 5.48535 66.7705C5.48474 66.7736 5.48401 66.7772 5.4834 66.7803C5.26889 67.8636 4.21721 68.5678 3.13379 68.3535C2.05026 68.1392 1.34535 67.0874 1.55957 66.0039C1.56021 66.0007 1.56089 65.9974 1.56152 65.9941ZM160.088 64.4199C161.171 64.2055 162.224 64.9106 162.438 65.9941C162.439 65.9974 162.44 66.0007 162.44 66.0039C162.655 67.0874 161.95 68.1392 160.866 68.3535C159.783 68.5678 158.731 67.8636 158.517 66.7803C158.516 66.7772 158.515 66.7736 158.515 66.7705C158.3 65.687 159.004 64.6344 160.088 64.4199ZM6.22461 50.6064C6.64778 49.5862 7.81857 49.1022 8.83887 49.5254C9.85886 49.9487 10.343 51.1185 9.91992 52.1387C9.9187 52.1416 9.91723 52.1445 9.91602 52.1475C9.49297 53.1678 8.32308 53.6516 7.30273 53.2285C6.28241 52.8055 5.79766 51.6356 6.2207 50.6152C6.22193 50.6123 6.22338 50.6094 6.22461 50.6064ZM155.161 49.5254C156.181 49.1022 157.352 49.5862 157.775 50.6064C157.777 50.6094 157.778 50.6123 157.779 50.6152C158.202 51.6356 157.718 52.8055 156.697 53.2285C155.677 53.6516 154.507 53.1678 154.084 52.1475C154.083 52.1445 154.081 52.1416 154.08 52.1387C153.657 51.1185 154.141 49.9487 155.161 49.5254ZM13.8154 36.4336C14.4299 35.516 15.6721 35.2705 16.5898 35.8848C17.5076 36.4993 17.7539 37.7414 17.1396 38.6592C17.1379 38.6618 17.1355 38.6644 17.1338 38.667C16.5194 39.5849 15.2773 39.8312 14.3594 39.2168C13.4417 38.6024 13.1954 37.3602 13.8096 36.4424C13.8114 36.4396 13.8136 36.4364 13.8154 36.4336ZM147.41 35.8848C148.328 35.2705 149.57 35.516 150.185 36.4336C150.186 36.4364 150.189 36.4396 150.19 36.4424C150.805 37.3602 150.558 38.6024 149.641 39.2168C148.723 39.8312 147.481 39.5849 146.866 38.667C146.864 38.6644 146.862 38.6618 146.86 38.6592C146.246 37.7414 146.492 36.4993 147.41 35.8848ZM24.0205 24.0137C24.8016 23.2327 26.0686 23.2326 26.8496 24.0137C27.6305 24.7948 27.6297 26.0618 26.8486 26.8428L26.8428 26.8486C26.0618 27.6297 24.7948 27.6305 24.0137 26.8496C23.2326 26.0686 23.2327 24.8016 24.0137 24.0205L24.0205 24.0137ZM137.15 24.0137C137.931 23.2326 139.198 23.2327 139.979 24.0137C139.982 24.0159 139.984 24.0182 139.986 24.0205C140.767 24.8016 140.767 26.0686 139.986 26.8496C139.205 27.6305 137.939 27.6297 137.158 26.8486C137.156 26.8465 137.153 26.8449 137.151 26.8428C136.37 26.0618 136.369 24.7948 137.15 24.0137ZM36.4424 13.8096C37.3602 13.1954 38.6024 13.4417 39.2168 14.3594C39.8312 15.2773 39.5849 16.5194 38.667 17.1338C38.6644 17.1355 38.6618 17.1379 38.6592 17.1396C37.7414 17.7539 36.4993 17.5076 35.8848 16.5898C35.2705 15.6721 35.516 14.43 36.4336 13.8154C36.4364 13.8136 36.4396 13.8114 36.4424 13.8096ZM124.783 14.3594C125.398 13.4417 126.64 13.1954 127.558 13.8096C127.56 13.8114 127.564 13.8136 127.566 13.8154C128.484 14.4299 128.73 15.6721 128.115 16.5898C127.501 17.5076 126.259 17.754 125.341 17.1396C125.338 17.1379 125.336 17.1355 125.333 17.1338C124.415 16.5194 124.169 15.2773 124.783 14.3594ZM50.6152 6.2207C51.6356 5.79766 52.8055 6.28241 53.2285 7.30273C53.6516 8.32308 53.1678 9.49297 52.1475 9.91602C52.1445 9.91723 52.1416 9.9187 52.1387 9.91992C51.1185 10.343 49.9487 9.85886 49.5254 8.83887C49.1022 7.81857 49.5862 6.64778 50.6064 6.22461C50.6094 6.22338 50.6123 6.22193 50.6152 6.2207ZM110.771 7.30273C111.195 6.28241 112.364 5.79766 113.385 6.2207C113.388 6.22193 113.391 6.22338 113.394 6.22461C114.414 6.64778 114.898 7.81857 114.475 8.83887C114.051 9.85886 112.881 10.343 111.861 9.91992C111.858 9.9187 111.855 9.91723 111.853 9.91602C110.832 9.49297 110.348 8.32308 110.771 7.30273ZM66.0039 1.55957C67.0874 1.34535 68.1392 2.05026 68.3535 3.13379C68.5678 4.21721 67.8636 5.26889 66.7803 5.4834C66.7772 5.48401 66.7736 5.48474 66.7705 5.48535C65.687 5.69977 64.6344 4.99561 64.4199 3.91211C64.2055 2.82855 64.9106 1.77595 65.9941 1.56152C65.9974 1.56089 66.0007 1.56021 66.0039 1.55957ZM95.6465 3.13379C95.8608 2.05026 96.9126 1.34535 97.9961 1.55957C97.9993 1.56021 98.0026 1.56089 98.0059 1.56152C99.0894 1.77595 99.7945 2.82855 99.5801 3.91211C99.3656 4.99561 98.313 5.69977 97.2295 5.48535C97.2264 5.48474 97.2228 5.48401 97.2197 5.4834C96.1364 5.26889 95.4322 4.21721 95.6465 3.13379ZM82.0049 0C83.1094 6.6874e-05 84.0049 0.895486 84.0049 2C84.0048 3.10455 83.1094 4.00003 82.0049 4H81.9951C80.8906 4.00003 79.9952 3.10455 79.9951 2C79.9951 0.895486 80.8906 6.67548e-05 81.9951 0H82.0049Z" fill="var(--fill-0, black)"/>
</svg>
