<svg width="249" height="185" viewBox="0 0 249 185" fill="none" xmlns="http://www.w3.org/2000/svg" xmlns:xlink="http://www.w3.org/1999/xlink">
<rect x="45.2695" y="109.719" width="45.2698" height="35.3919" rx="17.696" transform="rotate(180 45.2695 109.719)" fill="url(#paint0_linear_6748_3568)"/>
<rect x="96.2031" y="127.414" width="45.2698" height="70.7839" rx="22.6349" transform="rotate(180 96.2031 127.414)" fill="url(#paint1_linear_6748_3568)"/>
<rect x="147.137" y="145.109" width="45.2698" height="106.176" rx="22.6349" transform="rotate(180 147.137 145.109)" fill="url(#paint2_linear_6748_3568)"/>
<rect x="198.066" y="162.805" width="45.2698" height="141.568" rx="22.6349" transform="rotate(180 198.066 162.805)" fill="url(#paint3_linear_6748_3568)"/>
<rect x="249" y="184.039" width="45.2698" height="184.038" rx="22.6349" transform="rotate(180 249 184.039)" fill="url(#paint4_linear_6748_3568)"/>
<rect x="45.2695" y="109.719" width="45.2698" height="35.3919" rx="17.696" transform="rotate(180 45.2695 109.719)" fill="url(#pattern0_6748_3568)"/>
<rect x="96.2031" y="127.414" width="45.2698" height="70.7839" rx="22.6349" transform="rotate(180 96.2031 127.414)" fill="url(#pattern1_6748_3568)"/>
<rect x="147.137" y="145.109" width="45.2698" height="106.176" rx="22.6349" transform="rotate(180 147.137 145.109)" fill="url(#pattern2_6748_3568)"/>
<rect x="198.066" y="162.805" width="45.2698" height="141.568" rx="22.6349" transform="rotate(180 198.066 162.805)" fill="url(#pattern3_6748_3568)"/>
<rect x="249" y="184.039" width="45.2698" height="184.038" rx="22.6349" transform="rotate(180 249 184.039)" fill="url(#pattern4_6748_3568)"/>
<defs>
<linearGradient id="paint0_linear_6748_3568" x1="67.9044" y1="109.719" x2="67.9044" y2="145.111" gradientUnits="userSpaceOnUse">
<stop offset="0.216346" stop-color="#FAFFEB" stop-opacity="0"/>
<stop offset="1" stop-color="#D8F95D"/>
</linearGradient>
<linearGradient id="paint1_linear_6748_3568" x1="118.838" y1="127.414" x2="118.838" y2="198.198" gradientUnits="userSpaceOnUse">
<stop offset="0.216346" stop-color="#FAFFEB" stop-opacity="0"/>
<stop offset="1" stop-color="#D8F95D"/>
</linearGradient>
<linearGradient id="paint2_linear_6748_3568" x1="169.772" y1="145.109" x2="169.772" y2="251.285" gradientUnits="userSpaceOnUse">
<stop offset="0.216346" stop-color="#FAFFEB" stop-opacity="0"/>
<stop offset="1" stop-color="#D8F95D"/>
</linearGradient>
<linearGradient id="paint3_linear_6748_3568" x1="220.701" y1="162.805" x2="220.701" y2="304.372" gradientUnits="userSpaceOnUse">
<stop offset="0.216346" stop-color="#FAFFEB" stop-opacity="0"/>
<stop offset="1" stop-color="#D8F95D"/>
</linearGradient>
<linearGradient id="paint4_linear_6748_3568" x1="271.635" y1="184.039" x2="271.635" y2="368.077" gradientUnits="userSpaceOnUse">
<stop offset="0.216346" stop-color="#FAFFEB" stop-opacity="0"/>
<stop offset="1" stop-color="#D8F95D"/>
</linearGradient>
<pattern id="pattern0_6748_3568" patternUnits="userSpaceOnUse" patternTransform="matrix(9 0 0 9 45.2695 109.719)" preserveAspectRatio="none" viewBox="0 0 9 9" width="1" height="1">
<g id="pattern0_6748_3568_inner">
<circle cx="1.5" cy="1.5" r="1.5" fill="#D8F95D"/>
</g>
</pattern><pattern id="pattern1_6748_3568" patternUnits="userSpaceOnUse" patternTransform="matrix(9 0 0 9 96.2031 127.414)" preserveAspectRatio="none" viewBox="0 0 9 9" width="1" height="1">
<g id="pattern1_6748_3568_inner">
<circle cx="1.5" cy="1.5" r="1.5" fill="#D8F95D"/>
</g>
</pattern><pattern id="pattern2_6748_3568" patternUnits="userSpaceOnUse" patternTransform="matrix(9 0 0 9 147.137 145.109)" preserveAspectRatio="none" viewBox="0 0 9 9" width="1" height="1">
<g id="pattern2_6748_3568_inner">
<circle cx="1.5" cy="1.5" r="1.5" fill="#D8F95D"/>
</g>
</pattern><pattern id="pattern3_6748_3568" patternUnits="userSpaceOnUse" patternTransform="matrix(9 0 0 9 198.066 162.805)" preserveAspectRatio="none" viewBox="0 0 9 9" width="1" height="1">
<g id="pattern3_6748_3568_inner">
<circle cx="1.5" cy="1.5" r="1.5" fill="#D8F95D"/>
</g>
</pattern><pattern id="pattern4_6748_3568" patternUnits="userSpaceOnUse" patternTransform="matrix(9 0 0 9 249 184.039)" preserveAspectRatio="none" viewBox="0 0 9 9" width="1" height="1">
<g id="pattern4_6748_3568_inner">
<circle cx="1.5" cy="1.5" r="1.5" fill="#D8F95D"/>
</g>
</pattern></defs>
</svg>
