<svg preserveAspectRatio="none" width="100%" height="100%" overflow="visible" style="display: block;" viewBox="0 0 42 42" fill="none" xmlns="http://www.w3.org/2000/svg">
<path id="Ellipse 2609 (Stroke)" d="M21.0049 40C21.5571 40 22.0048 40.4478 22.0049 41C22.0049 41.5522 21.5571 41.9999 21.0049 42H20.9951C20.4429 41.9999 19.9951 41.5522 19.9951 41C19.9953 40.4478 20.4429 40 20.9951 40H21.0049ZM12.416 39.0977C12.6276 38.5877 13.2126 38.3452 13.7227 38.5566C13.7255 38.5578 13.7286 38.5594 13.7314 38.5605C14.2417 38.772 14.4839 39.357 14.2725 39.8672C14.061 40.3773 13.476 40.6196 12.9658 40.4082C12.9627 40.4069 12.9592 40.4056 12.9561 40.4043C12.4463 40.1926 12.2047 39.6076 12.416 39.0977ZM28.2773 38.5566C28.7874 38.3452 29.3724 38.5877 29.584 39.0977C29.7953 39.6076 29.5537 40.1926 29.0439 40.4043C29.0408 40.4056 29.0373 40.4069 29.0342 40.4082C28.524 40.6196 27.939 40.3773 27.7275 39.8672C27.5161 39.357 27.7583 38.772 28.2686 38.5605C28.2714 38.5594 28.2745 38.5578 28.2773 38.5566ZM6.14746 34.4316C6.53804 34.0413 7.17108 34.0411 7.56152 34.4316C7.56372 34.4338 7.56616 34.4363 7.56836 34.4385C7.95886 34.8289 7.95875 35.462 7.56836 35.8525C7.17792 36.243 6.54487 36.2429 6.1543 35.8525C6.15202 35.8503 6.14974 35.848 6.14746 35.8457C5.75707 35.4551 5.75697 34.8221 6.14746 34.4316ZM34.4385 34.4316C34.8289 34.0411 35.462 34.0413 35.8525 34.4316C36.243 34.8221 36.2429 35.4551 35.8525 35.8457L35.8457 35.8525C35.4551 36.2429 34.8221 36.243 34.4316 35.8525C34.0413 35.462 34.0411 34.8289 34.4316 34.4385L34.4385 34.4316ZM2.13281 27.7275C2.64302 27.5161 3.22802 27.7583 3.43945 28.2686C3.44063 28.2714 3.44218 28.2745 3.44336 28.2773C3.65476 28.7874 3.41232 29.3724 2.90234 29.584C2.39242 29.7953 1.80743 29.5537 1.5957 29.0439C1.5944 29.0408 1.5931 29.0373 1.5918 29.0342C1.38039 28.524 1.62269 27.939 2.13281 27.7275ZM38.5605 28.2686C38.772 27.7583 39.357 27.5161 39.8672 27.7275C40.3773 27.939 40.6196 28.524 40.4082 29.0342C40.4069 29.0373 40.4056 29.0408 40.4043 29.0439C40.1926 29.5537 39.6076 29.7953 39.0977 29.584C38.5877 29.3724 38.3452 28.7874 38.5566 28.2773C38.5578 28.2745 38.5594 28.2714 38.5605 28.2686ZM0 21.0049V20.9951C0.000133197 20.4429 0.447826 19.9951 1 19.9951C1.55222 19.9953 2.00003 20.4429 2 20.9951V21.0049C2.00003 21.5571 1.55222 22.0048 1 22.0049C0.447826 22.0049 0.000133257 21.5571 0 21.0049ZM40 21.0049V20.9951C40 20.4429 40.4478 19.9952 41 19.9951C41.5522 19.9951 41.9999 20.4429 42 20.9951V21.0049C41.9999 21.5571 41.5522 22.0049 41 22.0049C40.4478 22.0047 40 21.5571 40 21.0049ZM1.5957 12.9561C1.80743 12.4463 2.39242 12.2047 2.90234 12.416C3.41232 12.6276 3.65476 13.2126 3.44336 13.7227C3.44218 13.7255 3.44063 13.7286 3.43945 13.7314C3.22802 14.2417 2.64302 14.4839 2.13281 14.2725C1.62269 14.061 1.38039 13.476 1.5918 12.9658C1.5931 12.9627 1.5944 12.9592 1.5957 12.9561ZM39.0977 12.416C39.6076 12.2047 40.1926 12.4463 40.4043 12.9561C40.4056 12.9592 40.4069 12.9627 40.4082 12.9658C40.6196 13.476 40.3773 14.061 39.8672 14.2725C39.357 14.4839 38.772 14.2417 38.5605 13.7314C38.5594 13.7286 38.5578 13.7255 38.5566 13.7227C38.3452 13.2126 38.5877 12.6276 39.0977 12.416ZM6.1543 6.14746C6.54487 5.75707 7.17792 5.75697 7.56836 6.14746C7.95875 6.53804 7.95886 7.17108 7.56836 7.56152C7.56616 7.56372 7.56372 7.56616 7.56152 7.56836C7.17108 7.95886 6.53804 7.95875 6.14746 7.56836C5.75697 7.17792 5.75707 6.54487 6.14746 6.1543C6.14974 6.15202 6.15202 6.14974 6.1543 6.14746ZM34.4316 6.14746C34.8221 5.75697 35.4551 5.75707 35.8457 6.14746C35.848 6.14974 35.8503 6.15202 35.8525 6.1543C36.2429 6.54487 36.243 7.17792 35.8525 7.56836C35.462 7.95875 34.8289 7.95886 34.4385 7.56836C34.4363 7.56616 34.4338 7.56372 34.4316 7.56152C34.0411 7.17108 34.0413 6.53804 34.4316 6.14746ZM12.9658 1.5918C13.476 1.38039 14.061 1.62269 14.2725 2.13281C14.4839 2.64302 14.2417 3.22802 13.7314 3.43945C13.7286 3.44063 13.7255 3.44218 13.7227 3.44336C13.2126 3.65476 12.6276 3.41232 12.416 2.90234C12.2047 2.39242 12.4463 1.80743 12.9561 1.5957C12.9592 1.5944 12.9627 1.5931 12.9658 1.5918ZM27.7275 2.13281C27.939 1.62269 28.524 1.38039 29.0342 1.5918C29.0373 1.5931 29.0408 1.5944 29.0439 1.5957C29.5537 1.80743 29.7953 2.39242 29.584 2.90234C29.3724 3.41232 28.7874 3.65476 28.2773 3.44336C28.2745 3.44218 28.2714 3.44063 28.2686 3.43945C27.7583 3.22802 27.5161 2.64302 27.7275 2.13281ZM21.0049 0C21.5571 0.000133197 22.0049 0.447826 22.0049 1C22.0047 1.55222 21.5571 2.00003 21.0049 2H20.9951C20.4429 2.00003 19.9952 1.55222 19.9951 1C19.9951 0.447826 20.4429 0.000133257 20.9951 0H21.0049Z" fill="var(--fill-0, black)"/>
</svg>
