<svg preserveAspectRatio="none" width="100%" height="100%" overflow="visible" style="display: block;" viewBox="0 0 183.121 25.4954" fill="none" xmlns="http://www.w3.org/2000/svg">
<g id="Layer_1-2">
<path id="Vector" d="M14.6688 2.1952L12.6416 4.58034C11.407 3.56492 10.1177 3.10104 8.66758 3.10104C7.54258 3.10104 6.58561 3.42977 5.92449 4.06167C4.63513 5.29624 4.3064 7.35265 4.3064 10.2017C4.3064 13.0507 4.77393 14.6688 5.7309 15.6294C6.44316 16.3161 7.48414 16.696 8.71872 16.696C9.56977 16.696 10.2528 16.5608 10.8847 16.2321V11.9001H7.97724L7.48414 8.7735H14.8587V17.8757C12.9119 19.0263 10.7751 19.5742 8.52513 19.5742C5.67246 19.5742 3.56492 18.6428 2.02718 16.6704C0.628244 14.8879 0 12.8607 0 10.0081C0 5.97928 1.31493 3.12661 3.97401 1.34415C5.37295 0.412742 6.79746 0 8.60548 0C10.9103 0.00365258 12.9959 0.741474 14.6688 2.1952Z" fill="var(--fill-0, black)"></path>
<path id="Vector_2" d="M16.5625 5.86881L19.8535 4.99219C20.1822 5.5693 20.3721 6.19754 20.4269 6.9938C20.9493 6.28155 21.8259 5.54007 22.5089 5.21134C22.8084 5.07254 23.3052 4.99219 23.7143 4.99219C24.2621 4.99219 24.5105 5.04698 25.084 5.2917L24.0686 8.52789C23.7143 8.3343 23.4111 8.25394 22.9983 8.25394C22.1765 8.25394 21.435 8.63746 20.752 9.43373V19.3578H17.0848V9.98161C17.0848 8.08958 16.8657 6.66507 16.5625 5.86881Z" fill="var(--fill-0, black)"></path>
<path id="Vector_3" d="M28.7397 10.8211H32.9877V10.6567C32.9877 9.61575 32.8781 9.06786 32.5494 8.54554C32.1951 7.99765 31.6728 7.72371 30.9313 7.72371C29.5323 7.72371 28.7397 8.81949 28.7397 10.7663V10.8211ZM35.2121 15.6206L36.6366 17.8121C35.0185 19.1307 33.3201 19.759 31.344 19.759C27.3152 19.759 24.7109 16.91 24.7109 12.494C24.7109 9.9737 25.2333 8.30082 26.4642 6.9311C27.6147 5.64174 29.0137 5.03906 30.8801 5.03906C32.4982 5.03906 34.0323 5.58695 34.9382 6.51836C36.2275 7.83329 36.801 9.72533 36.801 12.6583V13.5094H28.6886V13.619C28.6886 15.785 29.7588 17.0195 31.6508 17.0195C32.9073 17.0159 34.0871 16.552 35.2121 15.6206Z" fill="var(--fill-0, black)"></path>
<path id="Vector_4" d="M42.4543 10.8211H46.7023V10.6567C46.7023 9.61575 46.5927 9.06786 46.264 8.54554C45.9097 7.99765 45.3874 7.72371 44.6459 7.72371C43.2469 7.72371 42.4543 8.81949 42.4543 10.7663V10.8211ZM48.923 15.6206L50.3476 17.8121C48.7295 19.1307 47.031 19.759 45.055 19.759C41.0262 19.759 38.4219 16.91 38.4219 12.494C38.4219 9.9737 38.9442 8.30082 40.1751 6.9311C41.3257 5.64174 42.7246 5.03906 44.5911 5.03906C46.2092 5.03906 47.7433 5.58695 48.6491 6.51836C49.9385 7.83329 50.5119 9.72533 50.5119 12.6583V13.5094H42.3995V13.619C42.3995 15.785 43.4697 17.0195 45.3618 17.0195C46.6219 17.0159 47.8017 16.552 48.923 15.6206Z" fill="var(--fill-0, black)"></path>
<path id="Vector_5" d="M52.0234 5.89235L55.2852 4.96094C55.6139 5.53439 55.8075 6.14072 55.8075 6.71418C56.6586 6.1115 56.8193 6.00192 57.4256 5.67319C58.1671 5.28967 59.1241 5.07051 59.9459 5.07051C61.5092 5.07051 62.8789 5.89235 63.3172 7.0977C63.5108 7.61636 63.5912 8.22269 63.5912 9.09931V19.3521H59.9715V10.2207C59.9715 8.63178 59.6975 8.16425 58.7369 8.16425C57.9954 8.16425 57.0384 8.65735 56.1874 9.42439V19.3485H52.5129V9.17967C52.5165 7.97432 52.3558 6.82375 52.0234 5.89235Z" fill="var(--fill-0, black)"></path>
<path id="Vector_6" d="M64.9453 5.62003L68.5906 5.21094L69.7411 10.5547C70.0954 12.1728 70.5374 14.9122 70.5374 14.9122C70.5374 14.9122 70.8661 12.4175 71.5528 10.0323L72.8678 5.37165H76.3195L77.4444 9.94834C78.0727 12.5526 78.4854 14.9085 78.4854 14.9085C78.5694 14.3059 78.869 12.1143 79.2525 10.3319L80.3227 5.37165H84.1031L80.0999 19.3537H76.7285L75.4684 14.5287C75.1945 13.4037 74.8657 12.0595 74.6721 11.1281C74.5626 10.4707 74.5333 10.2771 74.453 9.72918C74.3726 10.3319 74.3434 10.5254 74.1242 11.5372C73.6019 13.8676 72.9445 16.3623 72.9189 16.4718L72.2066 19.3501H68.7805L64.9453 5.62003Z" fill="var(--fill-0, black)"></path>
<path id="Vector_7" d="M92.041 13.2162H91.8766C89.3271 13.2162 88.4505 13.6837 88.4505 15.3529C88.4505 16.4487 89.1372 17.1902 90.0686 17.1902C90.7553 17.1902 91.4383 16.8322 91.9862 16.2296L92.041 13.2162ZM84.8308 6.99583C85.7366 6.41872 86.1201 6.22879 87.1063 5.84527C88.476 5.26816 89.6558 5.02344 90.9452 5.02344C93.3011 5.02344 94.9192 5.90006 95.4671 7.46336C95.6607 8.04047 95.7155 8.47878 95.7155 9.9873L95.6351 14.7028V14.9512C95.6351 16.4597 95.8835 17.0331 96.95 17.8294L95.0032 20.0794C94.1521 19.7214 93.3851 19.0932 93.0308 18.3809C92.5121 18.874 92.4574 18.9288 92.1798 19.1224C91.4931 19.6155 90.5069 19.8894 89.3563 19.8894C86.2297 19.8894 84.5312 18.3006 84.5312 15.5027C84.5312 12.2117 86.8068 10.6776 91.2739 10.6776C91.5479 10.6776 91.7122 10.6776 92.0957 10.7032V10.1261C92.0957 8.56279 91.7926 8.04412 90.4521 8.04412C89.2723 8.04412 87.9026 8.62123 86.3941 9.633L84.8308 6.99583Z" fill="var(--fill-0, black)"></path>
<path id="Vector_8" d="M97.3906 5.56331L101.145 5.125L103.585 13.2958C103.834 14.1469 104.327 16.1996 104.327 16.1996C104.327 16.1996 104.601 14.6363 104.765 13.9533C104.984 13.0767 105.039 12.9379 105.313 12.0065L107.424 5.34416H111.289L106.19 19.571C105.229 22.2848 104.517 23.4646 103.505 24.2061C102.574 24.8928 101.368 25.3311 100.104 25.4954L98.8444 23.0811C99.6406 22.8619 100.572 22.5332 101.12 22.1497C101.529 21.8502 101.861 21.463 102.161 20.9991C102.519 20.422 102.628 20.1773 102.957 19.3555H102.026C101.807 18.698 101.697 18.4241 101.449 17.7118C101.175 16.8607 100.736 15.4655 100.707 15.4107L97.3906 5.56331Z" fill="var(--fill-0, black)"></path>
<path id="Vector_9" d="M122.884 19.4729V11.671H117.851V19.4729H114.352V1.98438H117.851V8.77818H122.884V1.98438H126.456V19.4729H122.884Z" fill="var(--fill-0, black)"></path>
<path id="Vector_10" d="M135.32 11.4699C135.32 10.513 135.217 10.0089 134.918 9.53042C134.593 9.02637 134.114 8.77434 133.435 8.77434C132.153 8.77434 131.422 9.78245 131.422 11.5686V11.6197H135.323V11.4699H135.32ZM131.371 14.0888V14.1911C131.371 16.1781 132.354 17.3104 134.089 17.3104C135.247 17.3104 136.328 16.8831 137.358 16.0247L138.666 18.0373C137.183 19.2463 135.619 19.8234 133.808 19.8234C130.108 19.8234 127.719 17.2082 127.719 13.1538C127.719 10.838 128.197 9.30396 129.33 8.04748C130.389 6.86404 131.671 6.3125 133.38 6.3125C134.863 6.3125 136.273 6.81656 137.106 7.67126C138.289 8.88026 138.815 10.6152 138.815 13.3072V14.0888H131.371Z" fill="var(--fill-0, black)"></path>
<path id="Vector_11" d="M146.071 13.8405C143.729 13.8405 142.926 14.2678 142.926 15.8019C142.926 16.81 143.554 17.4894 144.413 17.4894C145.041 17.4894 145.669 17.1607 146.173 16.6091L146.224 13.8405H146.071ZM148.938 20.1302C148.156 19.8051 147.455 19.2244 147.126 18.5706C146.874 18.8226 146.597 19.0746 146.348 19.2499C145.72 19.7029 144.814 19.9549 143.755 19.9549C140.888 19.9549 139.328 18.4939 139.328 15.9297C139.328 12.9091 141.417 11.4992 145.519 11.4992C145.771 11.4992 145.998 11.4992 146.275 11.5247V10.9951C146.275 9.55965 145.998 9.08116 144.767 9.08116C143.686 9.08116 142.426 9.61078 141.041 10.5422L139.606 8.12783C140.285 7.70048 140.789 7.44845 141.695 7.06858C142.951 6.53896 144.033 6.3125 145.22 6.3125C147.382 6.3125 148.869 7.11972 149.369 8.55153C149.544 9.08116 149.621 9.48294 149.596 10.8673L149.519 15.1956C149.493 16.6055 149.596 17.2082 150.728 18.0629L148.938 20.1302Z" fill="var(--fill-0, black)"></path>
<path id="Vector_12" d="M154.927 19.7834C153.491 19.7834 152.333 19.104 151.932 18.0229C151.68 17.369 151.628 16.9636 151.628 15.13V5.51642C151.628 3.82892 151.577 2.7989 151.453 1.64103L154.901 0.859375C155.025 1.56432 155.076 2.39346 155.076 4.20514V14.2461C155.076 16.4596 155.102 16.7627 155.303 17.1134C155.427 17.3398 155.705 17.4677 155.982 17.4677C156.107 17.4677 156.183 17.4677 156.359 17.4165L156.939 19.4291C156.359 19.6556 155.657 19.7834 154.927 19.7834Z" fill="var(--fill-0, black)"></path>
<path id="Vector_13" d="M162.048 19.7743C160.339 19.7743 158.976 19.0182 158.575 17.8859C158.374 17.3344 158.348 17.0823 158.348 15.8989V8.9042H157.062V6.58846H158.348C158.348 5.33197 158.348 4.49918 158.472 3.5422L161.895 2.6875C161.771 3.87094 161.694 5.28083 161.694 6.58846H164.715L163.86 8.9042H161.694V15.3693C161.694 17.0056 161.997 17.433 163.155 17.433C163.458 17.433 163.758 17.3563 164.364 17.1809L164.791 19.1935C163.812 19.5953 162.932 19.7743 162.048 19.7743Z" fill="var(--fill-0, black)"></path>
<path id="Vector_14" d="M173.32 19.4709V10.8143C173.32 9.53223 172.966 9.05374 172.013 9.05374C171.184 9.05374 170.099 9.5578 169.346 10.2372V19.4709H165.924V4.57567C165.924 3.36667 165.822 2.15766 165.672 1.63169L169.12 0.828125C169.27 1.53307 169.346 2.73843 169.346 3.973V6.54076C169.346 6.94255 169.295 7.47217 169.295 7.62193C170.176 6.79279 171.633 6.2376 172.944 6.2376C174.581 6.2376 175.888 6.94255 176.29 8.07485C176.542 8.80536 176.619 9.23272 176.619 10.4636V19.4709H173.32Z" fill="var(--fill-0, black)"></path>
<path id="Vector_15" d="M178.219 16.8954C178.219 16.4315 178.325 16.0005 178.54 15.6024C178.756 15.2042 179.052 14.8901 179.435 14.6637C179.819 14.4372 180.228 14.3203 180.67 14.3203C181.112 14.3203 181.521 14.4335 181.904 14.6637C182.288 14.8938 182.584 15.2042 182.799 15.6024C183.015 16.0005 183.121 16.4315 183.121 16.8954C183.121 17.3593 183.011 17.7976 182.792 18.1957C182.573 18.5938 182.277 18.908 181.897 19.1344C181.517 19.3609 181.112 19.4741 180.67 19.4741C180.228 19.4741 179.815 19.3609 179.435 19.1308C179.055 18.9006 178.759 18.5865 178.544 18.1884C178.328 17.7903 178.219 17.3593 178.219 16.8917V16.8954ZM178.639 16.8954C178.639 17.2753 178.723 17.6296 178.894 17.9583C179.066 18.287 179.307 18.55 179.625 18.7509C179.943 18.9518 180.286 19.0504 180.666 19.0504C181.046 19.0504 181.389 18.9518 181.703 18.7545C182.017 18.5573 182.262 18.2943 182.434 17.9656C182.606 17.6369 182.693 17.2826 182.693 16.899C182.693 16.5155 182.606 16.1612 182.434 15.8361C182.262 15.5111 182.017 15.2481 181.703 15.0508C181.389 14.8536 181.042 14.755 180.67 14.755C180.297 14.755 179.965 14.8499 179.651 15.0362C179.336 15.2225 179.092 15.4855 178.909 15.8142C178.726 16.143 178.639 16.5046 178.639 16.899V16.8954ZM180.173 17.1547V18.3162H179.651V15.3832H180.618C180.973 15.3832 181.247 15.4636 181.444 15.6243C181.641 15.785 181.74 16.0078 181.74 16.2927C181.74 16.5447 181.616 16.742 181.371 16.8808C181.506 16.9538 181.597 17.0561 181.649 17.1839C181.7 17.3118 181.729 17.4725 181.729 17.6624C181.729 17.8524 181.733 17.9875 181.74 18.0642C181.747 18.1409 181.762 18.2067 181.787 18.2614V18.3162H181.254C181.225 18.2395 181.21 18.0167 181.21 17.6478C181.21 17.4725 181.174 17.3483 181.097 17.2716C181.02 17.1949 180.896 17.1547 180.717 17.1547H180.173ZM180.173 16.6945H180.615C180.79 16.6945 180.936 16.658 181.05 16.5849C181.163 16.5119 181.225 16.4169 181.225 16.2927C181.225 16.132 181.185 16.0188 181.101 15.9494C181.017 15.88 180.871 15.8471 180.659 15.8434H180.173V16.6908V16.6945Z" fill="var(--fill-0, black)"></path>
</g>
</svg>