<svg preserveAspectRatio="none" width="100%" height="100%" overflow="visible" style="display: block;" viewBox="0 0 18.7138 20.1906" fill="none" xmlns="http://www.w3.org/2000/svg">
<g id="Leaf">
<path id="Vector_13" d="M11.1719 6.18246C11.1719 6.54127 11.3174 6.86598 11.5525 7.10099C11.7875 7.33601 12.1122 7.48131 12.4707 7.48131C12.8291 7.48131 13.1541 7.33601 13.3893 7.10099C13.6247 6.86598 13.7703 6.54127 13.7703 6.18246C13.7703 5.82403 13.6247 5.49911 13.3893 5.2638C13.1541 5.0285 12.8291 4.88281 12.4707 4.88281C12.1122 4.88281 11.7875 5.0285 11.5525 5.2638C11.3174 5.49911 11.1719 5.82403 11.1719 6.18246Z" fill="var(--fill-0, black)"></path>
<path id="Vector_14" d="M6.09375 4.88195C6.09375 5.83229 6.28388 6.73805 6.62804 7.56359C6.97219 8.38912 7.47035 9.13442 8.08641 9.7639C8.70248 9.13442 9.20065 8.38912 9.54479 7.56359C9.88894 6.73805 10.0791 5.83229 10.0791 4.88195C10.0791 3.9316 9.88894 3.02585 9.54479 2.20032C9.20065 1.37478 8.70248 0.629468 8.08641 0C7.47035 0.629468 6.97219 1.37478 6.62804 2.20032C6.28388 3.02585 6.09375 3.9316 6.09375 4.88195Z" fill="var(--fill-0, black)"></path>
<path id="Vector_15" d="M10.8525 11.3851C9.88419 12.7038 9.22525 14.1546 8.86186 15.651C8.49846 17.1472 8.4306 18.6892 8.64442 20.1906C10.141 19.9447 11.5919 19.418 12.9108 18.6231C14.2297 17.8282 15.4165 16.765 16.3848 15.4461C17.3531 14.1273 18.012 12.6766 18.3755 11.1802C18.7389 9.68388 18.8067 8.14194 18.5928 6.64062C17.0963 6.88641 15.6453 7.41309 14.3265 8.20804C13.0076 9.00298 11.8207 10.0662 10.8525 11.3851Z" fill="var(--fill-0, black)"></path>
<path id="Vector_16" d="M5.90441 9.17713C5.17702 8.16709 4.28557 7.34718 3.29498 6.72814C2.30438 6.1091 1.21464 5.69093 0.0906638 5.48438C-0.0697476 6.61589 -0.0186003 7.782 0.254497 8.91775C0.527593 10.0535 1.02264 11.1589 1.75001 12.169C2.4018 13.074 3.18543 13.8258 4.05409 14.4173C4.92276 15.0088 5.87645 15.4399 6.86835 15.7033V17.7564V19.8095C6.86835 19.9137 6.9107 20.008 6.97917 20.0764C7.04765 20.1449 7.14225 20.1871 7.24673 20.1871C7.35083 20.1871 7.44524 20.1449 7.51362 20.0764C7.582 20.008 7.62436 19.9137 7.62436 19.8095V17.6143V15.419C7.62473 15.4015 7.62473 15.3823 7.62464 15.3619C7.62454 15.3415 7.62436 15.3198 7.62436 15.2974C7.70706 14.2506 7.61024 13.1839 7.32654 12.1472C7.04283 11.1104 6.57163 10.1037 5.90441 9.17713Z" fill="var(--fill-0, black)"></path>
</g>
</svg>