<svg preserveAspectRatio="none" width="100%" height="100%" overflow="visible" style="display: block;" viewBox="0 0 52.1667 39.1667" fill="none" xmlns="http://www.w3.org/2000/svg">
<path id="Vector 1681" d="M46.8333 36.5C46.8333 37.9728 48.0272 39.1667 49.5 39.1667C50.9728 39.1667 52.1667 37.9728 52.1667 36.5C52.1667 35.0272 50.9728 33.8333 49.5 33.8333C48.0272 33.8333 46.8333 35.0272 46.8333 36.5ZM28.7148 0.5L29.1479 0.249995L29.0035 0H28.7148V0.5ZM0.5 0H0V1H0.5V0.5V0ZM49.5 36.5L49.933 36.25L29.1479 0.249995L28.7148 0.5L28.2818 0.750005L49.067 36.75L49.5 36.5ZM28.7148 0.5V0H0.5V0.5V1H28.7148V0.5Z" fill="var(--stroke-0, #7700EE)"></path>
</svg>