<svg preserveAspectRatio="none" width="100%" height="100%" overflow="visible" style="display: block;" viewBox="0 0 84.0327 136.606" fill="none" xmlns="http://www.w3.org/2000/svg">
<g id="Group">
<path id="Vector" d="M36.5017 134.957C25.7407 134.957 17.244 133.286 11.0116 129.956C4.77923 126.614 1.66854 122.602 1.66854 117.909C1.66854 115.941 2.02031 114.161 2.73478 112.578C3.43826 110.995 4.96609 109.159 7.29636 107.082C9.63762 105.005 13.21 102.323 18.0244 99.047C19.7281 97.8489 20.5745 96.7277 20.5745 95.6835C20.5745 94.6393 19.7281 93.8589 18.0244 93.3093C12.9242 91.6715 9.87946 89.5611 8.89019 87.0001C7.90092 84.428 9.09901 82.0538 12.5065 79.8664L27.8072 69.699C29.5109 68.6109 29.434 67.6766 27.5983 66.9071C21.7946 64.7198 17.1891 61.3343 13.7926 56.7398C10.3961 52.1452 8.69234 47.2319 8.69234 41.9778C8.69234 36.7238 10.1103 32.415 12.9462 28.3701C15.7821 24.3251 19.5963 21.1045 24.4217 18.6973C29.2361 16.2901 34.6221 15.092 40.5687 15.092C43.9652 15.092 47.2188 15.5317 50.3405 16.4C52.319 16.9496 53.5281 16.455 53.9568 14.9271C55.2318 10.7723 57.6061 7.51871 61.0685 5.16648C64.5419 2.81424 67.9714 1.63812 71.3679 1.63812C74.7643 1.63812 77.2815 2.37457 79.337 3.84747C81.3924 5.32036 82.4147 7.15598 82.4147 9.34334C82.4147 11.2009 81.7002 12.6738 80.2932 13.773C78.8753 14.8722 77.1056 15.4108 74.9842 15.4108C73.1375 15.4108 71.7965 15.136 70.9502 14.5864C70.1038 14.0368 69.3234 13.4982 68.6089 12.9486C67.8944 12.399 66.7622 12.1243 65.2124 12.1243C61.8159 12.1243 59.6835 13.5422 58.8371 16.3891C58.4085 17.4882 58.4414 18.4115 58.947 19.181C59.4417 19.9504 60.1891 20.7088 61.1784 21.4782C64.5749 23.9953 67.2349 27.0511 69.1475 30.6563C71.0601 34.2616 72.0163 38.2516 72.0163 42.6264C72.0163 47.8694 70.6314 52.5739 67.8725 56.7288C65.1135 60.8837 61.3542 64.1592 56.6168 66.5664C51.8683 68.9736 46.5263 70.1717 40.5797 70.1717C38.0296 70.1717 35.8312 70.5784 33.9956 71.4028C32.149 72.2271 30.3133 73.4032 28.4667 74.9311L24.8504 78.0418C23.0037 79.7895 22.4761 81.4602 23.2565 83.043C24.037 84.6258 25.9825 85.4172 29.0932 85.4172H47.3616C57.5621 85.4172 65.6301 87.3628 71.5767 91.2319C77.5233 95.112 80.5021 100.443 80.5021 107.214C80.5021 112.567 78.5125 117.326 74.5555 121.481C70.5874 125.636 65.3114 128.912 58.7272 131.319C52.1431 133.726 44.7456 134.924 36.5237 134.924L36.5017 134.957ZM39.0518 131.352C44.152 131.352 48.8236 130.472 53.0774 128.725C57.3313 126.977 60.6838 124.548 63.1679 121.426C65.6411 118.316 66.8832 114.787 66.8832 110.852C66.8832 105.939 65.0036 102.136 61.2554 99.4537C57.4961 96.7717 52.231 95.4417 45.4271 95.4417H40.5467C36.15 95.4417 32.8634 95.7715 30.665 96.42C28.4667 97.0795 26.3782 98.2226 24.3997 99.8604C20.0029 103.466 17.244 106.368 16.1118 108.555C14.9797 110.742 14.4081 112.985 14.4081 115.282C14.4081 120.096 16.5625 123.976 20.8823 126.922C25.2021 129.868 31.2586 131.352 39.0408 131.352H39.0518ZM40.3269 66.0937C45.4271 66.0937 49.4611 63.9613 52.4399 59.6965C55.4187 55.4318 56.9026 49.6391 56.9026 42.3186C56.9026 34.9981 55.3747 29.5022 52.33 25.1825C49.2852 20.8627 45.2842 18.7083 40.3269 18.7083C35.3696 18.7083 31.3685 20.8627 28.3238 25.1825C25.279 29.5022 23.7512 35.2069 23.7512 42.3186C23.7512 49.4302 25.2351 55.4318 28.2139 59.6965C31.1927 63.9613 35.2267 66.0937 40.3269 66.0937Z" fill="var(--fill-0, black)"></path>
<path id="Vector_2" d="M36.493 136.606C25.5011 136.606 16.6637 134.858 10.2225 131.406C3.44054 127.779 4.16047e-05 123.24 4.16047e-05 117.898C4.16047e-05 115.699 0.40678 113.677 1.20918 111.896C2.01159 110.082 3.64934 108.104 6.18846 105.851C8.5627 103.74 12.234 100.992 17.0814 97.6837C18.5213 96.6725 18.906 95.947 18.906 95.6832C18.906 95.5733 18.5543 95.2106 17.4991 94.8698C11.8493 93.0562 8.51877 90.671 7.33165 87.5823C6.43032 85.2521 6.44131 81.7897 11.5855 78.4702L26.7872 68.3687C20.8296 66.0934 15.9822 62.5101 12.4318 57.7177C8.83748 52.8594 7.01284 47.5614 7.01284 41.9776C7.01284 36.3937 8.54073 31.7332 11.5635 27.4245C14.5423 23.1707 18.6093 19.7412 23.6545 17.2241C28.6778 14.718 34.3606 13.443 40.538 13.443C44.0664 13.443 47.5068 13.9046 50.7494 14.8169C52.1234 15.2016 52.2224 14.8499 52.3323 14.4872C53.7282 9.9366 56.3442 6.36428 60.1145 3.8032C63.8407 1.2751 67.6219 5.95957e-05 71.3372 5.95957e-05C75.0524 5.95957e-05 77.9323 0.846423 80.2625 2.51717C82.7577 4.31982 84.0327 6.61709 84.0327 9.35404C84.0327 11.7063 83.0765 13.6848 81.2628 15.0807C79.5591 16.3997 77.4267 17.0593 74.9425 17.0593C72.7551 17.0593 71.1393 16.7075 70.0071 15.9711C69.1168 15.3995 68.2924 14.8169 67.556 14.2564C67.3691 14.1135 66.7646 13.7837 65.1707 13.7837C61.7413 13.7837 60.807 15.4325 60.3783 16.8724L60.3343 16.9933C60.0045 17.8507 60.2024 18.1584 60.2904 18.2793C60.6861 18.8949 61.3016 19.5214 62.148 20.1699C65.7093 22.8079 68.5452 26.0835 70.5677 29.8866C72.6012 33.7227 73.6235 38.0095 73.6235 42.6261C73.6235 48.1769 72.1396 53.2331 69.2047 57.6408C66.2919 62.0155 62.3019 65.5109 57.3225 68.039C52.3652 70.5561 46.7154 71.8201 40.538 71.8201C38.2297 71.8201 36.2402 72.1829 34.6244 72.9083C32.9206 73.6668 31.1949 74.7769 29.4802 76.1949L25.8859 79.2945C24.0612 81.0312 24.5229 81.9655 24.6988 82.3173C25.2923 83.5264 27.3917 83.7792 29.0625 83.7792H47.3309C57.8062 83.7792 66.2479 85.8236 72.4473 89.8686C78.8666 94.0565 82.1201 99.9041 82.1201 107.236C82.1201 112.995 79.9657 118.183 75.7119 122.635C71.5899 126.955 66.0501 130.406 59.2571 132.879C52.5191 135.341 44.8578 136.584 36.493 136.584V136.606ZM40.527 16.7515C34.8662 16.7515 29.6781 17.9056 25.1165 20.1809C20.5768 22.4452 16.9165 25.5229 14.2565 29.326C11.6404 33.0632 10.3104 37.328 10.3104 41.9885C10.3104 46.649 11.9152 51.4854 15.0809 55.7612C18.2685 60.07 22.6653 63.3015 28.1392 65.368C29.711 66.0275 30.5354 66.9068 30.6343 68.028C30.7332 69.1491 30.0738 70.1824 28.6668 71.0837L13.3882 81.2291C9.39813 83.8012 10.1345 85.6807 10.3984 86.3952C11.1788 88.4397 13.9817 90.2753 18.4993 91.7372C21.5551 92.7155 22.1926 94.4302 22.1926 95.6832C22.1926 97.31 21.1264 98.8489 18.95 100.388C14.1906 103.63 10.6402 106.29 8.36489 108.313C6.21049 110.225 4.81449 111.885 4.20994 113.248C3.59439 114.611 3.28666 116.172 3.28666 117.909C3.28666 121.986 6.05656 125.449 11.7613 128.505C17.7189 131.692 26.0398 133.308 36.471 133.308C44.4511 133.308 51.7277 132.132 58.103 129.802C64.4123 127.493 69.5345 124.328 73.3047 120.371C76.9979 116.502 78.8006 112.204 78.8006 107.247C78.8006 101.003 76.1296 96.2328 70.6227 92.6385C64.9728 88.9563 57.1247 87.0877 47.309 87.0877H29.0405C25.2484 87.0877 22.7861 85.9775 21.7199 83.7902C20.9395 82.2183 20.6428 79.7342 23.6545 76.8654L27.3258 73.6997C29.2934 72.062 31.2828 70.7979 33.2614 69.9186C35.3059 69.0063 37.7461 68.5446 40.516 68.5446C46.1768 68.5446 51.321 67.3905 55.8167 65.1152C60.2794 62.8509 63.8627 59.7292 66.4458 55.8381C69.0069 51.98 70.3149 47.5394 70.3149 42.648C70.3149 38.5701 69.4136 34.7999 67.6439 31.4475C65.8632 28.084 63.3351 25.1822 60.1475 22.8189C58.9823 21.9286 58.1029 21.0163 57.5094 20.093C56.9708 19.2686 56.4761 17.8616 57.2236 15.8831C57.982 13.41 59.9716 10.5082 65.1597 10.5082C67.1053 10.5082 68.5452 10.8929 69.5675 11.6733C70.227 12.1789 70.9744 12.7065 71.7878 13.2341C72.1066 13.443 72.953 13.7947 74.9315 13.7947C76.7012 13.7947 78.1081 13.366 79.2403 12.4977C80.2515 11.7173 80.7242 10.728 80.7242 9.37602C80.7242 7.73825 79.9438 6.37527 78.3279 5.22114C76.5693 3.95709 74.217 3.31957 71.3261 3.31957C68.2814 3.31957 65.1268 4.40775 61.9501 6.56213C58.7735 8.71652 56.6631 11.6183 55.4869 15.4325C55.2451 16.3008 54.091 19.1807 49.8591 18.0155C46.8913 17.1802 43.7586 16.7625 40.527 16.7625V16.7515ZM39.0431 133C30.9531 133 24.5229 131.417 19.9503 128.285C15.1798 125.02 12.7506 120.645 12.7506 115.282C12.7506 112.72 13.3881 110.203 14.6302 107.796C15.8723 105.389 18.7192 102.377 23.3358 98.596C25.4792 96.8264 27.7765 95.5623 30.1727 94.8479C32.5359 94.1444 35.9214 93.7927 40.527 93.7927H45.4184C52.5301 93.7927 58.1799 95.2436 62.2029 98.1124C66.4018 101.113 68.5232 105.389 68.5232 110.852C68.5232 115.15 67.1492 119.052 64.4452 122.459C61.7962 125.779 58.1799 128.406 53.6953 130.252C49.2655 132.077 44.3302 133 39.0431 133ZM40.527 97.0902C36.3061 97.0902 33.1514 97.3979 31.118 98.0025C29.1504 98.596 27.2269 99.6403 25.4242 101.135C21.2143 104.587 18.5763 107.334 17.5541 109.313C16.5428 111.248 16.0372 113.248 16.0372 115.282C16.0372 119.546 17.9168 122.91 21.7969 125.559C25.8199 128.307 31.6126 129.692 39.0321 129.692C43.8905 129.692 48.3972 128.856 52.4312 127.197C56.3992 125.57 59.5649 123.273 61.8622 120.404C64.1265 117.557 65.2257 114.435 65.2257 110.852C65.2257 106.466 63.6099 103.169 60.2904 100.794C56.8389 98.3322 51.8376 97.0902 45.4184 97.0902H40.527ZM40.3182 67.7422C34.6684 67.7422 30.1397 65.357 26.8532 60.6415C23.6985 56.1129 22.0937 49.9576 22.0937 42.3183C22.0937 34.679 23.7315 28.8094 26.9631 24.2369C30.3156 19.4774 34.8113 17.0593 40.3182 17.0593C45.8251 17.0593 50.3097 19.4774 53.6622 24.2369C56.8938 28.8204 58.5316 34.9099 58.5316 42.3183C58.5316 49.7267 56.9269 56.1129 53.7722 60.6415C50.4856 65.357 45.957 67.7422 40.3072 67.7422H40.3182ZM40.3182 20.3568C35.8885 20.3568 32.4041 22.2474 29.6671 26.1384C26.8312 30.1504 25.4022 35.5913 25.4022 42.3183C25.4022 49.0452 26.8092 54.7939 29.5681 58.751C32.2392 62.5761 35.7565 64.4447 40.3291 64.4447C44.9017 64.4447 48.4192 62.5871 51.0902 58.751C53.8491 54.7939 55.2561 49.2651 55.2561 42.3183C55.2561 35.3715 53.8161 30.1504 50.9912 26.1384C48.2433 22.2474 44.7589 20.3568 40.3401 20.3568H40.3182Z" fill="var(--fill-0, black)"></path>
</g>
</svg>