<svg preserveAspectRatio="none" width="100%" height="100%" overflow="visible" style="display: block;" viewBox="0 0 161.063 18.6993" fill="none" xmlns="http://www.w3.org/2000/svg">
<g id="Wordmark">
<path id="Vector" d="M3.00559 11.6482C3.00559 12.8224 3.38656 13.8952 4.08211 14.6744C4.77766 15.4537 5.78768 15.9393 7.04566 15.9393C8.25496 15.9393 9.26521 15.478 9.9731 14.7109C10.6811 13.9439 11.0867 12.8711 11.0867 11.6482C11.0867 10.4247 10.6811 9.35167 9.9731 8.58448C9.26521 7.81729 8.25496 7.35596 7.04566 7.35596C5.78768 7.35596 4.77766 7.84163 4.08211 8.62098C3.38656 9.40033 3.00559 10.4733 3.00559 11.6482ZM13.8265 18.3443H12.3656H10.9047V17.5403V16.7365C10.4434 17.3306 9.86665 17.82 9.1676 18.1608C8.46856 18.5014 7.64711 18.6937 6.69625 18.6937C4.82309 18.6937 3.14908 17.9562 1.94328 16.7068C0.737598 15.4573 0 13.6959 0 11.6482C0 9.59985 0.737598 7.83821 1.94328 6.58864C3.14908 5.33907 4.82309 4.60156 6.69625 4.60156C7.64711 4.60156 8.46856 4.79744 9.1676 5.14186C9.86665 5.48628 10.4434 5.97925 10.9047 6.57342V5.76221V4.95098H12.3656H13.8265V11.6476V18.3443Z" fill="var(--fill-0, black)"></path>
<path id="Vector_2" d="M25.8535 7.61267H23.2884H20.7233V10.5277V13.4426C20.7233 14.3443 20.9608 14.97 21.3451 15.3701C21.7295 15.7703 22.2606 15.945 22.848 15.945C23.302 15.945 23.7772 15.8438 24.2386 15.6794C24.6999 15.5152 25.1474 15.288 25.5459 15.0359L26.126 16.2033L26.7061 17.3708C26.1679 17.7343 25.5598 18.0665 24.8766 18.3077C24.1933 18.549 23.4349 18.6993 22.5959 18.6993C21.079 18.6993 19.8768 18.2903 19.0537 17.4357C18.2307 16.581 17.7869 15.2808 17.7869 13.4981V10.5554V7.61269H16.452H15.1172V6.28465V4.95663H16.452H17.7869V2.48223V0.0078125H19.2551H20.7233V2.48221V4.95663H23.2884H25.8535V6.28465V7.61267Z" fill="var(--fill-0, black)"></path>
<path id="Vector_3" d="M30.8104 6.55162C31.3486 5.78274 32.0301 5.29684 32.7467 5.00316C33.4631 4.70947 34.2144 4.608 34.8924 4.608C36.4861 4.608 37.8458 5.15693 38.807 6.09724C39.7682 7.03754 40.331 8.36923 40.331 9.9348V14.1427V18.3507H38.8628H37.3947V14.625V10.8993C37.3947 9.77419 37.1046 8.89701 36.5699 8.30112C36.0352 7.70523 35.2559 7.39063 34.2772 7.39063C33.3337 7.39063 32.4669 7.70159 31.8361 8.29918C31.2053 8.89677 30.8104 9.78094 30.8104 10.9275V14.6391V18.3507H29.3427H27.875V9.17536V0H29.3427H30.8104V3.27581V6.55162Z" fill="var(--fill-0, black)"></path>
<path id="Vector_4" d="M45.3579 10.5016H48.8321H52.3061C52.1456 9.45968 51.7611 8.63483 51.1844 8.07046C50.6077 7.50607 49.8389 7.20217 48.9094 7.20217C47.8679 7.20217 47.057 7.5377 46.4679 8.11791C45.8789 8.69809 45.5116 9.52295 45.3579 10.5016ZM55.298 11.6334C55.298 11.8224 55.2909 12.0109 55.2805 12.1942C55.27 12.3776 55.2561 12.5556 55.2425 12.7236H50.2934H45.3443C45.5398 13.926 46.0606 14.7789 46.7701 15.3311C47.4796 15.8833 48.3779 16.135 49.3289 16.135C49.9994 16.135 50.6915 16.0021 51.3539 15.7591C52.0163 15.5162 52.6492 15.1631 53.2015 14.7227L53.9281 15.7646L54.6547 16.8065C53.8371 17.5053 52.967 17.9771 52.0479 18.2741C51.1287 18.5713 50.1605 18.6937 49.1469 18.6937C47.1405 18.6937 45.428 17.9946 44.2171 16.7642C43.0062 15.534 42.2969 13.7723 42.2969 11.6471C42.2969 9.5502 42.9782 7.78881 44.1523 6.55165C45.3265 5.31449 46.9935 4.60156 48.9648 4.60156C50.838 4.60156 52.4178 5.31449 53.5311 6.54995C54.6444 7.78541 55.2912 9.54339 55.298 11.6334Z" fill="var(--fill-0, black)"></path>
<path id="Vector_5" d="M69.8232 9.92834V14.1362V18.3443H68.3555H66.8878V14.6185V10.8928C66.8878 9.76727 66.5978 8.88984 66.063 8.29383C65.5282 7.69781 64.7485 7.3832 63.7695 7.3832C62.8258 7.3832 61.9591 7.6944 61.3283 8.29224C60.6975 8.89008 60.3026 9.7746 60.3026 10.9211V14.6326V18.3443H58.8349H57.3672V11.6481V4.95196H58.8213H60.2753V5.76951V6.58706C60.813 5.79724 61.4978 5.30086 62.2194 5.00195C62.9409 4.70303 63.6994 4.60156 64.3845 4.60156C65.9783 4.60156 67.338 5.15049 68.2992 6.09081C69.2604 7.03112 69.8232 8.3628 69.8232 9.92834Z" fill="var(--fill-0, black)"></path>
<path id="Vector_6" d="M74.7477 11.6482C74.7477 12.8224 75.1287 13.8952 75.8243 14.6744C76.5197 15.4537 77.5297 15.9393 78.7877 15.9393C79.997 15.9393 81.0074 15.478 81.7153 14.7109C82.4232 13.9439 82.8288 12.8711 82.8288 11.6482C82.8288 10.4247 82.4232 9.35167 81.7153 8.58448C81.0073 7.81729 79.997 7.35596 78.7877 7.35596C77.5297 7.35596 76.5197 7.84163 75.8243 8.62098C75.1287 9.40033 74.7477 10.4733 74.7477 11.6482ZM85.5687 18.3443H84.1077H82.6468V17.5403V16.7365C82.1855 17.3306 81.6088 17.82 80.9098 18.1608C80.2107 18.5014 79.3893 18.6937 78.4383 18.6937C76.5653 18.6937 74.8913 17.9562 73.6855 16.7068C72.4797 15.4573 71.7422 13.6959 71.7422 11.6482C71.7422 9.59985 72.4797 7.83821 73.6855 6.58864C74.8913 5.33907 76.5653 4.60156 78.4383 4.60156C79.3893 4.60156 80.2107 4.79744 80.9098 5.14186C81.6088 5.48628 82.1855 5.97925 82.6468 6.57342V5.76221V4.95098H84.1077H85.5687V11.6476V18.3443Z" fill="var(--fill-0, black)"></path>
<path id="Vector_7" d="M90.1713 7.4743C90.6887 6.6076 91.4087 5.98545 92.2248 5.57995C93.0409 5.17446 93.9529 4.98564 94.8544 4.98564C96.5048 4.98564 97.8884 5.49588 98.8609 6.41332C99.8323 7.33075 100.391 8.65539 100.391 10.2842V14.3174V18.3507H99.5947H98.798V14.5622V10.7737C98.798 9.44569 98.4125 8.37629 97.6927 7.63892C96.973 6.90154 95.9178 6.49617 94.5749 6.49617C93.3379 6.49617 92.2369 6.93999 91.4452 7.70705C90.6536 8.4741 90.1713 9.56442 90.1713 10.8575V14.604V18.3507H89.3747H88.5781V9.17536V0H89.3747H90.1713V3.73714V7.4743Z" fill="var(--fill-0, black)"></path>
<path id="Vector_8" d="M104.274 10.9827H108.978H113.683C113.564 9.61913 113.04 8.47261 112.236 7.66699C111.432 6.86136 110.348 6.39663 109.111 6.39663C107.776 6.39663 106.643 6.87548 105.807 7.68816C104.97 8.50085 104.428 9.64736 104.274 10.9827ZM115.305 11.6951C115.305 11.8139 115.301 11.9292 115.296 12.0393C115.291 12.1495 115.284 12.2543 115.276 12.3521H109.761H104.246C104.365 13.8831 104.963 15.089 105.867 15.9121C106.772 16.7353 107.986 17.1757 109.335 17.1757C110.25 17.1757 111.072 16.9939 111.81 16.6688C112.547 16.3437 113.2 15.8754 113.78 15.3022L114.207 15.8477L114.634 16.3932C113.801 17.2384 112.928 17.7801 112.024 18.1104C111.121 18.4408 110.188 18.5597 109.237 18.5597C107.315 18.5597 105.661 17.8675 104.49 16.6737C103.317 15.48 102.625 13.7848 102.625 11.7789C102.625 9.79388 103.327 8.09524 104.493 6.89287C105.658 5.6905 107.287 4.98438 109.14 4.98438C110.894 4.98438 112.425 5.68003 113.522 6.86671C114.619 8.05337 115.284 9.73111 115.305 11.6951Z" fill="var(--fill-0, black)"></path>
<path id="Vector_9" d="M118.363 11.7788C118.363 13.2606 118.898 14.5816 119.806 15.5321C120.716 16.4827 121.998 17.0628 123.495 17.0628C124.984 17.0628 126.262 16.4966 127.17 15.553C128.076 14.6093 128.612 13.2885 128.612 11.7788C128.612 10.2692 128.076 8.94466 127.17 7.99741C126.262 7.05017 124.984 6.48032 123.495 6.48032C121.984 6.48032 120.702 7.06063 119.796 8.01311C118.891 8.96558 118.363 10.2902 118.363 11.7788ZM130.107 18.3495H129.317H128.528V17.0842V15.819C127.995 16.6438 127.29 17.329 126.417 17.8079C125.546 18.287 124.507 18.5597 123.312 18.5597C121.467 18.5597 119.824 17.8431 118.643 16.6372C117.462 15.4314 116.742 13.7362 116.742 11.7788C116.742 9.82154 117.462 8.12297 118.643 6.91367C119.824 5.70436 121.467 4.98438 123.312 4.98438C124.507 4.98438 125.546 5.2603 126.417 5.74086C127.29 6.22141 127.995 6.90661 128.528 7.72514V6.45938V5.19362H129.317H130.107V11.7716V18.3495Z" fill="var(--fill-0, black)"></path>
<path id="Vector_10" d="M134.962 18.3508H134.164H133.367V9.1754V0H134.164H134.962V9.1754V18.3508Z" fill="var(--fill-0, black)"></path>
<path id="Vector_11" d="M147.189 6.64807H144.155H141.121V10.2342V13.8202C141.121 14.9312 141.415 15.742 141.927 16.2749C142.44 16.8079 143.17 17.0632 144.045 17.0632C144.611 17.0632 145.152 16.9654 145.648 16.7907C146.144 16.616 146.595 16.3644 146.98 16.0568L147.357 16.651L147.734 17.2451C147.266 17.6365 146.707 17.9649 146.068 18.1956C145.427 18.4262 144.707 18.5591 143.918 18.5591C142.548 18.5591 141.45 18.178 140.695 17.3986C139.94 16.6191 139.528 15.4412 139.528 13.8475V10.2478V6.64807H138.018H136.508V5.92104V5.194H138.018H139.528V2.60091V0.0078125H140.325H141.121V2.60091V5.194H144.155H147.189V5.92104V6.64807Z" fill="var(--fill-0, black)"></path>
<path id="Vector_12" d="M150.844 7.4743C151.362 6.6076 152.081 5.98545 152.898 5.57995C153.713 5.17446 154.626 4.98564 155.528 4.98564C157.177 4.98564 158.562 5.49588 159.533 6.41332C160.504 7.33075 161.063 8.65539 161.063 10.2842V14.3174V18.3507H160.267H159.469V14.5622V10.7737C159.469 9.44569 159.085 8.37629 158.365 7.63892C157.646 6.90154 156.59 6.49617 155.248 6.49617C154.011 6.49617 152.909 6.93999 152.119 7.70705C151.327 8.4741 150.844 9.56442 150.844 10.8575V14.604V18.3507H150.047H149.25V9.17536V0H150.047H150.844V3.73714V7.4743Z" fill="var(--fill-0, black)"></path>
</g>
</svg>