<svg preserveAspectRatio="none" width="100%" height="100%" overflow="visible" style="display: block;" viewBox="0 0 97.6296 87.9121" fill="none" xmlns="http://www.w3.org/2000/svg">
<g id="Group">
<path id="Vector" d="M4.84177 86.2543C2.72035 86.2543 1.65418 85.6498 1.65418 84.4517C1.65418 83.4734 2.57751 82.8139 4.41314 82.4842L6.96319 82.1544C9.94198 81.7148 11.8875 81.0333 12.8109 80.11C13.7342 79.1866 14.1958 77.5709 14.1958 75.2736V20.1829C14.1958 18.2154 13.8001 16.8744 13.0307 16.1709C12.2503 15.4565 10.8653 14.9948 8.88677 14.775L4.42408 14.2804C2.57745 14.1704 1.66518 13.5659 1.66518 12.4777C1.66518 11.6094 2.7973 11.0048 5.06162 10.6751C9.44737 10.1255 12.8109 9.25713 15.1521 8.04804C17.4934 6.84994 19.9336 5.36606 22.4837 3.61837C23.7588 2.62911 24.825 2.14547 25.6713 2.14547C26.9464 2.14547 27.5839 2.80498 27.5839 4.113V11.4885C27.5839 12.4667 28.0456 13.1042 28.9689 13.368C29.8922 13.6428 30.9144 13.3461 32.0466 12.4667C37.7074 8.31184 42.6977 5.47597 47.0285 3.93713C51.3483 2.40928 55.9099 1.63985 60.7244 1.63985C67.0996 1.63985 72.1998 3.36556 76.025 6.80597C79.8501 10.2464 81.7627 15.3026 81.7627 21.9746V75.2626C81.7627 77.5599 82.2244 79.1757 83.1477 80.099C84.071 81.0333 86.0166 81.6598 88.9844 81.9895L93.6559 82.4842C95.2168 82.704 95.9972 83.3635 95.9972 84.4517C95.9972 85.6608 95.1508 86.2543 93.447 86.2543H57.7565C55.767 86.2543 54.7777 85.6498 54.7777 84.4517C54.7777 83.3635 55.5582 82.704 57.119 82.4842L60.0978 82.1544C63.0766 81.8247 65.0222 81.1762 65.9455 80.1869C66.8688 79.2086 67.3305 77.5599 67.3305 75.2626V23.7772C67.3305 18.4243 66.0554 14.6541 63.5053 12.4667C60.9551 10.2794 57.3498 9.19118 52.6673 9.19118C47.9848 9.19118 44.0607 10.2024 40.4554 12.2249C36.8391 14.2474 33.9702 16.9294 31.8487 20.2599C29.7273 23.5904 28.6612 27.2836 28.6612 31.3286V75.2736C28.6612 77.5709 29.1228 79.2086 30.0461 80.1979C30.9694 81.1762 32.9149 81.7807 35.8827 82.0005L41.6205 82.4952C43.1814 82.715 43.9618 83.3195 43.9618 84.2978C43.9618 85.6058 42.8955 86.2653 40.7741 86.2653H4.87478L4.84177 86.2543Z" fill="var(--fill-0, black)"></path>
<path id="Vector_2" d="M93.4306 87.901H57.7401C53.5632 87.901 53.1126 85.4828 53.1126 84.4496C53.1126 83.5263 53.4753 81.3279 56.8718 80.8553L59.8946 80.5255C63.379 80.1408 64.4232 79.3824 64.72 79.0636C65.3245 78.4151 65.6543 77.0961 65.6543 75.2715V23.7861C65.6543 18.9608 64.5551 15.5753 62.4007 13.7287C60.1694 11.8161 56.8828 10.8489 52.64 10.8489C48.3971 10.8489 44.5829 11.7941 41.2304 13.6737C37.8779 15.5533 35.1739 18.0704 33.2173 21.1591C31.2718 24.2148 30.2825 27.6333 30.2825 31.3375V75.2825C30.2825 77.1071 30.6013 78.4261 31.2168 79.0746C31.5026 79.3824 32.5249 80.1079 35.9763 80.3607L41.736 80.8553C45.2204 81.3389 45.5832 83.4274 45.5832 84.2957C45.5832 85.3839 45.1105 87.912 40.7468 87.912H4.84738C0.483615 87.912 0.0110061 85.4938 0.0110061 84.4606C0.0110061 83.1526 0.725476 81.4708 4.13295 80.8663L6.75995 80.5255C10.2663 80.0089 11.3436 79.2505 11.6403 78.9537C12.2229 78.3712 12.5417 77.0631 12.5417 75.2825V20.1918C12.5417 18.1364 12.0581 17.5318 11.9042 17.3889C11.6184 17.1251 10.8159 16.6525 8.69452 16.4217L4.23184 15.927C0.417667 15.7072 3.54741e-06 13.4429 3.54741e-06 12.4866C3.54741e-06 9.74968 3.61633 9.22208 4.81444 9.04621C9.02431 8.5186 12.2339 7.69422 14.3883 6.58406C16.6416 5.42993 19.0488 3.96802 21.544 2.2643C23.0499 1.09918 24.4239 0.494629 25.6659 0.494629C27.8643 0.494629 29.2273 1.87959 29.2273 4.11092V11.4864C29.2273 11.6403 29.2493 11.7172 29.2603 11.7282C29.2603 11.7282 29.3153 11.7502 29.4252 11.7832C29.9308 11.937 30.6452 11.4534 31.03 11.1566C36.8227 6.90282 42.0109 3.95703 46.4626 2.38521C50.9472 0.8024 55.7396 0 60.7189 0C67.4789 0 72.9968 1.87959 77.1188 5.58381C81.2847 9.332 83.3951 14.8499 83.3951 21.9725V75.2605C83.3951 77.0412 83.7139 78.3492 84.2965 78.9317C84.5932 79.2285 85.6485 79.954 89.1549 80.3387L93.8154 80.8333C97.2669 81.3169 97.6296 83.5153 97.6296 84.4386C97.6296 85.252 97.3217 87.89 93.4306 87.89V87.901ZM56.4102 84.4166C56.5311 84.4826 56.9048 84.6035 57.7511 84.6035H93.4416C94.1891 84.6035 94.3979 84.4606 94.3979 84.4606C94.3759 84.4826 94.343 84.5265 94.332 84.5595L95.9148 83.922L94.332 84.3836C94.332 84.3836 94.2112 84.2298 93.4198 84.1198L88.8031 83.6362C85.3517 83.2515 83.1863 82.5041 81.9662 81.273C80.7131 80.0199 80.1085 78.0524 80.1085 75.2715V21.9835C80.1085 15.8391 78.3608 11.1456 74.9204 8.04596C71.425 4.90232 66.6546 3.30851 60.7299 3.30851C56.1244 3.30851 51.7056 4.04496 47.5837 5.50686C43.4288 6.97976 38.5374 9.77166 33.0305 13.8056C31.4916 14.9927 29.9528 15.3884 28.5018 14.9598C26.8751 14.4871 25.9407 13.2231 25.9407 11.4974V4.12191C25.9407 3.97901 25.9298 3.88009 25.9188 3.82513C25.8748 3.82513 25.7979 3.80314 25.6879 3.80314C25.5231 3.80314 24.8746 3.88009 23.5116 4.9353C20.8296 6.78191 18.3014 8.29877 15.9272 9.51885C13.3991 10.8269 9.91465 11.7392 5.28708 12.3108C4.7155 12.3987 4.28681 12.4866 3.96804 12.5746C4.12193 12.5965 4.30881 12.6185 4.53964 12.6295L9.09028 13.1241C11.4535 13.3879 13.1133 13.9815 14.1575 14.9378C15.3116 15.993 15.8612 17.6967 15.8612 20.1699V75.2605C15.8612 78.0304 15.2567 79.9979 14.0036 81.262C12.7945 82.4821 10.6401 83.2845 7.23266 83.7791L4.64953 84.1089C4.05597 84.2188 3.70426 84.3507 3.5064 84.4496C3.73723 84.5155 4.15491 84.6035 4.86938 84.6035H40.7687C41.791 84.6035 42.1867 84.4166 42.2966 84.3617C42.1757 84.2957 41.9119 84.1968 41.3953 84.1198L35.7455 83.6362C32.2831 83.3834 30.0847 82.6469 28.8426 81.3169C27.6115 80.0089 27.018 78.0304 27.018 75.2715V31.3265C27.018 26.9847 28.1721 22.9618 30.4694 19.3785C32.7227 15.8281 35.8224 12.9373 39.6586 10.7939C43.5057 8.63951 47.8805 7.55133 52.6839 7.55133C57.7402 7.55133 61.7522 8.7934 64.5881 11.2226C67.5119 13.7287 68.9848 17.9495 68.9848 23.7861V75.2715C68.9848 78.0194 68.3912 79.9979 67.1602 81.3169C65.9291 82.625 63.7527 83.4164 60.2902 83.8011L57.3115 84.1308C56.619 84.2298 56.4321 84.4166 56.4321 84.4166H56.4102Z" fill="var(--fill-0, black)"></path>
</g>
</svg>