<svg preserveAspectRatio="none" width="100%" height="100%" overflow="visible" style="display: block;" viewBox="0 0 120.417 19.6177" fill="none" xmlns="http://www.w3.org/2000/svg">
<g id="Group 1410119479">
<path id="Vector" fill-rule="evenodd" clip-rule="evenodd" d="M39.9216 0V16.7206L26.6649 0H25.4453V19.3763H26.8886V2.7134L40.1453 19.3763H41.3649V0H39.9216Z" fill="var(--fill-0, black)"></path>
<path id="Vector_2" fill-rule="evenodd" clip-rule="evenodd" d="M45.8742 12.2496H54.8443C54.7866 9.62283 53.1268 8.02076 50.5217 8.02076C47.7578 8.02076 46.1268 9.81767 45.8742 12.2496ZM55.566 17.8424C54.4258 19.0331 52.6289 19.6177 50.9691 19.6177C47.0361 19.6177 44.3516 17.0702 44.3516 13.1373C44.3516 9.51458 46.567 6.66406 50.666 6.66406C53.8773 6.66406 56.3093 8.87231 56.3093 12.2785C56.3093 12.7476 56.2804 13.1084 56.2299 13.4404H45.9608C46.0691 16.4352 48.0608 18.261 51.0485 18.261C52.7371 18.261 54.2309 17.6259 55.0897 16.7383L55.566 17.8424Z" fill="var(--fill-0, black)"></path>
<path id="Vector_3" fill-rule="evenodd" clip-rule="evenodd" d="M64.958 12.9549L69.9085 19.3775H68.1404L63.8755 13.8714L59.6105 19.3775H57.9219L62.8796 13.0126L58.2033 6.92188H59.9714L63.9332 12.0745L67.9456 6.92188H69.6342L64.958 12.9549Z" fill="var(--fill-0, black)"></path>
<path id="Vector_4" fill-rule="evenodd" clip-rule="evenodd" d="M72.2656 3.46875H73.7017V6.92545H78.7172V8.28215H73.7017V14.4306C73.7017 16.8626 74.51 18.1904 76.5017 18.1904C77.3316 18.1904 78.0533 17.8584 78.4935 17.5265L78.9625 18.6667C78.3852 19.1358 77.3605 19.5471 76.1698 19.5471C73.3986 19.5471 72.2656 17.8296 72.2656 14.6471V3.46875Z" fill="var(--fill-0, black)"></path>
<path id="Vector_5" fill-rule="evenodd" clip-rule="evenodd" d="M82.3117 12.2496H91.2818C91.2241 9.62283 89.5643 8.02076 86.9664 8.02076C84.1953 8.02076 82.5643 9.81767 82.3117 12.2496ZM92.0035 17.8424C90.8705 19.0331 89.0664 19.6177 87.4066 19.6177C83.4736 19.6177 80.7891 17.0702 80.7891 13.1373C80.7891 9.51458 83.0045 6.66406 87.1035 6.66406C90.3148 6.66406 92.7468 8.87231 92.7468 12.2785C92.7468 12.7476 92.7252 13.1084 92.6674 13.4404H82.3983C82.5066 16.4352 84.4983 18.261 87.4932 18.261C89.1818 18.261 90.6757 17.6259 91.5344 16.7383L92.0035 17.8424Z" fill="var(--fill-0, black)"></path>
<path id="Vector_6" fill-rule="evenodd" clip-rule="evenodd" d="M106.465 17.5971C105.411 18.9249 103.586 19.6177 101.753 19.6177C97.9063 19.6177 95.1641 17.0702 95.1641 13.1373C95.1641 9.51458 97.827 6.66406 101.37 6.66406C103.304 6.66406 105.022 7.0754 106.213 8.20839L105.52 9.37746C104.416 8.37437 103.03 8.02076 101.587 8.02076C98.9599 8.02076 96.6867 10.1785 96.6867 13.1373C96.6867 16.2909 98.9599 18.261 101.868 18.261C103.47 18.261 104.885 17.5393 105.743 16.5434L106.465 17.5971Z" fill="var(--fill-0, black)"></path>
<path id="Vector_7" fill-rule="evenodd" clip-rule="evenodd" d="M109.289 0H110.732V8.60928C111.699 7.53402 113.496 6.69691 115.214 6.69691C118.591 6.69691 120.417 8.38557 120.417 12.2897V19.3763H118.981V12.5134C118.981 9.52577 117.646 8.05361 114.882 8.05361C113.193 8.05361 111.533 8.9701 110.732 9.96598V19.3763H109.289V0Z" fill="var(--fill-0, black)"></path>
<path id="Vector_8" fill-rule="evenodd" clip-rule="evenodd" d="M0 2.54974V16.059C0.0216495 16.0446 0.0360825 16.0302 0.057732 16.0085L8.16907 9.24665C9.63402 8.02706 10.1175 5.66727 9.25876 3.97139L7.30309 0.125H2.42474C1.08247 0.125 0 1.21469 0 2.54974Z" fill="var(--fill-0, black)"></path>
<path id="Vector_9" fill-rule="evenodd" clip-rule="evenodd" d="M16.9632 0.125H9.23438L10.6199 2.8384C11.4787 4.53428 13.3622 4.92397 14.8199 3.70438L18.4715 0.659021C18.0601 0.327062 17.5333 0.125 16.9632 0.125Z" fill="var(--fill-0, black)"></path>
<path id="Vector_10" fill-rule="evenodd" clip-rule="evenodd" d="M14.5376 10.5418L18.7087 18.747C19.1273 18.314 19.3871 17.7222 19.3871 17.0727V2.53872C19.3871 2.40883 19.3726 2.27893 19.351 2.15625L15.62 5.26656C14.1623 6.48615 13.6716 8.84594 14.5376 10.5418Z" fill="var(--fill-0, black)"></path>
<path id="Vector_11" fill-rule="evenodd" clip-rule="evenodd" d="M17.1432 19.4942L13.1741 11.686C12.3082 9.99012 10.4319 9.60043 8.96693 10.82L0.588579 17.8056C0.465899 17.9066 0.350435 18.0221 0.242188 18.1448C0.631878 18.9458 1.46178 19.5087 2.42157 19.5087H16.9556C17.0205 19.5087 17.0783 19.5015 17.1432 19.4942Z" fill="var(--fill-0, black)"></path>
</g>
</svg>