<svg preserveAspectRatio="none" width="100%" height="100%" overflow="visible" style="display: block;" viewBox="0 0 97.6296 87.9121" fill="none" xmlns="http://www.w3.org/2000/svg">
<g id="Group">
<path id="Vector" d="M4.82759 86.2543C2.70616 86.2543 1.63996 85.6498 1.63996 84.4517C1.63996 83.4734 2.56329 82.8139 4.39892 82.4842L6.94901 82.1544C9.9278 81.7148 11.8734 81.0333 12.7857 80.11C13.709 79.1866 14.1707 77.5709 14.1707 75.2736V20.1829C14.1707 18.2154 13.775 16.8744 13.0055 16.1709C12.2251 15.4565 10.8401 14.9948 8.86161 14.775L4.39892 14.2804C2.55229 14.1704 1.63996 13.5659 1.63996 12.4777C1.63996 11.6094 2.77212 11.0048 5.03644 10.6751C9.42218 10.1255 12.7857 9.25713 15.1269 8.04804C17.4682 6.84994 19.9084 5.36606 22.4585 3.61837C23.7335 2.62911 24.7998 2.14547 25.6462 2.14547C26.9212 2.14547 27.5587 2.80498 27.5587 4.113V11.4885C27.5587 12.4667 28.0204 13.1042 28.9437 13.368C29.867 13.6428 30.8892 13.3461 32.0214 12.4667C37.6822 8.31184 42.6725 5.47597 47.0033 3.93713C51.3231 2.40928 55.8848 1.63985 60.7102 1.63985C67.0854 1.63985 72.1856 3.36556 76.0108 6.80597C79.836 10.2464 81.7485 15.3026 81.7485 21.9746V75.2626C81.7485 77.5599 82.2102 79.1757 83.1335 80.099C84.0568 81.0333 86.0024 81.6598 88.9702 81.9895L93.6417 82.4842C95.2025 82.704 95.983 83.3635 95.983 84.4517C95.983 85.6608 95.1366 86.2543 93.4329 86.2543H57.7424C55.7528 86.2543 54.7635 85.6498 54.7635 84.4517C54.7635 83.3635 55.544 82.704 57.1048 82.4842L60.0836 82.1544C63.0624 81.8247 65.008 81.1762 65.9203 80.1869C66.8436 79.2086 67.3053 77.5599 67.3053 75.2626V23.7772C67.3053 18.4243 66.0302 14.6541 63.4801 12.4667C60.93 10.2794 57.3247 9.19118 52.6421 9.19118C47.9596 9.19118 44.0355 10.2024 40.4302 12.2249C36.8139 14.2474 33.956 16.9294 31.8236 20.2599C29.7021 23.5904 28.636 27.2836 28.636 31.3286V75.2736C28.636 77.5709 29.0976 79.2086 30.0209 80.1979C30.9442 81.1762 32.8898 81.7807 35.8576 82.0005L41.5953 82.4952C43.1562 82.715 43.9366 83.3195 43.9366 84.2978C43.9366 85.6058 42.8704 86.2653 40.7489 86.2653H4.84959L4.82759 86.2543Z" fill="var(--fill-0, black)"/>
<path id="Vector_2" d="M93.4198 87.901H57.7293C53.5524 87.901 53.1017 85.4828 53.1017 84.4496C53.1017 83.5263 53.4644 81.3279 56.8609 80.8553L59.8837 80.5255C63.3571 80.1408 64.4123 79.3824 64.7091 79.0636C65.3247 78.4151 65.6434 77.0961 65.6434 75.2715V23.7861C65.6434 18.9608 64.5552 15.5753 62.3898 13.7287C60.1584 11.8161 56.8719 10.8489 52.629 10.8489C48.3862 10.8489 44.5721 11.7941 41.2196 13.6737C37.867 15.5533 35.163 18.0704 33.2065 21.1591C31.2609 24.2148 30.2827 27.6333 30.2827 31.3375V75.2825C30.2827 77.1071 30.6014 78.4261 31.2169 79.0746C31.5027 79.3824 32.525 80.1079 35.9764 80.3607L41.7361 80.8553C45.2206 81.3389 45.5833 83.4274 45.5833 84.2957C45.5833 85.3839 45.1106 87.912 40.7468 87.912H4.84751C0.483751 87.912 0.0111084 85.4938 0.0111084 84.4606C0.0111084 83.1526 0.725578 81.4708 4.13305 80.8663L6.76008 80.5255C10.2665 80.0089 11.3437 79.2505 11.6405 78.9537C12.223 78.3712 12.5418 77.0631 12.5418 75.2825V20.1918C12.5418 18.1254 12.0581 17.5318 11.9043 17.3889C11.6185 17.1251 10.8161 16.6525 8.69466 16.4217L4.23197 15.927C0.417803 15.7072 0.000105788 13.4429 0.000105788 12.4866C0.000105788 9.74968 3.61643 9.22208 4.81454 9.04621C9.02441 8.5186 12.234 7.69422 14.3884 6.58406C16.6527 5.41893 19.06 3.96802 21.5441 2.2643C23.061 1.09918 24.424 0.494629 25.6661 0.494629C27.8644 0.494629 29.2274 1.87959 29.2274 4.11092V11.4864C29.2274 11.6403 29.2494 11.7172 29.2604 11.7282C29.2604 11.7282 29.3153 11.7502 29.4253 11.7832C29.9199 11.926 30.6454 11.4534 31.0301 11.1566C36.8228 6.90282 42.0109 3.95703 46.4626 2.38521C50.9473 0.8024 55.7398 0 60.7191 0C67.4791 0 72.9969 1.87959 77.1189 5.58381C81.2848 9.34299 83.3953 14.8499 83.3953 21.9725V75.2605C83.3953 77.0412 83.714 78.3492 84.2965 78.9317C84.5933 79.2285 85.6486 79.954 89.155 80.3387L93.8155 80.8333C97.2559 81.3169 97.6296 83.5153 97.6296 84.4386C97.6296 85.252 97.3219 87.89 93.4308 87.89L93.4198 87.901ZM56.3993 84.4166C56.5202 84.4826 56.8939 84.6035 57.7403 84.6035H93.4308C93.9474 84.6035 94.2112 84.5265 94.3211 84.4936V84.3836C94.3211 84.3836 94.0903 84.2188 93.4088 84.1198L88.7922 83.6362C85.3408 83.2515 83.1754 82.5041 81.9553 81.273C80.7023 80.0199 80.0977 78.0524 80.0977 75.2715V21.9835C80.0977 15.8391 78.35 11.1456 74.9095 8.04596C71.4141 4.90232 66.6437 3.30851 60.7191 3.30851C56.1135 3.30851 51.6947 4.04496 47.5728 5.50686C43.4179 6.97976 38.5265 9.77166 33.0196 13.8056C31.4808 14.9927 29.9419 15.3884 28.491 14.9598C26.8642 14.4871 25.9299 13.2231 25.9299 11.4974V4.12191C25.9299 3.97901 25.9188 3.88009 25.9079 3.82513C25.8639 3.82513 25.787 3.80314 25.6661 3.80314C25.5012 3.80314 24.8527 3.88009 23.4897 4.9353C20.8187 6.77092 18.2905 8.29877 15.9053 9.51885C13.3772 10.8269 9.89277 11.7392 5.26521 12.3108C4.69363 12.3987 4.26494 12.4866 3.94617 12.5746C4.10006 12.5965 4.28694 12.6185 4.51777 12.6295L9.06838 13.1241C11.4316 13.3879 13.0914 13.9815 14.1356 14.9378C15.2898 15.993 15.8394 17.6967 15.8394 20.1699V75.2605C15.8394 78.0304 15.2348 79.9979 13.9817 81.262C12.7726 82.4821 10.6182 83.2845 7.21075 83.7791L4.63867 84.1089C4.04511 84.2188 3.69336 84.3507 3.4955 84.4496C3.72633 84.5155 4.14405 84.6035 4.85852 84.6035H40.7578C41.7801 84.6035 42.1758 84.4166 42.2857 84.3617C42.1648 84.2957 41.901 84.1968 41.3844 84.1198L35.7346 83.6362C32.2721 83.3834 30.0738 82.6469 28.8317 81.3169C27.6006 80.0089 27.007 78.0304 27.007 75.2715V31.3265C27.007 26.9847 28.1612 22.9618 30.4475 19.3785C32.7118 15.8281 35.8006 12.9373 39.6367 10.7939C43.4839 8.63951 47.8696 7.55133 52.662 7.55133C57.7183 7.55133 61.7303 8.7934 64.5662 11.2226C67.4901 13.7287 68.963 17.9495 68.963 23.7861V75.2715C68.963 78.0304 68.3694 79.9979 67.1383 81.3169C65.9072 82.625 63.7308 83.4164 60.2684 83.8011L57.2896 84.1308C56.5971 84.2298 56.4102 84.4166 56.4102 84.4166H56.3993Z" fill="var(--fill-0, black)"/>
</g>
</svg>
