<svg preserveAspectRatio="none" width="100%" height="100%" overflow="visible" style="display: block;" viewBox="0 0 45.1435 119.7" fill="none" xmlns="http://www.w3.org/2000/svg">
<g id="Group">
<path id="Vector" d="M4.83463 118.05C2.7132 118.05 1.64703 117.445 1.64703 116.247C1.64703 115.269 2.57029 114.609 4.40593 114.279L6.95605 113.95C10.4954 113.51 12.7597 112.829 13.76 111.905C14.7493 110.982 15.2439 109.366 15.2439 107.069V51.9782C15.2439 50.0107 14.8482 48.6697 14.0788 47.9662C13.2984 47.2518 11.9134 46.7901 9.93486 46.5703L5.47218 46.0757C3.62555 45.9658 2.71321 45.3612 2.71321 44.273C2.71321 43.4047 3.8454 42.8001 6.10972 42.4704C10.4955 41.9208 14.0348 41.0524 16.7278 39.8433C19.4208 38.6452 22.0369 37.1614 24.587 35.4137C25.8621 34.4244 26.9282 33.9408 27.7746 33.9408C29.0497 33.9408 29.6872 34.6003 29.6872 35.9083V107.069C29.6872 109.366 30.1159 111.004 30.9623 111.993C31.8086 112.971 33.4354 113.576 35.8427 113.796L41.1517 114.29C42.7126 114.51 43.493 115.115 43.493 116.093C43.493 117.401 42.4268 118.061 40.3053 118.061H4.82363L4.83463 118.05ZM22.6854 18.8601C19.7066 18.8601 17.2005 18.0357 15.145 16.3979C13.0895 14.7602 12.0673 12.6827 12.0673 10.1656C12.0673 7.64851 13.0895 5.60405 15.145 4.02123C17.2005 2.43842 19.7066 1.64701 22.6854 1.64701C25.6642 1.64701 28.1373 2.43842 30.1159 4.02123C32.0944 5.60405 33.0947 7.6595 33.0947 10.1656C33.0947 12.6717 32.1054 14.7602 30.1159 16.3979C28.1264 18.0357 25.6532 18.8601 22.6854 18.8601Z" fill="var(--fill-0, black)"/>
<path id="Vector_2" d="M40.3181 119.7H4.83639C0.472629 119.7 2.00386e-05 117.282 2.00386e-05 116.249C2.00386e-05 114.941 0.71449 113.259 4.12196 112.654L6.74896 112.314C11.0688 111.786 12.2999 111.006 12.6296 110.698C13.2562 110.104 13.5969 108.851 13.5969 107.06V51.969C13.5969 49.9025 13.1133 49.309 12.9594 49.1661C12.6736 48.9023 11.8712 48.4296 9.74978 48.1988L5.2871 47.7042C1.47292 47.4844 1.05519 45.2201 1.05519 44.2638C1.05519 41.5268 4.67152 40.9992 5.86963 40.8234C10.1125 40.2957 13.531 39.4604 16.0591 38.3282C18.6532 37.1741 21.2032 35.7342 23.6544 34.0524C25.1603 32.8873 26.5343 32.2828 27.7764 32.2828C29.9747 32.2828 31.3377 33.6677 31.3377 35.8991V107.06C31.3377 109.401 31.8104 110.434 32.2171 110.896C32.5359 111.258 33.4372 111.907 35.9983 112.138L41.3073 112.632C44.7698 113.116 45.1435 115.205 45.1435 116.073C45.1435 117.161 44.6709 119.689 40.3071 119.689L40.3181 119.7ZM3.48442 116.249C3.71525 116.315 4.13293 116.403 4.8474 116.403H40.3291C41.3514 116.403 41.7471 116.216 41.846 116.161C41.7251 116.095 41.4723 115.996 40.9447 115.919L35.7125 115.435C32.8436 115.172 30.8871 114.402 29.733 113.072C28.6008 111.764 28.0512 109.808 28.0512 107.071V35.91C28.0512 35.7672 28.0402 35.6682 28.0292 35.6133C27.9853 35.6133 27.9083 35.5913 27.7984 35.5913C27.6335 35.5913 26.974 35.6682 25.622 36.7234C22.929 38.57 20.203 40.1089 17.4221 41.351C14.5972 42.615 10.8709 43.5383 6.33127 44.1099C5.75969 44.1978 5.33106 44.2858 5.0123 44.3737C5.16619 44.3957 5.353 44.4177 5.58383 44.4286L10.1345 44.9233C12.4977 45.1871 14.1575 45.7806 15.2127 46.7369C16.3559 47.7921 16.9164 49.4958 16.9164 51.969V107.06C16.9164 109.819 16.246 111.852 14.916 113.094C13.6299 114.303 11.1787 115.084 7.18866 115.578L4.64955 115.908C4.05599 116.018 3.70428 116.15 3.50642 116.249H3.48442ZM22.6871 20.5106C19.3456 20.5106 16.4548 19.5653 14.1135 17.6967C11.6623 15.7402 10.4093 13.2121 10.4093 10.1784C10.4093 7.14464 11.6624 4.62753 14.1355 2.72595C16.4768 0.923307 19.3566 0 22.6871 0C26.0177 0 28.8756 0.923307 31.1509 2.73695C33.5361 4.64951 34.7452 7.14464 34.7452 10.1784C34.7452 13.2121 33.5471 15.7182 31.1729 17.6747C28.8866 19.5543 26.0397 20.5106 22.6871 20.5106ZM22.6871 3.28653C20.0601 3.28653 17.9277 3.95703 16.158 5.32001C14.5202 6.58406 13.7178 8.16687 13.7178 10.1674C13.7178 12.1679 14.5202 13.7837 16.18 15.1137C17.9497 16.5206 20.0821 17.2131 22.6871 17.2131C25.2922 17.2131 27.3807 16.5316 29.0734 15.1356C30.6672 13.8166 31.4477 12.1898 31.4477 10.1784C31.4477 8.16687 30.6782 6.58406 29.0954 5.32001C27.3917 3.96802 25.2922 3.30852 22.6871 3.30852V3.28653Z" fill="var(--fill-0, black)"/>
</g>
</svg>
