<svg preserveAspectRatio="none" width="100%" height="100%" overflow="visible" style="display: block;" viewBox="0 0 68.5011 89.374" fill="none" xmlns="http://www.w3.org/2000/svg">
<g id="Group">
<path id="Vector" d="M37.5464 87.7357C30.7535 87.7357 24.653 85.988 19.278 82.4926C13.892 78.9972 9.61615 74.051 6.42851 67.6538C3.24088 61.2566 1.64702 53.8591 1.64702 45.4394C1.64702 37.0198 3.27383 29.2046 6.53841 22.6535C9.79199 16.0915 14.2547 10.9583 19.9155 7.24311C25.5763 3.5279 31.8856 1.67029 38.8214 1.67029C47.1753 1.67029 53.9353 4.3193 59.1124 9.61733C64.2786 14.9153 66.8617 23.5329 66.8617 35.4369C66.8617 39.0422 65.092 40.8449 61.5526 40.8449H21.1906C18.3547 40.8449 16.9367 42.0979 16.9367 44.615C16.9367 56.2004 19.1351 64.8948 23.5208 70.6875C27.9066 76.4801 33.5014 79.382 40.3054 79.382C45.6804 79.382 50.0771 77.9091 53.4736 74.9523C56.8701 72.0065 59.64 67.0272 61.7614 60.0365C62.1901 58.8384 63.1024 58.2338 64.5204 58.2338C66.2241 58.2338 66.8616 59.333 66.433 61.5094C64.1686 71.2371 60.5523 78.041 55.595 81.921C50.6377 85.8011 44.6142 87.7357 37.5354 87.7357H37.5464ZM20.553 36.745H42.0091C48.8021 36.745 52.2095 34.008 52.2095 28.5451C52.2095 21.4444 51.0774 15.8716 48.8131 11.8267C46.5487 7.7817 43.1522 5.75922 38.6126 5.75922C33.0947 5.75922 28.4452 8.22137 24.697 13.1347C20.9377 18.059 18.4976 25.0497 17.3654 34.1179C17.0796 35.8656 18.1458 36.745 20.553 36.745Z" fill="var(--fill-0, black)"/>
<path id="Vector_2" d="M37.5591 89.3739C30.4584 89.3739 24.0172 87.5163 18.3893 83.867C12.7835 80.2288 8.26582 75.0187 4.95727 68.3797C1.67071 61.7846 5.8107e-06 54.0684 5.8107e-06 45.4289C5.8107e-06 36.7894 1.70371 28.6555 5.05623 21.9066C8.43072 15.1137 13.1242 9.71671 19.0049 5.84761C24.9185 1.96752 31.5796 0 38.8122 0C47.5837 0 54.8053 2.84686 60.2792 8.45265C65.7312 14.0475 68.5011 23.1266 68.5011 35.4264C68.5011 39.911 65.9621 42.4831 61.5433 42.4831H21.1812C18.785 42.4831 18.5872 43.4834 18.5872 44.6045C18.5872 55.7721 20.6866 64.2028 24.8415 69.6767C28.9415 75.0846 33.9978 77.7117 40.3071 77.7117C45.2534 77.7117 49.3204 76.3597 52.3981 73.6887C55.5418 70.9627 58.1688 66.1923 60.1804 59.5313C60.8728 57.5858 62.4007 56.5525 64.5221 56.5525C66.0719 56.5525 66.9513 57.2121 67.4019 57.7726C68.1824 58.7179 68.3912 60.0369 68.0505 61.8066C65.6982 71.93 61.8511 79.1076 56.6189 83.1965C51.3868 87.2855 44.9676 89.3629 37.5481 89.3629L37.5591 89.3739ZM38.8341 3.29752C32.25 3.29752 26.1935 5.07819 20.8295 8.60654C15.4325 12.1459 11.1237 17.1142 8.02404 23.3685C4.89136 29.6667 3.30849 37.0862 3.30849 45.4289C3.30849 53.7716 4.85835 60.7734 7.91408 66.9068C10.9478 73.0072 15.0808 77.7776 20.192 81.0971C25.2702 84.4056 31.1179 86.0764 37.5591 86.0764C44.0003 86.0764 49.9579 84.2408 54.5965 80.6025C59.224 76.9862 62.6755 70.4241 64.8409 61.1141C64.9948 60.3117 64.9068 59.96 64.8738 59.883C64.8518 59.894 64.7419 59.8611 64.5331 59.8611C63.6427 59.8611 63.4559 60.1798 63.324 60.5645C61.1476 67.7531 58.1908 73.0292 54.5635 76.1838C50.8702 79.3934 46.0778 81.0202 40.3181 81.0202C33.0085 81.0202 26.919 77.8765 22.2255 71.6772C17.6309 65.6207 15.3116 56.5196 15.3116 44.6155C15.3116 41.1751 17.466 39.1966 21.2032 39.1966H61.5653C64.2033 39.1966 65.2256 38.1414 65.2256 35.4374C65.2256 24.028 62.7744 15.7292 57.938 10.7609C53.1126 5.81464 46.6823 3.30851 38.8341 3.30851V3.29752ZM42.0218 38.3832H20.5657C18.6531 38.3832 17.3122 37.9105 16.4878 36.9323C16.0151 36.3717 15.4985 35.3824 15.7513 33.8436C16.9054 24.5775 19.4775 17.2461 23.4016 12.1239C27.4686 6.7929 32.5908 4.09992 38.6253 4.09992C43.7695 4.09992 47.6936 6.43017 50.2547 11.0137C52.6509 15.2895 53.86 21.1921 53.86 28.5456C53.86 33.0412 51.8045 38.3942 42.0108 38.3942L42.0218 38.3832ZM18.9939 34.8109C18.9939 34.8109 19.3016 35.0966 20.5547 35.0966H42.0108C49.5842 35.0966 50.5625 31.6013 50.5625 28.5456C50.5625 21.7637 49.4853 16.4107 47.3748 12.6295C45.4073 9.11216 42.5384 7.40844 38.6143 7.40844C33.591 7.40844 29.4691 9.60679 26.0067 14.1354C22.4453 18.7959 20.0931 25.5888 19.0049 34.3272C18.9499 34.7009 18.9939 34.8109 18.9939 34.8109Z" fill="var(--fill-0, black)"/>
</g>
</svg>
