<svg preserveAspectRatio="none" width="100%" height="100%" overflow="visible" style="display: block;" viewBox="0 0 53.2336 111.523" fill="none" xmlns="http://www.w3.org/2000/svg">
<g id="Group">
<path id="Vector" d="M30.7496 109.873C25.7923 109.873 21.7253 108.532 18.5377 105.861C15.3501 103.179 13.7563 98.7826 13.7563 92.6602V31.3372C13.7563 30.0292 12.9099 29.3697 11.2061 29.3697H5.05067C2.78635 29.3697 1.65423 28.7102 1.65423 27.4022C1.65423 26.5338 2.29175 25.7644 3.5668 25.1049C8.23833 22.5878 11.9865 19.8838 14.8224 16.993C17.6583 14.1022 20.1315 10.1341 22.2529 5.11091C23.2422 2.81364 24.4513 1.6705 25.8692 1.6705C27.4301 1.6705 28.2105 2.54984 28.2105 4.29752V22.4999C28.2105 24.0277 29.1998 24.7971 31.1893 24.7971H44.9951C47.2594 24.7971 48.3915 25.5666 48.3915 27.0944C48.3915 28.6223 47.2594 29.3917 44.9951 29.3917H31.1893C29.1998 29.3917 28.2105 30.1611 28.2105 31.689V92.847C28.2105 95.2542 28.7052 97.1338 29.6944 98.5078C30.6837 99.8708 32.5303 100.552 35.2233 100.552C38.2021 100.552 40.6423 99.4091 42.5548 97.1118C44.4674 94.8146 45.7095 91.0994 46.2701 85.9662C46.5559 84.4384 47.4682 83.6689 49.0291 83.6689C50.7328 83.6689 51.5792 84.4823 51.5792 86.1311C51.1505 94.5508 48.9191 100.618 44.8851 104.333C40.8511 108.049 36.1356 109.906 30.7606 109.906L30.7496 109.873Z" fill="var(--fill-0, black)"/>
<path id="Vector_2" d="M30.7442 111.523C25.4132 111.523 20.9505 110.039 17.466 107.115C13.9047 104.125 12.1021 99.2557 12.1021 92.6497V31.3267C12.1021 31.2058 12.0801 31.1398 12.0801 31.1288C12.0581 31.1288 11.8273 31.0079 11.2007 31.0079H5.04527C0.483658 31.0079 5.40856e-05 28.4798 5.40856e-05 27.3917C5.40856e-05 26.3035 0.483682 24.8196 2.80296 23.6325C7.27664 21.2253 10.9259 18.5983 13.6409 15.8283C16.3119 13.0914 18.6972 9.26625 20.7307 4.45187C22.0057 1.49509 23.7314 0.000208691 25.8638 0.000208691C28.326 0.000208691 29.8539 1.63798 29.8539 4.276V22.4783C29.8539 22.8081 29.8539 23.1269 31.1839 23.1269H44.9897C49.5403 23.1269 50.0349 25.8858 50.0349 27.0729C50.0349 28.26 49.5403 31.0189 44.9897 31.0189H31.1839C29.8539 31.0189 29.8539 31.3377 29.8539 31.6674V92.8255C29.8539 94.87 30.2496 96.4418 31.03 97.508C31.6895 98.4203 33.0965 98.882 35.2179 98.882C37.7021 98.882 39.6806 97.9477 41.2854 96.0351C42.9782 94.0017 44.0993 90.5502 44.6269 85.7578L44.6489 85.6369C45.0776 83.3177 46.6714 81.9877 49.0347 81.9877C51.6287 81.9877 53.2336 83.5595 53.2336 86.0986C52.7829 95.0019 50.3537 101.509 46.0119 105.51C41.6811 109.5 36.5479 111.523 30.7662 111.523H30.7442ZM25.8638 3.31972C24.9185 3.31972 24.0832 5.03443 23.7644 5.77088C21.577 10.959 18.961 15.1249 15.9932 18.1586C13.0474 21.1703 9.12329 23.9952 4.33084 26.5783C3.46249 27.0289 3.28661 27.3587 3.28661 27.4246C3.26462 27.4356 3.61632 27.7434 5.03427 27.7434H11.1897C14.2894 27.7434 15.3886 29.612 15.3886 31.3597V92.6827C15.3886 98.2665 16.7956 102.278 19.5765 104.62C22.4454 107.027 26.1936 108.247 30.7332 108.247C35.7345 108.247 39.9884 106.565 43.7476 103.114C47.4408 99.7174 49.5073 93.9797 49.914 86.0436C49.914 85.4721 49.881 85.3182 49.0127 85.3182C48.2652 85.3182 48.0234 85.505 47.8805 86.2085C47.265 91.6934 45.9349 95.6065 43.8025 98.1675C41.5712 100.85 38.6803 102.202 35.2069 102.202C31.9643 102.202 29.656 101.278 28.348 99.4646C27.1499 97.8268 26.5453 95.5955 26.5453 92.8365V31.6784C26.5453 30.7551 26.8751 27.7324 31.1729 27.7324H44.9787C46.7264 27.7324 46.7264 27.2817 46.7264 27.0839C46.7264 26.886 46.7264 26.4354 44.9787 26.4354H31.1729C26.8861 26.4354 26.5453 23.4126 26.5453 22.4893V4.28699C26.5453 3.30873 26.3585 3.30873 25.8528 3.30873L25.8638 3.31972Z" fill="var(--fill-0, black)"/>
</g>
</svg>
