<svg preserveAspectRatio="none" width="100%" height="100%" overflow="visible" style="display: block;" viewBox="0 0 48.1224 121.36" fill="none" xmlns="http://www.w3.org/2000/svg">
<g id="Group">
<path id="Vector" d="M4.8276 119.693C2.70618 119.693 1.63994 119.089 1.63994 117.891C1.63994 116.912 2.56327 116.253 4.3989 115.923L9.29029 115.264C12.2691 114.824 14.2146 114.23 15.127 113.461C16.0503 112.702 16.5119 111.164 16.5119 108.866V12.4687C16.5119 10.1715 16.0503 8.64361 15.127 7.87419C14.2036 7.11576 12.2581 6.51121 9.29029 6.07154L4.3989 5.41204C2.55227 5.08228 1.63994 4.43377 1.63994 3.44451C1.63994 2.24641 2.70618 1.64187 4.8276 1.64187H43.2771C45.3985 1.64187 46.4647 2.24641 46.4647 3.44451C46.4647 4.42278 45.5414 5.08228 43.7058 5.41204L38.8254 6.07154C35.8466 6.51121 33.901 7.11576 32.9887 7.87419C32.0654 8.64361 31.6037 10.1715 31.6037 12.4687V108.877C31.6037 111.175 32.0654 112.702 32.9887 113.472C33.912 114.241 35.8576 114.835 38.8254 115.275L43.7058 115.934C45.5414 116.264 46.4647 116.912 46.4647 117.902C46.4647 119.111 45.3985 119.704 43.2771 119.704H4.8276V119.693Z" fill="var(--fill-0, black)"/>
<path id="Vector_2" d="M43.286 121.349H4.83653C0.472763 121.349 8.65656e-05 118.931 8.65656e-05 117.898C8.65656e-05 116.59 0.714557 114.908 4.12203 114.303L9.07936 113.633C12.6737 113.105 13.7729 112.457 14.0916 112.193C14.3335 111.995 14.8721 111.281 14.8721 108.873V12.4759C14.8721 10.0687 14.3225 9.34321 14.0806 9.14536C13.7729 8.89255 12.6627 8.24403 9.05739 7.70544L4.18798 7.05692C0.714554 6.44139 8.65656e-05 4.75965 8.65656e-05 3.45163C8.65656e-05 2.41841 0.472763 0.000221525 4.83653 0.000221525H43.286C47.6497 0.000221525 48.1224 2.41841 48.1224 3.45163C48.1224 4.75965 47.4079 6.43039 44.0004 7.04593L39.0431 7.71643C35.4488 8.24403 34.3386 8.89255 34.0309 9.15635C33.8 9.3542 33.2504 10.0687 33.2504 12.4759V108.884C33.2504 111.292 33.8 112.006 34.0309 112.204C34.3386 112.468 35.4488 113.116 39.0651 113.644L43.9345 114.303C47.5948 114.952 48.1224 116.832 48.1224 117.909C48.1224 118.986 47.6497 121.36 43.286 121.36V121.349ZM3.48452 117.898C3.71534 117.964 4.13302 118.052 4.84749 118.052H43.297C44.0115 118.052 44.4181 117.975 44.649 117.909C44.4401 117.81 44.0664 117.667 43.4289 117.557L38.6144 116.908C35.2399 116.414 33.1185 115.721 31.9314 114.743C30.6014 113.644 29.9529 111.731 29.9529 108.884V12.4759C29.9529 9.63999 30.6014 7.71643 31.9314 6.61725C33.1185 5.63899 35.229 4.94651 38.5815 4.45188L43.4838 3.79237C44.0774 3.68246 44.4401 3.55056 44.638 3.45163C44.4072 3.38568 43.9894 3.30874 43.275 3.30874H4.82552C4.12204 3.30874 3.70434 3.38568 3.47351 3.45163C3.68236 3.55056 4.0561 3.69345 4.69363 3.80337L9.50806 4.45188C12.8826 4.94651 14.993 5.63899 16.1801 6.61725C17.5101 7.72742 18.1586 9.63999 18.1586 12.4759V108.884C18.1586 111.72 17.5101 113.644 16.1801 114.743C14.993 115.732 12.8825 116.414 9.53003 116.908L4.62768 117.568C4.03412 117.678 3.67137 117.81 3.47351 117.909L3.48452 117.898Z" fill="var(--fill-0, black)"/>
</g>
</svg>
