<svg preserveAspectRatio="none" width="100%" height="100%" overflow="visible" style="display: block;" viewBox="0 0 46.2318 124.625" fill="none" xmlns="http://www.w3.org/2000/svg">
<g id="Group">
<path id="Vector" d="M4.19721 122.967C2.49347 122.967 1.64709 122.362 1.64709 121.164C1.64709 120.076 2.42752 119.416 3.98836 119.197L6.96711 118.867C9.9459 118.537 12.1333 117.889 13.5512 116.899C14.9692 115.921 15.6727 114.272 15.6727 111.975V18.0395C15.6727 16.072 15.2769 14.709 14.5075 13.9396C13.7271 13.1702 12.3422 12.7415 10.3636 12.6316L5.47223 12.137C3.91139 11.9171 3.13096 11.2686 3.13096 10.1695C3.13096 9.07028 3.91139 8.42176 5.47223 8.20193C9.44029 7.54242 12.8368 6.78399 15.6727 5.90465C18.4976 5.0363 20.8388 4.15696 22.6854 3.27762C24.9498 2.18944 26.6425 1.63985 27.7857 1.63985C29.3465 1.63985 30.1269 2.51919 30.1269 4.26688V111.986C30.1269 114.283 30.5886 115.899 31.5119 116.822C32.4352 117.757 34.3808 118.383 37.3486 118.713L42.24 119.208C43.8008 119.427 44.5812 120.087 44.5812 121.175C44.5812 122.384 43.7349 122.978 42.0311 122.978H4.21915L4.19721 122.967Z" fill="var(--fill-0, black)"/>
<path id="Vector_2" d="M42.0109 124.613H4.19897C0.307857 124.613 7.70066e-05 121.975 7.70066e-05 121.162C7.70066e-05 120.239 0.362789 118.04 3.75927 117.568L6.78203 117.238C9.46404 116.941 11.4316 116.381 12.6077 115.556C13.564 114.897 14.0257 113.721 14.0257 111.995V18.0375C14.0257 16.004 13.553 15.3115 13.3441 15.1137C13.0803 14.8499 12.3109 14.3882 10.2664 14.2783L5.30909 13.7837C1.85765 13.3 1.48395 11.1017 1.48395 10.1784C1.48395 9.25505 1.84666 7.0567 5.24314 6.58406C9.0793 5.94654 12.4429 5.1991 15.1908 4.34174C17.9388 3.49538 20.2251 2.63802 21.9838 1.80265C24.5229 0.571571 26.3695 0 27.7874 0C30.2496 0 31.7775 1.63777 31.7775 4.27579V111.995C31.7775 113.776 32.0962 115.084 32.6788 115.666C32.9756 115.963 34.0308 116.688 37.5372 117.073L42.4066 117.568C45.858 118.051 46.2318 120.25 46.2318 121.173C46.2318 121.986 45.924 124.624 42.0329 124.624L42.0109 124.613ZM3.29763 121.195C3.40755 121.239 3.66037 121.316 4.19897 121.316H42.0109C42.5385 121.316 42.7913 121.239 42.9012 121.195V121.085C42.9012 121.085 42.6704 120.92 41.9889 120.821L37.1635 120.338C33.7011 119.953 31.5356 119.206 30.3155 117.974C29.0625 116.721 28.4579 114.754 28.4579 111.973V4.2648C28.4579 3.28653 28.2711 3.28653 27.7655 3.28653C27.2599 3.28653 26.0507 3.47339 23.3797 4.75943C21.4671 5.67174 19.0379 6.58406 16.1361 7.47439C13.2452 8.36472 9.74979 9.15613 5.71578 9.82662C4.93536 9.93654 4.74856 10.1234 4.74856 10.1234L4.7705 10.2333C4.7705 10.2333 5.00135 10.3982 5.68284 10.4971L10.5083 10.9808C12.8495 11.1127 14.5533 11.6952 15.6415 12.7504C16.7626 13.8496 17.3012 15.5753 17.3012 18.0265V111.973C17.3012 114.831 16.3449 116.941 14.4653 118.249C12.8055 119.403 10.3983 120.14 7.12277 120.503L4.14396 120.832C3.45147 120.931 3.26462 121.118 3.26462 121.118V121.195H3.29763Z" fill="var(--fill-0, black)"/>
</g>
</svg>
