<svg preserveAspectRatio="none" width="100%" height="100%" overflow="visible" style="display: block;" viewBox="0 0 46.2207 124.625" fill="none" xmlns="http://www.w3.org/2000/svg">
<g id="Group">
<path id="Vector" d="M4.19716 122.967C2.49342 122.967 1.64704 122.362 1.64704 121.164C1.64704 120.076 2.42747 119.416 3.98831 119.197L6.96712 118.867C9.94591 118.537 12.1333 117.889 13.5512 116.899C14.9692 115.921 15.6726 114.272 15.6726 111.975V18.0395C15.6726 16.072 15.2769 14.709 14.5075 13.9396C13.7271 13.1702 12.3421 12.7415 10.3636 12.6316L5.47218 12.137C3.91134 11.9171 3.13098 11.2686 3.13098 10.1695C3.13098 9.07028 3.91134 8.42176 5.47218 8.20193C9.44024 7.54242 12.8368 6.78399 15.6726 5.90465C18.4976 5.0363 20.8388 4.15696 22.6854 3.27762C24.9498 2.18944 26.6425 1.63985 27.7857 1.63985C29.3465 1.63985 30.127 2.51919 30.127 4.26688V111.986C30.127 114.283 30.5886 115.899 31.5119 116.822C32.4352 117.757 34.3807 118.383 37.3485 118.713L42.2399 119.208C43.8008 119.427 44.5812 120.087 44.5812 121.175C44.5812 122.384 43.7348 122.978 42.0311 122.978H4.21916L4.19716 122.967Z" fill="var(--fill-0, black)"/>
<path id="Vector_2" d="M42.0109 124.613H4.19892C0.307805 124.613 2.51122e-05 121.975 2.51122e-05 121.162C2.51122e-05 120.239 0.362737 118.04 3.75922 117.568L6.78198 117.238C9.46399 116.941 11.4316 116.37 12.6077 115.556C13.564 114.897 14.0256 113.732 14.0256 111.995V18.0375C14.0256 16.004 13.553 15.3115 13.3441 15.1137C13.0803 14.8499 12.3109 14.3882 10.2664 14.2783L5.30911 13.7837C1.85767 13.3 1.48396 11.1017 1.48396 10.1784C1.48396 9.25505 1.84668 7.0567 5.24316 6.58406C9.07931 5.94654 12.4428 5.1991 15.1798 4.34174C17.9167 3.48438 20.214 2.63802 21.9727 1.80265C24.5118 0.571571 26.3585 0 27.7764 0C30.2386 0 31.7665 1.63777 31.7665 4.27579V111.995C31.7665 113.776 32.0853 115.084 32.6678 115.666C32.9646 115.963 34.0198 116.688 37.5262 117.073L42.3956 117.568C45.847 118.051 46.2207 120.25 46.2207 121.173C46.2207 121.986 45.9129 124.624 42.0218 124.624L42.0109 124.613ZM3.29758 121.195C3.4075 121.239 3.66032 121.316 4.19892 121.316H42.0109C42.7583 121.316 42.9672 121.173 42.9672 121.173C42.9452 121.195 42.9122 121.239 42.9012 121.272L44.4841 120.634L42.9012 121.096C42.9012 121.096 42.7803 120.942 41.9889 120.832L37.1635 120.349C33.701 119.964 31.5357 119.217 30.3156 117.985C29.0625 116.732 28.4579 114.765 28.4579 111.995V4.2648C28.4579 3.28653 28.2711 3.28653 27.7654 3.28653C27.2598 3.28653 26.0507 3.47339 23.3797 4.75943C21.4671 5.67174 19.0379 6.58406 16.136 7.47439C13.2452 8.36472 9.74982 9.15613 5.7268 9.82662C4.94638 9.93654 4.75951 10.1234 4.75951 10.1234L4.78152 10.2333C4.78152 10.2333 5.0123 10.3982 5.69379 10.4971L10.5192 10.9808C12.8605 11.1127 14.5642 11.6952 15.6524 12.7614C16.7736 13.8606 17.3122 15.5863 17.3122 18.0375V111.984C17.3122 114.842 16.3559 116.952 14.4763 118.26C12.8165 119.414 10.4093 120.151 7.13372 120.514L4.15498 120.843C3.46249 120.942 3.27557 121.129 3.27557 121.129V121.206L3.29758 121.195Z" fill="var(--fill-0, black)"/>
</g>
</svg>
