<svg preserveAspectRatio="none" width="100%" height="100%" overflow="visible" style="display: block;" viewBox="0 0 40 40" fill="none" xmlns="http://www.w3.org/2000/svg">
<g id="workflow-circle-05">
<path id="Vector" d="M15 8.33333C15 11.0947 12.7614 13.3333 10 13.3333C7.23858 13.3333 5 11.0947 5 8.33333C5 5.57192 7.23858 3.33333 10 3.33333C12.7614 3.33333 15 5.57192 15 8.33333Z" stroke="var(--stroke-0, black)" stroke-width="1.5"/>
<path id="Vector_2" d="M35 8.33333C35 11.0947 32.7615 13.3333 30 13.3333C27.2385 13.3333 25 11.0947 25 8.33333C25 5.57192 27.2385 3.33333 30 3.33333C32.7615 3.33333 35 5.57192 35 8.33333Z" stroke="var(--stroke-0, black)" stroke-width="1.5"/>
<path id="Vector_3" d="M15 31.6667C15 34.4282 12.7614 36.6667 10 36.6667C7.23858 36.6667 5 34.4282 5 31.6667C5 28.9052 7.23858 26.6667 10 26.6667C12.7614 26.6667 15 28.9052 15 31.6667Z" stroke="var(--stroke-0, black)" stroke-width="1.5"/>
<path id="Vector_4" d="M10 13.3333V26.6667" stroke="var(--stroke-0, black)" stroke-width="1.5" stroke-linecap="round" stroke-linejoin="round"/>
<path id="Vector_5" d="M10 20H23.3333C25.6668 20 26.8337 20 27.725 19.5458C28.509 19.1463 29.1463 18.509 29.5458 17.725C30 16.8337 30 15.6669 30 13.3333" stroke="var(--stroke-0, black)" stroke-width="1.5" stroke-linecap="round" stroke-linejoin="round"/>
</g>
</svg>
