<svg preserveAspectRatio="none" width="100%" height="100%" overflow="visible" style="display: block;" viewBox="0 0 32 32" fill="none" xmlns="http://www.w3.org/2000/svg">
<g id="security">
<path id="Vector" d="M24.9451 4.66061C22.422 3.40525 19.3345 2.66683 16 2.66683C12.6655 2.66683 9.578 3.40525 7.05488 4.66063C5.81757 5.27624 5.19892 5.58405 4.59947 6.55188C4 7.51971 4 8.4568 4 10.331V14.9829C4 22.5608 10.0565 26.774 13.564 28.5785C14.5423 29.0819 15.0313 29.3335 16 29.3335C16.9687 29.3335 17.4577 29.0819 18.4359 28.5785C21.9435 26.774 28 22.5608 28 14.9829V10.331C28 8.45681 28 7.51971 27.4005 6.55188C26.8011 5.58405 26.1824 5.27624 24.9451 4.66061Z" stroke="var(--stroke-0, black)" stroke-width="1.5" stroke-linecap="round" stroke-linejoin="round"/>
<path id="Vector_2" d="M16.0013 12.0002V13.3335M14.668 12.6668C14.668 13.0205 14.8085 13.3596 15.0585 13.6096C15.3085 13.8597 15.6477 14.0001 16.0013 14.0001C16.3549 14.0001 16.6941 13.8597 16.9441 13.6096C17.1941 13.3596 17.3346 13.0205 17.3346 12.6668C17.3346 12.3132 17.1941 11.9741 16.9441 11.724C16.6941 11.474 16.3549 11.3335 16.0013 11.3335C15.6477 11.3335 15.3085 11.474 15.0585 11.724C14.8085 11.9741 14.668 12.3132 14.668 12.6668Z" stroke="var(--stroke-0, black)" stroke-width="1.5" stroke-linecap="round" stroke-linejoin="round"/>
<path id="Vector_3" d="M17 18.6668H15L16 14.0001L17 18.6668Z" stroke="var(--stroke-0, black)" stroke-width="1.5" stroke-linecap="round" stroke-linejoin="round"/>
</g>
</svg>
