<svg width="24" height="24" viewBox="0 0 24 24" fill="none" xmlns="http://www.w3.org/2000/svg">
<path d="M14 19L11.1069 10.7479C9.76348 6.91597 9.09177 5 8 5C6.90823 5 6.23652 6.91597 4.89309 10.7479L2 19M4.5 12H11.5" stroke="black" stroke-width="1.5" stroke-linecap="round" stroke-linejoin="round"></path>
<path d="M21.9673 13.9421V18.4421M21.9673 13.9421C22.0145 13.119 22.0163 12.492 21.9175 11.9802C21.6845 10.7738 20.4239 10.0468 19.2041 9.89892C18.0366 9.7574 17.0996 10.0579 16.1516 11.4392M21.9673 13.9421H19.1237C18.6868 13.9421 18.2462 13.9632 17.8253 14.0802C15.2526 14.7954 15.4412 18.4032 18.0214 18.8479C18.308 18.8973 18.6006 18.9185 18.8908 18.9055C19.5684 18.8753 20.1936 18.5479 20.7302 18.133C21.3586 17.6469 21.9673 16.9684 21.9673 15.9421V13.9421Z" stroke="black" stroke-width="1.5" stroke-linecap="round" stroke-linejoin="round"></path>
</svg>