<svg preserveAspectRatio="none" width="100%" height="100%" overflow="visible" style="display: block;" viewBox="0 0 32 32" fill="none" xmlns="http://www.w3.org/2000/svg">
<g id="file-validation">
<path id="Vector" d="M12.9697 2.66667C8.62143 2.66667 6.44728 2.66667 4.93743 3.73045C4.50483 4.03524 4.12077 4.39669 3.79693 4.80385C2.66667 6.22489 2.66667 8.27115 2.66667 12.3636V15.7576C2.66667 19.7085 2.66667 21.6839 3.29192 23.2616C4.29708 25.7981 6.42285 27.7988 9.11781 28.7448C10.7942 29.3333 12.8931 29.3333 17.0909 29.3333C19.4897 29.3333 20.6891 29.3333 21.6469 28.9971C23.1869 28.4565 24.4016 27.3132 24.976 25.8639C25.3333 24.9623 25.3333 23.8335 25.3333 21.5757V20.6667" stroke="var(--stroke-0, black)" stroke-width="1.5" stroke-linecap="round" stroke-linejoin="round"/>
<path id="Vector_2" d="M20 10C20 10 20.6667 10 21.3333 11.3333C21.3333 11.3333 23.4509 8 25.3333 7.33333" stroke="var(--stroke-0, black)" stroke-width="1.5" stroke-linecap="round" stroke-linejoin="round"/>
<path id="Vector_3" d="M29.3333 9.33333C29.3333 13.0152 26.3485 16 22.6667 16C18.9848 16 16 13.0152 16 9.33333C16 5.65144 18.9848 2.66667 22.6667 2.66667C26.3485 2.66667 29.3333 5.65144 29.3333 9.33333Z" stroke="var(--stroke-0, black)" stroke-width="1.5" stroke-linecap="round"/>
<path id="Vector_4" d="M2.66667 16C2.66667 18.4545 4.65651 20.4444 7.11111 20.4444C7.99883 20.4444 9.04539 20.2889 9.90849 20.5201C10.6754 20.7256 11.2743 21.3247 11.4798 22.0915C11.7111 22.9547 11.5556 24.0012 11.5556 24.8889C11.5556 27.3435 13.5455 29.3333 16 29.3333" stroke="var(--stroke-0, black)" stroke-width="1.5" stroke-linecap="round" stroke-linejoin="round"/>
</g>
</svg>
