<svg preserveAspectRatio="none" width="100%" height="100%" overflow="visible" style="display: block;" viewBox="0 0 40 40" fill="none" xmlns="http://www.w3.org/2000/svg">
<g id="megaphone-01">
<path id="Vector" d="M24.8772 4.85172L13.7892 10.1742C12.9359 10.5838 12.0241 10.6864 11.0946 10.4782C10.4863 10.3419 10.1821 10.2738 9.93717 10.2458C6.89572 9.89853 5 12.3057 5 15.0738V16.5929C5 19.361 6.89572 21.7682 9.93717 21.4208C10.1821 21.3928 10.4863 21.3247 11.0946 21.1885C12.0241 20.9802 12.9359 21.0828 13.7892 21.4925L24.8772 26.815C27.4223 28.0368 28.695 28.6477 30.114 28.1715C31.5328 27.6953 32.0198 26.6735 32.994 24.63C35.6687 19.0187 35.6687 12.6481 32.994 7.0366C32.0198 4.9931 31.5328 3.97135 30.114 3.49517C28.695 3.019 27.4223 3.6299 24.8772 4.85172Z" stroke="var(--stroke-0, black)" stroke-width="2" stroke-linecap="round" stroke-linejoin="round"/>
<path id="Vector_2" d="M19.0968 34.6182L16.6112 36.6667C11.0086 32.2232 11.6931 30.1042 11.6931 21.6667H13.5828C14.3496 26.4348 16.1585 28.6933 18.6545 30.3283C20.192 31.3353 20.509 33.4542 19.0968 34.6182Z" stroke="var(--stroke-0, black)" stroke-width="2" stroke-linecap="round" stroke-linejoin="round"/>
<path id="Vector_3" d="M12.5 20.8333V10.8333" stroke="var(--stroke-0, black)" stroke-width="2" stroke-linecap="round" stroke-linejoin="round"/>
</g>
</svg>
