<svg preserveAspectRatio="none" width="100%" height="100%" overflow="visible" style="display: block;" viewBox="0 0 64.4627 20.8994" fill="none" xmlns="http://www.w3.org/2000/svg">
<g id="MDR Class IIa Compliant">
<path id="Vector" d="M48.3424 13.6828V14.6395H45.3253V13.6828H48.3424ZM46.0702 12.4254H47.3071V17.3526C47.3071 17.5189 47.3322 17.6465 47.3823 17.7353C47.4347 17.8219 47.503 17.8811 47.5873 17.913C47.6716 17.9449 47.765 17.9608 47.8675 17.9608C47.9449 17.9608 48.0155 17.9551 48.0793 17.9437C48.1454 17.9323 48.1955 17.9221 48.2297 17.913L48.4381 18.88C48.372 18.9028 48.2775 18.9278 48.1545 18.9552C48.0338 18.9825 47.8857 18.9984 47.7103 19.003C47.4005 19.0121 47.1214 18.9654 46.8731 18.8629C46.6248 18.7581 46.4278 18.5964 46.282 18.3777C46.1385 18.159 46.0679 17.8857 46.0702 17.5576V12.4254Z" fill="var(--fill-0, black)"/>
<path id="Vector_2" d="M40.9058 15.856V18.9313H39.6688V13.6828H40.8511V14.5746H40.9126C41.0333 14.2808 41.2258 14.0473 41.4901 13.8742C41.7566 13.701 42.0858 13.6145 42.4776 13.6145C42.8398 13.6145 43.1553 13.6919 43.4241 13.8468C43.6951 14.0017 43.9047 14.2261 44.0528 14.52C44.2031 14.8138 44.2772 15.1703 44.2749 15.5895V18.9313H43.0379V15.7808C43.0379 15.43 42.9468 15.1555 42.7646 14.9573C42.5846 14.7591 42.3352 14.6601 42.0163 14.6601C41.7999 14.6601 41.6074 14.7079 41.4388 14.8036C41.2725 14.897 41.1415 15.0325 41.0459 15.2102C40.9525 15.3879 40.9058 15.6031 40.9058 15.856Z" fill="var(--fill-0, black)"/>
<path id="Vector_3" d="M35.4586 19.0372C35.126 19.0372 34.8264 18.978 34.5599 18.8595C34.2957 18.7388 34.0861 18.5611 33.9312 18.3265C33.7786 18.0918 33.7023 17.8025 33.7023 17.4585C33.7023 17.1624 33.7569 16.9175 33.8663 16.7239C33.9756 16.5303 34.1248 16.3754 34.3139 16.2592C34.503 16.143 34.716 16.0553 34.9529 15.9961C35.1921 15.9346 35.4392 15.8902 35.6943 15.8628C36.0019 15.8309 36.2513 15.8025 36.4427 15.7774C36.634 15.7501 36.773 15.7091 36.8595 15.6544C36.9484 15.5974 36.9928 15.5097 36.9928 15.3913V15.3708C36.9928 15.1134 36.9165 14.9141 36.7639 14.7728C36.6112 14.6316 36.3914 14.561 36.1044 14.561C35.8014 14.561 35.5611 14.627 35.3834 14.7591C35.208 14.8913 35.0895 15.0473 35.028 15.2273L33.8731 15.0633C33.9642 14.7443 34.1146 14.4778 34.3241 14.2637C34.5337 14.0473 34.79 13.8855 35.093 13.7785C35.3959 13.6691 35.7308 13.6145 36.0975 13.6145C36.3504 13.6145 36.6021 13.6441 36.8527 13.7033C37.1033 13.7625 37.3322 13.8605 37.5395 13.9972C37.7468 14.1316 37.9131 14.3149 38.0384 14.5473C38.1659 14.7797 38.2297 15.0701 38.2297 15.4186V18.9313H37.0406V18.2103H36.9996C36.9244 18.3561 36.8185 18.4927 36.6818 18.6203C36.5474 18.7456 36.3777 18.847 36.1727 18.9244C35.97 18.9996 35.7319 19.0372 35.4586 19.0372ZM35.7798 18.1283C36.0281 18.1283 36.2433 18.0793 36.4256 17.9813C36.6078 17.8811 36.7479 17.749 36.8459 17.585C36.9461 17.421 36.9962 17.2421 36.9962 17.0485V16.43C36.9575 16.4619 36.8914 16.4915 36.798 16.5189C36.7069 16.5462 36.6044 16.5701 36.4905 16.5906C36.3766 16.6111 36.2638 16.6294 36.1522 16.6453C36.0406 16.6613 35.9438 16.6749 35.8618 16.6863C35.6773 16.7114 35.5121 16.7524 35.3663 16.8093C35.2205 16.8663 35.1055 16.946 35.0212 17.0485C34.9369 17.1487 34.8948 17.2786 34.8948 17.438C34.8948 17.6658 34.9779 17.8378 35.1442 17.954C35.3105 18.0702 35.5224 18.1283 35.7798 18.1283Z" fill="var(--fill-0, black)"/>
<path id="Vector_4" d="M31.2466 18.9313V13.6828H32.4836V18.9313H31.2466ZM31.8685 12.9379C31.6726 12.9379 31.504 12.873 31.3628 12.7432C31.2216 12.611 31.151 12.4527 31.151 12.2682C31.151 12.0814 31.2216 11.9231 31.3628 11.7933C31.504 11.6611 31.6726 11.5951 31.8685 11.5951C32.0667 11.5951 32.2353 11.6611 32.3742 11.7933C32.5155 11.9231 32.5861 12.0814 32.5861 12.2682C32.5861 12.4527 32.5155 12.611 32.3742 12.7432C32.2353 12.873 32.0667 12.9379 31.8685 12.9379Z" fill="var(--fill-0, black)"/>
<path id="Vector_5" d="M29.7849 11.9333V18.9312H28.548V11.9333H29.7849Z" fill="var(--fill-0, black)"/>
<path id="Vector_6" d="M22.3414 20.8994V13.6828H23.5578V14.5507H23.6296C23.6934 14.4231 23.7834 14.2876 23.8995 14.1441C24.0157 13.9983 24.1729 13.8742 24.3711 13.7716C24.5693 13.6669 24.8221 13.6145 25.1296 13.6145C25.5351 13.6145 25.9007 13.7181 26.2265 13.9254C26.5545 14.1304 26.8142 14.4345 27.0056 14.8377C27.1992 15.2387 27.296 15.7307 27.296 16.3139C27.296 16.8902 27.2015 17.38 27.0124 17.7832C26.8233 18.1864 26.5659 18.4939 26.2402 18.7057C25.9144 18.9176 25.5454 19.0235 25.1331 19.0235C24.8324 19.0235 24.5829 18.9734 24.3847 18.8732C24.1866 18.7729 24.0271 18.6522 23.9064 18.511C23.7879 18.3675 23.6957 18.2319 23.6296 18.1043H23.5783V20.8994H22.3414ZM23.5544 16.307C23.5544 16.6464 23.6023 16.9437 23.6979 17.1989C23.7959 17.454 23.936 17.6533 24.1182 17.7968C24.3027 17.9381 24.526 18.0087 24.7879 18.0087C25.0613 18.0087 25.2902 17.9358 25.4748 17.79C25.6593 17.6419 25.7982 17.4403 25.8916 17.1852C25.9873 16.9278 26.0351 16.6351 26.0351 16.307C26.0351 15.9813 25.9884 15.692 25.895 15.4391C25.8016 15.1863 25.6627 14.9881 25.4782 14.8446C25.2937 14.7011 25.0636 14.6293 24.7879 14.6293C24.5237 14.6293 24.2993 14.6988 24.1148 14.8377C23.9303 14.9767 23.7902 15.1715 23.6945 15.422C23.6011 15.6726 23.5544 15.9676 23.5544 16.307Z" fill="var(--fill-0, black)"/>
<path id="Vector_7" d="M13.506 18.9313V13.6828H14.6883V14.5746H14.7498C14.8591 14.2739 15.0402 14.0393 15.2931 13.8707C15.5459 13.6999 15.8478 13.6145 16.1986 13.6145C16.5539 13.6145 16.8535 13.701 17.0972 13.8742C17.3433 14.045 17.5164 14.2785 17.6166 14.5746H17.6713C17.7875 14.2831 17.9834 14.0507 18.259 13.8776C18.5369 13.7022 18.8661 13.6145 19.2465 13.6145C19.7294 13.6145 20.1235 13.7671 20.4288 14.0723C20.734 14.3776 20.8866 14.8229 20.8866 15.4084V18.9313H19.6463V15.5997C19.6463 15.274 19.5597 15.0359 19.3866 14.8856C19.2135 14.733 19.0016 14.6566 18.751 14.6566C18.4526 14.6566 18.2191 14.75 18.0506 14.9368C17.8843 15.1213 17.8011 15.3617 17.8011 15.6578V18.9313H16.5881V15.5485C16.5881 15.2774 16.5061 15.061 16.3421 14.8992C16.1803 14.7375 15.9685 14.6566 15.7065 14.6566C15.5288 14.6566 15.3671 14.7022 15.2213 14.7933C15.0755 14.8822 14.9594 15.0086 14.8728 15.1726C14.7862 15.3343 14.7429 15.5234 14.7429 15.7398V18.9313H13.506Z" fill="var(--fill-0, black)"/>
<path id="Vector_8" d="M9.75525 19.0338C9.24271 19.0338 8.79851 18.921 8.42264 18.6955C8.04678 18.47 7.75519 18.1545 7.5479 17.749C7.34288 17.3435 7.24037 16.8697 7.24037 16.3275C7.24037 15.7854 7.34288 15.3104 7.5479 14.9027C7.75519 14.4949 8.04678 14.1783 8.42264 13.9527C8.79851 13.7272 9.24271 13.6145 9.75525 13.6145C10.2678 13.6145 10.712 13.7272 11.0879 13.9527C11.4637 14.1783 11.7542 14.4949 11.9592 14.9027C12.1665 15.3104 12.2701 15.7854 12.2701 16.3275C12.2701 16.8697 12.1665 17.3435 11.9592 17.749C11.7542 18.1545 11.4637 18.47 11.0879 18.6955C10.712 18.921 10.2678 19.0338 9.75525 19.0338ZM9.76209 18.0428C10.04 18.0428 10.2724 17.9665 10.4591 17.8139C10.6459 17.659 10.7849 17.4517 10.876 17.192C10.9694 16.9323 11.0161 16.643 11.0161 16.3241C11.0161 16.0029 10.9694 15.7125 10.876 15.4528C10.7849 15.1908 10.6459 14.9824 10.4591 14.8275C10.2724 14.6726 10.04 14.5951 9.76209 14.5951C9.47734 14.5951 9.24043 14.6726 9.05136 14.8275C8.86457 14.9824 8.72447 15.1908 8.63107 15.4528C8.53996 15.7125 8.4944 16.0029 8.4944 16.3241C8.4944 16.643 8.53996 16.9323 8.63107 17.192C8.72447 17.4517 8.86457 17.659 9.05136 17.8139C9.24043 17.9665 9.47734 18.0428 9.76209 18.0428Z" fill="var(--fill-0, black)"/>
<path id="Vector_9" d="M6.16761 14.2944H4.88967C4.85322 14.0848 4.78602 13.8992 4.68806 13.7374C4.59011 13.5734 4.46824 13.4345 4.32245 13.3206C4.17666 13.2067 4.01037 13.1212 3.82357 13.0643C3.63906 13.0051 3.43974 12.9755 3.22561 12.9755C2.84519 12.9755 2.50805 13.0711 2.21419 13.2625C1.92033 13.4515 1.69025 13.7295 1.52396 14.0962C1.35767 14.4607 1.27452 14.906 1.27452 15.4322C1.27452 15.9676 1.35767 16.4186 1.52396 16.7854C1.69253 17.1498 1.92261 17.4255 2.21419 17.6123C2.50805 17.7968 2.84405 17.889 3.22219 17.889C3.43176 17.889 3.62767 17.8617 3.80991 17.807C3.99442 17.7501 4.15958 17.6669 4.30537 17.5576C4.45343 17.4482 4.57758 17.3138 4.67781 17.1544C4.78032 16.9949 4.85094 16.8127 4.88967 16.6077L6.16761 16.6145C6.11977 16.9471 6.01612 17.2592 5.85666 17.5508C5.69948 17.8423 5.49333 18.0997 5.23819 18.323C4.98306 18.544 4.68465 18.7171 4.34295 18.8424C4.00126 18.9654 3.62197 19.0269 3.20511 19.0269C2.59005 19.0269 2.04106 18.8845 1.55813 18.5998C1.0752 18.315 0.694781 17.9038 0.416869 17.3662C0.138956 16.8286 0 16.184 0 15.4322C0 14.6782 0.140095 14.0336 0.420286 13.4982C0.700476 12.9606 1.08204 12.5495 1.56497 12.2647C2.0479 11.98 2.59461 11.8376 3.20511 11.8376C3.59464 11.8376 3.95684 11.8923 4.2917 12.0016C4.62656 12.111 4.92497 12.2716 5.18694 12.4834C5.44891 12.693 5.66418 12.9504 5.83275 13.2556C6.00359 13.5586 6.11521 13.9049 6.16761 14.2944Z" fill="var(--fill-0, black)"/>
<path id="Vector_10" d="M61.6915 7.19957C61.359 7.19957 61.0594 7.14035 60.7929 7.02189C60.5286 6.90116 60.3191 6.72348 60.1642 6.48885C60.0115 6.25422 59.9352 5.96491 59.9352 5.62094C59.9352 5.3248 59.9899 5.07992 60.0992 4.88629C60.2086 4.69267 60.3578 4.53777 60.5469 4.42159C60.7359 4.30541 60.9489 4.21771 61.1858 4.15848C61.425 4.09698 61.6722 4.05256 61.9273 4.02522C62.2348 3.99333 62.4843 3.96486 62.6756 3.9398C62.867 3.91246 63.0059 3.87146 63.0925 3.81679C63.1813 3.75984 63.2258 3.67214 63.2258 3.55368V3.53318C63.2258 3.27577 63.1494 3.07645 62.9968 2.93521C62.8442 2.79398 62.6244 2.72336 62.3374 2.72336C62.0344 2.72336 61.7941 2.78942 61.6164 2.92155C61.441 3.05367 61.3225 3.20971 61.261 3.38967L60.1061 3.22565C60.1972 2.90674 60.3475 2.64021 60.5571 2.42609C60.7667 2.20968 61.023 2.04794 61.3259 1.94088C61.6289 1.83153 61.9638 1.77686 62.3305 1.77686C62.5834 1.77686 62.8351 1.80648 63.0857 1.86571C63.3362 1.92493 63.5652 2.02288 63.7725 2.15956C63.9798 2.29396 64.1461 2.47734 64.2713 2.70969C64.3989 2.94205 64.4627 3.23249 64.4627 3.58102V7.09365H63.2736V6.37267H63.2326C63.1574 6.51846 63.0515 6.65514 62.9148 6.78271C62.7804 6.90799 62.6107 7.00936 62.4057 7.08681C62.203 7.16199 61.9649 7.19957 61.6915 7.19957ZM62.0127 6.29066C62.261 6.29066 62.4763 6.24169 62.6585 6.14374C62.8408 6.0435 62.9809 5.91138 63.0788 5.74737C63.1791 5.58335 63.2292 5.40453 63.2292 5.21091V4.59244C63.1905 4.62433 63.1244 4.65394 63.031 4.68128C62.9399 4.70861 62.8374 4.73253 62.7235 4.75303C62.6096 4.77354 62.4968 4.79176 62.3852 4.8077C62.2736 4.82365 62.1768 4.83732 62.0947 4.84871C61.9102 4.87377 61.7451 4.91477 61.5993 4.97172C61.4535 5.02867 61.3385 5.1084 61.2542 5.21091C61.1699 5.31114 61.1277 5.44098 61.1277 5.60044C61.1277 5.82824 61.2109 6.00022 61.3772 6.1164C61.5435 6.23258 61.7553 6.29066 62.0127 6.29066Z" fill="var(--fill-0, black)"/>
<path id="Vector_11" d="M58.6701 0.095766V7.09369H57.4024V0.095766H58.6701Z" fill="var(--fill-0, black)"/>
<path id="Vector_12" d="M55.8419 0.095766V7.09369H54.5742V0.095766H55.8419Z" fill="var(--fill-0, black)"/>
<path id="Vector_13" d="M50.6141 3.23249L49.4865 3.3555C49.4546 3.2416 49.3988 3.13453 49.319 3.0343C49.2416 2.93407 49.1368 2.85321 49.0047 2.7917C48.8726 2.7302 48.7108 2.69944 48.5195 2.69944C48.2621 2.69944 48.0457 2.75525 47.8703 2.86687C47.6971 2.97849 47.6117 3.12315 47.614 3.30083C47.6117 3.45345 47.6675 3.5776 47.7814 3.67327C47.8976 3.76895 48.0889 3.84754 48.3555 3.90904L49.2507 4.10039C49.7473 4.20746 50.1163 4.37717 50.3578 4.60952C50.6015 4.84187 50.7246 5.14598 50.7268 5.52185C50.7246 5.85216 50.6277 6.14373 50.4364 6.39659C50.2473 6.64717 49.9842 6.84307 49.6471 6.98431C49.3099 7.12554 48.9227 7.19616 48.4853 7.19616C47.8429 7.19616 47.3258 7.06176 46.934 6.79296C46.5422 6.52188 46.3087 6.14487 46.2335 5.66194L47.4397 5.54577C47.4944 5.78268 47.6106 5.9615 47.7882 6.08223C47.9659 6.20296 48.1971 6.26333 48.4819 6.26333C48.7757 6.26333 49.0115 6.20296 49.1892 6.08223C49.3692 5.9615 49.4591 5.81229 49.4591 5.63461C49.4591 5.48426 49.401 5.36011 49.2849 5.26216C49.171 5.16421 48.9933 5.08903 48.7518 5.03664L47.8566 4.84871C47.3532 4.74392 46.9807 4.56738 46.7392 4.31908C46.4978 4.0685 46.3782 3.75186 46.3805 3.36917C46.3782 3.04569 46.4659 2.7655 46.6436 2.52859C46.8235 2.28941 47.073 2.10489 47.3919 1.97505C47.7131 1.84293 48.0832 1.77686 48.5024 1.77686C49.1174 1.77686 49.6015 1.90785 49.9546 2.16981C50.31 2.43178 50.5298 2.78601 50.6141 3.23249Z" fill="var(--fill-0, black)"/>
<path id="Vector_14" d="M45.1423 3.23249L44.0147 3.3555C43.9828 3.2416 43.927 3.13453 43.8472 3.0343C43.7698 2.93407 43.665 2.85321 43.5329 2.7917C43.4007 2.7302 43.239 2.69944 43.0477 2.69944C42.7902 2.69944 42.5738 2.75525 42.3984 2.86687C42.2253 2.97849 42.1399 3.12315 42.1422 3.30083C42.1399 3.45345 42.1957 3.5776 42.3096 3.67327C42.4258 3.76895 42.6171 3.84754 42.8836 3.90904L43.7789 4.10039C44.2755 4.20746 44.6445 4.37717 44.886 4.60952C45.1297 4.84187 45.2527 5.14598 45.255 5.52185C45.2527 5.85216 45.1559 6.14373 44.9646 6.39659C44.7755 6.64717 44.5124 6.84307 44.1753 6.98431C43.8381 7.12554 43.4509 7.19616 43.0135 7.19616C42.3711 7.19616 41.854 7.06176 41.4622 6.79296C41.0704 6.52188 40.8369 6.14487 40.7617 5.66194L41.9679 5.54577C42.0226 5.78268 42.1387 5.9615 42.3164 6.08223C42.4941 6.20296 42.7253 6.26333 43.0101 6.26333C43.3039 6.26333 43.5397 6.20296 43.7174 6.08223C43.8973 5.9615 43.9873 5.81229 43.9873 5.63461C43.9873 5.48426 43.9292 5.36011 43.8131 5.26216C43.6992 5.16421 43.5215 5.08903 43.28 5.03664L42.3848 4.84871C41.8813 4.74392 41.5089 4.56738 41.2674 4.31908C41.026 4.0685 40.9064 3.75186 40.9086 3.36917C40.9064 3.04569 40.9941 2.7655 41.1718 2.52859C41.3517 2.28941 41.6011 2.10489 41.9201 1.97505C42.2413 1.84293 42.6114 1.77686 43.0306 1.77686C43.6456 1.77686 44.1297 1.90785 44.4828 2.16981C44.8381 2.43178 45.058 2.78601 45.1423 3.23249Z" fill="var(--fill-0, black)"/>
<path id="Vector_15" d="M36.7878 7.19957C36.4552 7.19957 36.1556 7.14035 35.8891 7.02189C35.6249 6.90116 35.4153 6.72348 35.2604 6.48885C35.1078 6.25422 35.0314 5.96491 35.0314 5.62094C35.0314 5.3248 35.0861 5.07992 35.1955 4.88629C35.3048 4.69267 35.454 4.53777 35.6431 4.42159C35.8321 4.30541 36.0451 4.21771 36.2821 4.15848C36.5212 4.09698 36.7684 4.05256 37.0235 4.02522C37.3311 3.99333 37.5805 3.96486 37.7718 3.9398C37.9632 3.91246 38.1021 3.87146 38.1887 3.81679C38.2776 3.75984 38.322 3.67214 38.322 3.55368V3.53318C38.322 3.27577 38.2457 3.07645 38.093 2.93521C37.9404 2.79398 37.7206 2.72336 37.4336 2.72336C37.1306 2.72336 36.8903 2.78942 36.7126 2.92155C36.5372 3.05367 36.4187 3.20971 36.3572 3.38967L35.2023 3.22565C35.2934 2.90674 35.4438 2.64021 35.6533 2.42609C35.8629 2.20968 36.1192 2.04794 36.4221 1.94088C36.7251 1.83153 37.06 1.77686 37.4267 1.77686C37.6796 1.77686 37.9313 1.80648 38.1819 1.86571C38.4325 1.92493 38.6614 2.02288 38.8687 2.15956C39.076 2.29396 39.2423 2.47734 39.3676 2.70969C39.4951 2.94205 39.5589 3.23249 39.5589 3.58102V7.09365H38.3698V6.37267H38.3288C38.2536 6.51846 38.1477 6.65514 38.011 6.78271C37.8766 6.90799 37.7069 7.00936 37.5019 7.08681C37.2992 7.16199 37.0611 7.19957 36.7878 7.19957ZM37.109 6.29066C37.3573 6.29066 37.5725 6.24169 37.7548 6.14374C37.937 6.0435 38.0771 5.91138 38.175 5.74737C38.2753 5.58335 38.3254 5.40453 38.3254 5.21091V4.59244C38.2867 4.62433 38.2206 4.65394 38.1272 4.68128C38.0361 4.70861 37.9336 4.73253 37.8197 4.75303C37.7058 4.77354 37.593 4.79176 37.4814 4.8077C37.3698 4.82365 37.273 4.83732 37.191 4.84871C37.0064 4.87377 36.8413 4.91477 36.6955 4.97172C36.5497 5.02867 36.4347 5.1084 36.3504 5.21091C36.2661 5.31114 36.224 5.44098 36.224 5.60044C36.224 5.82824 36.3071 6.00022 36.4734 6.1164C36.6397 6.23258 36.8515 6.29066 37.109 6.29066Z" fill="var(--fill-0, black)"/>
<path id="Vector_16" d="M33.8057 0.095766V7.09369H32.5688V0.095766H33.8057Z" fill="var(--fill-0, black)"/>
<path id="Vector_17" d="M31.2745 2.45679H29.9965C29.9601 2.24722 29.8929 2.06156 29.7949 1.89983C29.697 1.73581 29.5751 1.59686 29.4293 1.48296C29.2835 1.36906 29.1172 1.28364 28.9304 1.22669C28.7459 1.16746 28.5466 1.13785 28.3325 1.13785C27.952 1.13785 27.6149 1.23352 27.321 1.42487C27.0272 1.61394 26.7971 1.89185 26.6308 2.25861C26.4645 2.62308 26.3814 3.06843 26.3814 3.59464C26.3814 4.12996 26.4645 4.581 26.6308 4.94775C26.7994 5.31223 27.0295 5.58786 27.321 5.77466C27.6149 5.95917 27.9509 6.05143 28.329 6.05143C28.5386 6.05143 28.7345 6.02409 28.9168 5.96942C29.1013 5.91247 29.2664 5.82933 29.4122 5.71999C29.5603 5.61064 29.6844 5.47624 29.7847 5.31678C29.8872 5.15733 29.9578 4.97509 29.9965 4.77007L31.2745 4.77691C31.2266 5.10949 31.123 5.42157 30.9635 5.71315C30.8063 6.00473 30.6002 6.26214 30.3451 6.48538C30.0899 6.70635 29.7915 6.87947 29.4498 7.00476C29.1081 7.12777 28.7288 7.18928 28.312 7.18928C27.6969 7.18928 27.1479 7.0469 26.665 6.76216C26.1821 6.47741 25.8016 6.06624 25.5237 5.52864C25.2458 4.99103 25.1069 4.34637 25.1069 3.59464C25.1069 2.84063 25.247 2.19596 25.5271 1.66064C25.8073 1.12304 26.1889 0.711866 26.6718 0.427119C27.1548 0.142373 27.7015 0 28.312 0C28.7015 0 29.0637 0.0546712 29.3986 0.164014C29.7334 0.273357 30.0318 0.433954 30.2938 0.645805C30.5558 0.855378 30.771 1.11279 30.9396 1.41804C31.1104 1.72101 31.2221 2.06726 31.2745 2.45679Z" fill="var(--fill-0, black)"/>
<path id="Vector_18" d="M16.253 7.09369V0.095766H18.8772C19.4148 0.095766 19.8659 0.189163 20.2303 0.375957C20.5971 0.56275 20.8739 0.824717 21.0607 1.16186C21.2497 1.49672 21.3443 1.88739 21.3443 2.33387C21.3443 2.78263 21.2486 3.17217 21.0572 3.50247C20.8682 3.8305 20.5891 4.08449 20.2201 4.26445C19.8511 4.44213 19.3977 4.53098 18.8601 4.53098H16.9911V3.47855H18.6893C19.0036 3.47855 19.2611 3.43527 19.4615 3.34871C19.662 3.25987 19.81 3.13116 19.9057 2.96259C20.0037 2.79174 20.0527 2.58217 20.0527 2.33387C20.0527 2.08557 20.0037 1.87372 19.9057 1.69832C19.8078 1.52064 19.6586 1.38624 19.4581 1.29512C19.2576 1.20172 18.9991 1.15502 18.6825 1.15502H17.5207V7.09369H16.253ZM19.8681 3.92276L21.6005 7.09369H20.1859L18.4843 3.92276H19.8681Z" fill="var(--fill-0, black)"/>
<path id="Vector_19" d="M11.4615 7.09369H9.09016V0.095766H11.5094C12.2041 0.095766 12.801 0.235862 13.2998 0.516052C13.801 0.793964 14.186 1.19375 14.4548 1.7154C14.7236 2.23706 14.858 2.86122 14.858 3.5879C14.858 4.31685 14.7224 4.94329 14.4514 5.46722C14.1826 5.99116 13.7942 6.39322 13.2862 6.67341C12.7805 6.9536 12.1723 7.09369 11.4615 7.09369ZM10.3578 5.99685H11.4C11.8875 5.99685 12.2941 5.90801 12.6199 5.73033C12.9456 5.55037 13.1905 5.28271 13.3545 4.92734C13.5185 4.5697 13.6005 4.12322 13.6005 3.5879C13.6005 3.05257 13.5185 2.60837 13.3545 2.25528C13.1905 1.89992 12.9479 1.63454 12.6267 1.45913C12.3078 1.28145 11.9114 1.19261 11.4376 1.19261H10.3578V5.99685Z" fill="var(--fill-0, black)"/>
<path id="Vector_20" d="M0.173533 0.095766H1.72483L3.80234 5.16653H3.88435L5.96186 0.095766H7.51316V7.09369H6.29672V2.28603H6.2318L4.2978 7.07319H3.38889L1.45489 2.27578H1.38997V7.09369H0.173533V0.095766Z" fill="var(--fill-0, black)"/>
</g>
</svg>
