<svg preserveAspectRatio="none" width="100%" height="100%" overflow="visible" style="display: block;" viewBox="0 0 40 40" fill="none" xmlns="http://www.w3.org/2000/svg">
<g id="calendar-03">
<path id="Vector" d="M26.6667 3.33333V10M13.3333 3.33333V10" stroke="var(--stroke-0, black)" stroke-width="2" stroke-linecap="round" stroke-linejoin="round"/>
<path id="Vector_2" d="M21.6667 6.66667H18.3333C12.0479 6.66667 8.90525 6.66667 6.95262 8.61928C5 10.5719 5 13.7146 5 20V23.3333C5 29.6187 5 32.7615 6.95262 34.714C8.90525 36.6667 12.0479 36.6667 18.3333 36.6667H21.6667C27.952 36.6667 31.0948 36.6667 33.0473 34.714C35 32.7615 35 29.6187 35 23.3333V20C35 13.7146 35 10.5719 33.0473 8.61928C31.0948 6.66667 27.952 6.66667 21.6667 6.66667Z" stroke="var(--stroke-0, black)" stroke-width="2" stroke-linecap="round" stroke-linejoin="round"/>
<path id="Vector_3" d="M5 16.6667H35" stroke="var(--stroke-0, black)" stroke-width="2" stroke-linecap="round" stroke-linejoin="round"/>
<path id="Vector_4" d="M20.2097 23.3333H20.0013M20.2097 30H20.0013M12.7083 23.3333H12.5M12.7083 30H12.5M27.7083 23.3333H27.5M20.418 23.3333C20.418 23.5635 20.2315 23.75 20.0013 23.75C19.7713 23.75 19.5847 23.5635 19.5847 23.3333C19.5847 23.1032 19.7713 22.9167 20.0013 22.9167C20.2315 22.9167 20.418 23.1032 20.418 23.3333ZM20.418 30C20.418 30.2302 20.2315 30.4167 20.0013 30.4167C19.7713 30.4167 19.5847 30.2302 19.5847 30C19.5847 29.7698 19.7713 29.5833 20.0013 29.5833C20.2315 29.5833 20.418 29.7698 20.418 30ZM12.9167 23.3333C12.9167 23.5635 12.7301 23.75 12.5 23.75C12.2699 23.75 12.0833 23.5635 12.0833 23.3333C12.0833 23.1032 12.2699 22.9167 12.5 22.9167C12.7301 22.9167 12.9167 23.1032 12.9167 23.3333ZM12.9167 30C12.9167 30.2302 12.7301 30.4167 12.5 30.4167C12.2699 30.4167 12.0833 30.2302 12.0833 30C12.0833 29.7698 12.2699 29.5833 12.5 29.5833C12.7301 29.5833 12.9167 29.7698 12.9167 30ZM27.9167 23.3333C27.9167 23.5635 27.7302 23.75 27.5 23.75C27.2698 23.75 27.0833 23.5635 27.0833 23.3333C27.0833 23.1032 27.2698 22.9167 27.5 22.9167C27.7302 22.9167 27.9167 23.1032 27.9167 23.3333Z" stroke="var(--stroke-0, black)" stroke-width="2" stroke-linecap="round" stroke-linejoin="round"/>
</g>
</svg>
