<svg preserveAspectRatio="none" width="100%" height="100%" overflow="visible" style="display: block;" viewBox="0 0 40 40" fill="none" xmlns="http://www.w3.org/2000/svg">
<g id="rocket-01">
<path id="Vector" d="M19.6688 10.8158L22.1448 8.33987C24.9327 5.552 28.5825 4.39562 32.4452 4.20665C33.9477 4.13315 34.6988 4.0964 35.3012 4.6988C35.9037 5.30118 35.8668 6.05238 35.7933 7.55482C35.6043 11.4175 34.448 15.0674 31.6602 17.8552L29.1842 20.3312C27.1452 22.3702 26.5655 22.95 26.9935 25.1617C27.416 26.8512 27.8248 28.4872 26.5963 29.7157C25.1062 31.2058 23.7468 31.2058 22.2567 29.7157L10.2843 17.7433C8.79415 16.2531 8.7941 14.8938 10.2843 13.4036C11.5128 12.1751 13.1488 12.5841 14.8383 13.0065C17.05 13.4346 17.6298 12.8548 19.6688 10.8158Z" stroke="var(--stroke-0, black)" stroke-width="2" stroke-linejoin="round"/>
<path id="Vector_2" d="M4.16667 35.8333L12.5 27.5" stroke="var(--stroke-0, black)" stroke-width="2" stroke-linecap="round"/>
<path id="Vector_3" d="M14.1667 35.8333L17.5 32.5" stroke="var(--stroke-0, black)" stroke-width="2" stroke-linecap="round"/>
<path id="Vector_4" d="M4.16667 25.8333L7.5 22.5" stroke="var(--stroke-0, black)" stroke-width="2" stroke-linecap="round"/>
<path id="Vector_5" d="M28.5417 11.6667H28.3333M28.75 11.6667C28.75 11.8968 28.5635 12.0833 28.3333 12.0833C28.1032 12.0833 27.9167 11.8968 27.9167 11.6667C27.9167 11.4365 28.1032 11.25 28.3333 11.25C28.5635 11.25 28.75 11.4365 28.75 11.6667Z" stroke="var(--stroke-0, black)" stroke-width="2" stroke-linecap="round" stroke-linejoin="round"/>
</g>
</svg>
