<svg preserveAspectRatio="none" width="100%" height="100%" overflow="visible" style="display: block;" viewBox="0 0 40 40" fill="none" xmlns="http://www.w3.org/2000/svg">
<g id="arrow-expand">
<path id="Vector" d="M13.3333 5.16298C13.3333 5.16298 6.72292 4.5699 5.6464 5.64642C4.56987 6.72292 5.16307 13.3333 5.16307 13.3333" stroke="var(--stroke-0, black)" stroke-width="2" stroke-linecap="round" stroke-linejoin="round"/>
<path id="Vector_2" d="M13.3333 34.837C13.3333 34.837 6.72292 35.4302 5.6464 34.3537C4.56987 33.277 5.16307 26.6667 5.16307 26.6667" stroke="var(--stroke-0, black)" stroke-width="2" stroke-linecap="round" stroke-linejoin="round"/>
<path id="Vector_3" d="M26.6667 5.16298C26.6667 5.16298 33.2772 4.5699 34.3537 5.64642C35.4302 6.72292 34.837 13.3333 34.837 13.3333" stroke="var(--stroke-0, black)" stroke-width="2" stroke-linecap="round" stroke-linejoin="round"/>
<path id="Vector_4" d="M26.6667 34.837C26.6667 34.837 33.2772 35.4302 34.3537 34.3537C35.4302 33.277 34.837 26.6667 34.837 26.6667" stroke="var(--stroke-0, black)" stroke-width="2" stroke-linecap="round" stroke-linejoin="round"/>
<path id="Vector_5" d="M23.3529 16.6617L33.4392 6.57552" stroke="var(--stroke-0, black)" stroke-width="2" stroke-linecap="round" stroke-linejoin="round"/>
<path id="Vector_6" d="M16.6632 23.3333L6.06771 33.9638" stroke="var(--stroke-0, black)" stroke-width="2" stroke-linecap="round" stroke-linejoin="round"/>
<path id="Vector_7" d="M16.6654 16.6715L6.41276 6.43229" stroke="var(--stroke-0, black)" stroke-width="2" stroke-linecap="round" stroke-linejoin="round"/>
<path id="Vector_8" d="M23.3008 23.3333L34.2148 34.1598" stroke="var(--stroke-0, black)" stroke-width="2" stroke-linecap="round" stroke-linejoin="round"/>
</g>
</svg>
