<svg preserveAspectRatio="none" width="100%" height="100%" overflow="visible" style="display: block;" viewBox="0 0 40 40" fill="none" xmlns="http://www.w3.org/2000/svg">
<g id="chart-down">
<path id="Vector" d="M5.83333 17.5V32.5C5.83333 33.2765 5.83333 33.6648 5.9602 33.9712C6.12935 34.3795 6.45382 34.704 6.8622 34.8732C7.16848 35 7.55677 35 8.33333 35C9.1099 35 9.49818 35 9.80447 34.8732C10.2128 34.704 10.5373 34.3795 10.7065 33.9712C10.8333 33.6648 10.8333 33.2765 10.8333 32.5V17.5C10.8333 16.7235 10.8333 16.3352 10.7065 16.0289C10.5373 15.6205 10.2128 15.296 9.80447 15.1269C9.49818 15 9.1099 15 8.33333 15C7.55677 15 7.16848 15 6.8622 15.1269C6.45382 15.296 6.12935 15.6205 5.9602 16.0289C5.83333 16.3352 5.83333 16.7235 5.83333 17.5Z" stroke="var(--stroke-0, black)" stroke-width="2" stroke-linejoin="round"/>
<path id="Vector_2" d="M29.1667 13.3331L32.5 17.4998L28.3333 20.8332" stroke="var(--stroke-0, black)" stroke-width="2" stroke-linecap="round" stroke-linejoin="round"/>
<path id="Vector_3" d="M31.6666 17.5001C31.6666 17.5001 19.1666 17.5001 6.66667 5" stroke="var(--stroke-0, black)" stroke-width="2" stroke-linecap="round" stroke-linejoin="round"/>
<path id="Vector_4" d="M17.5 23.3333V32.5C17.5 33.2765 17.5 33.6648 17.6268 33.9712C17.796 34.3795 18.1205 34.704 18.5288 34.8732C18.8352 35 19.2235 35 20 35C20.7765 35 21.1648 35 21.4712 34.8732C21.8795 34.704 22.204 34.3795 22.3732 33.9712C22.5 33.6648 22.5 33.2765 22.5 32.5V23.3333C22.5 22.5568 22.5 22.1685 22.3732 21.8622C22.204 21.4538 21.8795 21.1293 21.4712 20.9602C21.1648 20.8333 20.7765 20.8333 20 20.8333C19.2235 20.8333 18.8352 20.8333 18.5288 20.9602C18.1205 21.1293 17.796 21.4538 17.6268 21.8622C17.5 22.1685 17.5 22.5568 17.5 23.3333Z" stroke="var(--stroke-0, black)" stroke-width="2" stroke-linejoin="round"/>
<path id="Vector_5" d="M29.1667 27.5V32.5C29.1667 33.2765 29.1667 33.6648 29.2935 33.9712C29.4627 34.3795 29.7872 34.704 30.1955 34.8732C30.5018 35 30.8902 35 31.6667 35C32.4432 35 32.8315 35 33.1378 34.8732C33.5462 34.704 33.8707 34.3795 34.0398 33.9712C34.1667 33.6648 34.1667 33.2765 34.1667 32.5V27.5C34.1667 26.7235 34.1667 26.3352 34.0398 26.0288C33.8707 25.6205 33.5462 25.296 33.1378 25.1268C32.8315 25 32.4432 25 31.6667 25C30.8902 25 30.5018 25 30.1955 25.1268C29.7872 25.296 29.4627 25.6205 29.2935 26.0288C29.1667 26.3352 29.1667 26.7235 29.1667 27.5Z" stroke="var(--stroke-0, black)" stroke-width="2" stroke-linejoin="round"/>
</g>
</svg>
