<svg preserveAspectRatio="none" width="100%" height="100%" overflow="visible" style="display: block;" viewBox="0 0 65 40" fill="none" xmlns="http://www.w3.org/2000/svg">
<g id="arrow-move-down-left">
<path id="Vector" d="M56.6667 30C53.0113 30 49.7915 30 48.2623 29.779C43.6697 29.1154 39.6176 27.021 36.6667 24.0073" stroke="var(--stroke-0, black)" stroke-width="2" stroke-linecap="round" stroke-linejoin="round"/>
<path id="Vector_2" d="M53.3333 35C54.3447 34.017 58.3333 31.4005 58.3333 30C58.3333 28.5995 54.3447 25.983 53.3333 25" stroke="var(--stroke-0, black)" stroke-width="2" stroke-linecap="round" stroke-linejoin="round"/>
<path id="Vector_3" d="M33.3333 5V8.46153C33.3333 11.7964 33.3333 13.4639 33.0912 14.8591C31.7578 22.5392 25.1557 28.5627 16.7377 29.779C15.2085 30 11.9886 30 8.33333 30" stroke="var(--stroke-0, black)" stroke-width="2" stroke-linecap="round" stroke-linejoin="round"/>
<path id="Vector_4" d="M11.6667 35C10.6553 34.017 6.66667 31.4005 6.66667 30C6.66667 28.5995 10.6553 25.983 11.6667 25" stroke="var(--stroke-0, black)" stroke-width="2" stroke-linecap="round" stroke-linejoin="round"/>
</g>
</svg>
