<svg preserveAspectRatio="none" width="100%" height="100%" overflow="visible" style="display: block;" viewBox="0 0 39.1784 40.0001" fill="none" xmlns="http://www.w3.org/2000/svg">
<g id="Group 2117761303">
<path id="Vector" d="M15.4097 27.2076C14.8049 27.2076 14.3499 27.047 14.0448 26.7259C13.7397 26.4102 13.5872 25.9257 13.5872 25.2728V19.6929C13.5872 19.0453 13.7397 18.5636 14.0448 18.2479C14.3499 17.9268 14.8049 17.7661 15.4097 17.7661H22.7477C23.3525 17.7661 23.8074 17.9268 24.1125 18.2479C24.4175 18.5636 24.5701 19.0453 24.5701 19.6929V25.2728C24.5701 25.9257 24.4175 26.4102 24.1125 26.7259C23.8074 27.047 23.3525 27.2076 22.7477 27.2076H15.4097ZM15.0564 18.4726L15.0644 16.024C15.0644 15.1194 15.2464 14.3514 15.6104 13.7198C15.9744 13.0829 16.4614 12.5985 17.0715 12.2667C17.6817 11.9348 18.3507 11.769 19.0786 11.769C19.8066 11.769 20.4756 11.9348 21.0857 12.2667C21.6959 12.5985 22.183 13.0829 22.547 13.7198C22.9162 14.3514 23.1009 15.1194 23.1009 16.024V18.4726H21.3828L21.3908 15.9276C21.3908 15.3978 21.2838 14.9455 21.0697 14.5708C20.861 14.1962 20.5827 13.9125 20.2348 13.7198C19.8869 13.5217 19.5015 13.4228 19.0786 13.4228C18.6558 13.4228 18.2678 13.5217 17.9146 13.7198C17.5666 13.9125 17.2884 14.1962 17.0795 14.5708C16.8762 14.9455 16.7744 15.3978 16.7744 15.9276V18.4726H15.0564Z" fill="var(--fill-0, black)"/>
<path id="Vector_2" d="M17.0618 8.25349C16.9598 8.17568 16.8968 8.07232 16.8726 7.94352C16.8511 7.81736 16.8686 7.6724 16.925 7.50865L17.6899 5.23792L15.7413 3.84092C15.5963 3.73624 15.4943 3.62618 15.4353 3.51077C15.3762 3.39535 15.3696 3.27592 15.4152 3.15244C15.4554 3.02898 15.5319 2.93773 15.6447 2.87868C15.7601 2.81963 15.905 2.79144 16.0794 2.79412L18.4751 2.81023L19.1998 0.523393C19.2561 0.354303 19.3286 0.225457 19.4171 0.13689C19.5083 0.0456301 19.6185 0 19.7473 0C19.8788 0 19.9902 0.0456301 20.0814 0.13689C20.1727 0.225457 20.2452 0.354303 20.2989 0.523393L21.0276 2.81023L23.4191 2.79412C23.5936 2.79144 23.7372 2.82097 23.85 2.8827C23.9653 2.94175 24.0432 3.03167 24.0834 3.15244C24.1263 3.27592 24.1183 3.39535 24.0593 3.51077C24.0029 3.62618 23.9022 3.73624 23.7574 3.84092L21.8086 5.23792L22.5736 7.50865C22.63 7.6724 22.6474 7.81736 22.626 7.94352C22.6045 8.07232 22.5414 8.17568 22.4367 8.25349C22.3347 8.33405 22.2193 8.36361 22.0905 8.34206C21.9616 8.32064 21.826 8.25762 21.6838 8.15288L19.7473 6.73161L17.8147 8.15288C17.6725 8.25762 17.5369 8.32064 17.4081 8.34206C17.282 8.36361 17.1666 8.33405 17.0618 8.25349Z" fill="var(--fill-0, black)"/>
<path id="Vector_3" d="M7.1077 11.508C7.00572 11.4302 6.9427 11.3268 6.91852 11.198C6.89697 11.0718 6.91451 10.9269 6.97076 10.7631L7.73577 8.4924L5.78717 7.09531C5.64221 6.99069 5.54022 6.88056 5.48121 6.76517C5.42207 6.64978 5.41543 6.53038 5.46104 6.40685C5.50126 6.28344 5.57781 6.1921 5.69057 6.13309C5.80596 6.07408 5.95092 6.04589 6.12532 6.04852L8.52083 6.06469L9.24563 3.77782C9.302 3.60872 9.37442 3.47989 9.463 3.39131C9.55421 3.30006 9.66434 3.25443 9.79314 3.25443C9.92469 3.25443 10.0361 3.30006 10.1273 3.39131C10.2186 3.47989 10.291 3.60872 10.3448 3.77782L11.0735 6.06469L13.465 6.04852C13.6395 6.04589 13.7831 6.07534 13.8958 6.1371C14.0112 6.19611 14.089 6.28607 14.1292 6.40685C14.1722 6.53038 14.1642 6.64978 14.1052 6.76517C14.0488 6.88056 13.9481 6.99069 13.8031 7.09531L11.8545 8.4924L12.6195 10.7631C12.6759 10.9269 12.6933 11.0718 12.6719 11.198C12.6503 11.3268 12.5873 11.4302 12.4826 11.508C12.3806 11.5885 12.2652 11.618 12.1364 11.5965C12.0075 11.5751 11.8719 11.512 11.7297 11.4074L9.79314 9.98609L7.86056 11.4074C7.71836 11.512 7.5828 11.5751 7.454 11.5965C7.32784 11.618 7.21245 11.5885 7.1077 11.508Z" fill="var(--fill-0, black)"/>
<path id="Vector_4" d="M26.6947 11.508C26.5928 11.4302 26.5297 11.3268 26.5056 11.198C26.484 11.0718 26.5015 10.9269 26.5579 10.7631L27.3228 8.4924L25.3742 7.09531C25.2292 6.99069 25.1273 6.88056 25.0682 6.76517C25.0091 6.64978 25.0025 6.53038 25.0481 6.40685C25.0883 6.28344 25.1648 6.1921 25.2776 6.13309C25.393 6.07408 25.538 6.04589 25.7124 6.04852L28.108 6.06469L28.8327 3.77782C28.889 3.60872 28.9615 3.47989 29.05 3.39131C29.1412 3.30006 29.2514 3.25443 29.3802 3.25443C29.5117 3.25443 29.6231 3.30006 29.7143 3.39131C29.8057 3.47989 29.8781 3.60872 29.9318 3.77782L30.6605 6.06469L33.052 6.04852C33.2265 6.04589 33.3701 6.07534 33.4829 6.1371C33.5983 6.19611 33.6761 6.28607 33.7163 6.40685C33.7593 6.53038 33.7512 6.64978 33.6922 6.76517C33.6358 6.88056 33.5351 6.99069 33.3903 7.09531L31.4415 8.4924L32.2066 10.7631C32.2629 10.9269 32.2804 11.0718 32.2589 11.198C32.2374 11.3268 32.1744 11.4302 32.0696 11.508C31.9676 11.5885 31.8522 11.618 31.7234 11.5965C31.5945 11.5751 31.459 11.512 31.3168 11.4074L29.3802 9.98609L27.4476 11.4074C27.3054 11.512 27.1698 11.5751 27.041 11.5965C26.9149 11.618 26.7995 11.5885 26.6947 11.508Z" fill="var(--fill-0, black)"/>
<path id="Vector_5" d="M32.1296 18.9444C32.0277 18.8666 31.9646 18.7633 31.9405 18.6345C31.9189 18.5083 31.9364 18.3634 31.9928 18.1997L32.7577 15.929L30.8091 14.5319C30.6641 14.4272 30.5622 14.3172 30.5031 14.2018C30.444 14.0863 30.4374 13.9669 30.483 13.8435C30.5232 13.7199 30.5997 13.6287 30.7125 13.5697C30.8279 13.5106 30.9729 13.4824 31.1473 13.4851L33.5428 13.5012L34.2676 11.2144C34.3239 11.0453 34.3964 10.9165 34.4849 10.8279C34.5761 10.7366 34.6863 10.691 34.8151 10.691C34.9466 10.691 35.058 10.7366 35.1492 10.8279C35.2405 10.9165 35.313 11.0453 35.3667 11.2144L36.0954 13.5012L38.4869 13.4851C38.6614 13.4824 38.805 13.5119 38.9178 13.5737C39.0332 13.6327 39.111 13.7227 39.1512 13.8435C39.1941 13.9669 39.1861 14.0863 39.1271 14.2018C39.0707 14.3172 38.97 14.4272 38.825 14.5319L36.8764 15.929L37.6414 18.1997C37.6978 18.3634 37.7152 18.5083 37.6938 18.6345C37.6723 18.7633 37.6092 18.8666 37.5045 18.9444C37.4025 19.025 37.2871 19.0546 37.1583 19.033C37.0294 19.0116 36.8939 18.9486 36.7516 18.8438L34.8151 17.4227L32.8825 18.8438C32.7403 18.9486 32.6047 19.0116 32.4759 19.033C32.3498 19.0546 32.2344 19.025 32.1296 18.9444Z" fill="var(--fill-0, black)"/>
<path id="Vector_6" d="M1.67656 18.9444C1.57458 18.8666 1.51143 18.7633 1.48725 18.6345C1.46583 18.5083 1.48324 18.3634 1.53962 18.1997L2.30463 15.929L0.355898 14.5319C0.211065 14.4272 0.108955 14.3172 0.0499442 14.2018C-0.00906664 14.0863 -0.0158319 13.9669 0.0298983 13.8435C0.0701159 13.7199 0.146541 13.6287 0.259301 13.5697C0.374692 13.5106 0.519651 13.4824 0.694177 13.4851L3.08969 13.5012L3.81436 11.2144C3.87074 11.0453 3.94328 10.9165 4.03186 10.8279C4.12307 10.7366 4.23307 10.691 4.36199 10.691C4.49342 10.691 4.6048 10.7366 4.69614 10.8279C4.78735 10.9165 4.85989 11.0453 4.91351 11.2144L5.64232 13.5012L8.03382 13.4851C8.20822 13.4824 8.3518 13.5119 8.46456 13.5737C8.57995 13.6327 8.65788 13.7227 8.6981 13.8435C8.74108 13.9669 8.73306 14.0863 8.67392 14.2018C8.61754 14.3172 8.51693 14.4272 8.37198 14.5319L6.42336 15.929L7.18825 18.1997C7.24463 18.3634 7.26217 18.5083 7.24062 18.6345C7.2192 18.7633 7.15605 18.8666 7.05144 18.9444C6.94945 19.025 6.83406 19.0546 6.70514 19.033C6.57634 19.0116 6.44078 18.9486 6.29858 18.8438L4.36199 17.4227L2.42942 18.8438C2.28709 18.9486 2.15166 19.0116 2.02274 19.033C1.89657 19.0546 1.78118 19.025 1.67656 18.9444Z" fill="var(--fill-0, black)"/>
<path id="Vector_7" d="M7.10777 35.6445C7.00578 35.5667 6.94264 35.4634 6.91858 35.3346C6.89703 35.2084 6.91445 35.0635 6.97083 34.8998L7.73584 32.6291L5.78723 31.232C5.64227 31.1273 5.54028 31.0173 5.48115 30.9019C5.42214 30.7864 5.41537 30.667 5.4611 30.5436C5.50132 30.42 5.57787 30.3288 5.6905 30.2698C5.80602 30.2107 5.95086 30.1825 6.12538 30.1852L8.52089 30.2013L9.24569 27.9145C9.30194 27.7454 9.37449 27.6166 9.46306 27.528C9.55427 27.4366 9.6644 27.391 9.7932 27.391C9.92475 27.391 10.0361 27.4366 10.1273 27.528C10.2186 27.6166 10.2911 27.7454 10.3447 27.9145L11.0735 30.2013L13.465 30.1852C13.6394 30.1825 13.7831 30.212 13.8958 30.2738C14.0113 30.3328 14.0891 30.4228 14.1293 30.5436C14.1723 30.667 14.1643 30.7864 14.1051 30.9019C14.0487 31.0173 13.9481 31.1273 13.8032 31.232L11.8546 32.6291L12.6196 34.8998C12.6758 35.0635 12.6934 35.2084 12.6718 35.3346C12.6504 35.4634 12.5874 35.5667 12.4826 35.6445C12.3807 35.7251 12.2653 35.7547 12.1363 35.7331C12.0075 35.7117 11.872 35.6487 11.7298 35.5439L9.7932 34.1228L7.86062 35.5439C7.71842 35.6487 7.58286 35.7117 7.45394 35.7331C7.3279 35.7547 7.21238 35.7251 7.10777 35.6445Z" fill="var(--fill-0, black)"/>
<path id="Vector_8" d="M26.6948 35.6445C26.5928 35.5667 26.5296 35.4634 26.5056 35.3346C26.484 35.2084 26.5014 35.0635 26.5578 34.8998L27.3228 32.6291L25.3742 31.232C25.2293 31.1273 25.1273 31.0173 25.0681 30.9019C25.0091 30.7864 25.0025 30.667 25.0481 30.5436C25.0883 30.42 25.1649 30.3288 25.2775 30.2698C25.393 30.2107 25.538 30.1825 25.7124 30.1852L28.1079 30.2013L28.8327 27.9145C28.8889 27.7454 28.9615 27.6166 29.0501 27.528C29.1413 27.4366 29.2514 27.391 29.3802 27.391C29.5117 27.391 29.6231 27.4366 29.7143 27.528C29.8057 27.6166 29.8781 27.7454 29.9317 27.9145L30.6605 30.2013L33.052 30.1852C33.2265 30.1825 33.3701 30.212 33.4828 30.2738C33.5983 30.3328 33.6761 30.4228 33.7163 30.5436C33.7593 30.667 33.7512 30.7864 33.6921 30.9019C33.6359 31.0173 33.5351 31.1273 33.3902 31.232L31.4416 32.6291L32.2066 34.8998C32.2629 35.0635 32.2804 35.2084 32.2588 35.3346C32.2374 35.4634 32.1744 35.5667 32.0696 35.6445C31.9676 35.7251 31.8522 35.7547 31.7233 35.7331C31.5945 35.7117 31.459 35.6487 31.3168 35.5439L29.3802 34.1228L27.4476 35.5439C27.3054 35.6487 27.1698 35.7117 27.0411 35.7331C26.9149 35.7547 26.7994 35.7251 26.6948 35.6445Z" fill="var(--fill-0, black)"/>
<path id="Vector_9" d="M17.0618 39.9046C16.9598 39.8268 16.8968 39.7235 16.8726 39.5947C16.8511 39.4685 16.8686 39.3235 16.925 39.1598L17.6899 36.8891L15.7413 35.4921C15.5963 35.3874 15.4943 35.2774 15.4353 35.162C15.3762 35.0465 15.3696 34.9271 15.4152 34.8036C15.4554 34.6801 15.5319 34.5889 15.6447 34.5298C15.7601 34.4708 15.905 34.4426 16.0794 34.4453L18.4751 34.4614L19.1998 32.1746C19.2561 32.0055 19.3286 31.8767 19.4171 31.7881C19.5083 31.6967 19.6185 31.6511 19.7473 31.6511C19.8788 31.6511 19.9902 31.6967 20.0814 31.7881C20.1727 31.8767 20.2452 32.0055 20.2989 32.1746L21.0276 34.4614L23.4191 34.4453C23.5936 34.4426 23.7372 34.4721 23.85 34.5339C23.9653 34.5929 24.0432 34.6829 24.0834 34.8036C24.1263 34.9271 24.1183 35.0465 24.0593 35.162C24.0029 35.2774 23.9022 35.3874 23.7574 35.4921L21.8086 36.8891L22.5736 39.1598C22.63 39.3235 22.6474 39.4685 22.626 39.5947C22.6045 39.7235 22.5414 39.8268 22.4367 39.9046C22.3347 39.9852 22.2193 40.0148 22.0905 39.9932C21.9616 39.9718 21.826 39.9088 21.6838 39.804L19.7473 38.3828L17.8147 39.804C17.6725 39.9088 17.5369 39.9718 17.4081 39.9932C17.282 40.0148 17.1666 39.9852 17.0618 39.9046Z" fill="var(--fill-0, black)"/>
<path id="Vector_10" d="M32.1296 28.1996C32.0277 28.1217 31.9646 28.0184 31.9405 27.8895C31.9189 27.7634 31.9364 27.6185 31.9928 27.4548L32.7577 25.184L30.8091 23.787C30.6641 23.6822 30.5622 23.5722 30.5031 23.4568C30.444 23.3414 30.4374 23.2219 30.483 23.0985C30.5232 22.975 30.5997 22.8837 30.7125 22.8247C30.8279 22.7656 30.9729 22.7374 31.1473 22.7402L33.5428 22.7562L34.2676 20.4694C34.3239 20.3003 34.3964 20.1715 34.4849 20.0829C34.5761 19.9917 34.6863 19.946 34.8151 19.946C34.9466 19.946 35.058 19.9917 35.1492 20.0829C35.2405 20.1715 35.313 20.3003 35.3667 20.4694L36.0954 22.7562L38.4869 22.7402C38.6614 22.7374 38.805 22.767 38.9178 22.8287C39.0332 22.8878 39.111 22.9777 39.1512 23.0985C39.1941 23.2219 39.1861 23.3414 39.1271 23.4568C39.0707 23.5722 38.97 23.6822 38.825 23.787L36.8764 25.184L37.6414 27.4548C37.6978 27.6185 37.7152 27.7634 37.6938 27.8895C37.6723 28.0184 37.6092 28.1217 37.5045 28.1996C37.4025 28.28 37.2871 28.3096 37.1583 28.2882C37.0294 28.2666 36.8939 28.2036 36.7516 28.0989L34.8151 26.6777L32.8825 28.0989C32.7403 28.2036 32.6047 28.2666 32.4759 28.2882C32.3498 28.3096 32.2344 28.28 32.1296 28.1996Z" fill="var(--fill-0, black)"/>
<path id="Vector_11" d="M1.67656 28.1996C1.57458 28.1217 1.51143 28.0184 1.48725 27.8895C1.46583 27.7634 1.48324 27.6185 1.53962 27.4548L2.30463 25.184L0.355898 23.787C0.211065 23.6822 0.108955 23.5722 0.0499442 23.4568C-0.00906664 23.3414 -0.0158319 23.2219 0.0298983 23.0985C0.0701159 22.975 0.146541 22.8837 0.259301 22.8247C0.374692 22.7656 0.519651 22.7374 0.694177 22.7402L3.08969 22.7562L3.81436 20.4694C3.87074 20.3003 3.94328 20.1715 4.03186 20.0829C4.12307 19.9917 4.23307 19.946 4.36199 19.946C4.49342 19.946 4.6048 19.9917 4.69614 20.0829C4.78735 20.1715 4.85989 20.3003 4.91351 20.4694L5.64232 22.7562L8.03382 22.7402C8.20822 22.7374 8.3518 22.767 8.46456 22.8287C8.57995 22.8878 8.65788 22.9777 8.6981 23.0985C8.74108 23.2219 8.73306 23.3414 8.67392 23.4568C8.61754 23.5722 8.51693 23.6822 8.37198 23.787L6.42336 25.184L7.18825 27.4548C7.24463 27.6185 7.26217 27.7634 7.24062 27.8895C7.2192 28.0184 7.15605 28.1217 7.05144 28.1996C6.94945 28.28 6.83406 28.3096 6.70514 28.2882C6.57634 28.2666 6.44078 28.2036 6.29858 28.0989L4.36199 26.6777L2.42942 28.0989C2.28709 28.2036 2.15166 28.2666 2.02274 28.2882C1.89657 28.3096 1.78118 28.28 1.67656 28.1996Z" fill="var(--fill-0, black)"/>
</g>
</svg>
