<svg preserveAspectRatio="none" width="100%" height="100%" overflow="visible" style="display: block;" viewBox="0 0 40 40" fill="none" xmlns="http://www.w3.org/2000/svg">
<g id="medical-file">
<path id="Vector" d="M31.6667 15V13.0303C31.6667 10.2082 31.6667 8.7972 31.2463 7.67023C30.5707 5.8585 29.1415 4.42942 27.3298 3.75367C26.2028 3.33333 24.7918 3.33333 21.9697 3.33333C17.031 3.33333 14.5618 3.33333 12.5896 4.06892C9.41903 5.25147 6.91813 7.75237 5.73558 10.9229C5 12.8951 5 15.3644 5 20.303V24.5455C5 29.661 5 32.2188 6.32972 33.9952C6.71072 34.5042 7.16253 34.956 7.67148 35.337C9.44778 36.6667 12.0056 36.6667 17.1212 36.6667H18.3333C20.283 36.6667 24.1667 36.6667 24.1667 36.6667" stroke="var(--stroke-0, black)" stroke-width="2" stroke-linecap="round" stroke-linejoin="round"/>
<path id="Vector_2" d="M18.3333 23.8888H19.7338C20.8365 23.8888 21.3877 23.8888 21.8308 24.1793C22.2738 24.4697 22.5203 24.9927 23.0135 26.0387L25.6667 31.6667L29.3333 20L31.9865 25.628C32.4797 26.674 32.7262 27.197 33.1692 27.4873C33.6123 27.7778 34.1635 27.7778 35.2662 27.7778H36.6667" stroke="var(--stroke-0, black)" stroke-width="2" stroke-linecap="round" stroke-linejoin="round"/>
<path id="Vector_3" d="M5 20C5 16.9318 7.4873 14.4444 10.5556 14.4444H12.4074C13.2685 14.4444 13.699 14.4445 14.0523 14.3498C15.0109 14.093 15.7596 13.3442 16.0165 12.3856C16.1111 12.0324 16.1111 11.6018 16.1111 10.7407V8.88888C16.1111 5.82063 18.5985 3.33333 21.6667 3.33333" stroke="var(--stroke-0, black)" stroke-width="2" stroke-linecap="round" stroke-linejoin="round"/>
</g>
</svg>
