<svg preserveAspectRatio="none" width="100%" height="100%" overflow="visible" style="display: block;" viewBox="0 0 40 40" fill="none" xmlns="http://www.w3.org/2000/svg">
<g id="loading-02">
<path id="Vector" d="M30.0017 33.3333C27.2158 35.4263 23.7527 36.6667 20 36.6667C10.7952 36.6667 3.33333 29.2047 3.33333 20C3.33333 10.7952 10.7952 3.33333 20 3.33333C29.2047 3.33333 36.6667 10.7952 36.6667 20C36.6667 21.439 36.4843 22.8352 36.1415 24.1672C35.7695 25.6122 34.1908 26.2833 32.7832 25.788C31.5865 25.3668 31.0368 23.9995 31.3367 22.7667C31.5523 21.8798 31.6667 20.9533 31.6667 20C31.6667 13.5567 26.4433 8.33333 20 8.33333C13.5567 8.33333 8.33333 13.5567 8.33333 20C8.33333 26.4433 13.5567 31.6667 20 31.6667C22.1995 31.6667 24.2567 31.058 26.0127 30" stroke="var(--stroke-0, black)" stroke-width="1.5" stroke-linecap="round"/>
</g>
</svg>
