<svg preserveAspectRatio="none" width="100%" height="100%" overflow="visible" style="display: block;" viewBox="0 0 191.332 187.631" fill="none" xmlns="http://www.w3.org/2000/svg">
<g id="Group 2117761331">
<path id="Vector" d="M152.418 138.57C154.627 138.57 156.418 136.779 156.418 134.57C156.418 132.361 154.627 130.57 152.418 130.57C150.209 130.57 148.418 132.361 148.418 134.57C148.418 136.779 150.209 138.57 152.418 138.57Z" fill="var(--fill-0, #7700EE)"/>
<path id="Vector_2" d="M167.891 136.361C170.1 136.361 171.891 134.57 171.891 132.361C171.891 130.152 170.1 128.361 167.891 128.361C165.681 128.361 163.891 130.152 163.891 132.361C163.891 134.57 165.681 136.361 167.891 136.361Z" fill="var(--fill-0, #7700EE)"/>
<path id="Vector_3" d="M182.398 144.76C184.608 144.76 186.398 142.969 186.398 140.76C186.398 138.551 184.608 136.76 182.398 136.76C180.189 136.76 178.398 138.551 178.398 140.76C178.398 142.969 180.189 144.76 182.398 144.76Z" fill="var(--fill-0, #7700EE)"/>
<path id="Vector_4" d="M187.332 159.73C189.541 159.73 191.332 157.94 191.332 155.73C191.332 153.521 189.541 151.73 187.332 151.73C185.123 151.73 183.332 153.521 183.332 155.73C183.332 157.94 185.123 159.73 187.332 159.73Z" fill="var(--fill-0, #7700EE)"/>
<path id="Vector_5" d="M185.73 176.221C187.94 176.221 189.73 174.43 189.73 172.221C189.73 170.012 187.94 168.221 185.73 168.221C183.521 168.221 181.73 170.012 181.73 172.221C181.73 174.43 183.521 176.221 185.73 176.221Z" fill="var(--fill-0, #7700EE)"/>
<path id="Vector_6" d="M171.832 185.41C174.041 185.41 175.832 183.619 175.832 181.41C175.832 179.201 174.041 177.41 171.832 177.41C169.623 177.41 167.832 179.201 167.832 181.41C167.832 183.619 169.623 185.41 171.832 185.41Z" fill="var(--fill-0, #7700EE)"/>
<path id="Vector_7" d="M156.359 187.631C158.569 187.631 160.359 185.84 160.359 183.631C160.359 181.422 158.569 179.631 156.359 179.631C154.15 179.631 152.359 181.422 152.359 183.631C152.359 185.84 154.15 187.631 156.359 187.631Z" fill="var(--fill-0, #7700EE)"/>
<path id="Vector_8" d="M141.848 179.23C144.057 179.23 145.848 177.44 145.848 175.23C145.848 173.021 144.057 171.23 141.848 171.23C139.639 171.23 137.848 173.021 137.848 175.23C137.848 177.44 139.639 179.23 141.848 179.23Z" fill="var(--fill-0, #7700EE)"/>
<path id="Vector_9" d="M136.918 164.25C139.127 164.25 140.918 162.459 140.918 160.25C140.918 158.041 139.127 156.25 136.918 156.25C134.709 156.25 132.918 158.041 132.918 160.25C132.918 162.459 134.709 164.25 136.918 164.25Z" fill="var(--fill-0, #7700EE)"/>
<path id="Vector_10" d="M138.52 147.77C140.729 147.77 142.52 145.979 142.52 143.77C142.52 141.56 140.729 139.77 138.52 139.77C136.31 139.77 134.52 141.56 134.52 143.77C134.52 145.979 136.31 147.77 138.52 147.77Z" fill="var(--fill-0, #7700EE)"/>
<path id="Vector_11" d="M19.5117 138.57C21.7209 138.57 23.5117 136.779 23.5117 134.57C23.5117 132.361 21.7209 130.57 19.5117 130.57C17.3026 130.57 15.5117 132.361 15.5117 134.57C15.5117 136.779 17.3026 138.57 19.5117 138.57Z" fill="var(--fill-0, #7700EE)"/>
<path id="Vector_12" d="M34.9805 136.361C37.1896 136.361 38.9805 134.57 38.9805 132.361C38.9805 130.152 37.1896 128.361 34.9805 128.361C32.7713 128.361 30.9805 130.152 30.9805 132.361C30.9805 134.57 32.7713 136.361 34.9805 136.361Z" fill="var(--fill-0, #7700EE)"/>
<path id="Vector_13" d="M49.4805 144.76C51.6896 144.76 53.4805 142.969 53.4805 140.76C53.4805 138.551 51.6896 136.76 49.4805 136.76C47.2713 136.76 45.4805 138.551 45.4805 140.76C45.4805 142.969 47.2713 144.76 49.4805 144.76Z" fill="var(--fill-0, #7700EE)"/>
<path id="Vector_14" d="M54.418 159.73C56.6271 159.73 58.418 157.94 58.418 155.73C58.418 153.521 56.6271 151.73 54.418 151.73C52.2088 151.73 50.418 153.521 50.418 155.73C50.418 157.94 52.2088 159.73 54.418 159.73Z" fill="var(--fill-0, #7700EE)"/>
<path id="Vector_15" d="M52.8203 176.221C55.0295 176.221 56.8203 174.43 56.8203 172.221C56.8203 170.012 55.0295 168.221 52.8203 168.221C50.6112 168.221 48.8203 170.012 48.8203 172.221C48.8203 174.43 50.6112 176.221 52.8203 176.221Z" fill="var(--fill-0, #7700EE)"/>
<path id="Vector_16" d="M38.9102 185.41C41.1193 185.41 42.9102 183.619 42.9102 181.41C42.9102 179.201 41.1193 177.41 38.9102 177.41C36.701 177.41 34.9102 179.201 34.9102 181.41C34.9102 183.619 36.701 185.41 38.9102 185.41Z" fill="var(--fill-0, #7700EE)"/>
<path id="Vector_17" d="M23.4414 187.631C25.6505 187.631 27.4414 185.84 27.4414 183.631C27.4414 181.422 25.6505 179.631 23.4414 179.631C21.2323 179.631 19.4414 181.422 19.4414 183.631C19.4414 185.84 21.2323 187.631 23.4414 187.631Z" fill="var(--fill-0, #7700EE)"/>
<path id="Vector_18" d="M8.94141 179.23C11.1505 179.23 12.9414 177.44 12.9414 175.23C12.9414 173.021 11.1505 171.23 8.94141 171.23C6.73227 171.23 4.94141 173.021 4.94141 175.23C4.94141 177.44 6.73227 179.23 8.94141 179.23Z" fill="var(--fill-0, #7700EE)"/>
<path id="Vector_19" d="M4 164.25C6.20914 164.25 8 162.459 8 160.25C8 158.041 6.20914 156.25 4 156.25C1.79086 156.25 0 158.041 0 160.25C0 162.459 1.79086 164.25 4 164.25Z" fill="var(--fill-0, #7700EE)"/>
<path id="Vector_20" d="M5.60156 147.77C7.8107 147.77 9.60156 145.979 9.60156 143.77C9.60156 141.56 7.8107 139.77 5.60156 139.77C3.39242 139.77 1.60156 141.56 1.60156 143.77C1.60156 145.979 3.39242 147.77 5.60156 147.77Z" fill="var(--fill-0, #7700EE)"/>
<path id="Vector_21" d="M85.9688 10.2207C88.1779 10.2207 89.9688 8.42984 89.9688 6.2207C89.9688 4.01156 88.1779 2.2207 85.9688 2.2207C83.7596 2.2207 81.9688 4.01156 81.9688 6.2207C81.9688 8.42984 83.7596 10.2207 85.9688 10.2207Z" fill="var(--fill-0, #7700EE)"/>
<path id="Vector_22" d="M101.43 8C103.639 8 105.43 6.20914 105.43 4C105.43 1.79086 103.639 0 101.43 0C99.2205 0 97.4297 1.79086 97.4297 4C97.4297 6.20914 99.2205 8 101.43 8Z" fill="var(--fill-0, #7700EE)"/>
<path id="Vector_23" d="M115.941 16.4102C118.151 16.4102 119.941 14.6193 119.941 12.4102C119.941 10.201 118.151 8.41016 115.941 8.41016C113.732 8.41016 111.941 10.201 111.941 12.4102C111.941 14.6193 113.732 16.4102 115.941 16.4102Z" fill="var(--fill-0, #7700EE)"/>
<path id="Vector_24" d="M120.879 31.3809C123.088 31.3809 124.879 29.59 124.879 27.3809C124.879 25.1717 123.088 23.3809 120.879 23.3809C118.67 23.3809 116.879 25.1717 116.879 27.3809C116.879 29.59 118.67 31.3809 120.879 31.3809Z" fill="var(--fill-0, #7700EE)"/>
<path id="Vector_25" d="M119.281 47.8613C121.49 47.8613 123.281 46.0705 123.281 43.8613C123.281 41.6522 121.49 39.8613 119.281 39.8613C117.072 39.8613 115.281 41.6522 115.281 43.8613C115.281 46.0705 117.072 47.8613 119.281 47.8613Z" fill="var(--fill-0, #7700EE)"/>
<path id="Vector_26" d="M105.371 57.0605C107.58 57.0605 109.371 55.2697 109.371 53.0605C109.371 50.8514 107.58 49.0605 105.371 49.0605C103.162 49.0605 101.371 50.8514 101.371 53.0605C101.371 55.2697 103.162 57.0605 105.371 57.0605Z" fill="var(--fill-0, #7700EE)"/>
<path id="Vector_27" d="M89.8984 59.2695C92.1076 59.2695 93.8984 57.4787 93.8984 55.2695C93.8984 53.0604 92.1076 51.2695 89.8984 51.2695C87.6893 51.2695 85.8984 53.0604 85.8984 55.2695C85.8984 57.4787 87.6893 59.2695 89.8984 59.2695Z" fill="var(--fill-0, #7700EE)"/>
<path id="Vector_28" d="M75.3906 50.8711C77.5998 50.8711 79.3906 49.0802 79.3906 46.8711C79.3906 44.662 77.5998 42.8711 75.3906 42.8711C73.1815 42.8711 71.3906 44.662 71.3906 46.8711C71.3906 49.0802 73.1815 50.8711 75.3906 50.8711Z" fill="var(--fill-0, #7700EE)"/>
<path id="Vector_29" d="M70.457 35.9004C72.6662 35.9004 74.457 34.1095 74.457 31.9004C74.457 29.6913 72.6662 27.9004 70.457 27.9004C68.2479 27.9004 66.457 29.6913 66.457 31.9004C66.457 34.1095 68.2479 35.9004 70.457 35.9004Z" fill="var(--fill-0, #7700EE)"/>
<path id="Vector_30" d="M72.0586 19.4102C74.2677 19.4102 76.0586 17.6193 76.0586 15.4102C76.0586 13.201 74.2677 11.4102 72.0586 11.4102C69.8495 11.4102 68.0586 13.201 68.0586 15.4102C68.0586 17.6193 69.8495 19.4102 72.0586 19.4102Z" fill="var(--fill-0, #7700EE)"/>
<path id="Vector_31" d="M95.668 106.98C97.8771 106.98 99.668 105.19 99.668 102.98C99.668 100.771 97.8771 98.9805 95.668 98.9805C93.4588 98.9805 91.668 100.771 91.668 102.98C91.668 105.19 93.4588 106.98 95.668 106.98Z" fill="var(--fill-0, #7700EE)"/>
<path id="Vector_32" d="M107.129 117.301C109.338 117.301 111.129 115.51 111.129 113.301C111.129 111.092 109.338 109.301 107.129 109.301C104.92 109.301 103.129 111.092 103.129 113.301C103.129 115.51 104.92 117.301 107.129 117.301Z" fill="var(--fill-0, #7700EE)"/>
<path id="Vector_33" d="M118.578 127.611C120.787 127.611 122.578 125.82 122.578 123.611C122.578 121.402 120.787 119.611 118.578 119.611C116.369 119.611 114.578 121.402 114.578 123.611C114.578 125.82 116.369 127.611 118.578 127.611Z" fill="var(--fill-0, #7700EE)"/>
<path id="Vector_34" d="M130.039 137.93C132.248 137.93 134.039 136.139 134.039 133.93C134.039 131.721 132.248 129.93 130.039 129.93C127.83 129.93 126.039 131.721 126.039 133.93C126.039 136.139 127.83 137.93 130.039 137.93Z" fill="var(--fill-0, #7700EE)"/>
<path id="Vector_35" d="M84.207 117.301C86.4162 117.301 88.207 115.51 88.207 113.301C88.207 111.092 86.4162 109.301 84.207 109.301C81.9979 109.301 80.207 111.092 80.207 113.301C80.207 115.51 81.9979 117.301 84.207 117.301Z" fill="var(--fill-0, #7700EE)"/>
<path id="Vector_36" d="M72.75 127.611C74.9591 127.611 76.75 125.82 76.75 123.611C76.75 121.402 74.9591 119.611 72.75 119.611C70.5409 119.611 68.75 121.402 68.75 123.611C68.75 125.82 70.5409 127.611 72.75 127.611Z" fill="var(--fill-0, #7700EE)"/>
<path id="Vector_37" d="M61.2891 137.93C63.4982 137.93 65.2891 136.139 65.2891 133.93C65.2891 131.721 63.4982 129.93 61.2891 129.93C59.0799 129.93 57.2891 131.721 57.2891 133.93C57.2891 136.139 59.0799 137.93 61.2891 137.93Z" fill="var(--fill-0, #7700EE)"/>
<path id="Vector_38" d="M95.668 91.7012C97.8771 91.7012 99.668 89.9103 99.668 87.7012C99.668 85.492 97.8771 83.7012 95.668 83.7012C93.4588 83.7012 91.668 85.492 91.668 87.7012C91.668 89.9103 93.4588 91.7012 95.668 91.7012Z" fill="var(--fill-0, #7700EE)"/>
<path id="Vector_39" d="M95.668 76.4199C97.8771 76.4199 99.668 74.6291 99.668 72.4199C99.668 70.2108 97.8771 68.4199 95.668 68.4199C93.4588 68.4199 91.668 70.2108 91.668 72.4199C91.668 74.6291 93.4588 76.4199 95.668 76.4199Z" fill="var(--fill-0, #7700EE)"/>
</g>
</svg>
