<svg preserveAspectRatio="none" width="100%" height="100%" overflow="visible" style="display: block;" viewBox="0 0 40 40" fill="none" xmlns="http://www.w3.org/2000/svg">
<g id="home-09">
<path id="Vector" d="M36.6667 17.5L21.4708 4.70345C21.0592 4.35678 20.5382 4.16667 20 4.16667C19.4618 4.16667 18.9408 4.35678 18.5292 4.70345L3.33333 17.5" stroke="var(--stroke-0, black)" stroke-width="1.5" stroke-linecap="round" stroke-linejoin="round"/>
<path id="Vector_2" d="M34.1667 15.8333V26.6667C34.1667 30.576 34.1667 32.5307 33.1335 33.8772C32.8675 34.2238 32.5572 34.5342 32.2105 34.8002C30.864 35.8333 28.9093 35.8333 25 35.8333V28.3333C25 25.9763 25 24.7978 24.2678 24.0655C23.5355 23.3333 22.357 23.3333 20 23.3333C17.643 23.3333 16.4645 23.3333 15.7322 24.0655C15 24.7978 15 25.9763 15 28.3333V35.8333C11.0907 35.8333 9.13607 35.8333 7.78953 34.8002C7.44287 34.5342 7.13257 34.2238 6.86657 33.8772C5.83333 32.5307 5.83333 30.576 5.83333 26.6667V15.8333" stroke="var(--stroke-0, black)" stroke-width="1.5" stroke-linecap="round" stroke-linejoin="round"/>
</g>
</svg>
