<svg preserveAspectRatio="none" width="100%" height="100%" overflow="visible" style="display: block;" viewBox="0 0 40 40" fill="none" xmlns="http://www.w3.org/2000/svg">
<g id="ambulance">
<path id="Vector" d="M18.3333 30H25M22.5 13.3333H24.0715C26.2555 13.3333 27.3477 13.3333 28.2735 13.8575C29.1993 14.3817 29.8167 15.3495 31.0513 17.2852C31.917 18.6423 32.8258 19.6275 34.1037 20.504C35.3902 21.3863 36.002 21.8177 36.3415 22.51C36.6667 23.173 36.6667 23.9583 36.6667 25.5288C36.6667 27.5993 36.6667 28.6347 36.085 29.2925C36.06 29.3208 36.0345 29.3483 36.0082 29.375C35.3958 30 34.4323 30 32.505 30H31.6667" stroke="var(--stroke-0, black)" stroke-width="1.5" stroke-linecap="round" stroke-linejoin="round"/>
<path id="Vector_2" d="M8.33333 30C5.97632 30 4.7978 30 4.06557 29.2678C3.33333 28.5355 3.33333 27.357 3.33333 25V13.3333C3.33333 10.9763 3.33333 9.7978 4.06557 9.06557C4.7978 8.33333 5.97632 8.33333 8.33333 8.33333H17.5C19.857 8.33333 21.0355 8.33333 21.7678 9.06557C22.5 9.7978 22.5 10.9763 22.5 13.3333V30H15" stroke="var(--stroke-0, black)" stroke-width="1.5" stroke-linecap="round" stroke-linejoin="round"/>
<path id="Vector_3" d="M36.6667 25H35" stroke="var(--stroke-0, black)" stroke-width="1.5" stroke-linecap="round" stroke-linejoin="round"/>
<path id="Vector_4" d="M13.3333 15V21.6667M16.6667 18.3333H10" stroke="var(--stroke-0, black)" stroke-width="1.5" stroke-linecap="round" stroke-linejoin="round"/>
<path id="Vector_5" d="M28.3333 33.3333C30.1743 33.3333 31.6667 31.8409 31.6667 30C31.6667 28.1591 30.1743 26.6667 28.3333 26.6667C26.4924 26.6667 25 28.1591 25 30C25 31.8409 26.4924 33.3333 28.3333 33.3333Z" stroke="var(--stroke-0, black)" stroke-width="1.5"/>
<path id="Vector_6" d="M11.6667 33.3333C13.5076 33.3333 15 31.8409 15 30C15 28.1591 13.5076 26.6667 11.6667 26.6667C9.82572 26.6667 8.33333 28.1591 8.33333 30C8.33333 31.8409 9.82572 33.3333 11.6667 33.3333Z" stroke="var(--stroke-0, black)" stroke-width="1.5"/>
</g>
</svg>
