<svg preserveAspectRatio="none" width="100%" height="100%" overflow="visible" style="display: block;" viewBox="0 0 40 40" fill="none" xmlns="http://www.w3.org/2000/svg">
<g id="message-notification-01">
<path id="Vector" d="M36.5997 18.2845C36.689 19.6682 36.689 21.1012 36.5997 22.4848C36.1427 29.5553 30.5893 35.1875 23.6177 35.6508C21.2392 35.809 18.756 35.8087 16.3823 35.6508C15.5649 35.5965 14.674 35.4015 13.9067 35.0855C13.053 34.7338 12.626 34.558 12.4091 34.5847C12.1921 34.6113 11.8773 34.8435 11.2478 35.3077C10.1378 36.1262 8.73945 36.7142 6.66572 36.6637C5.6171 36.6382 5.0928 36.6253 4.85807 36.2252C4.62335 35.825 4.91568 35.271 5.50035 34.163C6.31123 32.6263 6.82502 30.8672 6.04652 29.4577C4.70572 27.4443 3.56683 25.06 3.4004 22.4848C3.31098 21.1012 3.31098 19.6682 3.4004 18.2845C3.85735 11.214 9.41065 5.58188 16.3823 5.11845C18.3863 4.98523 18.802 4.96427 20.8333 5.05613" stroke="var(--stroke-0, black)" stroke-width="2" stroke-linecap="round" stroke-linejoin="round"/>
<path id="Vector_2" d="M14.1667 25H25.8333M14.1667 16.6667H20" stroke="var(--stroke-0, black)" stroke-width="2" stroke-linecap="round" stroke-linejoin="round"/>
<path id="Vector_3" d="M36.6667 9.16667C36.6667 12.3883 34.055 15 30.8333 15C27.6117 15 25 12.3883 25 9.16667C25 5.945 27.6117 3.33333 30.8333 3.33333C34.055 3.33333 36.6667 5.945 36.6667 9.16667Z" stroke="var(--stroke-0, black)" stroke-width="2"/>
</g>
</svg>
