<svg preserveAspectRatio="none" width="100%" height="100%" overflow="visible" style="display: block;" viewBox="0 0 191.008 190.149" fill="none" xmlns="http://www.w3.org/2000/svg">
<g id="Group 2117761332">
<path id="Vector" d="M12.6914 138.05C14.9005 138.05 16.6914 136.259 16.6914 134.05C16.6914 131.841 14.9005 130.05 12.6914 130.05C10.4823 130.05 8.69141 131.841 8.69141 134.05C8.69141 136.259 10.4823 138.05 12.6914 138.05Z" fill="var(--fill-0, #7700EE)"/>
<path id="Vector_2" d="M6.71094 121.591C8.92008 121.591 10.7109 119.8 10.7109 117.591C10.7109 115.382 8.92008 113.591 6.71094 113.591C4.5018 113.591 2.71094 115.382 2.71094 117.591C2.71094 119.8 4.5018 121.591 6.71094 121.591Z" fill="var(--fill-0, #7700EE)"/>
<path id="Vector_3" d="M4.01172 104.3C6.22086 104.3 8.01172 102.509 8.01172 100.3C8.01172 98.0907 6.22086 96.2998 4.01172 96.2998C1.80258 96.2998 0.0117188 98.0907 0.0117188 100.3C0.0117188 102.509 1.80258 104.3 4.01172 104.3Z" fill="var(--fill-0, #7700EE)"/>
<path id="Vector_4" d="M4.65234 86.8096C6.86148 86.8096 8.65234 85.0187 8.65234 82.8096C8.65234 80.6004 6.86148 78.8096 4.65234 78.8096C2.4432 78.8096 0.652344 80.6004 0.652344 82.8096C0.652344 85.0187 2.4432 86.8096 4.65234 86.8096Z" fill="var(--fill-0, #7700EE)"/>
<path id="Vector_5" d="M8.62109 69.7607C10.8302 69.7607 12.6211 67.9699 12.6211 65.7607C12.6211 63.5516 10.8302 61.7607 8.62109 61.7607C6.41195 61.7607 4.62109 63.5516 4.62109 65.7607C4.62109 67.9699 6.41195 69.7607 8.62109 69.7607Z" fill="var(--fill-0, #7700EE)"/>
<path id="Vector_6" d="M15.8008 53.79C18.0099 53.79 19.8008 51.9992 19.8008 49.79C19.8008 47.5809 18.0099 45.79 15.8008 45.79C13.5916 45.79 11.8008 47.5809 11.8008 49.79C11.8008 51.9992 13.5916 53.79 15.8008 53.79Z" fill="var(--fill-0, #7700EE)"/>
<path id="Vector_7" d="M25.9219 39.4805C28.131 39.4805 29.9219 37.6896 29.9219 35.4805C29.9219 33.2713 28.131 31.4805 25.9219 31.4805C23.7127 31.4805 21.9219 33.2713 21.9219 35.4805C21.9219 37.6896 23.7127 39.4805 25.9219 39.4805Z" fill="var(--fill-0, #7700EE)"/>
<path id="Vector_8" d="M38.582 27.3496C40.7912 27.3496 42.582 25.5587 42.582 23.3496C42.582 21.1405 40.7912 19.3496 38.582 19.3496C36.3729 19.3496 34.582 21.1405 34.582 23.3496C34.582 25.5587 36.3729 27.3496 38.582 27.3496Z" fill="var(--fill-0, #7700EE)"/>
<path id="Vector_9" d="M53.332 17.8301C55.5412 17.8301 57.332 16.0392 57.332 13.8301C57.332 11.6209 55.5412 9.83008 53.332 9.83008C51.1229 9.83008 49.332 11.6209 49.332 13.8301C49.332 16.0392 51.1229 17.8301 53.332 17.8301Z" fill="var(--fill-0, #7700EE)"/>
<path id="Vector_10" d="M69.6328 11.2998C71.842 11.2998 73.6328 9.50894 73.6328 7.2998C73.6328 5.09067 71.842 3.2998 69.6328 3.2998C67.4237 3.2998 65.6328 5.09067 65.6328 7.2998C65.6328 9.50894 67.4237 11.2998 69.6328 11.2998Z" fill="var(--fill-0, #7700EE)"/>
<path id="Vector_11" d="M86.8906 8C89.0998 8 90.8906 6.20914 90.8906 4C90.8906 1.79086 89.0998 0 86.8906 0C84.6815 0 82.8906 1.79086 82.8906 4C82.8906 6.20914 84.6815 8 86.8906 8Z" fill="var(--fill-0, #7700EE)"/>
<path id="Vector_12" d="M104.461 8.03027C106.67 8.03027 108.461 6.23941 108.461 4.03027C108.461 1.82113 106.67 0.0302734 104.461 0.0302734C102.252 0.0302734 100.461 1.82113 100.461 4.03027C100.461 6.23941 102.252 8.03027 104.461 8.03027Z" fill="var(--fill-0, #7700EE)"/>
<path id="Vector_13" d="M121.711 11.3799C123.92 11.3799 125.711 9.58902 125.711 7.37988C125.711 5.17074 123.92 3.37988 121.711 3.37988C119.502 3.37988 117.711 5.17074 117.711 7.37988C117.711 9.58902 119.502 11.3799 121.711 11.3799Z" fill="var(--fill-0, #7700EE)"/>
<path id="Vector_14" d="M137.98 17.9697C140.19 17.9697 141.98 16.1789 141.98 13.9697C141.98 11.7606 140.19 9.96973 137.98 9.96973C135.771 9.96973 133.98 11.7606 133.98 13.9697C133.98 16.1789 135.771 17.9697 137.98 17.9697Z" fill="var(--fill-0, #7700EE)"/>
<path id="Vector_15" d="M152.699 27.54C154.908 27.54 156.699 25.7492 156.699 23.54C156.699 21.3309 154.908 19.54 152.699 19.54C150.49 19.54 148.699 21.3309 148.699 23.54C148.699 25.7492 150.49 27.54 152.699 27.54Z" fill="var(--fill-0, #7700EE)"/>
<path id="Vector_16" d="M165.32 39.71C167.529 39.71 169.32 37.9191 169.32 35.71C169.32 33.5008 167.529 31.71 165.32 31.71C163.111 31.71 161.32 33.5008 161.32 35.71C161.32 37.9191 163.111 39.71 165.32 39.71Z" fill="var(--fill-0, #7700EE)"/>
<path id="Vector_17" d="M175.391 54.0596C177.6 54.0596 179.391 52.2687 179.391 50.0596C179.391 47.8504 177.6 46.0596 175.391 46.0596C173.181 46.0596 171.391 47.8504 171.391 50.0596C171.391 52.2687 173.181 54.0596 175.391 54.0596Z" fill="var(--fill-0, #7700EE)"/>
<path id="Vector_18" d="M182.52 70.0498C184.729 70.0498 186.52 68.2589 186.52 66.0498C186.52 63.8407 184.729 62.0498 182.52 62.0498C180.31 62.0498 178.52 63.8407 178.52 66.0498C178.52 68.2589 180.31 70.0498 182.52 70.0498Z" fill="var(--fill-0, #7700EE)"/>
<path id="Vector_19" d="M186.43 87.1104C188.639 87.1104 190.43 85.3195 190.43 83.1104C190.43 80.9012 188.639 79.1104 186.43 79.1104C184.221 79.1104 182.43 80.9012 182.43 83.1104C182.43 85.3195 184.221 87.1104 186.43 87.1104Z" fill="var(--fill-0, #7700EE)"/>
<path id="Vector_20" d="M187.008 104.601C189.217 104.601 191.008 102.81 191.008 100.601C191.008 98.3914 189.217 96.6006 187.008 96.6006C184.799 96.6006 183.008 98.3914 183.008 100.601C183.008 102.81 184.799 104.601 187.008 104.601Z" fill="var(--fill-0, #7700EE)"/>
<path id="Vector_21" d="M184.25 121.89C186.459 121.89 188.25 120.099 188.25 117.89C188.25 115.681 186.459 113.89 184.25 113.89C182.041 113.89 180.25 115.681 180.25 117.89C180.25 120.099 182.041 121.89 184.25 121.89Z" fill="var(--fill-0, #7700EE)"/>
<path id="Vector_22" d="M178.219 138.319C180.428 138.319 182.219 136.528 182.219 134.319C182.219 132.11 180.428 130.319 178.219 130.319C176.01 130.319 174.219 132.11 174.219 134.319C174.219 136.528 176.01 138.319 178.219 138.319Z" fill="var(--fill-0, #7700EE)"/>
<path id="Vector_23" d="M169.141 153.3C171.35 153.3 173.141 151.509 173.141 149.3C173.141 147.091 171.35 145.3 169.141 145.3C166.931 145.3 165.141 147.091 165.141 149.3C165.141 151.509 166.931 153.3 169.141 153.3Z" fill="var(--fill-0, #7700EE)"/>
<path id="Vector_24" d="M157.352 166.29C159.561 166.29 161.352 164.499 161.352 162.29C161.352 160.081 159.561 158.29 157.352 158.29C155.142 158.29 153.352 160.081 153.352 162.29C153.352 164.499 155.142 166.29 157.352 166.29Z" fill="var(--fill-0, #7700EE)"/>
<path id="Vector_25" d="M143.309 176.81C145.518 176.81 147.309 175.019 147.309 172.81C147.309 170.6 145.518 168.81 143.309 168.81C141.099 168.81 139.309 170.6 139.309 172.81C139.309 175.019 141.099 176.81 143.309 176.81Z" fill="var(--fill-0, #7700EE)"/>
<path id="Vector_26" d="M127.508 184.47C129.717 184.47 131.508 182.679 131.508 180.47C131.508 178.261 129.717 176.47 127.508 176.47C125.299 176.47 123.508 178.261 123.508 180.47C123.508 182.679 125.299 184.47 127.508 184.47Z" fill="var(--fill-0, #7700EE)"/>
<path id="Vector_27" d="M110.531 188.97C112.74 188.97 114.531 187.179 114.531 184.97C114.531 182.761 112.74 180.97 110.531 180.97C108.322 180.97 106.531 182.761 106.531 184.97C106.531 187.179 108.322 188.97 110.531 188.97Z" fill="var(--fill-0, #7700EE)"/>
<path id="Vector_28" d="M93 190.149C95.2091 190.149 97 188.359 97 186.149C97 183.94 95.2091 182.149 93 182.149C90.7909 182.149 89 183.94 89 186.149C89 188.359 90.7909 190.149 93 190.149Z" fill="var(--fill-0, #7700EE)"/>
<path id="Vector_29" d="M75.5625 188.021C77.7716 188.021 79.5625 186.23 79.5625 184.021C79.5625 181.811 77.7716 180.021 75.5625 180.021C73.3534 180.021 71.5625 181.811 71.5625 184.021C71.5625 186.23 73.3534 188.021 75.5625 188.021Z" fill="var(--fill-0, #7700EE)"/>
<path id="Vector_30" d="M58.8516 182.591C61.0607 182.591 62.8516 180.8 62.8516 178.591C62.8516 176.382 61.0607 174.591 58.8516 174.591C56.6424 174.591 54.8516 176.382 54.8516 178.591C54.8516 180.8 56.6424 182.591 58.8516 182.591Z" fill="var(--fill-0, #7700EE)"/>
<path id="Vector_31" d="M4 151.329C6.20914 151.329 8 149.538 8 147.329C8 145.12 6.20914 143.329 4 143.329C1.79086 143.329 0 145.12 0 147.329C0 149.538 1.79086 151.329 4 151.329Z" fill="var(--fill-0, #7700EE)"/>
<path id="Vector_32" d="M9.01172 166.37C11.2209 166.37 13.0117 164.579 13.0117 162.37C13.0117 160.161 11.2209 158.37 9.01172 158.37C6.80258 158.37 5.01172 160.161 5.01172 162.37C5.01172 164.579 6.80258 166.37 9.01172 166.37Z" fill="var(--fill-0, #7700EE)"/>
<path id="Vector_33" d="M23.9414 171.851C26.1505 171.851 27.9414 170.06 27.9414 167.851C27.9414 165.641 26.1505 163.851 23.9414 163.851C21.7323 163.851 19.9414 165.641 19.9414 167.851C19.9414 170.06 21.7323 171.851 23.9414 171.851Z" fill="var(--fill-0, #7700EE)"/>
<path id="Vector_34" d="M37.5508 163.64C39.7599 163.64 41.5508 161.849 41.5508 159.64C41.5508 157.431 39.7599 155.64 37.5508 155.64C35.3416 155.64 33.5508 157.431 33.5508 159.64C33.5508 161.849 35.3416 163.64 37.5508 163.64Z" fill="var(--fill-0, #7700EE)"/>
<path id="Vector_35" d="M39.5898 147.921C41.799 147.921 43.5898 146.13 43.5898 143.921C43.5898 141.712 41.799 139.921 39.5898 139.921C37.3807 139.921 35.5898 141.712 35.5898 143.921C35.5898 146.13 37.3807 147.921 39.5898 147.921Z" fill="var(--fill-0, #7700EE)"/>
<path id="Vector_36" d="M28.5312 136.53C30.7404 136.53 32.5312 134.739 32.5312 132.53C32.5312 130.321 30.7404 128.53 28.5312 128.53C26.3221 128.53 24.5312 130.321 24.5312 132.53C24.5312 134.739 26.3221 136.53 28.5312 136.53Z" fill="var(--fill-0, #7700EE)"/>
<path id="Vector_37" d="M113.852 53.251C116.061 53.251 117.852 51.4601 117.852 49.251C117.852 47.0418 116.061 45.251 113.852 45.251C111.642 45.251 109.852 47.0418 109.852 49.251C109.852 51.4601 111.642 53.251 113.852 53.251Z" fill="var(--fill-0, #7700EE)"/>
<path id="Vector_38" d="M106.949 67.5205C109.158 67.5205 110.949 65.7296 110.949 63.5205C110.949 61.3114 109.158 59.5205 106.949 59.5205C104.74 59.5205 102.949 61.3114 102.949 63.5205C102.949 65.7296 104.74 67.5205 106.949 67.5205Z" fill="var(--fill-0, #7700EE)"/>
<path id="Vector_39" d="M91.4414 71.0498C93.6505 71.0498 95.4414 69.2589 95.4414 67.0498C95.4414 64.8407 93.6505 63.0498 91.4414 63.0498C89.2323 63.0498 87.4414 64.8407 87.4414 67.0498C87.4414 69.2589 89.2323 71.0498 91.4414 71.0498Z" fill="var(--fill-0, #7700EE)"/>
<path id="Vector_40" d="M79 61.1709C81.2091 61.1709 83 59.38 83 57.1709C83 54.9618 81.2091 53.1709 79 53.1709C76.7909 53.1709 75 54.9618 75 57.1709C75 59.38 76.7909 61.1709 79 61.1709Z" fill="var(--fill-0, #7700EE)"/>
<path id="Vector_41" d="M79 45.3193C81.2091 45.3193 83 43.5285 83 41.3193C83 39.1102 81.2091 37.3193 79 37.3193C76.7909 37.3193 75 39.1102 75 41.3193C75 43.5285 76.7909 45.3193 79 45.3193Z" fill="var(--fill-0, #7700EE)"/>
<path id="Vector_42" d="M91.4414 35.4404C93.6505 35.4404 95.4414 33.6496 95.4414 31.4404C95.4414 29.2313 93.6505 27.4404 91.4414 27.4404C89.2323 27.4404 87.4414 29.2313 87.4414 31.4404C87.4414 33.6496 89.2323 35.4404 91.4414 35.4404Z" fill="var(--fill-0, #7700EE)"/>
<path id="Vector_43" d="M106.949 38.9697C109.158 38.9697 110.949 37.1789 110.949 34.9697C110.949 32.7606 109.158 30.9697 106.949 30.9697C104.74 30.9697 102.949 32.7606 102.949 34.9697C102.949 37.1789 104.74 38.9697 106.949 38.9697Z" fill="var(--fill-0, #7700EE)"/>
<path id="Vector_44" d="M106.449 143.239C108.658 143.239 110.449 141.448 110.449 139.239C110.449 137.03 108.658 135.239 106.449 135.239C104.24 135.239 102.449 137.03 102.449 139.239C102.449 141.448 104.24 143.239 106.449 143.239Z" fill="var(--fill-0, #7700EE)"/>
<path id="Vector_45" d="M88.7422 144.05C90.9513 144.05 92.7422 142.259 92.7422 140.05C92.7422 137.841 90.9513 136.05 88.7422 136.05C86.533 136.05 84.7422 137.841 84.7422 140.05C84.7422 142.259 86.533 144.05 88.7422 144.05Z" fill="var(--fill-0, #7700EE)"/>
<path id="Vector_46" d="M72.0508 138.11C74.2599 138.11 76.0508 136.319 76.0508 134.11C76.0508 131.901 74.2599 130.11 72.0508 130.11C69.8416 130.11 68.0508 131.901 68.0508 134.11C68.0508 136.319 69.8416 138.11 72.0508 138.11Z" fill="var(--fill-0, #7700EE)"/>
<path id="Vector_47" d="M58.8711 126.3C61.0802 126.3 62.8711 124.509 62.8711 122.3C62.8711 120.091 61.0802 118.3 58.8711 118.3C56.662 118.3 54.8711 120.091 54.8711 122.3C54.8711 124.509 56.662 126.3 58.8711 126.3Z" fill="var(--fill-0, #7700EE)"/>
<path id="Vector_48" d="M51.1484 110.399C53.3576 110.399 55.1484 108.609 55.1484 106.399C55.1484 104.19 53.3576 102.399 51.1484 102.399C48.9393 102.399 47.1484 104.19 47.1484 106.399C47.1484 108.609 48.9393 110.399 51.1484 110.399Z" fill="var(--fill-0, #7700EE)"/>
<path id="Vector_49" d="M50.0898 92.7803C52.299 92.7803 54.0898 90.9894 54.0898 88.7803C54.0898 86.5711 52.299 84.7803 50.0898 84.7803C47.8807 84.7803 46.0898 86.5711 46.0898 88.7803C46.0898 90.9894 47.8807 92.7803 50.0898 92.7803Z" fill="var(--fill-0, #7700EE)"/>
<path id="Vector_50" d="M55.8203 76.0693C58.0295 76.0693 59.8203 74.2785 59.8203 72.0693C59.8203 69.8602 58.0295 68.0693 55.8203 68.0693C53.6112 68.0693 51.8203 69.8602 51.8203 72.0693C51.8203 74.2785 53.6112 76.0693 55.8203 76.0693Z" fill="var(--fill-0, #7700EE)"/>
<path id="Vector_51" d="M135.191 121.761C137.401 121.761 139.191 119.97 139.191 117.761C139.191 115.552 137.401 113.761 135.191 113.761C132.982 113.761 131.191 115.552 131.191 117.761C131.191 119.97 132.982 121.761 135.191 121.761Z" fill="var(--fill-0, #7700EE)"/>
<path id="Vector_52" d="M141.34 136.171C143.549 136.171 145.34 134.38 145.34 132.171C145.34 129.962 143.549 128.171 141.34 128.171C139.131 128.171 137.34 129.962 137.34 132.171C137.34 134.38 139.131 136.171 141.34 136.171Z" fill="var(--fill-0, #7700EE)"/>
<path id="Vector_53" d="M134.02 150.021C136.229 150.021 138.02 148.23 138.02 146.021C138.02 143.811 136.229 142.021 134.02 142.021C131.81 142.021 130.02 143.811 130.02 146.021C130.02 148.23 131.81 150.021 134.02 150.021Z" fill="var(--fill-0, #7700EE)"/>
<path id="Vector_54" d="M118.621 153.14C120.83 153.14 122.621 151.349 122.621 149.14C122.621 146.931 120.83 145.14 118.621 145.14C116.412 145.14 114.621 146.931 114.621 149.14C114.621 151.349 116.412 153.14 118.621 153.14Z" fill="var(--fill-0, #7700EE)"/>
<path id="Vector_55" d="M119.609 117.47C121.819 117.47 123.609 115.679 123.609 113.47C123.609 111.261 121.819 109.47 119.609 109.47C117.4 109.47 115.609 111.261 115.609 113.47C115.609 115.679 117.4 117.47 119.609 117.47Z" fill="var(--fill-0, #7700EE)"/>
<path id="Vector_56" d="M106.672 127.13C108.881 127.13 110.672 125.339 110.672 123.13C110.672 120.921 108.881 119.13 106.672 119.13C104.463 119.13 102.672 120.921 102.672 123.13C102.672 125.339 104.463 127.13 106.672 127.13Z" fill="var(--fill-0, #7700EE)"/>
<path id="Vector_57" d="M140.66 106.86C142.869 106.86 144.66 105.069 144.66 102.86C144.66 100.651 142.869 98.8604 140.66 98.8604C138.451 98.8604 136.66 100.651 136.66 102.86C136.66 105.069 138.451 106.86 140.66 106.86Z" fill="var(--fill-0, #7700EE)"/>
<path id="Vector_58" d="M140.672 90.9795C142.881 90.9795 144.672 89.1886 144.672 86.9795C144.672 84.7704 142.881 82.9795 140.672 82.9795C138.463 82.9795 136.672 84.7704 136.672 86.9795C136.672 89.1886 138.463 90.9795 140.672 90.9795Z" fill="var(--fill-0, #7700EE)"/>
<path id="Vector_59" d="M135.219 76.0693C137.428 76.0693 139.219 74.2785 139.219 72.0693C139.219 69.8602 137.428 68.0693 135.219 68.0693C133.01 68.0693 131.219 69.8602 131.219 72.0693C131.219 74.2785 133.01 76.0693 135.219 76.0693Z" fill="var(--fill-0, #7700EE)"/>
</g>
</svg>
