<svg preserveAspectRatio="none" width="100%" height="100%" overflow="visible" style="display: block;" viewBox="0 0 40 40" fill="none" xmlns="http://www.w3.org/2000/svg">
<g id="arrow-shrink">
<path id="Vector" d="M23.7132 29.9912C23.6957 28.7412 22.8371 24.602 23.7146 23.7245C24.5922 22.8472 28.7301 23.7078 29.9796 23.7258M34.9963 34.9968L24.3549 24.3577" stroke="var(--stroke-0, black)" stroke-width="2" vector-effect="non-scaling-stroke" stroke-linecap="round" stroke-linejoin="round"/>
<path id="Vector_2" d="M16.283 29.9903C16.3005 28.7405 17.1591 24.6013 16.2817 23.7236C15.4041 22.8463 11.2662 23.7071 10.0167 23.725M5 34.996L15.6413 24.357" stroke="var(--stroke-0, black)" stroke-width="2" vector-effect="non-scaling-stroke" stroke-linecap="round" stroke-linejoin="round"/>
<path id="Vector_3" d="M10.0095 16.2689C11.2591 16.2848 15.3983 17.1387 16.2745 16.2598C17.1506 15.3809 16.2848 11.243 16.2654 9.9932M15.6253 15.6124L5 5.00407" stroke="var(--stroke-0, black)" stroke-width="2" vector-effect="non-scaling-stroke" stroke-linecap="round" stroke-linejoin="round"/>
<path id="Vector_4" d="M29.9844 16.269C28.7349 16.2849 24.5958 17.1387 23.7194 16.2598C22.8434 15.381 23.7091 11.2431 23.7286 9.99328M24.3686 15.6125L34.9939 5.00415" stroke="var(--stroke-0, black)" stroke-width="2" vector-effect="non-scaling-stroke" stroke-linecap="round" stroke-linejoin="round"/>
</g>
</svg>
