<svg preserveAspectRatio="none" width="100%" height="100%" overflow="visible" style="display: block;" viewBox="0 0 40 40" fill="none" xmlns="http://www.w3.org/2000/svg">
<g id="ai-brain-04">
<path id="Vector" d="M11.6667 7.5C8.90525 7.5 6.66667 9.73858 6.66667 12.5C6.66667 13.4478 6.93037 14.3339 7.3884 15.0892C5.07878 15.5309 3.33333 17.5617 3.33333 20C3.33333 22.4383 5.07878 24.469 7.3884 24.9108M11.6667 7.5C11.6667 5.19882 13.5321 3.33333 15.8333 3.33333C18.1345 3.33333 20 5.19882 20 7.5V32.5C20 34.8012 18.1345 36.6667 15.8333 36.6667C13.5321 36.6667 11.6667 34.8012 11.6667 32.5C8.90525 32.5 6.66667 30.2615 6.66667 27.5C6.66667 26.5522 6.93037 25.666 7.3884 24.9108M11.6667 7.5C11.6667 8.86318 12.3213 10.0735 13.3333 10.8336M7.3884 24.9108C7.98247 23.9313 8.90345 23.172 10 22.7845" stroke="var(--stroke-0, black)" stroke-width="2" stroke-linecap="round" stroke-linejoin="round"/>
<path id="Vector_2" d="M32.0833 7.91627L28.3333 11.6663H25M30.8333 7.91627C30.8333 8.60662 31.393 9.16627 32.0833 9.16627C32.7737 9.16627 33.3333 8.60662 33.3333 7.91627C33.3333 7.2259 32.7737 6.66627 32.0833 6.66627C31.393 6.66627 30.8333 7.2259 30.8333 7.91627Z" stroke="var(--stroke-0, black)" stroke-width="2" stroke-linecap="round" stroke-linejoin="round"/>
<path id="Vector_3" d="M32.0833 32.083L28.3333 28.333H25M30.8333 32.083C30.8333 31.3925 31.393 30.833 32.0833 30.833C32.7737 30.833 33.3333 31.3925 33.3333 32.083C33.3333 32.7733 32.7737 33.333 32.0833 33.333C31.393 33.333 30.8333 32.7733 30.8333 32.083Z" stroke="var(--stroke-0, black)" stroke-width="2" stroke-linecap="round" stroke-linejoin="round"/>
<path id="Vector_4" d="M32.0833 19.9997H25M30.8333 19.9997C30.8333 20.69 31.393 21.2497 32.0833 21.2497C32.7737 21.2497 33.3333 20.69 33.3333 19.9997C33.3333 19.3092 32.7737 18.7497 32.0833 18.7497C31.393 18.7497 30.8333 19.3092 30.8333 19.9997Z" stroke="var(--stroke-0, black)" stroke-width="2" stroke-linecap="round" stroke-linejoin="round"/>
</g>
</svg>
