<svg preserveAspectRatio="none" width="100%" height="100%" overflow="visible" style="display: block;" viewBox="0 0 122.581 23.7628" fill="none" xmlns="http://www.w3.org/2000/svg">
<g id="Group 2117761313">
<path id="Vector" fill-rule="evenodd" clip-rule="evenodd" d="M4.69275 1.41222H12.0231L16.5251 16.6478H16.5877L19.6715 1.41222H25.212L20.5564 23.3826H13.251L8.65766 8.18005H8.59547L5.54045 23.3826H0L4.69275 1.41222ZM61.5908 6.38626C60.4576 5.85286 58.9151 5.38166 56.745 5.38166C54.4173 5.38166 52.528 5.72513 52.528 7.49026C52.528 10.6033 61.0574 9.44128 61.0574 16.1147C61.0574 22.1881 55.4216 23.7628 50.324 23.7628C48.0585 23.7628 45.4452 23.2257 43.5274 22.6259L44.9121 18.1573C46.0736 18.9143 48.4055 19.4177 50.324 19.4177C52.152 19.4177 55.0124 19.0709 55.0124 16.805C55.0124 13.2785 46.4831 14.601 46.4831 8.40383C46.4831 2.73565 51.457 1.03623 56.2738 1.03623C58.9815 1.03623 61.5286 1.32137 63.0089 2.01166L61.5908 6.38626ZM27.3822 1.41222H33.2655L31.5377 9.81744H38.4913L40.2241 1.41222H46.107L41.5428 23.3826H35.6599L37.6106 13.9729H30.6525L28.7013 23.3826H22.8176L27.3822 1.41222Z" fill="var(--fill-0, black)"/>
<g id="Group 2117761350">
<path id="Vector_2" d="M77.0295 0.105784V7.84755H75.7821L72.1344 2.5742H72.0701V7.84755H70.6677V0.105784H71.9227L75.5667 5.38285H75.6347V0.105784H77.0295ZM78.5577 7.84755V0.105784H79.9602V3.38321H83.5474V0.105784H84.9536V7.84755H83.5474V4.55881H79.9602V7.84755H78.5577ZM90.6861 2.23396C90.6508 1.90384 90.5022 1.6469 90.2401 1.46287C89.9805 1.27885 89.6428 1.18691 89.2269 1.18691C88.9346 1.18691 88.6839 1.23108 88.4748 1.3193C88.2656 1.40739 88.1055 1.52714 87.9947 1.6783C87.8839 1.82959 87.8272 2.00217 87.8246 2.19617C87.8246 2.35758 87.8611 2.49742 87.9343 2.61585C88.0099 2.73427 88.1119 2.83513 88.2404 2.9183C88.369 2.99893 88.5114 3.06693 88.6676 3.12241C88.8238 3.17777 88.9813 3.22447 89.1401 3.26226L89.8659 3.44362C90.1582 3.51175 90.4391 3.60369 90.7088 3.71959C90.9809 3.83549 91.2242 3.98172 91.4384 4.15816C91.6552 4.33447 91.8264 4.5475 91.9524 4.79699C92.0784 5.04648 92.1415 5.33881 92.1415 5.67399C92.1415 6.1276 92.0256 6.52705 91.7937 6.87221C91.5619 7.21497 91.2267 7.48336 90.7881 7.67749C90.3522 7.86897 89.8243 7.96477 89.2043 7.96477C88.602 7.96477 88.0792 7.8715 87.6356 7.68495C87.1946 7.49853 86.8493 7.22628 86.5998 6.86848C86.3529 6.51068 86.2193 6.07464 86.1992 5.56049H87.5789C87.5991 5.83021 87.6823 6.05455 87.8284 6.23338C87.9746 6.41235 88.1647 6.54594 88.3992 6.63416C88.636 6.72238 88.9007 6.76642 89.193 6.76642C89.4979 6.76642 89.765 6.72105 89.9943 6.6303C90.2262 6.53716 90.4077 6.40862 90.5386 6.24482C90.6697 6.0785 90.7365 5.88436 90.739 5.66268C90.7365 5.46096 90.6773 5.29464 90.5614 5.1637C90.4455 5.03011 90.2829 4.91914 90.0737 4.83105C89.8671 4.7403 89.6252 4.65967 89.348 4.58901L88.4672 4.36228C87.8297 4.19848 87.3257 3.95018 86.9552 3.61753C86.5872 3.28235 86.4033 2.83753 86.4033 2.2832C86.4033 1.82706 86.5268 1.42761 86.7737 1.08485C87.0232 0.742082 87.3621 0.476226 87.7906 0.28728C88.219 0.0956715 88.704 0 89.2458 0C89.7952 0 90.2767 0.0956715 90.6899 0.28728C91.1057 0.476226 91.432 0.739554 91.669 1.07726C91.9058 1.41244 92.0281 1.79806 92.0356 2.23396H90.6861Z" fill="var(--fill-0, black)"/>
<path id="Vector_3" d="M77.5195 14.6929H76.1057C76.0654 14.461 75.991 14.2557 75.8827 14.0767C75.7743 13.8954 75.6395 13.7416 75.4782 13.6156C75.3169 13.4895 75.1329 13.3951 74.9263 13.3321C74.7222 13.2665 74.5017 13.2338 74.2647 13.2338C73.844 13.2338 73.471 13.3396 73.1458 13.5513C72.8208 13.7605 72.5662 14.068 72.3823 14.4737C72.1983 14.8768 72.1064 15.3696 72.1064 15.9517C72.1064 16.544 72.1983 17.0429 72.3823 17.4486C72.5687 17.8518 72.8233 18.1568 73.1458 18.3634C73.471 18.5676 73.8427 18.6696 74.261 18.6696C74.4928 18.6696 74.7095 18.6394 74.9111 18.5789C75.1152 18.5159 75.2981 18.424 75.4593 18.303C75.6231 18.1819 75.7604 18.0333 75.8713 17.8569C75.9848 17.6806 76.0629 17.4788 76.1057 17.2521L77.5195 17.2597C77.4665 17.6276 77.3518 17.9728 77.1754 18.2954C77.0016 18.618 76.7736 18.9027 76.4912 19.1497C76.209 19.3941 75.8789 19.5857 75.5008 19.7243C75.1228 19.8604 74.7033 19.9284 74.2421 19.9284C73.5616 19.9284 72.9543 19.771 72.4201 19.4559C71.8859 19.1409 71.465 18.686 71.1575 18.0913C70.8501 17.4965 70.6963 16.7833 70.6963 15.9517C70.6963 15.1175 70.8513 14.4043 71.1614 13.8122C71.4713 13.2174 71.8933 12.7625 72.4277 12.4475C72.9619 12.1325 73.5667 11.975 74.2421 11.975C74.6731 11.975 75.0737 12.0355 75.4442 12.1564C75.8146 12.2774 76.1447 12.4551 76.4345 12.6894C76.7243 12.9212 76.9625 13.2061 77.149 13.5437C77.338 13.8789 77.4615 14.262 77.5195 14.6929ZM81.2759 19.936C80.7089 19.936 80.2175 19.8113 79.8017 19.5618C79.3859 19.3123 79.0632 18.9633 78.834 18.5146C78.6071 18.066 78.4937 17.5419 78.4937 16.9421C78.4937 16.3424 78.6071 15.8169 78.834 15.3658C79.0632 14.9148 79.3859 14.5644 79.8017 14.3149C80.2175 14.0654 80.7089 13.9406 81.2759 13.9406C81.843 13.9406 82.3344 14.0654 82.7502 14.3149C83.166 14.5644 83.4873 14.9148 83.7141 15.3658C83.9435 15.8169 84.058 16.3424 84.058 16.9421C84.058 17.5419 83.9435 18.066 83.7141 18.5146C83.4873 18.9633 83.166 19.3123 82.7502 19.5618C82.3344 19.8113 81.843 19.936 81.2759 19.936ZM81.2835 18.8398C81.591 18.8398 81.8479 18.7553 82.0545 18.5864C82.2612 18.4151 82.415 18.1858 82.5157 17.8985C82.6191 17.6112 82.6707 17.2911 82.6707 16.9384C82.6707 16.5829 82.6191 16.2617 82.5157 15.9745C82.415 15.6847 82.2612 15.4541 82.0545 15.2827C81.8479 15.1113 81.591 15.0256 81.2835 15.0256C80.9685 15.0256 80.7064 15.1113 80.4972 15.2827C80.2906 15.4541 80.1356 15.6847 80.0323 15.9745C79.9315 16.2617 79.881 16.5829 79.881 16.9384C79.881 17.2911 79.9315 17.6112 80.0323 17.8985C80.1356 18.1858 80.2906 18.4151 80.4972 18.5864C80.7064 18.7553 80.9685 18.8398 81.2835 18.8398ZM85.2195 19.8226V14.0163H86.5275V15.0028H86.5955C86.7164 14.6702 86.9168 14.4107 87.1965 14.2242C87.4762 14.0352 87.8102 13.9406 88.1982 13.9406C88.5914 13.9406 88.9227 14.0364 89.1924 14.228C89.4645 14.417 89.6561 14.6753 89.7669 15.0028H89.8275C89.956 14.6803 90.1726 14.4232 90.4776 14.2318C90.7851 14.0378 91.1492 13.9406 91.57 13.9406C92.1043 13.9406 92.5403 14.1095 92.878 14.4472C93.2157 14.7849 93.3846 15.2776 93.3846 15.9252V19.8226H92.0123V16.1369C92.0123 15.7766 91.9165 15.5133 91.725 15.3469C91.5336 15.1781 91.2991 15.0936 91.022 15.0936C90.6918 15.0936 90.4336 15.197 90.247 15.4036C90.063 15.6077 89.9711 15.8736 89.9711 16.2012V19.8226H88.6292V16.0802C88.6292 15.7803 88.5384 15.5409 88.357 15.362C88.1781 15.1831 87.9436 15.0936 87.6538 15.0936C87.4573 15.0936 87.2783 15.144 87.1171 15.2449C86.9558 15.3431 86.8273 15.4829 86.7316 15.6644C86.6358 15.8434 86.5879 16.0526 86.5879 16.2919V19.8226H85.2195ZM94.7728 22V14.0163H96.1184V14.9765H96.1978C96.2684 14.8353 96.3679 14.6854 96.4964 14.5266C96.625 14.3654 96.7989 14.228 97.0182 14.1145C97.2374 13.9986 97.5171 13.9406 97.8574 13.9406C98.3059 13.9406 98.7104 14.0553 99.0707 14.2847C99.4336 14.5115 99.7209 14.848 99.9326 15.294C100.147 15.7375 100.254 16.2818 100.254 16.927C100.254 17.5645 100.149 18.1064 99.9401 18.5525C99.731 18.9985 99.4462 19.3388 99.0859 19.5731C98.7254 19.8074 98.3172 19.9246 97.8611 19.9246C97.5284 19.9246 97.2525 19.8692 97.0332 19.7583C96.814 19.6475 96.6376 19.5139 96.504 19.3577C96.373 19.1988 96.2709 19.049 96.1978 18.9078H96.1412V22H94.7728ZM96.1147 16.9195C96.1147 17.295 96.1676 17.6238 96.2734 17.9061C96.3819 18.1883 96.5367 18.4088 96.7385 18.5676C96.9426 18.7238 97.1895 18.802 97.4793 18.802C97.7816 18.802 98.035 18.7212 98.2391 18.56C98.4432 18.3962 98.5969 18.1732 98.7003 17.8909C98.8061 17.6062 98.859 17.2823 98.859 16.9195C98.859 16.559 98.8074 16.239 98.704 15.9593C98.6008 15.6796 98.4469 15.4603 98.2428 15.3016C98.0387 15.1428 97.7842 15.0634 97.4793 15.0634C97.187 15.0634 96.9387 15.1403 96.7346 15.294C96.5305 15.4477 96.3755 15.6632 96.2697 15.9404C96.1663 16.2176 96.1147 16.544 96.1147 16.9195ZM102.794 12.0808V19.8226H101.426V12.0808H102.794ZM104.201 19.8226V14.0163H105.57V19.8226H104.201ZM104.889 13.1922C104.673 13.1922 104.486 13.1204 104.33 12.9767C104.174 12.8306 104.095 12.6554 104.095 12.4513C104.095 12.2446 104.174 12.0695 104.33 11.9258C104.486 11.7797 104.673 11.7067 104.889 11.7067C105.108 11.7067 105.295 11.7797 105.449 11.9258C105.605 12.0695 105.683 12.2446 105.683 12.4513C105.683 12.6554 105.605 12.8306 105.449 12.9767C105.295 13.1204 105.108 13.1922 104.889 13.1922ZM108.648 19.9398C108.28 19.9398 107.948 19.8742 107.653 19.7432C107.361 19.6097 107.129 19.413 106.958 19.1536C106.789 18.894 106.705 18.5739 106.705 18.1934C106.705 17.8658 106.765 17.5949 106.886 17.3807C107.007 17.1664 107.172 16.995 107.381 16.8665C107.59 16.738 107.826 16.641 108.088 16.5755C108.353 16.5074 108.626 16.4583 108.908 16.4281C109.249 16.3927 109.525 16.3613 109.736 16.3335C109.948 16.3033 110.102 16.2579 110.197 16.1975C110.296 16.1344 110.345 16.0374 110.345 15.9063V15.8837C110.345 15.599 110.26 15.3783 110.092 15.2221C109.923 15.0659 109.68 14.9878 109.362 14.9878C109.027 14.9878 108.761 15.0609 108.564 15.207C108.37 15.3532 108.239 15.5258 108.171 15.725L106.894 15.5435C106.994 15.1906 107.161 14.8957 107.393 14.6589C107.624 14.4195 107.908 14.2405 108.243 14.1221C108.578 14.0012 108.949 13.9406 109.355 13.9406C109.634 13.9406 109.913 13.9735 110.19 14.039C110.467 14.1046 110.72 14.2129 110.95 14.364C111.179 14.5128 111.363 14.7156 111.502 14.9726C111.643 15.2297 111.713 15.5511 111.713 15.9365V19.8226H110.398V19.025H110.352C110.269 19.1863 110.152 19.3374 110.001 19.4786C109.852 19.6171 109.664 19.7293 109.438 19.815C109.213 19.8982 108.95 19.9398 108.648 19.9398ZM109.003 18.9343C109.278 18.9343 109.516 18.8801 109.717 18.7717C109.919 18.6608 110.074 18.5146 110.182 18.3332C110.293 18.1517 110.349 17.9539 110.349 17.7398V17.0556C110.306 17.0908 110.233 17.1236 110.129 17.1538C110.029 17.184 109.915 17.2105 109.789 17.2332C109.663 17.2558 109.538 17.2761 109.415 17.2936C109.291 17.3113 109.184 17.3265 109.094 17.339C108.89 17.3668 108.707 17.4121 108.545 17.4751C108.384 17.5381 108.257 17.6263 108.164 17.7398C108.07 17.8506 108.024 17.9942 108.024 18.1706C108.024 18.4227 108.116 18.6129 108.3 18.7415C108.484 18.87 108.718 18.9343 109.003 18.9343ZM114.458 16.4205V19.8226H113.089V14.0163H114.397V15.0028H114.465C114.599 14.6778 114.812 14.4195 115.104 14.228C115.399 14.0364 115.763 13.9406 116.196 13.9406C116.597 13.9406 116.946 14.0263 117.244 14.1977C117.543 14.3691 117.775 14.6174 117.939 14.9424C118.105 15.2675 118.187 15.6619 118.185 16.1256V19.8226H116.816V16.3373C116.816 15.9492 116.716 15.6455 116.514 15.4262C116.315 15.207 116.039 15.0975 115.686 15.0975C115.447 15.0975 115.234 15.1503 115.047 15.2562C114.863 15.3595 114.718 15.5094 114.613 15.7059C114.509 15.9026 114.458 16.1408 114.458 16.4205ZM122.475 14.0163V15.0747H119.137V14.0163H122.475ZM119.961 12.6252H121.33V18.0762C121.33 18.2602 121.358 18.4012 121.413 18.4996C121.471 18.5954 121.547 18.6608 121.64 18.6961C121.733 18.7314 121.836 18.7491 121.95 18.7491C122.035 18.7491 122.114 18.7427 122.184 18.7302C122.257 18.7175 122.313 18.7062 122.35 18.6961L122.581 19.7659C122.508 19.7911 122.403 19.8189 122.267 19.8491C122.134 19.8793 121.97 19.897 121.776 19.902C121.433 19.912 121.124 19.8604 120.85 19.747C120.575 19.6311 120.357 19.4521 120.196 19.2102C120.037 18.9683 119.959 18.6659 119.961 18.303V12.6252Z" fill="var(--fill-0, black)"/>
</g>
</g>
</svg>
