<svg preserveAspectRatio="none" width="100%" height="100%" overflow="visible" style="display: block;" viewBox="0 0 72.5219 23.5115" fill="none" xmlns="http://www.w3.org/2000/svg">
<g id="MDR Class IIa Compliant">
<path id="Vector" d="M54.3856 15.3929V16.4692H50.9914V15.3929H54.3856ZM51.8294 13.9783H53.2209V19.5214C53.2209 19.7085 53.2491 19.852 53.3055 19.9519C53.3644 20.0493 53.4413 20.116 53.5361 20.1518C53.6309 20.1877 53.736 20.2057 53.8513 20.2057C53.9384 20.2057 54.0179 20.1992 54.0896 20.1864C54.164 20.1736 54.2203 20.1621 54.2588 20.1518L54.4933 21.2397C54.4189 21.2653 54.3126 21.2935 54.1742 21.3243C54.0384 21.355 53.8718 21.373 53.6745 21.3781C53.326 21.3883 53.012 21.3358 52.7327 21.2205C52.4534 21.1026 52.2317 20.9206 52.0677 20.6746C51.9062 20.4286 51.8268 20.1211 51.8294 19.7521V13.9783Z" fill="var(--fill-0, black)"/>
<path id="Vector_2" d="M46.0153 17.8375V21.2972H44.6237V15.3927H45.9538V16.396H46.0229C46.1588 16.0654 46.3753 15.8027 46.6726 15.608C46.9724 15.4132 47.3427 15.3158 47.7835 15.3158C48.191 15.3158 48.5459 15.403 48.8483 15.5772C49.1533 15.7515 49.389 16.0039 49.5556 16.3345C49.7247 16.6651 49.808 17.0662 49.8055 17.5377V21.2972H48.4139V17.753C48.4139 17.3583 48.3114 17.0495 48.1064 16.8265C47.904 16.6036 47.6233 16.4921 47.2646 16.4921C47.0211 16.4921 46.8046 16.5459 46.6149 16.6536C46.4279 16.7586 46.2805 16.9111 46.1729 17.111C46.0678 17.3109 46.0153 17.5531 46.0153 17.8375Z" fill="var(--fill-0, black)"/>
<path id="Vector_3" d="M39.8924 21.4163C39.5183 21.4163 39.1813 21.3497 38.8815 21.2165C38.5842 21.0806 38.3484 20.8807 38.1742 20.6168C38.0025 20.3528 37.9166 20.0274 37.9166 19.6404C37.9166 19.3072 37.9781 19.0318 38.1011 18.8139C38.2241 18.5961 38.392 18.4218 38.6047 18.2911C38.8174 18.1604 39.057 18.0618 39.3235 17.9951C39.5926 17.9259 39.8707 17.876 40.1577 17.8452C40.5036 17.8093 40.7843 17.7773 40.9995 17.7491C41.2148 17.7184 41.3711 17.6722 41.4685 17.6107C41.5684 17.5467 41.6184 17.448 41.6184 17.3147V17.2917C41.6184 17.0021 41.5326 16.7778 41.3609 16.619C41.1892 16.4601 40.9419 16.3806 40.619 16.3806C40.2781 16.3806 40.0078 16.4549 39.8079 16.6036C39.6106 16.7522 39.4773 16.9278 39.4081 17.1302L38.1088 16.9457C38.2113 16.5869 38.3805 16.2871 38.6162 16.0462C38.852 15.8027 39.1403 15.6208 39.4811 15.5003C39.822 15.3773 40.1987 15.3158 40.6113 15.3158C40.8957 15.3158 41.1789 15.3491 41.4608 15.4158C41.7427 15.4824 42.0003 15.5926 42.2335 15.7464C42.4667 15.8976 42.6537 16.1039 42.7947 16.3653C42.9382 16.6266 43.0099 16.9534 43.0099 17.3455V21.2972H41.6722V20.4861H41.6261C41.5415 20.6501 41.4224 20.8039 41.2686 20.9474C41.1174 21.0883 40.9265 21.2024 40.6958 21.2895C40.4678 21.3741 40.2 21.4163 39.8924 21.4163ZM40.2538 20.3938C40.5331 20.3938 40.7753 20.3387 40.9803 20.2285C41.1853 20.1158 41.3429 19.9671 41.4531 19.7826C41.5659 19.5981 41.6223 19.3969 41.6223 19.1791V18.4833C41.5787 18.5192 41.5044 18.5525 41.3993 18.5833C41.2968 18.614 41.1815 18.6409 41.0533 18.664C40.9252 18.6871 40.7984 18.7076 40.6728 18.7255C40.5472 18.7434 40.4383 18.7588 40.346 18.7716C40.1385 18.7998 39.9527 18.846 39.7887 18.91C39.6246 18.9741 39.4952 19.0638 39.4004 19.1791C39.3056 19.2919 39.2582 19.4379 39.2582 19.6173C39.2582 19.8736 39.3517 20.0671 39.5388 20.1978C39.7259 20.3285 39.9642 20.3938 40.2538 20.3938Z" fill="var(--fill-0, black)"/>
<path id="Vector_4" d="M35.1549 21.2975V15.393H36.5464V21.2975H35.1549ZM35.8545 14.555C35.6341 14.555 35.4445 14.482 35.2856 14.3359C35.1267 14.1873 35.0473 14.0091 35.0473 13.8016C35.0473 13.5914 35.1267 13.4133 35.2856 13.2672C35.4445 13.1186 35.6341 13.0443 35.8545 13.0443C36.0775 13.0443 36.2671 13.1186 36.4234 13.2672C36.5823 13.4133 36.6617 13.5914 36.6617 13.8016C36.6617 14.0091 36.5823 14.1873 36.4234 14.3359C36.2671 14.482 36.0775 14.555 35.8545 14.555Z" fill="var(--fill-0, black)"/>
<path id="Vector_5" d="M33.5051 13.4246V21.2973H32.1136V13.4246H33.5051Z" fill="var(--fill-0, black)"/>
<path id="Vector_6" d="M25.1313 23.5114V15.3927H26.4998V16.3691H26.5805C26.6523 16.2256 26.7535 16.0731 26.8842 15.9117C27.0149 15.7476 27.1917 15.608 27.4147 15.4926C27.6376 15.3748 27.9221 15.3158 28.268 15.3158C28.7242 15.3158 29.1355 15.4324 29.502 15.6656C29.871 15.8963 30.1631 16.2384 30.3784 16.692C30.5962 17.143 30.7051 17.6966 30.7051 18.3526C30.7051 19.001 30.5988 19.552 30.3861 20.0056C30.1734 20.4592 29.8838 20.8051 29.5173 21.0435C29.1509 21.2818 28.7357 21.401 28.2719 21.401C27.9336 21.401 27.653 21.3446 27.43 21.2318C27.2071 21.1191 27.0277 20.9833 26.8919 20.8244C26.7586 20.6629 26.6548 20.5104 26.5805 20.3669H26.5229V23.5114H25.1313ZM26.4959 18.3449C26.4959 18.7268 26.5498 19.0612 26.6574 19.3482C26.7676 19.6353 26.9252 19.8595 27.1302 20.021C27.3378 20.1798 27.5889 20.2593 27.8836 20.2593C28.1912 20.2593 28.4487 20.1773 28.6563 20.0133C28.8639 19.8467 29.0202 19.6199 29.1253 19.3329C29.2329 19.0433 29.2867 18.714 29.2867 18.3449C29.2867 17.9785 29.2342 17.653 29.1291 17.3686C29.024 17.0841 28.8677 16.8611 28.6601 16.6997C28.4526 16.5382 28.1937 16.4575 27.8836 16.4575C27.5864 16.4575 27.3339 16.5357 27.1264 16.692C26.9188 16.8483 26.7612 17.0674 26.6535 17.3493C26.5485 17.6312 26.4959 17.9631 26.4959 18.3449Z" fill="var(--fill-0, black)"/>
<path id="Vector_7" d="M15.2011 21.2972V15.3927H16.5311V16.396H16.6003C16.7233 16.0577 16.9271 15.7938 17.2115 15.6041C17.496 15.4119 17.8355 15.3158 18.2302 15.3158C18.63 15.3158 18.9669 15.4132 19.2412 15.608C19.5179 15.8002 19.7127 16.0629 19.8254 16.396H19.8869C20.0176 16.068 20.238 15.8066 20.5481 15.6118C20.8608 15.4145 21.2311 15.3158 21.659 15.3158C22.2023 15.3158 22.6457 15.4875 22.9891 15.8309C23.3325 16.1743 23.5042 16.6753 23.5042 17.334V21.2972H22.1088V17.5492C22.1088 17.1828 22.0114 16.915 21.8166 16.7458C21.6219 16.5741 21.3836 16.4883 21.1017 16.4883C20.7659 16.4883 20.5033 16.5933 20.3136 16.8035C20.1266 17.0111 20.033 17.2814 20.033 17.6146V21.2972H18.6684V17.4916C18.6684 17.1866 18.5761 16.9431 18.3916 16.7612C18.2097 16.5792 17.9713 16.4883 17.6766 16.4883C17.4768 16.4883 17.2948 16.5395 17.1308 16.642C16.9668 16.742 16.8361 16.8842 16.7387 17.0687C16.6413 17.2507 16.5926 17.4634 16.5926 17.7068V21.2972H15.2011Z" fill="var(--fill-0, black)"/>
<path id="Vector_8" d="M10.9766 21.4125C10.4 21.4125 9.90025 21.2857 9.47741 21.0319C9.05457 20.7782 8.72654 20.4233 8.49334 19.9671C8.2627 19.511 8.14738 18.9779 8.14738 18.368C8.14738 17.7581 8.2627 17.2238 8.49334 16.765C8.72654 16.3063 9.05457 15.9501 9.47741 15.6964C9.90025 15.4427 10.4 15.3158 10.9766 15.3158C11.5532 15.3158 12.0529 15.4427 12.4757 15.6964C12.8986 15.9501 13.2253 16.3063 13.456 16.765C13.6892 17.2238 13.8058 17.7581 13.8058 18.368C13.8058 18.9779 13.6892 19.511 13.456 19.9671C13.2253 20.4233 12.8986 20.7782 12.4757 21.0319C12.0529 21.2857 11.5532 21.4125 10.9766 21.4125ZM10.9843 20.2977C11.2969 20.2977 11.5583 20.2119 11.7684 20.0402C11.9786 19.8659 12.1349 19.6327 12.2374 19.3406C12.3425 19.0484 12.395 18.7229 12.395 18.3642C12.395 18.0028 12.3425 17.6761 12.2374 17.3839C12.1349 17.0892 11.9786 16.8547 11.7684 16.6805C11.5583 16.5062 11.2969 16.4191 10.9843 16.4191C10.6639 16.4191 10.3974 16.5062 10.1847 16.6805C9.97457 16.8547 9.81696 17.0892 9.71189 17.3839C9.60939 17.6761 9.55813 18.0028 9.55813 18.3642C9.55813 18.7229 9.60939 19.0484 9.71189 19.3406C9.81696 19.6327 9.97457 19.8659 10.1847 20.0402C10.3974 20.2119 10.6639 20.2977 10.9843 20.2977Z" fill="var(--fill-0, black)"/>
<path id="Vector_9" d="M6.93868 16.0811H5.50102C5.46002 15.8453 5.38442 15.6365 5.27422 15.4545C5.16403 15.27 5.02692 15.1137 4.86291 14.9855C4.6989 14.8574 4.51183 14.7613 4.30169 14.6972C4.09411 14.6306 3.86988 14.5973 3.62898 14.5973C3.20102 14.5973 2.82174 14.7049 2.49115 14.9202C2.16057 15.1329 1.90174 15.4455 1.71466 15.8581C1.52759 16.2682 1.43405 16.7692 1.43405 17.3612C1.43405 17.9634 1.52759 18.4708 1.71466 18.8834C1.9043 19.2934 2.16313 19.6035 2.49115 19.8137C2.82174 20.0212 3.19973 20.125 3.62514 20.125C3.86091 20.125 4.0813 20.0943 4.28631 20.0328C4.49389 19.9687 4.67968 19.8752 4.84369 19.7522C5.01027 19.6292 5.14993 19.478 5.26269 19.2986C5.37801 19.1192 5.45745 18.9142 5.50102 18.6835L6.93868 18.6912C6.88487 19.0654 6.76826 19.4164 6.58888 19.7445C6.41205 20.0725 6.18013 20.3621 5.89311 20.6132C5.60609 20.8618 5.27038 21.0566 4.88598 21.1975C4.50158 21.3359 4.07489 21.4051 3.60592 21.4051C2.914 21.4051 2.29639 21.2449 1.7531 20.9246C1.20981 20.6043 0.781847 20.1417 0.4692 19.5369C0.156553 18.9321 0.000229958 18.2068 0.000229958 17.3612C0.000229958 16.5129 0.157835 15.7877 0.473044 15.1854C0.788254 14.5806 1.2175 14.1181 1.76079 13.7977C2.30408 13.4774 2.91912 13.3172 3.60592 13.3172C4.04414 13.3172 4.4516 13.3787 4.82832 13.5017C5.20503 13.6247 5.54074 13.8054 5.83545 14.0437C6.13016 14.2795 6.37233 14.5691 6.56197 14.9125C6.75417 15.2533 6.87974 15.6429 6.93868 16.0811Z" fill="var(--fill-0, black)"/>
<path id="Vector_10" d="M69.4044 8.09937C69.0303 8.09937 68.6933 8.03274 68.3934 7.89948C68.0962 7.76365 67.8604 7.56376 67.6861 7.2998C67.5144 7.03584 67.4286 6.71038 67.4286 6.32341C67.4286 5.99026 67.4901 5.71477 67.6131 5.49694C67.7361 5.27911 67.904 5.10484 68.1167 4.97415C68.3294 4.84345 68.569 4.74478 68.8355 4.67815C69.1046 4.60896 69.3826 4.55899 69.6697 4.52824C70.0156 4.49236 70.2962 4.46032 70.5115 4.43213C70.7268 4.40138 70.8831 4.35525 70.9805 4.29375C71.0804 4.22968 71.1304 4.13102 71.1304 3.99775V3.97469C71.1304 3.6851 71.0445 3.46087 70.8728 3.30198C70.7011 3.14309 70.4538 3.06365 70.1309 3.06365C69.7901 3.06365 69.5197 3.13797 69.3198 3.2866C69.1225 3.43524 68.9893 3.61079 68.9201 3.81324L67.6208 3.62872C67.7233 3.26994 67.8924 2.97011 68.1282 2.72921C68.364 2.48576 68.6523 2.3038 68.9931 2.18336C69.3339 2.06035 69.7107 1.99884 70.1232 1.99884C70.4077 1.99884 70.6909 2.03216 70.9728 2.09879C71.2547 2.16542 71.5122 2.27561 71.7454 2.42938C71.9786 2.58058 72.1657 2.78688 72.3066 3.04827C72.4502 3.30967 72.5219 3.63641 72.5219 4.02851V7.9802H71.1842V7.1691H71.1381C71.0535 7.33312 70.9343 7.48688 70.7806 7.63039C70.6294 7.77134 70.4385 7.88538 70.2078 7.97251C69.9797 8.05708 69.7119 8.09937 69.4044 8.09937ZM69.7658 7.07685C70.0451 7.07685 70.2873 7.02175 70.4923 6.91155C70.6973 6.79879 70.8549 6.65016 70.9651 6.46564C71.0778 6.28113 71.1342 6.07995 71.1342 5.86212V5.16635C71.0907 5.20223 71.0163 5.23554 70.9113 5.26629C70.8088 5.29705 70.6934 5.32396 70.5653 5.34702C70.4372 5.37008 70.3103 5.39059 70.1848 5.40852C70.0592 5.42646 69.9503 5.44184 69.858 5.45465C69.6504 5.48284 69.4646 5.52897 69.3006 5.59304C69.1366 5.65711 69.0072 5.7468 68.9124 5.86212C68.8176 5.97488 68.7702 6.12096 68.7702 6.30035C68.7702 6.55662 68.8637 6.7501 69.0508 6.8808C69.2378 7.0115 69.4762 7.07685 69.7658 7.07685Z" fill="var(--fill-0, black)"/>
<path id="Vector_11" d="M66.0032 0.107424V7.98006H64.5771V0.107424H66.0032Z" fill="var(--fill-0, black)"/>
<path id="Vector_12" d="M62.8194 0.107424V7.98006H61.3933V0.107424H62.8194Z" fill="var(--fill-0, black)"/>
<path id="Vector_13" d="M56.9378 3.63641L55.6693 3.7748C55.6334 3.64666 55.5706 3.52622 55.4809 3.41346C55.3938 3.3007 55.2759 3.20972 55.1273 3.14053C54.9786 3.07134 54.7967 3.03674 54.5814 3.03674C54.2918 3.03674 54.0484 3.09953 53.851 3.2251C53.6563 3.35067 53.5602 3.5134 53.5627 3.71329C53.5602 3.885 53.623 4.02466 53.7511 4.1323C53.8818 4.23993 54.0971 4.32834 54.3969 4.39754L55.404 4.6128C55.9627 4.73325 56.3778 4.92417 56.6495 5.18557C56.9237 5.44696 57.0621 5.78909 57.0646 6.21193C57.0621 6.58353 56.9532 6.91155 56.7379 7.19601C56.5252 7.47791 56.2292 7.6983 55.8499 7.85719C55.4707 8.01608 55.035 8.09552 54.543 8.09552C53.8203 8.09552 53.2386 7.94432 52.7978 7.64192C52.357 7.33696 52.0943 6.91283 52.0098 6.36954L53.3667 6.23884C53.4282 6.50536 53.5589 6.70654 53.7588 6.84236C53.9587 6.97818 54.2188 7.0461 54.5391 7.0461C54.8697 7.0461 55.1349 6.97818 55.3348 6.84236C55.5373 6.70654 55.6385 6.53868 55.6385 6.33879C55.6385 6.16965 55.5732 6.02998 55.4425 5.91978C55.3143 5.80959 55.1144 5.72502 54.8428 5.66608L53.8357 5.45465C53.2693 5.33677 52.8503 5.13816 52.5787 4.85882C52.307 4.57693 52.1725 4.22071 52.1751 3.79018C52.1725 3.42627 52.2712 3.11106 52.471 2.84454C52.6735 2.57545 52.9541 2.36787 53.3129 2.2218C53.6742 2.07316 54.0907 1.99884 54.5622 1.99884C55.2541 1.99884 55.7987 2.1462 56.1959 2.44091C56.5957 2.73562 56.843 3.13412 56.9378 3.63641Z" fill="var(--fill-0, black)"/>
<path id="Vector_14" d="M50.781 3.63641L49.5125 3.7748C49.4766 3.64666 49.4138 3.52622 49.3241 3.41346C49.237 3.3007 49.1191 3.20972 48.9704 3.14053C48.8218 3.07134 48.6399 3.03674 48.4246 3.03674C48.135 3.03674 47.8916 3.09953 47.6942 3.2251C47.4995 3.35067 47.4034 3.5134 47.4059 3.71329C47.4034 3.885 47.4662 4.02466 47.5943 4.1323C47.725 4.23993 47.9402 4.32834 48.2401 4.39754L49.2472 4.6128C49.8059 4.73325 50.221 4.92417 50.4927 5.18557C50.7669 5.44696 50.9053 5.78909 50.9078 6.21193C50.9053 6.58353 50.7964 6.91155 50.5811 7.19601C50.3684 7.47791 50.0724 7.6983 49.6931 7.85719C49.3138 8.01608 48.8782 8.09552 48.3862 8.09552C47.6635 8.09552 47.0818 7.94432 46.641 7.64192C46.2002 7.33696 45.9375 6.91283 45.8529 6.36954L47.2099 6.23884C47.2714 6.50536 47.4021 6.70654 47.602 6.84236C47.8019 6.97818 48.062 7.0461 48.3823 7.0461C48.7129 7.0461 48.9781 6.97818 49.178 6.84236C49.3805 6.70654 49.4817 6.53868 49.4817 6.33879C49.4817 6.16965 49.4164 6.02998 49.2857 5.91978C49.1575 5.80959 48.9576 5.72502 48.686 5.66608L47.6789 5.45465C47.1125 5.33677 46.6935 5.13816 46.4219 4.85882C46.1502 4.57693 46.0157 4.22071 46.0182 3.79018C46.0157 3.42627 46.1143 3.11106 46.3142 2.84454C46.5167 2.57545 46.7973 2.36787 47.1561 2.2218C47.5174 2.07316 47.9338 1.99884 48.4054 1.99884C49.0973 1.99884 49.6419 2.1462 50.0391 2.44091C50.4389 2.73562 50.6862 3.13412 50.781 3.63641Z" fill="var(--fill-0, black)"/>
<path id="Vector_15" d="M41.3825 8.09937C41.0084 8.09937 40.6714 8.03274 40.3715 7.89948C40.0743 7.76365 39.8385 7.56376 39.6642 7.2998C39.4925 7.03584 39.4067 6.71038 39.4067 6.32341C39.4067 5.99026 39.4682 5.71477 39.5912 5.49694C39.7142 5.27911 39.8821 5.10484 40.0948 4.97415C40.3075 4.84345 40.5471 4.74478 40.8136 4.67815C41.0827 4.60896 41.3607 4.55899 41.6478 4.52824C41.9937 4.49236 42.2743 4.46032 42.4896 4.43213C42.7049 4.40138 42.8612 4.35525 42.9586 4.29375C43.0585 4.22968 43.1085 4.13102 43.1085 3.99775V3.97469C43.1085 3.6851 43.0226 3.46087 42.8509 3.30198C42.6792 3.14309 42.4319 3.06365 42.109 3.06365C41.7682 3.06365 41.4978 3.13797 41.2979 3.2866C41.1006 3.43524 40.9674 3.61079 40.8982 3.81324L39.5989 3.62872C39.7014 3.26994 39.8705 2.97011 40.1063 2.72921C40.3421 2.48576 40.6304 2.3038 40.9712 2.18336C41.312 2.06035 41.6888 1.99884 42.1013 1.99884C42.3858 1.99884 42.669 2.03216 42.9509 2.09879C43.2328 2.16542 43.4903 2.27561 43.7235 2.42938C43.9567 2.58058 44.1438 2.78688 44.2848 3.04827C44.4283 3.30967 44.5 3.63641 44.5 4.02851V7.9802H43.1623V7.1691H43.1162C43.0316 7.33312 42.9124 7.48688 42.7587 7.63039C42.6075 7.77134 42.4166 7.88538 42.1859 7.97251C41.9578 8.05708 41.69 8.09937 41.3825 8.09937ZM41.7439 7.07685C42.0232 7.07685 42.2654 7.02175 42.4704 6.91155C42.6754 6.79879 42.833 6.65016 42.9432 6.46564C43.0559 6.28113 43.1123 6.07995 43.1123 5.86212V5.16635C43.0688 5.20223 42.9944 5.23554 42.8894 5.26629C42.7869 5.29705 42.6715 5.32396 42.5434 5.34702C42.4153 5.37008 42.2884 5.39059 42.1629 5.40852C42.0373 5.42646 41.9284 5.44184 41.8361 5.45465C41.6285 5.48284 41.4427 5.52897 41.2787 5.59304C41.1147 5.65711 40.9853 5.7468 40.8905 5.86212C40.7957 5.97488 40.7483 6.12096 40.7483 6.30035C40.7483 6.55662 40.8418 6.7501 41.0289 6.8808C41.2159 7.0115 41.4543 7.07685 41.7439 7.07685Z" fill="var(--fill-0, black)"/>
<path id="Vector_16" d="M38.0361 0.107424V7.98006H36.6445V0.107424H38.0361Z" fill="var(--fill-0, black)"/>
<path id="Vector_17" d="M35.1821 2.76388H33.7445C33.7035 2.52811 33.6279 2.31925 33.5177 2.1373C33.4075 1.95278 33.2704 1.79646 33.1064 1.66832C32.9423 1.54019 32.7553 1.44409 32.5451 1.38002C32.3376 1.31339 32.1133 1.28007 31.8724 1.28007C31.4445 1.28007 31.0652 1.38771 30.7346 1.60297C30.404 1.81568 30.1452 2.12833 29.9581 2.54092C29.771 2.95096 29.6775 3.45197 29.6775 4.04395C29.6775 4.64619 29.771 5.15361 29.9581 5.5662C30.1477 5.97623 30.4066 6.28632 30.7346 6.49646C31.0652 6.70404 31.4432 6.80783 31.8686 6.80783C32.1044 6.80783 32.3247 6.77708 32.5298 6.71557C32.7373 6.65151 32.9231 6.55797 33.0871 6.43496C33.2537 6.31195 33.3934 6.16075 33.5061 5.98136C33.6215 5.80197 33.7009 5.59695 33.7445 5.36631L35.1821 5.374C35.1283 5.74815 35.0117 6.09924 34.8323 6.42727C34.6555 6.7553 34.4236 7.04488 34.1366 7.29603C33.8495 7.54461 33.5138 7.73938 33.1294 7.88033C32.745 8.01871 32.3183 8.08791 31.8494 8.08791C31.1574 8.08791 30.5398 7.92774 29.9965 7.6074C29.4533 7.28706 29.0253 6.82449 28.7126 6.21969C28.4 5.61489 28.2437 4.88965 28.2437 4.04395C28.2437 3.1957 28.4013 2.47045 28.7165 1.86821C29.0317 1.26342 29.4609 0.800846 30.0042 0.480507C30.5475 0.160169 31.1626 0 31.8494 0C32.2876 0 32.695 0.0615049 33.0718 0.184515C33.4485 0.307525 33.7842 0.488196 34.0789 0.726528C34.3736 0.962297 34.6158 1.25188 34.8054 1.59529C34.9976 1.93613 35.1232 2.32566 35.1821 2.76388Z" fill="var(--fill-0, black)"/>
<path id="Vector_18" d="M18.2884 7.98006V0.107424H21.2406C21.8454 0.107424 22.3528 0.212495 22.7629 0.422637C23.1755 0.632779 23.4868 0.92749 23.697 1.30677C23.9097 1.68349 24.016 2.12299 24.016 2.62528C24.016 3.13014 23.9084 3.56836 23.6931 3.93995C23.4804 4.30898 23.1665 4.59472 22.7513 4.79718C22.3362 4.99707 21.8262 5.09702 21.2214 5.09702H19.1187V3.91304H21.0292C21.3829 3.91304 21.6724 3.86435 21.898 3.76697C22.1235 3.66703 22.2901 3.52223 22.3977 3.33259C22.5079 3.14039 22.563 2.90462 22.563 2.62528C22.563 2.34595 22.5079 2.10762 22.3977 1.91029C22.2875 1.7104 22.1196 1.5592 21.8941 1.45669C21.6686 1.35162 21.3777 1.29908 21.0215 1.29908H19.7146V7.98006H18.2884ZM22.3554 4.41277L24.3043 7.98006H22.7129L20.7986 4.41277H22.3554Z" fill="var(--fill-0, black)"/>
<path id="Vector_19" d="M12.8912 7.98006H10.2235V0.107424H12.945C13.7267 0.107424 14.3981 0.265031 14.9593 0.580244C15.5231 0.892894 15.9562 1.34265 16.2586 1.92951C16.561 2.51637 16.7122 3.21855 16.7122 4.03605C16.7122 4.85612 16.5597 5.56087 16.2547 6.15029C15.9523 6.73971 15.5154 7.19203 14.9439 7.50724C14.375 7.82245 13.6908 7.98006 12.8912 7.98006ZM11.6496 6.74612H12.822C13.3704 6.74612 13.8279 6.64617 14.1943 6.44628C14.5608 6.24383 14.8363 5.94271 15.0208 5.54293C15.2053 5.14058 15.2976 4.63829 15.2976 4.03605C15.2976 3.43382 15.2053 2.93409 15.0208 2.53687C14.8363 2.13709 14.5634 1.83853 14.202 1.6412C13.8433 1.44131 13.3973 1.34137 12.8643 1.34137H11.6496V6.74612Z" fill="var(--fill-0, black)"/>
<path id="Vector_20" d="M0.200335 0.107424H1.94552L4.28268 5.81201H4.37494L6.7121 0.107424H8.45729V7.98006H7.08882V2.57147H7.01578L4.84007 7.957H3.81756L1.64184 2.55993H1.56881V7.98006H0.200335V0.107424Z" fill="var(--fill-0, black)"/>
</g>
</svg>
