<svg preserveAspectRatio="none" width="100%" height="100%" overflow="visible" style="display: block;" viewBox="0 0 53.6411 41.9063" fill="none" xmlns="http://www.w3.org/2000/svg">
<g id="Group">
<path id="Vector" d="M19.5134 41.9063C30.2757 41.9063 39.027 33.0304 39.027 22.0507C39.027 11.0711 30.304 2.19514 19.5134 2.19514C8.72303 2.19514 0 11.0711 0 22.0507C0 33.0304 8.75136 41.9063 19.5134 41.9063Z" fill="var(--fill-0, black)"/>
<path id="Vector_2" d="M25.4892 14.5584C24.9511 15.3366 24.2714 15.9994 23.535 16.6045C21.8074 17.9589 19.5983 18.7659 17.2193 18.7659C13.9906 18.7659 11.1302 17.2961 9.31763 15.0482C9.14765 14.8178 8.97768 14.6161 8.80787 14.3854C9.88404 22.8292 13.2827 28.5351 18.6637 34.2122C18.7771 34.3275 18.862 34.4428 18.9752 34.5292C19.1735 34.731 19.3718 34.9326 19.5699 35.1345V35.1056C19.4568 34.558 17.9557 26.3737 25.4892 14.5584Z" fill="var(--fill-0, #C6C6C6)"/>
<path id="Vector_3" d="M53.6411 5.94103C53.6411 5.94103 50.4974 1.30142 46.7873 0.350462C44.1252 -0.31234 41.6046 -0.0818513 38.6873 1.44541L38.6307 1.47424C38.2909 1.64723 37.9228 1.87772 37.5545 2.07955C34.4675 3.98146 30.8707 7.03614 27.3305 11.8776C27.2172 12.0217 27.1039 12.1657 27.0189 12.3099C26.5092 13.0015 26.0561 13.6932 25.6028 14.3848C25.5745 14.4423 25.5463 14.5 25.4896 14.5288C17.9278 26.3442 19.457 34.5285 19.5704 35.076V35.0472C21.4396 29.8024 24.9514 24.1252 29.8228 18.9668C37.6395 10.7536 46.7873 5.96986 53.6411 5.94103Z" fill="var(--fill-0, #F7F7F7)"/>
</g>
</svg>
