<svg preserveAspectRatio="none" width="100%" height="100%" overflow="visible" style="display: block;" viewBox="0 0 68.8284 40" fill="none" xmlns="http://www.w3.org/2000/svg">
<g id="Group 2117761351">
<path id="Vector" d="M9.11819 3.63207H7.2289C7.17496 3.32222 7.07566 3.04777 6.93085 2.80857C6.78604 2.56614 6.60583 2.36065 6.39023 2.19239C6.17477 2.02398 5.92898 1.89771 5.65269 1.81343C5.37992 1.72593 5.08524 1.68211 4.76865 1.68211C4.20626 1.68211 3.70793 1.82355 3.27349 2.10643C2.83906 2.38593 2.49887 2.79692 2.25307 3.33908C2.00712 3.87787 1.88423 4.53634 1.88423 5.31418C1.88423 6.10566 2.00712 6.7724 2.25307 7.31472C2.50224 7.85351 2.84243 8.26097 3.27349 8.5371C3.70793 8.81002 4.20458 8.94641 4.76359 8.94641C5.07344 8.94641 5.36306 8.90595 5.63261 8.82519C5.90538 8.74091 6.14949 8.61802 6.3651 8.45635C6.58392 8.29468 6.7675 8.09593 6.91568 7.86025C7.06724 7.62457 7.17159 7.35517 7.2289 7.05207L9.11819 7.06218C9.04739 7.55377 8.89415 8.01517 8.65847 8.44623C8.42616 8.8773 8.12137 9.25794 7.74409 9.58786C7.36697 9.91457 6.92579 10.1705 6.42057 10.3557C5.91549 10.5376 5.35464 10.6285 4.73846 10.6285C3.82914 10.6285 3.01743 10.4181 2.30349 9.99717C1.58955 9.57607 1.02716 8.96832 0.616326 8.17347C0.205339 7.37862 0 6.42562 0 5.31418C0 4.19952 0.207024 3.24637 0.621382 2.45504C1.03559 1.66019 1.59966 1.05229 2.3136 0.631346C3.02755 0.210398 3.83588 0 4.73846 0C5.31433 0 5.84975 0.0807574 6.34486 0.242425C6.83983 0.404092 7.281 0.641459 7.66839 0.95468C8.05563 1.26453 8.37391 1.64502 8.62307 2.09631C8.87577 2.54423 9.04065 3.0562 9.11819 3.63207ZM11.9597 13.3968C11.7105 13.3968 11.4798 13.3767 11.2677 13.3362C11.0588 13.2992 10.8921 13.2553 10.7675 13.2049L11.1918 11.7803C11.4578 11.8578 11.6954 11.8949 11.9041 11.8915C12.1129 11.8881 12.2965 11.8224 12.4548 11.6944C12.6165 11.5699 12.7529 11.361 12.864 11.068L13.0206 10.6487L10.2068 2.72781H12.1466L13.9349 8.58768H14.0157L15.8091 2.72781H17.754L14.6472 11.4267C14.5024 11.8376 14.3104 12.1896 14.0713 12.4826C13.8321 12.7789 13.5391 13.0045 13.1924 13.1594C12.8488 13.3177 12.438 13.3968 11.9597 13.3968ZM19.1002 10.4871V0.14144H20.9289V4.01088H21.0046C21.0989 3.8224 21.232 3.62196 21.4037 3.40972C21.5755 3.19427 21.8079 3.01069 22.1009 2.85914C22.3939 2.70421 22.7677 2.62683 23.2223 2.62683C23.8218 2.62683 24.3623 2.78006 24.8439 3.08654C25.3289 3.3895 25.7128 3.8391 25.9956 4.4352C26.2819 5.02793 26.425 5.75536 26.425 6.61763C26.425 7.46964 26.2853 8.1937 26.0058 8.7898C25.7262 9.3859 25.3458 9.84056 24.8641 10.1536C24.3825 10.4668 23.837 10.6235 23.2274 10.6235C22.7828 10.6235 22.414 10.5494 22.121 10.4013C21.828 10.2531 21.5923 10.0746 21.4138 9.86569C21.2386 9.65361 21.1023 9.45317 21.0046 9.26468H20.8986V10.4871H19.1002ZM20.8935 6.60752C20.8935 7.10922 20.9642 7.54871 21.1056 7.92599C21.2504 8.30311 21.4576 8.59779 21.727 8.81002C21.9998 9.01874 22.3299 9.12309 22.7171 9.12309C23.1213 9.12309 23.4597 9.01536 23.7324 8.79991C24.0054 8.58093 24.2107 8.28288 24.3488 7.90576C24.4902 7.52511 24.561 7.09237 24.561 6.60752C24.561 6.12589 24.4919 5.6982 24.3538 5.32429C24.2158 4.95054 24.0104 4.65755 23.7375 4.44531C23.4647 4.23323 23.1247 4.12704 22.7171 4.12704C22.3265 4.12704 21.9947 4.22986 21.722 4.4352C21.4492 4.64069 21.242 4.92863 21.1006 5.29901C20.9625 5.66954 20.8935 6.10566 20.8935 6.60752ZM31.4148 10.6386C30.6368 10.6386 29.965 10.477 29.3992 10.1536C28.8369 9.82707 28.4039 9.36567 28.101 8.76957C27.7979 8.1701 27.6463 7.46459 27.6463 6.65288C27.6463 5.85481 27.7979 5.1542 28.101 4.55151C28.4073 3.9453 28.8352 3.47378 29.3841 3.13696C29.933 2.79692 30.5779 2.62683 31.3189 2.62683C31.797 2.62683 32.2483 2.70421 32.6726 2.85914C33.1004 3.01069 33.4775 3.24637 33.8042 3.56633C34.1343 3.8863 34.3936 4.29376 34.5821 4.78888C34.7707 5.28062 34.8651 5.86661 34.8651 6.54684V7.10754H28.5051V5.87504H33.1121C33.1087 5.52473 33.033 5.21319 32.8848 4.94043C32.7366 4.66429 32.5294 4.447 32.2634 4.2887C32.0008 4.13041 31.6943 4.05134 31.344 4.05134C30.9702 4.05134 30.6419 4.14221 30.359 4.3241C30.0761 4.50263 29.8556 4.73831 29.6973 5.0313C29.5424 5.32092 29.4631 5.6392 29.4598 5.98613V7.06218C29.4598 7.51331 29.5424 7.9007 29.7074 8.22404C29.8723 8.54385 30.1031 8.7898 30.3994 8.96158C30.6958 9.12983 31.0427 9.21411 31.4401 9.21411C31.7061 9.21411 31.9468 9.17703 32.1624 9.10302C32.3779 9.02548 32.5648 8.91269 32.7231 8.76451C32.8814 8.61633 33.001 8.43275 33.0819 8.21392L34.7893 8.40578C34.6815 8.85707 34.476 9.2512 34.1729 9.58786C33.8732 9.92131 33.4893 10.1806 33.0212 10.3659C32.553 10.5478 32.0176 10.6386 31.4148 10.6386ZM36.4121 10.4871V2.72781H38.1852V4.021H38.2661C38.4075 3.57308 38.65 3.22798 38.9935 2.9854C39.3403 2.73961 39.7361 2.61671 40.1807 2.61671C40.2817 2.61671 40.3945 2.62177 40.519 2.63188C40.647 2.63863 40.7532 2.65042 40.8373 2.66713V4.34939C40.7599 4.32242 40.637 4.29882 40.4686 4.27859C40.3036 4.25514 40.1436 4.24334 39.9887 4.24334C39.6552 4.24334 39.3555 4.31567 39.0895 4.46048C38.8268 4.60192 38.6196 4.79899 38.4681 5.05153C38.3165 5.30407 38.2408 5.59537 38.2408 5.92545V10.4871H36.4121ZM0.262649 24.2786V13.933H6.99138V15.504H2.13677V18.3127H6.64291V19.8837H2.13677V22.7076H7.03183V24.2786H0.262649ZM14.9554 18.5703L13.2883 18.7522C13.2411 18.5838 13.1586 18.4255 13.0408 18.2773C12.9262 18.1291 12.7714 18.0096 12.576 17.9186C12.3807 17.8277 12.1416 17.7822 11.8587 17.7822C11.4781 17.7822 11.1581 17.8648 10.8988 18.0298C10.6429 18.1948 10.5166 18.4086 10.52 18.6713C10.5166 18.897 10.5991 19.0806 10.7675 19.222C10.9393 19.3634 11.2222 19.4796 11.6161 19.5705L12.9397 19.8534C13.6738 20.0117 14.2195 20.2627 14.5764 20.6061C14.9368 20.9496 15.1187 21.3992 15.1221 21.9549C15.1187 22.4432 14.9756 22.8743 14.6926 23.2481C14.4131 23.6186 14.0241 23.9082 13.5257 24.1169C13.0273 24.3258 12.4548 24.4301 11.8082 24.4301C10.8585 24.4301 10.094 24.2316 9.51477 23.834C8.93553 23.4333 8.59028 22.876 8.47918 22.1621L10.2624 21.9903C10.3432 22.3404 10.515 22.6049 10.7776 22.7833C11.0403 22.9618 11.3821 23.0511 11.8031 23.0511C12.2375 23.0511 12.5861 22.9618 12.8488 22.7833C13.1148 22.6049 13.2478 22.3843 13.2478 22.1216C13.2478 21.8993 13.162 21.7158 12.9902 21.571C12.8218 21.4262 12.5592 21.3149 12.2021 21.2376L10.8786 20.9597C10.1343 20.8048 9.58373 20.5438 9.22683 20.1767C8.86978 19.8063 8.69295 19.3382 8.69632 18.7724C8.69295 18.2941 8.82259 17.8799 9.0854 17.5296C9.35142 17.1761 9.72012 16.9032 10.1916 16.7113C10.6665 16.516 11.2137 16.4183 11.8334 16.4183C12.7428 16.4183 13.4584 16.6119 13.9803 16.9993C14.5058 17.3865 14.8308 17.9103 14.9554 18.5703ZM22.7626 18.5703L21.0955 18.7522C21.0485 18.5838 20.9659 18.4255 20.848 18.2773C20.7336 18.1291 20.5786 18.0096 20.3833 17.9186C20.188 17.8277 19.9488 17.7822 19.6659 17.7822C19.2855 17.7822 18.9655 17.8648 18.7062 18.0298C18.4501 18.1948 18.3239 18.4086 18.3272 18.6713C18.3239 18.897 18.4065 19.0806 18.5749 19.222C18.7465 19.3634 19.0294 19.4796 19.4235 19.5705L20.747 19.8534C21.4812 20.0117 22.0267 20.2627 22.3838 20.6061C22.7441 20.9496 22.9259 21.3992 22.9293 21.9549C22.9259 22.4432 22.7828 22.8743 22.4999 23.2481C22.2204 23.6186 21.8314 23.9082 21.333 24.1169C20.8345 24.3258 20.262 24.4301 19.6154 24.4301C18.6658 24.4301 17.9012 24.2316 17.322 23.834C16.7428 23.4333 16.3975 22.876 16.2864 22.1621L18.0697 21.9903C18.1504 22.3404 18.3222 22.6049 18.5848 22.7833C18.8476 22.9618 19.1894 23.0511 19.6105 23.0511C20.0449 23.0511 20.3934 22.9618 20.656 22.7833C20.9222 22.6049 21.0552 22.3843 21.0552 22.1216C21.0552 21.8993 20.9692 21.7158 20.7975 21.571C20.6292 21.4262 20.3664 21.3149 20.0095 21.2376L18.686 20.9597C17.9417 20.8048 17.3911 20.5438 17.0341 20.1767C16.677 19.8063 16.5003 19.3382 16.5037 18.7724C16.5003 18.2941 16.63 17.8799 16.8926 17.5296C17.1586 17.1761 17.5275 16.9032 17.9989 16.7113C18.4737 16.516 19.0211 16.4183 19.6407 16.4183C20.55 16.4183 21.2656 16.6119 21.7877 16.9993C22.313 17.3865 22.638 17.9103 22.7626 18.5703ZM27.8724 24.4301C27.0944 24.4301 26.4226 24.2685 25.8568 23.9451C25.2943 23.6186 24.8615 23.1572 24.5584 22.5611C24.2553 21.9616 24.1037 21.2561 24.1037 20.4444C24.1037 19.6463 24.2553 18.9457 24.5584 18.343C24.8649 17.7368 25.2926 17.2653 25.8416 16.9285C26.3905 16.5884 27.0355 16.4183 27.7763 16.4183C28.2545 16.4183 28.7058 16.4957 29.1301 16.6507C29.5578 16.8022 29.9351 17.0379 30.2618 17.3579C30.5917 17.6778 30.8512 18.0853 31.0397 18.5804C31.2283 19.0721 31.3225 19.6581 31.3225 20.3384V20.8991H24.9627V19.6666H29.5696C29.5663 19.3163 29.4906 19.0047 29.3424 18.732C29.1942 18.4558 28.987 18.2385 28.721 18.0802C28.4583 17.9219 28.1519 17.8429 27.8016 17.8429C27.4278 17.8429 27.0994 17.9337 26.8165 18.1156C26.5337 18.2941 26.313 18.5298 26.1549 18.8228C25.9999 19.1124 25.9207 19.4307 25.9173 19.7777V20.8537C25.9173 21.3048 25.9999 21.6922 26.1648 22.0156C26.3299 22.3354 26.5606 22.5813 26.857 22.7531C27.1534 22.9214 27.5001 23.0056 27.8976 23.0056C28.1637 23.0056 28.4044 22.9686 28.62 22.8945C28.8355 22.817 29.0224 22.7042 29.1807 22.556C29.339 22.4078 29.4585 22.2243 29.5395 22.0054L31.2468 22.1973C31.1391 22.6486 30.9336 23.0427 30.6305 23.3794C30.3308 23.7128 29.9469 23.9721 29.4788 24.1574C29.0106 24.3393 28.4752 24.4301 27.8724 24.4301ZM34.6984 19.7321V24.2786H32.8696V16.5193H34.6175V17.8378H34.7085C34.8869 17.4034 35.1714 17.0581 35.5622 16.8022C35.9562 16.5463 36.4429 16.4183 37.0221 16.4183C37.5575 16.4183 38.024 16.5328 38.4213 16.7618C38.8222 16.9908 39.1321 17.3226 39.3509 17.757C39.5732 18.1915 39.6827 18.7185 39.6793 19.3382V24.2786H37.8505V19.621C37.8505 19.1023 37.7158 18.6966 37.4464 18.4036C37.1804 18.1106 36.8116 17.9641 36.3402 17.9641C36.0202 17.9641 35.7357 18.0349 35.4864 18.1763C35.2406 18.3144 35.0469 18.5147 34.9054 18.7775C34.7673 19.0401 34.6984 19.3584 34.6984 19.7321ZM45.4129 16.5193V17.9337H40.9522V16.5193H45.4129ZM42.0536 14.6604H43.8822V21.9448C43.8822 22.1906 43.9193 22.3792 43.9933 22.5105C44.0708 22.6385 44.1718 22.7261 44.2964 22.7732C44.4211 22.8204 44.5592 22.844 44.7107 22.844C44.8252 22.844 44.9296 22.8355 45.0238 22.8187C45.1216 22.8018 45.1956 22.7867 45.2461 22.7732L45.5543 24.2029C45.4567 24.2366 45.3168 24.2735 45.1351 24.314C44.9565 24.3544 44.7375 24.378 44.4783 24.3846C44.0202 24.3981 43.6077 24.3292 43.2407 24.1776C42.8735 24.0227 42.5822 23.7836 42.3668 23.4603C42.1546 23.137 42.0502 22.7329 42.0536 22.2479V14.6604ZM46.9422 24.2786V16.5193H48.771V24.2786H46.9422ZM47.8616 15.418C47.572 15.418 47.3228 15.3221 47.114 15.1301C46.9051 14.9348 46.8008 14.7007 46.8008 14.4279C46.8008 14.1518 46.9051 13.9178 47.114 13.7258C47.3228 13.5304 47.572 13.4328 47.8616 13.4328C48.1546 13.4328 48.4038 13.5304 48.6093 13.7258C48.818 13.9178 48.9225 14.1518 48.9225 14.4279C48.9225 14.7007 48.818 14.9348 48.6093 15.1301C48.4038 15.3221 48.1546 15.418 47.8616 15.418ZM52.8842 24.4352C52.3925 24.4352 51.9496 24.3477 51.5556 24.1726C51.165 23.994 50.8552 23.7314 50.6261 23.3844C50.4005 23.0377 50.2877 22.61 50.2877 22.1014C50.2877 21.6636 50.3685 21.3015 50.5301 21.0152C50.6918 20.729 50.9123 20.5 51.192 20.3282C51.4715 20.1565 51.7862 20.0268 52.1366 19.9393C52.4902 19.8483 52.8556 19.7827 53.2328 19.7423C53.6875 19.6951 54.0562 19.6531 54.3391 19.616C54.6219 19.5755 54.8274 19.515 54.9554 19.4341C55.0867 19.35 55.1524 19.2203 55.1524 19.0452V19.0148C55.1524 18.6343 55.0395 18.3397 54.8139 18.1308C54.5882 17.9219 54.2634 17.8176 53.839 17.8176C53.3911 17.8176 53.0358 17.9152 52.7731 18.1106C52.5138 18.3059 52.3387 18.5366 52.2476 18.8026L50.5403 18.5602C50.675 18.0887 50.8973 17.6947 51.207 17.3781C51.5168 17.0581 51.8958 16.8191 52.3437 16.6608C52.7917 16.4991 53.2866 16.4183 53.8289 16.4183C54.2027 16.4183 54.5749 16.462 54.9453 16.5497C55.3157 16.6372 55.6542 16.782 55.9606 16.9841C56.2671 17.1827 56.5129 17.4539 56.6982 17.7973C56.8868 18.1409 56.9811 18.5703 56.9811 19.0856V24.2786H55.2231V23.2127H55.1626C55.0513 23.4283 54.8947 23.6304 54.6927 23.8189C54.494 24.0041 54.2431 24.154 53.94 24.2685C53.6403 24.3797 53.2883 24.4352 52.8842 24.4352ZM53.3591 23.0915C53.7261 23.0915 54.0444 23.0191 54.3138 22.8743C54.5832 22.7261 54.7903 22.5307 54.9352 22.2883C55.0833 22.0457 55.1575 21.7814 55.1575 21.4952V20.5808C55.1002 20.628 55.0026 20.6718 54.8645 20.7121C54.7297 20.7526 54.5781 20.788 54.4099 20.8183C54.2414 20.8486 54.0747 20.8755 53.9097 20.8991C53.7446 20.9227 53.6015 20.9429 53.4803 20.9597C53.2075 20.9968 52.9633 21.0574 52.7478 21.1416C52.5322 21.2258 52.3623 21.3436 52.2375 21.4952C52.1129 21.6433 52.0507 21.8353 52.0507 22.071C52.0507 22.4078 52.1736 22.6621 52.4194 22.8339C52.6654 23.0056 52.9784 23.0915 53.3591 23.0915ZM60.6485 13.933V24.2786H58.8199V13.933H60.6485ZM68.6614 18.5703L66.9942 18.7522C66.9482 18.5838 66.8654 18.4255 66.7474 18.2773C66.6325 18.1291 66.4777 18.0096 66.2831 17.9186C66.087 17.8277 65.8479 17.7822 65.5644 17.7822C65.1844 17.7822 64.8641 17.8648 64.6053 18.0298C64.3492 18.1948 64.223 18.4086 64.2263 18.6713C64.223 18.897 64.3056 19.0806 64.4738 19.222C64.645 19.3634 64.9285 19.4796 65.3223 19.5705L66.6463 19.8534C67.3803 20.0117 67.9258 20.2627 68.2829 20.6061C68.643 20.9496 68.8254 21.3992 68.8284 21.9549C68.8254 22.4432 68.6813 22.8743 68.3994 23.2481C68.1189 23.6186 67.7312 23.9082 67.2317 24.1169C66.7337 24.3258 66.1605 24.4301 65.5139 24.4301C64.5649 24.4301 63.8003 24.2316 63.2211 23.834C62.6419 23.4333 62.2966 22.876 62.1855 22.1621L63.9688 21.9903C64.0495 22.3404 64.2213 22.6049 64.4839 22.7833C64.7461 22.9618 65.0879 23.0511 65.5093 23.0511C65.9445 23.0511 66.2923 22.9618 66.5559 22.7833C66.821 22.6049 66.9543 22.3843 66.9543 22.1216C66.9543 21.8993 66.8685 21.7158 66.6969 21.571C66.5283 21.4262 66.2663 21.3149 65.9092 21.2376L64.5851 20.9597C63.8408 20.8048 63.2902 20.5438 62.9332 20.1767C62.5761 19.8063 62.3994 19.3382 62.4028 18.7724C62.3994 18.2941 62.5291 17.8799 62.7917 17.5296C63.0578 17.1761 63.4266 16.9032 63.898 16.7113C64.3728 16.516 64.9208 16.4183 65.5399 16.4183C66.4486 16.4183 67.1643 16.6119 67.6868 16.9993C68.2124 17.3865 68.5373 17.9103 68.6614 18.5703Z" fill="var(--fill-0, black)"/>
<path id="Vector_2" d="M0.932015 39.8484V29.5027H4.81172C5.60642 29.5027 6.27332 29.6508 6.81211 29.9472C7.35427 30.2436 7.76357 30.651 8.03971 31.1697C8.31922 31.6849 8.45897 32.2709 8.45897 32.9277C8.45897 33.5911 8.31922 34.1804 8.03971 34.6958C7.7602 35.211 7.34768 35.6169 6.80199 35.9133C6.25646 36.2063 5.58466 36.3528 4.78644 36.3528H2.21509V34.8119H4.5339C4.99853 34.8119 5.37917 34.7312 5.67553 34.5695C5.9719 34.4078 6.19073 34.1855 6.33217 33.9026C6.47698 33.6197 6.54946 33.2947 6.54946 32.9277C6.54946 32.5605 6.47698 32.2374 6.33217 31.9577C6.19073 31.6782 5.97021 31.4611 5.67048 31.3061C5.37411 31.1478 4.99194 31.0686 4.52379 31.0686H2.80613V39.8484H0.932015ZM11.8347 29.5027V39.8484H10.0061V29.5027H11.8347ZM18.6607 36.5851V32.0892H20.4895V39.8484H18.7163V38.4693H18.6354C18.4603 38.9037 18.1723 39.2591 17.7716 39.5352C17.3743 39.8114 16.8842 39.9494 16.3016 39.9494C15.7931 39.9494 15.3435 39.8366 14.9528 39.6109C14.5655 39.382 14.2624 39.0502 14.0435 38.6158C13.8246 38.178 13.7152 37.6493 13.7152 37.0296V32.0892H15.5438V36.7467C15.5438 37.2385 15.6785 37.6291 15.9481 37.9187C16.2175 38.2083 16.571 38.3531 17.0088 38.3531C17.2782 38.3531 17.5393 38.2874 17.7919 38.1561C18.0444 38.0247 18.2516 37.8295 18.4132 37.5701C18.5783 37.3074 18.6607 36.979 18.6607 36.5851ZM28.5025 34.1401L26.8356 34.3219C26.7884 34.1536 26.7059 33.9953 26.5879 33.8471C26.4735 33.699 26.3185 33.5793 26.1233 33.4884C25.9279 33.3975 25.6889 33.352 25.4058 33.352C25.0253 33.352 24.7054 33.4345 24.4461 33.5995C24.1902 33.7645 24.0639 33.9785 24.0673 34.2411C24.0639 34.4667 24.1464 34.6503 24.3148 34.7917C24.4866 34.9331 24.7694 35.0493 25.1634 35.1403L26.4869 35.4232C27.2211 35.5815 27.7666 35.8324 28.1237 36.1759C28.4841 36.5193 28.6658 36.9689 28.6692 37.5247C28.6658 38.0129 28.5227 38.444 28.2398 38.8179C27.9603 39.1883 27.5714 39.4779 27.0729 39.6868C26.5746 39.8955 26.0019 40 25.3554 40C24.4056 40 23.6411 39.8012 23.0619 39.4039C22.4826 39.0032 22.1376 38.4457 22.0263 37.7318L23.8095 37.56C23.8905 37.9103 24.0622 38.1746 24.3249 38.3531C24.5875 38.5317 24.9294 38.6208 25.3504 38.6208C25.7848 38.6208 26.1334 38.5317 26.3961 38.3531C26.6621 38.1746 26.7951 37.9541 26.7951 37.6913C26.7951 37.4691 26.7093 37.2855 26.5375 37.1407C26.3691 36.9959 26.1064 36.8848 25.7494 36.8073L24.4259 36.5294C23.6816 36.3745 23.131 36.1135 22.774 35.7465C22.4171 35.376 22.2402 34.9079 22.2436 34.3421C22.2402 33.8638 22.3699 33.4496 22.6325 33.0995C22.8987 32.7458 23.2674 32.473 23.7389 32.281C24.2138 32.0858 24.761 31.988 25.3807 31.988C26.2899 31.988 27.0057 32.1817 27.5276 32.569C28.0529 32.9564 28.3779 33.48 28.5025 34.1401Z" fill="var(--fill-0, black)"/>
</g>
</svg>
