<svg preserveAspectRatio="none" width="100%" height="100%" overflow="visible" style="display: block;" viewBox="0 0 68.6292 22" fill="none" xmlns="http://www.w3.org/2000/svg">
<g id="Class 2 Certification">
<path id="Vector" d="M64.7356 18.3237V21.8776H63.3062V15.8123H64.6724V16.8429H64.7435C64.883 16.5033 65.1055 16.2335 65.4109 16.0334C65.7189 15.8334 66.0993 15.7333 66.552 15.7333C66.9706 15.7333 67.3352 15.8228 67.6459 16.0019C67.9591 16.1809 68.2013 16.4402 68.3724 16.7798C68.5462 17.1194 68.6317 17.5313 68.6291 18.0157V21.8776H67.1996V18.2369C67.1996 17.8314 67.0943 17.5142 66.8837 17.2852C66.6758 17.0562 66.3875 16.9417 66.019 16.9417C65.7689 16.9417 65.5464 16.9969 65.3516 17.1075C65.1595 17.2154 65.0081 17.3721 64.8975 17.5774C64.7896 17.7827 64.7356 18.0315 64.7356 18.3237Z" fill="var(--fill-0, black)"/>
<path id="Vector_2" d="M58.9638 21.9961C58.3715 21.9961 57.8582 21.8658 57.4238 21.6051C56.9894 21.3445 56.6525 20.9799 56.4129 20.5113C56.176 20.0428 56.0575 19.4952 56.0575 18.8687C56.0575 18.2421 56.176 17.6932 56.4129 17.222C56.6525 16.7508 56.9894 16.3849 57.4238 16.1243C57.8582 15.8636 58.3715 15.7333 58.9638 15.7333C59.5561 15.7333 60.0695 15.8636 60.5038 16.1243C60.9382 16.3849 61.2738 16.7508 61.5108 17.222C61.7503 17.6932 61.8701 18.2421 61.8701 18.8687C61.8701 19.4952 61.7503 20.0428 61.5108 20.5113C61.2738 20.9799 60.9382 21.3445 60.5038 21.6051C60.0695 21.8658 59.5561 21.9961 58.9638 21.9961ZM58.9717 20.8509C59.2929 20.8509 59.5614 20.7627 59.7773 20.5864C59.9931 20.4074 60.1537 20.1678 60.259 19.8677C60.3669 19.5676 60.4209 19.2333 60.4209 18.8647C60.4209 18.4935 60.3669 18.1579 60.259 17.8578C60.1537 17.555 59.9931 17.3142 59.7773 17.1351C59.5614 16.9561 59.2929 16.8666 58.9717 16.8666C58.6426 16.8666 58.3689 16.9561 58.1504 17.1351C57.9345 17.3142 57.7726 17.555 57.6647 17.8578C57.5594 18.1579 57.5067 18.4935 57.5067 18.8647C57.5067 19.2333 57.5594 19.5676 57.6647 19.8677C57.7726 20.1678 57.9345 20.4074 58.1504 20.5864C58.3689 20.7627 58.6426 20.8509 58.9717 20.8509Z" fill="var(--fill-0, black)"/>
<path id="Vector_3" d="M53.1985 21.8776V15.8123H54.628V21.8776H53.1985ZM53.9172 14.9515C53.6908 14.9515 53.496 14.8764 53.3328 14.7264C53.1696 14.5737 53.088 14.3907 53.088 14.1775C53.088 13.9616 53.1696 13.7787 53.3328 13.6286C53.496 13.476 53.6908 13.3996 53.9172 13.3996C54.1462 13.3996 54.341 13.476 54.5016 13.6286C54.6648 13.7787 54.7464 13.9616 54.7464 14.1775C54.7464 14.3907 54.6648 14.5737 54.5016 14.7264C54.341 14.8764 54.1462 14.9515 53.9172 14.9515Z" fill="var(--fill-0, black)"/>
<path id="Vector_4" d="M51.7801 15.8123V16.918H48.2933V15.8123H51.7801ZM49.1542 14.3592H50.5836V20.0533C50.5836 20.2455 50.6126 20.3929 50.6705 20.4956C50.731 20.5956 50.81 20.664 50.9074 20.7009C51.0048 20.7377 51.1128 20.7562 51.2312 20.7562C51.3207 20.7562 51.4023 20.7496 51.476 20.7364C51.5524 20.7233 51.6103 20.7114 51.6498 20.7009L51.8907 21.8184C51.8143 21.8447 51.7051 21.8737 51.5629 21.9053C51.4234 21.9369 51.2523 21.9553 51.0496 21.9605C50.6916 21.9711 50.3691 21.9171 50.0821 21.7986C49.7952 21.6775 49.5675 21.4906 49.399 21.2379C49.2331 20.9852 49.1515 20.6693 49.1542 20.2902V14.3592Z" fill="var(--fill-0, black)"/>
<path id="Vector_5" d="M43.8924 22C43.508 22 43.1618 21.9316 42.8538 21.7947C42.5485 21.6552 42.3063 21.4498 42.1273 21.1787C41.9509 20.9075 41.8627 20.5732 41.8627 20.1757C41.8627 19.8335 41.9259 19.5505 42.0522 19.3267C42.1786 19.1029 42.351 18.9239 42.5695 18.7897C42.788 18.6554 43.0342 18.5541 43.3079 18.4856C43.5844 18.4145 43.87 18.3632 44.1648 18.3316C44.5202 18.2948 44.8085 18.2619 45.0296 18.2329C45.2507 18.2013 45.4113 18.1539 45.5114 18.0907C45.614 18.0249 45.6654 17.9236 45.6654 17.7867V17.763C45.6654 17.4655 45.5772 17.2352 45.4008 17.072C45.2244 16.9088 44.9704 16.8271 44.6387 16.8271C44.2886 16.8271 44.0108 16.9035 43.8055 17.0562C43.6028 17.2089 43.4659 17.3892 43.3948 17.5972L42.0601 17.4076C42.1654 17.0391 42.3392 16.7311 42.5814 16.4836C42.8236 16.2335 43.1197 16.0466 43.4698 15.9229C43.82 15.7965 44.207 15.7333 44.6308 15.7333C44.923 15.7333 45.2139 15.7676 45.5035 15.836C45.793 15.9044 46.0576 16.0176 46.2972 16.1756C46.5367 16.3309 46.7289 16.5428 46.8737 16.8113C47.0211 17.0799 47.0948 17.4155 47.0948 17.8183V21.8776H45.7206V21.0444H45.6733C45.5864 21.2129 45.464 21.3709 45.306 21.5183C45.1507 21.6631 44.9546 21.7802 44.7177 21.8697C44.4834 21.9566 44.2083 22 43.8924 22ZM44.2635 20.9496C44.5505 20.9496 44.7993 20.893 45.0099 20.7799C45.2205 20.664 45.3824 20.5113 45.4956 20.3218C45.6114 20.1323 45.6693 19.9256 45.6693 19.7018V18.9871C45.6246 19.024 45.5482 19.0582 45.4403 19.0898C45.335 19.1214 45.2165 19.149 45.0849 19.1727C44.9533 19.1964 44.823 19.2175 44.694 19.2359C44.565 19.2543 44.4531 19.2701 44.3583 19.2833C44.1451 19.3122 43.9542 19.3596 43.7857 19.4254C43.6173 19.4912 43.4843 19.5834 43.3869 19.7018C43.2895 19.8177 43.2408 19.9677 43.2408 20.152C43.2408 20.4152 43.3369 20.614 43.5291 20.7483C43.7213 20.8825 43.9661 20.9496 44.2635 20.9496Z" fill="var(--fill-0, black)"/>
<path id="Vector_6" d="M38.1493 21.9961C37.5438 21.9961 37.0239 21.8631 36.5896 21.5972C36.1578 21.3314 35.8248 20.9641 35.5905 20.4955C35.3589 20.0243 35.243 19.482 35.243 18.8687C35.243 18.2526 35.3615 17.709 35.5984 17.2378C35.8353 16.764 36.1697 16.3954 36.6014 16.1322C37.0358 15.8663 37.5491 15.7333 38.1414 15.7333C38.6337 15.7333 39.0694 15.8242 39.4485 16.0058C39.8302 16.1848 40.1342 16.4388 40.3606 16.7679C40.587 17.0943 40.716 17.4761 40.7476 17.9131H39.3813C39.3261 17.6208 39.1944 17.3773 38.9865 17.1825C38.7811 16.9851 38.506 16.8864 38.1612 16.8864C37.869 16.8864 37.6123 16.9653 37.3912 17.1233C37.17 17.2786 36.9976 17.5024 36.8739 17.7946C36.7528 18.0868 36.6922 18.4369 36.6922 18.845C36.6922 19.2583 36.7528 19.6137 36.8739 19.9111C36.995 20.206 37.1648 20.4337 37.3833 20.5943C37.6044 20.7522 37.8637 20.8312 38.1612 20.8312C38.3718 20.8312 38.56 20.7917 38.7258 20.7127C38.8943 20.6311 39.0352 20.514 39.1484 20.3613C39.2616 20.2086 39.3392 20.023 39.3813 19.8045H40.7476C40.7134 20.2336 40.587 20.614 40.3685 20.9457C40.15 21.2748 39.8526 21.5328 39.4761 21.7197C39.0997 21.9039 38.6574 21.9961 38.1493 21.9961Z" fill="var(--fill-0, black)"/>
<path id="Vector_7" d="M32.384 21.8776V15.8123H33.8135V21.8776H32.384ZM33.1027 14.9515C32.8763 14.9515 32.6815 14.8764 32.5183 14.7264C32.3551 14.5737 32.2735 14.3907 32.2735 14.1775C32.2735 13.9616 32.3551 13.7787 32.5183 13.6286C32.6815 13.476 32.8763 13.3996 33.1027 13.3996C33.3317 13.3996 33.5265 13.476 33.6871 13.6286C33.8503 13.7787 33.9319 13.9616 33.9319 14.1775C33.9319 14.3907 33.8503 14.5737 33.6871 14.7264C33.5265 14.8764 33.3317 14.9515 33.1027 14.9515Z" fill="var(--fill-0, black)"/>
<path id="Vector_8" d="M31.0403 15.8123V16.9179H27.4548V15.8123H31.0403ZM28.3512 21.8776V15.2397C28.3512 14.8317 28.4354 14.4921 28.6039 14.2209C28.775 13.9498 29.004 13.7471 29.291 13.6128C29.5779 13.4786 29.8964 13.4114 30.2466 13.4114C30.494 13.4114 30.7138 13.4312 30.906 13.4707C31.0982 13.5101 31.2403 13.5457 31.3325 13.5773L31.0482 14.6829C30.9876 14.6645 30.9113 14.6461 30.8191 14.6276C30.727 14.6066 30.6243 14.5961 30.5111 14.5961C30.2452 14.5961 30.057 14.6605 29.9465 14.7895C29.8385 14.9159 29.7846 15.0975 29.7846 15.3345V21.8776H28.3512Z" fill="var(--fill-0, black)"/>
<path id="Vector_9" d="M24.8432 21.8776V15.8123H26.2727V21.8776H24.8432ZM25.5619 14.9515C25.3355 14.9515 25.1407 14.8764 24.9775 14.7264C24.8143 14.5737 24.7327 14.3907 24.7327 14.1775C24.7327 13.9616 24.8143 13.7787 24.9775 13.6286C25.1407 13.476 25.3355 13.3996 25.5619 13.3996C25.7909 13.3996 25.9857 13.476 26.1463 13.6286C26.3095 13.7787 26.3912 13.9616 26.3912 14.1775C26.3912 14.3907 26.3095 14.5737 26.1463 14.7264C25.9857 14.8764 25.7909 14.9515 25.5619 14.9515Z" fill="var(--fill-0, black)"/>
<path id="Vector_10" d="M23.4283 15.8123V16.918H19.9415V15.8123H23.4283ZM20.8023 14.3592H22.2318V20.0533C22.2318 20.2455 22.2607 20.3929 22.3186 20.4956C22.3792 20.5956 22.4582 20.664 22.5556 20.7009C22.653 20.7377 22.7609 20.7562 22.8794 20.7562C22.9689 20.7562 23.0505 20.7496 23.1242 20.7364C23.2005 20.7233 23.2585 20.7114 23.2979 20.7009L23.5388 21.8184C23.4625 21.8447 23.3532 21.8737 23.2111 21.9053C23.0715 21.9369 22.9004 21.9553 22.6977 21.9605C22.3397 21.9711 22.0172 21.9171 21.7303 21.7986C21.4433 21.6775 21.2156 21.4906 21.0471 21.2379C20.8813 20.9852 20.7997 20.6693 20.8023 20.2902V14.3592Z" fill="var(--fill-0, black)"/>
<path id="Vector_11" d="M15.4425 21.8778V15.8125H16.8285V16.8234H16.8917C17.0022 16.4732 17.1918 16.2034 17.4603 16.0139C17.7314 15.8217 18.0407 15.7256 18.3882 15.7256C18.4672 15.7256 18.5554 15.7295 18.6528 15.7374C18.7528 15.7427 18.8358 15.7519 18.9016 15.7651V17.08C18.841 17.059 18.7449 17.0405 18.6133 17.0247C18.4843 17.0063 18.3593 16.9971 18.2382 16.9971C17.9776 16.9971 17.7433 17.0537 17.5353 17.1669C17.33 17.2775 17.1681 17.4315 17.0496 17.6289C16.9311 17.8263 16.8719 18.0541 16.8719 18.312V21.8778H15.4425Z" fill="var(--fill-0, black)"/>
<path id="Vector_12" d="M11.3114 21.9961C10.7033 21.9961 10.1781 21.8697 9.73589 21.617C9.29626 21.3616 8.95798 21.001 8.72105 20.535C8.48413 20.0664 8.36567 19.5149 8.36567 18.8805C8.36567 18.2566 8.48413 17.709 8.72105 17.2378C8.96061 16.764 9.29494 16.3954 9.72404 16.1322C10.1531 15.8663 10.6573 15.7333 11.2364 15.7333C11.6102 15.7333 11.963 15.7939 12.2947 15.915C12.629 16.0334 12.9239 16.2177 13.1792 16.4678C13.4372 16.7179 13.6399 17.0364 13.7873 17.4234C13.9347 17.8078 14.0084 18.2658 14.0084 18.7976V19.2359H9.03696V18.2724H12.6382C12.6356 17.9986 12.5764 17.7551 12.4605 17.5419C12.3447 17.326 12.1828 17.1562 11.9748 17.0325C11.7695 16.9087 11.5299 16.8469 11.2562 16.8469C10.964 16.8469 10.7073 16.918 10.4862 17.0601C10.265 17.1996 10.0926 17.3839 9.96886 17.6129C9.84777 17.8393 9.7859 18.0881 9.78327 18.3593V19.2003C9.78327 19.5531 9.84777 19.8558 9.97676 20.1086C10.1058 20.3587 10.2861 20.5508 10.5177 20.6851C10.7494 20.8167 11.0206 20.8825 11.3312 20.8825C11.5392 20.8825 11.7274 20.8536 11.8959 20.7956C12.0643 20.7351 12.2104 20.6469 12.3342 20.5311C12.4579 20.4153 12.5514 20.2718 12.6145 20.1007L13.9492 20.2507C13.865 20.6035 13.7044 20.9115 13.4675 21.1747C13.2332 21.4353 12.9331 21.6381 12.5671 21.7828C12.2012 21.925 11.7827 21.9961 11.3114 21.9961Z" fill="var(--fill-0, black)"/>
<path id="Vector_13" d="M7.12752 16.5191H5.65068C5.60856 16.2769 5.5309 16.0624 5.4177 15.8755C5.3045 15.6859 5.16367 15.5253 4.99518 15.3937C4.8267 15.2621 4.63453 15.1634 4.41867 15.0975C4.20543 15.0291 3.97509 14.9949 3.72763 14.9949C3.288 14.9949 2.89839 15.1054 2.5588 15.3266C2.2192 15.5451 1.95332 15.8662 1.76115 16.2901C1.56897 16.7113 1.47289 17.2259 1.47289 17.834C1.47289 18.4527 1.56897 18.9739 1.76115 19.3977C1.95595 19.8189 2.22184 20.1375 2.5588 20.3533C2.89839 20.5666 3.28669 20.6732 3.72368 20.6732C3.96587 20.6732 4.19227 20.6416 4.40287 20.5784C4.6161 20.5126 4.80696 20.4165 4.97544 20.2902C5.14655 20.1638 5.29003 20.0085 5.40586 19.8242C5.52432 19.6399 5.60593 19.4293 5.65068 19.1924L7.12752 19.2003C7.07223 19.5847 6.95245 19.9453 6.76818 20.2823C6.58654 20.6192 6.34829 20.9167 6.05345 21.1747C5.75861 21.43 5.41375 21.6301 5.01888 21.7749C4.624 21.9171 4.18569 21.9881 3.70394 21.9881C2.99316 21.9881 2.35873 21.8236 1.80064 21.4945C1.24254 21.1655 0.802915 20.6903 0.481749 20.069C0.160583 19.4478 0 18.7028 0 17.834C0 16.9627 0.161899 16.2177 0.485698 15.599C0.809496 14.9778 1.25044 14.5026 1.80853 14.1735C2.36662 13.8445 2.99843 13.6799 3.70394 13.6799C4.1541 13.6799 4.57267 13.7431 4.95965 13.8695C5.34662 13.9958 5.69148 14.1814 5.99422 14.4263C6.29696 14.6684 6.54573 14.9659 6.74054 15.3187C6.93798 15.6688 7.06697 16.0689 7.12752 16.5191Z" fill="var(--fill-0, black)"/>
<path id="Vector_14" d="M33.974 8.19765V7.13938L36.7816 4.3871C37.0501 4.11595 37.2739 3.87507 37.4529 3.66447C37.6319 3.45387 37.7662 3.24985 37.8557 3.05242C37.9452 2.85498 37.9899 2.64438 37.9899 2.42061C37.9899 2.16526 37.932 1.94676 37.8162 1.76512C37.7004 1.58084 37.5411 1.43869 37.3384 1.33865C37.1357 1.23862 36.9053 1.1886 36.6474 1.1886C36.3815 1.1886 36.1485 1.24388 35.9484 1.35445C35.7484 1.46238 35.593 1.61638 35.4825 1.81645C35.3745 2.01652 35.3206 2.25476 35.3206 2.53118H33.9267C33.9267 2.01784 34.0438 1.57163 34.2781 1.19255C34.5124 0.813467 34.8349 0.519942 35.2455 0.311974C35.6588 0.104005 36.1327 2.1521e-05 36.6671 2.1521e-05C37.2094 2.1521e-05 37.6859 0.101373 38.0966 0.304076C38.5072 0.506779 38.8258 0.784509 39.0522 1.13727C39.2812 1.49002 39.3957 1.8928 39.3957 2.34559C39.3957 2.64833 39.3378 2.9458 39.2219 3.23801C39.1061 3.53022 38.9021 3.85401 38.6099 4.2094C38.3203 4.56479 37.9136 4.99521 37.3897 5.50065L35.9958 6.91825V6.97354H39.5181V8.19765H33.974Z" fill="var(--fill-0, black)"/>
<path id="Vector_15" d="M29.4753 3.73559L28.1723 3.87774C28.1354 3.74612 28.0709 3.62239 27.9788 3.50656C27.8893 3.39073 27.7682 3.29728 27.6155 3.2262C27.4628 3.15512 27.2759 3.11958 27.0548 3.11958C26.7573 3.11958 26.5072 3.18408 26.3045 3.31307C26.1044 3.44206 26.0057 3.60923 26.0083 3.81456C26.0057 3.99094 26.0702 4.13441 26.2018 4.24498C26.3361 4.35554 26.5572 4.44637 26.8652 4.51744L27.8998 4.73857C28.4737 4.8623 28.9001 5.05842 29.1792 5.32694C29.4609 5.59546 29.603 5.9469 29.6057 6.38126C29.603 6.76297 29.4911 7.09993 29.27 7.39214C29.0515 7.68172 28.7475 7.90812 28.3578 8.07133C27.9682 8.23455 27.5207 8.31615 27.0153 8.31615C26.2729 8.31615 25.6753 8.16084 25.2225 7.8502C24.7697 7.53693 24.4999 7.10125 24.413 6.54316L25.8069 6.4089C25.8701 6.68268 26.0044 6.88933 26.2097 7.02886C26.4151 7.16838 26.6823 7.23814 27.0113 7.23814C27.3509 7.23814 27.6234 7.16838 27.8287 7.02886C28.0367 6.88933 28.1407 6.7169 28.1407 6.51157C28.1407 6.33782 28.0735 6.19435 27.9393 6.08115C27.8077 5.96796 27.6023 5.88108 27.3233 5.82054L26.2887 5.60335C25.7069 5.48226 25.2765 5.27824 24.9975 4.9913C24.7184 4.70172 24.5802 4.3358 24.5828 3.89354C24.5802 3.51972 24.6815 3.19593 24.8869 2.92214C25.0949 2.64573 25.3831 2.4325 25.7517 2.28245C26.1228 2.12976 26.5506 2.05342 27.035 2.05342C27.7458 2.05342 28.3052 2.20479 28.7132 2.50752C29.1239 2.81026 29.3779 3.21962 29.4753 3.73559Z" fill="var(--fill-0, black)"/>
<path id="Vector_16" d="M23.1513 3.73559L21.8482 3.87774C21.8113 3.74612 21.7468 3.62239 21.6547 3.50656C21.5652 3.39073 21.4441 3.29728 21.2914 3.2262C21.1387 3.15512 20.9518 3.11958 20.7307 3.11958C20.4332 3.11958 20.1831 3.18408 19.9804 3.31307C19.7803 3.44206 19.6816 3.60923 19.6842 3.81456C19.6816 3.99094 19.7461 4.13441 19.8777 4.24498C20.012 4.35554 20.2331 4.44637 20.5411 4.51744L21.5757 4.73857C22.1496 4.8623 22.5761 5.05842 22.8551 5.32694C23.1368 5.59546 23.2789 5.9469 23.2816 6.38126C23.2789 6.76297 23.1671 7.09993 22.9459 7.39214C22.7274 7.68172 22.4234 7.90812 22.0338 8.07133C21.6442 8.23455 21.1966 8.31615 20.6912 8.31615C19.9488 8.31615 19.3512 8.16084 18.8984 7.8502C18.4457 7.53693 18.1758 7.10125 18.0889 6.54316L19.4829 6.4089C19.546 6.68268 19.6803 6.88933 19.8856 7.02886C20.091 7.16838 20.3582 7.23814 20.6872 7.23814C21.0268 7.23814 21.2993 7.16838 21.5046 7.02886C21.7126 6.88933 21.8166 6.7169 21.8166 6.51157C21.8166 6.33782 21.7495 6.19435 21.6152 6.08115C21.4836 5.96796 21.2782 5.88108 20.9992 5.82054L19.9646 5.60335C19.3828 5.48226 18.9524 5.27824 18.6734 4.9913C18.3943 4.70172 18.2561 4.3358 18.2587 3.89354C18.2561 3.51972 18.3575 3.19593 18.5628 2.92214C18.7708 2.64573 19.059 2.4325 19.4276 2.28245C19.7988 2.12976 20.2265 2.05342 20.7109 2.05342C21.4217 2.05342 21.9811 2.20479 22.3892 2.50752C22.7998 2.81026 23.0539 3.21962 23.1513 3.73559Z" fill="var(--fill-0, black)"/>
<path id="Vector_17" d="M13.4955 8.3201C13.1112 8.3201 12.765 8.25166 12.457 8.11477C12.1516 7.97524 11.9094 7.76991 11.7304 7.49876C11.554 7.22761 11.4658 6.89328 11.4658 6.49577C11.4658 6.15355 11.529 5.87055 11.6554 5.64679C11.7817 5.42303 11.9542 5.24402 12.1727 5.10976C12.3912 4.9755 12.6373 4.87415 12.9111 4.8057C13.1875 4.73463 13.4731 4.68329 13.768 4.6517C14.1234 4.61485 14.4116 4.58194 14.6328 4.55298C14.8539 4.52139 15.0145 4.47401 15.1145 4.41083C15.2172 4.34502 15.2685 4.24366 15.2685 4.10677V4.08308C15.2685 3.78561 15.1803 3.55526 15.0039 3.39205C14.8276 3.22883 14.5735 3.14722 14.2418 3.14722C13.8917 3.14722 13.614 3.22357 13.4086 3.37625C13.2059 3.52894 13.069 3.70926 12.998 3.91723L11.6633 3.72769C11.7686 3.35914 11.9423 3.05114 12.1845 2.80368C12.4267 2.55359 12.7229 2.36668 13.073 2.24296C13.4231 2.1166 13.8101 2.05342 14.2339 2.05342C14.5261 2.05342 14.817 2.08764 15.1066 2.15608C15.3962 2.22453 15.6607 2.33773 15.9003 2.49568C16.1399 2.651 16.332 2.86291 16.4768 3.13143C16.6242 3.39994 16.698 3.73559 16.698 4.13836V8.19769H15.3238V7.3645H15.2764C15.1895 7.53298 15.0671 7.69093 14.9092 7.83835C14.7538 7.98314 14.5577 8.10029 14.3208 8.18979C14.0865 8.27667 13.8114 8.3201 13.4955 8.3201ZM13.8667 7.26973C14.1536 7.26973 14.4024 7.21313 14.613 7.09994C14.8236 6.98411 14.9855 6.83142 15.0987 6.64188C15.2145 6.45234 15.2725 6.24569 15.2725 6.02192V5.3072C15.2277 5.34405 15.1514 5.37827 15.0434 5.40986C14.9381 5.44145 14.8197 5.4691 14.688 5.49279C14.5564 5.51648 14.4261 5.53754 14.2971 5.55597C14.1681 5.5744 14.0562 5.59019 13.9615 5.60335C13.7482 5.63231 13.5574 5.6797 13.3889 5.74551C13.2204 5.81132 13.0875 5.90346 12.9901 6.02192C12.8927 6.13775 12.844 6.28781 12.844 6.47208C12.844 6.73533 12.94 6.93409 13.1322 7.06835C13.3244 7.2026 13.5692 7.26973 13.8667 7.26973Z" fill="var(--fill-0, black)"/>
<path id="Vector_18" d="M10.0563 0.110865V8.19793H8.62688V0.110865H10.0563Z" fill="var(--fill-0, black)"/>
<path id="Vector_19" d="M7.12768 2.83916H5.65085C5.60873 2.59697 5.53107 2.38242 5.41787 2.19551C5.30467 2.00597 5.16383 1.84539 4.99535 1.71376C4.82687 1.58214 4.6347 1.48342 4.41883 1.41761C4.2056 1.34916 3.97526 1.31494 3.7278 1.31494C3.28817 1.31494 2.89856 1.4255 2.55897 1.64663C2.21937 1.86513 1.95349 2.1863 1.76132 2.61013C1.56914 3.03133 1.47306 3.54599 1.47306 4.1541C1.47306 4.77274 1.56914 5.29397 1.76132 5.71781C1.95612 6.13901 2.222 6.45754 2.55897 6.67341C2.89856 6.88664 3.28685 6.99326 3.72385 6.99326C3.96604 6.99326 4.19244 6.96167 4.40304 6.89849C4.61627 6.83268 4.80713 6.73659 4.97561 6.61023C5.14672 6.48387 5.29019 6.32855 5.40602 6.14427C5.52449 5.96 5.60609 5.7494 5.65085 5.51247L7.12768 5.52037C7.0724 5.90472 6.95262 6.26537 6.76835 6.60233C6.5867 6.93929 6.34846 7.23677 6.05362 7.49475C5.75878 7.75011 5.41392 7.95018 5.01905 8.09496C4.62417 8.23712 4.18586 8.3082 3.70411 8.3082C2.99333 8.3082 2.3589 8.14367 1.8008 7.8146C1.24271 7.48554 0.803083 7.01037 0.481917 6.3891C0.160751 5.76783 0.000167847 5.02283 0.000167847 4.1541C0.000167847 3.28274 0.162067 2.53774 0.485866 1.9191C0.809664 1.29783 1.25061 0.822659 1.8087 0.493595C2.36679 0.164532 2.99859 0 3.70411 0C4.15427 0 4.57283 0.0631801 4.95981 0.18954C5.34679 0.315901 5.69165 0.501493 5.99439 0.746316C6.29713 0.988507 6.5459 1.28598 6.74071 1.63874C6.93814 1.98886 7.06714 2.389 7.12768 2.83916Z" fill="var(--fill-0, black)"/>
</g>
</svg>
