<svg preserveAspectRatio="none" width="100%" height="100%" overflow="visible" style="display: block;" viewBox="0 0 116.792 45" fill="none" xmlns="http://www.w3.org/2000/svg">
<g id="Group 2117761318">
<path id="Vector" d="M41.3239 31.3955C40.1611 34.0252 38.5645 36.3498 36.5307 38.3682C34.4646 40.4343 32.0702 42.053 29.3473 43.2222C26.6405 44.4075 23.7485 45 20.6733 45C17.5822 45 14.6752 44.4074 11.9525 43.2222C9.24565 42.053 6.85932 40.4344 4.79307 38.3682C2.77475 36.3498 1.17774 34.0253 0 31.3955H2.23324C3.04022 33.0318 4.03475 34.5292 5.21741 35.8874C6.2047 35.1605 7.39301 34.5224 8.78147 33.9725C9.4626 33.696 10.1792 33.4454 10.9313 33.22C10.7727 32.6489 10.6231 32.0592 10.4873 31.4493C10.4833 31.4315 10.4799 31.4134 10.476 31.3955H12.6285C12.7321 31.8379 12.8401 32.2709 12.9567 32.6939C13.3735 32.601 13.7998 32.5132 14.2352 32.4337C15.9523 32.1203 17.7622 31.9416 19.6648 31.8948V31.3955H21.6591V31.8933C23.5704 31.9392 25.3884 32.1188 27.1127 32.4337C27.539 32.5115 27.9559 32.5975 28.3643 32.6883C28.4814 32.267 28.5903 31.836 28.694 31.3955H30.848C30.8439 31.4134 30.8407 31.4315 30.8367 31.4493C30.7011 32.0571 30.5515 32.645 30.3925 33.2143C31.1531 33.4415 31.8783 33.6931 32.5664 33.9725C33.9544 34.5221 35.1355 35.1609 36.1107 35.8874C37.3009 34.5288 38.2972 33.0324 39.0963 31.3955H41.3239ZM29.8183 35.0403C29.3997 36.2318 28.9242 37.3257 28.3856 38.3201C27.4586 40.0583 26.4047 41.4338 25.2288 42.4515C26.3776 42.1871 27.4941 41.8197 28.578 41.3482C30.9111 40.3548 32.9756 38.9999 34.7714 37.2848C33.4187 36.3545 31.7692 35.605 29.8183 35.0403ZM11.497 35.0417C9.54544 35.6077 7.8986 36.3549 6.55823 37.2876C8.3664 39.0012 10.429 40.3554 12.746 41.3482C13.8274 41.8187 14.943 42.1858 16.0922 42.45C14.9156 41.4324 13.8552 40.0573 12.9143 38.3201C12.3839 37.3258 11.9116 36.2331 11.497 35.0417ZM21.6591 42.4471C22.5008 42.232 23.3096 41.7385 24.0847 40.9635C25.1738 39.9064 26.1356 38.4484 26.9685 36.5904C27.2638 35.9382 27.5337 35.2529 27.7844 34.5367C25.9346 34.1542 23.8932 33.9361 21.6591 33.8876V42.4471ZM19.6648 33.8876C17.4312 33.9373 15.386 34.156 13.5281 34.5396C13.775 35.2549 14.0419 35.9388 14.3314 36.5904C15.1802 38.4483 16.1487 39.9064 17.2378 40.9635C18.0179 41.7321 18.8273 42.2234 19.6648 42.4415V33.8876ZM20.6492 0C23.7404 0 26.6405 0.584542 29.3473 1.75378C32.07 2.92298 34.4646 4.54839 36.5307 6.63048C38.5593 8.64344 40.152 10.9697 41.314 13.606H39.0878C38.3014 11.9894 37.3255 10.5113 36.1616 9.17062C35.1766 9.91475 33.9786 10.5746 32.5664 11.1478C31.8789 11.4269 31.1539 11.676 30.394 11.9031C30.5465 12.4527 30.6901 13.02 30.821 13.606H28.7095C28.616 13.2019 28.517 12.807 28.4124 12.4207C27.9888 12.5154 27.5556 12.6044 27.1127 12.6852C25.3884 12.9863 23.5704 13.1576 21.6591 13.2015V13.606H19.6648V13.2C17.7622 13.1553 15.9523 12.985 14.2352 12.6852C13.783 12.6026 13.3406 12.5121 12.9086 12.4151C12.8045 12.8031 12.7064 13.2 12.613 13.606H10.5027C10.6374 13.0187 10.7821 12.4497 10.9369 11.8989C10.1831 11.6731 9.46405 11.4249 8.78147 11.1478C7.36926 10.5746 6.16372 9.9162 5.16658 9.17207C4.01013 10.5122 3.03559 11.9903 2.24164 13.606H0.00839898C1.17006 10.9695 2.75607 8.64344 4.76903 6.63048C6.85121 4.54841 9.24579 2.92296 11.9525 1.75378C14.6752 0.584614 17.5741 7.24142e-05 20.6492 0ZM19.6648 2.62501C18.8271 2.83661 18.018 3.31489 17.2378 4.06057C16.149 5.08552 15.1801 6.51867 14.3314 8.36016C14.0158 9.05809 13.7252 9.79917 13.4601 10.5821C15.3362 10.9646 17.4039 11.1823 19.6648 11.2312V2.62501ZM21.6591 11.2312C23.9212 11.1834 25.9855 10.9666 27.8538 10.5849C27.5849 9.80106 27.2904 9.05881 26.9685 8.36016C26.1356 6.51852 25.1736 5.08556 24.0847 4.06057C23.3094 3.30855 22.5011 2.82809 21.6591 2.61937V11.2312ZM16.2507 2.48924C15.047 2.75571 13.8787 3.135 12.746 3.62779C10.3993 4.63347 8.31368 6.01655 6.48885 7.77607C7.84357 8.73396 9.51343 9.50836 11.5028 10.0969C11.9247 8.88705 12.4026 7.77896 12.9383 6.77472C13.9059 4.94544 15.0118 3.51934 16.2507 2.48924ZM25.0746 2.49066C26.3127 3.52068 27.4185 4.94624 28.3856 6.77472C28.9292 7.77824 29.4097 8.88545 29.831 10.0942C31.8112 9.50764 33.4804 8.73671 34.8435 7.78447C33.0166 6.02104 30.9284 4.63509 28.578 3.62779C27.4473 3.13585 26.2794 2.75708 25.0746 2.49066Z" fill="var(--fill-0, black)"/>
<path id="Vector_2" d="M1.80978 29.1723V26.5872L2.782 26.344C3.06934 26.2778 3.22402 26.1451 3.22402 25.88V16.9973C3.22402 16.7322 3.06934 16.5996 2.782 16.5333L1.80978 16.2903V13.705H9.78644V16.2903L8.81422 16.5333C8.52703 16.5775 8.39451 16.7322 8.39451 16.9973V25.88C8.39451 26.1451 8.52703 26.2998 8.81422 26.344L9.78644 26.5872V29.1723H1.80978ZM15.4312 24.0682C15.4533 25.7474 16.2708 26.6313 17.7734 26.6313C18.9003 26.6313 19.6295 26.101 19.6295 25.1729C19.6295 23.9135 18.3258 23.4936 16.2708 22.7866C14.5032 22.1679 11.6749 21.1956 11.6749 17.9696C11.6749 14.5447 14.8567 13.3514 17.6629 13.3514C19.5853 13.3514 20.8889 14.0806 21.3751 14.0806C21.6845 14.0806 21.9495 13.8376 22.0158 13.705H24.0708V18.2789H20.4912C20.1597 16.8205 19.5632 16.2018 18.4143 16.2018C17.4862 16.2018 16.8675 16.6217 16.8675 17.4834C16.8675 18.5441 17.7956 18.8755 19.6737 19.4722C22.3473 20.3339 25.021 21.0851 25.021 24.3995C25.021 27.6919 22.4135 29.5259 18.4143 29.5259C16.4035 29.5259 15.5638 28.841 14.7462 28.841C14.481 28.841 14.238 28.9515 14.1055 29.1723H11.5423V24.0682H15.4312ZM34.8161 29.5259C29.513 29.5259 26.4638 26.2556 26.4638 21.4386C26.4638 16.6217 29.513 13.3514 34.8161 13.3514C40.0971 13.3514 43.1463 16.6217 43.1463 21.4386C43.1463 26.2556 40.0971 29.5259 34.8161 29.5259ZM34.8161 16.8205C32.9822 16.8205 31.9215 17.9474 31.9215 21.505C31.9215 25.0404 32.9822 26.079 34.8161 26.079C36.6501 26.079 37.6886 25.0404 37.6886 21.505C37.6886 17.9474 36.6501 16.8205 34.8161 16.8205Z" fill="var(--fill-0, black)"/>
<g id="13485 Accredited">
<path id="Vector_3" d="M113.531 34.0841C113.05 34.0841 112.62 33.9606 112.24 33.7135C111.86 33.4663 111.559 33.1076 111.339 32.6373C111.118 32.1669 111.008 31.5956 111.008 30.9233C111.008 30.2431 111.12 29.6691 111.343 29.2014C111.569 28.7311 111.873 28.3763 112.256 28.1372C112.638 27.8954 113.065 27.7745 113.535 27.7745C113.894 27.7745 114.189 27.8356 114.42 27.9578C114.651 28.0774 114.834 28.2222 114.97 28.3923C115.105 28.5597 115.21 28.7178 115.285 28.8666H115.345V25.8134H116.792V33.9765H115.373V33.0119H115.285C115.21 33.1607 115.103 33.3189 114.962 33.4863C114.821 33.651 114.635 33.7918 114.404 33.9088C114.173 34.0257 113.882 34.0841 113.531 34.0841ZM113.934 32.9003C114.239 32.9003 114.5 32.818 114.715 32.6532C114.93 32.4858 115.094 32.2533 115.205 31.9557C115.317 31.6581 115.373 31.3113 115.373 30.9154C115.373 30.5194 115.317 30.1753 115.205 29.883C115.096 29.5907 114.934 29.3635 114.719 29.2014C114.506 29.0393 114.245 28.9583 113.934 28.9583C113.612 28.9583 113.344 29.042 113.128 29.2094C112.913 29.3768 112.751 29.608 112.642 29.9029C112.533 30.1979 112.479 30.5354 112.479 30.9154C112.479 31.298 112.533 31.6395 112.642 31.9397C112.754 32.2373 112.917 32.4725 113.132 32.6452C113.35 32.8153 113.617 32.9003 113.934 32.9003Z" fill="var(--fill-0, black)"/>
<path id="Vector_4" d="M107.093 34.096C106.479 34.096 105.949 33.9685 105.502 33.7134C105.059 33.4556 104.717 33.0916 104.478 32.6213C104.239 32.1483 104.119 31.5916 104.119 30.9512C104.119 30.3214 104.239 29.7687 104.478 29.293C104.72 28.8147 105.057 28.4427 105.49 28.177C105.923 27.9086 106.432 27.7744 107.017 27.7744C107.394 27.7744 107.75 27.8355 108.085 27.9578C108.423 28.0773 108.72 28.2634 108.978 28.5158C109.238 28.7682 109.443 29.0898 109.592 29.4804C109.741 29.8683 109.815 30.3307 109.815 30.8675V31.3099H104.797V30.3374H108.432C108.429 30.061 108.369 29.8152 108.253 29.6C108.136 29.3821 107.972 29.2107 107.762 29.0858C107.555 28.9609 107.313 28.8984 107.037 28.8984C106.742 28.8984 106.483 28.9702 106.26 29.1137C106.036 29.2545 105.862 29.4405 105.737 29.6717C105.615 29.9002 105.553 30.1513 105.55 30.425V31.274C105.55 31.6301 105.615 31.9357 105.745 32.1908C105.876 32.4432 106.058 32.6372 106.291 32.7727C106.525 32.9056 106.799 32.972 107.113 32.972C107.322 32.972 107.512 32.9428 107.683 32.8843C107.853 32.8232 108 32.7342 108.125 32.6173C108.25 32.5004 108.344 32.3555 108.408 32.1828L109.755 32.3343C109.67 32.6904 109.508 33.0013 109.269 33.267C109.032 33.5301 108.729 33.7347 108.36 33.8808C107.991 34.0243 107.568 34.096 107.093 34.096Z" fill="var(--fill-0, black)"/>
<path id="Vector_5" d="M103.017 27.8543V28.9703H99.4974V27.8543H103.017ZM100.366 26.3875H101.809V32.1351C101.809 32.3291 101.838 32.4779 101.897 32.5816C101.958 32.6825 102.038 32.7516 102.136 32.7888C102.234 32.826 102.343 32.8446 102.463 32.8446C102.553 32.8446 102.636 32.838 102.71 32.8247C102.787 32.8114 102.846 32.7995 102.885 32.7888L103.129 33.9168C103.052 33.9434 102.941 33.9726 102.798 34.0045C102.657 34.0364 102.484 34.055 102.28 34.0603C101.918 34.071 101.593 34.0165 101.303 33.8969C101.013 33.7747 100.784 33.586 100.613 33.3309C100.446 33.0758 100.364 32.7569 100.366 32.3743V26.3875Z" fill="var(--fill-0, black)"/>
<path id="Vector_6" d="M96.8068 33.9767V27.8543H98.2497V33.9767H96.8068ZM97.5322 26.9854C97.3037 26.9854 97.1071 26.9097 96.9423 26.7582C96.7776 26.6041 96.6952 26.4194 96.6952 26.2042C96.6952 25.9863 96.7776 25.8016 96.9423 25.6501C97.1071 25.496 97.3037 25.4189 97.5322 25.4189C97.7634 25.4189 97.96 25.496 98.1221 25.6501C98.2869 25.8016 98.3693 25.9863 98.3693 26.2042C98.3693 26.4194 98.2869 26.6041 98.1221 26.7582C97.96 26.9097 97.7634 26.9854 97.5322 26.9854Z" fill="var(--fill-0, black)"/>
<path id="Vector_7" d="M91.7813 34.0841C91.3004 34.0841 90.8699 33.9606 90.4899 33.7135C90.1099 33.4663 89.8096 33.1076 89.5891 32.6373C89.3685 32.1669 89.2583 31.5956 89.2583 30.9233C89.2583 30.2431 89.3699 29.6691 89.5931 29.2014C89.8189 28.7311 90.1232 28.3763 90.5058 28.1372C90.8885 27.8954 91.315 27.7745 91.7853 27.7745C92.144 27.7745 92.439 27.8356 92.6702 27.9578C92.9013 28.0774 93.0847 28.2222 93.2202 28.3923C93.3557 28.5597 93.4607 28.7178 93.5351 28.8666H93.5949V25.8134H95.0418V33.9765H93.6228V33.0119H93.5351C93.4607 33.1607 93.3531 33.3189 93.2122 33.4863C93.0714 33.651 92.8854 33.7918 92.6542 33.9088C92.423 34.0257 92.1321 34.0841 91.7813 34.0841ZM92.1839 32.9003C92.4895 32.9003 92.7499 32.818 92.9651 32.6532C93.1804 32.4858 93.3438 32.2533 93.4554 31.9557C93.567 31.6581 93.6228 31.3113 93.6228 30.9154C93.6228 30.5194 93.567 30.1753 93.4554 29.883C93.3464 29.5907 93.1843 29.3635 92.9691 29.2014C92.7565 29.0393 92.4948 28.9583 92.1839 28.9583C91.8624 28.9583 91.594 29.042 91.3787 29.2094C91.1635 29.3768 91.0014 29.608 90.8925 29.9029C90.7835 30.1979 90.729 30.5354 90.729 30.9154C90.729 31.298 90.7835 31.6395 90.8925 31.9397C91.0041 32.2373 91.1675 32.4725 91.3827 32.6452C91.6006 32.8153 91.8677 32.9003 92.1839 32.9003Z" fill="var(--fill-0, black)"/>
<path id="Vector_8" d="M85.3461 34.096C84.7323 34.096 84.2022 33.9685 83.7558 33.7134C83.312 33.4556 82.9705 33.0916 82.7314 32.6213C82.4922 32.1483 82.3727 31.5916 82.3727 30.9512C82.3727 30.3214 82.4922 29.7687 82.7314 29.293C82.9732 28.8147 83.3107 28.4427 83.7438 28.177C84.1769 27.9086 84.6858 27.7744 85.2704 27.7744C85.6477 27.7744 86.0038 27.8355 86.3386 27.9578C86.6761 28.0773 86.9737 28.2634 87.2314 28.5158C87.4919 28.7682 87.6965 29.0898 87.8453 29.4804C87.9941 29.8683 88.0685 30.3307 88.0685 30.8675V31.3099H83.0503V30.3374H86.6854C86.6827 30.061 86.6229 29.8152 86.506 29.6C86.3891 29.3821 86.2257 29.2107 86.0158 29.0858C85.8085 28.9609 85.5667 28.8984 85.2903 28.8984C84.9954 28.8984 84.7363 28.9702 84.5131 29.1137C84.2899 29.2545 84.1158 29.4405 83.9909 29.6717C83.8687 29.9002 83.8063 30.1513 83.8036 30.425V31.274C83.8036 31.6301 83.8687 31.9357 83.9989 32.1908C84.1291 32.4432 84.3111 32.6372 84.545 32.7727C84.7788 32.9056 85.0525 32.972 85.3661 32.972C85.576 32.972 85.766 32.9428 85.936 32.8843C86.1061 32.8232 86.2536 32.7342 86.3785 32.6173C86.5034 32.5004 86.5977 32.3555 86.6615 32.1828L88.0087 32.3343C87.9237 32.6904 87.7616 33.0013 87.5224 33.267C87.2859 33.5301 86.983 33.7347 86.6136 33.8808C86.2443 34.0243 85.8218 34.096 85.3461 34.096Z" fill="var(--fill-0, black)"/>
<path id="Vector_9" d="M78.2115 33.9765V27.8542H79.6105V28.8746H79.6743C79.7859 28.5212 79.9772 28.2488 80.2483 28.0575C80.522 27.8635 80.8342 27.7665 81.1849 27.7665C81.2647 27.7665 81.3537 27.7705 81.452 27.7785C81.553 27.7838 81.6367 27.7931 81.7031 27.8064V29.1337C81.642 29.1124 81.545 29.0938 81.4121 29.0779C81.2819 29.0593 81.1557 29.05 81.0335 29.05C80.7704 29.05 80.5339 29.1071 80.324 29.2214C80.1167 29.333 79.9533 29.4884 79.8337 29.6877C79.7142 29.887 79.6544 30.1169 79.6544 30.3773V33.9765H78.2115Z" fill="var(--fill-0, black)"/>
<path id="Vector_10" d="M74.1817 34.096C73.5705 34.096 73.0457 33.9619 72.6072 33.6935C72.1714 33.4251 71.8353 33.0544 71.5988 32.5814C71.365 32.1058 71.2481 31.5584 71.2481 30.9392C71.2481 30.3174 71.3676 29.7687 71.6068 29.293C71.8459 28.8147 72.1834 28.4427 72.6192 28.177C73.0576 27.9086 73.5758 27.7744 74.1737 27.7744C74.6706 27.7744 75.1104 27.8661 75.493 28.0494C75.8783 28.2301 76.1852 28.4866 76.4137 28.8187C76.6423 29.1482 76.7725 29.5335 76.8044 29.9746H75.4252C75.3694 29.6797 75.2366 29.4339 75.0267 29.2372C74.8194 29.0379 74.5417 28.9383 74.1936 28.9383C73.8987 28.9383 73.6396 29.018 73.4164 29.1775C73.1932 29.3342 73.0191 29.5601 72.8942 29.8551C72.772 30.15 72.7109 30.5034 72.7109 30.9153C72.7109 31.3325 72.772 31.6912 72.8942 31.9915C73.0165 32.2891 73.1878 32.519 73.4084 32.6811C73.6316 32.8405 73.8933 32.9202 74.1936 32.9202C74.4062 32.9202 74.5962 32.8804 74.7636 32.8006C74.9337 32.7183 75.0758 32.6 75.1901 32.4459C75.3043 32.2918 75.3827 32.1044 75.4252 31.8839H76.8044C76.7698 32.317 76.6423 32.701 76.4217 33.0358C76.2012 33.368 75.9009 33.6284 75.5209 33.817C75.1409 34.003 74.6945 34.096 74.1817 34.096Z" fill="var(--fill-0, black)"/>
<path id="Vector_11" d="M67.4745 34.096C66.8633 34.096 66.3385 33.9619 65.9 33.6935C65.4642 33.4251 65.1281 33.0544 64.8916 32.5814C64.6578 32.1058 64.5409 31.5584 64.5409 30.9392C64.5409 30.3174 64.6604 29.7687 64.8996 29.293C65.1387 28.8147 65.4762 28.4427 65.912 28.177C66.3504 27.9086 66.8686 27.7744 67.4665 27.7744C67.9634 27.7744 68.4032 27.8661 68.7858 28.0494C69.1711 28.2301 69.478 28.4866 69.7065 28.8187C69.9351 29.1482 70.0653 29.5335 70.0972 29.9746H68.718C68.6622 29.6797 68.5294 29.4339 68.3195 29.2372C68.1122 29.0379 67.8345 28.9383 67.4864 28.9383C67.1915 28.9383 66.9324 29.018 66.7092 29.1775C66.486 29.3342 66.3119 29.5601 66.187 29.8551C66.0648 30.15 66.0037 30.5034 66.0037 30.9153C66.0037 31.3325 66.0648 31.6912 66.187 31.9915C66.3093 32.2891 66.4806 32.519 66.7012 32.6811C66.9244 32.8405 67.1861 32.9202 67.4864 32.9202C67.699 32.9202 67.889 32.8804 68.0564 32.8006C68.2265 32.7183 68.3686 32.6 68.4829 32.4459C68.5971 32.2918 68.6755 32.1044 68.718 31.8839H70.0972C70.0626 32.317 69.9351 32.701 69.7145 33.0358C69.494 33.368 69.1937 33.6284 68.8137 33.817C68.4337 34.003 67.9873 34.096 67.4745 34.096Z" fill="var(--fill-0, black)"/>
<path id="Vector_12" d="M57.758 33.9765H56.1796L59.0534 25.8134H60.8789L63.7567 33.9765H62.1783L59.998 27.4875H59.9342L57.758 33.9765ZM57.8098 30.7759H62.1145V31.9637H57.8098V30.7759Z" fill="var(--fill-0, black)"/>
<path id="Vector_13" d="M87.7918 20.2796C87.2604 20.2796 86.7847 20.1799 86.3649 19.9806C85.945 19.7787 85.6116 19.5023 85.3644 19.1516C85.12 18.8008 84.9898 18.3996 84.9738 17.9478H86.4087C86.4353 18.2827 86.5801 18.5564 86.8432 18.7689C87.1063 18.9789 87.4225 19.0838 87.7918 19.0838C88.0815 19.0838 88.3392 19.0174 88.5651 18.8845C88.791 18.7517 88.969 18.567 89.0992 18.3305C89.2294 18.094 89.2932 17.8243 89.2905 17.5214C89.2932 17.2131 89.2281 16.9394 89.0952 16.7003C88.9623 16.4611 88.7803 16.2738 88.5491 16.1382C88.318 16.0001 88.0522 15.931 87.752 15.931C87.5075 15.9283 87.267 15.9735 87.0305 16.0665C86.794 16.1595 86.6067 16.2817 86.4685 16.4332L85.1333 16.214L85.5597 12.0049H90.295V13.2405H86.7834L86.5482 15.4048H86.5961C86.7475 15.2268 86.9614 15.0793 87.2378 14.9624C87.5141 14.8428 87.8171 14.783 88.1466 14.783C88.6408 14.783 89.0819 14.9 89.4699 15.1338C89.8578 15.365 90.1634 15.6839 90.3866 16.0904C90.6098 16.497 90.7214 16.962 90.7214 17.4855C90.7214 18.0249 90.5966 18.5059 90.3468 18.9284C90.0996 19.3482 89.7555 19.679 89.3144 19.9209C88.876 20.16 88.3685 20.2796 87.7918 20.2796Z" fill="var(--fill-0, black)"/>
<path id="Vector_14" d="M80.3861 20.2797C79.7935 20.2797 79.2674 20.1801 78.8077 19.9808C78.3506 19.7815 77.9919 19.5091 77.7315 19.1637C77.4737 18.8156 77.3462 18.4209 77.3488 17.9798C77.3462 17.6371 77.4206 17.3222 77.572 17.0352C77.7235 16.7482 77.9281 16.509 78.1859 16.3177C78.4463 16.1237 78.7359 16.0002 79.0548 15.947V15.8912C78.6349 15.7982 78.2948 15.5843 78.0344 15.2495C77.7766 14.912 77.6491 14.5227 77.6518 14.0816C77.6491 13.6618 77.766 13.2871 78.0025 12.9576C78.239 12.6281 78.5632 12.369 78.9751 12.1804C79.3869 11.989 79.8573 11.8934 80.3861 11.8934C80.9095 11.8934 81.3759 11.989 81.7851 12.1804C82.197 12.369 82.5212 12.6281 82.7577 12.9576C82.9968 13.2871 83.1164 13.6618 83.1164 14.0816C83.1164 14.5227 82.9848 14.912 82.7218 15.2495C82.4614 15.5843 82.1252 15.7982 81.7134 15.8912V15.947C82.0322 16.0002 82.3192 16.1237 82.5743 16.3177C82.8321 16.509 83.0367 16.7482 83.1881 17.0352C83.3422 17.3222 83.4193 17.6371 83.4193 17.9798C83.4193 18.4209 83.2891 18.8156 83.0287 19.1637C82.7683 19.5091 82.4096 19.7815 81.9525 19.9808C81.4981 20.1801 80.976 20.2797 80.3861 20.2797ZM80.3861 19.1397C80.6916 19.1397 80.9574 19.0879 81.1832 18.9843C81.4091 18.878 81.5845 18.7292 81.7094 18.5379C81.8343 18.3465 81.898 18.126 81.9007 17.8762C81.898 17.6158 81.8303 17.3859 81.6974 17.1867C81.5672 16.9847 81.3878 16.8266 81.1593 16.7123C80.9335 16.5981 80.6757 16.5409 80.3861 16.5409C80.0938 16.5409 79.8334 16.5981 79.6048 16.7123C79.3763 16.8266 79.1956 16.9847 79.0627 17.1867C78.9325 17.3859 78.8688 17.6158 78.8714 17.8762C78.8688 18.126 78.9299 18.3465 79.0548 18.5379C79.1797 18.7265 79.355 18.874 79.5809 18.9803C79.8094 19.0866 80.0778 19.1397 80.3861 19.1397ZM80.3861 15.4209C80.6358 15.4209 80.8564 15.3704 81.0477 15.2694C81.2417 15.1685 81.3945 15.0276 81.5061 14.8469C81.6177 14.6662 81.6748 14.4576 81.6775 14.2211C81.6748 13.9873 81.619 13.7827 81.5101 13.6073C81.4011 13.4293 81.2497 13.2924 81.0557 13.1968C80.8617 13.0985 80.6385 13.0493 80.3861 13.0493C80.1283 13.0493 79.9011 13.0985 79.7045 13.1968C79.5105 13.2924 79.359 13.4293 79.2501 13.6073C79.1438 13.7827 79.092 13.9873 79.0946 14.2211C79.092 14.4576 79.1451 14.6662 79.2541 14.8469C79.3657 15.025 79.5185 15.1658 79.7124 15.2694C79.9091 15.3704 80.1336 15.4209 80.3861 15.4209Z" fill="var(--fill-0, black)"/>
<path id="Vector_15" d="M69.6329 18.6533V17.4775L73.0966 12.0049H74.0771V13.6789H73.4792L71.1475 17.3739V17.4376H75.9824V18.6533H69.6329ZM73.5271 20.168V18.2946L73.543 17.7685V12.0049H74.9381V20.168H73.5271Z" fill="var(--fill-0, black)"/>
<path id="Vector_16" d="M65.1796 20.2797C64.6056 20.2797 64.0954 20.1814 63.649 19.9847C63.2053 19.7881 62.8545 19.5144 62.5967 19.1637C62.339 18.8129 62.2021 18.4077 62.1862 17.948H63.6849C63.6982 18.1685 63.7712 18.3612 63.9041 18.5259C64.037 18.688 64.2137 18.8142 64.4342 18.9046C64.6548 18.9949 64.9019 19.0401 65.1756 19.0401C65.4679 19.0401 65.727 18.9896 65.9528 18.8886C66.1787 18.785 66.3554 18.6415 66.483 18.4582C66.6105 18.2748 66.673 18.0635 66.6703 17.8244C66.673 17.5773 66.6092 17.3594 66.479 17.1707C66.3488 16.982 66.1601 16.8346 65.913 16.7283C65.6685 16.622 65.3736 16.5688 65.0281 16.5688H64.3067V15.4289H65.0281C65.3125 15.4289 65.5609 15.3797 65.7735 15.2814C65.9887 15.1831 66.1575 15.0449 66.2797 14.8669C66.4019 14.6862 66.4617 14.4776 66.4591 14.2411C66.4617 14.0099 66.4099 13.8093 66.3036 13.6392C66.2 13.4665 66.0525 13.3323 65.8612 13.2366C65.6725 13.141 65.4506 13.0931 65.1955 13.0931C64.9458 13.0931 64.7146 13.1383 64.502 13.2287C64.2894 13.319 64.118 13.4479 63.9878 13.6153C63.8576 13.78 63.7885 13.9767 63.7805 14.2052H62.3576C62.3682 13.7482 62.4998 13.3469 62.7522 13.0015C63.0073 12.6534 63.3474 12.3823 63.7726 12.1883C64.1977 11.9917 64.6747 11.8934 65.2035 11.8934C65.7482 11.8934 66.2212 11.9957 66.6225 12.2003C67.0264 12.4022 67.3386 12.6746 67.5592 13.0174C67.7797 13.3602 67.89 13.7389 67.89 14.1534C67.8926 14.6131 67.7571 14.9984 67.4834 15.3093C67.2124 15.6202 66.8563 15.8235 66.4152 15.9191V15.9829C66.9892 16.0626 67.4289 16.2752 67.7345 16.6207C68.0428 16.9634 68.1956 17.3899 68.1929 17.9001C68.1929 18.3572 68.0627 18.7664 67.8023 19.1278C67.5445 19.4865 67.1885 19.7682 66.7341 19.9728C66.2823 20.1774 65.7642 20.2797 65.1796 20.2797Z" fill="var(--fill-0, black)"/>
<path id="Vector_17" d="M59.9527 12.0049V20.168H58.4739V13.4438H58.4261L56.5169 14.6635V13.3083L58.5457 12.0049H59.9527Z" fill="var(--fill-0, black)"/>
</g>
</g>
</svg>
