<svg preserveAspectRatio="none" width="100%" height="100%" overflow="visible" style="display: block;" viewBox="0 0 52.0114 15.2169" fill="none" xmlns="http://www.w3.org/2000/svg">
<g id="Group">
<path id="Vector" d="M7.18483 1.94682V13.1951C7.17558 13.3392 7.20381 13.4833 7.26685 13.6132C7.32986 13.7431 7.42544 13.8543 7.54426 13.936C7.61333 13.9737 7.6716 14.0284 7.71357 14.0951C7.75552 14.1617 7.7797 14.238 7.7839 14.3167V14.7406C7.7839 14.8859 7.70123 14.9591 7.54426 14.9591H4.59703C4.45803 14.9591 4.38853 14.8919 4.38853 14.7598V14.3131C4.39441 14.2349 4.41933 14.1593 4.46112 14.0929C4.50292 14.0266 4.56026 13.9714 4.62817 13.9324C4.74846 13.8515 4.84579 13.7407 4.91067 13.6109C4.97554 13.481 5.00579 13.3365 4.99835 13.1915V7.75169H2.80588V13.1951C2.7973 13.3391 2.82587 13.483 2.88885 13.6127C2.95179 13.7425 3.04698 13.8539 3.16534 13.936C3.23579 13.9727 3.29559 14.027 3.33885 14.0937C3.38208 14.1604 3.40734 14.2373 3.41211 14.3167V14.7406C3.41211 14.8859 3.32948 14.9591 3.16534 14.9591H0.209661C0.0694685 14.9591 0 14.8919 0 14.7598V14.3131C0.00661316 14.2342 0.0326372 14.1581 0.0756839 14.0917C0.118761 14.0253 0.177545 13.9706 0.24683 13.9324C0.364397 13.8495 0.459002 13.738 0.521888 13.6084C0.584744 13.4789 0.613768 13.3354 0.606237 13.1915V1.94682C0.614411 1.80415 0.585601 1.66186 0.522623 1.53371C0.459615 1.40553 0.364611 1.29591 0.24683 1.21551C0.175463 1.17777 0.115149 1.12204 0.0718876 1.05379C0.0285653 0.98554 0.00382706 0.907195 0 0.826426V0.408527C0 0.262026 0.0826951 0.189941 0.24683 0.189941H3.20484C3.34264 0.189941 3.41334 0.256041 3.41334 0.389285V0.826426C3.40801 0.906826 3.38266 0.984557 3.33952 1.05256C3.29641 1.12053 3.23689 1.17657 3.16651 1.21551C3.04961 1.2968 2.95528 1.40663 2.89246 1.53454C2.82957 1.6625 2.80018 1.80434 2.8071 1.94682V6.42115H4.99599V1.94682C5.00386 1.80333 4.97404 1.66023 4.9095 1.5319C4.84496 1.40356 4.74791 1.29447 4.62817 1.21551C4.55809 1.17694 4.49915 1.12081 4.45718 1.05262C4.41517 0.984435 4.39153 0.90652 4.38853 0.826426V0.408527C4.38853 0.262026 4.47 0.189941 4.62817 0.189941H7.57662C7.71559 0.189941 7.78506 0.256041 7.78506 0.389285V0.826426C7.78056 0.90609 7.75628 0.983422 7.71443 1.05136C7.67258 1.11931 7.61453 1.17568 7.54546 1.21551C7.42838 1.29668 7.33381 1.40642 7.2707 1.53438C7.20763 1.66229 7.17809 1.80425 7.18483 1.94682Z" fill="var(--fill-0, black)"/>
<path id="Vector_2" d="M11.2271 13.1951C11.2185 13.3391 11.247 13.483 11.31 13.6127C11.373 13.7425 11.4682 13.8539 11.5865 13.936C11.657 13.9727 11.7168 14.027 11.76 14.0937C11.8033 14.1604 11.8285 14.2373 11.8333 14.3167V14.7406C11.8333 14.8859 11.7506 14.9591 11.5865 14.9591H8.62603C8.48707 14.9591 8.4176 14.8919 8.4176 14.7598V14.3131C8.42357 14.234 8.44935 14.1577 8.49249 14.0912C8.53559 14.0247 8.59471 13.9701 8.66437 13.9324C8.78187 13.8494 8.87648 13.7379 8.93933 13.6084C9.00219 13.4788 9.03124 13.3354 9.02383 13.1915V1.94682C9.03189 1.80421 9.00301 1.66192 8.94004 1.53377C8.87709 1.40565 8.78212 1.296 8.66437 1.21551C8.59288 1.17795 8.53247 1.12228 8.48918 1.054C8.44583 0.985723 8.42118 0.907256 8.4176 0.826426V0.408527C8.4176 0.262026 8.49907 0.189941 8.66437 0.189941H11.6212C11.7602 0.189941 11.8297 0.256041 11.8297 0.389285V0.826426C11.8248 0.906489 11.8 0.984005 11.7575 1.05198C11.715 1.11995 11.6562 1.17614 11.5865 1.21551C11.4696 1.2968 11.3753 1.40663 11.3124 1.53454C11.2496 1.6625 11.2202 1.80434 11.2271 1.94682V13.1951Z" fill="var(--fill-0, black)"/>
<path id="Vector_3" d="M16.9687 1.29812V13.2021C16.9601 13.3462 16.9887 13.49 17.0516 13.6197C17.1146 13.7495 17.2098 13.8608 17.3281 13.9431C17.3984 13.9797 17.458 14.0341 17.5011 14.1008C17.5442 14.1676 17.5691 14.2443 17.5737 14.3237V14.7476C17.5737 14.8929 17.4922 14.9661 17.3281 14.9661H14.3712C14.2323 14.9661 14.1628 14.8989 14.1628 14.7668V14.3201C14.1694 14.2412 14.1954 14.1651 14.2385 14.0987C14.2816 14.0323 14.3403 13.9776 14.4096 13.9394C14.527 13.8563 14.6215 13.7448 14.6843 13.6153C14.7472 13.4858 14.7763 13.3424 14.769 13.1985V1.29812H14.3509C14.2155 1.28977 14.0803 1.31803 13.9596 1.37993C13.8388 1.4418 13.7369 1.53508 13.6644 1.64998C13.5158 1.88452 13.3816 2.4009 13.2618 3.19907C13.2603 3.22319 13.2537 3.24676 13.2426 3.26821C13.2315 3.28969 13.216 3.30859 13.1972 3.32372C13.1784 3.33888 13.1566 3.34993 13.1333 3.35616C13.11 3.36239 13.0856 3.36371 13.0618 3.36H12.6928C12.4783 3.36 12.3705 3.26873 12.3705 3.08498V0.32306C12.3705 0.108095 12.4711 1.46836e-05 12.6736 1.46836e-05C12.8995 0.0110314 13.1243 0.0366862 13.3469 0.0768558C13.7353 0.14489 14.1281 0.184998 14.5222 0.196966H17.8768C18.0469 0.17214 18.2554 0.137309 18.5022 0.0925059C18.8808 0.0348445 19.0893 0.00599893 19.1276 0.00599893C19.2977 0.00599893 19.3828 0.0860619 19.3828 0.246188V3.08498C19.3828 3.26873 19.3013 3.36 19.1372 3.36H18.7778C18.6328 3.36 18.5453 3.31918 18.5178 3.23989C18.4615 3.03551 18.4159 2.82825 18.3812 2.61905C18.2674 2.07389 18.15 1.71841 18.0301 1.55034C17.9104 1.38217 17.6983 1.29812 17.3952 1.29812H16.9687Z" fill="var(--fill-0, black)"/>
<path id="Vector_4" d="M22.7255 8.04592V13.1951C22.7169 13.3391 22.7455 13.483 22.8084 13.6127C22.8714 13.7425 22.9666 13.8539 23.0849 13.936C23.1554 13.9727 23.2151 14.027 23.2584 14.0937C23.3017 14.1604 23.3269 14.2373 23.3317 14.3167V14.7406C23.3317 14.8859 23.249 14.9591 23.0849 14.9591H20.1293C19.9903 14.9591 19.9208 14.8919 19.9208 14.7598V14.3131C19.9266 14.2349 19.9516 14.1593 19.9933 14.0929C20.0351 14.0266 20.0925 13.9714 20.1604 13.9324C20.278 13.8495 20.3726 13.738 20.4355 13.6084C20.4983 13.4789 20.5273 13.3354 20.5198 13.1915V1.94682C20.528 1.80415 20.4992 1.66186 20.4362 1.53371C20.3732 1.40553 20.2782 1.29591 20.1604 1.21551C20.0903 1.17694 20.0314 1.12081 19.9894 1.05262C19.9474 0.984435 19.9237 0.906519 19.9208 0.826426V0.408527C19.9208 0.262026 20.0022 0.189941 20.1604 0.189941H22.65C24.0527 0.189941 25.1203 0.506603 25.8535 1.13984C26.5868 1.7731 26.9536 2.68813 26.9536 3.88494C26.9536 5.7919 26.0721 7.02397 24.3092 7.58116C24.7575 7.78271 25.1591 8.07553 25.4883 8.44098C25.7577 8.76041 25.9674 9.23112 26.1101 9.85076L26.8072 12.8625C26.8562 13.1351 26.9441 13.3993 27.0687 13.6467C27.1777 13.8058 27.3222 13.9377 27.49 14.0321C27.5188 14.0521 27.5417 14.0792 27.5564 14.1108C27.5714 14.1424 27.5778 14.1774 27.5751 14.2122V14.7538C27.5794 14.7821 27.5772 14.811 27.568 14.8382C27.5592 14.8654 27.5442 14.8901 27.5237 14.9104C27.5038 14.9307 27.4793 14.946 27.4523 14.9551C27.4251 14.9642 27.3963 14.9668 27.3681 14.9628H25.4727C25.2893 14.9628 25.1732 14.8607 25.1227 14.6565L23.8253 9.43289C23.6863 8.85766 23.533 8.48299 23.3652 8.31247C23.2819 8.22731 23.1823 8.15986 23.0724 8.11404C22.9624 8.06826 22.8445 8.04506 22.7255 8.04592ZM22.7255 1.33918V6.91589C23.4083 6.91589 23.9106 6.70052 24.2327 6.26986C24.5545 5.83913 24.7143 5.07259 24.7118 3.97022C24.7118 2.89426 24.549 2.18658 24.2232 1.84712C23.8971 1.50771 23.398 1.33838 22.7255 1.33918Z" fill="var(--fill-0, black)"/>
<path id="Vector_5" d="M34.7134 11.5356C34.7134 12.6683 34.4262 13.5546 33.851 14.1942C33.2757 14.8339 32.524 15.1541 31.5948 15.1549C30.6668 15.1549 29.9057 14.8383 29.3115 14.205C28.7172 13.5718 28.4199 12.7428 28.4199 11.7181V1.94559C28.4282 1.80299 28.3994 1.66072 28.3363 1.53257C28.2733 1.40442 28.1783 1.29478 28.0605 1.21428C27.9904 1.17525 27.9313 1.11915 27.8884 1.05115C27.8455 0.983176 27.8201 0.905508 27.8152 0.825199V0.407299C27.8152 0.262025 27.8964 0.189941 28.0605 0.189941H31.0186C31.1576 0.189941 31.2271 0.256041 31.2271 0.389286V0.825199C31.2216 0.9056 31.1965 0.983392 31.1536 1.05136C31.1102 1.11937 31.0508 1.17537 30.9804 1.21428C30.8628 1.29478 30.7676 1.40442 30.7048 1.53257C30.6417 1.66072 30.613 1.80299 30.6209 1.94559V11.819C30.6209 13.1367 31.0566 13.7951 31.9279 13.7943C32.8865 13.7943 33.3635 13.0222 33.3596 11.4779V1.94559C33.3681 1.80299 33.3391 1.66063 33.2763 1.53248C33.2129 1.40436 33.118 1.29471 33.0001 1.21428C32.93 1.17537 32.8706 1.11937 32.8274 1.05136C32.784 0.983392 32.7589 0.9056 32.7534 0.825199V0.407299C32.7534 0.262025 32.836 0.189941 33.0001 0.189941H35.1136C35.2526 0.189941 35.3233 0.256041 35.3233 0.389286V0.825199C35.3181 0.9056 35.2927 0.983392 35.2495 1.05136C35.2067 1.11937 35.147 1.17537 35.0765 1.21428C34.9587 1.29478 34.8637 1.40442 34.801 1.53257C34.7379 1.66072 34.7091 1.80299 34.7171 1.94559L34.7134 11.5356Z" fill="var(--fill-0, black)"/>
<path id="Vector_6" d="M36.9021 14.9742H36.4229C36.2649 14.9742 36.1835 14.889 36.1835 14.7173V11.1364C36.1835 10.8962 36.2695 10.7761 36.4398 10.7761H36.8473C36.8895 10.7705 36.9327 10.7779 36.9706 10.7975C37.0089 10.8169 37.0398 10.8476 37.0604 10.8854C37.132 11.1322 37.1813 11.385 37.2079 11.6407C37.4666 13.3003 38.0572 14.1301 38.9797 14.1301C39.2069 14.1349 39.4313 14.0795 39.6303 13.9694C39.8296 13.8593 39.9959 13.6985 40.1131 13.5032C40.3982 13.0487 40.5411 12.5195 40.5252 11.9829C40.5292 11.3842 40.377 10.7949 40.0843 10.273C39.7904 9.747 39.2234 9.03767 38.383 8.14507C37.8891 7.64241 37.4253 7.11069 36.9945 6.55277C36.7119 6.16163 36.4884 5.73121 36.3308 5.27504C36.159 4.77284 36.0739 4.24487 36.0791 3.71395C36.0791 2.66199 36.3433 1.79737 36.8711 1.12014C37.399 0.442836 38.0444 0.103405 38.807 0.101779C39.198 0.112795 39.581 0.214308 39.9264 0.398432C40.0366 0.464747 40.1584 0.50995 40.2855 0.531676C40.3614 0.527718 40.4343 0.500467 40.494 0.453639C40.5809 0.406442 40.6789 0.383242 40.7781 0.386403H41.129C41.3124 0.386403 41.4045 0.471683 41.4045 0.642181V3.78238C41.4045 3.94251 41.3353 4.02257 41.196 4.02257H40.76C40.7181 4.02852 40.6755 4.02334 40.6364 4.00753C40.5972 3.99173 40.5632 3.96583 40.5372 3.9325C40.4554 3.70864 40.3936 3.47796 40.3528 3.24321C40.0556 1.86946 39.5727 1.18255 38.9044 1.18255C38.7329 1.17949 38.5639 1.21972 38.4121 1.29947C38.2605 1.37923 38.1316 1.49593 38.0367 1.63887C37.8172 1.94458 37.7012 2.31292 37.7061 2.68961C37.7155 3.18769 37.8475 3.67574 38.0906 4.11021C38.3456 4.59535 38.8557 5.23021 39.6205 6.01476C40.6005 7.02185 41.2796 7.9073 41.6574 8.67105C42.0343 9.44219 42.2269 10.2908 42.2195 11.1496C42.2195 12.3504 41.9051 13.3291 41.2765 14.0856C40.648 14.8422 39.9006 15.2192 39.0345 15.2168C38.5682 15.1988 38.1087 15.0946 37.6797 14.9094C37.5695 14.8549 37.4507 14.8196 37.3289 14.8049C37.2392 14.8145 37.154 14.8476 37.0818 14.901C37.0291 14.9404 36.9673 14.9656 36.9021 14.9742Z" fill="var(--fill-0, black)"/>
<path id="Vector_7" d="M47.2714 1.29812V13.2021C47.2625 13.3462 47.2913 13.49 47.354 13.6197C47.4171 13.7495 47.512 13.8608 47.6305 13.9431C47.6997 13.9805 47.7582 14.0352 47.8001 14.1019C47.842 14.1685 47.8662 14.245 47.8699 14.3237V14.7476C47.8699 14.8929 47.7888 14.9661 47.6305 14.9661H44.6739C44.5345 14.9661 44.465 14.8989 44.465 14.7668V14.3201C44.4718 14.2412 44.4978 14.1651 44.541 14.0987C44.5838 14.0323 44.6426 13.9776 44.7118 13.9394C44.8294 13.8564 44.924 13.7449 44.9867 13.6154C45.0498 13.4858 45.0786 13.3424 45.0713 13.1985V1.29812H44.6546C44.5192 1.28977 44.3839 1.31803 44.263 1.37993C44.1427 1.4418 44.0404 1.53508 43.9678 1.64998C43.8193 1.88452 43.6852 2.4009 43.5652 3.19907C43.564 3.2231 43.5573 3.24651 43.5466 3.2679C43.5352 3.28929 43.5199 3.30813 43.5012 3.32323C43.4826 3.33836 43.4611 3.34944 43.4376 3.35576C43.4146 3.36208 43.3904 3.36353 43.3665 3.36H42.9964C42.7818 3.36 42.674 3.26873 42.674 3.08498V0.32306C42.674 0.108095 42.7747 1.46836e-05 42.9771 1.46836e-05C43.203 0.0110314 43.4278 0.0366862 43.6503 0.0768558C44.0389 0.14489 44.4317 0.184998 44.8257 0.196966H48.1804C48.3506 0.17214 48.5591 0.137309 48.8058 0.0925059C49.1846 0.0348445 49.3928 0.00599893 49.4313 0.00599893C49.6013 0.00599893 49.6864 0.0860619 49.6864 0.246188V3.08498C49.6864 3.26873 49.6049 3.36 49.4408 3.36H49.0814C48.9366 3.36 48.849 3.31918 48.8215 3.23989C48.7639 3.03566 48.718 2.8284 48.6837 2.61905C48.5698 2.07389 48.4522 1.71841 48.3328 1.55034C48.2128 1.38217 48.0006 1.29812 47.6975 1.29812H47.2714Z" fill="var(--fill-0, black)"/>
<path id="Vector_8" d="M52.0112 0.827828C52.0149 0.980558 51.9729 1.1309 51.8909 1.25963C51.8088 1.38836 51.6903 1.48963 51.5504 1.55058C51.4105 1.61152 51.2559 1.62935 51.1059 1.60176C50.9558 1.57417 50.8178 1.50243 50.7088 1.3957C50.5998 1.28897 50.5251 1.15207 50.4938 1.00253C50.4629 0.852961 50.4767 0.697529 50.5346 0.556061C50.5918 0.414562 50.6901 0.29344 50.8165 0.20819C50.9427 0.12291 51.0918 0.077339 51.2446 0.0773083C51.3441 0.0749147 51.4433 0.09253 51.5366 0.129171C51.6294 0.165842 51.7139 0.220741 51.7855 0.290677C51.8572 0.360614 51.9138 0.444145 51.9524 0.536391C51.991 0.628637 52.0112 0.727757 52.0112 0.827828ZM50.6681 0.827828C50.6653 0.906111 50.6785 0.984148 50.7063 1.05718C50.7348 1.13028 50.7774 1.19687 50.8318 1.25294C50.8863 1.30907 50.9516 1.35353 51.0238 1.38364C51.0958 1.41377 51.1735 1.42893 51.2516 1.42826C51.3288 1.42804 51.4053 1.41211 51.476 1.38146C51.547 1.3508 51.6107 1.30609 51.6643 1.24996C51.7173 1.19383 51.7583 1.12752 51.7855 1.05494C51.8125 0.982431 51.8244 0.905129 51.8205 0.827828C51.8205 0.674637 51.7598 0.527737 51.6518 0.419411C51.5437 0.311085 51.397 0.250232 51.2446 0.250232C51.0915 0.250232 50.9448 0.311085 50.8367 0.419411C50.7287 0.527737 50.6681 0.674637 50.6681 0.827828ZM51.1245 1.21811H50.9519V0.46759C51.0465 0.451172 51.1423 0.443501 51.2384 0.444759C51.3284 0.437271 51.4191 0.456512 51.4984 0.499996C51.5219 0.52025 51.5406 0.545536 51.5532 0.574014C51.5657 0.602522 51.5712 0.633455 51.5703 0.66451C51.5666 0.706306 51.5498 0.745801 51.5219 0.77701C51.4941 0.808249 51.4567 0.829485 51.4157 0.837433V0.847038C51.4531 0.861921 51.4855 0.886808 51.5094 0.919061C51.5339 0.951252 51.5483 0.989488 51.5519 1.02957C51.5596 1.09441 51.578 1.15738 51.6074 1.21571H51.424C51.3949 1.15827 51.3756 1.09671 51.3652 1.03319C51.3508 0.951498 51.3055 0.913077 51.2106 0.913077H51.1245V1.21811ZM51.1245 0.794194H51.206C51.3018 0.794194 51.3799 0.761789 51.3799 0.684948C51.3799 0.608107 51.3297 0.564869 51.2204 0.564869C51.1882 0.564531 51.1564 0.567323 51.1245 0.573246V0.794194Z" fill="var(--fill-0, black)"/>
</g>
</svg>
