<svg preserveAspectRatio="none" width="100%" height="100%" overflow="visible" style="display: block;" viewBox="0 0 45.1064 45" fill="none" xmlns="http://www.w3.org/2000/svg">
<g id="Group 2117761304">
<path id="Vector" d="M22.0178 20.1996C23.4142 19.8886 24.7969 20.7736 25.0994 22.1718C25.4019 23.57 24.5087 24.9474 23.1086 25.2414C21.7205 25.5329 20.3574 24.6489 20.0575 23.2626C19.7576 21.8763 20.6333 20.5079 22.0178 20.1996Z" fill="var(--fill-0, black)"/>
<path id="Vector_2" d="M42.2825 17.9522C43.1039 17.775 43.957 18.0532 44.516 18.6804C45.0743 19.3077 45.2527 20.1871 44.9822 20.9824C44.7117 21.7777 44.0341 22.366 43.2087 22.5224C41.9547 22.7601 40.743 21.9454 40.4893 20.6945C40.2362 19.4437 41.0355 18.2214 42.2825 17.9522Z" fill="var(--fill-0, black)"/>
<path id="Vector_3" d="M12.7731 2.36593C14.0372 2.24325 15.1668 3.15493 15.3138 4.41639C15.4608 5.6778 14.5711 6.82481 13.3127 6.99615C12.4769 7.1099 11.6448 6.76324 11.1369 6.08968C10.629 5.41611 10.5247 4.52077 10.8641 3.74845C11.2034 2.97613 11.9335 2.44742 12.7731 2.36593Z" fill="var(--fill-0, black)"/>
<path id="Vector_4" d="M17.5876 40.3724C18.8407 40.1536 20.0379 40.9797 20.2779 42.2289C20.518 43.4781 19.7123 44.6891 18.4673 44.9503C17.643 45.1232 16.7895 44.838 16.2348 44.2043C15.68 43.5706 15.5102 42.6869 15.7906 41.8928C16.071 41.0985 16.758 40.5174 17.5876 40.3724Z" fill="var(--fill-0, black)"/>
<path id="Vector_5" d="M35.6127 35.6636C36.8586 35.3473 38.1247 36.099 38.4439 37.3439C38.7624 38.5887 38.0135 39.8568 36.7694 40.1782C35.5217 40.5007 34.2492 39.749 33.9289 38.5004C33.6092 37.2519 34.3639 35.9808 35.6127 35.6636Z" fill="var(--fill-0, black)"/>
<path id="Vector_6" d="M39.0863 8.67671C40.3548 8.60037 41.4506 9.55584 41.5474 10.8233C41.6441 12.0906 40.7063 13.2014 39.4408 13.3187C38.6038 13.3963 37.79 13.0165 37.3116 12.3251C36.8332 11.6338 36.7648 10.7382 37.1326 9.9822C37.5004 9.22616 38.247 8.72716 39.0863 8.67671Z" fill="var(--fill-0, black)"/>
<path id="Vector_7" d="M2.11682 18.2518C3.39577 18.1355 4.52726 19.0771 4.64519 20.356C4.76312 21.6348 3.82294 22.7675 2.54427 22.887C1.26329 23.0068 0.128149 22.0646 0.00998953 20.7834C-0.10817 19.5023 0.835541 18.3684 2.11682 18.2518Z" fill="var(--fill-0, black)"/>
<path id="Vector_8" d="M5.46801 8.98283C6.74998 8.87637 7.87504 9.83039 7.97953 11.1125C8.08408 12.3946 7.12838 13.5183 5.84606 13.6209C4.56653 13.7233 3.44575 12.77 3.34149 11.4906C3.23718 10.2112 4.1887 9.08906 5.46801 8.98283Z" fill="var(--fill-0, black)"/>
<path id="Vector_9" d="M3.28798 27.727C4.54603 27.5949 5.67897 28.4924 5.83825 29.7473C5.9976 31.0021 5.12484 32.1542 3.87368 32.3407C3.03991 32.4649 2.20416 32.1283 1.6893 31.4609C1.17438 30.7934 1.06091 29.8996 1.39269 29.1247C1.72452 28.3497 2.44963 27.815 3.28798 27.727Z" fill="var(--fill-0, black)"/>
<path id="Vector_10" d="M22.1963 0.0308174C23.4562 -0.175208 24.6464 0.673337 24.8625 1.9315C25.0785 3.18966 24.2396 4.38666 22.9832 4.61285C21.7125 4.84152 20.4988 3.99089 20.2803 2.71842C20.0618 1.44589 20.9221 0.23916 22.1963 0.0308174Z" fill="var(--fill-0, black)"/>
<path id="Vector_11" d="M8.8804 35.8478C10.1469 35.6703 11.3188 36.549 11.5034 37.8144C11.688 39.0798 10.8158 40.2567 9.55148 40.4483C8.2771 40.6415 7.0889 39.7609 6.90286 38.4855C6.71682 37.2101 7.604 36.0268 8.8804 35.8478Z" fill="var(--fill-0, black)"/>
<path id="Vector_12" d="M41.2302 27.4516C42.4882 27.1908 43.7196 28.0011 43.9774 29.26C44.2351 30.519 43.4219 31.7482 42.1621 32.0033C40.907 32.2574 39.6825 31.4474 39.4259 30.1926C39.1688 28.9378 39.9756 27.7116 41.2302 27.4516Z" fill="var(--fill-0, black)"/>
<path id="Vector_13" d="M26.9979 40.2995C28.2511 40.0315 29.4842 40.8307 29.7512 42.0841C30.0182 43.3376 29.2183 44.57 27.9646 44.8361C26.7123 45.1021 25.4814 44.3029 25.2146 43.0508C24.9478 41.7988 25.746 40.5673 26.9979 40.2995Z" fill="var(--fill-0, black)"/>
<path id="Vector_14" d="M31.2282 2.30556C32.0345 2.09999 32.89 2.3443 33.4663 2.94506C34.0426 3.54588 34.2511 4.4103 34.0119 5.20775C33.7733 6.00527 33.1234 6.61258 32.3119 6.79746C31.0788 7.07832 29.8491 6.31579 29.5526 5.08653C29.256 3.85721 30.0026 2.61787 31.2282 2.30556Z" fill="var(--fill-0, black)"/>
<path id="Vector_15" d="M25.4819 33.8933C26.2321 33.7611 26.9949 34.0458 27.475 34.6372C27.9552 35.2285 28.0771 36.0336 27.7936 36.7406C27.5102 37.4476 26.8658 37.9455 26.1102 38.0414C24.9801 38.1848 23.9419 37.4003 23.7713 36.274C23.6007 35.1476 24.36 34.0909 25.4819 33.8933Z" fill="var(--fill-0, black)"/>
<path id="Vector_16" d="M9.43029 25.5598C10.5498 25.3217 11.6531 26.0265 11.9076 27.1425C12.1621 28.2584 11.4735 29.3719 10.3614 29.6427C9.62739 29.8214 8.85403 29.591 8.3376 29.0396C7.82118 28.4883 7.6418 27.7015 7.86809 26.9807C8.09439 26.26 8.69139 25.717 9.43029 25.5598Z" fill="var(--fill-0, black)"/>
<path id="Vector_17" d="M22.3095 7.00422C23.447 6.86278 24.4862 7.66377 24.6389 8.79972C24.7918 9.93567 24.0012 10.9828 22.8669 11.147C22.1229 11.2547 21.3784 10.9546 20.9171 10.361C20.4558 9.76747 20.3488 8.97192 20.6368 8.27756C20.9249 7.5832 21.5636 7.09701 22.3095 7.00422Z" fill="var(--fill-0, black)"/>
<path id="Vector_18" d="M28.1969 8.55844C29.3076 8.26478 30.4464 8.92346 30.7458 10.0324C31.0453 11.1413 30.3925 12.2838 29.285 12.5889C28.1697 12.8964 27.0169 12.2378 26.7153 11.1206C26.4137 10.0035 27.0782 8.85424 28.1969 8.55844Z" fill="var(--fill-0, black)"/>
<path id="Vector_19" d="M15.9088 8.60079C17.0443 8.4378 18.0985 9.2217 18.2692 10.356C18.44 11.4904 17.6634 12.5499 16.5302 12.7285C15.3861 12.9088 14.3139 12.1229 14.1415 10.9775C13.969 9.83208 14.7623 8.76534 15.9088 8.60079Z" fill="var(--fill-0, black)"/>
<path id="Vector_20" d="M8.66376 19.2335C9.78865 19.0147 10.8795 19.7441 11.107 20.8672C11.3346 21.9904 10.6137 23.0868 9.49244 23.3232C8.35863 23.5621 7.24736 22.8315 7.01724 21.6959C6.78717 20.5603 7.52642 19.4548 8.66376 19.2335Z" fill="var(--fill-0, black)"/>
<path id="Vector_21" d="M34.9543 25.3312C35.6331 25.2097 36.3276 25.4314 36.8106 25.9235C37.2931 26.4155 37.5016 27.1144 37.3673 27.7905C37.2068 28.5999 36.5836 29.2384 35.7785 29.419C35.0406 29.5845 34.2714 29.3379 33.7674 28.7745C33.2635 28.2111 33.1037 27.4191 33.3504 26.7045C33.5966 25.9898 34.2105 25.4644 34.9543 25.3312Z" fill="var(--fill-0, black)"/>
<path id="Vector_22" d="M33.5535 12.8154C34.69 12.7463 35.6711 13.6012 35.7586 14.736C35.8461 15.8708 35.0068 16.8658 33.8733 16.9711C33.1238 17.0408 32.3951 16.7011 31.9671 16.0823C31.5385 15.4636 31.4771 14.6621 31.8055 13.9851C32.1345 13.3082 32.8029 12.8611 33.5535 12.8154Z" fill="var(--fill-0, black)"/>
<path id="Vector_23" d="M31.3603 30.7965C32.484 30.6362 33.5289 31.4065 33.7078 32.5273C33.8868 33.6482 33.1338 34.7055 32.016 34.9031C31.2763 35.0338 30.5239 34.7555 30.0472 34.1749C29.5705 33.5944 29.4437 32.8018 29.7159 32.1017C29.9881 31.4015 30.6166 30.9026 31.3603 30.7965Z" fill="var(--fill-0, black)"/>
<path id="Vector_24" d="M19.2476 33.9582C20.3697 33.7964 21.4146 34.5635 21.5964 35.6826C21.7781 36.8017 21.0299 37.8601 19.9142 38.062C19.1746 38.1958 18.4203 37.9199 17.9414 37.3405C17.4626 36.7611 17.3338 35.9683 17.6046 35.2671C17.8753 34.5659 18.5036 34.0654 19.2476 33.9582Z" fill="var(--fill-0, black)"/>
<path id="Vector_25" d="M35.7069 18.9886C36.8237 18.8012 37.8848 19.5419 38.0933 20.6547C38.3024 21.7673 37.5824 22.8425 36.4738 23.0728C35.7376 23.2258 34.976 22.9691 34.4825 22.4015C33.989 21.834 33.8407 21.0442 34.095 20.3364C34.3487 19.6286 34.9656 19.1131 35.7069 18.9886Z" fill="var(--fill-0, black)"/>
<path id="Vector_26" d="M10.7943 13.0582C11.9053 12.7741 13.036 13.446 13.3175 14.5576C13.5991 15.6693 12.9245 16.7984 11.8121 17.0773C10.7035 17.3552 9.57903 16.6834 9.29846 15.5754C9.01789 14.4674 9.687 13.3415 10.7943 13.0582Z" fill="var(--fill-0, black)"/>
<path id="Vector_27" d="M13.4043 30.961C14.5359 30.8302 15.56 31.6395 15.6944 32.7707C15.8288 33.9018 15.0229 34.9285 13.8922 35.0665C12.7563 35.2053 11.7238 34.3948 11.5888 33.2585C11.4537 32.1222 12.2676 31.0923 13.4043 30.961Z" fill="var(--fill-0, black)"/>
<path id="Vector_28" d="M27.6922 16.4959C28.6996 16.3183 29.6588 16.9942 29.8308 18.0025C30.0028 19.0107 29.3217 19.9665 28.3127 20.133C27.3113 20.2982 26.3646 19.6234 26.1939 18.623C26.0232 17.6225 26.6927 16.6721 27.6922 16.4959Z" fill="var(--fill-0, black)"/>
<path id="Vector_29" d="M22.1225 13.8836C22.7681 13.7268 23.4482 13.9298 23.9022 14.4149C24.3562 14.9 24.5138 15.592 24.3146 16.2258C24.1154 16.8597 23.5903 17.3371 22.9404 17.4753C21.9555 17.6848 20.985 17.0644 20.7613 16.0826C20.5377 15.1008 21.144 14.1213 22.1225 13.8836Z" fill="var(--fill-0, black)"/>
<path id="Vector_30" d="M25.3013 27.2819C25.952 27.1598 26.6182 27.3968 27.0455 27.9024C27.4729 28.408 27.5956 29.1043 27.3667 29.7256C27.1379 30.3468 26.5928 30.7972 25.9396 30.9048C24.9451 31.0685 24.0041 30.4016 23.8291 29.409C23.6543 28.4164 24.3108 27.4679 25.3013 27.2819Z" fill="var(--fill-0, black)"/>
<path id="Vector_31" d="M16.4833 16.6412C17.4516 16.331 18.4876 16.8661 18.7953 17.8351C19.103 18.8042 18.5653 19.8389 17.5955 20.1441C16.6291 20.4482 15.5989 19.9129 15.2923 18.9473C14.9858 17.9817 15.5185 16.9502 16.4833 16.6412Z" fill="var(--fill-0, black)"/>
<path id="Vector_32" d="M15.248 22.5371C16.2261 22.2625 17.2408 22.8361 17.51 23.8156C17.7792 24.7952 17.2001 25.8068 16.2191 26.0707C15.2456 26.3325 14.2435 25.7588 13.9763 24.7868C13.7092 23.8147 14.2774 22.8095 15.248 22.5371Z" fill="var(--fill-0, black)"/>
<path id="Vector_33" d="M29.1294 22.3716C30.1268 22.2143 31.0628 22.8934 31.2233 23.89C31.3831 24.8866 30.7072 25.825 29.711 25.9881C28.7107 26.1519 27.7675 25.4722 27.6066 24.4714C27.4457 23.4706 28.1283 22.5295 29.1294 22.3716Z" fill="var(--fill-0, black)"/>
<path id="Vector_34" d="M19.21 27.3372C20.1936 27.1217 21.1663 27.7424 21.3852 28.7252C21.6042 29.708 20.987 30.6829 20.0049 30.9053C19.0179 31.1289 18.0371 30.5079 17.817 29.5201C17.597 28.5323 18.2214 27.5537 19.21 27.3372Z" fill="var(--fill-0, black)"/>
</g>
</svg>
