<svg preserveAspectRatio="none" width="100%" height="100%" overflow="visible" style="display: block;" viewBox="0 0 74.6494 21.7694" fill="none" xmlns="http://www.w3.org/2000/svg">
<g id="Group 2117761316">
<path id="Subtract" d="M29.2396 0.323002C32.1303 0.417406 36.1293 -0.287356 37.9476 2.60523C38.9244 4.16623 38.9311 6.51811 38.2142 8.18238C37.5802 9.65461 36.3593 10.3723 34.9329 10.908C36.6405 11.5191 37.0897 12.7039 37.5423 14.2722C38.0166 15.9172 38.231 18.2572 38.9622 19.7341C39.2062 19.8844 39.3753 19.9851 39.5941 20.1687C39.597 20.6034 39.5855 21.0003 39.5677 21.4343C39.1917 21.4792 36.5645 21.5157 36.3392 21.3826C35.9079 21.1279 35.4132 18.4124 35.2239 17.7488C34.9038 16.6149 34.6832 15.3802 34.348 14.2332C34.1652 13.6077 34.0747 12.9056 33.7728 12.3113C33.507 11.7881 33.1517 11.6899 32.6429 11.5232C32.5694 12.9124 32.6425 14.4618 32.6165 15.8679C32.6262 16.9155 32.5948 17.9647 32.636 19.0115C32.6599 19.6143 33.031 19.8309 33.4485 20.1834C33.4676 20.6352 33.4647 20.9794 33.4476 21.4314C32.9599 21.486 32.0344 21.4638 31.5189 21.4627C30.5738 21.4605 29.5648 21.4807 28.6243 21.4451C28.6047 21.3032 28.5897 21.1602 28.5794 21.0173C28.5196 20.055 28.6939 20.2731 29.1722 19.7136C29.5956 19.2182 29.4487 17.0672 29.4485 16.3621L29.4466 11.2371L29.4456 5.69214C29.4454 4.7091 29.462 3.70862 29.4232 2.72632C29.3985 2.10576 29.022 1.842 28.5735 1.45972C28.5727 1.26031 28.5741 1.06045 28.5775 0.861088C28.5808 0.701883 28.5756 0.441997 28.6907 0.331791C28.8657 0.322547 29.0618 0.317218 29.2396 0.323002ZM32.6224 1.98121C32.6068 3.51431 32.6027 5.04771 32.6107 6.58081C32.6111 7.66537 32.5851 8.89802 32.6302 9.97242C33.3609 9.82978 34.0719 9.71435 34.6233 9.16187C35.6648 7.71986 35.8412 4.20768 34.7396 2.69898C34.3707 2.19361 33.2335 1.98305 32.6224 1.98121Z" fill="var(--fill-0, black)"/>
<path id="Vector" d="M6.29681 0.362231C7.11186 0.298561 8.08384 0.324118 8.91717 0.321745C9.6002 0.319718 10.536 0.294359 11.199 0.35447C11.2289 0.77485 11.2352 0.968777 11.2088 1.39539C10.9921 1.66356 10.4371 2.26091 10.4021 2.56878C10.3412 3.10375 10.3631 3.8753 10.3625 4.42382L10.3609 8.29335L10.3603 15.2457C10.3606 16.5 10.3415 17.7846 10.3907 19.0376C10.4129 19.6019 10.8004 19.8584 11.2047 20.2104C11.2339 20.6665 11.2315 20.9458 11.2104 21.4024C10.7611 21.4888 9.95189 21.4667 9.46264 21.4653C8.91727 21.4682 6.80162 21.5191 6.43071 21.3973C6.24864 21.2026 6.31035 20.5715 6.31806 20.2911C6.74046 19.814 7.16004 19.6102 7.17827 18.8817C7.19803 18.0923 7.19037 17.3041 7.19013 16.5145L7.18855 11.1603C6.19167 11.1325 5.13936 11.148 4.13794 11.1489L4.13364 16.3612C4.13181 17.2681 4.11017 18.2272 4.15918 19.1329C4.18937 19.691 4.563 19.9212 4.96771 20.2486C5.00269 20.6882 4.99746 20.9458 4.9811 21.3827C4.41196 21.5034 0.659205 21.5049 0.0483624 21.4192C0.00196738 21.0177 0.0112554 20.7342 0.0465334 20.3341C0.20815 20.1045 0.456678 19.8807 0.635488 19.6525C0.915736 19.295 0.888215 19.0467 0.887622 18.6155C0.886486 17.8122 0.884756 17.0085 0.884855 16.2051L0.88619 10.3267L0.886535 5.22602C0.886486 4.49653 0.923641 3.07167 0.840041 2.39334C0.686626 2.15162 0.22233 1.60513 0.0220264 1.34313C0.0115023 1.12326 -0.0440825 0.603317 0.0757342 0.427236C0.135371 0.33969 0.230829 0.350812 0.347878 0.332373C1.60647 0.31606 3.79979 0.269939 4.98229 0.356398C4.99993 0.740692 4.99439 0.983014 4.97344 1.36469C4.77571 1.5946 4.22391 2.17203 4.18671 2.42963C4.09446 3.06771 4.13157 4.046 4.13221 4.6995L4.13992 9.21212C5.15038 9.20639 6.16089 9.20638 7.1714 9.21217C7.1885 7.94371 7.19591 6.67515 7.19373 5.40655C7.19502 4.61275 7.20347 3.82528 7.17689 3.03098C7.14803 2.16753 6.90919 1.98463 6.27937 1.42109C6.26648 1.01445 6.27191 0.765903 6.29681 0.362231Z" fill="var(--fill-0, black)"/>
<path id="Vector_2" d="M40.0357 0.326527C41.0234 0.281543 42.0639 0.348773 43.0571 0.323216C43.6307 0.308435 44.2765 0.313329 44.8457 0.359994C44.8546 0.707559 44.8476 1.09452 44.8486 1.4451C44.4805 1.74773 44.0196 2.1996 43.9889 2.70269C43.9425 3.46944 43.9598 4.24906 43.9598 5.01839L43.9613 9.36851L43.9622 14.3235C43.9593 15.3535 43.9341 16.3645 43.9948 17.4068C44.0438 18.5761 44.6238 19.908 46.0028 19.7546C47.2474 19.6162 47.7 18.5006 47.7944 17.4094C47.8922 16.2831 47.869 15.1638 47.8695 14.0492L47.8715 8.90987L47.871 4.8692C47.871 4.13808 47.8903 3.35965 47.8339 2.63264C47.7934 2.10608 47.3823 1.77393 46.992 1.46591C46.9693 1.12502 46.9115 0.708202 47.0557 0.402853C47.2455 0.275068 50.213 0.303936 50.6142 0.35164C50.7179 0.432413 50.6873 0.442152 50.715 0.61418C50.7293 0.918491 50.7155 1.16378 50.6987 1.46863C50.4827 1.67334 49.9541 2.13346 49.9145 2.40604C49.793 3.24704 49.8607 4.49598 49.8607 5.3527L49.8567 13.3403C49.8567 14.7353 49.9214 16.2621 49.7821 17.6336C49.6062 19.3674 48.4002 21.1647 46.6288 21.5561C45.4648 21.8133 44.0097 21.7393 42.9597 21.0969C42.0363 20.5287 41.3574 19.6362 41.0565 18.5939C40.6919 17.3566 40.7951 15.4476 40.7971 14.105L40.802 6.61918C40.803 5.33071 40.8302 4.02819 40.7635 2.74297C40.7126 1.75396 39.3134 1.44065 40.0357 0.326527Z" fill="var(--fill-0, black)"/>
<path id="Vector_3" d="M61.3147 0.0152993C62.2426 -0.0710606 63.0426 0.234338 63.9388 0.27952C65.6024 0.363408 67.3105 0.326037 68.9766 0.30048C69.5601 0.291532 70.7405 -0.168889 71.2405 0.114512C71.3937 0.430983 71.3991 4.48847 71.2346 4.7167C70.9144 4.8871 70.4238 4.82535 70.0547 4.8085C69.737 3.88138 69.8467 2.86528 69.0685 2.0126C68.6574 1.92767 68.2443 1.93924 67.8258 1.93796C67.7725 5.41519 67.8209 9.01013 67.8199 12.499L67.8189 16.6914C67.8189 17.3362 67.7399 19.0141 67.9573 19.5319C68.0516 19.6811 68.2562 19.8484 68.3891 19.9879C68.7849 20.4029 68.6841 20.8622 68.6574 21.4052C68.2063 21.4916 64.2234 21.4884 63.7634 21.4176C63.719 20.8985 63.7185 20.6374 63.8301 20.1306C64.3242 19.836 64.555 19.6396 64.5861 19.0243C64.6197 18.371 64.6029 17.7154 64.5999 17.0612L64.5955 13.6787L64.5915 1.93721L63.7047 1.93791C63.0238 2.32423 62.8775 2.68316 62.7308 3.43905C62.6424 3.89324 62.5836 4.34877 62.5203 4.80711C62.2797 4.81917 62.0386 4.8257 61.798 4.82669C61.5919 4.82674 61.4249 4.84167 61.2846 4.70132C61.1107 4.19943 61.1206 0.514724 61.3147 0.0152993Z" fill="var(--fill-0, black)"/>
<path id="Vector_4" d="M55.4795 0.126551C56.3743 0.104998 56.9484 0.430665 57.7612 0.776599C58.1451 0.6064 59.0611 0.3752 59.4021 0.696467C59.4599 0.893113 59.4436 1.07166 59.4431 1.27479C59.4367 2.69209 59.4515 4.11117 59.446 5.52822C59.445 5.75176 59.2331 5.78428 59.0606 5.78631C58.8314 5.78898 58.2242 5.88266 58.1318 5.60588C57.7721 4.52824 57.7004 3.43462 57.0359 2.46272C55.9869 0.928259 54.3777 1.9976 54.1425 3.47061C53.9112 5.27611 55.2463 6.87725 56.3995 8.10814C57.4845 9.25727 58.6407 10.4409 59.4638 11.797C61.1205 14.527 61.1111 19.0365 58.3284 21.0538C57.3699 21.749 56.3323 21.8737 55.1974 21.698C54.6469 21.577 54.1257 21.3986 53.5926 21.2199C53.0199 21.4926 52.549 21.5052 51.9364 21.3952C51.7496 19.7333 51.9472 17.6239 51.9166 15.9243C51.9038 15.2082 52.637 15.3826 53.1662 15.4451C53.5861 16.7202 53.5585 18.9916 54.81 19.8118C56.688 21.0425 58.0898 19.158 58.1199 17.397C58.1994 12.6766 52.3993 10.9503 51.8183 6.38945C51.4744 3.68728 52.4364 0.586082 55.4795 0.126551Z" fill="var(--fill-0, black)"/>
<path id="Vector_5" d="M17.8974 0.020762C18.9978 -0.101289 20.4683 0.40036 21.6926 0.328187C23.2043 0.239059 24.8315 0.486918 26.3344 0.175191C26.8343 0.07153 27.2714 0.011419 27.7837 0.0223931C27.8472 0.534027 27.8716 4.29674 27.7594 4.71089C27.5538 4.88964 26.974 4.82864 26.6789 4.82192C26.0611 3.73681 26.545 1.87846 24.8777 1.93655C24.7208 1.94203 24.5586 1.93724 24.4007 1.93946C24.3465 5.75838 24.3969 9.70068 24.3964 13.5295L24.393 16.6915C24.3912 17.4156 24.3335 18.9385 24.5065 19.5529C24.678 19.8887 25.012 19.9199 25.1837 20.2555C25.2984 20.4795 25.2754 21.1633 25.1985 21.3942C25.0587 21.4567 24.3428 21.4777 24.1886 21.463C23.7158 21.4181 20.6021 21.5443 20.4026 21.4051C20.133 20.8798 20.268 20.2862 20.7305 19.9147C21.4008 19.3763 21.2044 18.0663 21.2034 17.2722L21.2052 13.7511C21.2079 9.83153 21.2434 5.85824 21.1975 1.94288C20.7458 1.9274 20.3441 1.88449 19.9427 2.14066C19.3265 2.5339 19.1559 4.07004 19.0097 4.81391C18.7112 4.82429 18.1002 4.87773 17.8604 4.73605C17.7192 4.40327 17.7562 0.491169 17.8974 0.020762Z" fill="var(--fill-0, black)"/>
<path id="Vector_6" d="M12.1887 0.334407C12.7814 0.293871 13.7539 0.319478 14.3665 0.320022C15.1894 0.320763 16.227 0.284924 17.0205 0.348297C17.0437 0.67861 17.0349 1.0851 17.0364 1.42154C16.7411 1.69204 16.222 2.13462 16.1972 2.54368C16.1475 3.36496 16.1659 4.24082 16.1656 5.06388L16.1656 10.0482L16.162 15.9732C16.1616 16.9987 16.1437 18.0563 16.1927 19.0835C16.2324 19.9128 17.0199 19.9036 17.055 20.6593C17.0641 20.855 17.0652 21.2818 16.9332 21.4219C16.4151 21.4932 12.5977 21.5197 12.1882 21.4068C12.0499 21.208 12.0982 20.6032 12.1053 20.3374C12.2242 20.1403 12.6987 19.6491 12.8899 19.424C13.0181 18.8988 12.9769 17.1177 12.976 16.4806L12.9703 11.5129L12.9752 5.56865C12.9758 4.81721 13.0179 3.06149 12.9241 2.38979C12.7479 2.1186 12.3336 1.67098 12.1078 1.4125C12.0991 1.12519 12.0614 0.575048 12.1887 0.334407Z" fill="var(--fill-0, black)"/>
<path id="Subtract_2" d="M73.3063 0.12463C73.8981 -0.00367681 74.4843 0.367236 74.6208 0.957638C74.7571 1.54822 74.3938 2.13912 73.8053 2.28381C73.4177 2.37903 73.0092 2.25815 72.735 1.9674C72.4613 1.67644 72.365 1.26021 72.4831 0.878536C72.6017 0.497204 72.9163 0.209355 73.3063 0.12463ZM73.3385 0.367794C71.782 1.32081 73.2996 2.26128 73.8737 2.04162C73.9675 1.92431 73.95 1.9801 73.9391 1.83264C73.8314 1.66978 73.6289 1.38757 73.4313 1.3424C73.3162 1.52964 73.3432 1.70915 73.2399 1.7965C73.1913 1.76045 73.1595 1.74703 73.1442 1.68908C73.1368 1.45113 73.0996 0.947704 73.1618 0.742794C73.3115 0.60756 73.6865 0.564795 73.8639 0.702755C74.0729 1.02109 73.7557 1.45516 74.0807 1.73791L74.1657 1.72424C74.6336 0.95491 74.1884 0.341743 73.3385 0.367794Z" fill="var(--fill-0, black)"/>
</g>
</svg>
