<svg preserveAspectRatio="none" width="100%" height="100%" overflow="visible" style="display: block;" viewBox="0 0 137.615 30.5981" fill="none" xmlns="http://www.w3.org/2000/svg">
<g id="Frame 2147224547">
<path id="Vector" fill-rule="evenodd" clip-rule="evenodd" d="M7.70936 4.31175H15.0397L19.5417 19.5473H19.6043L22.6881 4.31175H28.2286L23.573 26.2821H16.2676L11.6743 11.0796H11.6121L8.55705 26.2821H3.01661L7.70936 4.31175ZM64.6074 9.28578C63.4742 8.75239 61.9317 8.28119 59.7616 8.28119C57.4339 8.28119 55.5446 8.62466 55.5446 10.3898C55.5446 13.5028 64.074 12.3408 64.074 19.0143C64.074 25.0876 58.4382 26.6623 53.3406 26.6623C51.0751 26.6623 48.4618 26.1252 46.544 25.5254L47.9287 21.0568C49.0902 21.8138 51.4221 22.3172 53.3406 22.3172C55.1686 22.3172 58.029 21.9704 58.029 19.7045C58.029 16.178 49.4998 17.5006 49.4998 11.3034C49.4998 5.63518 54.4736 3.93576 59.2904 3.93576C61.9981 3.93576 64.5452 4.2209 66.0255 4.91119L64.6074 9.28578ZM30.3988 4.31175H36.2821L34.5544 12.717H41.5079L43.2407 4.31175H49.1236L44.5594 26.2821H38.6765L40.6272 16.8725H33.6691L31.7179 26.2821H25.8342L30.3988 4.31175Z" fill="var(--fill-0, black)"/>
<g id="DCB0129 DCB0160">
<path id="Vector_2" d="M131.226 27.299C130.522 27.299 129.918 27.1209 129.414 26.7647C128.912 26.4057 128.526 25.8885 128.255 25.2131C127.988 24.5349 127.854 23.7185 127.854 22.7639C127.857 21.8093 127.992 20.9971 128.26 20.3275C128.53 19.655 128.917 19.142 129.418 18.7887C129.923 18.4353 130.525 18.2586 131.226 18.2586C131.927 18.2586 132.53 18.4353 133.034 18.7887C133.539 19.142 133.925 19.655 134.193 20.3275C134.463 21 134.599 21.8121 134.599 22.7639C134.599 23.7213 134.463 24.5392 134.193 25.2174C133.925 25.8927 133.539 26.4085 133.034 26.7647C132.533 27.1209 131.93 27.299 131.226 27.299ZM131.226 25.9611C131.773 25.9611 132.205 25.6918 132.521 25.1533C132.841 24.6118 133 23.8154 133 22.7639C133 22.0686 132.927 21.4844 132.782 21.0114C132.637 20.5383 132.432 20.1821 132.167 19.9428C131.902 19.7006 131.588 19.5794 131.226 19.5794C130.682 19.5794 130.252 19.8502 129.935 20.3916C129.619 20.9302 129.459 21.7209 129.457 22.7639C129.454 23.462 129.524 24.0491 129.666 24.5249C129.811 25.0008 130.017 25.3599 130.282 25.6021C130.547 25.8415 130.861 25.9611 131.226 25.9611Z" fill="var(--fill-0, black)"/>
<path id="Vector_3" d="M123.15 27.252C122.732 27.2492 122.323 27.1765 121.924 27.034C121.525 26.8887 121.166 26.6536 120.847 26.3287C120.527 26.001 120.274 25.5665 120.086 25.025C119.898 24.4808 119.805 23.8068 119.808 23.0032C119.808 22.2538 119.888 21.5856 120.047 20.9985C120.207 20.4115 120.436 19.9157 120.735 19.5111C121.035 19.1036 121.395 18.793 121.817 18.5792C122.241 18.3655 122.716 18.2586 123.24 18.2586C123.79 18.2586 124.277 18.3669 124.702 18.5835C125.13 18.8001 125.474 19.0964 125.736 19.4726C125.999 19.8459 126.161 20.2676 126.224 20.7378H124.664C124.584 20.4016 124.42 20.1337 124.172 19.9342C123.927 19.7319 123.616 19.6307 123.24 19.6307C122.633 19.6307 122.166 19.8943 121.838 20.4215C121.513 20.9487 121.35 21.6725 121.347 22.5929H121.406C121.546 22.3421 121.727 22.127 121.949 21.9475C122.172 21.7679 122.422 21.6297 122.702 21.5328C122.984 21.4331 123.282 21.3832 123.595 21.3832C124.108 21.3832 124.568 21.5058 124.976 21.7508C125.386 21.9959 125.711 22.3336 125.95 22.7639C126.19 23.1913 126.308 23.6815 126.305 24.2343C126.308 24.8099 126.177 25.3271 125.912 25.7859C125.647 26.2418 125.278 26.6009 124.805 26.863C124.332 27.1252 123.78 27.2549 123.15 27.252ZM123.142 25.9697C123.453 25.9697 123.73 25.8942 123.975 25.7431C124.22 25.5921 124.414 25.3884 124.557 25.1319C124.699 24.8754 124.769 24.5876 124.766 24.2685C124.769 23.955 124.701 23.6715 124.561 23.4179C124.424 23.1642 124.235 22.9634 123.993 22.8152C123.75 22.667 123.474 22.5929 123.163 22.5929C122.932 22.5929 122.717 22.6371 122.518 22.7254C122.318 22.8137 122.145 22.9363 121.996 23.093C121.848 23.2469 121.731 23.4264 121.646 23.6316C121.563 23.8339 121.52 24.0505 121.518 24.2813C121.52 24.5862 121.592 24.8669 121.731 25.1234C121.871 25.3798 122.063 25.585 122.308 25.7389C122.553 25.8927 122.831 25.9697 123.142 25.9697Z" fill="var(--fill-0, black)"/>
<path id="Vector_4" d="M117.481 18.3785V27.1325H115.895V19.9215H115.844L113.796 21.2295V19.7762L115.972 18.3785H117.481Z" fill="var(--fill-0, black)"/>
<path id="Vector_5" d="M108.885 27.299C108.182 27.299 107.577 27.1209 107.073 26.7647C106.572 26.4057 106.185 25.8885 105.915 25.2131C105.647 24.5349 105.513 23.7185 105.513 22.7639C105.516 21.8093 105.651 20.9971 105.919 20.3275C106.19 19.655 106.576 19.142 107.077 18.7887C107.582 18.4353 108.184 18.2586 108.885 18.2586C109.586 18.2586 110.189 18.4353 110.693 18.7887C111.198 19.142 111.584 19.655 111.852 20.3275C112.123 21 112.258 21.8121 112.258 22.7639C112.258 23.7213 112.123 24.5392 111.852 25.2174C111.584 25.8927 111.198 26.4085 110.693 26.7647C110.192 27.1209 109.589 27.299 108.885 27.299ZM108.885 25.9611C109.433 25.9611 109.864 25.6918 110.181 25.1533C110.5 24.6118 110.659 23.8154 110.659 22.7639C110.659 22.0686 110.587 21.4844 110.441 21.0114C110.296 20.5383 110.091 20.1821 109.826 19.9428C109.561 19.7006 109.247 19.5794 108.885 19.5794C108.341 19.5794 107.911 19.8502 107.595 20.3916C107.278 20.9302 107.119 21.7209 107.116 22.7639C107.113 23.462 107.183 24.0491 107.325 24.5249C107.471 25.0008 107.676 25.3599 107.941 25.6021C108.206 25.8415 108.521 25.9611 108.885 25.9611Z" fill="var(--fill-0, black)"/>
<path id="Vector_6" d="M97.5838 27.1325V18.3785H100.935C101.568 18.3785 102.093 18.4782 102.512 18.6777C102.934 18.8743 103.249 19.1436 103.457 19.4856C103.668 19.8275 103.773 20.2151 103.773 20.6482C103.773 21.0044 103.705 21.3093 103.568 21.5629C103.431 21.8137 103.247 22.0174 103.017 22.1742C102.786 22.3309 102.528 22.4435 102.243 22.5118V22.5973C102.554 22.6144 102.851 22.7099 103.136 22.8837C103.424 23.0547 103.659 23.2969 103.842 23.6104C104.024 23.9238 104.115 24.3028 104.115 24.7474C104.115 25.2004 104.005 25.6079 103.786 25.9698C103.567 26.3289 103.236 26.6124 102.794 26.8204C102.353 27.0285 101.797 27.1325 101.127 27.1325H97.5838ZM99.1697 25.8074H100.875C101.451 25.8074 101.865 25.6977 102.119 25.4783C102.375 25.256 102.504 24.9711 102.504 24.6234C102.504 24.3641 102.44 24.1304 102.311 23.9224C102.183 23.7115 102.001 23.5462 101.764 23.4266C101.528 23.304 101.246 23.2428 100.918 23.2428H99.1697V25.8074ZM99.1697 22.1015H100.738C101.012 22.1015 101.258 22.0516 101.478 21.9519C101.697 21.8493 101.87 21.7054 101.995 21.5202C102.123 21.3321 102.187 21.1098 102.187 20.8534C102.187 20.5143 102.068 20.235 101.828 20.0156C101.592 19.7962 101.24 19.6865 100.773 19.6865H99.1697V22.1015Z" fill="var(--fill-0, black)"/>
<path id="Vector_7" d="M95.891 21.3319H94.2923C94.2467 21.0698 94.1627 20.8375 94.0401 20.6352C93.9176 20.43 93.7652 20.2562 93.5828 20.1137C93.4004 19.9713 93.1924 19.8644 92.9587 19.7932C92.7279 19.7191 92.4786 19.682 92.2107 19.682C91.7348 19.682 91.3131 19.8017 90.9455 20.0411C90.5779 20.2776 90.2901 20.6252 90.082 21.084C89.874 21.54 89.77 22.0971 89.77 22.7553C89.77 23.425 89.874 23.9892 90.082 24.448C90.2929 24.9039 90.5807 25.2487 90.9455 25.4824C91.3131 25.7132 91.7334 25.8286 92.2064 25.8286C92.4686 25.8286 92.7137 25.7944 92.9416 25.726C93.1724 25.6548 93.379 25.5508 93.5614 25.414C93.7466 25.2772 93.9019 25.1091 94.0273 24.9096C94.1556 24.7102 94.2439 24.4822 94.2923 24.2257L95.891 24.2343C95.8311 24.6503 95.7015 25.0407 95.502 25.4055C95.3054 25.7702 95.0475 26.0922 94.7283 26.3715C94.4092 26.6479 94.0359 26.8645 93.6084 27.0212C93.181 27.1751 92.7065 27.252 92.1851 27.252C91.4157 27.252 90.7289 27.0739 90.1248 26.7177C89.5207 26.3615 89.0448 25.8472 88.6971 25.1746C88.3495 24.5021 88.1757 23.6957 88.1757 22.7553C88.1757 21.8121 88.3509 21.0057 88.7014 20.336C89.0519 19.6635 89.5292 19.1491 90.1333 18.7929C90.7374 18.4367 91.4214 18.2586 92.1851 18.2586C92.6723 18.2586 93.1254 18.327 93.5443 18.4638C93.9632 18.6006 94.3365 18.8015 94.6642 19.0665C94.9919 19.3287 95.2612 19.6507 95.4721 20.0325C95.6858 20.4115 95.8254 20.8447 95.891 21.3319Z" fill="var(--fill-0, black)"/>
<path id="Vector_8" d="M82.4023 27.1325H79.4358V18.3785H82.4621C83.3312 18.3785 84.0778 18.5537 84.7019 18.9042C85.3288 19.2519 85.8104 19.752 86.1466 20.4046C86.4829 21.0571 86.651 21.8379 86.651 22.7469C86.651 23.6588 86.4815 24.4425 86.1424 25.0979C85.8061 25.7533 85.3203 26.2562 84.6848 26.6067C84.0522 26.9572 83.2913 27.1325 82.4023 27.1325ZM81.0216 25.7604H82.3253C82.9351 25.7604 83.4438 25.6493 83.8513 25.427C84.2588 25.2019 84.5651 24.867 84.7703 24.4225C84.9755 23.9751 85.078 23.4166 85.078 22.7469C85.078 22.0773 84.9755 21.5216 84.7703 21.0799C84.5651 20.6354 84.2616 20.3034 83.8598 20.084C83.4609 19.8617 82.9651 19.7506 82.3723 19.7506H81.0216V25.7604Z" fill="var(--fill-0, black)"/>
<path id="Vector_9" d="M130.698 3.29921C131.117 3.30206 131.525 3.37615 131.921 3.52148C132.32 3.66396 132.679 3.89763 132.998 4.22248C133.317 4.54449 133.571 4.9762 133.759 5.51763C133.947 6.05905 134.041 6.72871 134.041 7.5266C134.044 8.2789 133.964 8.9514 133.802 9.54412C133.642 10.134 133.413 10.6327 133.113 11.0402C132.814 11.4477 132.454 11.7583 132.032 11.972C131.61 12.1857 131.136 12.2926 130.609 12.2926C130.056 12.2926 129.566 12.1843 129.138 11.9677C128.714 11.7511 128.37 11.4548 128.108 11.0786C127.846 10.7025 127.685 10.2722 127.625 9.78776H129.185C129.265 10.1354 129.427 10.4118 129.673 10.617C129.92 10.8193 130.232 10.9205 130.609 10.9205C131.216 10.9205 131.683 10.6569 132.011 10.1297C132.338 9.60254 132.502 8.87019 132.502 7.93267H132.442C132.303 8.18344 132.122 8.4 131.9 8.58238C131.677 8.76191 131.425 8.90011 131.143 8.997C130.864 9.09388 130.567 9.14233 130.254 9.14233C129.741 9.14233 129.279 9.01979 128.869 8.77473C128.461 8.52966 128.138 8.19341 127.899 7.76597C127.662 7.33853 127.542 6.84982 127.54 6.29984C127.54 5.72992 127.671 5.21842 127.933 4.76533C128.198 4.30939 128.567 3.95034 129.04 3.68818C129.513 3.42317 130.066 3.29351 130.698 3.29921ZM130.703 4.58153C130.395 4.58153 130.117 4.65705 129.869 4.80807C129.624 4.95625 129.43 5.15858 129.288 5.41504C129.148 5.66866 129.078 5.95219 129.078 6.26565C129.081 6.57626 129.151 6.85837 129.288 7.11198C129.427 7.3656 129.617 7.56649 129.856 7.71467C130.099 7.86285 130.375 7.93694 130.686 7.93694C130.916 7.93694 131.132 7.89277 131.331 7.80444C131.53 7.7161 131.704 7.59357 131.852 7.43684C132.004 7.27726 132.12 7.09631 132.203 6.89399C132.288 6.69167 132.33 6.47794 132.327 6.25283C132.327 5.95362 132.256 5.6772 132.113 5.42359C131.974 5.16997 131.781 4.96623 131.536 4.81235C131.294 4.65847 131.016 4.58153 130.703 4.58153Z" fill="var(--fill-0, black)"/>
<path id="Vector_10" d="M119.943 12.1727V11.0272L122.982 8.0479C123.273 7.75439 123.515 7.49365 123.709 7.26568C123.903 7.03771 124.048 6.81687 124.145 6.60315C124.242 6.38943 124.29 6.16146 124.29 5.91924C124.29 5.64283 124.227 5.40631 124.102 5.20969C123.977 5.01022 123.804 4.85634 123.585 4.74805C123.365 4.63977 123.116 4.58563 122.837 4.58563C122.549 4.58563 122.297 4.64547 122.08 4.76515C121.864 4.88198 121.696 5.04869 121.576 5.26526C121.459 5.48183 121.401 5.73972 121.401 6.03893H119.892C119.892 5.48325 120.019 5.00024 120.272 4.5899C120.526 4.17956 120.875 3.86182 121.319 3.63671C121.767 3.41159 122.28 3.29903 122.858 3.29903C123.445 3.29903 123.961 3.40874 124.406 3.62816C124.85 3.84758 125.195 4.14821 125.44 4.53006C125.688 4.91191 125.812 5.3479 125.812 5.83803C125.812 6.16573 125.749 6.48774 125.624 6.80404C125.498 7.12035 125.278 7.47085 124.961 7.85555C124.648 8.24025 124.208 8.70616 123.64 9.25328L122.132 10.7878V10.8476H125.944V12.1727H119.943Z" fill="var(--fill-0, black)"/>
<path id="Vector_11" d="M117.481 3.41887V12.1729H115.895V4.96193H115.844L113.796 6.2699V4.8166L115.972 3.41887H117.481Z" fill="var(--fill-0, black)"/>
<path id="Vector_12" d="M108.885 12.3394C108.182 12.3394 107.577 12.1613 107.073 11.8051C106.572 11.4461 106.185 10.9289 105.915 10.2535C105.647 9.57529 105.513 8.75888 105.513 7.80426C105.516 6.84964 105.651 6.0375 105.919 5.36784C106.19 4.69534 106.576 4.18241 107.077 3.82906C107.582 3.4757 108.184 3.29903 108.885 3.29903C109.586 3.29903 110.189 3.4757 110.693 3.82906C111.198 4.18241 111.584 4.69534 111.852 5.36784C112.123 6.04035 112.258 6.85249 112.258 7.80426C112.258 8.76173 112.123 9.57956 111.852 10.2578C111.584 10.9331 111.198 11.4489 110.693 11.8051C110.192 12.1613 109.589 12.3394 108.885 12.3394ZM108.885 11.0015C109.433 11.0015 109.864 10.7322 110.181 10.1937C110.5 9.65223 110.659 8.85576 110.659 7.80426C110.659 7.10895 110.587 6.52478 110.441 6.05175C110.296 5.57871 110.091 5.22251 109.826 4.98315C109.561 4.74093 109.247 4.61982 108.885 4.61982C108.341 4.61982 107.911 4.89053 107.595 5.43196C107.278 5.97053 107.119 6.7613 107.116 7.80426C107.113 8.50241 107.183 9.08943 107.325 9.56531C107.471 10.0412 107.676 10.4003 107.941 10.6425C108.206 10.8818 108.521 11.0015 108.885 11.0015Z" fill="var(--fill-0, black)"/>
<path id="Vector_13" d="M97.5838 12.1729V3.41887H100.935C101.568 3.41887 102.093 3.5186 102.512 3.71808C102.934 3.9147 103.249 4.18399 103.457 4.52594C103.668 4.86789 103.773 5.25544 103.773 5.68858C103.773 6.04478 103.705 6.34969 103.568 6.6033C103.431 6.85407 103.247 7.05782 103.017 7.21454C102.786 7.37127 102.528 7.48383 102.243 7.55222V7.63771C102.554 7.65481 102.851 7.75027 103.136 7.9241C103.424 8.09507 103.659 8.33729 103.842 8.65075C104.024 8.9642 104.115 9.3432 104.115 9.78774C104.115 10.2408 104.005 10.6483 103.786 11.0102C103.567 11.3693 103.236 11.6528 102.794 11.8608C102.353 12.0689 101.797 12.1729 101.127 12.1729H97.5838ZM99.1697 10.8478H100.875C101.451 10.8478 101.865 10.7381 102.119 10.5187C102.375 10.2964 102.504 10.0114 102.504 9.66378C102.504 9.40447 102.44 9.1708 102.311 8.96278C102.183 8.75191 102.001 8.58663 101.764 8.46695C101.528 8.34441 101.246 8.28315 100.918 8.28315H99.1697V10.8478ZM99.1697 7.14188H100.738C101.012 7.14188 101.258 7.09201 101.478 6.99227C101.697 6.88969 101.87 6.74578 101.995 6.56056C102.123 6.37249 102.187 6.15022 102.187 5.89375C102.187 5.55465 102.068 5.27539 101.828 5.05597C101.592 4.83655 101.24 4.72684 100.773 4.72684H99.1697V7.14188Z" fill="var(--fill-0, black)"/>
<path id="Vector_14" d="M95.891 6.37233H94.2923C94.2467 6.11017 94.1627 5.87792 94.0401 5.6756C93.9176 5.47043 93.7652 5.2966 93.5828 5.15412C93.4004 5.01164 93.1924 4.90478 92.9587 4.83354C92.7279 4.75945 92.4786 4.72241 92.2107 4.72241C91.7348 4.72241 91.3131 4.84209 90.9455 5.08146C90.5779 5.31797 90.2901 5.66563 90.082 6.12441C89.874 6.58035 89.77 7.13745 89.77 7.79571C89.77 8.46537 89.874 9.02959 90.082 9.48838C90.2929 9.94431 90.5807 10.2891 90.9455 10.5228C91.3131 10.7536 91.7334 10.869 92.2064 10.869C92.4686 10.869 92.7137 10.8348 92.9416 10.7664C93.1724 10.6952 93.379 10.5912 93.5614 10.4544C93.7466 10.3176 93.9019 10.1495 94.0273 9.95001C94.1556 9.75054 94.2439 9.52257 94.2923 9.26611L95.891 9.27466C95.8311 9.6907 95.7015 10.0811 95.502 10.4458C95.3054 10.8106 95.0475 11.1326 94.7283 11.4119C94.4092 11.6883 94.0359 11.9048 93.6084 12.0616C93.181 12.2155 92.7065 12.2924 92.1851 12.2924C91.4157 12.2924 90.7289 12.1143 90.1248 11.7581C89.5207 11.4019 89.0448 10.8875 88.6971 10.215C88.3495 9.54252 88.1757 8.73608 88.1757 7.79571C88.1757 6.85249 88.3509 6.04605 88.7014 5.37639C89.0519 4.70388 89.5292 4.18953 90.1333 3.83333C90.7374 3.47713 91.4214 3.29903 92.1851 3.29903C92.6723 3.29903 93.1254 3.36742 93.5443 3.5042C93.9632 3.64098 94.3365 3.84188 94.6642 4.10689C94.9919 4.36906 95.2612 4.69106 95.4721 5.07291C95.6858 5.45191 95.8254 5.88505 95.891 6.37233Z" fill="var(--fill-0, black)"/>
<path id="Vector_15" d="M82.4023 12.1729H79.4358V3.41887H82.4621C83.3312 3.41887 84.0778 3.59412 84.7019 3.94462C85.3288 4.29227 85.8104 4.79238 86.1466 5.44494C86.4829 6.0975 86.651 6.87829 86.651 7.78732C86.651 8.69919 86.4815 9.48283 86.1424 10.1382C85.8061 10.7937 85.3203 11.2966 84.6848 11.6471C84.0522 11.9976 83.2913 12.1729 82.4023 12.1729ZM81.0216 10.8008H82.3253C82.9351 10.8008 83.4438 10.6896 83.8513 10.4674C84.2588 10.2423 84.5651 9.90742 84.7703 9.46288C84.9755 9.0155 85.078 8.45697 85.078 7.78732C85.078 7.11766 84.9755 6.56198 84.7703 6.12029C84.5651 5.67576 84.2616 5.34378 83.8598 5.12436C83.4609 4.90209 82.9651 4.79095 82.3723 4.79095H81.0216V10.8008Z" fill="var(--fill-0, black)"/>
</g>
</g>
</svg>
