<svg preserveAspectRatio="none" width="100%" height="100%" overflow="visible" style="display: block;" viewBox="0 0 46.7415 46.7427" fill="none" xmlns="http://www.w3.org/2000/svg">
<g id="GDPR">
<path id="Vector" d="M23.2686 1.67465e-05L24.1297 2.65466H26.9329L24.6702 4.29322L25.5313 6.93871L23.2686 5.30015L21.0059 6.93871L21.867 4.29322L19.6043 2.65466H22.4075L23.2686 1.67465e-05Z" fill="var(--fill-0, black)"/>
<path id="Vector_2" d="M23.2686 39.804L24.1297 42.4495H26.9329L24.6702 44.088L25.5313 46.7427L23.2686 45.1041L21.0059 46.7427L21.867 44.088L19.6043 42.4495H22.4075L23.2686 39.804Z" fill="var(--fill-0, black)"/>
<path id="Vector_3" d="M37.2218 33.5868L38.0921 36.2323H40.8861L38.6234 37.8708L39.4937 40.5255L37.2218 38.8869L34.9591 40.5255L35.8294 37.8708L33.5575 36.2323H36.3607L37.2218 33.5868Z" fill="var(--fill-0, black)"/>
<path id="Vector_4" d="M9.50633 33.5868L10.3766 36.2323H13.1798L10.9079 37.8708L11.7782 40.5255L9.50633 38.8869L7.24362 40.5255L8.11389 37.8708L5.84202 36.2323H8.64522L9.50633 33.5868Z" fill="var(--fill-0, black)"/>
<path id="Vector_5" d="M37.2218 5.94983L38.0921 8.60447H40.8861L38.6234 10.243L39.4937 12.8977L37.2218 11.2591L34.9591 12.8977L35.8294 10.243L33.5575 8.60447H36.3607L37.2218 5.94983Z" fill="var(--fill-0, black)"/>
<path id="Vector_6" d="M9.50633 5.94983L10.3766 8.60447H13.1798L10.9079 10.243L11.7782 12.8977L9.50633 11.2591L7.24362 12.8977L8.11389 10.243L5.84202 8.60447H8.64522L9.50633 5.94983Z" fill="var(--fill-0, black)"/>
<path id="Vector_7" d="M43.0772 20.0402L43.9475 22.6857H46.7415L44.4788 24.3242L45.3399 26.9789L43.0772 25.3403L40.8145 26.9789L41.6756 24.3242L39.4129 22.6857H42.2161L43.0772 20.0402Z" fill="var(--fill-0, black)"/>
<path id="Vector_8" d="M3.66439 20.0402L4.52551 22.6857H7.3287L5.06599 24.3242L5.92711 26.9789L3.66439 25.3403L1.40168 26.9789L2.2628 24.3242L8.44862e-05 22.6857H2.79412L3.66439 20.0402Z" fill="var(--fill-0, black)"/>
</g>
</svg>
