<svg preserveAspectRatio="none" width="100%" height="100%" overflow="visible" style="display: block;" viewBox="0 0 112.288 45.0001" fill="none" xmlns="http://www.w3.org/2000/svg">
<g id="Group 2117761310">
<path id="Vector" d="M22.4999 8.89828e-05C34.9262 8.89828e-05 44.9997 10.0737 44.9997 22.5001C44.9997 34.9265 34.9262 45.0001 22.4999 45.0001C10.0736 45.0001 0.000118044 34.9265 0.000118044 22.5001C0.000118044 10.0737 10.0736 8.89828e-05 22.4999 8.89828e-05ZM15.7624 26.405C14.3155 26.405 13.4446 27.1627 13.4442 28.2694C13.4442 29.3242 14.0535 29.7608 15.6399 30.1183C16.7993 30.3799 17.0178 30.6329 17.0178 31.0601C17.0177 31.5305 16.6427 31.7741 15.9804 31.7741C15.1873 31.7741 14.7597 31.3651 14.6637 30.633L13.3296 30.6943C13.4171 32.019 14.3682 32.8727 15.9633 32.8727C17.4362 32.8726 18.3596 32.1581 18.3598 30.9988C18.3598 30.0574 17.7933 29.4391 16.0762 29.0903C15.0653 28.8812 14.7863 28.6887 14.786 28.2271C14.786 27.7913 15.1523 27.5036 15.745 27.5036C16.4595 27.5036 16.8695 27.9213 16.9394 28.5661L18.264 28.497C18.1245 27.2767 17.3052 26.405 15.7624 26.405ZM22.1673 26.405C20.2843 26.405 19.1601 27.6511 19.1601 29.6475C19.1601 31.6438 20.2843 32.8727 22.1673 32.8727C24.0502 32.8726 25.1838 31.6438 25.1838 29.6475C25.1837 27.6513 24.0502 26.405 22.1673 26.405ZM28.8217 26.405C27.0438 26.4051 25.9025 27.6775 25.9025 29.6475C25.9025 31.6698 27.1048 32.8726 28.8045 32.8727C30.4084 32.8727 31.3594 31.984 31.6123 30.4762L30.2265 30.4228C30.1044 31.2595 29.6505 31.7567 28.8139 31.7569C27.8637 31.7569 27.2617 30.9551 27.2617 29.6475C27.2617 28.3575 27.837 27.5211 28.8217 27.5208C29.5886 27.5208 30.0592 27.9822 30.2076 28.7577L31.5857 28.7057C31.3154 27.2326 30.4432 26.405 28.8217 26.405ZM22.1673 27.5208C23.2045 27.521 23.8231 28.3051 23.8231 29.6475C23.8231 30.9898 23.2045 31.7567 22.1673 31.7569C21.1385 31.7569 20.5193 30.99 20.5193 29.6475C20.5193 28.3051 21.1387 27.5208 22.1673 27.5208ZM7.68268 22.7764C7.44241 22.7765 7.24682 22.9723 7.24634 23.2127C7.24634 23.4533 7.44209 23.6489 7.68268 23.6489H36.8339C37.0745 23.6489 37.2702 23.4533 37.2702 23.2127C37.2698 22.9723 37.0743 22.7764 36.8339 22.7764H7.68268ZM21.6838 11.5844C19.9055 11.5844 18.763 12.8584 18.763 14.8286C18.7634 16.8502 19.9656 18.0534 21.665 18.0538C23.2691 18.0538 24.22 17.1637 24.4728 15.6556L23.087 15.6038C22.9649 16.4407 22.5113 16.9379 21.6745 16.9379C20.7244 16.9379 20.1225 16.1356 20.1222 14.8286C20.1222 13.5383 20.6988 12.7002 21.6838 12.7002C22.4506 12.7005 22.9215 13.1629 23.0697 13.9387L24.4462 13.8868C24.1758 12.4138 23.3048 11.5847 21.6838 11.5844ZM9.61621 17.9141H10.9848L11.4384 16.5972H13.8177L14.2713 17.9141H15.6492L13.4176 11.724H11.848L9.61621 17.9141ZM16.5047 17.9141H17.8309V11.724H16.5047V17.9141ZM25.427 17.9141H26.7516V15.7781H27.9021C29.3839 15.7781 30.2828 15.0023 30.2829 13.7471C30.2829 12.4918 29.3841 11.724 27.9021 11.724H25.427V17.9141ZM30.1323 17.9141H31.5024L31.9543 16.5972H34.3353L34.7888 17.9141H36.1653L33.9335 11.724H32.364L30.1323 17.9141ZM13.4521 15.5081H11.8135L12.6328 13.1194L13.4521 15.5081ZM33.9681 15.5081H32.3294L33.1488 13.1194L33.9681 15.5081ZM27.8235 12.84C28.521 12.84 28.9222 13.1456 28.9222 13.7471C28.922 14.3485 28.5209 14.6621 27.8235 14.6621H26.7516V12.84H27.8235Z" fill="var(--fill-0, black)"/>
<g id="Group 2117761347">
<path id="Vector_2" d="M57.2013 13.1911C57.1605 12.8098 56.9889 12.5131 56.6862 12.3006C56.3864 12.088 55.9964 11.9818 55.5161 11.9818C55.1785 11.9818 54.889 12.0329 54.6475 12.1347C54.4059 12.2365 54.221 12.3748 54.093 12.5493C53.965 12.7241 53.8996 12.9234 53.8967 13.1474C53.8967 13.3338 53.9388 13.4953 54.0231 13.6321C54.1106 13.7688 54.2284 13.8853 54.3769 13.9814C54.5253 14.0745 54.6897 14.153 54.8701 14.2171C55.0505 14.281 55.2325 14.335 55.4158 14.3786L56.2541 14.5881C56.5917 14.6667 56.916 14.7729 57.2275 14.9068C57.5418 15.0406 57.8227 15.2095 58.0701 15.4132C58.3204 15.6169 58.5182 15.8629 58.6637 16.151C58.8092 16.4391 58.8821 16.7767 58.8821 17.1638C58.8821 17.6877 58.7482 18.149 58.4804 18.5476C58.2127 18.9435 57.8256 19.2534 57.3191 19.4776C56.8157 19.6987 56.206 19.8094 55.49 19.8094C54.7944 19.8094 54.1906 19.7017 53.6783 19.4862C53.169 19.2709 52.7703 18.9565 52.4822 18.5433C52.197 18.1301 52.0427 17.6265 52.0195 17.0328H53.6128C53.6362 17.3442 53.7322 17.6033 53.901 17.8098C54.0698 18.0165 54.2894 18.1708 54.5602 18.2727C54.8337 18.3746 55.1394 18.4254 55.477 18.4254C55.829 18.4254 56.1376 18.373 56.4023 18.2682C56.6702 18.1607 56.8798 18.0122 57.031 17.8231C57.1824 17.631 57.2595 17.4068 57.2624 17.1508C57.2595 16.9178 57.1911 16.7257 57.0573 16.5745C56.9234 16.4202 56.7356 16.2921 56.4941 16.1903C56.2554 16.0855 55.9761 15.9924 55.6558 15.9108L54.6387 15.649C53.9025 15.4598 53.3204 15.1731 52.8926 14.7889C52.4676 14.4018 52.2552 13.8881 52.2552 13.2479C52.2552 12.7211 52.3978 12.2598 52.683 11.864C52.9711 11.4681 53.3625 11.1611 53.8573 10.9429C54.3521 10.7216 54.9122 10.6111 55.538 10.6111C56.1725 10.6111 56.7284 10.7216 57.2057 10.9429C57.6859 11.1611 58.0627 11.4652 58.3364 11.8552C58.6099 12.2423 58.7511 12.6876 58.7597 13.1911H57.2013ZM68.3149 15.2036C68.3149 16.167 68.1345 16.992 67.7735 17.6789C67.4155 18.3629 66.9266 18.8868 66.3068 19.2505C65.6896 19.6144 64.9897 19.7962 64.2069 19.7962C63.424 19.7962 62.7226 19.6144 62.1028 19.2505C61.4856 18.8838 60.9968 18.3584 60.6358 17.6746C60.278 16.9877 60.0989 16.1641 60.0989 15.2036C60.0989 14.2403 60.278 13.4166 60.6358 12.7328C60.9968 12.0459 61.4856 11.5205 62.1028 11.1568C62.7226 10.7929 63.424 10.6111 64.2069 10.6111C64.9897 10.6111 65.6896 10.7929 66.3068 11.1568C66.9266 11.5205 67.4155 12.0459 67.7735 12.7328C68.1345 13.4166 68.3149 14.2403 68.3149 15.2036ZM66.6865 15.2036C66.6865 14.5255 66.5803 13.9537 66.3678 13.4879C66.1583 13.0194 65.8673 12.6658 65.4946 12.4272C65.1221 12.1856 64.693 12.0648 64.2069 12.0648C63.7209 12.0648 63.2915 12.1856 62.919 12.4272C62.5465 12.6658 62.254 13.0194 62.0416 13.4879C61.832 13.9537 61.7272 14.5255 61.7272 15.2036C61.7272 15.8818 61.832 16.4551 62.0416 16.9236C62.254 17.3894 62.5465 17.743 62.919 17.9846C63.2915 18.2232 63.7209 18.3425 64.2069 18.3425C64.693 18.3425 65.1221 18.2232 65.4946 17.9846C65.8673 17.743 66.1583 17.3894 66.3678 16.9236C66.5803 16.4551 66.6865 15.8818 66.6865 15.2036ZM77.4987 13.7499H75.866C75.8195 13.4821 75.7337 13.245 75.6085 13.0383C75.4834 12.8289 75.3277 12.6512 75.1413 12.5057C74.9551 12.3602 74.7427 12.2511 74.5041 12.1784C74.2684 12.1026 74.0136 12.0648 73.7401 12.0648C73.254 12.0648 72.8233 12.187 72.4479 12.4315C72.0725 12.673 71.7785 13.0282 71.566 13.4967C71.3536 13.9623 71.2474 14.5314 71.2474 15.2036C71.2474 15.8876 71.3536 16.4639 71.566 16.9324C71.7814 17.398 72.0754 17.7502 72.4479 17.9889C72.8233 18.2246 73.2526 18.3425 73.7358 18.3425C74.0034 18.3425 74.2538 18.3076 74.4866 18.2377C74.7223 18.165 74.9333 18.0588 75.1195 17.9191C75.3087 17.7793 75.4674 17.6076 75.5954 17.4039C75.7263 17.2002 75.8166 16.9673 75.866 16.7054L77.4987 16.7142C77.4377 17.1391 77.3053 17.5377 77.1015 17.9103C76.9007 18.2828 76.6373 18.6117 76.3114 18.8969C75.9854 19.1792 75.6042 19.4005 75.1676 19.5604C74.7311 19.7176 74.2465 19.7962 73.7139 19.7962C72.9281 19.7962 72.2268 19.6144 71.6098 19.2505C70.9927 18.8868 70.5066 18.3614 70.1516 17.6746C69.7965 16.9877 69.619 16.1641 69.619 15.2036C69.619 14.2403 69.7981 13.4166 70.1559 12.7328C70.514 12.0459 71.0014 11.5205 71.6184 11.1568C72.2354 10.7929 72.9339 10.6111 73.7139 10.6111C74.2115 10.6111 74.6744 10.6809 75.1022 10.8206C75.53 10.9603 75.9112 11.1656 76.2459 11.4362C76.5806 11.7039 76.8556 12.0329 77.0709 12.4227C77.2893 12.8098 77.4319 13.2522 77.4987 13.7499ZM81.944 19.674V18.504L85.0479 15.4612C85.3448 15.1614 85.592 14.8952 85.79 14.6623C85.9879 14.4295 86.1363 14.2039 86.2353 13.9857C86.3343 13.7673 86.3837 13.5345 86.3837 13.2873C86.3837 13.0048 86.3196 12.7632 86.1916 12.5626C86.0636 12.3588 85.8875 12.2016 85.6633 12.091C85.4393 11.9805 85.1847 11.9251 84.8995 11.9251C84.6055 11.9251 84.348 11.9863 84.1267 12.1085C83.9056 12.2279 83.7339 12.3981 83.6116 12.6193C83.4923 12.8404 83.4326 13.1038 83.4326 13.4094H81.8916C81.8916 12.8419 82.0211 12.3487 82.2801 11.9294C82.5391 11.5104 82.8957 11.1859 83.3497 10.956C83.8066 10.7261 84.3304 10.6111 84.9213 10.6111C85.5207 10.6111 86.0475 10.7232 86.5016 10.9472C86.9557 11.1714 87.3077 11.4784 87.558 11.8684C87.8113 12.2583 87.9379 12.7036 87.9379 13.2043C87.9379 13.539 87.8738 13.8678 87.7458 14.1908C87.6177 14.5138 87.3921 14.8719 87.0691 15.2648C86.749 15.6577 86.2994 16.1335 85.7202 16.6924L84.1791 18.2595V18.3206H88.0731V19.674H81.944Z" fill="var(--fill-0, black)"/>
<path id="Vector_3" d="M60.2476 27.5796H58.6148C58.5683 27.3118 58.4824 27.0747 58.3573 26.868C58.2321 26.6586 58.0764 26.4809 57.8902 26.3354C57.7039 26.1899 57.4914 26.0808 57.2527 26.0081C57.017 25.9323 56.7624 25.8945 56.4889 25.8945C56.0028 25.8945 55.5721 26.0167 55.1965 26.2612C54.8211 26.5027 54.5272 26.8579 54.3148 27.3264C54.1023 27.792 53.9961 28.361 53.9961 29.0333C53.9961 29.7173 54.1023 30.2936 54.3148 30.7621C54.5301 31.2277 54.8241 31.5799 55.1965 31.8186C55.5721 32.0543 56.0013 32.1722 56.4844 32.1722C56.7523 32.1722 57.0024 32.1373 57.2352 32.0674C57.4711 31.9947 57.6821 31.8885 57.8683 31.7488C58.0575 31.609 58.2161 31.4373 58.3441 31.2336C58.4752 31.0299 58.5654 30.797 58.6148 30.5351L60.2476 30.5439C60.1864 30.9688 60.0539 31.3674 59.8503 31.74C59.6495 32.1125 59.3861 32.4414 59.06 32.7266C58.7341 33.0089 58.3528 33.2302 57.9163 33.3901C57.4797 33.5473 56.9952 33.6259 56.4626 33.6259C55.6767 33.6259 54.9754 33.4441 54.3584 33.0802C53.7415 32.7164 53.2554 32.1911 52.9003 31.5043C52.5453 30.8174 52.3677 29.9938 52.3677 29.0333C52.3677 28.07 52.5467 27.2463 52.9048 26.5625C53.2626 25.8756 53.7502 25.3502 54.3672 24.9865C54.9842 24.6226 55.6826 24.4408 56.4626 24.4408C56.9603 24.4408 57.423 24.5106 57.8508 24.6503C58.2786 24.79 58.6599 24.9953 58.9946 25.2659C59.3292 25.5336 59.6043 25.8626 59.8197 26.2524C60.0379 26.6395 60.1806 27.0819 60.2476 27.5796ZM64.5857 33.6346C63.9309 33.6346 63.3634 33.4906 62.8832 33.2025C62.403 32.9144 62.0304 32.5113 61.7656 31.9931C61.5036 31.4751 61.3727 30.8698 61.3727 30.1771C61.3727 29.4845 61.5036 28.8777 61.7656 28.3567C62.0304 27.8358 62.403 27.4312 62.8832 27.1431C63.3634 26.8549 63.9309 26.7108 64.5857 26.7108C65.2406 26.7108 65.8081 26.8549 66.2883 27.1431C66.7685 27.4312 67.1396 27.8358 67.4015 28.3567C67.6664 28.8777 67.7987 29.4845 67.7987 30.1771C67.7987 30.8698 67.6664 31.4751 67.4015 31.9931C67.1396 32.5113 66.7685 32.9144 66.2883 33.2025C65.8081 33.4906 65.2406 33.6346 64.5857 33.6346ZM64.5945 32.3687C64.9496 32.3687 65.2465 32.2711 65.4851 32.0761C65.7238 31.8782 65.9012 31.6134 66.0176 31.2817C66.137 30.9499 66.1966 30.5802 66.1966 30.1728C66.1966 29.7623 66.137 29.3914 66.0176 29.0596C65.9012 28.7249 65.7238 28.4586 65.4851 28.2607C65.2465 28.0628 64.9496 27.9638 64.5945 27.9638C64.2307 27.9638 63.928 28.0628 63.6865 28.2607C63.4478 28.4586 63.2688 28.7249 63.1495 29.0596C63.0331 29.3914 62.9748 29.7623 62.9748 30.1728C62.9748 30.5802 63.0331 30.9499 63.1495 31.2817C63.2688 31.6134 63.4478 31.8782 63.6865 32.0761C63.928 32.2711 64.2307 32.3687 64.5945 32.3687ZM69.1401 33.5037V26.7982H70.6506V27.9375H70.7291C70.8688 27.5534 71.1002 27.2537 71.4232 27.0383C71.7463 26.8201 72.132 26.7108 72.58 26.7108C73.0341 26.7108 73.4169 26.8214 73.7282 27.0427C74.0425 27.2609 74.2638 27.5592 74.3918 27.9375H74.4617C74.6101 27.565 74.8603 27.2682 75.2125 27.047C75.5676 26.823 75.9881 26.7108 76.4741 26.7108C77.0911 26.7108 77.5946 26.9058 77.9846 27.2958C78.3747 27.6858 78.5697 28.2549 78.5697 29.0028V33.5037H76.9849V29.2472C76.9849 28.8311 76.8744 28.527 76.6531 28.3349C76.432 28.1399 76.1612 28.0423 75.8412 28.0423C75.4599 28.0423 75.1616 28.1617 74.9462 28.4004C74.7338 28.6361 74.6275 28.9431 74.6275 29.3215V33.5037H73.0778V29.1818C73.0778 28.8354 72.973 28.559 72.7635 28.3523C72.5568 28.1458 72.2862 28.0423 71.9516 28.0423C71.7244 28.0423 71.5179 28.1006 71.3315 28.2171C71.1453 28.3305 70.9968 28.492 70.8863 28.7016C70.7757 28.9083 70.7204 29.1498 70.7204 29.4263V33.5037H69.1401ZM80.1729 36.0183V26.7982H81.727V27.9071H81.8186C81.9001 27.7441 82.0152 27.5709 82.1634 27.3876C82.3119 27.2013 82.5127 27.0427 82.766 26.9117C83.0192 26.7778 83.3422 26.7108 83.7351 26.7108C84.2532 26.7108 84.7203 26.8433 85.1364 27.1082C85.5555 27.37 85.8872 27.7587 86.1317 28.2738C86.3791 28.7859 86.5028 29.4146 86.5028 30.1597C86.5028 30.8959 86.382 31.5217 86.1405 32.0369C85.8989 32.552 85.5701 32.945 85.1539 33.2156C84.7377 33.4862 84.2662 33.6216 83.7394 33.6216C83.3553 33.6216 83.0366 33.5575 82.7835 33.4295C82.5303 33.3015 82.3265 33.1472 82.1722 32.9668C82.0208 32.7833 81.903 32.6103 81.8186 32.4472H81.7532V36.0183H80.1729ZM81.7226 30.151C81.7226 30.5846 81.7837 30.9643 81.9059 31.2904C82.0311 31.6163 82.2102 31.871 82.443 32.0543C82.6787 32.2347 82.9639 32.3251 83.2986 32.3251C83.6479 32.3251 83.9403 32.2318 84.176 32.0455C84.4117 31.8564 84.5892 31.5988 84.7086 31.2729C84.8308 30.944 84.8919 30.57 84.8919 30.151C84.8919 29.7347 84.8323 29.3651 84.7129 29.0421C84.5937 28.7191 84.4162 28.4658 84.1803 28.2825C83.9446 28.0992 83.6508 28.0075 83.2986 28.0075C82.961 28.0075 82.6742 28.0963 82.4385 28.2738C82.2028 28.4512 82.0238 28.7002 81.9016 29.0203C81.7822 29.3404 81.7226 29.7173 81.7226 30.151ZM89.4365 24.563V33.5037H87.8562V24.563H89.4365ZM91.0615 33.5037V26.7982H92.6418V33.5037H91.0615ZM91.8561 25.8464C91.6058 25.8464 91.3903 25.7636 91.2099 25.5976C91.0295 25.4289 90.9393 25.2265 90.9393 24.9908C90.9393 24.7522 91.0295 24.5499 91.2099 24.384C91.3903 24.2152 91.6058 24.1309 91.8561 24.1309C92.1094 24.1309 92.3246 24.2152 92.5021 24.384C92.6827 24.5499 92.7729 24.7522 92.7729 24.9908C92.7729 25.2265 92.6827 25.4289 92.5021 25.5976C92.3246 25.7636 92.1094 25.8464 91.8561 25.8464ZM96.1966 33.6391C95.7715 33.6391 95.3889 33.5633 95.0484 33.4119C94.7108 33.2578 94.4431 33.0307 94.2452 32.731C94.0502 32.4312 93.9526 32.0617 93.9526 31.6222C93.9526 31.2439 94.0225 30.931 94.1622 30.6836C94.3019 30.4362 94.4924 30.2383 94.734 30.0898C94.9755 29.9414 95.2477 29.8293 95.5504 29.7537C95.856 29.6751 96.1718 29.6184 96.4978 29.5835C96.8907 29.5426 97.2092 29.5063 97.4537 29.4742C97.6982 29.4393 97.8758 29.3869 97.9863 29.3172C98.0999 29.2443 98.1566 29.1323 98.1566 28.9809V28.9548C98.1566 28.626 98.0592 28.3712 97.8642 28.1908C97.6692 28.0104 97.3882 27.9202 97.0216 27.9202C96.6345 27.9202 96.3275 28.0045 96.1005 28.1733C95.8763 28.3421 95.725 28.5415 95.6464 28.7715L94.1709 28.5619C94.2873 28.1544 94.4794 27.8138 94.7472 27.5403C95.0149 27.2639 95.3423 27.0572 95.7294 26.9204C96.1165 26.7807 96.5443 26.7108 97.0128 26.7108C97.3359 26.7108 97.6575 26.7488 97.9776 26.8244C98.2978 26.9001 98.5902 27.0252 98.8551 27.1998C99.1199 27.3716 99.3324 27.6058 99.4924 27.9027C99.6554 28.1995 99.7369 28.5706 99.7369 29.0158V33.5037H98.2177V32.5826H98.1653C98.0693 32.7689 97.9339 32.9434 97.7594 33.1065C97.5877 33.2664 97.3709 33.396 97.1089 33.4949C96.8498 33.591 96.5457 33.6391 96.1966 33.6391ZM96.6069 32.4778C96.924 32.4778 97.1991 32.4153 97.4319 32.29C97.6647 32.162 97.8437 31.9931 97.969 31.7837C98.097 31.5741 98.161 31.3456 98.161 31.0983V30.3082C98.1116 30.3489 98.027 30.3867 97.9078 30.4216C97.7913 30.4565 97.6604 30.487 97.5149 30.5133C97.3693 30.5394 97.2254 30.5628 97.0828 30.5831C96.9402 30.6035 96.8165 30.621 96.7117 30.6355C96.4759 30.6676 96.2649 30.7198 96.0785 30.7927C95.8923 30.8654 95.7454 30.9672 95.6377 31.0983C95.53 31.2263 95.4762 31.3921 95.4762 31.5959C95.4762 31.8869 95.5824 32.1067 95.7949 32.2551C96.0073 32.4036 96.278 32.4778 96.6069 32.4778ZM102.906 29.5747V33.5037H101.326V26.7982H102.836V27.9375H102.915C103.069 27.5621 103.315 27.2639 103.653 27.0427C103.993 26.8214 104.414 26.7108 104.914 26.7108C105.377 26.7108 105.78 26.8098 106.124 27.0077C106.47 27.2056 106.738 27.4924 106.927 27.8678C107.119 28.2432 107.214 28.6987 107.211 29.2342V33.5037H105.63V29.4787C105.63 29.0304 105.514 28.6798 105.281 28.4265C105.051 28.1733 104.733 28.0468 104.325 28.0468C104.049 28.0468 103.803 28.1078 103.587 28.2301C103.375 28.3494 103.208 28.5226 103.085 28.7495C102.966 28.9766 102.906 29.2517 102.906 29.5747ZM112.166 26.7982V28.0205H108.311V26.7982H112.166ZM109.263 25.1917H110.843V31.4868C110.843 31.6993 110.875 31.8622 110.939 31.9758C111.006 32.0864 111.093 32.162 111.201 32.2027C111.308 32.2435 111.428 32.2639 111.559 32.2639C111.658 32.2639 111.748 32.2565 111.829 32.2421C111.914 32.2275 111.978 32.2144 112.021 32.2027L112.288 33.4382C112.203 33.4673 112.083 33.4994 111.925 33.5343C111.771 33.5692 111.582 33.5896 111.358 33.5954C110.962 33.607 110.606 33.5473 110.288 33.4164C109.971 33.2826 109.719 33.0759 109.533 32.7965C109.35 32.5171 109.26 32.1679 109.263 31.7488V25.1917Z" fill="var(--fill-0, black)"/>
</g>
</g>
</svg>
