<svg preserveAspectRatio="none" width="100%" height="100%" overflow="visible" style="display: block;" viewBox="0 0 59.7838 21" fill="none" xmlns="http://www.w3.org/2000/svg">
<g id="MHRA Class I &#38; IIa">
<path id="Vector" d="M56.7115 21C56.3427 21 56.0106 20.9343 55.7151 20.803C55.4222 20.6692 55.1898 20.4722 55.0181 20.212C54.8489 19.9519 54.7643 19.6311 54.7643 19.2498C54.7643 18.9215 54.8249 18.65 54.9461 18.4353C55.0673 18.2206 55.2328 18.0489 55.4424 17.9201C55.652 17.7913 55.8881 17.694 56.1508 17.6284C56.416 17.5602 56.69 17.5109 56.9729 17.4806C57.3138 17.4453 57.5904 17.4137 57.8025 17.3859C58.0146 17.3556 58.1687 17.3102 58.2647 17.2496C58.3632 17.1864 58.4124 17.0892 58.4124 16.9578V16.9351C58.4124 16.6497 58.3278 16.4287 58.1586 16.2722C57.9894 16.1156 57.7457 16.0373 57.4275 16.0373C57.0916 16.0373 56.8251 16.1105 56.6281 16.257C56.4337 16.4035 56.3023 16.5765 56.2341 16.776L54.9537 16.5942C55.0547 16.2406 55.2214 15.9451 55.4537 15.7077C55.6861 15.4678 55.9702 15.2885 56.3061 15.1698C56.642 15.0485 57.0133 14.9879 57.4199 14.9879C57.7002 14.9879 57.9793 15.0207 58.2571 15.0864C58.5349 15.1521 58.7887 15.2607 59.0186 15.4122C59.2484 15.5612 59.4327 15.7645 59.5717 16.0221C59.7131 16.2797 59.7838 16.6017 59.7838 16.9882V20.8826H58.4655V20.0832H58.42C58.3367 20.2449 58.2192 20.3964 58.0677 20.5378C57.9187 20.6767 57.7305 20.7891 57.5032 20.875C57.2785 20.9583 57.0145 21 56.7115 21ZM57.0676 19.9923C57.3429 19.9923 57.5815 19.938 57.7836 19.8294C57.9856 19.7183 58.1409 19.5718 58.2495 19.39C58.3607 19.2081 58.4162 19.0099 58.4162 18.7952V18.1095C58.3733 18.1449 58.3 18.1777 58.1965 18.208C58.0955 18.2383 57.9818 18.2648 57.8555 18.2876C57.7293 18.3103 57.6042 18.3305 57.4805 18.3482C57.3567 18.3658 57.2494 18.381 57.1585 18.3936C56.9539 18.4214 56.7708 18.4669 56.6092 18.53C56.4475 18.5931 56.32 18.6815 56.2266 18.7952C56.1331 18.9063 56.0864 19.0503 56.0864 19.2271C56.0864 19.4796 56.1786 19.6703 56.3629 19.7991C56.5473 19.9279 56.7822 19.9923 57.0676 19.9923Z" fill="var(--fill-0, black)"/>
<path id="Vector_2" d="M53.3616 13.1242V20.8827H51.9561V13.1242H53.3616Z" fill="var(--fill-0, black)"/>
<path id="Vector_3" d="M50.2216 13.1242V20.8827H48.8161V13.1242H50.2216Z" fill="var(--fill-0, black)"/>
<path id="Vector_4" d="M40.9275 20.9962C40.3972 20.9962 39.9413 20.9002 39.5599 20.7083C39.1786 20.5164 38.8844 20.2575 38.6773 19.9317C38.4727 19.6034 38.3704 19.2334 38.3704 18.8217C38.3704 18.5111 38.4335 18.2358 38.5598 17.9959C38.6886 17.7559 38.8654 17.5337 39.0902 17.3291C39.3175 17.1245 39.5801 16.9212 39.8782 16.7192L41.2533 15.7835C41.4554 15.6521 41.6082 15.5132 41.7117 15.3668C41.8178 15.2203 41.8708 15.0485 41.8708 14.8515C41.8708 14.6849 41.8001 14.527 41.6587 14.378C41.5198 14.229 41.3278 14.1545 41.0829 14.1545C40.9187 14.1545 40.7735 14.1936 40.6472 14.2719C40.5234 14.3477 40.4262 14.4475 40.3555 14.5712C40.2873 14.695 40.2532 14.8263 40.2532 14.9652C40.2532 15.1344 40.2999 15.3061 40.3934 15.4804C40.4893 15.6547 40.6131 15.8352 40.7646 16.0221C40.9187 16.209 41.0829 16.4073 41.2571 16.6169L44.8977 20.8826H43.4127L40.3896 17.42C40.1648 17.1574 39.9476 16.8985 39.738 16.6434C39.5309 16.3883 39.3604 16.1232 39.2266 15.8479C39.0952 15.5701 39.0296 15.2695 39.0296 14.9462C39.0296 14.58 39.1142 14.253 39.2834 13.9651C39.4526 13.6746 39.6887 13.4461 39.9918 13.2794C40.2974 13.1127 40.6548 13.0294 41.0639 13.0294C41.4731 13.0294 41.8241 13.1102 42.1171 13.2718C42.41 13.4334 42.6361 13.6481 42.7952 13.9158C42.9543 14.1835 43.0338 14.4752 43.0338 14.7909C43.0338 15.1571 42.9429 15.4855 42.7611 15.7759C42.5792 16.0638 42.3267 16.3252 42.0034 16.5601L40.435 17.7079C40.1774 17.8948 39.9931 18.0842 39.882 18.2762C39.7708 18.4656 39.7153 18.6272 39.7153 18.7611C39.7153 18.9657 39.767 19.1513 39.8706 19.318C39.9741 19.4847 40.1194 19.6185 40.3062 19.7195C40.4957 19.818 40.7166 19.8673 40.9692 19.8673C41.247 19.8673 41.521 19.8054 41.7913 19.6817C42.0615 19.5554 42.3077 19.3761 42.53 19.1437C42.7522 18.9114 42.929 18.6336 43.0604 18.3103C43.1917 17.9845 43.2574 17.6233 43.2574 17.2268H44.4355C44.4355 17.7168 44.3812 18.1436 44.2726 18.5073C44.164 18.8684 44.0239 19.174 43.8521 19.4241C43.6804 19.6716 43.4985 19.8698 43.3066 20.0188C43.246 20.0618 43.1879 20.1047 43.1323 20.1476C43.0768 20.1906 43.0187 20.2335 42.9581 20.2764C42.6853 20.5239 42.3658 20.7058 41.9996 20.822C41.6359 20.9381 41.2786 20.9962 40.9275 20.9962Z" fill="var(--fill-0, black)"/>
<path id="Vector_5" d="M34.0701 13.1242V20.8827H32.6646V13.1242H34.0701Z" fill="var(--fill-0, black)"/>
<path id="Vector_6" d="M28.2802 16.6017L27.03 16.7381C26.9946 16.6118 26.9328 16.4931 26.8444 16.382C26.7585 16.2709 26.6423 16.1812 26.4959 16.1131C26.3494 16.0449 26.1701 16.0108 25.9579 16.0108C25.6725 16.0108 25.4326 16.0726 25.2381 16.1964C25.0462 16.3201 24.9515 16.4805 24.954 16.6775C24.9515 16.8467 25.0133 16.9844 25.1396 17.0904C25.2684 17.1965 25.4806 17.2836 25.7761 17.3518L26.7686 17.564C27.3192 17.6827 27.7283 17.8708 27.996 18.1284C28.2663 18.386 28.4026 18.7232 28.4052 19.1399C28.4026 19.5061 28.2953 19.8294 28.0832 20.1097C27.8735 20.3876 27.5818 20.6047 27.2081 20.7613C26.8343 20.9179 26.4049 20.9962 25.92 20.9962C25.2078 20.9962 24.6345 20.8472 24.2001 20.5492C23.7657 20.2486 23.5069 19.8307 23.4235 19.2952L24.7608 19.1664C24.8214 19.4291 24.9502 19.6274 25.1472 19.7612C25.3442 19.8951 25.6005 19.962 25.9162 19.962C26.242 19.962 26.5034 19.8951 26.7004 19.7612C26.8999 19.6274 26.9997 19.4619 26.9997 19.2649C26.9997 19.0983 26.9353 18.9606 26.8065 18.852C26.6802 18.7434 26.4832 18.6601 26.2155 18.602L25.223 18.3936C24.6648 18.2775 24.2519 18.0817 23.9842 17.8064C23.7165 17.5286 23.5839 17.1776 23.5864 16.7533C23.5839 16.3947 23.6811 16.084 23.8781 15.8214C24.0776 15.5562 24.3542 15.3516 24.7078 15.2076C25.0639 15.0612 25.4743 14.9879 25.939 14.9879C26.6209 14.9879 27.1575 15.1331 27.549 15.4236C27.943 15.714 28.1867 16.1067 28.2802 16.6017Z" fill="var(--fill-0, black)"/>
<path id="Vector_7" d="M22.2089 16.6017L20.9588 16.7381C20.9234 16.6118 20.8615 16.4931 20.7731 16.382C20.6873 16.2709 20.5711 16.1812 20.4246 16.1131C20.2781 16.0449 20.0988 16.0108 19.8867 16.0108C19.6013 16.0108 19.3613 16.0726 19.1669 16.1964C18.9749 16.3201 18.8802 16.4805 18.8828 16.6775C18.8802 16.8467 18.9421 16.9844 19.0684 17.0904C19.1972 17.1965 19.4093 17.2836 19.7048 17.3518L20.6974 17.564C21.2479 17.6827 21.6571 17.8708 21.9248 18.1284C22.195 18.386 22.3314 18.7232 22.3339 19.1399C22.3314 19.5061 22.2241 19.8294 22.0119 20.1097C21.8023 20.3876 21.5106 20.6047 21.1368 20.7613C20.763 20.9179 20.3337 20.9962 19.8488 20.9962C19.1366 20.9962 18.5633 20.8472 18.1289 20.5492C17.6945 20.2486 17.4356 19.8307 17.3523 19.2952L18.6896 19.1664C18.7502 19.4291 18.879 19.6274 19.076 19.7612C19.273 19.8951 19.5293 19.962 19.845 19.962C20.1708 19.962 20.4322 19.8951 20.6292 19.7612C20.8287 19.6274 20.9285 19.4619 20.9285 19.2649C20.9285 19.0983 20.8641 18.9606 20.7352 18.852C20.609 18.7434 20.412 18.6601 20.1443 18.602L19.1517 18.3936C18.5936 18.2775 18.1807 18.0817 17.9129 17.8064C17.6452 17.5286 17.5126 17.1776 17.5152 16.7533C17.5126 16.3947 17.6099 16.084 17.8069 15.8214C18.0064 15.5562 18.2829 15.3516 18.6365 15.2076C18.9926 15.0612 19.403 14.9879 19.8677 14.9879C20.5496 14.9879 21.0863 15.1331 21.4778 15.4236C21.8717 15.714 22.1155 16.1067 22.2089 16.6017Z" fill="var(--fill-0, black)"/>
<path id="Vector_8" d="M12.9485 21C12.5798 21 12.2477 20.9343 11.9522 20.803C11.6592 20.6692 11.4269 20.4722 11.2552 20.212C11.0859 19.9519 11.0013 19.6311 11.0013 19.2498C11.0013 18.9215 11.0619 18.65 11.1832 18.4353C11.3044 18.2206 11.4698 18.0489 11.6794 17.9201C11.8891 17.7913 12.1252 17.694 12.3879 17.6284C12.653 17.5602 12.9271 17.5109 13.2099 17.4806C13.5509 17.4453 13.8274 17.4137 14.0396 17.3859C14.2517 17.3556 14.4058 17.3102 14.5018 17.2496C14.6002 17.1864 14.6495 17.0892 14.6495 16.9578V16.9351C14.6495 16.6497 14.5649 16.4287 14.3957 16.2722C14.2265 16.1156 13.9827 16.0373 13.6645 16.0373C13.3286 16.0373 13.0622 16.1105 12.8652 16.257C12.6707 16.4035 12.5394 16.5765 12.4712 16.776L11.1907 16.5942C11.2918 16.2406 11.4585 15.9451 11.6908 15.7077C11.9232 15.4678 12.2073 15.2885 12.5432 15.1698C12.8791 15.0485 13.2503 14.9879 13.657 14.9879C13.9373 14.9879 14.2164 15.0207 14.4942 15.0864C14.772 15.1521 15.0258 15.2607 15.2556 15.4122C15.4855 15.5612 15.6698 15.7645 15.8087 16.0221C15.9502 16.2797 16.0209 16.6017 16.0209 16.9882V20.8826H14.7025V20.0832H14.6571C14.5737 20.2449 14.4563 20.3964 14.3048 20.5378C14.1557 20.6767 13.9676 20.7891 13.7403 20.875C13.5155 20.9583 13.2516 21 12.9485 21ZM13.3046 19.9923C13.5799 19.9923 13.8186 19.938 14.0206 19.8294C14.2227 19.7183 14.378 19.5718 14.4866 19.39C14.5977 19.2081 14.6533 19.0099 14.6533 18.7952V18.1095C14.6103 18.1449 14.5371 18.1777 14.4336 18.208C14.3325 18.2383 14.2189 18.2648 14.0926 18.2876C13.9663 18.3103 13.8413 18.3305 13.7176 18.3482C13.5938 18.3658 13.4865 18.381 13.3956 18.3936C13.191 18.4214 13.0079 18.4669 12.8462 18.53C12.6846 18.5931 12.5571 18.6815 12.4636 18.7952C12.3702 18.9063 12.3235 19.0503 12.3235 19.2271C12.3235 19.4796 12.4156 19.6703 12.6 19.7991C12.7844 19.9279 13.0193 19.9923 13.3046 19.9923Z" fill="var(--fill-0, black)"/>
<path id="Vector_9" d="M9.64661 13.1242V20.8827H8.27524V13.1242H9.64661Z" fill="var(--fill-0, black)"/>
<path id="Vector_10" d="M6.83794 15.7417H5.4211C5.38069 15.5094 5.30619 15.3036 5.19759 15.1242C5.08899 14.9424 4.95387 14.7883 4.79224 14.6621C4.6306 14.5358 4.44624 14.4411 4.23914 14.3779C4.03457 14.3123 3.81359 14.2794 3.57619 14.2794C3.15442 14.2794 2.78064 14.3855 2.45484 14.5977C2.12904 14.8073 1.87396 15.1154 1.6896 15.522C1.50523 15.9261 1.41305 16.4199 1.41305 17.0033C1.41305 17.5968 1.50523 18.0968 1.6896 18.5034C1.87649 18.9075 2.13157 19.2131 2.45484 19.4202C2.78064 19.6248 3.15315 19.7271 3.5724 19.7271C3.80475 19.7271 4.02195 19.6968 4.22399 19.6361C4.42856 19.573 4.61166 19.4808 4.7733 19.3596C4.93746 19.2384 5.0751 19.0894 5.18623 18.9126C5.29988 18.7358 5.37817 18.5337 5.4211 18.3064L6.83794 18.314C6.7849 18.6828 6.66999 19.0288 6.4932 19.352C6.31894 19.6753 6.09037 19.9607 5.80751 20.2082C5.52465 20.4532 5.1938 20.6451 4.81497 20.784C4.43614 20.9204 4.01563 20.9886 3.55346 20.9886C2.87156 20.9886 2.2629 20.8307 1.72748 20.515C1.19206 20.1993 0.770294 19.7435 0.462176 19.1475C0.154059 18.5514 0 17.8367 0 17.0033C0 16.1673 0.155322 15.4526 0.465965 14.8591C0.776608 14.263 1.19964 13.8072 1.73506 13.4915C2.27047 13.1758 2.87661 13.0179 3.55346 13.0179C3.98532 13.0179 4.38689 13.0785 4.75814 13.1998C5.1294 13.321 5.46025 13.499 5.75069 13.7339C6.04113 13.9663 6.27979 14.2517 6.46668 14.5901C6.6561 14.926 6.77985 15.3099 6.83794 15.7417Z" fill="var(--fill-0, black)"/>
<path id="Vector_11" d="M26.3781 7.7585H24.8779L27.6093 0H29.3444L32.0795 7.7585H30.5794L28.5071 1.5911H28.4465L26.3781 7.7585ZM26.4274 4.71647H30.5188V5.8454H26.4274V4.71647Z" fill="var(--fill-0, black)"/>
<path id="Vector_12" d="M18.2324 7.7585V0H21.1418C21.7378 0 22.2379 0.103548 22.642 0.310644C23.0486 0.517739 23.3555 0.808177 23.5626 1.18196C23.7722 1.55322 23.877 1.98635 23.877 2.48136C23.877 2.97889 23.7709 3.41076 23.5588 3.77697C23.3492 4.14065 23.0398 4.42224 22.6306 4.62176C22.2215 4.81876 21.7189 4.91725 21.1229 4.91725H19.0507V3.75045H20.9335C21.282 3.75045 21.5674 3.70246 21.7896 3.60649C22.0119 3.508 22.176 3.3653 22.2821 3.17841C22.3907 2.98899 22.445 2.75664 22.445 2.48136C22.445 2.20607 22.3907 1.9712 22.2821 1.77673C22.1735 1.57973 22.0081 1.43073 21.7858 1.3297C21.5636 1.22616 21.2769 1.17438 20.9259 1.17438H19.6378V7.7585H18.2324ZM22.2404 4.24293L24.1611 7.7585H22.5927L20.7062 4.24293H22.2404Z" fill="var(--fill-0, black)"/>
<path id="Vector_13" d="M10.0765 7.7585V0H11.4819V3.28448H15.0771V0H16.4863V7.7585H15.0771V4.46265H11.4819V7.7585H10.0765Z" fill="var(--fill-0, black)"/>
<path id="Vector_14" d="M0.197651 0H1.91755L4.22086 5.62188H4.31178L6.61509 0H8.33499V7.7585H6.98634V2.42832H6.91436L4.77017 7.73577H3.76247L1.61828 2.41696H1.5463V7.7585H0.197651V0Z" fill="var(--fill-0, black)"/>
</g>
</svg>
