<svg preserveAspectRatio="none" width="100%" height="100%" overflow="visible" style="display: block;" viewBox="0 0 44.0736 45" fill="none" xmlns="http://www.w3.org/2000/svg">
<g id="Group 2117761303">
<path id="Vector" d="M17.3365 30.6088C16.6561 30.6088 16.1442 30.4282 15.801 30.0669C15.4578 29.7117 15.2863 29.1667 15.2863 28.4322V22.1549C15.2863 21.4263 15.4578 20.8844 15.801 20.5292C16.1442 20.1679 16.6561 19.9872 17.3365 19.9872H25.5918C26.2721 19.9872 26.7839 20.1679 27.1271 20.5292C27.4703 20.8844 27.642 21.4263 27.642 22.1549V28.4322C27.642 29.1667 27.4703 29.7117 27.1271 30.0669C26.7839 30.4282 26.2721 30.6088 25.5918 30.6088H17.3365ZM16.939 20.782L16.9481 18.0273C16.9481 17.0097 17.1529 16.1456 17.5623 15.4351C17.9718 14.7185 18.5196 14.1736 19.2061 13.8004C19.8925 13.427 20.6451 13.2404 21.4641 13.2404C22.283 13.2404 23.0356 13.427 23.7221 13.8004C24.4085 14.1736 24.9565 14.7185 25.366 15.4351C25.7813 16.1456 25.9891 17.0097 25.9891 18.0273V20.782H24.0563L24.0653 17.9189C24.0653 17.3229 23.9449 16.814 23.704 16.3924C23.4692 15.971 23.1562 15.6519 22.7647 15.4351C22.3733 15.2123 21.9398 15.1009 21.4641 15.1009C20.9884 15.1009 20.5518 15.2123 20.1545 15.4351C19.7631 15.6519 19.45 15.971 19.2151 16.3924C18.9863 16.814 18.8719 17.3229 18.8719 17.9189V20.782H16.939Z" fill="var(--fill-0, black)"/>
<path id="Vector_2" d="M19.1956 9.28514C19.0809 9.19762 19.01 9.08133 18.9828 8.93644C18.9585 8.7945 18.9783 8.63142 19.0417 8.4472L19.9022 5.89264L17.71 4.32102C17.5469 4.20326 17.4322 4.07945 17.3658 3.9496C17.2993 3.81976 17.2918 3.68539 17.3431 3.54649C17.3884 3.4076 17.4745 3.30493 17.6013 3.2385C17.7311 3.17207 17.8942 3.14036 18.0904 3.14337L20.7855 3.1615L21.6008 0.588815C21.6642 0.39859 21.7457 0.253638 21.8453 0.154001C21.9479 0.0513338 22.0718 0 22.2167 0C22.3647 0 22.49 0.0513338 22.5926 0.154001C22.6954 0.253638 22.7768 0.39859 22.8373 0.588815L23.6571 3.1615L26.3475 3.14337C26.5438 3.14036 26.7054 3.17358 26.8322 3.24303C26.962 3.30946 27.0496 3.41061 27.0948 3.54649C27.1432 3.68539 27.1341 3.81976 27.0677 3.9496C27.0043 4.07945 26.891 4.20326 26.7281 4.32102L24.5357 5.89264L25.3964 8.4472C25.4598 8.63142 25.4794 8.7945 25.4553 8.93644C25.431 9.08133 25.3601 9.19762 25.2423 9.28514C25.1276 9.37578 24.9978 9.40904 24.8529 9.3848C24.7078 9.36069 24.5553 9.2898 24.3954 9.17196L22.2167 7.57304L20.0426 9.17196C19.8826 9.2898 19.7301 9.36069 19.5852 9.3848C19.4432 9.40904 19.3134 9.37578 19.1956 9.28514Z" fill="var(--fill-0, black)"/>
<path id="Vector_3" d="M7.99859 12.9464C7.88386 12.8589 7.81296 12.7426 7.78576 12.5977C7.76152 12.4558 7.78125 12.2927 7.84454 12.1085L8.70517 9.55394L6.51299 7.98222C6.34991 7.86452 6.23518 7.74063 6.16879 7.61081C6.10226 7.481 6.09479 7.34668 6.1461 7.2077C6.19134 7.06886 6.27746 6.96611 6.40432 6.89973C6.53413 6.83334 6.69721 6.80162 6.89341 6.80458L9.58836 6.82277L10.4037 4.25005C10.4672 4.05981 10.5486 3.91488 10.6483 3.81523C10.7509 3.71257 10.8748 3.66124 11.0197 3.66124C11.1677 3.66124 11.293 3.71257 11.3956 3.81523C11.4984 3.91488 11.5798 4.05981 11.6403 4.25005L12.4601 6.82277L15.1505 6.80458C15.3468 6.80162 15.5084 6.83475 15.6352 6.90424C15.765 6.97062 15.8526 7.07182 15.8978 7.2077C15.9461 7.34668 15.9371 7.481 15.8707 7.61081C15.8073 7.74063 15.694 7.86452 15.5309 7.98222L13.3387 9.55394L14.1994 12.1085C14.2628 12.2927 14.2824 12.4558 14.2583 12.5977C14.234 12.7426 14.1631 12.8589 14.0453 12.9464C13.9306 13.0371 13.8008 13.0702 13.6559 13.0461C13.5108 13.022 13.3583 12.951 13.1983 12.8333L11.0197 11.2343L8.84556 12.8333C8.68558 12.951 8.53307 13.022 8.38818 13.0461C8.24624 13.0702 8.11643 13.0371 7.99859 12.9464Z" fill="var(--fill-0, black)"/>
<path id="Vector_4" d="M30.0313 12.9464C29.9166 12.8589 29.8457 12.7426 29.8185 12.5977C29.7942 12.4558 29.814 12.2927 29.8774 12.1085L30.7379 9.55394L28.5457 7.98222C28.3826 7.86452 28.2679 7.74063 28.2015 7.61081C28.135 7.481 28.1275 7.34668 28.1788 7.2077C28.2241 7.06886 28.3102 6.96611 28.437 6.89973C28.5668 6.83334 28.7299 6.80162 28.9261 6.80458L31.6212 6.82277L32.4365 4.25005C32.4999 4.05981 32.5814 3.91488 32.681 3.81523C32.7836 3.71257 32.9075 3.66124 33.0524 3.66124C33.2004 3.66124 33.3257 3.71257 33.4283 3.81523C33.5311 3.91488 33.6125 4.05981 33.673 4.25005L34.4928 6.82277L37.1832 6.80458C37.3795 6.80162 37.5411 6.83475 37.6679 6.90424C37.7977 6.97062 37.8853 7.07182 37.9305 7.2077C37.9789 7.34668 37.9698 7.481 37.9035 7.61081C37.84 7.74063 37.7267 7.86452 37.5638 7.98222L35.3714 9.55394L36.2321 12.1085C36.2955 12.2927 36.3151 12.4558 36.291 12.5977C36.2668 12.7426 36.1959 12.8589 36.078 12.9464C35.9633 13.0371 35.8335 13.0702 35.6886 13.0461C35.5435 13.022 35.391 12.951 35.2311 12.8333L33.0524 11.2343L30.8783 12.8333C30.7183 12.951 30.5658 13.022 30.4209 13.0461C30.279 13.0702 30.1491 13.0371 30.0313 12.9464Z" fill="var(--fill-0, black)"/>
<path id="Vector_5" d="M36.1438 21.3125C36.0291 21.225 35.9582 21.1087 35.931 20.9638C35.9068 20.8219 35.9265 20.6588 35.9899 20.4747L36.8504 17.9202L34.6582 16.3485C34.4952 16.2306 34.3804 16.1069 34.314 15.9771C34.2475 15.8471 34.24 15.7128 34.2913 15.5739C34.3366 15.435 34.4227 15.3324 34.5496 15.266C34.6794 15.1994 34.8425 15.1677 35.0387 15.1708L37.7336 15.1889L38.549 12.6163C38.6124 12.426 38.6939 12.2811 38.7935 12.1814C38.8962 12.0787 39.02 12.0274 39.1649 12.0274C39.3129 12.0274 39.4382 12.0787 39.5409 12.1814C39.6436 12.2811 39.7251 12.426 39.7855 12.6163L40.6053 15.1889L43.2957 15.1708C43.4921 15.1677 43.6536 15.201 43.7805 15.2705C43.9103 15.3369 43.9978 15.4381 44.043 15.5739C44.0914 15.7128 44.0824 15.8471 44.016 15.9771C43.9526 16.1069 43.8392 16.2306 43.6762 16.3485L41.484 17.9202L42.3446 20.4747C42.408 20.6588 42.4276 20.8219 42.4035 20.9638C42.3793 21.1087 42.3084 21.225 42.1906 21.3125C42.0758 21.4032 41.946 21.4364 41.8011 21.4122C41.6561 21.3881 41.5036 21.3172 41.3436 21.1994L39.1649 19.6006L36.9908 21.1994C36.8308 21.3172 36.6783 21.3881 36.5334 21.4122C36.3915 21.4364 36.2617 21.4032 36.1438 21.3125Z" fill="var(--fill-0, black)"/>
<path id="Vector_6" d="M1.88613 21.3125C1.7714 21.225 1.70036 21.1087 1.67315 20.9638C1.64905 20.8219 1.66864 20.6588 1.73207 20.4747L2.59271 17.9202L0.400384 16.3485C0.237447 16.2306 0.122574 16.1069 0.0561871 15.9771C-0.0101999 15.8471 -0.0178109 15.7128 0.0336355 15.5739C0.0788801 15.435 0.164859 15.3324 0.291713 15.266C0.421527 15.1994 0.584605 15.1677 0.780947 15.1708L3.47589 15.1889L4.29114 12.6163C4.35457 12.426 4.43618 12.2811 4.53583 12.1814C4.63844 12.0787 4.76219 12.0274 4.90723 12.0274C5.05509 12.0274 5.18039 12.0787 5.28314 12.1814C5.38575 12.2811 5.46736 12.426 5.52769 12.6163L6.34759 15.1889L9.03802 15.1708C9.23422 15.1677 9.39575 15.201 9.5226 15.2705C9.65242 15.3369 9.74009 15.4381 9.78534 15.5739C9.83368 15.7128 9.82466 15.8471 9.75813 15.9771C9.6947 16.1069 9.58152 16.2306 9.41845 16.3485L7.22626 17.9202L8.08676 20.4747C8.15018 20.6588 8.16992 20.8219 8.14568 20.9638C8.12157 21.1087 8.05053 21.225 7.93284 21.3125C7.81811 21.4032 7.6883 21.4364 7.54326 21.4122C7.39836 21.3881 7.24586 21.3172 7.08588 21.1994L4.90723 19.6006L2.73309 21.1994C2.57297 21.3172 2.42061 21.3881 2.27557 21.4122C2.13364 21.4364 2.00382 21.4032 1.88613 21.3125Z" fill="var(--fill-0, black)"/>
<path id="Vector_7" d="M7.99866 40.0997C7.88393 40.0122 7.81289 39.8959 7.78583 39.751C7.76159 39.6091 7.78118 39.446 7.84461 39.2619L8.70524 36.7074L6.51306 35.1356C6.34998 35.0178 6.23525 34.894 6.16872 34.7642C6.10233 34.6343 6.09472 34.4999 6.14617 34.3611C6.19141 34.2221 6.27753 34.1195 6.40425 34.0531C6.5342 33.9866 6.69714 33.9549 6.89348 33.958L9.58843 33.976L10.4038 31.4034C10.4671 31.2132 10.5487 31.0683 10.6484 30.9686C10.751 30.8659 10.8749 30.8146 11.0198 30.8146C11.1678 30.8146 11.2931 30.8659 11.3957 30.9686C11.4983 31.0683 11.5799 31.2132 11.6402 31.4034L12.4601 33.976L15.1506 33.958C15.3468 33.9549 15.5084 33.9882 15.6351 34.0577C15.7651 34.124 15.8526 34.2252 15.8979 34.3611C15.9462 34.4999 15.9372 34.6343 15.8707 34.7642C15.8072 34.894 15.6941 35.0178 15.531 35.1356L13.3388 36.7074L14.1994 39.2619C14.2627 39.446 14.2825 39.6091 14.2582 39.751C14.2341 39.8959 14.1632 40.0122 14.0454 40.0997C13.9306 40.1903 13.8008 40.2236 13.6558 40.1994C13.5109 40.1753 13.3584 40.1044 13.1984 39.9865L11.0198 38.3877L8.84562 39.9865C8.68565 40.1044 8.53314 40.1753 8.38811 40.1994C8.24631 40.2236 8.11636 40.1903 7.99866 40.0997Z" fill="var(--fill-0, black)"/>
<path id="Vector_8" d="M30.0313 40.0997C29.9166 40.0122 29.8455 39.8959 29.8185 39.751C29.7942 39.6091 29.8138 39.446 29.8773 39.2619L30.7379 36.7074L28.5457 35.1356C28.3826 35.0178 28.2679 34.894 28.2014 34.7642C28.135 34.6343 28.1275 34.4999 28.1788 34.3611C28.2241 34.2221 28.3102 34.1195 28.4369 34.0531C28.5669 33.9866 28.7299 33.9549 28.9261 33.958L31.6211 33.976L32.4365 31.4034C32.4998 31.2132 32.5814 31.0683 32.681 30.9686C32.7836 30.8659 32.9075 30.8146 33.0524 30.8146C33.2004 30.8146 33.3257 30.8659 33.4283 30.9686C33.5311 31.0683 33.6126 31.2132 33.6729 31.4034L34.4928 33.976L37.1832 33.958C37.3796 33.9549 37.5411 33.9882 37.6678 34.0577C37.7977 34.124 37.8853 34.2252 37.9305 34.3611C37.9789 34.4999 37.9699 34.6343 37.9033 34.7642C37.84 34.894 37.7267 35.0178 37.5636 35.1356L35.3715 36.7074L36.2321 39.2619C36.2955 39.446 36.3151 39.6091 36.2909 39.751C36.2668 39.8959 36.1959 40.0122 36.078 40.0997C35.9633 40.1903 35.8335 40.2236 35.6884 40.1994C35.5436 40.1753 35.391 40.1044 35.2311 39.9865L33.0524 38.3877L30.8783 39.9865C30.7183 40.1044 30.5658 40.1753 30.4209 40.1994C30.279 40.2236 30.149 40.1903 30.0313 40.0997Z" fill="var(--fill-0, black)"/>
<path id="Vector_9" d="M19.1956 44.8927C19.0809 44.8052 19.01 44.6889 18.9828 44.544C18.9585 44.402 18.9783 44.239 19.0417 44.0547L19.9022 41.5002L17.71 39.9286C17.5469 39.8108 17.4322 39.687 17.3658 39.5572C17.2993 39.4272 17.2918 39.2929 17.3431 39.1541C17.3884 39.0151 17.4745 38.9125 17.6013 38.846C17.7311 38.7796 17.8942 38.7479 18.0904 38.751L20.7855 38.769L21.6008 36.1964C21.6642 36.0061 21.7457 35.8612 21.8453 35.7616C21.9479 35.6588 22.0718 35.6075 22.2167 35.6075C22.3647 35.6075 22.49 35.6588 22.5926 35.7616C22.6954 35.8612 22.7768 36.0061 22.8373 36.1964L23.6571 38.769L26.3475 38.751C26.5438 38.7479 26.7054 38.7811 26.8322 38.8506C26.962 38.917 27.0496 39.0182 27.0948 39.1541C27.1432 39.2929 27.1341 39.4272 27.0677 39.5572C27.0043 39.687 26.891 39.8108 26.7281 39.9286L24.5357 41.5002L25.3964 44.0547C25.4598 44.239 25.4794 44.402 25.4553 44.544C25.431 44.6889 25.3601 44.8052 25.2423 44.8927C25.1276 44.9833 24.9978 45.0166 24.8529 44.9923C24.7078 44.9682 24.5553 44.8973 24.3954 44.7795L22.2167 43.1806L20.0426 44.7795C19.8826 44.8973 19.7301 44.9682 19.5852 44.9923C19.4432 45.0166 19.3134 44.9833 19.1956 44.8927Z" fill="var(--fill-0, black)"/>
<path id="Vector_10" d="M36.1438 31.7243C36.0291 31.6366 35.9582 31.5205 35.931 31.3754C35.9068 31.2335 35.9265 31.0705 35.9899 30.8863L36.8504 28.3318L34.6582 26.76C34.4952 26.6422 34.3804 26.5185 34.314 26.3886C34.2475 26.2588 34.24 26.1244 34.2913 25.9855C34.3366 25.8466 34.4227 25.7439 34.5496 25.6776C34.6794 25.611 34.8425 25.5793 35.0387 25.5824L37.7336 25.6005L38.549 23.0279C38.6124 22.8376 38.6939 22.6927 38.7935 22.593C38.8962 22.4904 39.02 22.439 39.1649 22.439C39.3129 22.439 39.4382 22.4904 39.5409 22.593C39.6436 22.6927 39.7251 22.8376 39.7855 23.0279L40.6053 25.6005L43.2957 25.5824C43.4921 25.5793 43.6536 25.6126 43.7805 25.6821C43.9103 25.7485 43.9978 25.8497 44.043 25.9855C44.0914 26.1244 44.0824 26.2588 44.016 26.3886C43.9526 26.5185 43.8392 26.6422 43.6762 26.76L41.484 28.3318L42.3446 30.8863C42.408 31.0705 42.4276 31.2335 42.4035 31.3754C42.3793 31.5205 42.3084 31.6366 42.1906 31.7243C42.0758 31.8148 41.946 31.848 41.8011 31.8239C41.6561 31.7997 41.5036 31.7288 41.3436 31.6109L39.1649 30.0122L36.9908 31.6109C36.8308 31.7288 36.6783 31.7997 36.5334 31.8239C36.3915 31.848 36.2617 31.8148 36.1438 31.7243Z" fill="var(--fill-0, black)"/>
<path id="Vector_11" d="M1.88613 31.7243C1.7714 31.6366 1.70036 31.5205 1.67315 31.3754C1.64905 31.2335 1.66864 31.0705 1.73207 30.8863L2.59271 28.3318L0.400384 26.76C0.237447 26.6422 0.122574 26.5185 0.0561871 26.3886C-0.0101999 26.2588 -0.0178109 26.1244 0.0336355 25.9855C0.0788801 25.8466 0.164859 25.7439 0.291713 25.6776C0.421527 25.611 0.584605 25.5793 0.780947 25.5824L3.47589 25.6005L4.29114 23.0279C4.35457 22.8376 4.43618 22.6927 4.53583 22.593C4.63844 22.4904 4.76219 22.439 4.90723 22.439C5.05509 22.439 5.18039 22.4904 5.28314 22.593C5.38575 22.6927 5.46736 22.8376 5.52769 23.0279L6.34759 25.6005L9.03802 25.5824C9.23422 25.5793 9.39575 25.6126 9.5226 25.6821C9.65242 25.7485 9.74009 25.8497 9.78534 25.9855C9.83368 26.1244 9.82466 26.2588 9.75813 26.3886C9.6947 26.5185 9.58152 26.6422 9.41845 26.76L7.22626 28.3318L8.08676 30.8863C8.15018 31.0705 8.16992 31.2335 8.14568 31.3754C8.12157 31.5205 8.05053 31.6366 7.93284 31.7243C7.81811 31.8148 7.6883 31.848 7.54326 31.8239C7.39836 31.7997 7.24586 31.7288 7.08588 31.6109L4.90723 30.0122L2.73309 31.6109C2.57297 31.7288 2.42061 31.7997 2.27557 31.8239C2.13364 31.848 2.00382 31.8148 1.88613 31.7243Z" fill="var(--fill-0, black)"/>
</g>
</svg>
