<svg preserveAspectRatio="none" width="100%" height="100%" overflow="visible" style="display: block;" viewBox="0 0 52.1025 22" fill="none" xmlns="http://www.w3.org/2000/svg">
<g id="Group 2117761348">
<path id="Vector" d="M5.38309 2.57805C5.32002 2.37393 5.23313 2.19124 5.12228 2.02984C5.01384 1.86604 4.88277 1.72619 4.72908 1.6103C4.57792 1.4944 4.40401 1.40738 4.20747 1.3495C4.01081 1.28896 3.79657 1.25875 3.56477 1.25875C3.14895 1.25875 2.7785 1.36334 2.45343 1.57251C2.12835 1.78168 1.87247 2.08905 1.68605 2.49489C1.50202 2.89806 1.41007 3.38945 1.41007 3.96906C1.41007 4.55373 1.50202 5.04898 1.68605 5.45468C1.86994 5.86039 2.12582 6.16909 2.45343 6.38079C2.78103 6.58996 3.16159 6.69454 3.59498 6.69454C3.98818 6.69454 4.32842 6.61897 4.61571 6.46781C4.90552 6.31652 5.12853 6.10229 5.28475 5.82513C5.44097 5.54543 5.51921 5.21784 5.51921 4.84234L5.8367 4.89144H3.73483V3.79515H6.8762V4.72511C6.8762 5.38789 6.73515 5.96125 6.45292 6.44505C6.17056 6.92899 5.78255 7.30196 5.28861 7.56396C4.79455 7.82356 4.22757 7.9533 3.5874 7.9533C2.87431 7.9533 2.24798 7.79336 1.70867 7.47335C1.17189 7.15067 0.752342 6.69335 0.449888 6.10109C0.149963 5.50631 0 4.80069 0 3.98423C0 3.35925 0.088224 2.80106 0.264666 2.30967C0.443637 1.81827 0.693131 1.40113 1.01315 1.05836C1.33317 0.713205 1.70867 0.451076 2.13966 0.272109C2.57052 0.0907476 3.03931 0 3.54588 0C3.97435 0 4.3738 0.0629379 4.74425 0.188946C5.1147 0.312426 5.4435 0.488865 5.73078 0.718128C6.02059 0.947525 6.25878 1.21963 6.44533 1.53472C6.63175 1.84968 6.75404 2.1975 6.81192 2.57805H5.38309ZM10.8559 7.84751H8.23238V0.105783H10.9088C11.6774 0.105783 12.3377 0.2608 12.8896 0.570698C13.4441 0.878201 13.87 1.32049 14.1673 1.89758C14.4647 2.47466 14.6134 3.16524 14.6134 3.96906C14.6134 4.77554 14.4635 5.46852 14.1636 6.04813C13.8662 6.62775 13.4365 7.07257 12.8746 7.3826C12.315 7.6925 11.6421 7.84751 10.8559 7.84751ZM9.63487 6.63413H10.7879C11.3272 6.63413 11.7769 6.5358 12.1374 6.33927C12.4977 6.14021 12.7686 5.84402 12.9501 5.45096C13.1315 5.05524 13.2223 4.56132 13.2223 3.96906C13.2223 3.37694 13.1315 2.88542 12.9501 2.49489C12.7686 2.10169 12.5003 1.80816 12.145 1.61402C11.7921 1.41749 11.3536 1.3193 10.8294 1.3193H9.63487V6.63413ZM15.9459 7.84751V0.105783H18.8491C19.4439 0.105783 19.9429 0.216756 20.3461 0.438435C20.7518 0.660247 21.058 0.965222 21.2646 1.35323C21.4738 1.73884 21.5784 2.17727 21.5784 2.6688C21.5784 3.16524 21.4738 3.60621 21.2646 3.99182C21.0556 4.37729 20.7467 4.68107 20.3385 4.90275C19.9303 5.12203 19.4275 5.23167 18.8302 5.23167H16.9061V4.07871H18.6413C18.989 4.07871 19.2737 4.0183 19.4955 3.89721C19.7174 3.77626 19.8812 3.60993 19.9869 3.39823C20.0954 3.18667 20.1495 2.94343 20.1495 2.6688C20.1495 2.39403 20.0954 2.15212 19.9869 1.94295C19.8812 1.73378 19.716 1.57118 19.4918 1.45528C19.27 1.33686 18.9839 1.27765 18.6337 1.27765H17.3484V7.84751H15.9459ZM22.7966 7.84751V0.105783H25.6998C26.2946 0.105783 26.7935 0.209171 27.1967 0.415814C27.6026 0.622457 27.9088 0.912264 28.1154 1.28523C28.3246 1.65567 28.4292 2.08785 28.4292 2.58178C28.4292 3.07822 28.3232 3.50921 28.1115 3.87459C27.9024 4.23745 27.5937 4.51847 27.1854 4.71753C26.7772 4.91419 26.2757 5.01239 25.6809 5.01239H23.6132V3.84811H25.4919C25.8397 3.84811 26.1245 3.80021 26.3462 3.70454C26.568 3.60621 26.7318 3.46383 26.8377 3.27728C26.946 3.08834 27.0002 2.85655 27.0002 2.58178C27.0002 2.30714 26.946 2.07268 26.8377 1.87868C26.7293 1.68215 26.5643 1.53339 26.3425 1.43266C26.1206 1.32928 25.8347 1.27765 25.4843 1.27765H24.1991V7.84751H22.7966ZM26.7961 4.3395L28.7127 7.84751H27.1476L25.265 4.3395H26.7961Z" fill="var(--fill-0, black)"/>
<path id="Vector_2" d="M7.03944 14.693H5.62564C5.58532 14.4611 5.51107 14.2557 5.40262 14.0768C5.29431 13.8954 5.15952 13.7416 4.99811 13.6156C4.83684 13.4896 4.65294 13.3951 4.4463 13.3322C4.24218 13.2666 4.02156 13.2338 3.7847 13.2338C3.36382 13.2338 2.99085 13.3396 2.66577 13.5513C2.3407 13.7605 2.08615 14.068 1.90212 14.4737C1.71823 14.8769 1.62615 15.3696 1.62615 15.9517C1.62615 16.544 1.71823 17.043 1.90212 17.4487C2.08868 17.8518 2.34323 18.1568 2.66577 18.3635C2.99085 18.5676 3.36263 18.6696 3.78098 18.6696C4.01277 18.6696 4.22953 18.6394 4.43112 18.5789C4.63524 18.5159 4.81794 18.424 4.97922 18.303C5.14302 18.182 5.28047 18.0333 5.39131 17.8569C5.50468 17.6806 5.58279 17.4789 5.62564 17.2521L7.03944 17.2597C6.98661 17.6276 6.87191 17.9728 6.69547 18.2955C6.52155 18.618 6.29348 18.9028 6.01125 19.1497C5.72903 19.3941 5.3989 19.5857 5.02087 19.7243C4.64283 19.8604 4.22328 19.9284 3.76208 19.9284C3.08159 19.9284 2.47429 19.771 1.93991 19.4559C1.40566 19.1409 0.984779 18.686 0.677402 18.0913C0.369892 17.4966 0.216204 16.7834 0.216204 15.9517C0.216204 15.1176 0.371223 14.4044 0.681128 13.8123C0.991166 13.2175 1.41325 12.7625 1.9475 12.4476C2.48175 12.1325 3.08665 11.9751 3.76208 11.9751C4.19294 11.9751 4.59373 12.0355 4.96418 12.1564C5.33463 12.2774 5.66476 12.4552 5.95457 12.6895C6.24438 12.9213 6.48257 13.2062 6.66899 13.5437C6.85807 13.8789 6.98155 14.262 7.03944 14.693ZM10.7961 19.936C10.229 19.936 9.73757 19.8113 9.32175 19.5618C8.90592 19.3123 8.58337 18.9633 8.3541 18.5146C8.12723 18.0661 8.01386 17.5419 8.01386 16.9421C8.01386 16.3424 8.12723 15.8169 8.3541 15.3659C8.58337 14.9148 8.90592 14.5644 9.32175 14.315C9.73757 14.0655 10.229 13.9407 10.7961 13.9407C11.3631 13.9407 11.8545 14.0655 12.2703 14.315C12.6861 14.5644 13.0075 14.9148 13.2343 15.3659C13.4636 15.8169 13.5783 16.3424 13.5783 16.9421C13.5783 17.5419 13.4636 18.0661 13.2343 18.5146C13.0075 18.9633 12.6861 19.3123 12.2703 19.5618C11.8545 19.8113 11.3631 19.936 10.7961 19.936ZM10.8037 18.8398C11.111 18.8398 11.3681 18.7553 11.5748 18.5865C11.7814 18.4151 11.9351 18.1858 12.036 17.8985C12.1394 17.6113 12.191 17.2911 12.191 16.9384C12.191 16.583 12.1394 16.2618 12.036 15.9745C11.9351 15.6847 11.7814 15.4541 11.5748 15.2827C11.3681 15.1113 11.111 15.0256 10.8037 15.0256C10.4886 15.0256 10.2266 15.1113 10.0174 15.2827C9.81075 15.4541 9.65573 15.6847 9.55234 15.9745C9.45161 16.2618 9.40119 16.583 9.40119 16.9384C9.40119 17.2911 9.45161 17.6113 9.55234 17.8985C9.65573 18.1858 9.81075 18.4151 10.0174 18.5865C10.2266 18.7553 10.4886 18.8398 10.8037 18.8398ZM14.7398 19.8226V14.0164H16.0477V15.0029H16.1158C16.2368 14.6702 16.4371 14.4108 16.7169 14.2242C16.9966 14.0353 17.3304 13.9407 17.7186 13.9407C18.1118 13.9407 18.4431 14.0365 18.7128 14.2281C18.985 14.417 19.1764 14.6753 19.2874 15.0029H19.3478C19.4764 14.6803 19.6931 14.4233 19.9981 14.2318C20.3055 14.0378 20.6697 13.9407 21.0905 13.9407C21.6248 13.9407 22.0609 14.1095 22.3984 14.4472C22.7361 14.7849 22.905 15.2776 22.905 15.9253V19.8226H21.5328V16.137C21.5328 15.7766 21.437 15.5133 21.2456 15.347C21.054 15.1781 20.8196 15.0936 20.5425 15.0936C20.2123 15.0936 19.9539 15.197 19.7675 15.4037C19.5835 15.6078 19.4915 15.8736 19.4915 16.2012V19.8226H18.1496V16.0803C18.1496 15.7804 18.0588 15.541 17.8773 15.362C17.6984 15.1832 17.464 15.0936 17.1742 15.0936C16.9777 15.0936 16.7987 15.1441 16.6374 15.2449C16.4762 15.3431 16.3476 15.483 16.2518 15.6645C16.1562 15.8434 16.1082 16.0526 16.1082 16.292V19.8226H14.7398ZM24.2933 22V14.0164H25.6391V14.9765H25.7185C25.789 14.8354 25.8886 14.6854 26.0171 14.5267C26.1456 14.3654 26.3195 14.2281 26.5387 14.1146C26.758 13.9987 27.0377 13.9407 27.3779 13.9407C27.8266 13.9407 28.231 14.0554 28.5915 14.2848C28.9543 14.5115 29.2416 14.848 29.4533 15.294C29.6676 15.7375 29.7747 16.2819 29.7747 16.9271C29.7747 17.5646 29.6701 18.1064 29.4609 18.5525C29.2517 18.9986 28.967 19.3388 28.6065 19.5731C28.2462 19.8074 27.8379 19.9247 27.3818 19.9247C27.0491 19.9247 26.7732 19.8692 26.5539 19.7583C26.3346 19.6475 26.1583 19.5139 26.0247 19.3577C25.8936 19.1988 25.7915 19.049 25.7185 18.9078H25.6618V22H24.2933ZM25.6353 16.9195C25.6353 17.295 25.6882 17.6238 25.7941 17.9061C25.9024 18.1883 26.0574 18.4088 26.259 18.5676C26.4631 18.7238 26.7101 18.802 26.9999 18.802C27.3024 18.802 27.5557 18.7213 27.7598 18.56C27.9639 18.3962 28.1176 18.1732 28.221 17.891C28.3268 17.6062 28.3798 17.2823 28.3798 16.9195C28.3798 16.559 28.328 16.239 28.2248 15.9593C28.1214 15.6796 27.9677 15.4603 27.7636 15.3016C27.5594 15.1429 27.3049 15.0634 26.9999 15.0634C26.7076 15.0634 26.4594 15.1403 26.2553 15.294C26.0512 15.4477 25.8961 15.6633 25.7902 15.9404C25.687 16.2176 25.6353 16.544 25.6353 16.9195ZM32.315 12.0809V19.8226H30.9464V12.0809H32.315ZM33.7221 19.8226V14.0164H35.0906V19.8226H33.7221ZM34.4101 13.1922C34.1935 13.1922 34.0069 13.1205 33.8507 12.9768C33.6945 12.8307 33.6162 12.6554 33.6162 12.4513C33.6162 12.2447 33.6945 12.0696 33.8507 11.9259C34.0069 11.7798 34.1935 11.7067 34.4101 11.7067C34.6294 11.7067 34.8159 11.7798 34.9696 11.9259C35.1258 12.0696 35.2039 12.2447 35.2039 12.4513C35.2039 12.6554 35.1258 12.8307 34.9696 12.9768C34.8159 13.1205 34.6294 13.1922 34.4101 13.1922ZM38.1686 19.9398C37.8007 19.9398 37.4692 19.8742 37.1743 19.7432C36.882 19.6097 36.6502 19.413 36.4788 19.1536C36.31 18.894 36.2256 18.574 36.2256 18.1934C36.2256 17.8658 36.286 17.5949 36.407 17.3807C36.528 17.1664 36.693 16.9951 36.9022 16.8665C37.1114 16.738 37.3471 16.641 37.6092 16.5755C37.8737 16.5074 38.1472 16.4583 38.4294 16.4281C38.7696 16.3927 39.0456 16.3613 39.2573 16.3335C39.469 16.3033 39.6227 16.2579 39.7185 16.1975C39.8167 16.1344 39.8659 16.0374 39.8659 15.9064V15.8837C39.8659 15.599 39.7815 15.3784 39.6126 15.2222C39.4437 15.066 39.2006 14.9878 38.883 14.9878C38.5478 14.9878 38.282 15.0609 38.0854 15.207C37.8914 15.3532 37.7604 15.5258 37.6924 15.725L36.4146 15.5435C36.5154 15.1906 36.6817 14.8958 36.9135 14.6589C37.1455 14.4195 37.4289 14.2406 37.7641 14.1222C38.0993 14.0012 38.4697 13.9407 38.8756 13.9407C39.1553 13.9407 39.4338 13.9735 39.7109 14.039C39.9881 14.1046 40.2415 14.2129 40.4707 14.3641C40.7001 14.5128 40.884 14.7156 41.0227 14.9727C41.1639 15.2297 41.2344 15.5511 41.2344 15.9366V19.8226H39.9188V19.025H39.8735C39.7904 19.1863 39.6731 19.3375 39.522 19.4786C39.3732 19.6172 39.1855 19.7293 38.9587 19.815C38.7344 19.8982 38.471 19.9398 38.1686 19.9398ZM38.524 18.9343C38.7986 18.9343 39.0368 18.8801 39.2384 18.7717C39.44 18.6608 39.595 18.5146 39.7033 18.3332C39.8142 18.1518 39.8697 17.9539 39.8697 17.7398V17.0556C39.8268 17.0909 39.7538 17.1236 39.6504 17.1538C39.5497 17.184 39.4363 17.2105 39.3103 17.2332C39.1843 17.2559 39.0595 17.2761 38.936 17.2936C38.8125 17.3113 38.7054 17.3265 38.6146 17.339C38.4105 17.3668 38.2278 17.4121 38.0665 17.4751C37.9053 17.5381 37.7779 17.6263 37.6848 17.7398C37.5915 17.8506 37.5449 17.9942 37.5449 18.1706C37.5449 18.4227 37.6369 18.6129 37.8208 18.7415C38.0048 18.87 38.2391 18.9343 38.524 18.9343ZM43.9788 16.4205V19.8226H42.6104V14.0164H43.9183V15.0029H43.9864C44.1199 14.6778 44.3329 14.4195 44.6252 14.2281C44.9201 14.0365 45.2842 13.9407 45.7177 13.9407C46.1183 13.9407 46.4674 14.0263 46.7648 14.1977C47.0647 14.3691 47.2966 14.6174 47.4604 14.9425C47.6267 15.2675 47.7086 15.6619 47.7061 16.1256V19.8226H46.3376V16.3373C46.3376 15.9492 46.2369 15.6456 46.0352 15.4263C45.8361 15.207 45.5601 15.0975 45.2074 15.0975C44.968 15.0975 44.755 15.1503 44.5686 15.2562C44.3845 15.3595 44.2396 15.5094 44.1338 15.706C44.0304 15.9026 43.9788 16.1408 43.9788 16.4205ZM51.9967 14.0164V15.0747H48.6587V14.0164H51.9967ZM49.4827 12.6252H50.8513V18.0762C50.8513 18.2602 50.879 18.4012 50.9344 18.4996C50.9923 18.5954 51.0679 18.6608 51.1612 18.6961C51.2545 18.7314 51.3577 18.7491 51.4712 18.7491C51.5569 18.7491 51.635 18.7427 51.7055 18.7302C51.7786 18.7175 51.8341 18.7062 51.8719 18.6961L52.1025 19.7659C52.0294 19.7911 51.9248 19.8189 51.7887 19.8491C51.6551 19.8793 51.4913 19.897 51.2973 19.902C50.9545 19.912 50.6458 19.8604 50.3712 19.747C50.0964 19.6311 49.8785 19.4522 49.7172 19.2103C49.5584 18.9683 49.4803 18.6659 49.4827 18.303V12.6252Z" fill="var(--fill-0, black)"/>
</g>
</svg>
