<svg preserveAspectRatio="none" width="100%" height="100%" overflow="visible" style="display: block;" viewBox="0 0 128.15 47.8738" fill="none" xmlns="http://www.w3.org/2000/svg">
<g id="Group 2117761311">
<path id="Vector" d="M24.8581 4.61598L25.1876 22.4082C25.7549 22.232 26.3533 22.0902 26.9662 21.9685L27.2877 4.61598C28.0361 4.19087 28.5466 3.396 28.5466 2.47371C28.5466 1.10767 27.4395 0 26.0729 0C24.7062 0 23.5992 1.10767 23.5992 2.47371C23.5992 3.396 24.1096 4.19087 24.8581 4.61598Z" fill="var(--fill-0, black)"/>
<path id="Vector_2" d="M17.7852 14.9335C22.7257 14.9335 21.3022 17.0654 24.4021 17.2954L24.1867 5.67237C22.9771 4.81093 20.4072 3.16105 18.4607 3.16105C15.5519 3.16105 13.2393 5.81603 9.26565 6.94467C4.60843 8.26658 0 8.15712 0 9.20798C0 10.4674 3.14973 10.8115 3.14973 10.8115C3.14973 10.8115 2.94355 12.4777 6.20744 12.5634C6.20744 12.5634 6.15581 13.9034 8.85262 13.6972C8.85262 13.6972 9.31661 14.9514 11.704 14.6247C11.704 14.6247 11.8245 16.0336 14.8996 15.0024C14.8996 15.0024 15.8444 15.9304 17.7852 14.9335Z" fill="var(--fill-0, black)"/>
<path id="Vector_3" d="M52.1391 9.20798C52.1391 8.15763 47.5305 8.26658 42.8732 6.94467C38.9003 5.8167 36.5865 3.16105 33.6783 3.16105C31.7318 3.16105 29.1619 4.81093 27.9523 5.67237L27.7367 17.2954C30.8367 17.0654 29.4134 14.9335 34.3539 14.9335C36.2952 15.9299 37.2394 15.0024 37.2394 15.0024C40.3144 16.033 40.4349 14.6247 40.4349 14.6247C42.823 14.9508 43.2864 13.6972 43.2864 13.6972C45.9831 13.9034 45.9316 12.5634 45.9316 12.5634C49.196 12.4777 48.9892 10.8115 48.9892 10.8115C48.9892 10.8115 52.1391 10.4674 52.1391 9.20798Z" fill="var(--fill-0, black)"/>
<path id="Vector_4" d="M33.439 17.3726C33.3729 17.3634 33.304 17.3594 33.2356 17.3524C32.0782 16.8356 28.5454 17.8633 28.5454 18.9026C28.5454 19.9477 32.336 20.5752 33.4286 19.8829C34.1834 20.0631 34.4382 20.4558 34.4382 20.6406C34.4382 21.5067 31.5347 21.94 29.6142 22.2262C27.8519 22.4892 26.03 22.7609 24.5724 23.3541C22.1016 24.3587 21.5825 26.0063 21.5825 27.2112C21.5825 28.7072 22.2759 29.7585 23.1947 30.573C23.8049 30.1067 24.463 29.7273 25.0463 29.3908C25.1384 29.3374 25.2235 29.2877 25.3093 29.2372C25.314 29.2344 25.3181 29.232 25.3226 29.2292C25.3551 29.2105 25.3898 29.1903 25.4211 29.1712C26.0549 28.797 26.527 28.4876 26.8456 28.2031L26.8874 25.9292C26.2021 26.0967 25.6367 26.2878 25.2584 26.5178L25.3058 29.0883C24.5116 28.5206 24.0563 27.9696 24.0563 27.2112C24.0563 25.6754 26.5109 25.1907 29.9793 24.6727C31.577 24.434 33.0861 24.2092 34.2981 23.7603C36.4585 22.9602 36.9126 21.622 36.9126 20.6406C36.9126 19.2896 35.8252 17.6901 33.439 17.3726Z" fill="var(--fill-0, black)"/>
<path id="Vector_5" d="M24.3075 22.7159C24.4292 22.6668 24.5543 22.6198 24.6807 22.5741C23.9681 22.442 23.2369 22.3325 22.5151 22.2247C20.5941 21.9379 17.6906 21.5046 17.6906 20.6391C17.6906 20.4542 17.9461 20.0615 18.7009 19.8813C19.7935 20.5736 23.5834 19.9462 23.5834 18.9012C23.5834 17.8619 20.0506 16.8341 18.8932 17.3508C18.8254 17.3578 18.7565 17.3618 18.6905 17.371C16.3036 17.6885 15.2169 19.288 15.2169 20.6396C15.2169 21.6211 15.6705 22.9593 17.8307 23.7594C18.9356 24.1689 20.2882 24.392 21.7289 24.6086C22.2393 23.9087 23.0446 23.2298 24.3075 22.7159Z" fill="var(--fill-0, black)"/>
<path id="Vector_6" d="M26.6204 32.1281C28.3699 31.119 30.5469 29.8624 30.5469 27.2114C30.5469 26.6512 30.4351 25.9954 30.0666 25.3536C29.0025 25.5123 27.98 25.6774 27.1202 25.8732C27.7309 26.2103 28.0739 26.6374 28.0739 27.2114C28.0739 28.3521 27.0577 29.0201 25.3846 29.9858C23.7665 30.9192 21.7523 32.0813 21.7523 34.4032C21.7523 35.9331 22.7081 37.0524 23.591 37.8414C23.9028 37.5217 24.1935 37.2922 24.4288 37.1068C24.5949 36.9794 24.7398 36.8705 24.8708 36.7714C25.0405 36.6433 25.2884 36.4175 25.2884 36.4175L25.4351 36.2994L25.8081 35.9998C26.0283 35.8231 26.4036 35.5231 26.7107 35.2084L26.7536 32.8935C27.4835 33.3912 27.9001 33.8406 27.9001 34.4032C27.9001 35.052 27.3004 35.6771 26.3265 36.4645C26.297 36.4881 25.9559 36.794 25.9222 36.8235C25.7026 37.0118 25.3436 37.2714 24.8539 37.6468C24.61 37.8392 24.3331 38.0581 24.0418 38.3629C23.8969 38.5152 23.7497 38.6903 23.6141 38.9005C23.4799 39.1097 23.3582 39.3564 23.2822 39.6293C23.207 39.9027 23.1827 40.1917 23.2063 40.4658L23.2319 40.6587C23.244 40.7276 23.2562 40.7913 23.2735 40.8568C23.306 40.9866 23.3478 41.1135 23.3992 41.234C23.6044 41.7242 23.9305 42.0919 24.2491 42.3804C24.5272 42.6307 24.8093 42.8323 25.0811 43.0201C25.1136 42.9795 25.1459 42.9378 25.1808 42.896C25.3875 42.6463 25.6082 42.4146 25.8215 42.1905C25.825 42.1863 25.829 42.1823 25.8325 42.1783L25.9588 42.0457C26.1737 41.8185 26.4159 41.5572 26.5966 41.3064L26.6226 39.9004C26.527 39.9485 26.432 39.9966 26.3347 40.0464C26.1626 40.1362 25.9385 40.2577 25.7739 40.3749C25.6552 40.4594 25.515 40.5858 25.515 40.5858L25.5382 41.8671C25.4264 41.7386 25.3209 41.6105 25.2299 41.4819C25.0405 41.2178 24.92 40.9564 24.8921 40.7375C24.8841 40.6825 24.8812 40.6297 24.8829 40.5788C24.8824 40.5538 24.8853 40.5254 24.8876 40.504C24.8893 40.4959 24.8916 40.4889 24.8928 40.482C24.8928 40.482 24.894 40.4705 24.8951 40.4582L24.898 40.4235C24.9148 40.3349 24.9409 40.2631 24.9785 40.2004C25.0527 40.0794 25.1853 39.9501 25.3759 39.8152C25.563 39.6819 25.7948 39.5539 26.0219 39.4352C26.4831 39.1982 26.9372 38.9792 27.2599 38.7927C27.341 38.7469 27.6991 38.5349 27.867 38.3999C28.8431 37.6173 30.3732 36.3376 30.3732 34.4032C30.3732 33.1211 29.7579 32.1931 28.9358 31.4615C28.2853 31.9613 27.5854 32.3656 26.965 32.7237C26.8938 32.7649 26.8242 32.8053 26.7553 32.8454C26.7553 32.8454 26.7506 32.8482 26.7478 32.8501C26.7374 32.8558 26.7275 32.8622 26.7171 32.8673C26.1772 33.1832 25.7108 33.4705 25.3881 33.7335L25.4332 36.1579C24.6796 35.5108 24.2265 34.9657 24.2265 34.4038C24.226 33.57 25.1308 32.9879 26.6204 32.1281Z" fill="var(--fill-0, black)"/>
<path id="Vector_7" d="M28.5154 38.8997C28.4956 38.8689 28.4753 38.8405 28.455 38.8115C28.371 38.8794 28.2911 38.9443 28.2158 39.004L28.1457 39.0554L27.8138 39.267C27.7506 39.3045 27.6787 39.3479 27.6011 39.3909C27.3718 39.5236 27.0803 39.6713 26.7704 39.8277C26.9517 39.9586 27.0786 40.0827 27.151 40.2008C27.1881 40.2627 27.2142 40.3346 27.2315 40.4238L27.2345 40.4586C27.2357 40.4707 27.2362 40.4811 27.2369 40.4823C27.2379 40.4893 27.2402 40.4962 27.2426 40.5044C27.2442 40.5259 27.2473 40.5542 27.2473 40.579C27.2489 40.6306 27.2461 40.6834 27.2374 40.7377C27.2095 40.9568 27.089 41.218 26.8996 41.4822C26.7118 41.7475 26.4674 42.0141 26.2137 42.2818C25.96 42.5505 25.694 42.8229 25.4508 43.1147C25.2086 43.4074 24.9866 43.7254 24.8453 44.0724C24.7023 44.4189 24.6571 44.7878 24.7033 45.1048C24.7514 45.4459 24.9196 45.7032 25.0875 45.8839C25.259 46.0653 25.4345 46.1816 25.581 46.2663C25.5968 46.2755 25.6089 46.2802 25.6244 46.2889L25.6459 47.4528C25.6459 47.6851 25.8343 47.8738 26.0672 47.8738C26.3 47.8738 26.4877 47.6856 26.4882 47.4528L26.5097 46.2883C26.5248 46.2802 26.537 46.2755 26.5531 46.2663C26.6998 46.1816 26.8753 46.0646 27.0468 45.8839C27.2147 45.7032 27.3827 45.4459 27.4308 45.1048C27.4777 44.7878 27.432 44.4182 27.289 44.0724C27.206 43.8679 27.093 43.6749 26.9668 43.4914C26.8203 43.5904 26.6899 43.6843 26.5566 43.7792V43.7728C26.4946 43.8169 26.4368 43.8603 26.3783 43.9044C26.366 43.9143 26.3504 43.9235 26.3382 43.9327C26.3127 43.9524 26.2849 43.9721 26.2601 43.9919C25.9983 44.1964 25.811 44.3818 25.6876 44.5597C25.6523 44.61 25.6228 44.6621 25.5961 44.7154L25.6223 46.1401C25.5116 46.0328 25.3911 45.9002 25.292 45.7304C25.1854 45.548 25.1123 45.3168 25.1356 45.089C25.1564 44.8406 25.2456 44.592 25.4043 44.3644C25.5631 44.1349 25.7874 43.924 26.048 43.7219C26.3087 43.518 26.6047 43.3227 26.917 43.1107C27.2281 42.8981 27.5572 42.6717 27.8799 42.3808C28.199 42.0923 28.5246 41.7239 28.7303 41.2343C28.7819 41.1137 28.8241 40.9863 28.856 40.8571C28.8734 40.7917 28.8855 40.728 28.8977 40.659L28.9232 40.4662C28.9475 40.1914 28.9232 39.9025 28.8473 39.6296C28.7713 39.3555 28.6498 39.1087 28.5154 38.8997ZM26.5491 44.1413C26.6158 44.2137 26.6766 44.2879 26.7293 44.3637C26.888 44.5915 26.9779 44.8399 26.9982 45.0885C27.0218 45.3168 26.9489 45.5473 26.8418 45.7299C26.7432 45.8995 26.6227 46.0323 26.512 46.1394L26.5491 44.1413Z" fill="var(--fill-0, black)"/>
<g id="Group 2117761349">
<path id="Vector_8" d="M66.4997 20.8614V11.6681H68.1651V15.56H72.425V11.6681H74.095V20.8614H72.425V16.956H68.1651V20.8614H66.4997ZM77.5715 11.6681V20.8614H75.9063V11.6681H77.5715ZM79.3751 20.8614V11.6681H82.8225C83.5288 11.6681 84.1213 11.7999 84.6001 12.0631C85.0819 12.3265 85.4454 12.6887 85.6908 13.1495C85.9392 13.6074 86.0634 14.128 86.0634 14.7117C86.0634 15.3012 85.9392 15.8249 85.6908 16.2828C85.4424 16.7405 85.0759 17.1013 84.5911 17.3645C84.1063 17.6249 83.5094 17.7551 82.8001 17.7551H80.5152V16.386H82.5757C82.9886 16.386 83.3267 16.3142 83.5901 16.1704C83.8535 16.0268 84.048 15.8293 84.1736 15.5779C84.3024 15.3267 84.3667 15.0378 84.3667 14.7117C84.3667 14.3854 84.3024 14.0981 84.1736 13.8498C84.048 13.6014 83.8519 13.4083 83.5857 13.2707C83.3223 13.13 82.9826 13.0597 82.5667 13.0597H81.0405V20.8614H79.3751ZM87.6659 20.8614H85.8883L89.1248 11.6681H91.1808L94.4218 20.8614H92.6442L90.1887 13.5535H90.117L87.6659 20.8614ZM87.7244 17.2569H92.5724V18.5944H87.7244V17.2569ZM96.8132 20.8614H95.0356L98.2721 11.6681H100.328L103.569 20.8614H101.791L99.336 13.5535H99.2641L96.8132 20.8614ZM96.8715 17.2569H101.72V18.5944H96.8715V17.2569Z" fill="var(--fill-0, black)"/>
<path id="Vector_9" d="M74.6389 28.9911H72.9601C72.9122 28.7157 72.8239 28.4719 72.6952 28.2593C72.5666 28.044 72.4064 27.8613 72.2149 27.7117C72.0234 27.562 71.805 27.4499 71.5596 27.3751C71.3171 27.2972 71.0553 27.2584 70.774 27.2584C70.2742 27.2584 69.8313 27.384 69.4453 27.6354C69.0593 27.8837 68.757 28.2489 68.5385 28.7307C68.3201 29.2094 68.2108 29.7946 68.2108 30.4858C68.2108 31.1891 68.3201 31.7817 68.5385 32.2634C68.76 32.7422 69.0623 33.1044 69.4453 33.3497C69.8313 33.5921 70.2728 33.7133 70.7696 33.7133C71.0448 33.7133 71.3022 33.6775 71.5416 33.6056C71.784 33.5308 72.0009 33.4216 72.1925 33.278C72.387 33.1342 72.5502 32.9577 72.6818 32.7482C72.8164 32.5388 72.9092 32.2993 72.9601 32.0301L74.6389 32.0391C74.576 32.476 74.44 32.8858 74.2305 33.269C74.0239 33.652 73.7531 33.9902 73.418 34.2834C73.0828 34.5737 72.6908 34.8012 72.2419 34.9657C71.793 35.1273 71.2947 35.2081 70.7472 35.2081C69.9391 35.2081 69.2179 35.0212 68.5834 34.647C67.949 34.273 67.4492 33.7328 67.0842 33.0266C66.719 32.3203 66.5365 31.4734 66.5365 30.4858C66.5365 29.4953 66.7206 28.6484 67.0886 27.9452C67.4568 27.2389 67.958 26.6987 68.5924 26.3247C69.2268 25.9505 69.9451 25.7636 70.7472 25.7636C71.2588 25.7636 71.7347 25.8353 72.1746 25.979C72.6145 26.1226 73.0065 26.3337 73.3507 26.6119C73.6948 26.8872 73.9776 27.2255 74.199 27.6264C74.4235 28.0244 74.5702 28.4793 74.6389 28.9911ZM79.0998 35.2171C78.4264 35.2171 77.8428 35.069 77.3491 34.7728C76.8553 34.4765 76.4723 34.0621 76.1999 33.5292C75.9306 32.9966 75.796 32.3742 75.796 31.6619C75.796 30.9498 75.9306 30.3258 76.1999 29.7901C76.4723 29.2545 76.8553 28.8384 77.3491 28.5422C77.8428 28.2459 78.4264 28.0977 79.0998 28.0977C79.7731 28.0977 80.3566 28.2459 80.8504 28.5422C81.3442 28.8384 81.7258 29.2545 81.9952 29.7901C82.2674 30.3258 82.4036 30.9498 82.4036 31.6619C82.4036 32.3742 82.2674 32.9966 81.9952 33.5292C81.7258 34.0621 81.3442 34.4765 80.8504 34.7728C80.3566 35.069 79.7731 35.2171 79.0998 35.2171ZM79.1088 33.9154C79.4738 33.9154 79.7791 33.8151 80.0245 33.6146C80.2699 33.4111 80.4524 33.1388 80.5721 32.7977C80.6947 32.4565 80.7562 32.0764 80.7562 31.6575C80.7562 31.2354 80.6947 30.854 80.5721 30.5129C80.4524 30.1687 80.2699 29.8949 80.0245 29.6914C79.7791 29.4879 79.4738 29.3861 79.1088 29.3861C78.7346 29.3861 78.4234 29.4879 78.175 29.6914C77.9296 29.8949 77.7457 30.1687 77.6229 30.5129C77.5033 30.854 77.4434 31.2354 77.4434 31.6575C77.4434 32.0764 77.5033 32.4565 77.6229 32.7977C77.7457 33.1388 77.9296 33.4111 78.175 33.6146C78.4234 33.8151 78.7346 33.9154 79.1088 33.9154ZM83.7829 35.0825V28.1876H85.3359V29.3591H85.4167C85.5605 28.9641 85.7983 28.6559 86.1304 28.4344C86.4627 28.21 86.8591 28.0977 87.3201 28.0977C87.7868 28.0977 88.1804 28.2115 88.5005 28.439C88.8238 28.6634 89.0512 28.9701 89.183 29.3591H89.2547C89.4073 28.9761 89.6647 28.6708 90.0269 28.4434C90.3919 28.213 90.8244 28.0977 91.3242 28.0977C91.9586 28.0977 92.4762 28.2982 92.8772 28.6992C93.2783 29.1003 93.4788 29.6854 93.4788 30.4544V35.0825H91.8494V30.7058C91.8494 30.2779 91.7356 29.9652 91.5082 29.7677C91.2807 29.5672 91.0024 29.4668 90.6732 29.4668C90.2811 29.4668 89.9744 29.5896 89.7531 29.835C89.5345 30.0774 89.4254 30.3931 89.4254 30.7821V35.0825H87.8318V30.6385C87.8318 30.2823 87.7241 29.9981 87.5086 29.7855C87.296 29.5732 87.0178 29.4668 86.6736 29.4668C86.4403 29.4668 86.2277 29.5267 86.0362 29.6465C85.8447 29.7631 85.6921 29.9292 85.5783 30.1447C85.4646 30.3572 85.4078 30.6056 85.4078 30.8899V35.0825H83.7829ZM95.1273 37.6681V28.1876H96.7254V29.3278H96.8197C96.9035 29.1601 97.0216 28.9821 97.1743 28.7936C97.3269 28.6021 97.5334 28.439 97.7937 28.3042C98.0541 28.1666 98.3862 28.0977 98.7902 28.0977C99.3229 28.0977 99.8032 28.2339 100.231 28.5063C100.662 28.7756 101.003 29.1752 101.255 29.7048C101.509 30.2314 101.636 30.8779 101.636 31.644C101.636 32.4011 101.512 33.0445 101.264 33.5743C101.015 34.1039 100.677 34.508 100.249 34.7862C99.8212 35.0645 99.3365 35.2037 98.7948 35.2037C98.3998 35.2037 98.0721 35.1378 97.8117 35.0062C97.5513 34.8745 97.3419 34.7159 97.1833 34.5304C97.0276 34.3417 96.9065 34.1638 96.8197 33.9962H96.7522V37.6681H95.1273ZM96.721 31.635C96.721 32.0809 96.7837 32.4714 96.9094 32.8067C97.0381 33.1418 97.2221 33.4036 97.4615 33.5921C97.7039 33.7776 97.9972 33.8705 98.3413 33.8705C98.7005 33.8705 99.0012 33.7746 99.2437 33.5831C99.4861 33.3886 99.6686 33.1238 99.7912 32.7887C99.917 32.4505 99.9799 32.0659 99.9799 31.635C99.9799 31.207 99.9184 30.827 99.7958 30.4948C99.673 30.1627 99.4905 29.9023 99.2481 29.7138C99.0058 29.5253 98.7035 29.431 98.3413 29.431C97.9942 29.431 97.6995 29.5223 97.4571 29.7048C97.2147 29.8873 97.0306 30.1433 96.9049 30.4724C96.7822 30.8015 96.721 31.1891 96.721 31.635ZM104.653 25.8892V35.0825H103.028V25.8892H104.653ZM106.324 35.0825V28.1876H107.949V35.0825H106.324ZM107.141 27.2089C106.883 27.2089 106.662 27.1237 106.476 26.9531C106.291 26.7796 106.198 26.5715 106.198 26.3291C106.198 26.0837 106.291 25.8758 106.476 25.7051C106.662 25.5316 106.883 25.4449 107.141 25.4449C107.401 25.4449 107.622 25.5316 107.805 25.7051C107.991 25.8758 108.083 26.0837 108.083 26.3291C108.083 26.5715 107.991 26.7796 107.805 26.9531C107.622 27.1237 107.401 27.2089 107.141 27.2089ZM111.604 35.2217C111.167 35.2217 110.773 35.1438 110.423 34.9881C110.076 34.8297 109.801 34.5961 109.597 34.288C109.397 33.9797 109.297 33.5997 109.297 33.1478C109.297 32.7588 109.368 32.4371 109.512 32.1827C109.656 31.9283 109.852 31.7248 110.1 31.5721C110.348 31.4195 110.628 31.3043 110.939 31.2266C111.254 31.1457 111.578 31.0874 111.913 31.0515C112.318 31.0095 112.645 30.9722 112.897 30.9392C113.148 30.9033 113.331 30.8494 113.444 30.7777C113.561 30.7028 113.619 30.5876 113.619 30.432V30.4051C113.619 30.067 113.519 29.805 113.319 29.6195C113.118 29.434 112.829 29.3412 112.452 29.3412C112.054 29.3412 111.738 29.428 111.505 29.6015C111.275 29.7751 111.119 29.9801 111.038 30.2166L109.521 30.0011C109.641 29.582 109.838 29.2319 110.113 28.9506C110.389 28.6664 110.725 28.4538 111.123 28.3132C111.521 28.1696 111.961 28.0977 112.443 28.0977C112.775 28.0977 113.106 28.1367 113.435 28.2145C113.764 28.2924 114.065 28.421 114.337 28.6005C114.61 28.7771 114.828 29.0179 114.993 29.3232C115.16 29.6285 115.244 30.0101 115.244 30.4678V35.0825H113.682V34.1354H113.628C113.529 34.3269 113.39 34.5064 113.211 34.674C113.034 34.8385 112.811 34.9717 112.542 35.0735C112.276 35.1722 111.963 35.2217 111.604 35.2217ZM112.026 34.0276C112.352 34.0276 112.635 33.9633 112.874 33.8345C113.114 33.7029 113.298 33.5292 113.426 33.3139C113.558 33.0984 113.624 32.8634 113.624 32.6092V31.7967C113.573 31.8386 113.486 31.8774 113.363 31.9133C113.244 31.9492 113.109 31.9806 112.959 32.0076C112.81 32.0345 112.662 32.0585 112.515 32.0794C112.368 32.1004 112.241 32.1184 112.133 32.1332C111.891 32.1663 111.674 32.22 111.483 32.2949C111.291 32.3696 111.14 32.4744 111.029 32.6092C110.919 32.7408 110.863 32.9113 110.863 33.1208C110.863 33.4201 110.972 33.646 111.191 33.7987C111.409 33.9513 111.688 34.0276 112.026 34.0276ZM118.503 31.0425V35.0825H116.878V28.1876H118.431V29.3591H118.512C118.671 28.9731 118.924 28.6664 119.271 28.439C119.621 28.2115 120.053 28.0977 120.568 28.0977C121.044 28.0977 121.458 28.1995 121.811 28.403C122.168 28.6065 122.443 28.9013 122.638 29.2873C122.835 29.6734 122.932 30.1417 122.929 30.6924V35.0825H121.304V30.9437C121.304 30.4828 121.184 30.1223 120.945 29.8619C120.709 29.6015 120.381 29.4714 119.962 29.4714C119.678 29.4714 119.425 29.5342 119.204 29.6599C118.985 29.7825 118.813 29.9606 118.687 30.194C118.565 30.4275 118.503 30.7104 118.503 31.0425ZM128.024 28.1876V29.4444H124.06V28.1876H128.024ZM125.039 26.5356H126.664V33.0086C126.664 33.2271 126.697 33.3946 126.763 33.5114C126.832 33.6252 126.921 33.7029 127.032 33.7448C127.143 33.7866 127.265 33.8077 127.4 33.8077C127.502 33.8077 127.595 33.8001 127.678 33.7852C127.765 33.7702 127.831 33.7568 127.876 33.7448L128.15 35.0152C128.063 35.045 127.939 35.078 127.777 35.1139C127.619 35.1498 127.424 35.1708 127.194 35.1768C126.787 35.1887 126.42 35.1273 126.094 34.9927C125.768 34.8551 125.509 34.6426 125.317 34.3553C125.129 34.0681 125.036 33.7089 125.039 33.278V26.5356Z" fill="var(--fill-0, black)"/>
</g>
</g>
</svg>
