<svg preserveAspectRatio="none" width="100%" height="100%" overflow="visible" style="display: block;" viewBox="0 0 55.5493 7.58363" fill="none" xmlns="http://www.w3.org/2000/svg">
<g id="Certified">
<path id="Vector" d="M51.9377 7.48263H49.3209V0.100851H51.9593C52.7018 0.100851 53.341 0.248631 53.8768 0.544191C54.4127 0.837347 54.8248 1.25906 55.1132 1.80933C55.4039 2.3596 55.5493 3.018 55.5493 3.78453C55.5493 4.55347 55.4039 5.21427 55.1132 5.76694C54.8248 6.31962 54.4103 6.74373 53.8696 7.03929C53.3314 7.33485 52.6874 7.48263 51.9377 7.48263ZM50.8816 6.14541H51.8728C52.3342 6.14541 52.7222 6.06371 53.037 5.90031C53.3542 5.7345 53.5921 5.47859 53.7507 5.13257C53.9117 4.78415 53.9922 4.3348 53.9922 3.78453C53.9922 3.23907 53.9117 2.79333 53.7507 2.44731C53.5921 2.10128 53.3554 1.84657 53.0406 1.68318C52.7258 1.51978 52.3378 1.43808 51.8764 1.43808H50.8816V6.14541Z" fill="var(--fill-0, black)"/>
<path id="Vector_2" d="M42.597 7.48263V0.100851H47.571V1.38762H44.1577V3.14656H47.3151V4.43332H44.1577V6.19587H47.5855V7.48263H42.597Z" fill="var(--fill-0, black)"/>
<path id="Vector_3" d="M40.8049 0.100851V7.48263H39.2442V0.100851H40.8049Z" fill="var(--fill-0, black)"/>
<path id="Vector_4" d="M32.799 7.48263V0.100851H37.6865V1.38762H34.3597V3.14656H37.3621V4.43332H34.3597V7.48263H32.799Z" fill="var(--fill-0, black)"/>
<path id="Vector_5" d="M31.0099 0.100851V7.48263H29.4492V0.100851H31.0099Z" fill="var(--fill-0, black)"/>
<path id="Vector_6" d="M21.8803 1.38762V0.100851H27.9428V1.38762H25.6829V7.48263H24.1402V1.38762H21.8803Z" fill="var(--fill-0, black)"/>
<path id="Vector_7" d="M14.991 7.48263V0.100851H17.9034C18.4608 0.100851 18.9366 0.200573 19.3307 0.400015C19.7272 0.597055 20.0287 0.876995 20.2354 1.23984C20.4444 1.60028 20.549 2.02439 20.549 2.51218C20.549 3.00238 20.4432 3.42409 20.2318 3.77732C20.0203 4.12815 19.714 4.39728 19.3127 4.58471C18.9138 4.77213 18.4308 4.86585 17.8637 4.86585H15.9137V3.61152H17.6114C17.9094 3.61152 18.1569 3.57067 18.3539 3.48897C18.5509 3.40727 18.6975 3.28472 18.7936 3.12133C18.8922 2.95793 18.9414 2.75488 18.9414 2.51218C18.9414 2.26709 18.8922 2.06044 18.7936 1.89223C18.6975 1.72403 18.5497 1.59667 18.3503 1.51017C18.1533 1.42126 17.9046 1.3768 17.6042 1.3768H16.5517V7.48263H14.991ZM18.9775 4.12334L20.8121 7.48263H19.0892L17.2942 4.12334H18.9775Z" fill="var(--fill-0, black)"/>
<path id="Vector_8" d="M8.27016 7.48263V0.100851H13.2442V1.38762H9.83086V3.14656H12.9883V4.43332H9.83086V6.19587H13.2586V7.48263H8.27016Z" fill="var(--fill-0, black)"/>
<path id="Vector_9" d="M6.64288 2.68527H5.06416C5.03533 2.48102 4.97645 2.2996 4.88755 2.141C4.79864 1.98001 4.6845 1.84304 4.54513 1.73011C4.40576 1.61717 4.24476 1.53066 4.06214 1.47059C3.88192 1.41052 3.68608 1.38048 3.47463 1.38048C3.09256 1.38048 2.75976 1.47539 2.47621 1.66523C2.19267 1.85265 1.9728 2.12659 1.81661 2.48703C1.66042 2.84506 1.58233 3.27999 1.58233 3.79181C1.58233 4.31805 1.66042 4.76019 1.81661 5.11823C1.9752 5.47626 2.19627 5.74659 2.47982 5.92921C2.76336 6.11184 3.09136 6.20315 3.46381 6.20315C3.67287 6.20315 3.8663 6.17551 4.04412 6.12025C4.22434 6.06498 4.38413 5.98448 4.5235 5.87875C4.66287 5.77062 4.77821 5.63966 4.86952 5.48587C4.96324 5.33209 5.02812 5.15667 5.06416 4.95963L6.64288 4.96684C6.60203 5.30566 6.49991 5.63245 6.33651 5.94724C6.17551 6.25962 5.95805 6.53956 5.68411 6.78706C5.41258 7.03216 5.08819 7.22679 4.71093 7.37097C4.33607 7.51274 3.91196 7.58363 3.43858 7.58363C2.78018 7.58363 2.19147 7.43465 1.67243 7.13668C1.15581 6.83872 0.747308 6.40739 0.446943 5.84271C0.148981 5.27802 0 4.59439 0 3.79181C0 2.98683 0.151384 2.302 0.454152 1.73731C0.756921 1.17263 1.16782 0.742504 1.68685 0.446945C2.20588 0.148982 2.78979 0 3.43858 0C3.8663 0 4.26279 0.0600732 4.62803 0.180219C4.99568 0.300366 5.32127 0.475779 5.60482 0.706459C5.88836 0.934737 6.11904 1.21468 6.29686 1.54628C6.47708 1.87788 6.59242 2.25755 6.64288 2.68527Z" fill="var(--fill-0, black)"/>
</g>
</svg>
