<svg preserveAspectRatio="none" width="100%" height="100%" overflow="visible" style="display: block;" viewBox="0 0 29.8227 32.9446" fill="none" xmlns="http://www.w3.org/2000/svg">
<g id="AICPA SOC 2 TYPE 1">
<path id="Vector" d="M29.8227 32.9446H28.3196V28.4811H26.8074V27.3722C27.9255 27.3447 28.3838 27.0239 28.6771 26.2998H29.8227V32.9446Z" fill="var(--fill-0, black)"/>
<path id="Vector_2" d="M19.2658 32.9446V26.2998H24.3616V27.6746H20.833V28.8386H24.1691V30.2225H20.833V31.5606H24.3616V32.9446H19.2658Z" fill="var(--fill-0, black)"/>
<path id="Vector_3" d="M13.0625 26.2998H15.6196C17.3426 26.2998 18.6349 26.7214 18.6349 28.4628C18.6349 30.2134 17.3426 30.6441 15.6196 30.6441H14.6297V32.9446H13.0625V26.2998ZM15.6654 27.6196H14.6297V29.3243H15.6654C16.3986 29.3243 16.976 29.1594 16.976 28.4628C16.976 27.7663 16.3986 27.6196 15.6654 27.6196Z" fill="var(--fill-0, black)"/>
<path id="Vector_4" d="M5.96494 26.2998H7.79796L9.28272 28.8477L10.7858 26.2998H12.6005L10.0343 30.3783V32.9446H8.46702V30.36L5.96494 26.2998Z" fill="var(--fill-0, black)"/>
<path id="Vector_5" d="M2.12631 32.9446V27.6746H0V26.2998H5.83819V27.6746H3.70272V32.9446H2.12631Z" fill="var(--fill-0, black)"/>
<path id="Vector_6" d="M26.5829 13.0951C27.976 13.0951 28.9841 13.7825 28.9841 14.9648C28.9841 16.3579 27.7927 17.4852 25.8313 18.6125H29.0116V19.8498H23.9067V18.6125C25.6939 17.311 27.4627 16.1471 27.4627 15.0564C27.4627 14.479 27.0411 14.2132 26.5371 14.2132C26.0055 14.2132 25.4281 14.534 25.4739 15.5971H23.98C23.9342 14.0207 25.0431 13.0951 26.5829 13.0951Z" fill="var(--fill-0, black)"/>
<path id="Vector_7" d="M20.0025 17.3752H21.5422C21.2948 18.9149 20.0575 19.9689 18.3803 19.9689C16.3089 19.9689 15.0533 18.6491 15.0533 16.5228C15.0533 14.424 16.3456 13.0951 18.4261 13.0951C20.085 13.0951 21.2765 14.1766 21.4964 15.6888H19.9567C19.7825 14.7815 19.1135 14.3874 18.3711 14.3874C17.4454 14.3874 16.7122 15.1664 16.7122 16.5228C16.7122 17.9251 17.4363 18.6766 18.3894 18.6766C19.0768 18.6766 19.8009 18.3834 20.0025 17.3752Z" fill="var(--fill-0, black)"/>
<path id="Vector_8" d="M9.23887 16.532C9.23887 17.9434 10.0454 18.6766 11.0261 18.6766C12.0067 18.6766 12.8133 17.9434 12.8133 16.532C12.8133 15.1206 12.0067 14.3874 11.0261 14.3874C10.0454 14.3874 9.23887 15.1206 9.23887 16.532ZM14.4722 16.532C14.4722 18.6033 13.0607 19.9689 11.0261 19.9689C8.98224 19.9689 7.57998 18.6033 7.57998 16.532C7.57998 14.4607 8.98224 13.0951 11.0261 13.0951C13.0607 13.0951 14.4722 14.4607 14.4722 16.532Z" fill="var(--fill-0, black)"/>
<path id="Vector_9" d="M6.96853 15.1297H5.41962C5.26382 14.6256 4.77806 14.3507 4.10901 14.3507C3.49494 14.3507 3.05502 14.5798 3.05502 14.9922C3.05502 15.3222 3.35747 15.5605 3.82489 15.6613L4.73224 15.8446C5.80456 16.0646 7.161 16.3945 7.161 17.7876C7.161 19.1807 5.75873 19.9689 4.3748 19.9689C2.66092 19.9689 1.5611 19.1257 1.31364 17.6868H2.87171C3.04585 18.3834 3.59576 18.7041 4.41146 18.7041C4.9522 18.7041 5.54794 18.53 5.54794 17.9801C5.54794 17.5493 5.04385 17.3385 4.31064 17.1827L3.50411 17.0177C2.42262 16.7978 1.44195 16.2754 1.44195 15.0839C1.44195 13.7275 2.89921 13.0951 4.20066 13.0951C5.49295 13.0951 6.74857 13.6633 6.96853 15.1297Z" fill="var(--fill-0, black)"/>
<path id="Vector_10" d="M22.7584 6.75455L25.2605 0.109826H26.9835L29.4948 6.75455H27.7901L27.3868 5.57225H24.8206L24.4265 6.75455H22.7584ZM26.1128 1.76872L25.2513 4.29829H26.9652L26.1128 1.76872Z" fill="var(--fill-0, black)"/>
<path id="Vector_11" d="M17.9048 0.109826H20.4618C22.1849 0.109826 23.4772 0.531422 23.4772 2.2728C23.4772 4.02334 22.1849 4.4541 20.4618 4.4541H19.472V6.75455H17.9048V0.109826ZM20.5077 1.42961H19.472V3.13432H20.5077C21.2409 3.13432 21.8183 2.96935 21.8183 2.2728C21.8183 1.57625 21.2409 1.42961 20.5077 1.42961Z" fill="var(--fill-0, black)"/>
<path id="Vector_12" d="M15.5773 4.28012H17.117C16.8695 5.81986 15.6322 6.87385 13.955 6.87385C11.8837 6.87385 10.6281 5.55407 10.6281 3.42776C10.6281 1.32894 11.9204 0 14.0009 0C15.6597 0 16.8512 1.08149 17.0712 2.59373H15.5314C15.3573 1.68639 14.6882 1.29228 13.9459 1.29228C13.0202 1.29228 12.287 2.07132 12.287 3.42776C12.287 4.83003 13.011 5.58157 13.9642 5.58157C14.6516 5.58157 15.3756 5.28829 15.5773 4.28012Z" fill="var(--fill-0, black)"/>
<path id="Vector_13" d="M9.83247 0.109826V6.75455H8.26523V0.109826H9.83247Z" fill="var(--fill-0, black)"/>
<path id="Vector_14" d="M0.973384 6.75455L3.47547 0.109826H5.19851L7.70976 6.75455H6.00504L5.60178 5.57225H3.03554L2.64144 6.75455H0.973384ZM4.32783 1.76872L3.4663 4.29829H5.18018L4.32783 1.76872Z" fill="var(--fill-0, black)"/>
</g>
</svg>
