<svg preserveAspectRatio="none" width="100%" height="100%" overflow="visible" style="display: block;" viewBox="0 0 92.2089 45.0001" fill="none" xmlns="http://www.w3.org/2000/svg">
<g id="Group 2117761319">
<path id="Vector" d="M12.787 5.62271C13.7107 6.07854 14.417 6.42943 15.1259 6.77781C16.5459 7.47943 16.8251 7.38411 17.5363 6.02371C18.0493 5.04051 18.5888 4.06914 19.1233 3.09545C19.6579 2.12651 20.1996 1.16235 20.8488 0.000118256C21.1376 0.429683 21.3881 0.742319 21.5767 1.08838C22.4787 2.76371 23.3309 4.47014 24.2663 6.12628C24.987 7.40317 25.24 7.43658 26.5407 6.79703C27.2184 6.46284 27.8939 6.13117 28.5741 5.8017C28.6409 5.7683 28.7268 5.77555 29.0203 5.73489C28.7458 7.27665 28.4904 8.75869 28.2161 10.2384C27.8628 12.1476 27.4548 14.0449 27.1683 15.9636C27.0968 16.4361 27.4046 16.9684 27.5383 17.4719C28.0012 17.2405 28.5741 17.1139 28.9105 16.7607C30.352 15.2525 31.7266 13.6773 33.2731 11.9615C33.5236 12.7777 33.7576 13.3958 33.9008 14.0353C34.1466 15.1283 34.8386 15.2692 35.7861 15.0472C37.3923 14.6725 39.0055 14.3336 40.8886 13.9184C40.4112 15.7441 40.0127 17.3383 39.5783 18.9206C38.9625 21.1614 38.9507 21.1567 41.0317 22.2403C41.2059 22.3309 41.3729 22.4311 41.7024 22.6149C40.0891 23.9418 38.5568 25.2114 37.0152 26.4691C35.5117 27.6982 34.0368 28.9655 32.4783 30.1181C31.4283 30.8961 31.0656 31.7505 31.5716 32.9796C31.7934 33.5189 31.9103 34.0989 32.1538 34.9246C30.5 34.7289 28.994 34.5666 27.4952 34.3709C26.0419 34.1801 24.5981 33.927 23.1422 33.7528C21.5767 33.5643 21.3452 33.9485 21.3906 35.538C21.4789 38.6262 21.4168 41.7166 21.4168 44.8359C20.0636 45.1723 20.0039 45.0913 20.0756 43.6354C20.2188 40.7431 20.2974 37.8458 20.4289 34.9509C20.479 33.8221 19.8441 33.5763 18.9133 33.7003C16.2022 34.0606 13.4959 34.4426 10.7872 34.8124C10.4817 34.8554 10.1739 34.8817 9.67501 34.9342C9.91136 34.0799 10.0569 33.3185 10.3361 32.612C10.7252 31.6288 10.4126 30.9893 9.62255 30.3639C6.61073 27.9751 3.63483 25.5384 0.646805 23.1209C0.491763 22.9967 0.326951 22.8845 7.75759e-06 22.646C0.534619 22.3499 0.885513 22.1399 1.25059 21.9538C2.8185 21.1591 2.83047 21.1591 2.37228 19.4218C2.00957 18.0423 1.61818 16.6701 1.24586 15.293C1.14565 14.9255 1.07159 14.5483 0.940344 13.9805C2.70395 14.3265 4.27438 14.6295 5.84465 14.947C7.34339 15.2525 7.58919 15.0973 8.00453 13.5915C8.13578 13.1093 8.31713 12.6415 8.53662 11.9733C9.95421 13.5532 11.2478 14.9947 12.5365 16.4337C12.6153 16.5221 12.6678 16.6509 12.7656 16.7059C13.2548 16.9754 13.7537 17.2261 14.2477 17.4839C14.3694 16.9086 14.6724 16.3025 14.5818 15.7632C14.0639 12.6774 13.4505 9.60827 12.8754 6.53201C12.8324 6.30779 12.8324 6.07618 12.7919 5.61798L12.787 5.62271Z" fill="var(--fill-0, black)"/>
<g id="Health Class I">
<path id="Vector_2" d="M92.2089 26.8636V35.3461H90.6723V26.8636H92.2089Z" fill="var(--fill-0, black)"/>
<path id="Vector_3" d="M85.8718 30.6656L84.505 30.8147C84.4663 30.6766 84.3987 30.5469 84.302 30.4254C84.2081 30.3039 84.0811 30.2059 83.921 30.1313C83.7608 30.0568 83.5648 30.0195 83.3328 30.0195C83.0208 30.0195 82.7585 30.0871 82.5459 30.2224C82.336 30.3577 82.2325 30.5331 82.2353 30.7484C82.2325 30.9334 82.3001 31.0839 82.4382 31.1999C82.579 31.3159 82.811 31.4111 83.134 31.4857L84.2192 31.7176C84.8211 31.8474 85.2685 32.0531 85.5611 32.3348C85.8566 32.6164 86.0057 32.985 86.0085 33.4406C86.0057 33.841 85.8884 34.1944 85.6564 34.5009C85.4272 34.8047 85.1083 35.0421 84.6996 35.2133C84.291 35.3845 83.8216 35.4701 83.2914 35.4701C82.5128 35.4701 81.886 35.3072 81.411 34.9814C80.9361 34.6528 80.6531 34.1958 80.562 33.6104L82.024 33.4696C82.0903 33.7568 82.2311 33.9735 82.4465 34.1199C82.6619 34.2662 82.9421 34.3394 83.2873 34.3394C83.6435 34.3394 83.9293 34.2662 84.1446 34.1199C84.3628 33.9735 84.4718 33.7927 84.4718 33.5773C84.4718 33.3951 84.4014 33.2446 84.2606 33.1259C84.1226 33.0071 83.9072 32.916 83.6145 32.8525L82.5293 32.6247C81.9191 32.4977 81.4676 32.2837 81.1749 31.9827C80.8823 31.679 80.7373 31.2952 80.7401 30.8313C80.7373 30.4392 80.8436 30.0996 81.059 29.8124C81.2771 29.5225 81.5795 29.2988 81.966 29.1414C82.3554 28.9813 82.8041 28.9012 83.3121 28.9012C84.0577 28.9012 84.6444 29.06 85.0724 29.3775C85.5032 29.695 85.7696 30.1244 85.8718 30.6656Z" fill="var(--fill-0, black)"/>
<path id="Vector_4" d="M79.2385 30.6656L77.8717 30.8147C77.833 30.6766 77.7654 30.5469 77.6687 30.4254C77.5749 30.3039 77.4478 30.2059 77.2877 30.1313C77.1275 30.0568 76.9315 30.0195 76.6996 30.0195C76.3875 30.0195 76.1252 30.0871 75.9126 30.2224C75.7028 30.3577 75.5992 30.5331 75.602 30.7484C75.5992 30.9334 75.6669 31.0839 75.8049 31.1999C75.9457 31.3159 76.1777 31.4111 76.5007 31.4857L77.5859 31.7176C78.1878 31.8474 78.6352 32.0531 78.9279 32.3348C79.2233 32.6164 79.3724 32.985 79.3752 33.4406C79.3724 33.841 79.2551 34.1944 79.0231 34.5009C78.7939 34.8047 78.475 35.0421 78.0664 35.2133C77.6577 35.3845 77.1883 35.4701 76.6581 35.4701C75.8795 35.4701 75.2527 35.3072 74.7777 34.9814C74.3028 34.6528 74.0198 34.1958 73.9287 33.6104L75.3907 33.4696C75.457 33.7568 75.5978 33.9735 75.8132 34.1199C76.0286 34.2662 76.3088 34.3394 76.654 34.3394C77.0102 34.3394 77.296 34.2662 77.5113 34.1199C77.7295 33.9735 77.8386 33.7927 77.8386 33.5773C77.8386 33.3951 77.7681 33.2446 77.6273 33.1259C77.4893 33.0071 77.2739 32.916 76.9812 32.8525L75.896 32.6247C75.2858 32.4977 74.8343 32.2837 74.5417 31.9827C74.249 31.679 74.104 31.2952 74.1068 30.8313C74.104 30.4392 74.2103 30.0996 74.4257 29.8124C74.6438 29.5225 74.9462 29.2988 75.3327 29.1414C75.7221 28.9813 76.1708 28.9012 76.6788 28.9012C77.4244 28.9012 78.0111 29.06 78.4391 29.3775C78.8699 29.695 79.1363 30.1244 79.2385 30.6656Z" fill="var(--fill-0, black)"/>
<path id="Vector_5" d="M69.1104 35.4743C68.7072 35.4743 68.3441 35.4025 68.0211 35.2589C67.7008 35.1126 67.4467 34.8972 67.259 34.6128C67.074 34.3284 66.9815 33.9777 66.9815 33.5607C66.9815 33.2018 67.0477 32.905 67.1803 32.6703C67.3128 32.4355 67.4937 32.2478 67.7229 32.107C67.952 31.9661 68.2102 31.8598 68.4974 31.788C68.7873 31.7135 69.0869 31.6596 69.3962 31.6265C69.7689 31.5879 70.0713 31.5533 70.3032 31.523C70.5352 31.4898 70.7036 31.4401 70.8085 31.3739C70.9162 31.3048 70.9701 31.1985 70.9701 31.0549V31.0301C70.9701 30.7181 70.8776 30.4765 70.6926 30.3053C70.5076 30.1341 70.2411 30.0485 69.8932 30.0485C69.5259 30.0485 69.2346 30.1285 69.0193 30.2887C68.8066 30.4488 68.6631 30.638 68.5885 30.8561L67.1886 30.6573C67.299 30.2708 67.4813 29.9477 67.7353 29.6881C67.9893 29.4258 68.3 29.2298 68.6672 29.1C69.0344 28.9675 69.4403 28.9012 69.8849 28.9012C70.1914 28.9012 70.4965 28.9371 70.8002 29.0089C71.104 29.0807 71.3815 29.1994 71.6328 29.3651C71.884 29.528 72.0856 29.7503 72.2375 30.0319C72.3921 30.3135 72.4694 30.6656 72.4694 31.0881V35.3459H71.028V34.4719H70.9783C70.8872 34.6487 70.7588 34.8143 70.5932 34.969C70.4302 35.1208 70.2245 35.2437 69.976 35.3376C69.7303 35.4287 69.4417 35.4743 69.1104 35.4743ZM69.4997 34.3725C69.8007 34.3725 70.0616 34.3132 70.2825 34.1944C70.5034 34.073 70.6732 33.9128 70.792 33.714C70.9135 33.5152 70.9742 33.2984 70.9742 33.0637V32.3141C70.9273 32.3527 70.8472 32.3886 70.734 32.4217C70.6235 32.4549 70.4993 32.4839 70.3612 32.5087C70.2231 32.5336 70.0865 32.5557 69.9512 32.575C69.8159 32.5943 69.6985 32.6109 69.5991 32.6247C69.3755 32.6551 69.1753 32.7048 68.9985 32.7738C68.8218 32.8428 68.6824 32.9395 68.5802 33.0637C68.4781 33.1852 68.427 33.3426 68.427 33.5359C68.427 33.812 68.5278 34.0205 68.7293 34.1613C68.9309 34.3021 69.1877 34.3725 69.4997 34.3725Z" fill="var(--fill-0, black)"/>
<path id="Vector_6" d="M65.5039 26.8636V35.3461H64.0046V26.8636H65.5039Z" fill="var(--fill-0, black)"/>
<path id="Vector_7" d="M62.4293 29.7256H60.8802C60.836 29.4716 60.7546 29.2466 60.6358 29.0505C60.5171 28.8517 60.3694 28.6833 60.1927 28.5452C60.0159 28.4071 59.8144 28.3036 59.588 28.2346C59.3643 28.1628 59.1227 28.1269 58.8631 28.1269C58.402 28.1269 57.9934 28.2429 57.6372 28.4748C57.281 28.704 57.0021 29.0408 56.8005 29.4854C56.5989 29.9272 56.4982 30.467 56.4982 31.1049C56.4982 31.7537 56.5989 32.3005 56.8005 32.745C57.0048 33.1868 57.2837 33.5209 57.6372 33.7473C57.9934 33.971 58.4006 34.0828 58.859 34.0828C59.113 34.0828 59.3505 34.0497 59.5714 33.9834C59.795 33.9144 59.9952 33.8136 60.172 33.6811C60.3514 33.5485 60.5019 33.3856 60.6234 33.1923C60.7477 32.9991 60.8333 32.7782 60.8802 32.5296L62.4293 32.5379C62.3713 32.9411 62.2456 33.3194 62.0523 33.6728C61.8618 34.0262 61.6119 34.3382 61.3027 34.6088C60.9934 34.8767 60.6317 35.0865 60.2175 35.2384C59.8033 35.3875 59.3436 35.4621 58.8383 35.4621C58.0928 35.4621 57.4273 35.2895 56.8419 34.9443C56.2565 34.5992 55.7954 34.1008 55.4586 33.4491C55.1217 32.7975 54.9532 32.0161 54.9532 31.1049C54.9532 30.1909 55.1231 29.4095 55.4627 28.7606C55.8023 28.1089 56.2648 27.6105 56.8502 27.2654C57.4356 26.9202 58.0983 26.7477 58.8383 26.7477C59.3105 26.7477 59.7495 26.8139 60.1554 26.9465C60.5613 27.079 60.923 27.2737 61.2405 27.5305C61.5581 27.7845 61.819 28.0965 62.0234 28.4665C62.2304 28.8338 62.3657 29.2535 62.4293 29.7256Z" fill="var(--fill-0, black)"/>
<path id="Vector_8" d="M87.6701 17.2696V20.9973H86.1708V12.5148H87.637V15.7164H87.7115C87.8606 15.3575 88.0912 15.0744 88.4032 14.8674C88.718 14.6575 89.1184 14.5526 89.6043 14.5526C90.0461 14.5526 90.4313 14.6451 90.7599 14.8301C91.0885 15.0151 91.3425 15.2857 91.522 15.6419C91.7042 15.9981 91.7954 16.433 91.7954 16.9466V20.9973H90.296V17.1785C90.296 16.7505 90.1856 16.4178 89.9647 16.1803C89.7465 15.9401 89.44 15.82 89.0452 15.82C88.7801 15.82 88.5427 15.878 88.3328 15.9939C88.1257 16.1071 87.9628 16.2714 87.8441 16.4868C87.7281 16.7022 87.6701 16.9631 87.6701 17.2696Z" fill="var(--fill-0, black)"/>
<path id="Vector_9" d="M84.5469 14.6353V15.795H80.8897V14.6353H84.5469ZM81.7926 13.1111H83.2919V19.0836C83.2919 19.2852 83.3223 19.4398 83.383 19.5475C83.4465 19.6524 83.5294 19.7242 83.6315 19.7629C83.7337 19.8016 83.8469 19.8209 83.9712 19.8209C84.0651 19.8209 84.1507 19.814 84.228 19.8002C84.308 19.7864 84.3688 19.7739 84.4102 19.7629L84.6629 20.935C84.5828 20.9626 84.4682 20.993 84.3191 21.0262C84.1727 21.0593 83.9933 21.0786 83.7807 21.0841C83.4051 21.0952 83.0669 21.0386 82.7659 20.9143C82.4649 20.7873 82.2261 20.5913 82.0494 20.3262C81.8754 20.0611 81.7898 19.7298 81.7926 19.3321V13.1111Z" fill="var(--fill-0, black)"/>
<path id="Vector_10" d="M79.5915 12.5148V20.9973H78.0921V12.5148H79.5915Z" fill="var(--fill-0, black)"/>
<path id="Vector_11" d="M72.9945 21.1256C72.5913 21.1256 72.2282 21.0538 71.9052 20.9103C71.5849 20.7639 71.3308 20.5485 71.1431 20.2641C70.9581 19.9797 70.8656 19.6291 70.8656 19.2121C70.8656 18.8532 70.9318 18.5563 71.0644 18.3216C71.1969 18.0869 71.3778 17.8992 71.6069 17.7583C71.8361 17.6175 72.0943 17.5112 72.3815 17.4394C72.6714 17.3649 72.971 17.311 73.2802 17.2779C73.653 17.2392 73.9554 17.2047 74.1873 17.1743C74.4192 17.1412 74.5877 17.0915 74.6926 17.0252C74.8003 16.9562 74.8541 16.8499 74.8541 16.7063V16.6815C74.8541 16.3694 74.7616 16.1278 74.5766 15.9566C74.3916 15.7854 74.1252 15.6998 73.7773 15.6998C73.41 15.6998 73.1187 15.7799 72.9033 15.9401C72.6907 16.1002 72.5471 16.2894 72.4726 16.5075L71.0726 16.3087C71.1831 15.9221 71.3653 15.5991 71.6194 15.3395C71.8734 15.0772 72.184 14.8811 72.5513 14.7514C72.9185 14.6188 73.3244 14.5526 73.769 14.5526C74.0755 14.5526 74.3806 14.5885 74.6843 14.6602C74.9881 14.732 75.2656 14.8508 75.5168 15.0164C75.7681 15.1794 75.9697 15.4016 76.1215 15.6833C76.2762 15.9649 76.3535 16.317 76.3535 16.7394V20.9972H74.9121V20.1233H74.8624C74.7713 20.3 74.6429 20.4657 74.4772 20.6203C74.3143 20.7722 74.1086 20.8951 73.8601 20.989C73.6143 21.0801 73.3258 21.1256 72.9945 21.1256ZM73.3838 20.0239C73.6848 20.0239 73.9457 19.9645 74.1666 19.8458C74.3875 19.7243 74.5573 19.5642 74.676 19.3654C74.7975 19.1666 74.8583 18.9498 74.8583 18.7151V17.9654C74.8113 18.0041 74.7313 18.04 74.6181 18.0731C74.5076 18.1062 74.3833 18.1352 74.2453 18.1601C74.1072 18.1849 73.9705 18.207 73.8352 18.2264C73.6999 18.2457 73.5826 18.2623 73.4832 18.2761C73.2595 18.3064 73.0593 18.3561 72.8826 18.4252C72.7059 18.4942 72.5665 18.5908 72.4643 18.7151C72.3621 18.8366 72.3111 18.994 72.3111 19.1873C72.3111 19.4634 72.4118 19.6719 72.6134 19.8127C72.815 19.9535 73.0718 20.0239 73.3838 20.0239Z" fill="var(--fill-0, black)"/>
<path id="Vector_12" d="M66.8322 21.1215C66.1944 21.1215 65.6435 20.989 65.1797 20.7239C64.7185 20.456 64.3637 20.0778 64.1152 19.589C63.8667 19.0975 63.7424 18.519 63.7424 17.8536C63.7424 17.1992 63.8667 16.6249 64.1152 16.1306C64.3665 15.6336 64.7172 15.247 65.1672 14.9709C65.6173 14.692 66.1461 14.5526 66.7536 14.5526C67.1456 14.5526 67.5157 14.6161 67.8636 14.7431C68.2142 14.8673 68.5235 15.0606 68.7913 15.3229C69.0619 15.5853 69.2745 15.9194 69.4292 16.3253C69.5838 16.7284 69.6611 17.2088 69.6611 17.7666V18.2264H64.4466V17.2158H68.2239C68.2211 16.9286 68.159 16.6732 68.0375 16.4495C67.916 16.2231 67.7462 16.045 67.5281 15.9152C67.3127 15.7854 67.0614 15.7206 66.7743 15.7206C66.4678 15.7206 66.1985 15.7951 65.9666 15.9442C65.7347 16.0906 65.5538 16.2838 65.424 16.5241C65.297 16.7615 65.2321 17.0225 65.2294 17.3069V18.1891C65.2294 18.5591 65.297 18.8766 65.4323 19.1417C65.5676 19.404 65.7568 19.6056 65.9997 19.7464C66.2427 19.8845 66.5271 19.9535 66.853 19.9535C67.0711 19.9535 67.2685 19.9231 67.4452 19.8624C67.622 19.7989 67.7752 19.7064 67.905 19.5849C68.0348 19.4634 68.1328 19.3129 68.1991 19.1334L69.599 19.2908C69.5106 19.6608 69.3422 19.9839 69.0937 20.26C68.8479 20.5334 68.5332 20.746 68.1494 20.8978C67.7655 21.0469 67.3265 21.1215 66.8322 21.1215Z" fill="var(--fill-0, black)"/>
<path id="Vector_13" d="M55.174 20.9973V12.5148H56.7106V16.1058H60.6412V12.5148H62.182V20.9973H60.6412V17.3939H56.7106V20.9973H55.174Z" fill="var(--fill-0, black)"/>
</g>
</g>
</svg>
