<svg preserveAspectRatio="none" width="100%" height="100%" overflow="visible" style="display: block;" viewBox="0 0 44.073 45" fill="none" xmlns="http://www.w3.org/2000/svg">
<g id="Group 2117761303">
<path id="Vector" d="M17.3333 30.6086C16.6529 30.6086 16.141 30.4279 15.7978 30.0666C15.4546 29.7114 15.283 29.1664 15.283 28.4319V22.1546C15.283 21.426 15.4546 20.8841 15.7978 20.5289C16.141 20.1676 16.6529 19.987 17.3333 19.987H25.5884C26.2688 19.987 26.7805 20.1676 27.1237 20.5289C27.467 20.8841 27.6386 21.426 27.6386 22.1546V28.4319C27.6386 29.1664 27.467 29.7114 27.1237 30.0666C26.7805 30.4279 26.2688 30.6086 25.5884 30.6086H17.3333ZM16.9358 20.7818L16.9448 18.0271C16.9448 17.0094 17.1496 16.1454 17.5591 15.4349C17.9685 14.7183 18.5164 14.1734 19.2028 13.8001C19.8892 13.4268 20.6419 13.2402 21.4608 13.2402C22.2797 13.2402 23.0323 13.4268 23.7187 13.8001C24.4052 14.1734 24.9532 14.7183 25.3626 15.4349C25.778 16.1454 25.9857 17.0094 25.9857 18.0271V20.7818H24.0529L24.0619 17.9187C24.0619 17.3226 23.9416 16.8138 23.7007 16.3922C23.4659 15.9708 23.1528 15.6516 22.7614 15.4349C22.37 15.212 21.9365 15.1007 21.4608 15.1007C20.9851 15.1007 20.5486 15.212 20.1512 15.4349C19.7598 15.6516 19.4468 15.9708 19.2118 16.3922C18.9831 16.8138 18.8686 17.3226 18.8686 17.9187V20.7818H16.9358Z" fill="var(--fill-0, black)"/>
<path id="Vector_2" d="M19.1952 9.28513C19.0804 9.1976 19.0095 9.08132 18.9823 8.93643C18.9581 8.79449 18.9778 8.63141 19.0412 8.44719L19.9017 5.89264L17.7096 4.32101C17.5465 4.20325 17.4318 4.07944 17.3654 3.9496C17.2988 3.81976 17.2914 3.68539 17.3427 3.54649C17.3879 3.40759 17.474 3.30493 17.6009 3.2385C17.7307 3.17207 17.8938 3.14035 18.09 3.14337L20.785 3.1615L21.6003 0.588814C21.6637 0.39859 21.7452 0.253638 21.8448 0.154001C21.9474 0.0513337 22.0713 0 22.2162 0C22.3642 0 22.4895 0.0513337 22.5921 0.154001C22.6949 0.253638 22.7763 0.39859 22.8368 0.588814L23.6566 3.1615L26.347 3.14337C26.5433 3.14035 26.7048 3.17358 26.8317 3.24302C26.9615 3.30945 27.049 3.41061 27.0943 3.54649C27.1426 3.68539 27.1336 3.81976 27.0672 3.9496C27.0038 4.07944 26.8904 4.20325 26.7275 4.32101L24.5352 5.89264L25.3958 8.44719C25.4593 8.63141 25.4789 8.79449 25.4548 8.93643C25.4305 9.08132 25.3596 9.1976 25.2418 9.28513C25.1271 9.37576 24.9972 9.40903 24.8524 9.38479C24.7073 9.36068 24.5548 9.28979 24.3948 9.17195L22.2162 7.57303L20.0421 9.17195C19.8821 9.28979 19.7296 9.36068 19.5847 9.38479C19.4428 9.40903 19.313 9.37576 19.1952 9.28513Z" fill="var(--fill-0, black)"/>
<path id="Vector_3" d="M7.9964 12.9465C7.88166 12.859 7.81077 12.7427 7.78356 12.5978C7.75932 12.4559 7.77905 12.2928 7.84234 12.1086L8.70296 9.55404L6.51081 7.98231C6.34774 7.86462 6.233 7.74073 6.16662 7.61091C6.10009 7.4811 6.09262 7.34678 6.14392 7.2078C6.18917 7.06897 6.27529 6.96621 6.40214 6.89983C6.53195 6.83344 6.69503 6.80173 6.89123 6.80469L9.58614 6.82287L10.4015 4.25016C10.4649 4.05992 10.5464 3.91498 10.6461 3.81533C10.7487 3.71268 10.8726 3.66134 11.0175 3.66134C11.1655 3.66134 11.2908 3.71268 11.3934 3.81533C11.4961 3.91498 11.5776 4.05992 11.6381 4.25016L12.4578 6.82287L15.1482 6.80469C15.3445 6.80173 15.5061 6.83485 15.6329 6.90434C15.7627 6.97072 15.8503 7.07193 15.8955 7.2078C15.9438 7.34678 15.9348 7.4811 15.8684 7.61091C15.805 7.74073 15.6917 7.86462 15.5286 7.98231L13.3365 9.55404L14.1971 12.1086C14.2605 12.2928 14.2801 12.4559 14.256 12.5978C14.2318 12.7427 14.1609 12.859 14.043 12.9465C13.9283 13.0372 13.7985 13.0703 13.6536 13.0462C13.5086 13.0221 13.3561 12.951 13.1961 12.8334L11.0175 11.2344L8.84335 12.8334C8.68337 12.951 8.53087 13.0221 8.38597 13.0462C8.24404 13.0703 8.11423 13.0372 7.9964 12.9465Z" fill="var(--fill-0, black)"/>
<path id="Vector_4" d="M30.033 12.9465C29.9183 12.859 29.8474 12.7427 29.8202 12.5978C29.7959 12.4559 29.8157 12.2928 29.8791 12.1086L30.7396 9.55404L28.5474 7.98231C28.3843 7.86462 28.2696 7.74073 28.2032 7.61091C28.1367 7.4811 28.1292 7.34678 28.1805 7.2078C28.2258 7.06897 28.3119 6.96621 28.4387 6.89983C28.5686 6.83344 28.7316 6.80173 28.9278 6.80469L31.6229 6.82287L32.4381 4.25016C32.5015 4.05992 32.583 3.91498 32.6827 3.81533C32.7853 3.71268 32.9092 3.66134 33.0541 3.66134C33.2021 3.66134 33.3274 3.71268 33.43 3.81533C33.5327 3.91498 33.6142 4.05992 33.6747 4.25016L34.4944 6.82287L37.1848 6.80469C37.3811 6.80173 37.5427 6.83485 37.6695 6.90434C37.7993 6.97072 37.8869 7.07193 37.9321 7.2078C37.9805 7.34678 37.9714 7.4811 37.905 7.61091C37.8416 7.74073 37.7283 7.86462 37.5654 7.98231L35.3731 9.55404L36.2337 12.1086C36.2971 12.2928 36.3167 12.4559 36.2926 12.5978C36.2684 12.7427 36.1975 12.859 36.0796 12.9465C35.9649 13.0372 35.8351 13.0703 35.6902 13.0462C35.5452 13.0221 35.3927 12.951 35.2327 12.8334L33.0541 11.2344L30.8799 12.8334C30.72 12.951 30.5675 13.0221 30.4226 13.0462C30.2806 13.0703 30.1508 13.0372 30.033 12.9465Z" fill="var(--fill-0, black)"/>
<path id="Vector_5" d="M36.1434 21.3126C36.0286 21.2251 35.9577 21.1088 35.9305 20.9639C35.9063 20.822 35.926 20.6589 35.9894 20.4748L36.8499 17.9202L34.6578 16.3485C34.4947 16.2307 34.38 16.1069 34.3136 15.9771C34.2471 15.8472 34.2396 15.7128 34.2909 15.574C34.3361 15.435 34.4223 15.3324 34.5491 15.266C34.6789 15.1995 34.842 15.1678 35.0382 15.1709L37.7331 15.1889L38.5485 12.6163C38.6119 12.4261 38.6934 12.2812 38.793 12.1815C38.8956 12.0788 39.0195 12.0274 39.1644 12.0274C39.3124 12.0274 39.4377 12.0788 39.5403 12.1815C39.6431 12.2812 39.7245 12.4261 39.785 12.6163L40.6048 15.1889L43.2952 15.1709C43.4915 15.1678 43.653 15.2011 43.7799 15.2705C43.9097 15.3369 43.9972 15.4381 44.0425 15.574C44.0908 15.7128 44.0818 15.8472 44.0154 15.9771C43.952 16.1069 43.8387 16.2307 43.6756 16.3485L41.4834 17.9202L42.3441 20.4748C42.4075 20.6589 42.4271 20.822 42.403 20.9639C42.3787 21.1088 42.3078 21.2251 42.19 21.3126C42.0753 21.4032 41.9455 21.4365 41.8006 21.4122C41.6555 21.3881 41.503 21.3172 41.343 21.1994L39.1644 19.6006L36.9903 21.1994C36.8303 21.3172 36.6778 21.3881 36.5329 21.4122C36.391 21.4365 36.2612 21.4032 36.1434 21.3126Z" fill="var(--fill-0, black)"/>
<path id="Vector_6" d="M1.8861 21.3126C1.77137 21.2251 1.70034 21.1088 1.67313 20.9639C1.64903 20.822 1.66862 20.6589 1.73205 20.4748L2.59267 17.9202L0.400379 16.3485C0.237444 16.2307 0.122573 16.1069 0.0561864 15.9771C-0.0101998 15.8472 -0.0178107 15.7128 0.0336351 15.574C0.0788792 15.435 0.164857 15.3324 0.291709 15.266C0.421522 15.1995 0.584598 15.1678 0.780938 15.1709L3.47585 15.1889L4.29109 12.6163C4.35451 12.4261 4.43612 12.2812 4.53577 12.1815C4.63838 12.0788 4.76213 12.0274 4.90717 12.0274C5.05502 12.0274 5.18033 12.0788 5.28308 12.1815C5.38569 12.2812 5.46729 12.4261 5.52762 12.6163L6.34751 15.1889L9.03791 15.1709C9.23411 15.1678 9.39564 15.2011 9.52249 15.2705C9.6523 15.3369 9.73997 15.4381 9.78522 15.574C9.83356 15.7128 9.82454 15.8472 9.75801 15.9771C9.69459 16.1069 9.58141 16.2307 9.41833 16.3485L7.22617 17.9202L8.08666 20.4748C8.15008 20.6589 8.16982 20.822 8.14558 20.9639C8.12147 21.1088 8.05044 21.2251 7.93274 21.3126C7.81801 21.4032 7.6882 21.4365 7.54317 21.4122C7.39827 21.3881 7.24577 21.3172 7.08579 21.1994L4.90717 19.6006L2.73306 21.1994C2.57294 21.3172 2.42058 21.3881 2.27554 21.4122C2.13361 21.4365 2.0038 21.4032 1.8861 21.3126Z" fill="var(--fill-0, black)"/>
<path id="Vector_7" d="M7.99647 40.0997C7.88174 40.0122 7.8107 39.8959 7.78363 39.751C7.75939 39.6091 7.77898 39.446 7.84241 39.2619L8.70303 36.7073L6.51088 35.1356C6.3478 35.0178 6.23307 34.894 6.16655 34.7642C6.10016 34.6343 6.09255 34.4999 6.144 34.3611C6.18924 34.2221 6.27536 34.1195 6.40207 34.0531C6.53202 33.9866 6.69496 33.9549 6.8913 33.958L9.58621 33.976L10.4016 31.4034C10.4649 31.2132 10.5465 31.0683 10.6461 30.9686C10.7487 30.8659 10.8726 30.8146 11.0175 30.8146C11.1655 30.8146 11.2908 30.8659 11.3934 30.9686C11.496 31.0683 11.5777 31.2132 11.638 31.4034L12.4579 33.976L15.1483 33.958C15.3445 33.9549 15.5061 33.9882 15.6329 34.0576C15.7628 34.124 15.8503 34.2252 15.8956 34.3611C15.9439 34.4999 15.9349 34.6343 15.8684 34.7642C15.8049 34.894 15.6918 35.0178 15.5287 35.1356L13.3365 36.7073L14.1972 39.2619C14.2604 39.446 14.2802 39.6091 14.2559 39.751C14.2318 39.8959 14.1609 40.0122 14.0431 40.0997C13.9284 40.1903 13.7986 40.2236 13.6535 40.1994C13.5086 40.1753 13.3561 40.1044 13.1962 39.9865L11.0175 38.3877L8.84342 39.9865C8.68344 40.1044 8.53094 40.1753 8.3859 40.1994C8.24411 40.2236 8.11416 40.1903 7.99647 40.0997Z" fill="var(--fill-0, black)"/>
<path id="Vector_8" d="M30.033 40.0997C29.9183 40.0122 29.8472 39.8959 29.8202 39.751C29.7959 39.6091 29.8155 39.446 29.879 39.2619L30.7396 36.7073L28.5474 35.1356C28.3843 35.0178 28.2696 34.894 28.2031 34.7642C28.1367 34.6343 28.1292 34.4999 28.1805 34.3611C28.2258 34.2221 28.3119 34.1195 28.4386 34.0531C28.5686 33.9866 28.7316 33.9549 28.9278 33.958L31.6228 33.976L32.4381 31.4034C32.5014 31.2132 32.583 31.0683 32.6827 30.9686C32.7853 30.8659 32.9092 30.8146 33.0541 30.8146C33.2021 30.8146 33.3274 30.8659 33.43 30.9686C33.5327 31.0683 33.6142 31.2132 33.6745 31.4034L34.4944 33.976L37.1848 33.958C37.3812 33.9549 37.5427 33.9882 37.6694 34.0576C37.7993 34.124 37.8869 34.2252 37.9321 34.3611C37.9805 34.4999 37.9714 34.6343 37.9049 34.7642C37.8416 34.894 37.7283 35.0178 37.5652 35.1356L35.3731 36.7073L36.2337 39.2619C36.2971 39.446 36.3167 39.6091 36.2925 39.751C36.2684 39.8959 36.1975 40.0122 36.0796 40.0997C35.9649 40.1903 35.8351 40.2236 35.6901 40.1994C35.5452 40.1753 35.3927 40.1044 35.2327 39.9865L33.0541 38.3877L30.88 39.9865C30.72 40.1044 30.5675 40.1753 30.4226 40.1994C30.2807 40.2236 30.1507 40.1903 30.033 40.0997Z" fill="var(--fill-0, black)"/>
<path id="Vector_9" d="M19.1952 44.8927C19.0804 44.8052 19.0095 44.6889 18.9823 44.544C18.9581 44.402 18.9778 44.239 19.0412 44.0547L19.9017 41.5002L17.7096 39.9286C17.5465 39.8108 17.4318 39.687 17.3654 39.5572C17.2988 39.4273 17.2914 39.2929 17.3427 39.1541C17.3879 39.0151 17.474 38.9125 17.6009 38.846C17.7307 38.7796 17.8938 38.7479 18.09 38.751L20.785 38.769L21.6003 36.1964C21.6637 36.0061 21.7452 35.8612 21.8448 35.7616C21.9474 35.6588 22.0713 35.6075 22.2162 35.6075C22.3642 35.6075 22.4895 35.6588 22.5921 35.7616C22.6949 35.8612 22.7763 36.0061 22.8368 36.1964L23.6566 38.769L26.347 38.751C26.5433 38.7479 26.7048 38.7811 26.8317 38.8506C26.9615 38.917 27.049 39.0182 27.0943 39.1541C27.1426 39.2929 27.1336 39.4273 27.0672 39.5572C27.0038 39.687 26.8904 39.8108 26.7275 39.9286L24.5352 41.5002L25.3958 44.0547C25.4593 44.239 25.4789 44.402 25.4548 44.544C25.4305 44.6889 25.3596 44.8052 25.2418 44.8927C25.1271 44.9833 24.9972 45.0166 24.8524 44.9923C24.7073 44.9682 24.5548 44.8973 24.3948 44.7795L22.2162 43.1806L20.0421 44.7795C19.8821 44.8973 19.7296 44.9682 19.5847 44.9923C19.4428 45.0166 19.313 44.9833 19.1952 44.8927Z" fill="var(--fill-0, black)"/>
<path id="Vector_10" d="M36.1434 31.7244C36.0286 31.6367 35.9577 31.5205 35.9305 31.3755C35.9063 31.2336 35.926 31.0706 35.9894 30.8864L36.8499 28.3319L34.6578 26.7601C34.4947 26.6423 34.38 26.5186 34.3136 26.3887C34.2471 26.2589 34.2396 26.1245 34.2909 25.9856C34.3361 25.8467 34.4223 25.744 34.5491 25.6777C34.6789 25.6111 34.842 25.5794 35.0382 25.5825L37.7331 25.6006L38.5485 23.028C38.6119 22.8377 38.6934 22.6928 38.793 22.5931C38.8956 22.4905 39.0195 22.4391 39.1644 22.4391C39.3124 22.4391 39.4377 22.4905 39.5403 22.5931C39.6431 22.6928 39.7245 22.8377 39.785 23.028L40.6048 25.6006L43.2952 25.5825C43.4915 25.5794 43.653 25.6127 43.7799 25.6822C43.9097 25.7486 43.9972 25.8498 44.0425 25.9856C44.0908 26.1245 44.0818 26.2589 44.0154 26.3887C43.952 26.5186 43.8387 26.6423 43.6756 26.7601L41.4834 28.3319L42.3441 30.8864C42.4075 31.0706 42.4271 31.2336 42.403 31.3755C42.3787 31.5205 42.3078 31.6367 42.19 31.7244C42.0753 31.8149 41.9455 31.8481 41.8006 31.824C41.6555 31.7998 41.503 31.7289 41.343 31.611L39.1644 30.0123L36.9903 31.611C36.8303 31.7289 36.6778 31.7998 36.5329 31.824C36.391 31.8481 36.2612 31.8149 36.1434 31.7244Z" fill="var(--fill-0, black)"/>
<path id="Vector_11" d="M1.8861 31.7244C1.77137 31.6367 1.70034 31.5205 1.67313 31.3755C1.64903 31.2336 1.66862 31.0706 1.73205 30.8864L2.59267 28.3319L0.400379 26.7601C0.237444 26.6423 0.122573 26.5186 0.0561864 26.3887C-0.0101998 26.2589 -0.0178107 26.1245 0.0336351 25.9856C0.0788792 25.8467 0.164857 25.744 0.291709 25.6777C0.421522 25.6111 0.584598 25.5794 0.780938 25.5825L3.47585 25.6006L4.29109 23.028C4.35451 22.8377 4.43612 22.6928 4.53577 22.5931C4.63838 22.4905 4.76213 22.4391 4.90717 22.4391C5.05502 22.4391 5.18033 22.4905 5.28308 22.5931C5.38569 22.6928 5.46729 22.8377 5.52762 23.028L6.34751 25.6006L9.03791 25.5825C9.23411 25.5794 9.39564 25.6127 9.52249 25.6822C9.6523 25.7486 9.73997 25.8498 9.78522 25.9856C9.83356 26.1245 9.82454 26.2589 9.75801 26.3887C9.69459 26.5186 9.58141 26.6423 9.41833 26.7601L7.22617 28.3319L8.08666 30.8864C8.15008 31.0706 8.16982 31.2336 8.14558 31.3755C8.12147 31.5205 8.05044 31.6367 7.93274 31.7244C7.81801 31.8149 7.6882 31.8481 7.54317 31.824C7.39827 31.7998 7.24577 31.7289 7.08579 31.611L4.90717 30.0123L2.73306 31.611C2.57294 31.7289 2.42058 31.7998 2.27554 31.824C2.13361 31.8481 2.0038 31.8149 1.8861 31.7244Z" fill="var(--fill-0, black)"/>
</g>
</svg>
