<svg preserveAspectRatio="none" width="100%" height="100%" overflow="visible" style="display: block;" viewBox="0 0 52.9994 21.5123" fill="none" xmlns="http://www.w3.org/2000/svg">
<g id="Group 2117761305">
<path id="Vector" d="M0 0C0.229789 0.0333022 1.07353 0.0171763 1.33205 0.0171413L4.04804 0.01588L16.4232 0.0159848L20.0187 0.0146882C21.4105 0.014513 22.59 -0.0303924 23.9709 0.248294C25.6763 0.56144 27.3078 1.3323 28.6507 2.4272C30.2189 3.7058 31.993 6.43314 32.1718 8.48224C32.8287 7.46667 33.4894 6.35203 34.1341 5.31868L37.4444 0.00956929C38.2033 0.047639 39.3917 0.0229253 40.1625 0.0123037C39.8316 0.691037 39.3573 1.4613 38.9717 2.12668L36.9392 5.64174L33.9396 10.7991C33.3874 11.7553 32.8283 12.7076 32.2626 13.6558C31.241 15.372 30.3208 16.9115 28.8981 18.3293C27.2047 20.0169 25.0718 21.2227 22.6637 21.4383C21.5928 21.5343 20.3024 21.5 19.2105 21.4996L13.6055 21.5031L13.6139 10.7745C13.6181 10.0887 13.6151 9.40282 13.6048 8.71704L16.1213 8.71634L16.1209 18.9429L19.8474 18.9428C20.6735 18.9427 21.6077 18.9977 22.4194 18.8908C31.7539 17.6616 32.7241 5.05615 23.4826 2.70032C22.3695 2.41658 20.9988 2.50969 19.8519 2.51102L16.128 2.51207L2.48918 2.51354L2.49177 21.4961C1.67531 21.5059 0.846598 21.4993 0.0291307 21.5C0.0565577 20.4993 0.0147652 19.33 0.0128967 18.3098L0.0100293 11.4654L0.0137942 4.16929C0.0145233 2.8112 0.041123 1.34969 0 0Z" fill="var(--fill-0, black)"/>
<path id="Vector_2" d="M3.33131 3.41302C4.84084 3.45698 6.53999 3.42161 8.06222 3.42182L16.9402 3.42126L20.0645 3.41933C21.1424 3.4187 22.2413 3.38249 23.2984 3.61126C24.6881 3.89913 25.9653 4.58165 26.9769 5.577C28.3914 6.99129 29 8.74141 29.033 10.7153C29.0995 14.6888 25.6987 18.0862 21.7067 17.9037C21.335 17.8866 20.9049 17.9032 20.5286 17.9028L17.0794 17.8979C17.1461 16.895 17.1083 15.512 17.1082 14.4889C17.1151 12.566 17.108 10.643 17.0868 8.7202L19.6722 8.71505L19.6737 13.3546L19.676 15.4122C21.7143 15.4137 23.3001 15.6786 24.9289 14.1508C26.8521 12.3469 27.0402 9.44041 25.2092 7.52055C24.5119 6.78598 23.6091 6.27894 22.6189 6.06581C21.9276 5.92299 21.0299 5.95423 20.3095 5.95584L17.6922 5.96106L10.0032 5.96394C8.64536 5.9639 7.18406 5.98711 5.83528 5.95384C5.83963 6.8713 5.86592 7.80888 5.83728 8.72483C6.47342 8.68991 7.45107 8.72245 8.11052 8.72308L12.6998 8.71536L12.7009 11.2952L6.41569 11.2959C5.41571 11.2946 4.32234 11.268 3.33015 11.2987C3.30011 8.69854 3.31627 6.01603 3.33131 3.41302Z" fill="var(--fill-0, black)"/>
<path id="Vector_3" d="M40.1754 2.52253C40.3538 2.66422 41.9912 5.43055 42.2163 5.79701L49.6479 17.8969L36.5987 17.9023L36.5994 15.4035L45.0533 15.4058C44.6799 14.8837 44.1145 13.8965 43.7608 13.3203L41.2491 9.21943L40.189 7.46366C40.0173 7.85673 39.4827 8.74408 39.2545 9.14332L37.5427 12.1499L32.2065 21.507C31.043 21.4993 29.8793 21.5011 28.7158 21.5123C29.7342 19.6887 30.975 17.7956 32.0492 15.9837C34.717 11.4844 37.5256 7.02968 40.1754 2.52253Z" fill="var(--fill-0, black)"/>
<path id="Vector_4" d="M40.2282 0.0107386C40.9422 0.0605166 42.2305 0.0172233 42.9867 0.0183801C43.2254 0.505188 43.7757 1.33445 44.0804 1.82848L46.1977 5.26512L52.9994 16.2959C52.6194 16.9929 52.1051 17.7864 51.6866 18.4735C51.0801 19.4892 50.4674 20.5009 49.8476 21.5084L38.1564 21.502L36.6038 21.5066L36.5979 18.9376L45.987 18.9412C47.7187 18.9412 49.6951 18.9846 51.4118 18.9211C50.812 17.9687 50.1747 16.8232 49.5935 15.8425L45.498 8.93706L42.1906 3.36459C41.5557 2.29636 40.7943 1.09509 40.2282 0.0107386Z" fill="var(--fill-0, black)"/>
<path id="Vector_5" d="M3.3192 12.366C3.76856 12.3987 4.42216 12.3828 4.8879 12.3837L7.74029 12.3854L10.899 12.3842C11.4507 12.3837 12.1431 12.4014 12.6853 12.3707L12.6916 14.9133L6.02312 14.9063C5.93808 14.9068 5.92259 14.9002 5.84483 14.9364C5.81304 15.088 5.83561 16.4669 5.83593 16.7187L5.83782 21.5039L3.31324 21.4997C3.3362 20.5775 3.3145 19.5453 3.31432 18.6129L3.3192 12.366Z" fill="var(--fill-0, black)"/>
</g>
</svg>
