<svg preserveAspectRatio="none" width="100%" height="100%" overflow="visible" style="display: block;" viewBox="0 0 115.991 45" fill="none" xmlns="http://www.w3.org/2000/svg">
<g id="Group 2117761309">
<path id="Vector" d="M41.3241 31.3955C40.1613 34.0252 38.5647 36.3498 36.5309 38.3682C34.4648 40.4343 32.0703 42.053 29.3474 43.2222C26.6406 44.4075 23.7486 45 20.6734 45C17.5823 45 14.6753 44.4074 11.9525 43.2222C9.24569 42.053 6.85935 40.4344 4.79309 38.3682C2.77476 36.3498 1.17774 34.0253 0 31.3955H2.23325C3.04023 33.0318 4.03477 34.5292 5.21743 35.8874C6.20473 35.1605 7.39304 34.5224 8.78151 33.9725C9.46264 33.696 10.1792 33.4454 10.9313 33.22C10.7728 32.6489 10.6231 32.0592 10.4873 31.4493C10.4834 31.4315 10.4799 31.4134 10.476 31.3955H12.6286C12.7321 31.8379 12.8402 32.2709 12.9568 32.6939C13.3736 32.601 13.7998 32.5132 14.2353 32.4337C15.9524 32.1203 17.7623 31.9416 19.6649 31.8948V31.3955H21.6592V31.8933C23.5705 31.9392 25.3885 32.1188 27.1128 32.4337C27.5391 32.5115 27.956 32.5975 28.3645 32.6883C28.4815 32.267 28.5904 31.836 28.6941 31.3955H30.8481C30.8441 31.4134 30.8409 31.4315 30.8368 31.4493C30.7013 32.0571 30.5516 32.645 30.3926 33.2143C31.1533 33.4415 31.8784 33.6931 32.5665 33.9725C33.9545 34.5221 35.1356 35.1609 36.1109 35.8874C37.3011 34.5288 38.2973 33.0324 39.0965 31.3955H41.3241ZM29.8184 35.0403C29.3998 36.2318 28.9244 37.3257 28.3857 38.3201C27.4587 40.0583 26.4048 41.4338 25.2289 42.4515C26.3777 42.1871 27.4942 41.8197 28.5781 41.3482C30.9113 40.3548 32.9758 38.9999 34.7715 37.2848C33.4188 36.3545 31.7694 35.605 29.8184 35.0403ZM11.497 35.0417C9.54548 35.6077 7.89864 36.3549 6.55825 37.2876C8.36643 39.0012 10.4291 40.3554 12.746 41.3482C13.8275 41.8187 14.9431 42.1858 16.0923 42.45C14.9157 41.4324 13.8553 40.0573 12.9143 38.3201C12.384 37.3258 11.9117 36.2331 11.497 35.0417ZM21.6592 42.4471C22.5009 42.232 23.3097 41.7385 24.0848 40.9635C25.1739 39.9064 26.1357 38.4484 26.9686 36.5904C27.2639 35.9382 27.5339 35.2529 27.7846 34.5367C25.9347 34.1542 23.8933 33.9361 21.6592 33.8876V42.4471ZM19.6649 33.8876C17.4312 33.9373 15.3861 34.156 13.5281 34.5396C13.775 35.2549 14.042 35.9388 14.3315 36.5904C15.1803 38.4483 16.1488 39.9064 17.2379 40.9635C18.0179 41.7321 18.8274 42.2234 19.6649 42.4415V33.8876ZM20.6493 0C23.7405 0 26.6406 0.584542 29.3474 1.75378C32.0702 2.92298 34.4648 4.54839 36.5309 6.63048C38.5595 8.64344 40.1522 10.9697 41.3141 13.606H39.088C38.3015 11.9894 37.3257 10.5113 36.1617 9.17062C35.1767 9.91475 33.9787 10.5746 32.5665 11.1478C31.879 11.4269 31.154 11.676 30.3941 11.9031C30.5466 12.4527 30.6902 13.02 30.8212 13.606H28.7096C28.6162 13.2019 28.5171 12.807 28.4125 12.4207C27.9889 12.5154 27.5557 12.6044 27.1128 12.6852C25.3885 12.9863 23.5705 13.1576 21.6592 13.2015V13.606H19.6649V13.2C17.7623 13.1553 15.9524 12.985 14.2353 12.6852C13.783 12.6026 13.3407 12.5121 12.9087 12.4151C12.8045 12.8031 12.7065 13.2 12.6131 13.606H10.5028C10.6375 13.0187 10.7822 12.4497 10.937 11.8989C10.1832 11.6731 9.46409 11.4249 8.78151 11.1478C7.36929 10.5746 6.16374 9.9162 5.1666 9.17207C4.01015 10.5122 3.0356 11.9903 2.24165 13.606H0.00839901C1.17007 10.9695 2.75608 8.64344 4.76905 6.63048C6.85124 4.54841 9.24583 2.92296 11.9525 1.75378C14.6753 0.584614 17.5742 7.24142e-05 20.6493 0ZM19.6649 2.62501C18.8272 2.83661 18.0181 3.31489 17.2379 4.06057C16.1491 5.08552 15.1802 6.51867 14.3315 8.36016C14.0159 9.05809 13.7252 9.79917 13.4602 10.5821C15.3363 10.9646 17.404 11.1823 19.6649 11.2312V2.62501ZM21.6592 11.2312C23.9213 11.1834 25.9856 10.9666 27.8539 10.5849C27.585 9.80106 27.2906 9.05881 26.9686 8.36016C26.1357 6.51852 25.1737 5.08556 24.0848 4.06057C23.3095 3.30855 22.5012 2.82809 21.6592 2.61937V11.2312ZM16.2507 2.48924C15.0471 2.75571 13.8787 3.135 12.746 3.62779C10.3994 4.63347 8.31372 6.01655 6.48888 7.77607C7.8436 8.73396 9.51347 9.50836 11.5028 10.0969C11.9247 8.88705 12.4027 7.77896 12.9384 6.77472C13.906 4.94544 15.0119 3.51934 16.2507 2.48924ZM25.0747 2.49066C26.3128 3.52068 27.4186 4.94624 28.3857 6.77472C28.9293 7.77824 29.4098 8.88545 29.8311 10.0942C31.8114 9.50764 33.4805 8.73671 34.8436 7.78447C33.0168 6.02104 30.9285 4.63509 28.5781 3.62779C27.4474 3.13585 26.2795 2.75708 25.0747 2.49066Z" fill="var(--fill-0, black)"/>
<path id="Vector_2" d="M1.81304 29.1718V26.5866L2.78527 26.3435C3.07261 26.2773 3.22729 26.1446 3.22729 25.8794V16.9968C3.22729 16.7316 3.07261 16.5991 2.78527 16.5328L1.81304 16.2898V13.7044H9.78974V16.2898L8.81751 16.5328C8.53032 16.577 8.3978 16.7316 8.3978 16.9968V25.8794C8.3978 26.1446 8.53032 26.2993 8.81751 26.3435L9.78974 26.5866V29.1718H1.81304ZM15.4346 24.0676C15.4566 25.7469 16.2741 26.6308 17.7767 26.6308C18.9036 26.6308 19.6328 26.1004 19.6328 25.1724C19.6328 23.9129 18.3291 23.4931 16.2741 22.786C14.5065 22.1673 11.6782 21.1951 11.6782 17.969C11.6782 14.5441 14.86 13.3509 17.6662 13.3509C19.5887 13.3509 20.8923 14.0801 21.3785 14.0801C21.6878 14.0801 21.9528 13.8371 22.0192 13.7044H24.0741V18.2784H20.4946C20.1631 16.82 19.5665 16.2013 18.4176 16.2013C17.4895 16.2013 16.8708 16.6211 16.8708 17.4829C16.8708 18.5436 17.7989 18.8749 19.677 19.4716C22.3507 20.3334 25.0244 21.0846 25.0244 24.399C25.0244 27.6914 22.4169 29.5253 18.4176 29.5253C16.4068 29.5253 15.5671 28.8404 14.7495 28.8404C14.4843 28.8404 14.2413 28.9509 14.1088 29.1718H11.5456V24.0676H15.4346ZM34.8195 29.5253C29.5163 29.5253 26.4671 26.2551 26.4671 21.4381C26.4671 16.6211 29.5163 13.3509 34.8195 13.3509C40.1005 13.3509 43.1497 16.6211 43.1497 21.4381C43.1497 26.2551 40.1005 29.5253 34.8195 29.5253ZM34.8195 16.82C32.9856 16.82 31.9248 17.9469 31.9248 21.5044C31.9248 25.0399 32.9856 26.0784 34.8195 26.0784C36.6535 26.0784 37.692 25.0399 37.692 21.5044C37.692 17.9469 36.6535 16.82 34.8195 16.82Z" fill="var(--fill-0, black)"/>
<g id="Group 2117761346">
<path id="Vector_3" d="M55.6352 20.3272V19.2244L58.5606 16.3567C58.8404 16.0741 59.0736 15.8233 59.2601 15.6037C59.4466 15.3843 59.5865 15.1717 59.6798 14.966C59.7731 14.7602 59.8196 14.5408 59.8196 14.3078C59.8196 14.0416 59.7593 13.8139 59.6385 13.6248C59.5179 13.4327 59.3519 13.2846 59.1407 13.1803C58.9296 13.0762 58.6895 13.024 58.4207 13.024C58.1438 13.024 57.9009 13.0817 57.6925 13.1968C57.4841 13.3094 57.3221 13.4698 57.207 13.6782C57.0945 13.8866 57.0383 14.1349 57.0383 14.4229H55.5859C55.5859 13.8881 55.7079 13.4232 55.9521 13.0281C56.1963 12.6331 56.5323 12.3273 56.9601 12.1106C57.3908 11.8939 57.8845 11.7856 58.4412 11.7856C59.0064 11.7856 59.5028 11.8912 59.9308 12.1024C60.3586 12.3137 60.6906 12.603 60.9265 12.9706C61.165 13.338 61.2844 13.7577 61.2844 14.2296C61.2844 14.545 61.224 14.855 61.1033 15.1594C60.9827 15.4638 60.7701 15.8013 60.4656 16.1716C60.1638 16.5419 59.7401 16.9903 59.1942 17.517L57.7419 18.994V19.0517H61.4119V20.3272H55.6352ZM63.14 20.3272L66.7237 13.2339V13.1763H62.5639V11.9007H68.3036V13.2051L64.724 20.3272H63.14ZM72.5652 20.4876C71.8877 20.4876 71.3062 20.3161 70.8206 19.9733C70.3379 19.6276 69.9662 19.1299 69.7055 18.4797C69.4477 17.827 69.3188 17.0411 69.3188 16.1222C69.3216 15.2033 69.4519 14.4215 69.7097 13.777C69.9703 13.1296 70.3419 12.6359 70.8248 12.2957C71.3102 11.9556 71.8904 11.7856 72.5652 11.7856C73.2399 11.7856 73.8201 11.9556 74.3056 12.2957C74.791 12.6359 75.1627 13.1296 75.4206 13.777C75.6811 14.4242 75.8115 15.206 75.8115 16.1222C75.8115 17.0439 75.6811 17.831 75.4206 18.4839C75.1627 19.1339 74.791 19.6304 74.3056 19.9733C73.8227 20.3161 73.2427 20.4876 72.5652 20.4876ZM72.5652 19.1998C73.0918 19.1998 73.5073 18.9406 73.8118 18.4222C74.119 17.901 74.2727 17.1344 74.2727 16.1222C74.2727 15.453 74.2027 14.8906 74.0628 14.4352C73.9229 13.9799 73.7254 13.6371 73.4703 13.4067C73.2152 13.1735 72.9135 13.0569 72.5652 13.0569C72.0412 13.0569 71.627 13.3175 71.3225 13.8387C71.0181 14.357 70.8644 15.1183 70.8617 16.1222C70.8589 16.7942 70.9261 17.3593 71.0633 17.8173C71.2032 18.2754 71.4007 18.6211 71.6558 18.8542C71.911 19.0845 72.2141 19.1998 72.5652 19.1998ZM80.293 20.4876C79.6155 20.4876 79.0341 20.3161 78.5486 19.9733C78.0657 19.6276 77.6941 19.1299 77.4336 18.4797C77.1756 17.827 77.0467 17.0411 77.0467 16.1222C77.0495 15.2033 77.1798 14.4215 77.4376 13.777C77.6982 13.1296 78.0699 12.6359 78.5527 12.2957C79.0381 11.9556 79.6183 11.7856 80.293 11.7856C80.9678 11.7856 81.548 11.9556 82.0334 12.2957C82.5189 12.6359 82.8907 13.1296 83.1485 13.777C83.409 14.4242 83.5394 15.206 83.5394 16.1222C83.5394 17.0439 83.409 17.831 83.1485 18.4839C82.8907 19.1339 82.5189 19.6304 82.0334 19.9733C81.5507 20.3161 80.9706 20.4876 80.293 20.4876ZM80.293 19.1998C80.8196 19.1998 81.2353 18.9406 81.5397 18.4222C81.8469 17.901 82.0006 17.1344 82.0006 16.1222C82.0006 15.453 81.9306 14.8906 81.7907 14.4352C81.6508 13.9799 81.4533 13.6371 81.1982 13.4067C80.9432 13.1735 80.6414 13.0569 80.293 13.0569C79.7692 13.0569 79.355 13.3175 79.0506 13.8387C78.746 14.357 78.5925 15.1183 78.5897 16.1222C78.587 16.7942 78.6542 17.3593 78.7913 17.8173C78.9312 18.2754 79.1286 18.6211 79.3838 18.8542C79.6389 19.0845 79.942 19.1998 80.293 19.1998ZM88.3338 11.9007V20.3272H86.8073V13.3861H86.7579L84.7871 14.6451V13.2462L86.8813 11.9007H88.3338Z" fill="var(--fill-0, black)"/>
<path id="Vector_4" d="M57.1399 33.3612H55.5106L58.4771 24.9348H60.3615L63.3322 33.3612H61.7029L59.4523 26.6629H59.3864L57.1399 33.3612ZM57.1934 30.0574H61.637V31.2834H57.1934V30.0574ZM66.9404 33.4846C66.3096 33.4846 65.7679 33.3462 65.3153 33.0691C64.8655 32.792 64.5185 32.4094 64.2743 31.9212C64.033 31.4302 63.9122 30.8651 63.9122 30.226C63.9122 29.5841 64.0358 29.0177 64.2826 28.5267C64.5295 28.033 64.8778 27.649 65.3276 27.3747C65.7802 27.0977 66.3151 26.9591 66.9323 26.9591C67.4452 26.9591 67.8992 27.0538 68.2942 27.2431C68.6919 27.4296 69.0087 27.6942 69.2447 28.0372C69.4804 28.3772 69.6148 28.7749 69.6479 29.2303H68.2242C68.1666 28.9258 68.0294 28.6721 67.8127 28.4692C67.5988 28.2634 67.3122 28.1606 66.9529 28.1606C66.6483 28.1606 66.381 28.2428 66.1506 28.4074C65.9201 28.5693 65.7404 28.8025 65.6115 29.1069C65.4854 29.4113 65.4224 29.7761 65.4224 30.2013C65.4224 30.6319 65.4854 31.0022 65.6115 31.3122C65.7378 31.6194 65.9146 31.8567 66.1423 32.024C66.3727 32.1885 66.643 32.2709 66.9529 32.2709C67.1723 32.2709 67.3684 32.2297 67.5412 32.1474C67.7167 32.0624 67.8636 31.9403 67.9815 31.7813C68.0994 31.6221 68.1803 31.4288 68.2242 31.2011H69.6479C69.6121 31.6482 69.4804 32.0446 69.2528 32.3901C69.0251 32.7331 68.7152 33.0019 68.323 33.1967C67.9308 33.3886 67.4699 33.4846 66.9404 33.4846ZM73.6275 33.4846C72.9966 33.4846 72.4549 33.3462 72.0023 33.0691C71.5525 32.792 71.2055 32.4094 70.9613 31.9212C70.72 31.4302 70.5992 30.8651 70.5992 30.226C70.5992 29.5841 70.7228 29.0177 70.9696 28.5267C71.2165 28.033 71.5648 27.649 72.0146 27.3747C72.4672 27.0977 73.0021 26.9591 73.6193 26.9591C74.1322 26.9591 74.5862 27.0538 74.9812 27.2431C75.3789 27.4296 75.6957 27.6942 75.9315 28.0372C76.1674 28.3772 76.3018 28.7749 76.3349 29.2303H74.9112C74.8536 28.9258 74.7164 28.6721 74.4998 28.4692C74.2858 28.2634 73.9992 28.1606 73.6399 28.1606C73.3353 28.1606 73.068 28.2428 72.8376 28.4074C72.6071 28.5693 72.4274 28.8025 72.2985 29.1069C72.1724 29.4113 72.1092 29.7761 72.1092 30.2013C72.1092 30.6319 72.1724 31.0022 72.2985 31.3122C72.4247 31.6194 72.6016 31.8567 72.8293 32.024C73.0597 32.1885 73.3298 32.2709 73.6399 32.2709C73.8593 32.2709 74.0554 32.2297 74.2282 32.1474C74.4037 32.0624 74.5504 31.9403 74.6685 31.7813C74.7864 31.6221 74.8673 31.4288 74.9112 31.2011H76.3349C76.2991 31.6482 76.1674 32.0446 75.9398 32.3901C75.7121 32.7331 75.4022 33.0019 75.01 33.1967C74.6176 33.3886 74.1569 33.4846 73.6275 33.4846ZM77.5578 33.3612V27.0415H79.002V28.0947H79.0678C79.1831 27.7299 79.3805 27.4487 79.6603 27.2512C79.9428 27.051 80.2651 26.951 80.6271 26.951C80.7096 26.951 80.8014 26.955 80.9029 26.9633C81.007 26.9688 81.0935 26.9783 81.1621 26.9921V28.3622C81.099 28.3402 80.9989 28.321 80.8618 28.3045C80.7274 28.2854 80.597 28.2757 80.4709 28.2757C80.1993 28.2757 79.9551 28.3348 79.7385 28.4527C79.5246 28.5678 79.3558 28.7283 79.2324 28.9341C79.1089 29.1398 79.0472 29.3771 79.0472 29.6459V33.3612H77.5578ZM84.6891 33.4846C84.0555 33.4846 83.5084 33.353 83.0475 33.0897C82.5894 32.8236 82.2369 32.4478 81.9901 31.9623C81.7432 31.4741 81.6198 30.8994 81.6198 30.2384C81.6198 29.5883 81.7432 29.0177 81.9901 28.5267C82.2397 28.033 82.5881 27.649 83.0352 27.3747C83.4823 27.0977 84.0076 26.9591 84.6109 26.9591C85.0005 26.9591 85.3681 27.0222 85.7137 27.1484C86.062 27.2719 86.3693 27.4638 86.6353 27.7245C86.9041 27.985 87.1153 28.3168 87.269 28.7202C87.4225 29.1206 87.4994 29.5978 87.4994 30.152V30.6086H82.3193V29.6047H86.0717C86.0689 29.3195 86.0072 29.0657 85.8864 28.8436C85.7658 28.6187 85.5971 28.4417 85.3804 28.3128C85.1665 28.1839 84.9168 28.1194 84.6315 28.1194C84.3271 28.1194 84.0597 28.1934 83.8293 28.3416C83.5989 28.487 83.4191 28.6789 83.2902 28.9176C83.1641 29.1535 83.0997 29.4128 83.0969 29.6953V30.5717C83.0969 30.9393 83.1641 31.2547 83.2985 31.518C83.4329 31.7785 83.6207 31.9788 83.8622 32.1186C84.1036 32.2557 84.386 32.3244 84.7097 32.3244C84.9264 32.3244 85.1226 32.2943 85.2981 32.2339C85.4737 32.1707 85.6259 32.0789 85.7548 31.9581C85.8837 31.8375 85.9811 31.688 86.0469 31.5097L87.4375 31.666C87.3498 32.0336 87.1825 32.3545 86.9357 32.6288C86.6915 32.9004 86.3789 33.1117 85.9975 33.2624C85.6163 33.4106 85.1801 33.4846 84.6891 33.4846ZM91.1046 33.4723C90.6081 33.4723 90.1638 33.3447 89.7716 33.0897C89.3792 32.8346 89.0693 32.4643 88.8417 31.9788C88.614 31.4932 88.5001 30.9035 88.5001 30.2096C88.5001 29.5073 88.6154 28.9148 88.8457 28.4321C89.0789 27.9467 89.393 27.5804 89.788 27.3336C90.1829 27.0839 90.6232 26.9591 91.1086 26.9591C91.479 26.9591 91.7835 27.0222 92.0221 27.1484C92.2608 27.2719 92.45 27.4214 92.5899 27.5969C92.7298 27.7697 92.8382 27.9329 92.9149 28.0866H92.9766V24.9348H94.4702V33.3612H93.0055V32.3655H92.9149C92.8382 32.5192 92.7271 32.6823 92.5817 32.8552C92.4363 33.0252 92.2442 33.1706 92.0057 33.2913C91.767 33.4119 91.4667 33.4723 91.1046 33.4723ZM91.5201 32.2504C91.8355 32.2504 92.1043 32.1652 92.3267 31.9952C92.5488 31.8224 92.7174 31.5824 92.8327 31.2753C92.9478 30.9679 93.0055 30.6101 93.0055 30.2013C93.0055 29.7926 92.9478 29.4374 92.8327 29.1357C92.7201 28.834 92.5529 28.5994 92.3307 28.4321C92.1113 28.2648 91.841 28.1811 91.5201 28.1811C91.1883 28.1811 90.9112 28.2676 90.6891 28.4404C90.4669 28.6132 90.2995 28.8518 90.1871 29.1563C90.0746 29.4607 90.0184 29.809 90.0184 30.2013C90.0184 30.5963 90.0746 30.9488 90.1871 31.2587C90.3022 31.5659 90.471 31.8087 90.6931 31.9869C90.918 32.1625 91.1938 32.2504 91.5201 32.2504ZM96.0574 33.3612V27.0415H97.5468V33.3612H96.0574ZM96.8062 26.1444C96.5703 26.1444 96.3674 26.0664 96.1972 25.9099C96.0271 25.7509 95.9421 25.5602 95.9421 25.338C95.9421 25.1131 96.0271 24.9225 96.1972 24.7661C96.3674 24.6071 96.5703 24.5276 96.8062 24.5276C97.0449 24.5276 97.2478 24.6071 97.4152 24.7661C97.5852 24.9225 97.6702 25.1131 97.6702 25.338C97.6702 25.5602 97.5852 25.7509 97.4152 25.9099C97.2478 26.0664 97.0449 26.1444 96.8062 26.1444ZM102.234 27.0415V28.1935H98.601V27.0415H102.234ZM99.4981 25.5273H100.988V31.4603C100.988 31.6606 101.018 31.8142 101.078 31.9212C101.141 32.0255 101.223 32.0967 101.325 32.1351C101.426 32.1735 101.539 32.1927 101.662 32.1927C101.756 32.1927 101.841 32.1858 101.917 32.1722C101.997 32.1584 102.057 32.1461 102.098 32.1351L102.349 33.2995C102.27 33.3269 102.156 33.3572 102.008 33.39C101.862 33.4229 101.684 33.4422 101.473 33.4477C101.1 33.4585 100.764 33.4023 100.465 33.279C100.166 33.1528 99.9287 32.958 99.7532 32.6947C99.5804 32.4314 99.4954 32.1022 99.4981 31.7073V25.5273ZM106.21 33.4846C105.576 33.4846 105.029 33.353 104.568 33.0897C104.11 32.8236 103.758 32.4478 103.511 31.9623C103.264 31.4741 103.14 30.8994 103.14 30.2384C103.14 29.5883 103.264 29.0177 103.511 28.5267C103.76 28.033 104.109 27.649 104.556 27.3747C105.003 27.0977 105.528 26.9591 106.132 26.9591C106.521 26.9591 106.889 27.0222 107.234 27.1484C107.583 27.2719 107.89 27.4638 108.156 27.7245C108.425 27.985 108.636 28.3168 108.789 28.7202C108.943 29.1206 109.02 29.5978 109.02 30.152V30.6086H103.84V29.6047H107.592C107.589 29.3195 107.528 29.0657 107.407 28.8436C107.286 28.6187 107.118 28.4417 106.901 28.3128C106.687 28.1839 106.437 28.1194 106.152 28.1194C105.848 28.1194 105.58 28.1934 105.35 28.3416C105.119 28.487 104.94 28.6789 104.811 28.9176C104.685 29.1535 104.62 29.4128 104.617 29.6953V30.5717C104.617 30.9393 104.685 31.2547 104.819 31.518C104.953 31.7785 105.141 31.9788 105.383 32.1186C105.624 32.2557 105.907 32.3244 106.23 32.3244C106.447 32.3244 106.643 32.2943 106.819 32.2339C106.994 32.1707 107.146 32.0789 107.275 31.9581C107.404 31.8375 107.502 31.688 107.568 31.5097L108.958 31.666C108.87 32.0336 108.703 32.3545 108.456 32.6288C108.212 32.9004 107.899 33.1117 107.518 33.2624C107.137 33.4106 106.701 33.4846 106.21 33.4846ZM112.625 33.4723C112.129 33.4723 111.684 33.3447 111.292 33.0897C110.9 32.8346 110.59 32.4643 110.362 31.9788C110.135 31.4932 110.021 30.9035 110.021 30.2096C110.021 29.5073 110.136 28.9148 110.366 28.4321C110.599 27.9467 110.914 27.5804 111.309 27.3336C111.704 27.0839 112.144 26.9591 112.629 26.9591C113 26.9591 113.304 27.0222 113.543 27.1484C113.781 27.2719 113.971 27.4214 114.111 27.5969C114.25 27.7697 114.359 27.9329 114.436 28.0866H114.497V24.9348H115.991V33.3612H114.526V32.3655H114.436C114.359 32.5192 114.248 32.6823 114.102 32.8552C113.957 33.0252 113.765 33.1706 113.526 33.2913C113.288 33.4119 112.987 33.4723 112.625 33.4723ZM113.041 32.2504C113.356 32.2504 113.625 32.1652 113.847 31.9952C114.069 31.8224 114.238 31.5824 114.353 31.2753C114.468 30.9679 114.526 30.6101 114.526 30.2013C114.526 29.7926 114.468 29.4374 114.353 29.1357C114.241 28.834 114.073 28.5994 113.851 28.4321C113.632 28.2648 113.362 28.1811 113.041 28.1811C112.709 28.1811 112.432 28.2676 112.21 28.4404C111.987 28.6132 111.82 28.8518 111.708 29.1563C111.595 29.4607 111.539 29.809 111.539 30.2013C111.539 30.5963 111.595 30.9488 111.708 31.2587C111.823 31.5659 111.992 31.8087 112.214 31.9869C112.439 32.1625 112.714 32.2504 113.041 32.2504Z" fill="var(--fill-0, black)"/>
</g>
</g>
</svg>
