<svg preserveAspectRatio="none" width="100%" height="100%" overflow="visible" style="display: block;" viewBox="0 0 25.8088 6.67714" fill="none" xmlns="http://www.w3.org/2000/svg">
<g id="GDPR">
<path id="Vector" d="M24.0193 6.5613L22.6216 4.13082H21.5889V6.5613H20.0665V0.106742H22.5504C24.2241 0.106742 25.4794 0.498467 25.4794 2.10098C25.4794 3.05358 24.9541 3.59665 24.2152 3.88154L25.8088 6.5613H24.0193ZM22.5949 1.38875H21.5889V2.84882H22.5949C23.316 2.84882 23.868 2.73308 23.868 2.11878C23.868 1.52229 23.316 1.38875 22.5949 1.38875Z" fill="var(--fill-0, black)"/>
<path id="Vector_2" d="M14.0414 0.106742H16.5253C18.1991 0.106742 19.4543 0.516272 19.4543 2.20781C19.4543 3.90825 18.1991 4.32668 16.5253 4.32668H15.5638V6.5613H14.0414V0.106742ZM16.5698 1.38875H15.5638V3.04468H16.5698C17.2821 3.04468 17.8429 2.88443 17.8429 2.20781C17.8429 1.5312 17.2821 1.38875 16.5698 1.38875Z" fill="var(--fill-0, black)"/>
<path id="Vector_3" d="M11.6554 3.32957C11.6554 1.62022 10.6316 1.38875 9.51871 1.38875H8.88661V5.27929H9.51871C10.6316 5.27929 11.6554 5.03891 11.6554 3.32957ZM7.36423 0.106742H9.492C11.602 0.106742 13.2668 0.881289 13.2668 3.32957C13.2668 5.78675 11.602 6.5613 9.492 6.5613H7.36423V0.106742Z" fill="var(--fill-0, black)"/>
<path id="Vector_4" d="M3.29406 1.41932e-05C4.72741 1.41932e-05 5.87587 0.721143 6.18746 2.12779H4.6918C4.54935 1.68265 4.10421 1.25531 3.27625 1.25531C2.34146 1.25531 1.61143 1.94973 1.61143 3.31187C1.61143 4.674 2.27914 5.42184 3.30296 5.42184C4.00628 5.42184 4.73631 5.15475 4.73631 4.33569V4.21105H3.17832V2.96466H6.25869V6.5614H5.09242L5.04791 5.84918C4.62948 6.41896 3.99738 6.67714 3.07149 6.67714C1.17519 6.67714 2.55808e-05 5.37732 2.55808e-05 3.31187C2.55808e-05 1.27312 1.33544 1.41932e-05 3.29406 1.41932e-05Z" fill="var(--fill-0, black)"/>
</g>
</svg>
