<svg preserveAspectRatio="none" width="100%" height="100%" overflow="visible" style="display: block;" viewBox="0 0 106.481 45" fill="none" xmlns="http://www.w3.org/2000/svg">
<g id="Frame 2147224543">
<g id="Group 2117761302">
<path id="Vector" d="M6.6986 24.1507C6.05057 23.6521 4.91197 22.1506 4.44047 21.4655C3.81463 20.5291 3.22883 19.2501 2.92402 18.1695C2.30608 15.9788 2.17485 13.6755 1.64506 11.4546C1.15786 9.41212 0.893628 7.24233 0.557464 5.16599C0.454612 4.53076 -0.0731802 2.08447 0.00856397 1.65691C0.0334485 1.63608 0.104975 1.58347 0.135216 1.57625C3.61241 0.786231 7.02294 0.83049 10.3762 2.14494C14.2659 3.6697 17.4359 7.06561 18.342 11.1986C18.8768 13.6381 18.8566 15.5131 19.8481 17.8897L19.8197 18.0204C21.597 20.8894 23.2168 22.386 26.4338 23.5383C29.0097 24.4609 30.389 24.2991 32.9677 24.1437C31.969 25.0521 31.2391 25.5915 30.0594 26.2554C28.7549 26.9895 28.1875 27.283 26.7241 27.7024C24.1988 28.4262 21.6845 28.8757 19.0498 28.7505C16.6724 28.6376 14.4087 28.1705 12.1519 27.4311C10.4287 26.824 7.96898 25.4606 6.6986 24.1507Z" fill="var(--fill-0, black)"/>
<path id="Vector_2" d="M19.8292 18.0203C21.6066 20.8893 23.2264 22.3859 26.4434 23.5381C29.0193 24.4608 30.3986 24.299 32.9773 24.1435C31.9786 25.0519 31.2487 25.5914 30.069 26.2553C28.7645 26.9893 28.1971 27.2829 26.7337 27.7023C24.2084 28.4261 21.6941 28.8755 19.0594 28.7504C16.682 28.6374 14.4183 28.1704 12.1615 27.431C10.4382 26.8239 7.97857 25.4604 6.7082 24.1506C7.25496 24.1622 7.85197 24.2343 8.40795 24.2687C12.8352 24.5423 17.8772 22.1407 19.8292 18.0203Z" fill="var(--fill-0, black)"/>
<path id="Vector_3" opacity="0.9" d="M19.857 17.89C20.57 16.4562 20.8256 14.2607 21.077 12.6932C21.3497 10.9936 21.6054 9.63569 22.5004 8.15151C22.7423 7.75033 22.9193 7.25141 23.1945 6.8603C24.9322 4.26399 27.3552 2.76483 30.257 1.79206C32.7949 0.941216 35.8436 0.924211 38.4527 1.36957C38.6642 1.40567 39.5682 1.51352 39.7037 1.57358C39.7278 2.2178 39.3893 3.69403 39.2723 4.41179C38.9578 6.44795 38.6269 8.48157 38.2798 10.5124C38.1284 11.3482 37.8844 12.1989 37.7493 13.026C37.2949 15.8067 37.0417 18.5917 35.5168 21.0473C34.9264 21.9979 34.1601 23.0273 33.3448 23.7921C33.202 23.9246 33.1855 24.0531 32.9765 24.144C30.3978 24.2994 29.0186 24.4612 26.4427 23.5386C23.2256 22.3863 21.6058 20.8897 19.8285 18.0207L19.857 17.89Z" fill="var(--fill-0, black)"/>
<path id="Vector_4" d="M1.20497 32.0347C1.86907 31.9688 2.57308 32.0096 3.2419 32.0088C4.38985 32.0075 5.63145 31.9166 6.76047 32.1268C7.70342 32.3024 8.69508 32.9371 9.23726 33.7353C9.44148 34.036 9.55878 34.3317 9.61675 34.6895C9.75855 35.5644 9.76595 40.4219 9.60426 41.2655C9.44466 42.0982 8.75269 42.757 8.07519 43.2182C8.0589 43.2286 8.04251 43.2386 8.02608 43.2486C7.57255 43.5228 7.04313 43.6617 6.5227 43.7429C5.859 43.8469 1.73571 43.9436 1.22608 43.8079C1.14857 43.7874 1.01089 43.7425 0.976607 43.6653C0.801248 43.2709 0.950615 41.2204 0.951264 40.6576L0.953955 34.8047C0.95406 34.18 0.846859 33.5567 0.935648 32.9375C0.974074 32.6695 0.95894 32.4003 1.00131 32.1375C1.01113 32.0766 1.15077 32.0513 1.20497 32.0347ZM3.51226 41.733C4.25571 41.7419 6.05365 41.8574 6.56859 41.3619C6.59088 41.3403 6.61267 41.3183 6.63405 41.2958C7.32938 39.9308 7.21971 40.0239 7.19779 38.4758C7.14281 34.5995 7.67015 34.1071 3.55675 34.1627C3.41426 34.6136 3.52107 40.7385 3.51226 41.733Z" fill="var(--fill-0, black)"/>
<path id="Vector_5" d="M22.9805 32.0269C23.4337 31.9909 25.4831 31.961 25.8427 32.0789C26.3739 32.426 29.0791 42.1911 29.5953 43.3636C29.607 43.3904 29.6927 43.7576 29.7059 43.8139C28.9397 43.8226 27.6466 43.9301 26.964 43.7454C26.7951 43.2061 26.6632 42.5543 26.5307 41.991L25.9933 41.9526C24.7956 41.9271 23.5781 41.9612 22.3731 41.9394C22.2201 42.586 21.9833 43.1975 21.8005 43.8321C21.3582 43.8698 19.6098 43.902 19.2749 43.7091C19.1701 43.3237 20.8818 38.3874 21.1027 37.5972C21.3059 36.8703 22.6625 32.3734 22.9805 32.0269ZM22.8937 40.095L24.3782 40.0855C24.8724 40.0849 25.4055 40.0944 25.8964 40.076C25.4568 38.416 24.9147 36.8395 24.4756 35.1888C24.4527 35.1026 24.4266 35.0782 24.3596 35.0295C24.1665 35.7569 24.0051 36.6844 23.7721 37.3699C23.4536 38.3069 23.1545 39.1318 22.8937 40.095Z" fill="var(--fill-0, black)"/>
<path id="Vector_6" d="M34.4619 31.8935C35.3589 31.8064 36.3616 31.9137 37.4211 32.4889C38.5393 33.1458 39.4962 34.622 39.1752 35.9253C39.1103 36.1887 37.2016 36.1335 36.8526 36.1967C36.6494 35.2272 36.4763 34.2904 35.4157 34.1118C32.9822 33.759 32.7986 35.3916 32.9125 37.2856C33.0154 38.999 32.5599 39.7982 33.4597 41.4285C34.0363 41.8576 35.129 42.0212 35.7578 41.6338C36.3369 41.277 36.7561 40.3012 36.9118 39.6663C37.1618 39.6052 38.8319 39.8155 39.2176 39.847C39.293 40.9117 39.0095 41.8347 38.3493 42.6716C37.7646 43.4133 36.4232 43.8505 35.4986 43.9163C34.1917 44.0089 32.8904 43.9208 31.8333 43.0652C31.234 42.5804 30.4472 41.335 30.4371 40.559C30.4145 38.8121 30.3131 36.6573 30.4971 34.9295C30.5416 34.5121 31.0926 33.5224 31.3707 33.2151C32.3211 32.1651 33.1527 32.0089 34.4619 31.8935Z" fill="var(--fill-0, black)"/>
<path id="Vector_7" d="M10.613 32.0282C12.3882 31.9623 14.3349 32.0426 16.1274 32.0095C16.7691 31.9977 18.9819 31.9749 19.477 32.0599C19.4807 32.4218 19.5442 33.8795 19.3935 34.0952C18.9882 34.3075 16.7774 34.1956 16.1533 34.1906C16.2275 36.2856 16.1696 38.7114 16.1705 40.8327C16.1718 41.3804 16.2467 43.2384 16.11 43.6892C16.0488 43.755 16.0013 43.8177 15.9005 43.8267C15.508 43.8608 14.0462 43.9071 13.768 43.7518C13.6645 43.4554 13.712 40.8837 13.7123 40.3857L13.7046 34.2114C13.2629 34.2613 10.9461 34.2464 10.6017 34.1233C10.5457 34.049 10.4988 33.8823 10.5078 33.7954C10.5478 33.4078 10.3949 32.2888 10.613 32.0282Z" fill="var(--fill-0, black)"/>
</g>
<g id="DTAC Certified">
<path d="M55.0028 19.225H51.7767V10.1244H55.0295C55.9448 10.1244 56.7329 10.3066 57.3935 10.671C58.0541 11.0324 58.5622 11.5523 58.9177 12.2307C59.2761 12.9091 59.4553 13.7208 59.4553 14.6658C59.4553 15.6138 59.2761 16.4285 58.9177 17.1098C58.5622 17.7912 58.0511 18.3141 57.3846 18.6785C56.721 19.0428 55.9271 19.225 55.0028 19.225ZM53.7008 17.5764H54.9228C55.4916 17.5764 55.97 17.4757 56.3581 17.2743C56.7492 17.0699 57.0424 16.7544 57.238 16.3278C57.4364 15.8982 57.5357 15.3442 57.5357 14.6658C57.5357 13.9934 57.4364 13.4438 57.238 13.0172C57.0424 12.5907 56.7506 12.2766 56.3626 12.0752C55.9745 11.8737 55.496 11.773 54.9273 11.773H53.7008V17.5764Z" fill="var(--fill-0, black)"/>
<path d="M60.3688 11.7108V10.1244H67.843V11.7108H65.0569V19.225H63.155V11.7108H60.3688Z" fill="var(--fill-0, black)"/>
<path d="M69.7808 19.225H67.7189L70.8606 10.1244H73.3402L76.4774 19.225H74.4155L72.1359 12.2041H72.0648L69.7808 19.225ZM69.6519 15.6479H74.5222V17.1498H69.6519V15.6479Z" fill="var(--fill-0, black)"/>
<path d="M85.425 13.3105H83.4787C83.4431 13.0587 83.3705 12.8351 83.2609 12.6395C83.1513 12.441 83.0106 12.2722 82.8388 12.133C82.667 11.9937 82.4685 11.8871 82.2433 11.813C82.0211 11.739 81.7797 11.7019 81.519 11.7019C81.048 11.7019 80.6377 11.8189 80.2881 12.053C79.9386 12.284 79.6675 12.6218 79.4749 13.0661C79.2824 13.5075 79.1861 14.0437 79.1861 14.6747C79.1861 15.3235 79.2824 15.8686 79.4749 16.31C79.6705 16.7514 79.943 17.0847 80.2926 17.3098C80.6421 17.535 81.0465 17.6475 81.5057 17.6475C81.7634 17.6475 82.0019 17.6135 82.2211 17.5453C82.4433 17.4772 82.6403 17.3779 82.8121 17.2476C82.9839 17.1143 83.1261 16.9528 83.2387 16.7632C83.3542 16.5736 83.4342 16.3574 83.4787 16.1145L85.425 16.1234C85.3746 16.5411 85.2487 16.944 85.0473 17.332C84.8488 17.7171 84.5807 18.0623 84.243 18.3674C83.9082 18.6696 83.5083 18.9095 83.0432 19.0873C82.581 19.2621 82.0582 19.3494 81.4746 19.3494C80.6629 19.3494 79.9371 19.1658 79.2972 18.7984C78.6603 18.4311 78.1566 17.8993 77.7863 17.2032C77.419 16.507 77.2353 15.6642 77.2353 14.6747C77.2353 13.6823 77.422 12.838 77.7952 12.1418C78.1685 11.4457 78.6751 10.9154 79.315 10.551C79.9549 10.1837 80.6747 10 81.4746 10C82.0019 10 82.4907 10.0741 82.941 10.2222C83.3942 10.3703 83.7956 10.5866 84.1452 10.871C84.4948 11.1524 84.7792 11.4975 84.9984 11.9063C85.2206 12.3151 85.3628 12.7832 85.425 13.3105Z" fill="var(--fill-0, black)"/>
<path d="M59.8064 28.9522H57.8601C57.8245 28.7004 57.7519 28.4767 57.6423 28.2812C57.5327 28.0827 57.392 27.9139 57.2202 27.7746C57.0484 27.6354 56.8499 27.5287 56.6247 27.4547C56.4025 27.3806 56.1611 27.3436 55.9004 27.3436C55.4294 27.3436 55.0191 27.4606 54.6695 27.6946C54.32 27.9257 54.0489 28.2634 53.8563 28.7078C53.6638 29.1492 53.5675 29.6854 53.5675 30.3164C53.5675 30.9652 53.6638 31.5102 53.8563 31.9517C54.0519 32.3931 54.3244 32.7263 54.674 32.9515C55.0235 33.1766 55.4279 33.2892 55.8871 33.2892C56.1448 33.2892 56.3833 33.2551 56.6025 33.187C56.8247 33.1189 57.0217 33.0196 57.1935 32.8893C57.3653 32.756 57.5075 32.5945 57.6201 32.4049C57.7356 32.2153 57.8156 31.9991 57.8601 31.7561L59.8064 31.765C59.756 32.1827 59.6301 32.5856 59.4287 32.9737C59.2302 33.3588 58.9621 33.7039 58.6244 34.0091C58.2896 34.3112 57.8897 34.5512 57.4246 34.7289C56.9624 34.9037 56.4396 34.9911 55.856 34.9911C55.0443 34.9911 54.3185 34.8074 53.6786 34.4401C53.0417 34.0728 52.538 33.541 52.1677 32.8448C51.8004 32.1487 51.6167 31.3058 51.6167 30.3164C51.6167 29.324 51.8034 28.4797 52.1766 27.7835C52.5499 27.0873 53.0565 26.5571 53.6964 26.1927C54.3362 25.8253 55.0561 25.6417 55.856 25.6417C56.3833 25.6417 56.8721 25.7157 57.3224 25.8638C57.7756 26.012 58.177 26.2282 58.5266 26.5126C58.8762 26.7941 59.1606 27.1392 59.3798 27.548C59.602 27.9568 59.7442 28.4249 59.8064 28.9522Z" fill="var(--fill-0, black)"/>
<path d="M64.5114 35C63.8093 35 63.205 34.8578 62.6984 34.5734C62.1948 34.2861 61.8067 33.8802 61.5342 33.3558C61.2616 32.8285 61.1254 32.2049 61.1254 31.4851C61.1254 30.783 61.2616 30.1668 61.5342 29.6365C61.8067 29.1062 62.1903 28.693 62.6851 28.3967C63.1828 28.1005 63.7664 27.9524 64.4359 27.9524C64.8862 27.9524 65.3053 28.0249 65.6934 28.1701C66.0845 28.3123 66.4252 28.5271 66.7155 28.8144C67.0088 29.1018 67.2369 29.4632 67.3998 29.8987C67.5627 30.3312 67.6442 30.8378 67.6442 31.4184V31.9383H61.8808V30.7652H65.8623C65.8623 30.4927 65.803 30.2512 65.6845 30.0409C65.566 29.8305 65.4016 29.6661 65.1913 29.5476C64.9839 29.4262 64.7425 29.3654 64.467 29.3654C64.1796 29.3654 63.9249 29.4321 63.7027 29.5654C63.4835 29.6958 63.3116 29.872 63.1872 30.0942C63.0628 30.3134 62.9991 30.5578 62.9961 30.8274V31.9428C62.9961 32.2805 63.0583 32.5723 63.1828 32.8182C63.3101 33.064 63.4894 33.2536 63.7204 33.387C63.9515 33.5203 64.2255 33.5869 64.5425 33.5869C64.7529 33.5869 64.9454 33.5573 65.1202 33.498C65.295 33.4388 65.4446 33.3499 65.569 33.2314C65.6934 33.1129 65.7882 32.9678 65.8534 32.7959L67.6042 32.9115C67.5153 33.3321 67.3331 33.6995 67.0576 34.0135C66.7851 34.3246 66.4326 34.5675 66 34.7423C65.5705 34.9141 65.0743 35 64.5114 35Z" fill="var(--fill-0, black)"/>
<path d="M69.1298 34.8667V28.0412H70.965V29.2321H71.0361C71.1605 28.8085 71.3694 28.4886 71.6627 28.2723C71.956 28.0531 72.2937 27.9435 72.6758 27.9435C72.7706 27.9435 72.8728 27.9494 72.9824 27.9613C73.0921 27.9731 73.1883 27.9894 73.2713 28.0101V29.6898C73.1824 29.6632 73.0595 29.6395 72.9025 29.6187C72.7454 29.598 72.6018 29.5876 72.4714 29.5876C72.193 29.5876 71.9441 29.6484 71.7249 29.7698C71.5086 29.8883 71.3368 30.0542 71.2094 30.2675C71.085 30.4808 71.0228 30.7267 71.0228 31.0052V34.8667H69.1298Z" fill="var(--fill-0, black)"/>
<path d="M78.4729 28.0412V29.4632H74.3625V28.0412H78.4729ZM75.2957 26.406H77.1887V32.7693C77.1887 32.9441 77.2153 33.0803 77.2687 33.1781C77.322 33.2729 77.396 33.3396 77.4908 33.3781C77.5886 33.4166 77.7012 33.4358 77.8286 33.4358C77.9174 33.4358 78.0063 33.4284 78.0952 33.4136C78.1841 33.3958 78.2522 33.3825 78.2996 33.3736L78.5973 34.7823C78.5025 34.8119 78.3692 34.846 78.1974 34.8845C78.0256 34.9259 77.8167 34.9511 77.5708 34.96C77.1146 34.9778 76.7147 34.9171 76.371 34.7778C76.0304 34.6386 75.7652 34.4223 75.5756 34.129C75.386 33.8358 75.2927 33.4655 75.2957 33.0181V26.406Z" fill="var(--fill-0, black)"/>
<path d="M79.9563 34.8667V28.0412H81.8493V34.8667H79.9563ZM80.9072 27.1614C80.6258 27.1614 80.3843 27.0681 80.1829 26.8814C79.9844 26.6918 79.8852 26.4652 79.8852 26.2016C79.8852 25.9409 79.9844 25.7172 80.1829 25.5306C80.3843 25.341 80.6258 25.2462 80.9072 25.2462C81.1886 25.2462 81.4286 25.341 81.6271 25.5306C81.8285 25.7172 81.9293 25.9409 81.9293 26.2016C81.9293 26.4652 81.8285 26.6918 81.6271 26.8814C81.4286 27.0681 81.1886 27.1614 80.9072 27.1614Z" fill="var(--fill-0, black)"/>
<path d="M87.2864 28.0412V29.4632H83.0738V28.0412H87.2864ZM84.0381 34.8667V27.548C84.0381 27.0533 84.1344 26.643 84.3269 26.3171C84.5224 25.9912 84.7891 25.7468 85.1268 25.5839C85.4645 25.421 85.8481 25.3395 86.2777 25.3395C86.568 25.3395 86.8331 25.3617 87.0731 25.4062C87.316 25.4506 87.4967 25.4906 87.6152 25.5261L87.2775 26.9481C87.2034 26.9244 87.1116 26.9022 87.002 26.8814C86.8953 26.8607 86.7857 26.8503 86.6732 26.8503C86.3947 26.8503 86.2007 26.9155 86.091 27.0459C85.9814 27.1732 85.9266 27.3525 85.9266 27.5835V34.8667H84.0381Z" fill="var(--fill-0, black)"/>
<path d="M88.6931 34.8667V28.0412H90.5861V34.8667H88.6931ZM89.6441 27.1614C89.3626 27.1614 89.1212 27.0681 88.9197 26.8814C88.7213 26.6918 88.622 26.4652 88.622 26.2016C88.622 25.9409 88.7213 25.7172 88.9197 25.5306C89.1212 25.341 89.3626 25.2462 89.6441 25.2462C89.9255 25.2462 90.1655 25.341 90.3639 25.5306C90.5654 25.7172 90.6661 25.9409 90.6661 26.2016C90.6661 26.4652 90.5654 26.6918 90.3639 26.8814C90.1655 27.0681 89.9255 27.1614 89.6441 27.1614Z" fill="var(--fill-0, black)"/>
<path d="M95.4633 35C94.7612 35 94.1569 34.8578 93.6503 34.5734C93.1467 34.2861 92.7586 33.8802 92.4861 33.3558C92.2135 32.8285 92.0773 32.2049 92.0773 31.4851C92.0773 30.783 92.2135 30.1668 92.4861 29.6365C92.7586 29.1062 93.1423 28.693 93.637 28.3967C94.1347 28.1005 94.7183 27.9524 95.3878 27.9524C95.8381 27.9524 96.2573 28.0249 96.6454 28.1701C97.0364 28.3123 97.3771 28.5271 97.6674 28.8144C97.9607 29.1018 98.1888 29.4632 98.3517 29.8987C98.5146 30.3312 98.5961 30.8378 98.5961 31.4184V31.9383H92.8327V30.7652H96.8142C96.8142 30.4927 96.755 30.2512 96.6365 30.0409C96.518 29.8305 96.3536 29.6661 96.1432 29.5476C95.9358 29.4262 95.6944 29.3654 95.4189 29.3654C95.1315 29.3654 94.8768 29.4321 94.6546 29.5654C94.4354 29.6958 94.2635 29.872 94.1391 30.0942C94.0147 30.3134 93.951 30.5578 93.9481 30.8274V31.9428C93.9481 32.2805 94.0103 32.5723 94.1347 32.8182C94.2621 33.064 94.4413 33.2536 94.6724 33.387C94.9034 33.5203 95.1775 33.5869 95.4944 33.5869C95.7048 33.5869 95.8973 33.5573 96.0721 33.498C96.2469 33.4388 96.3965 33.3499 96.5209 33.2314C96.6454 33.1129 96.7402 32.9678 96.8053 32.7959L98.5561 32.9115C98.4673 33.3321 98.2851 33.6995 98.0096 34.0135C97.737 34.3246 97.3845 34.5675 96.952 34.7423C96.5224 34.9141 96.0262 35 95.4633 35Z" fill="var(--fill-0, black)"/>
<path d="M102.597 34.9778C102.078 34.9778 101.609 34.8445 101.188 34.5779C100.77 34.3083 100.439 33.9128 100.193 33.3914C99.9499 32.867 99.8284 32.2242 99.8284 31.4629C99.8284 30.6808 99.9543 30.0305 100.206 29.5121C100.458 28.9907 100.793 28.6011 101.21 28.3434C101.631 28.0827 102.092 27.9524 102.592 27.9524C102.975 27.9524 103.293 28.0175 103.548 28.1479C103.805 28.2753 104.013 28.4352 104.17 28.6278C104.33 28.8174 104.451 29.004 104.534 29.1877H104.592V25.7661H106.481V34.8667H104.614V33.7736H104.534C104.445 33.9631 104.319 34.1513 104.157 34.3379C103.997 34.5216 103.788 34.6741 103.53 34.7956C103.275 34.9171 102.964 34.9778 102.597 34.9778ZM103.197 33.4714C103.502 33.4714 103.76 33.3884 103.97 33.2225C104.183 33.0537 104.346 32.8182 104.459 32.516C104.574 32.2138 104.632 31.8598 104.632 31.454C104.632 31.0481 104.576 30.6956 104.463 30.3964C104.351 30.0972 104.188 29.8661 103.974 29.7032C103.761 29.5402 103.502 29.4588 103.197 29.4588C102.886 29.4588 102.623 29.5432 102.41 29.7121C102.197 29.8809 102.035 30.1149 101.926 30.4141C101.816 30.7134 101.761 31.06 101.761 31.454C101.761 31.8509 101.816 32.202 101.926 32.5071C102.038 32.8093 102.2 33.0463 102.41 33.2181C102.623 33.387 102.886 33.4714 103.197 33.4714Z" fill="var(--fill-0, black)"/>
</g>
</g>
</svg>
