<svg preserveAspectRatio="none" width="100%" height="100%" overflow="visible" style="display: block;" viewBox="0 0 34.2363 41.0858" fill="none" xmlns="http://www.w3.org/2000/svg">
<g id="Group">
<path id="Vector" d="M21.4093 4.29742C19.7742 3.95291 18.7056 6.42231 18.7056 6.42231V10.7866C24.8042 11.1883 24.742 9.69567 24.742 9.69567C30.5893 9.63813 34.2363 5.34324 34.2363 5.34324C28.8287 6.73368 23.0439 4.64188 21.4093 4.29742Z" fill="var(--fill-0, black)"/>
<path id="Vector_2" d="M15.5306 10.7866V6.42229C15.5306 6.42229 14.4617 3.95291 12.827 4.29742C11.1923 4.64194 5.40756 6.73373 0 5.34333C0 5.34333 3.64689 9.63826 9.49429 9.6958C9.49429 9.6958 9.43207 11.1883 15.5306 10.7866Z" fill="var(--fill-0, black)"/>
<path id="Vector_3" d="M16.3584 4.0732V16.1863C16.591 16.2186 16.8405 16.2505 17.1159 16.2831C17.3851 16.2512 17.6291 16.2201 17.8572 16.1885V4.0732C18.2851 3.88863 18.6392 3.55186 18.859 3.12055C19.0787 2.68924 19.1505 2.19022 19.0619 1.70892C18.9734 1.22762 18.73 0.793973 18.3735 0.48222C18.0171 0.170468 17.5696 0 17.1078 0C16.646 0 16.1985 0.170468 15.842 0.48222C15.4855 0.793973 15.2422 1.22762 15.1536 1.70892C15.0651 2.19022 15.1368 2.68924 15.3566 3.12055C15.5764 3.55186 15.9305 3.88863 16.3584 4.0732Z" fill="var(--fill-0, black)"/>
<path id="Vector_4" d="M16.7294 22.863C16.806 22.8269 16.8816 22.7903 16.9572 22.7502C17.1424 22.658 17.3272 22.553 17.5183 22.4332V19.511C17.2583 19.4471 16.9955 19.4013 16.7313 19.3738C16.4607 19.4016 16.1916 19.4486 15.9255 19.5146V22.4238C16.1209 22.5467 16.3087 22.654 16.4918 22.7448C16.5727 22.7881 16.6509 22.8256 16.7294 22.863Z" fill="var(--fill-0, black)"/>
<path id="Vector_5" d="M17.4857 31.4835C17.4985 31.4774 17.5073 31.4722 17.5183 31.4665V31.1664C17.3654 31.1141 17.205 31.0737 17.0401 31.0458C16.9407 31.0264 16.8347 31.0098 16.7276 30.9932C16.6227 31.0093 16.5218 31.0258 16.4276 31.0442C16.2537 31.0731 16.0852 31.1165 15.9255 31.1735V31.4586C15.9408 31.467 15.9551 31.4749 15.9735 31.4838C16.2155 31.5918 16.4681 31.687 16.7294 31.7686C16.9909 31.687 17.2437 31.5917 17.4857 31.4835Z" fill="var(--fill-0, black)"/>
<path id="Vector_6" d="M16.729 39.1473C16.4962 39.2227 16.2552 39.2916 15.9995 39.3538C15.9739 39.3598 15.9504 39.3651 15.9255 39.3708L16.0402 40.3178C16.1786 40.6427 16.282 41.0858 16.7221 41.0858C17.1618 41.0858 17.2311 40.8054 17.393 40.3178L17.5183 39.3676C17.4996 39.3632 17.4813 39.3592 17.4615 39.3545C17.1993 39.2905 16.9602 39.2223 16.729 39.1473Z" fill="var(--fill-0, black)"/>
<path id="Vector_7" d="M17.5025 35.7997C17.4868 35.6761 17.4467 35.5587 17.3854 35.4572C17.2053 35.2024 16.9784 35 16.7222 34.8655C16.4678 34.9983 16.2423 35.1984 16.0628 35.4504C16.0006 35.5507 15.9594 35.6672 15.9427 35.7902C15.9377 35.8118 15.9342 35.8339 15.9322 35.8562C15.9322 35.8633 15.9318 35.8838 15.9315 35.8905L15.9255 35.9859L15.9315 36.1366C15.9375 36.1655 15.9422 36.1947 15.9457 36.2241C16.011 36.4791 16.1426 36.703 16.3216 36.8635C16.4475 36.986 16.5818 37.0957 16.723 37.1917C16.863 37.0956 16.9963 36.9861 17.1214 36.8643C17.3013 36.7042 17.4333 36.4798 17.4981 36.224C17.5019 36.1951 17.5068 36.166 17.5123 36.1375L17.5183 35.9841L17.5123 35.8935C17.5116 35.8811 17.5112 35.8686 17.5112 35.8561C17.5097 35.837 17.5068 35.8181 17.5025 35.7997Z" fill="var(--fill-0, black)"/>
<path id="Vector_8" d="M16.7301 28.2952C16.7407 28.2923 16.7514 28.2895 16.7616 28.2871C16.8874 28.2565 17.0096 28.2266 17.1288 28.1964C17.2645 28.1613 17.3954 28.1255 17.5183 28.0872V26.3479C17.2665 26.1996 17.0046 26.0729 16.7349 25.969C16.4558 26.0879 16.1852 26.2298 15.9255 26.3935V28.0815C16.1613 28.1565 16.4232 28.2202 16.6971 28.2867C16.7077 28.2891 16.7191 28.2924 16.7301 28.2952Z" fill="var(--fill-0, black)"/>
<path id="Vector_9" d="M19.0658 35.8944C19.0654 35.8986 19.0654 35.9025 19.065 35.9066L19.0556 36.1107C19.0538 36.15 19.0464 36.1888 19.0336 36.2259C19.0334 36.2335 19.0326 36.2411 19.0312 36.2486C18.9327 36.6627 18.6979 37.0306 18.3656 37.2914C18.3501 37.3041 18.3338 37.3152 18.3183 37.3278C18.4909 37.3886 18.6565 37.4407 18.8027 37.4834C18.9459 37.5237 19.0823 37.559 19.2134 37.5901C19.5225 37.2655 19.7409 36.8635 19.8464 36.4252C19.8627 36.3423 19.8801 36.2447 19.8937 36.1472L19.9111 35.8798L19.9043 35.6851C19.9021 35.6049 19.8941 35.525 19.8803 35.4459C19.8307 35.0918 19.7033 34.7534 19.5076 34.4557C19.4221 34.3296 19.3265 34.2109 19.2216 34.1009C18.9034 34.2694 18.6091 34.3985 18.3377 34.514C18.508 34.6366 18.6575 34.7864 18.7806 34.9575C18.9101 35.1406 18.9967 35.3513 19.034 35.5734C19.0453 35.626 19.0528 35.6794 19.0563 35.7331C19.0633 35.7637 19.0669 35.795 19.0673 35.8264C19.0677 35.8487 19.0669 35.8702 19.0654 35.8905L19.0658 35.8944Z" fill="var(--fill-0, black)"/>
<path id="Vector_10" d="M25.4818 14.5325L25.4543 14.2542C25.4115 13.9036 25.3151 13.5628 25.169 13.245C25.0108 12.9129 24.7878 12.6202 24.5148 12.3863C24.0649 12.0174 23.5246 11.7929 22.9579 11.7396C22.5795 11.7028 22.1985 11.7068 21.8208 11.7515C21.753 11.7595 21.6912 11.7692 21.6298 11.7783C20.9024 11.5357 19.7774 11.4215 19.0007 12.5771C17.7668 14.4135 19.471 15.067 19.941 15.0043C20.3435 14.9513 21.5412 14.742 22.1913 13.851C22.3759 13.8265 22.5623 13.8204 22.7479 13.833C22.9205 13.8416 23.0895 13.8884 23.2439 13.9704C23.3103 14.0083 23.3675 14.0618 23.4112 14.1268C23.4201 14.1397 23.4283 14.153 23.4358 14.1668C23.4791 14.2507 23.5112 14.3406 23.5312 14.4338C23.5556 14.4922 23.569 14.5549 23.5708 14.6187C23.5712 14.6231 23.5715 14.6446 23.5715 14.6486C23.5723 14.6694 23.5734 14.6917 23.573 14.7161L23.5757 14.8335C23.5769 14.8748 23.5757 14.9161 23.5719 14.9573C23.5655 15.0052 23.5515 15.0516 23.5304 15.0946C23.5015 15.1714 23.4646 15.2445 23.4204 15.3126C23.2414 15.568 23.0126 15.7796 22.7495 15.933C22.6535 15.9948 22.5521 16.0551 22.4442 16.1122C21.523 16.5543 20.5498 16.8632 19.5509 17.0308C19.3983 17.0607 19.243 17.0899 19.0825 17.1178C18.9329 17.1442 18.7799 17.1693 18.6208 17.1937C18.4241 17.2244 18.2157 17.2539 17.9944 17.2839C17.7451 17.3174 17.4782 17.3509 17.1853 17.3853C17.1506 17.3893 17.1179 17.3933 17.0825 17.3972C16.8334 17.4244 16.593 17.4619 16.3578 17.5059C15.8183 17.6019 15.2892 17.755 14.7786 17.963C14.374 18.1275 13.9898 18.3434 13.6344 18.6061C13.6084 18.6257 13.5847 18.6456 13.5598 18.6656C13.4214 18.7733 13.2902 18.891 13.1671 19.0178C13.0561 19.133 12.9537 19.2571 12.8607 19.3891C12.7789 19.504 12.705 19.625 12.6395 19.7512C12.5314 19.9624 12.4516 20.1886 12.4024 20.4231C12.3919 20.4738 12.3806 20.5249 12.373 20.576C12.3643 20.6451 12.3549 20.723 12.3492 20.8004L12.3444 20.9725V20.9781L12.3575 21.2068C12.3594 21.2228 12.3609 21.2443 12.3621 21.2659C12.3639 21.2953 12.3671 21.3246 12.3719 21.3537C12.3915 21.5048 12.4203 21.6544 12.4581 21.8016C12.4717 21.8428 12.4842 21.8843 12.497 21.9262C12.5198 22.011 12.5484 22.094 12.5825 22.1745C12.5859 22.1817 12.5889 22.1889 12.5919 22.1961C12.6889 22.4322 12.8085 22.6572 12.9488 22.8675C13.3894 23.4978 13.9488 24.0242 14.5916 24.4133C15.0635 24.0777 15.5659 23.793 16.0913 23.5635C15.9526 23.4909 15.8109 23.4122 15.6635 23.3252C15.0742 22.9985 14.5635 22.5329 14.1707 21.9643C14.0484 21.7923 13.9661 21.5922 13.9305 21.3803C13.8949 21.1683 13.9069 20.9504 13.9657 20.7443C14.0035 20.6299 14.0562 20.5217 14.1225 20.4229H14.0751C14.2775 20.1684 14.5275 19.9611 14.8093 19.8141C14.8297 19.8025 14.8504 19.7918 14.8708 19.7806C14.8779 19.7766 14.8847 19.7726 14.8919 19.769C14.945 19.7406 14.997 19.7143 15.0501 19.6891C15.0694 19.6803 15.0873 19.6711 15.1066 19.6624C15.1881 19.6253 15.2683 19.5913 15.3456 19.563C15.3509 19.561 15.3561 19.5586 15.3618 19.5566L15.364 19.5558C15.4688 19.5159 15.578 19.4819 15.6873 19.4476C15.908 19.38 16.1318 19.3244 16.3578 19.2811C16.4965 19.254 16.6378 19.2302 16.7841 19.2104C16.9148 19.1928 17.0489 19.1783 17.1862 19.1668C17.2076 19.1649 17.2277 19.1618 17.2495 19.1601C17.5145 19.1369 17.7609 19.1137 17.9946 19.0902C18.4966 19.0399 18.9356 18.9872 19.3377 18.9293C19.8193 18.8567 20.3126 18.7736 20.8094 18.6655C20.9793 18.6284 21.1494 18.5881 21.3197 18.5445C21.476 18.5046 21.6328 18.4618 21.7889 18.4156C22.2861 18.2699 22.7721 18.084 23.2425 17.8595C23.8957 17.5622 24.4708 17.1009 24.918 16.5154C24.9501 16.4706 24.9771 16.4231 25.0066 16.3772C25.1992 16.0853 25.3378 15.7573 25.4151 15.4107C25.4178 15.3984 25.4204 15.3864 25.4239 15.374C25.4429 15.282 25.4566 15.1888 25.465 15.095L25.4857 14.6147L25.4827 14.5421C25.4821 14.5389 25.4818 14.5357 25.4818 14.5325Z" fill="var(--fill-0, black)"/>
<path id="Vector_11" d="M20.5619 26.1705C20.3877 25.7118 20.1099 25.3025 19.7514 24.9761C19.6835 24.9135 19.6156 24.8553 19.5469 24.7975C19.1766 24.9972 18.7948 25.1737 18.4039 25.3262C18.3359 25.3541 18.2636 25.3794 18.1932 25.4062C18.6446 25.63 19.0203 25.988 19.2716 26.4339C19.3061 26.5015 19.3356 26.5717 19.3596 26.6439H19.3575C19.3601 26.6514 19.363 26.659 19.3656 26.6665C19.3714 26.6817 19.3777 26.6968 19.3824 26.7134C19.405 26.7926 19.4196 26.8739 19.4261 26.9562L19.4265 26.9573C19.4392 27.1247 19.4226 27.2932 19.3773 27.4546C19.3744 27.4652 19.37 27.4753 19.367 27.4856C19.3549 27.5265 19.3373 27.5661 19.3219 27.6062C19.3083 27.6417 19.2985 27.6779 19.2819 27.7123C19.2742 27.7326 19.265 27.7523 19.2543 27.7712L19.2316 27.8101H19.2312L19.2239 27.8232C19.2095 27.8465 19.1929 27.8683 19.1743 27.8882C19.0167 28.1078 18.8085 28.2836 18.5683 28.3998C18.5566 28.4055 18.5434 28.41 18.5316 28.4157C18.4747 28.4413 18.4189 28.4674 18.3565 28.4889L18.3551 28.4893C18.2226 28.5369 18.0809 28.5784 17.9356 28.6177C17.9131 28.6233 17.8919 28.6294 17.8695 28.6354L17.8622 28.6378C17.6798 28.685 17.4885 28.7288 17.2918 28.7733C17.2897 28.7741 17.2866 28.7745 17.2837 28.7753C17.2169 28.7904 17.1482 28.8069 17.0807 28.8224C16.8201 28.8825 16.554 28.9455 16.2784 29.0275L16.2754 29.0286C15.9006 29.1326 15.5439 29.296 15.2179 29.5129C15.1963 29.5277 15.1747 29.5416 15.1529 29.5575C15.0516 29.6332 14.9575 29.7187 14.872 29.8129C14.7973 29.8934 14.7287 29.9798 14.6668 30.0711C14.6511 30.095 14.637 30.1213 14.6224 30.1467C14.5169 30.3289 14.439 30.5266 14.3916 30.733C14.3703 30.841 14.3545 30.95 14.3442 31.0596L14.3349 31.3047L14.3412 31.3994L14.3497 31.5213C14.3592 31.5935 14.3717 31.6656 14.3871 31.7361C14.4148 31.8603 14.456 31.9808 14.5097 32.0955C14.6808 32.4395 14.9375 32.7306 15.2537 32.9391C15.5405 32.721 15.8453 32.5291 16.1645 32.3655C16.0646 32.3089 15.9685 32.2511 15.8804 32.1906C15.6654 32.0569 15.4925 31.8622 15.3823 31.6299C15.3816 31.6273 15.3749 31.6076 15.3738 31.605C15.3694 31.5922 15.3639 31.5733 15.358 31.5506C15.3457 31.5011 15.3385 31.4503 15.3363 31.3992C15.3352 31.3825 15.3338 31.3686 15.3327 31.3502C15.3319 31.3418 15.3312 31.3331 15.3308 31.3245C15.3305 31.3116 15.3297 31.2977 15.3297 31.2833C15.3294 31.2799 15.3294 31.2765 15.329 31.2731H15.3294V31.272C15.3294 31.2618 15.3294 31.2523 15.3297 31.2425C15.3308 31.208 15.3354 31.1737 15.3433 31.1402C15.3485 31.0968 15.3547 31.0635 15.3613 31.0314L15.3668 31.0035C15.37 30.9807 15.3754 30.9583 15.3831 30.9366C15.4326 30.7663 15.5307 30.6153 15.6647 30.5031C15.6941 30.4774 15.7228 30.4521 15.7583 30.426C15.8956 30.3362 16.0424 30.2626 16.1958 30.2067C16.2211 30.1968 16.2486 30.1878 16.2755 30.1783C16.3705 30.144 16.47 30.1114 16.5768 30.084C16.7343 30.0397 16.9046 30.0024 17.08 29.9665C17.1901 29.9439 17.3002 29.9216 17.4152 29.8993C17.5642 29.8706 17.7156 29.8401 17.8695 29.8079C18.1393 29.7513 18.4168 29.686 18.7116 29.5942C18.7861 29.5701 18.8639 29.5425 18.9432 29.5126C19.0867 29.459 19.2266 29.3955 19.362 29.3227C19.4852 29.2566 19.6034 29.1809 19.7154 29.0962C19.7749 29.0512 19.8339 29.0041 19.8923 28.9512L20.0303 28.8145C20.0783 28.7597 20.1283 28.6948 20.1738 28.6336C20.2001 28.5997 20.2246 28.5645 20.2472 28.5279L20.3562 28.3415C20.4662 28.1313 20.554 27.9097 20.6183 27.6803C20.7088 27.343 20.7299 26.99 20.6803 26.6438C20.6588 26.4818 20.619 26.323 20.5619 26.1705Z" fill="var(--fill-0, black)"/>
<path id="Vector_12" d="M15.0658 38.3702C14.8202 38.4125 14.6025 38.4433 14.4166 38.4675C14.2099 38.4935 14.022 38.5129 13.8719 38.5245C13.8656 38.5252 13.8585 38.5255 13.8526 38.5259C13.807 38.5282 13.7623 38.5385 13.7212 38.5563C13.68 38.5741 13.6432 38.599 13.6129 38.6295C13.5825 38.6598 13.5592 38.6952 13.5443 38.7336C13.5295 38.772 13.5234 38.8127 13.5264 38.8533C13.5315 38.9322 13.57 39.0064 13.6342 39.0608C13.6985 39.1151 13.7835 39.1455 13.8719 39.1456L13.8924 39.1449C13.8975 39.1445 13.9572 39.1403 14.063 39.1344L14.5094 39.0956C14.9819 39.0479 15.4511 38.9772 15.915 38.8838C15.6461 38.753 15.3902 38.6021 15.1499 38.4327C15.1223 38.4138 15.0937 38.3909 15.0658 38.3702Z" fill="var(--fill-0, black)"/>
<path id="Vector_13" d="M20.3708 38.4801V38.4797C20.369 38.4797 20.3673 38.4796 20.3656 38.4793V38.4797L20.3526 38.4786C20.2627 38.4725 20.0625 38.4534 19.7941 38.418C19.6026 38.3921 19.3781 38.3594 19.1247 38.3139C18.9524 38.2826 18.7655 38.2451 18.5666 38.2004C18.444 38.1722 18.3168 38.1421 18.184 38.1079C18.1254 38.0921 18.0638 38.0744 18.002 38.0571C17.9484 38.0417 17.8927 38.0248 17.837 38.0086C17.5414 37.9217 17.2518 37.8181 16.9698 37.6984C16.7983 37.6256 16.6314 37.5439 16.4698 37.4537C16.3362 37.3781 16.2075 37.2954 16.0844 37.2059C16.0674 37.1939 16.0497 37.1826 16.0332 37.1702C16.0158 37.1574 15.9972 37.1462 15.9799 37.133C15.627 36.8776 15.3774 36.5183 15.2721 36.1137C15.2704 36.1041 15.2688 36.0952 15.2676 36.0858C15.2553 36.0511 15.2481 36.0149 15.2462 35.9783L15.236 35.7772C15.2309 35.7249 15.2338 35.6723 15.2445 35.6207C15.2479 35.5612 15.2565 35.5019 15.2703 35.4437C15.3119 35.2271 15.405 35.022 15.5426 34.8432C15.6728 34.6776 15.8309 34.5327 16.0107 34.4142C16.0337 34.3984 16.0599 34.383 16.0842 34.3672C16.2044 34.2875 16.3293 34.2142 16.4583 34.1476C16.5979 34.0754 16.75 34.0045 16.9147 33.9348C16.9326 33.9272 16.951 33.9198 16.9688 33.9118C17.1366 33.8393 17.3138 33.7694 17.5018 33.6957C17.6124 33.6528 17.724 33.6085 17.8368 33.5625C17.93 33.5249 18.0236 33.4866 18.1189 33.4452C18.2645 33.3824 18.4139 33.3122 18.5672 33.2347C18.6648 33.185 18.7633 33.1347 18.8647 33.0771C18.901 33.0553 18.9389 33.0319 18.9776 33.0073C19.3286 32.7963 19.6127 32.5019 19.8009 32.1545C19.8572 32.0444 19.9004 31.9287 19.9296 31.8097C19.9469 31.7383 19.9607 31.6669 19.9716 31.5954L19.9804 31.474L19.9877 31.3808L19.9768 31.1233C19.9647 31.0126 19.9461 30.9027 19.9211 30.7939C19.869 30.594 19.7848 30.4026 19.6713 30.2261C19.46 30.3153 19.243 30.3924 19.0216 30.457C18.8509 30.5051 18.6867 30.5454 18.5257 30.5822C18.6734 30.6943 18.7815 30.8453 18.836 31.0154C18.8437 31.0367 18.8495 31.0586 18.8534 31.0808L18.8594 31.1098C18.8671 31.1436 18.8747 31.179 18.8796 31.2177C18.8906 31.2596 18.8957 31.3028 18.8945 31.3459H18.8949L18.8945 31.3501C18.8945 31.3602 18.8941 31.3696 18.8937 31.3783C18.8933 31.3902 18.8921 31.4023 18.8905 31.4139L18.8873 31.4741L18.884 31.5377C18.881 31.595 18.8649 31.6512 18.8368 31.7023C18.7161 31.9346 18.5254 32.1291 18.288 32.2622C18.1915 32.3223 18.0858 32.3799 17.9761 32.4363C17.9313 32.4592 17.8837 32.4815 17.8368 32.5039C17.7246 32.5588 17.6092 32.6126 17.4882 32.6656C17.3671 32.7193 17.2432 32.7727 17.1165 32.8269C17.068 32.8476 17.0176 32.8705 16.9692 32.8911C16.8083 32.9603 16.6456 33.0295 16.482 33.105C16.3521 33.1655 16.2185 33.2317 16.0842 33.3017C15.9958 33.3475 15.9074 33.3941 15.8195 33.4453C15.6779 33.528 15.5415 33.6182 15.4111 33.7156C15.2899 33.8064 15.1754 33.9048 15.0685 34.01C14.9571 34.1179 14.8553 34.2342 14.7643 34.3576C14.5568 34.6467 14.4217 34.9756 14.3688 35.3198C14.3541 35.3963 14.3452 35.4737 14.3422 35.5514L14.3349 35.7496L14.3529 36.0132C14.3682 36.1086 14.386 36.2038 14.4062 36.297C14.5194 36.7221 14.7511 37.1117 15.078 37.4265C15.1912 37.5394 15.3133 37.6442 15.4432 37.7402C15.4512 37.7459 15.4589 37.7512 15.4674 37.7572C15.617 37.8662 15.7738 37.9664 15.9367 38.0572C15.9863 38.0851 16.0356 38.1098 16.0844 38.135C16.3117 38.2515 16.5461 38.3554 16.7866 38.446C16.8471 38.4686 16.908 38.4896 16.9686 38.511C17.1731 38.5824 17.3831 38.6479 17.6058 38.7081C17.6804 38.7284 17.7595 38.7475 17.837 38.7671C17.8874 38.7799 17.935 38.7933 17.9875 38.8058C18.0783 38.8265 18.1663 38.8461 18.2526 38.8641C18.7319 38.9645 19.2168 39.0402 19.705 39.0911C19.9031 39.1091 20.0617 39.1234 20.1682 39.1325L20.3518 39.1431C20.4444 39.1427 20.5331 39.1088 20.5993 39.0486C20.6655 38.9883 20.7039 38.9064 20.7063 38.8202C20.7088 38.734 20.6751 38.6503 20.6125 38.5868C20.5499 38.5234 20.4632 38.485 20.3708 38.4801Z" fill="var(--fill-0, black)"/>
<path id="Vector_14" d="M21.8819 20.3783C21.8774 20.3149 21.8682 20.2372 21.859 20.1608C21.852 20.1139 21.8417 20.0666 21.8322 20.0197C21.7836 19.7879 21.7052 19.5644 21.5992 19.3557C21.5354 19.2315 21.4634 19.1123 21.3839 18.999C20.7258 19.1688 20.0725 19.2851 19.438 19.3828C19.7353 19.5248 19.9949 19.7437 20.1936 20.0196C20.2517 20.1039 20.2993 20.1958 20.3353 20.2931C20.3952 20.4716 20.4161 20.6624 20.3965 20.8509C20.3769 21.0393 20.3172 21.2205 20.222 21.3804C19.9345 21.9254 19.4045 22.4319 18.6468 22.885C18.5029 22.9706 18.3648 23.0478 18.229 23.1195C18.1355 23.1692 18.0439 23.2153 17.9526 23.2591C17.8768 23.2956 17.8014 23.3308 17.7267 23.3635C17.7175 23.3674 17.7079 23.3721 17.6987 23.3761C17.5235 23.458 17.3469 23.5262 17.1614 23.5972L17.1356 23.6074C16.9895 23.663 16.8304 23.7241 16.645 23.8017C16.5493 23.8431 16.4518 23.8865 16.3542 23.9314C16.0397 24.0741 15.7338 24.2377 15.4383 24.4213C15.3059 24.5044 15.1729 24.5931 15.0419 24.6912C14.9231 24.7794 14.8053 24.876 14.6882 24.9784C14.6187 25.0399 14.5491 25.1014 14.4803 25.168C14.124 25.506 13.8473 25.9293 13.6728 26.4035C13.6149 26.5654 13.5744 26.7339 13.5521 26.9056C13.5021 27.2661 13.5232 27.6337 13.6139 27.985C13.6775 28.2246 13.7653 28.456 13.876 28.675L13.9253 28.7704L13.9319 28.7814L13.9871 28.8733C14.0092 28.9104 14.033 28.9463 14.0585 28.9808C14.1053 29.0454 14.1557 29.1136 14.2046 29.1715L14.3559 29.328C14.4093 29.378 14.4634 29.4237 14.5182 29.4667C14.5964 29.3891 14.6788 29.3165 14.7648 29.2492C15.044 29.0386 15.3471 28.8671 15.6669 28.7388C15.4519 28.6394 15.2619 28.487 15.1123 28.2941C14.9627 28.1012 14.8578 27.8732 14.806 27.6287C14.7618 27.3873 14.7787 27.1376 14.8549 26.9055C14.9515 26.6171 15.1176 26.3613 15.3363 26.1638C15.5652 25.9569 15.8141 25.7767 16.0787 25.6263C16.1707 25.5723 16.2627 25.5223 16.3544 25.475C16.4316 25.4348 16.5086 25.3962 16.5844 25.3606C16.7743 25.2716 16.9564 25.1943 17.118 25.1324C17.1308 25.1274 17.1479 25.1214 17.1618 25.1159C17.2634 25.0773 17.3831 25.0347 17.5162 24.9882C17.6557 24.9397 17.8048 24.8858 17.9527 24.8294C18.0366 24.7975 18.1206 24.766 18.2001 24.7321C18.4242 24.6423 18.6528 24.5374 18.8846 24.4208C19.0248 24.3502 19.1654 24.2765 19.3082 24.1962C19.313 24.1937 19.3176 24.191 19.3226 24.1883C19.4433 24.1174 19.5681 24.0401 19.6939 23.9585C20.3222 23.5736 20.869 23.0532 21.2997 22.4302C21.4361 22.2232 21.5522 22.0018 21.6464 21.7694C21.6493 21.7623 21.6523 21.7552 21.6552 21.7485C21.6887 21.6689 21.7169 21.5868 21.7395 21.503C21.7517 21.462 21.7638 21.421 21.7768 21.3812C21.8131 21.2384 21.841 21.0934 21.8604 20.9469C21.8654 20.916 21.869 20.8848 21.871 20.8535C21.8722 20.8322 21.8734 20.8109 21.8766 20.7814L21.8883 20.5698C21.888 20.5615 21.888 20.5532 21.888 20.5448L21.8819 20.3783Z" fill="var(--fill-0, black)"/>
<path id="Vector_15" d="M13.1849 17.3516C13.6085 17.0747 14.0666 16.8468 14.5491 16.6731C14.6627 16.6312 14.7831 16.5959 14.9017 16.5584C13.8673 16.4055 12.8596 16.1234 11.9058 15.7196C11.7949 15.6679 11.6896 15.6128 11.5905 15.5564C11.3155 15.4142 11.0766 15.2182 10.8903 14.9818C10.8459 14.9211 10.809 14.8559 10.7803 14.7876C10.7622 14.7533 10.7492 14.7169 10.7417 14.6793C10.7347 14.6365 10.7327 14.5932 10.7358 14.55L10.7362 14.5234L10.7378 14.44C10.7378 14.4177 10.7385 14.3966 10.7394 14.3762C10.7394 14.3714 10.7397 14.3667 10.7401 14.3623L10.7417 14.3441C10.7463 14.2966 10.7583 14.25 10.7772 14.2057C10.7978 14.1139 10.8328 14.0254 10.8809 13.943C10.8887 13.931 10.8969 13.9189 10.9058 13.9077C10.9506 13.8488 11.0092 13.8002 11.0771 13.7656C11.2395 13.69 11.417 13.6471 11.5982 13.6395C11.6544 13.6355 11.7188 13.6333 11.7843 13.6333C11.9125 13.634 12.0406 13.6415 12.1678 13.6559C12.8407 14.4695 14.0805 14.6604 14.4971 14.7089C14.9843 14.7661 16.748 14.1696 15.4707 12.4936C14.6667 11.4387 13.5028 11.543 12.749 11.7645C12.6846 11.7557 12.6195 11.7474 12.5488 11.7397C12.1569 11.6986 11.7614 11.6953 11.3688 11.7299C10.784 11.7786 10.2267 11.9833 9.76312 12.3198C9.48023 12.533 9.24934 12.8002 9.08591 13.1035C8.93279 13.3973 8.83262 13.7127 8.78943 14.037L8.75823 14.3682L8.78044 14.7975C8.78891 14.8807 8.80259 14.9633 8.8214 15.045C8.82527 15.0566 8.82842 15.0682 8.83114 15.0799C8.87085 15.2442 8.92945 15.404 9.00592 15.5565C9.09871 15.7456 9.2133 15.9245 9.34765 16.0903C9.81247 16.6258 10.4101 17.0474 11.0887 17.3186C11.5726 17.5222 12.0726 17.6907 12.5843 17.8225C12.7705 17.6506 12.9714 17.4931 13.1849 17.3516Z" fill="var(--fill-0, black)"/>
</g>
</svg>
