<svg width="192" height="24" viewBox="0 0 192 24" fill="none" xmlns="http://www.w3.org/2000/svg">
<g clip-path="url(#clip0_6635_4415)">
<path d="M64.3311 17.9702C62.1695 19.4569 59.0558 19.4833 56.8761 18.0197C54.8201 16.6386 53.7245 14.3104 53.8449 11.832C54.0792 7.02867 59.0014 4.02888 63.3922 5.98089L64.3311 6.49241V1.26504C64.3311 1.19409 64.501 1.06209 64.5687 1.02579C64.8723 0.870682 66.4795 0.270063 66.7831 0.222212C67.052 0.17931 67.1874 0.255213 67.2682 0.512621L67.2517 18.5658C67.1956 18.7589 67.0438 18.8216 66.854 18.843C66.3904 18.8942 65.2155 18.8925 64.7535 18.8381C64.605 18.8199 64.3327 18.7209 64.3327 18.5444V17.9685L64.3311 17.9702ZM60.3115 8.40812C55.7425 8.73648 55.8927 15.6221 60.2208 15.9439C65.7452 16.3531 65.6396 8.02531 60.3115 8.40812Z" fill="white"/>
<path d="M16.7484 13.9557L19.7515 5.73849C19.8258 5.69229 19.8951 5.66259 19.9842 5.65269C20.2449 5.62134 20.9132 5.62299 21.1772 5.65269C21.3224 5.66919 21.4296 5.70879 21.5088 5.83749L24.3948 13.9161C24.4823 13.9343 24.4443 13.8782 24.4641 13.8287C25.4822 11.1573 26.3798 8.43963 27.4144 5.77314C27.4936 5.70549 27.5844 5.66424 27.69 5.65104C28.1949 5.58999 29.4391 5.60319 29.9572 5.65104C30.2476 5.67744 30.3945 5.8837 30.3136 6.16916L25.3568 18.7095C25.2561 18.7821 25.1555 18.8267 25.0317 18.8416C24.7694 18.8713 24.1853 18.868 23.9179 18.8416C23.7447 18.8251 23.6259 18.7904 23.5252 18.6386L20.5832 11.0137L17.6411 18.6369C17.5635 18.7524 17.4612 18.8168 17.3243 18.835C17.0718 18.8713 16.4365 18.8647 16.1742 18.8399C15.9811 18.8218 15.8706 18.7838 15.7683 18.6105C14.2799 14.6999 12.6414 10.8454 11.1613 6.93148C11.0161 6.54867 10.5178 5.71209 11.2091 5.64774C11.7603 5.59659 12.8856 5.59659 13.4367 5.64774C13.5506 5.65764 13.6776 5.66919 13.7519 5.76984L16.7517 13.9508L16.7484 13.9557Z" fill="white"/>
<path d="M36.4817 5.38809C42.3857 5.03828 45.671 11.7738 42.2421 16.4319C39.2291 20.5257 32.8516 19.7765 30.7758 15.1613C28.8155 10.8019 31.6503 5.67355 36.4817 5.38644V5.38809ZM36.6401 8.40769C32.0662 8.74925 32.2196 15.6217 36.5494 15.9435C42.0821 16.3543 41.9501 8.01333 36.6401 8.40769Z" fill="white"/>
<path d="M4.82669 5.39099C6.51966 5.27879 8.42383 5.7507 9.62178 7.00804C10.0343 7.44035 10.1531 7.55586 9.74058 8.04262C9.52113 8.30168 8.73899 9.12341 8.49148 9.29501C8.12682 9.55077 7.92716 9.15806 7.6945 8.9749C7.23083 8.60529 6.80512 8.35943 6.21769 8.22743C5.27716 8.01622 3.11227 8.00467 3.47198 9.50457C3.59244 10.0062 4.37622 10.3098 4.81514 10.4665C7.04603 11.2602 9.93199 11.5655 10.1201 14.5752C10.4336 19.626 3.9802 20.1408 0.86818 17.6707C0.658622 17.504 0.0134457 16.9628 0.00024519 16.7153C-0.00470501 16.613 0.0662478 16.5024 0.1273 16.4232C0.36821 16.0998 0.912732 15.6395 1.22129 15.3326C1.4259 15.1296 1.55956 14.8194 1.93247 14.9761C2.97036 16.1312 4.84484 16.6443 6.33485 16.2351C7.5394 15.9035 7.6549 14.7039 6.58401 14.0983C4.63858 13.001 1.23449 13.2386 0.683372 10.3461C0.1273 7.42715 2.02488 5.57745 4.82669 5.39099Z" fill="white"/>
<path d="M48.2824 6.96454C48.657 6.48273 49.0827 6.06856 49.6372 5.79795C50.8252 5.21549 52.9026 5.18743 53.9405 6.09166C54.3167 6.42002 54.221 6.48768 54.0214 6.88534C53.8019 7.3226 53.4274 8.06017 53.16 8.44629C52.8366 8.9149 52.571 8.57994 52.241 8.42649C51.4572 8.06017 50.3186 8.16578 49.5811 8.59974C48.756 9.08486 48.3517 9.98414 48.2824 10.9164C48.1059 13.3024 48.4574 15.9194 48.2824 18.307C48.261 18.6106 48.2016 18.8037 47.8633 18.8416C47.3964 18.8944 46.1869 18.8944 45.7182 18.8416C45.4757 18.8152 45.3305 18.7212 45.3008 18.4654L45.3107 5.96131C45.3371 5.81115 45.4443 5.6808 45.6011 5.65605C46.3271 5.70555 47.1522 5.58345 47.865 5.6511C48.0465 5.66925 48.2808 5.7831 48.2808 5.99101V6.96454H48.2824Z" fill="white"/>
<path d="M75.6426 18.4637C75.3241 18.4637 75.1641 18.373 75.1641 18.1931C75.1641 18.0463 75.3027 17.9473 75.5782 17.8978L76.3125 17.7988C76.7597 17.7328 77.0517 17.6437 77.1887 17.5282C77.3273 17.4143 77.3966 17.1833 77.3966 16.8384V2.36749C77.3966 2.02263 77.3273 1.79327 77.1887 1.67777C77.0501 1.56391 76.758 1.47316 76.3125 1.40716L75.5782 1.30816C75.301 1.25865 75.1641 1.1613 75.1641 1.0128C75.1641 0.83294 75.3241 0.742188 75.6426 0.742188H81.4145C81.733 0.742188 81.893 0.83294 81.893 1.0128C81.893 1.15965 81.7544 1.25865 81.4789 1.30816L80.7462 1.40716C80.2991 1.47316 80.007 1.56391 79.8701 1.67777C79.7314 1.79327 79.6621 2.02263 79.6621 2.36749V16.8401C79.6621 17.1849 79.7314 17.4143 79.8701 17.5298C80.0087 17.6453 80.3007 17.7344 80.7462 17.8004L81.4789 17.8994C81.7544 17.9489 81.893 18.0463 81.893 18.1948C81.893 18.3763 81.733 18.4654 81.4145 18.4654H75.6426V18.4637Z" fill="white"/>
<path d="M81.412 18.7088H75.6401C74.985 18.7088 74.9141 18.3457 74.9141 18.1906C74.9141 17.9943 75.0213 17.7418 75.5328 17.6511L76.277 17.5504C76.8166 17.4712 76.9816 17.3739 77.0294 17.3343C77.0658 17.3046 77.1466 17.1973 77.1466 16.8359V2.365C77.1466 2.00363 77.0641 1.89473 77.0278 1.86503C76.9816 1.82708 76.8149 1.72973 76.2737 1.64887L75.5427 1.55152C75.0213 1.45912 74.9141 1.20666 74.9141 1.0103C74.9141 0.855199 74.985 0.492188 75.6401 0.492188H81.412C82.0671 0.492188 82.1381 0.855199 82.1381 1.0103C82.1381 1.20666 82.0308 1.45747 81.5193 1.54987L80.7751 1.65052C80.2355 1.72973 80.0689 1.82708 80.0227 1.86668C79.988 1.89638 79.9055 2.00363 79.9055 2.365V16.8376C79.9055 17.199 79.988 17.3062 80.0227 17.3359C80.0689 17.3755 80.2355 17.4729 80.7784 17.5521L81.5094 17.6511C82.0588 17.7484 82.1381 18.0306 82.1381 18.1923C82.1381 18.354 82.0671 18.7104 81.412 18.7104V18.7088ZM75.4371 18.1906C75.4718 18.2005 75.5345 18.2137 75.6417 18.2137H81.4137C81.5209 18.2137 81.582 18.2022 81.6166 18.1923C81.5853 18.1774 81.5292 18.156 81.4335 18.1395L80.7107 18.0421C80.2042 17.9679 79.8857 17.8639 79.7075 17.7171C79.5078 17.5521 79.4105 17.265 79.4105 16.8376V2.365C79.4105 1.93928 79.5078 1.65052 79.7075 1.48552C79.8857 1.33866 80.2025 1.23471 80.7058 1.16046L81.4417 1.06146C81.5308 1.04495 81.5853 1.02515 81.615 1.0103C81.5803 1.0004 81.5176 0.988853 81.4104 0.988853H75.6384C75.5328 0.988853 75.4701 1.0004 75.4355 1.0103C75.4668 1.02515 75.5229 1.0466 75.6186 1.06311L76.3414 1.16046C76.8479 1.23471 77.1648 1.33866 77.343 1.48552C77.5426 1.65217 77.64 1.93928 77.64 2.365V16.8376C77.64 17.2633 77.5426 17.5521 77.343 17.7171C77.1648 17.8656 76.8479 17.9679 76.3447 18.0421L75.6087 18.1411C75.5196 18.1576 75.4652 18.1774 75.4355 18.1923L75.4371 18.1906Z" fill="white"/>
<path d="M83.4473 18.4521C83.1288 18.4521 82.9688 18.3613 82.9688 18.1815C82.9688 18.0346 83.1074 17.9356 83.3829 17.8861L83.7657 17.8366C84.2129 17.7706 84.505 17.6683 84.6419 17.5297C84.7805 17.3911 84.8498 17.1486 84.8498 16.8037V8.53364C84.8498 8.23828 84.7904 8.03697 84.6749 7.93137C84.5578 7.82411 84.3499 7.75481 84.0528 7.72181L83.3829 7.64756C83.1057 7.63106 82.9688 7.54031 82.9688 7.37695C82.9688 7.2466 83.1387 7.15584 83.4786 7.10634C84.137 7.02384 84.6419 6.89349 84.9934 6.71198C85.3448 6.53212 85.7112 6.30937 86.094 6.04701C86.2854 5.8985 86.4454 5.8259 86.5725 5.8259C86.7639 5.8259 86.8596 5.92491 86.8596 6.12126V7.22845C86.8596 7.3753 86.9289 7.471 87.0675 7.5106C87.2061 7.55186 87.3596 7.5073 87.5295 7.3753C88.3793 6.75158 89.1284 6.32587 89.7786 6.09486C90.427 5.8655 91.1118 5.75 91.8362 5.75C92.7932 5.75 93.5589 6.00906 94.1331 6.52552C94.7073 7.04199 94.9944 7.80101 94.9944 8.8026V16.802C94.9944 17.1469 95.0637 17.3895 95.2023 17.5281C95.3409 17.6683 95.633 17.7624 96.0785 17.8119L96.7798 17.8861C97.0141 17.9191 97.1313 18.0181 97.1313 18.1815C97.1313 18.363 97.0042 18.4521 96.7484 18.4521H91.3907C91.092 18.4521 90.9435 18.3613 90.9435 18.1815C90.9435 18.0181 91.0607 17.9191 91.295 17.8861L91.7422 17.8366C92.1893 17.7871 92.4814 17.6898 92.6183 17.5413C92.7569 17.3944 92.8262 17.1469 92.8262 16.802V9.0732C92.8262 8.26963 92.6348 7.70366 92.252 7.3753C91.8692 7.04694 91.328 6.88359 90.6251 6.88359C89.9221 6.88359 89.3331 7.03539 88.7918 7.339C88.249 7.64261 87.8199 8.04522 87.4998 8.54519C87.1814 9.04515 87.0213 9.59957 87.0213 10.2068V16.8037C87.0213 17.1486 87.0906 17.3944 87.2292 17.5429C87.3678 17.6898 87.6599 17.7805 88.1054 17.8135L88.9667 17.8878C89.2011 17.9208 89.3182 18.0115 89.3182 18.1584C89.3182 18.3547 89.1581 18.4537 88.8397 18.4537H83.4506L83.4473 18.4521Z" fill="white"/>
<path d="M96.7427 18.7033H91.3849C90.7579 18.7033 90.6902 18.3403 90.6902 18.1852C90.6902 18.0466 90.7447 17.7165 91.2545 17.6456L91.7083 17.5961C92.2297 17.5383 92.3881 17.4245 92.4327 17.3766C92.5251 17.2793 92.5729 17.0813 92.5729 16.8074V9.07852C92.5729 8.35415 92.4096 7.84594 92.0845 7.56873C91.7496 7.28162 91.2562 7.13641 90.6193 7.13641C89.9823 7.13641 89.4098 7.27832 88.9065 7.56048C88.4032 7.84264 87.9973 8.2205 87.7036 8.68416C87.4115 9.14288 87.2647 9.65604 87.2647 10.2121V16.809C87.2647 17.0829 87.3125 17.2809 87.4049 17.3783C87.4478 17.4245 87.6013 17.5334 88.1194 17.5713L88.9841 17.6456C89.5071 17.7182 89.5616 18.0317 89.5616 18.1621C89.5616 18.3254 89.4906 18.7049 88.8355 18.7049H83.4464C82.7914 18.7049 82.7204 18.3419 82.7204 18.1868C82.7204 17.9905 82.8277 17.738 83.3392 17.6472L83.7335 17.5961C84.2599 17.5185 84.4216 17.4047 84.4662 17.3601C84.5536 17.2727 84.6015 17.0763 84.6015 16.809V8.53896C84.6015 8.22875 84.5289 8.13964 84.5058 8.11819C84.4629 8.07859 84.3424 8.00764 84.024 7.97299L83.354 7.89874C82.7815 7.86574 82.7188 7.52583 82.7188 7.38227C82.7188 6.97141 83.2616 6.89221 83.4415 6.8658C84.0735 6.7866 84.5553 6.66285 84.8787 6.49619C85.2186 6.32129 85.58 6.10348 85.9529 5.84772C86.1806 5.67282 86.3852 5.58206 86.5717 5.58206C86.9017 5.58206 87.1063 5.78997 87.1063 6.12493V7.23212C87.1063 7.25522 87.1096 7.26677 87.1112 7.26842C87.1112 7.26842 87.1195 7.27172 87.136 7.27667C87.2102 7.29812 87.3191 7.22717 87.3769 7.18261C88.2465 6.54405 89.0253 6.10183 89.6936 5.86587C90.3668 5.62827 91.0862 5.50781 91.8337 5.50781C92.8485 5.50781 93.6768 5.78997 94.2956 6.34604C94.921 6.91036 95.2378 7.73703 95.2378 8.80627V16.8057C95.2378 17.073 95.2856 17.2694 95.3731 17.3568C95.4177 17.4014 95.5761 17.5103 96.1024 17.568L96.8021 17.6423C97.3185 17.7149 97.3746 18.0449 97.3746 18.1835C97.3746 18.3056 97.3284 18.7016 96.7443 18.7016L96.7427 18.7033ZM91.1852 18.1802C91.2034 18.1901 91.2595 18.2083 91.3865 18.2083H96.7443C96.8219 18.2083 96.8615 18.1967 96.878 18.1918V18.1753C96.878 18.1753 96.8433 18.1505 96.741 18.1357L96.048 18.0631C95.5299 18.0053 95.2048 17.8931 95.0216 17.7083C94.8335 17.5202 94.7428 17.2248 94.7428 16.8074V8.80792C94.7428 7.88554 94.4804 7.18096 93.9639 6.71565C93.4392 6.24374 92.7231 6.00448 91.8337 6.00448C91.1423 6.00448 90.479 6.11503 89.8602 6.33449C89.2365 6.55559 88.5022 6.97471 87.6755 7.58028C87.4445 7.75848 87.2135 7.81788 86.9957 7.75353C86.7515 7.68258 86.6113 7.49282 86.6113 7.23377V6.12658C86.6113 6.10513 86.6096 6.09028 86.608 6.08203C86.6014 6.08203 86.5898 6.07873 86.5717 6.07873C86.5469 6.07873 86.4496 6.09028 86.2449 6.24869C85.844 6.52424 85.4645 6.7536 85.1064 6.93676C84.7269 7.13311 84.2038 7.27007 83.5091 7.35587C83.4233 7.36907 83.359 7.38227 83.3111 7.39547C83.3342 7.39877 83.3623 7.40207 83.3969 7.40372L84.0801 7.47797C84.4348 7.51757 84.684 7.60668 84.8407 7.75023C85.014 7.90864 85.0965 8.1644 85.0965 8.53566V16.8057C85.0965 17.2215 85.0057 17.5169 84.8176 17.7066C84.6361 17.8898 84.3127 18.0103 83.8012 18.0845L83.4151 18.134C83.326 18.1505 83.2732 18.1703 83.2435 18.1852C83.2781 18.1951 83.3408 18.2083 83.4481 18.2083H88.8372C88.9906 18.2083 89.0501 18.1802 89.0666 18.172C89.0484 18.1621 89.0088 18.1472 88.9312 18.1357L88.0831 18.0631C87.5633 18.0251 87.2333 17.9145 87.0469 17.7149C86.8621 17.5185 86.773 17.2215 86.773 16.8074V10.2105C86.773 9.55869 86.9462 8.95477 87.2894 8.41685C87.6293 7.88389 88.093 7.44992 88.6689 7.12816C89.2464 6.80475 89.9048 6.6414 90.6242 6.6414C91.3832 6.6414 91.9855 6.82785 92.4112 7.19251C92.8502 7.56873 93.0713 8.20235 93.0713 9.07852V16.8074C93.0713 17.2215 92.9822 17.5169 92.7974 17.7149C92.6125 17.9112 92.2858 18.0301 91.7661 18.0878L91.3189 18.1373C91.2149 18.1522 91.1869 18.1802 91.1869 18.1802H91.1852Z" fill="white"/>
<path d="M100.954 18.6806C100.209 18.6806 99.599 18.4793 99.1204 18.0783C98.6419 17.6757 98.4027 17.0157 98.4027 16.0966V6.89099C98.4027 6.69463 98.2756 6.59563 98.0198 6.59563H97.0958C96.7559 6.59563 96.5859 6.49663 96.5859 6.30027C96.5859 6.16992 96.6816 6.05441 96.873 5.95541C97.5743 5.57755 98.137 5.17164 98.5627 4.73767C98.9884 4.30371 99.3597 3.70804 99.6782 2.95397C99.8267 2.60911 100.008 2.4375 100.221 2.4375C100.455 2.4375 100.572 2.5695 100.572 2.83186V5.56435C100.572 5.7937 100.721 5.90921 101.02 5.90921H103.092C103.432 5.90921 103.602 6.02471 103.602 6.25407C103.602 6.48343 103.432 6.59893 103.092 6.59893H101.02C100.721 6.59893 100.572 6.71443 100.572 6.94379V16.1247C100.572 16.486 100.647 16.7682 100.795 16.9745C100.944 17.1791 101.221 17.2814 101.625 17.2814C102.072 17.2814 102.439 17.1098 102.726 16.7649C103.013 16.42 103.199 15.8623 103.284 15.0917C103.326 14.8624 103.463 14.7469 103.698 14.7469C103.953 14.7469 104.081 14.869 104.081 15.1165C104.016 16.3804 103.681 17.2913 103.076 17.849C102.47 18.4067 101.762 18.6856 100.955 18.6856L100.954 18.6806Z" fill="white"/>
<path d="M100.955 18.9289C100.155 18.9289 99.4849 18.7062 98.9618 18.2673C98.4272 17.8184 98.1566 17.0875 98.1566 16.0958V6.89015C98.1566 6.872 98.1533 6.8621 98.1533 6.86045C98.15 6.86045 98.1153 6.8423 98.0213 6.8423H97.0972C96.4124 6.8423 96.3398 6.46278 96.3398 6.29943C96.3398 6.13607 96.4124 5.91332 96.7606 5.73511C97.4322 5.37375 97.98 4.97939 98.3876 4.56357C98.7885 4.15271 99.1466 3.57849 99.4519 2.85577C99.6433 2.41191 99.9023 2.1875 100.222 2.1875C100.592 2.1875 100.821 2.43336 100.821 2.82937V5.56186C100.821 5.61136 100.821 5.65921 101.021 5.65921H103.094C103.777 5.65921 103.851 6.07337 103.851 6.25158C103.851 6.42978 103.777 6.84395 103.094 6.84395H101.021C100.821 6.84395 100.821 6.8918 100.821 6.9413V16.1222C100.821 16.4291 100.881 16.6651 100.998 16.8251C101.097 16.9621 101.308 17.0314 101.627 17.0314C102 17.0314 102.297 16.8911 102.537 16.604C102.792 16.2987 102.96 15.7806 103.039 15.0612L103.042 15.0431C103.107 14.6949 103.346 14.4952 103.701 14.4952C104.09 14.4952 104.331 14.7312 104.331 15.1124C104.263 16.4489 103.899 17.4257 103.247 18.0263C102.597 18.6253 101.826 18.9289 100.958 18.9289H100.955ZM100.222 2.68582C100.081 2.68582 99.9551 2.94322 99.9073 3.05378C99.5789 3.8326 99.1862 4.45797 98.7407 4.91339C98.2985 5.3655 97.7094 5.78956 96.99 6.17732C96.8596 6.24498 96.8332 6.29448 96.8332 6.30438C96.8299 6.30603 96.8827 6.35223 97.0956 6.35223H98.0196C98.4849 6.35223 98.6499 6.63274 98.6499 6.8951V16.1007C98.6499 16.939 98.8611 17.5412 99.2786 17.8927C99.7093 18.2541 100.272 18.4372 100.953 18.4372C101.704 18.4372 102.343 18.1848 102.907 17.6666C103.462 17.1568 103.772 16.2954 103.833 15.1041C103.833 15.0183 103.828 14.9952 103.697 14.9952C103.585 14.9952 103.549 15.0233 103.528 15.1289C103.435 15.9522 103.235 16.5396 102.915 16.9241C102.58 17.3267 102.146 17.5297 101.625 17.5297C101.138 17.5297 100.792 17.3911 100.595 17.1188C100.416 16.873 100.325 16.538 100.325 16.1238V6.94295C100.325 6.80435 100.374 6.35058 101.019 6.35058H103.092C103.354 6.35058 103.354 6.28293 103.354 6.25323C103.354 6.22353 103.354 6.15587 103.092 6.15587H101.019C100.376 6.15587 100.325 5.70211 100.325 5.56351V2.83102C100.325 2.68417 100.297 2.68417 100.221 2.68417L100.222 2.68582Z" fill="white"/>
<path d="M110.209 18.6777C109.19 18.6777 108.274 18.4154 107.467 17.8906C106.658 17.3659 106.017 16.6234 105.538 15.6631C105.06 14.7027 104.82 13.5923 104.82 12.3283C104.82 11.0644 105.065 9.89119 105.553 8.90776C106.041 7.92268 106.711 7.15211 107.563 6.59439C108.413 6.03667 109.36 5.75781 110.401 5.75781C111.655 5.75781 112.67 6.15548 113.447 6.9508C114.222 7.74612 114.61 9.03976 114.61 10.8268C114.61 11.368 114.344 11.6386 113.813 11.6386H107.754C107.328 11.6386 107.116 11.8267 107.116 12.2046C107.116 13.9437 107.446 15.2489 108.104 16.1185C108.762 16.9881 109.602 17.4237 110.624 17.4237C111.432 17.4237 112.091 17.2026 112.6 16.7587C113.11 16.3165 113.526 15.569 113.845 14.5196C113.909 14.3397 114.046 14.249 114.259 14.249C114.513 14.249 114.609 14.414 114.546 14.7407C114.206 16.201 113.663 17.2224 112.919 17.8048C112.175 18.3873 111.27 18.6777 110.208 18.6777H110.209ZM107.658 11.0231H110.879C111.899 11.0231 112.411 10.6123 112.411 9.79219C112.411 8.72625 112.241 7.88968 111.901 7.28246C111.561 6.67524 111.051 6.37163 110.369 6.37163C109.541 6.37163 108.843 6.74124 108.281 7.47882C107.716 8.21804 107.35 9.26747 107.18 10.6288C107.137 10.8911 107.297 11.0231 107.658 11.0231Z" fill="white"/>
<path d="M110.209 18.9244C109.144 18.9244 108.176 18.6455 107.331 18.0977C106.489 17.5515 105.811 16.7694 105.314 15.7728C104.821 14.7828 104.57 13.6244 104.57 12.3275C104.57 11.0305 104.826 9.8095 105.329 8.79637C105.836 7.77663 106.54 6.96646 107.425 6.38564C108.313 5.80317 109.313 5.50781 110.398 5.50781C111.715 5.50781 112.799 5.93518 113.621 6.7767C114.439 7.61658 114.855 8.97952 114.855 10.8259C114.855 11.4991 114.474 11.8853 113.811 11.8853H107.752C107.39 11.8853 107.361 12.0354 107.361 12.2037C107.361 13.8802 107.676 15.1458 108.299 15.9675C108.913 16.7793 109.674 17.1737 110.621 17.1737C111.364 17.1737 111.974 16.9707 112.436 16.5698C112.908 16.1605 113.302 15.4444 113.606 14.4445C113.708 14.1524 113.939 13.9973 114.258 13.9973C114.491 13.9973 114.623 14.0963 114.69 14.1788C114.807 14.3207 114.839 14.5187 114.788 14.7844C114.434 16.3041 113.857 17.3816 113.07 17.9971C112.284 18.6109 111.321 18.9227 110.207 18.9227L110.209 18.9244ZM110.4 6.00283C109.412 6.00283 108.502 6.27014 107.697 6.7998C106.887 7.33112 106.24 8.07694 105.773 9.01582C105.303 9.9613 105.065 11.0751 105.065 12.3275C105.065 13.5799 105.298 14.6309 105.757 15.5517C106.212 16.4675 106.833 17.1836 107.6 17.6819C108.362 18.1786 109.24 18.4294 110.207 18.4294C111.174 18.4294 112.07 18.1538 112.765 17.6076C113.459 17.0631 113.977 16.0797 114.302 14.6821C114.326 14.56 114.311 14.5088 114.307 14.4973C114.304 14.4989 114.288 14.494 114.256 14.494C114.123 14.494 114.096 14.5418 114.075 14.5996C113.746 15.6804 113.304 16.4724 112.76 16.9443C112.205 17.4261 111.486 17.6703 110.621 17.6703C109.524 17.6703 108.61 17.1984 107.905 16.2678C107.215 15.3586 106.866 13.9924 106.866 12.2054C106.866 11.6889 107.189 11.3919 107.752 11.3919H113.811C114.207 11.3919 114.36 11.2335 114.36 10.8276C114.36 9.11483 113.992 7.86904 113.266 7.12321C112.542 6.38069 111.576 6.00448 110.398 6.00448L110.4 6.00283ZM110.879 11.2698H107.658C107.37 11.2698 107.169 11.1988 107.045 11.052C106.974 10.9678 106.897 10.8193 106.935 10.5883C107.108 9.19733 107.494 8.09839 108.083 7.32782C108.694 6.52754 109.463 6.12328 110.369 6.12328C111.141 6.12328 111.73 6.47309 112.114 7.16116C112.474 7.80303 112.656 8.68911 112.656 9.793C112.656 10.4679 112.347 11.2714 110.877 11.2714L110.879 11.2698ZM107.423 10.7335C107.423 10.7335 107.469 10.7764 107.658 10.7764H110.879C112.015 10.7764 112.162 10.2517 112.162 9.793C112.162 8.77491 112.001 7.97134 111.684 7.40372C111.388 6.87571 110.958 6.61995 110.369 6.61995C109.615 6.61995 108.996 6.94996 108.476 7.62978C107.941 8.3294 107.588 9.34913 107.425 10.6609C107.417 10.717 107.423 10.7335 107.423 10.7335Z" fill="white"/>
<path d="M115.219 18.4555C114.963 18.4555 114.836 18.3647 114.836 18.1848C114.836 18.0215 114.953 17.9225 115.187 17.8895L115.635 17.84C116.082 17.7905 116.41 17.6931 116.623 17.5446C116.836 17.3978 116.941 17.1503 116.941 16.8054V2.70406C116.941 2.40871 116.882 2.2041 116.767 2.0886C116.649 1.97309 116.441 1.90874 116.144 1.89224L115.41 1.81799C115.176 1.78499 115.059 1.68763 115.059 1.52263C115.059 1.35762 115.176 1.26027 115.41 1.22727C116.006 1.12827 116.516 1.01441 116.941 0.882407C117.365 0.752053 117.717 0.620049 117.994 0.488045C118.334 0.32469 118.588 0.242188 118.76 0.242188C118.994 0.242188 119.111 0.374192 119.111 0.63655V16.8071C119.111 17.1519 119.181 17.3945 119.319 17.5331C119.458 17.6733 119.75 17.7674 120.195 17.8169L120.93 17.8911C121.164 17.9241 121.281 18.0231 121.281 18.1865C121.281 18.368 121.154 18.4571 120.898 18.4571H115.222L115.219 18.4555Z" fill="white"/>
<path d="M120.892 18.7066H115.216C114.632 18.7066 114.586 18.3106 114.586 18.1885C114.586 18.0499 114.64 17.7199 115.15 17.649L115.604 17.5994C116.007 17.5549 116.302 17.4691 116.479 17.347C116.622 17.248 116.691 17.0731 116.691 16.8124V2.70773C116.691 2.40247 116.62 2.29852 116.589 2.26882C116.55 2.22922 116.434 2.15992 116.127 2.14342L115.383 2.06916C114.865 1.99656 114.809 1.66655 114.809 1.52795C114.809 1.38934 114.863 1.05933 115.373 0.988381C115.949 0.892678 116.454 0.780474 116.865 0.65177C117.276 0.523066 117.62 0.396012 117.884 0.270608C118.266 0.0858027 118.543 0 118.756 0C119.125 0 119.355 0.245858 119.355 0.64187V16.8124C119.355 17.0797 119.402 17.276 119.49 17.3635C119.534 17.408 119.693 17.5169 120.219 17.5747L120.95 17.649C121.468 17.7216 121.524 18.0516 121.524 18.1902C121.524 18.3123 121.478 18.7083 120.894 18.7083L120.892 18.7066ZM115.081 18.1935C115.097 18.2001 115.135 18.2116 115.216 18.2116H120.892C121.005 18.2116 121.036 18.1902 121.036 18.1902C121.033 18.1935 121.028 18.2001 121.026 18.205L121.264 18.1093L121.026 18.1786C121.026 18.1786 121.008 18.1555 120.889 18.139L120.165 18.0664C119.645 18.0087 119.32 17.8965 119.137 17.7117C118.949 17.5235 118.858 17.2282 118.858 16.8124V0.64022C118.858 0.493365 118.83 0.493365 118.754 0.493365C118.678 0.493365 118.497 0.521416 118.096 0.714472C117.809 0.851427 117.444 0.988381 117.008 1.12203C116.574 1.25569 116.05 1.37449 115.446 1.47515C115.328 1.49165 115.3 1.5197 115.3 1.5197L115.304 1.5362C115.304 1.5362 115.338 1.56095 115.441 1.5758L116.165 1.6484C116.517 1.6682 116.772 1.75565 116.936 1.91571C117.104 2.08071 117.185 2.33977 117.185 2.70773V16.8107C117.185 17.2397 117.041 17.5565 116.759 17.7529C116.51 17.9262 116.149 18.0367 115.657 18.0912L115.21 18.1407C115.106 18.1555 115.078 18.1836 115.078 18.1836V18.1951L115.081 18.1935Z" fill="white"/>
<path d="M122.453 18.4555C122.197 18.4555 122.07 18.3647 122.07 18.1848C122.07 18.0215 122.187 17.9225 122.422 17.8895L122.869 17.84C123.316 17.7905 123.644 17.6931 123.857 17.5446C124.07 17.3978 124.176 17.1503 124.176 16.8054V2.70406C124.176 2.40871 124.116 2.2041 124.001 2.0886C123.884 1.97309 123.676 1.90874 123.379 1.89224L122.645 1.81799C122.41 1.78499 122.293 1.68763 122.293 1.52263C122.293 1.35762 122.41 1.26027 122.645 1.22727C123.24 1.12827 123.75 1.01441 124.176 0.882407C124.6 0.752053 124.951 0.620049 125.229 0.488045C125.568 0.32469 125.823 0.242188 125.994 0.242188C126.228 0.242188 126.346 0.374192 126.346 0.63655V16.8071C126.346 17.1519 126.415 17.3945 126.554 17.5331C126.692 17.6733 126.984 17.7674 127.43 17.8169L128.164 17.8911C128.398 17.9241 128.515 18.0231 128.515 18.1865C128.515 18.368 128.388 18.4571 128.133 18.4571H122.456L122.453 18.4555Z" fill="white"/>
<path d="M128.131 18.7066H122.455C121.87 18.7066 121.824 18.3106 121.824 18.1885C121.824 18.0499 121.879 17.7199 122.389 17.649L122.842 17.5994C123.245 17.5549 123.54 17.4707 123.717 17.347C123.86 17.248 123.93 17.0714 123.93 16.8124V2.70773C123.93 2.40247 123.859 2.29852 123.827 2.26882C123.788 2.22922 123.672 2.15992 123.365 2.14342L122.621 2.06916C122.103 1.99656 122.047 1.66655 122.047 1.52795C122.047 1.38934 122.101 1.05933 122.611 0.988381C123.187 0.892678 123.692 0.780474 124.105 0.65177C124.517 0.524716 124.86 0.396012 125.124 0.270608C125.506 0.0858027 125.783 0 125.996 0C126.365 0 126.595 0.245858 126.595 0.64187V16.8124C126.595 17.0797 126.642 17.276 126.73 17.3635C126.774 17.408 126.933 17.5169 127.459 17.5747L128.19 17.649C128.708 17.7216 128.764 18.0516 128.764 18.1902C128.764 18.3123 128.718 18.7083 128.134 18.7083L128.131 18.7066ZM122.319 18.1935C122.336 18.2001 122.374 18.2116 122.455 18.2116H128.131C128.21 18.2116 128.248 18.2001 128.264 18.1935V18.177C128.264 18.177 128.23 18.1522 128.127 18.1374L127.403 18.0648C126.883 18.007 126.558 17.8948 126.375 17.71C126.187 17.5219 126.096 17.2265 126.096 16.8091V0.64022C126.096 0.493365 126.068 0.493365 125.992 0.493365C125.916 0.493365 125.735 0.521416 125.334 0.714472C125.047 0.851427 124.682 0.988381 124.247 1.12203C123.813 1.25569 123.288 1.37449 122.682 1.47515C122.565 1.49165 122.537 1.5197 122.537 1.5197L122.54 1.5362C122.54 1.5362 122.575 1.56095 122.677 1.5758L123.402 1.6484C123.753 1.6682 124.009 1.75565 124.172 1.91406C124.341 2.07906 124.421 2.33812 124.421 2.70608V16.8091C124.421 17.2381 124.278 17.5549 123.996 17.7513C123.747 17.9245 123.385 18.0351 122.893 18.0895L122.446 18.139C122.342 18.1539 122.314 18.1819 122.314 18.1819V18.1935H122.319Z" fill="white"/>
<path d="M129.721 18.4584C129.402 18.4584 129.242 18.3677 129.242 18.1878C129.242 18.041 129.381 17.942 129.656 17.8925L130.039 17.843C130.57 17.7769 130.91 17.6746 131.061 17.536C131.209 17.3974 131.283 17.1549 131.283 16.81V8.53996C131.283 8.2446 131.224 8.0433 131.108 7.93769C130.991 7.83044 130.783 7.76114 130.486 7.72814L129.816 7.65388C129.539 7.63738 129.402 7.54663 129.402 7.38327C129.402 7.25292 129.572 7.16217 129.912 7.11267C130.57 7.03016 131.102 6.89981 131.506 6.7183C131.91 6.53845 132.303 6.31569 132.686 6.05333C132.877 5.90483 133.037 5.83223 133.164 5.83223C133.356 5.83223 133.451 5.93123 133.451 6.12759V16.81C133.451 17.1549 133.516 17.4007 133.643 17.5492C133.77 17.6961 134.014 17.7868 134.376 17.8198L135.173 17.8941C135.407 17.9271 135.524 18.0179 135.524 18.1647C135.524 18.3611 135.364 18.4601 135.045 18.4601H129.719L129.721 18.4584ZM132.4 3.56836C131.953 3.56836 131.577 3.4446 131.268 3.19874C130.96 2.95289 130.806 2.64103 130.806 2.26316C130.806 1.8853 130.96 1.57839 131.268 1.34079C131.577 1.10318 131.953 0.984375 132.4 0.984375C132.848 0.984375 133.219 1.10318 133.516 1.34079C133.813 1.57839 133.963 1.88695 133.963 2.26316C133.963 2.63938 133.815 2.95289 133.516 3.19874C133.217 3.4446 132.846 3.56836 132.4 3.56836Z" fill="white"/>
<path d="M135.045 18.7034H129.718C129.063 18.7034 128.992 18.3404 128.992 18.1853C128.992 17.989 129.099 17.7365 129.611 17.6458L130.005 17.5946C130.654 17.5154 130.839 17.3982 130.888 17.352C130.982 17.2629 131.033 17.0748 131.033 16.8059V8.53582C131.033 8.22561 130.961 8.13651 130.938 8.11506C130.895 8.07545 130.774 8.0045 130.456 7.96985L129.786 7.8956C129.213 7.8626 129.151 7.52269 129.151 7.37913C129.151 6.96827 129.693 6.88907 129.873 6.86267C130.51 6.78346 131.023 6.65806 131.403 6.4881C131.792 6.31485 132.175 6.09869 132.543 5.84623C132.769 5.67133 132.975 5.58058 133.162 5.58058C133.492 5.58058 133.697 5.78848 133.697 6.12344V16.8059C133.697 17.1573 133.767 17.3124 133.829 17.3817C133.876 17.4362 134.012 17.5335 134.396 17.5682L135.193 17.6425C135.713 17.7151 135.769 18.0286 135.769 18.1589C135.769 18.3223 135.698 18.7018 135.043 18.7018L135.045 18.7034ZM129.515 18.1853C129.55 18.1952 129.613 18.2084 129.72 18.2084H135.046C135.2 18.2084 135.259 18.1804 135.274 18.1721C135.256 18.1622 135.218 18.1474 135.139 18.1358L134.353 18.0632C133.923 18.0236 133.629 17.9081 133.456 17.7085C133.286 17.5121 133.203 17.2184 133.203 16.8075V6.12509C133.203 6.10364 133.202 6.08879 133.2 6.08054C133.193 6.08054 133.182 6.07724 133.165 6.07724C133.14 6.07724 133.041 6.08879 132.838 6.2472C132.434 6.52441 132.025 6.75541 131.608 6.94187C131.183 7.13162 130.624 7.27023 129.943 7.35603C129.857 7.36923 129.792 7.38243 129.745 7.39563C129.768 7.39893 129.796 7.40223 129.83 7.40388L130.514 7.47814C130.868 7.51774 131.117 7.60684 131.276 7.75039C131.447 7.9088 131.532 8.16456 131.532 8.53582V16.8059C131.532 17.22 131.431 17.5253 131.231 17.7118C131.038 17.8933 130.67 18.0104 130.071 18.0847L129.69 18.1342C129.601 18.1507 129.548 18.1705 129.519 18.1853H129.515ZM132.398 3.81337C131.896 3.81337 131.462 3.67147 131.111 3.39096C130.743 3.09725 130.555 2.71774 130.555 2.26232C130.555 1.80691 130.743 1.42905 131.114 1.14359C131.466 0.872979 131.898 0.734375 132.398 0.734375C132.898 0.734375 133.327 0.872979 133.668 1.14524C134.027 1.43235 134.208 1.80691 134.208 2.26232C134.208 2.71774 134.028 3.09395 133.672 3.38766C133.329 3.66982 132.901 3.81337 132.398 3.81337ZM132.398 1.22774C132.004 1.22774 131.683 1.32839 131.418 1.533C131.172 1.72276 131.051 1.96036 131.051 2.26067C131.051 2.56098 131.172 2.80354 131.421 3.0032C131.687 3.2144 132.007 3.31836 132.398 3.31836C132.789 3.31836 133.102 3.21605 133.357 3.0065C133.596 2.80849 133.713 2.56428 133.713 2.26232C133.713 1.96036 133.598 1.72276 133.36 1.533C133.104 1.33004 132.789 1.23104 132.398 1.23104V1.22774Z" fill="white"/>
<path d="M140.225 23.7478C138.61 23.7478 137.334 23.497 136.399 22.9971C135.463 22.4955 134.996 21.8932 134.996 21.1886C134.996 20.8933 135.049 20.626 135.156 20.3883C135.262 20.1507 135.491 19.8752 135.841 19.5633C136.192 19.2515 136.729 18.8488 137.451 18.3571C137.707 18.1773 137.834 18.009 137.834 17.8522C137.834 17.6955 137.707 17.5783 137.451 17.4958C136.686 17.2499 136.229 16.9331 136.08 16.5487C135.932 16.1626 136.112 15.8062 136.623 15.4778L138.92 13.9515C139.176 13.7881 139.164 13.6479 138.889 13.5324C138.017 13.204 137.326 12.6958 136.816 12.0061C136.306 11.3164 136.05 10.5788 136.05 9.79006C136.05 9.00134 136.263 8.35452 136.689 7.7473C137.115 7.14008 137.687 6.65662 138.412 6.29525C139.134 5.93389 139.943 5.75404 140.836 5.75404C141.346 5.75404 141.834 5.82004 142.303 5.95039C142.6 6.0329 142.781 5.95864 142.845 5.72929C143.037 5.10557 143.393 4.61715 143.913 4.26404C144.434 3.91093 144.949 3.73438 145.459 3.73438C145.969 3.73438 146.347 3.84493 146.655 4.06604C146.964 4.28714 147.117 4.5627 147.117 4.89106C147.117 5.16992 147.01 5.39103 146.799 5.55603C146.586 5.72104 146.32 5.80189 146.002 5.80189C145.725 5.80189 145.524 5.76064 145.396 5.67814C145.269 5.59563 145.152 5.51478 145.045 5.43228C144.938 5.34978 144.768 5.30852 144.535 5.30852C144.025 5.30852 143.705 5.52138 143.578 5.94874C143.514 6.11375 143.519 6.25235 143.595 6.36786C143.669 6.48336 143.781 6.59721 143.93 6.71272C144.439 7.09058 144.839 7.54929 145.126 8.09051C145.413 8.63173 145.557 9.2307 145.557 9.88742C145.557 10.6745 145.349 11.3807 144.934 12.0044C144.52 12.6282 143.956 13.1199 143.245 13.4812C142.532 13.8426 141.73 14.0224 140.837 14.0224C140.455 14.0224 140.125 14.0835 139.849 14.2073C139.572 14.331 139.296 14.5076 139.019 14.7369L138.476 15.2039C138.199 15.4662 138.12 15.717 138.237 15.9547C138.354 16.1923 138.646 16.3111 139.113 16.3111H141.855C143.387 16.3111 144.598 16.6031 145.491 17.1839C146.383 17.7664 146.83 18.5667 146.83 19.5831C146.83 20.3867 146.532 21.1012 145.938 21.7249C145.342 22.3486 144.55 22.8403 143.562 23.2017C142.573 23.563 141.463 23.7429 140.228 23.7429L140.225 23.7478ZM140.608 23.2066C141.374 23.2066 142.075 23.0746 142.713 22.8123C143.352 22.5499 143.855 22.1852 144.228 21.7166C144.599 21.2497 144.786 20.72 144.786 20.1293C144.786 19.3917 144.504 18.8208 143.941 18.4182C143.377 18.0156 142.586 17.8159 141.565 17.8159H140.832C140.172 17.8159 139.679 17.8654 139.349 17.9628C139.019 18.0618 138.705 18.2334 138.408 18.4792C137.748 19.0205 137.334 19.4561 137.164 19.7844C136.994 20.1128 136.909 20.4494 136.909 20.7943C136.909 21.517 137.232 22.0994 137.88 22.5417C138.529 22.9839 139.438 23.2066 140.606 23.2066H140.608ZM140.799 13.4103C141.565 13.4103 142.171 13.0902 142.618 12.4499C143.065 11.8097 143.288 10.9401 143.288 9.84122C143.288 8.74228 143.058 7.91726 142.601 7.26879C142.144 6.62032 141.544 6.2969 140.799 6.2969C140.055 6.2969 139.455 6.62032 138.998 7.26879C138.54 7.91726 138.311 8.77363 138.311 9.84122C138.311 10.9088 138.534 11.8097 138.981 12.4499C139.428 13.0902 140.034 13.4103 140.799 13.4103Z" fill="white"/>
<path d="M140.224 23.999C138.574 23.999 137.248 23.7367 136.281 23.2186C135.263 22.674 134.746 21.9926 134.746 21.1906C134.746 20.8606 134.807 20.557 134.928 20.2897C135.048 20.0175 135.294 19.7204 135.675 19.3822C136.031 19.0654 136.583 18.6529 137.31 18.1562C137.526 18.0044 137.584 17.8955 137.584 17.8559C137.584 17.8394 137.531 17.7849 137.373 17.7338C136.525 17.4615 136.025 17.1035 135.847 16.6398C135.711 16.29 135.713 15.7702 136.485 15.2719L138.767 13.7555C137.873 13.4139 137.145 12.876 136.612 12.1566C136.073 11.4273 135.799 10.632 135.799 9.79373C135.799 8.95551 136.028 8.25589 136.482 7.60907C136.929 6.9705 137.54 6.45568 138.297 6.07782C139.051 5.70161 139.904 5.5102 140.832 5.5102C141.361 5.5102 141.878 5.5795 142.364 5.71646C142.571 5.77421 142.586 5.72141 142.602 5.66696C142.812 4.98383 143.204 4.44757 143.77 4.06311C144.33 3.68359 144.897 3.49219 145.455 3.49219C146.013 3.49219 146.445 3.61924 146.795 3.87005C147.169 4.14066 147.361 4.48552 147.361 4.89638C147.361 5.24949 147.217 5.5465 146.945 5.75606C146.689 5.95406 146.369 6.05307 145.996 6.05307C145.668 6.05307 145.425 6.00027 145.255 5.88971C145.122 5.80391 144.998 5.71646 144.887 5.6323C144.859 5.61085 144.769 5.56135 144.529 5.56135C144.015 5.56135 143.874 5.80886 143.81 6.02502L143.803 6.04317C143.754 6.17187 143.784 6.21807 143.797 6.23622C143.856 6.32863 143.949 6.42268 144.076 6.52003C144.61 6.91604 145.036 7.40776 145.34 7.97868C145.645 8.55455 145.798 9.19807 145.798 9.89109C145.798 10.7244 145.575 11.4834 145.135 12.1451C144.698 12.8018 144.099 13.3265 143.351 13.706C142.607 14.0839 141.759 14.2736 140.832 14.2736C140.485 14.2736 140.186 14.3281 139.944 14.437C139.688 14.5508 139.429 14.7175 139.172 14.9303L138.632 15.3957C138.358 15.6564 138.427 15.7966 138.454 15.8494C138.543 16.0309 138.858 16.0689 139.109 16.0689H141.851C143.424 16.0689 144.691 16.3758 145.622 16.983C146.585 17.6117 147.074 18.4895 147.074 19.5901C147.074 20.4547 146.75 21.2335 146.112 21.9018C145.493 22.5503 144.661 23.0684 143.642 23.4397C142.63 23.8093 141.48 23.9957 140.224 23.9957V23.999ZM140.83 6.00687C139.98 6.00687 139.201 6.18012 138.517 6.52168C137.835 6.86159 137.286 7.32361 136.886 7.89452C136.494 8.45554 136.294 9.09576 136.294 9.79538C136.294 10.495 136.535 11.221 137.01 11.8629C137.489 12.5097 138.149 12.9948 138.97 13.305C139.206 13.404 139.33 13.5361 139.345 13.7044C139.36 13.8727 139.261 14.0278 139.049 14.1631L136.756 15.6861C136.157 16.0722 136.267 16.3543 136.307 16.4616C136.424 16.7685 136.845 17.0441 137.523 17.2635C137.982 17.4104 138.078 17.6678 138.078 17.8559C138.078 18.1001 137.918 18.3311 137.591 18.5621C136.876 19.0489 136.343 19.4482 136.002 19.7518C135.678 20.0389 135.469 20.2881 135.378 20.4927C135.286 20.6973 135.239 20.9316 135.239 21.1923C135.239 21.8045 135.655 22.3242 136.512 22.7829C137.406 23.2615 138.655 23.504 140.221 23.504C141.419 23.504 142.511 23.3275 143.468 22.9776C144.415 22.6311 145.184 22.1559 145.75 21.5619C146.305 20.9811 146.575 20.3359 146.575 19.5917C146.575 18.6545 146.174 17.9384 145.348 17.3988C144.5 16.8461 143.321 16.5655 141.848 16.5655H139.106C138.536 16.5655 138.167 16.3989 138.007 16.0705C137.889 15.8346 137.845 15.4617 138.297 15.031L138.848 14.5558C139.144 14.3099 139.442 14.1202 139.739 13.9882C140.046 13.8512 140.412 13.7819 140.828 13.7819C141.678 13.7819 142.45 13.6087 143.125 13.2671C143.795 12.9272 144.333 12.4586 144.721 11.8744C145.105 11.2953 145.302 10.6287 145.302 9.89439C145.302 9.28222 145.166 8.71625 144.901 8.21298C144.633 7.70807 144.254 7.27246 143.775 6.91769C143.6 6.78404 143.468 6.64709 143.379 6.50848C143.298 6.38473 143.224 6.17352 143.336 5.87651C143.45 5.50525 143.749 5.06964 144.528 5.06964C144.82 5.06964 145.036 5.12739 145.189 5.24454C145.288 5.32044 145.401 5.39965 145.523 5.47885C145.571 5.5102 145.698 5.563 145.995 5.563C146.26 5.563 146.471 5.49865 146.641 5.3683C146.793 5.25114 146.864 5.10264 146.864 4.89968C146.864 4.65382 146.747 4.44922 146.504 4.27596C146.24 4.08621 145.887 3.9905 145.453 3.9905C144.996 3.9905 144.523 4.15386 144.046 4.47727C143.569 4.80068 143.252 5.23629 143.076 5.80886C143.039 5.93921 142.866 6.37153 142.231 6.19662C141.785 6.07122 141.315 6.00852 140.83 6.00852V6.00687ZM140.607 23.4578C139.393 23.4578 138.427 23.2202 137.741 22.7499C137.025 22.2599 136.66 21.6032 136.66 20.7979C136.66 20.4135 136.756 20.0356 136.942 19.6742C137.129 19.3129 137.556 18.8608 138.249 18.2931C138.571 18.0275 138.916 17.8377 139.276 17.7305C139.63 17.6249 140.139 17.5721 140.83 17.5721H141.564C142.632 17.5721 143.48 17.7899 144.084 18.2205C144.714 18.671 145.033 19.3129 145.033 20.133C145.033 20.7781 144.826 21.3639 144.42 21.8754C144.023 22.3737 143.48 22.7681 142.807 23.0453C142.142 23.3192 141.401 23.4578 140.607 23.4578ZM140.83 18.0671C140.196 18.0671 139.723 18.1133 139.417 18.204C139.122 18.2931 138.833 18.4499 138.563 18.6743C137.931 19.1924 137.535 19.6049 137.381 19.902C137.229 20.1924 137.154 20.4927 137.154 20.7979C137.154 21.4381 137.436 21.9431 138.018 22.3407C138.622 22.7532 139.492 22.9611 140.605 22.9611C141.335 22.9611 142.011 22.8357 142.617 22.5866C143.213 22.3424 143.688 21.9975 144.033 21.5669C144.373 21.1395 144.538 20.6709 144.538 20.133C144.538 19.4746 144.295 18.9796 143.797 18.6232C143.279 18.2535 142.528 18.0671 141.564 18.0671H140.83ZM140.799 13.6615C139.95 13.6615 139.271 13.3034 138.777 12.5955C138.304 11.9157 138.063 10.9917 138.063 9.84489C138.063 8.6981 138.309 7.81697 138.794 7.13055C139.297 6.41608 139.972 6.05307 140.799 6.05307C141.625 6.05307 142.298 6.41608 142.802 7.13055C143.287 7.81862 143.533 8.73275 143.533 9.84489C143.533 10.957 143.292 11.9157 142.818 12.5955C142.325 13.3034 141.645 13.6615 140.797 13.6615H140.799ZM140.799 6.54808C140.134 6.54808 139.61 6.83189 139.2 7.41601C138.774 8.01828 138.559 8.83505 138.559 9.84489C138.559 10.8547 138.771 11.7177 139.185 12.3117C139.586 12.8859 140.114 13.1664 140.8 13.1664C141.487 13.1664 142.015 12.8876 142.416 12.3117C142.83 11.7177 143.041 10.8877 143.041 9.84489C143.041 8.80205 142.825 8.01828 142.401 7.41601C141.988 6.83189 141.465 6.54808 140.802 6.54808H140.799Z" fill="white"/>
<path d="M152.389 18.6777C151.369 18.6777 150.454 18.4154 149.647 17.8906C148.838 17.3659 148.196 16.6234 147.718 15.6631C147.239 14.7027 147 13.5923 147 12.3283C147 11.0644 147.244 9.89119 147.734 8.90776C148.223 7.92268 148.893 7.15211 149.742 6.59439C150.592 6.03667 151.539 5.75781 152.581 5.75781C153.835 5.75781 154.849 6.15548 155.627 6.9508C156.402 7.74612 156.79 9.03976 156.79 10.8268C156.79 11.368 156.524 11.6386 155.993 11.6386H149.934C149.508 11.6386 149.295 11.8267 149.295 12.2046C149.295 13.9437 149.625 15.2489 150.284 16.1185C150.942 16.9881 151.782 17.4237 152.803 17.4237C153.61 17.4237 154.27 17.2026 154.78 16.7587C155.29 16.3165 155.706 15.569 156.024 14.5196C156.089 14.3397 156.226 14.249 156.438 14.249C156.694 14.249 156.79 14.414 156.725 14.7407C156.386 16.201 155.843 17.2224 155.099 17.8048C154.354 18.3873 153.45 18.6777 152.387 18.6777H152.389ZM149.838 11.0231H153.059C154.079 11.0231 154.59 10.6123 154.59 9.79219C154.59 8.72625 154.42 7.88968 154.08 7.28246C153.741 6.67524 153.231 6.37163 152.549 6.37163C151.721 6.37163 151.023 6.74124 150.46 7.47882C149.896 8.21804 149.53 9.26747 149.36 10.6288C149.317 10.8911 149.477 11.0231 149.838 11.0231Z" fill="white"/>
<path d="M152.388 18.9244C151.322 18.9244 150.355 18.6455 149.511 18.0977C148.669 17.5515 147.991 16.7694 147.494 15.7728C147.001 14.7828 146.75 13.6244 146.75 12.3275C146.75 11.0305 147.006 9.8095 147.509 8.79637C148.016 7.77663 148.72 6.96646 149.603 6.38564C150.491 5.80317 151.491 5.50781 152.576 5.50781C153.893 5.50781 154.977 5.93518 155.799 6.7767C156.617 7.61658 157.033 8.97952 157.033 10.8259C157.033 11.4991 156.652 11.8853 155.989 11.8853H149.93C149.57 11.8853 149.54 12.0354 149.54 12.2037C149.54 13.8802 149.855 15.1458 150.479 15.9675C151.095 16.7793 151.854 17.1737 152.801 17.1737C153.543 17.1737 154.154 16.9707 154.616 16.5698C155.088 16.1605 155.482 15.4444 155.784 14.4445C155.888 14.1524 156.117 13.9973 156.436 13.9973C156.669 13.9973 156.801 14.0963 156.868 14.1805C156.985 14.3224 157.017 14.5204 156.966 14.7861C156.612 16.3058 156.035 17.3832 155.249 17.9971C154.464 18.6109 153.5 18.9227 152.387 18.9227L152.388 18.9244ZM152.58 6.00283C151.591 6.00283 150.682 6.27014 149.877 6.7998C149.067 7.33112 148.42 8.07694 147.955 9.01582C147.484 9.9613 147.247 11.0751 147.247 12.3275C147.247 13.5799 147.479 14.6309 147.938 15.5517C148.393 16.4675 149.014 17.1836 149.781 17.6819C150.544 18.1786 151.421 18.4294 152.388 18.4294C153.355 18.4294 154.25 18.1538 154.946 17.6076C155.641 17.0648 156.159 16.0797 156.484 14.6821C156.507 14.5616 156.494 14.5088 156.489 14.4973C156.485 14.4989 156.469 14.494 156.438 14.494C156.304 14.494 156.276 14.5418 156.256 14.5996C155.929 15.6787 155.485 16.4708 154.941 16.9443C154.386 17.4261 153.667 17.6703 152.802 17.6703C151.705 17.6703 150.791 17.1984 150.086 16.2678C149.397 15.3586 149.049 13.9924 149.049 12.2054C149.049 11.6889 149.372 11.3919 149.933 11.3919H155.992C156.388 11.3919 156.541 11.2335 156.541 10.8276C156.541 9.11483 156.174 7.86904 155.447 7.12321C154.723 6.38069 153.758 6.00448 152.58 6.00448V6.00283ZM153.058 11.2698H149.837C149.55 11.2698 149.349 11.1988 149.225 11.052C149.154 10.9678 149.077 10.8193 149.115 10.5883C149.288 9.19733 149.674 8.09674 150.263 7.32782C150.874 6.52754 151.642 6.12328 152.548 6.12328C153.321 6.12328 153.91 6.47309 154.294 7.16116C154.654 7.80303 154.835 8.68911 154.835 9.793C154.835 10.4679 154.527 11.2714 153.057 11.2714L153.058 11.2698ZM149.601 10.7335C149.601 10.7335 149.648 10.7764 149.836 10.7764H153.057C154.193 10.7764 154.34 10.2517 154.34 9.793C154.34 8.77491 154.179 7.97134 153.862 7.40372C153.566 6.87571 153.136 6.61995 152.547 6.61995C151.793 6.61995 151.174 6.94996 150.654 7.62978C150.119 8.3294 149.766 9.34913 149.603 10.6609C149.595 10.717 149.601 10.7335 149.601 10.7335Z" fill="white"/>
<path d="M157.908 18.4521C157.59 18.4521 157.43 18.3613 157.43 18.1815C157.43 18.0346 157.568 17.9356 157.844 17.8861L158.227 17.8366C158.674 17.7706 158.966 17.6683 159.104 17.5297C159.243 17.3911 159.312 17.1486 159.312 16.8037V8.53364C159.312 8.23828 159.253 8.03697 159.138 7.93137C159.02 7.82411 158.812 7.75481 158.515 7.72181L157.845 7.64756C157.568 7.63106 157.431 7.54031 157.431 7.37695C157.431 7.2466 157.601 7.15584 157.941 7.10634C158.6 7.02384 159.104 6.89349 159.456 6.71198C159.807 6.53212 160.174 6.30937 160.557 6.04701C160.748 5.8985 160.908 5.8259 161.035 5.8259C161.226 5.8259 161.322 5.92491 161.322 6.12126V7.22845C161.322 7.3753 161.391 7.471 161.53 7.5106C161.669 7.55186 161.822 7.5073 161.992 7.3753C162.842 6.75158 163.591 6.32587 164.241 6.09486C164.89 5.8655 165.574 5.75 166.297 5.75C167.254 5.75 168.02 6.00906 168.594 6.52552C169.168 7.04199 169.455 7.80101 169.455 8.8026V16.802C169.455 17.1469 169.525 17.3895 169.663 17.5281C169.802 17.6683 170.094 17.7624 170.539 17.8119L171.241 17.8861C171.475 17.9191 171.592 18.0181 171.592 18.1815C171.592 18.363 171.465 18.4521 171.209 18.4521H165.852C165.553 18.4521 165.404 18.3613 165.404 18.1815C165.404 18.0181 165.522 17.9191 165.756 17.8861L166.203 17.8366C166.65 17.7871 166.942 17.6898 167.081 17.5413C167.22 17.3944 167.289 17.1469 167.289 16.802V9.0732C167.289 8.26963 167.097 7.70366 166.715 7.3753C166.332 7.04694 165.791 6.88359 165.088 6.88359C164.385 6.88359 163.796 7.03539 163.254 7.339C162.712 7.64261 162.281 8.04522 161.962 8.54519C161.644 9.04515 161.484 9.59957 161.484 10.2068V16.8037C161.484 17.1486 161.553 17.3944 161.692 17.5429C161.83 17.6898 162.122 17.7805 162.568 17.8135L163.429 17.8878C163.664 17.9208 163.781 18.0115 163.781 18.1584C163.781 18.3547 163.621 18.4537 163.302 18.4537H157.913L157.908 18.4521Z" fill="white"/>
<path d="M171.209 18.7033H165.851C165.224 18.7033 165.157 18.3403 165.157 18.1852C165.157 18.0466 165.211 17.7165 165.721 17.6456L166.175 17.5961C166.698 17.5383 166.855 17.4245 166.899 17.3766C166.99 17.2793 167.039 17.0813 167.039 16.8074V9.07852C167.039 8.35415 166.874 7.84594 166.551 7.56873C166.216 7.28162 165.723 7.13641 165.086 7.13641C164.449 7.13641 163.876 7.27832 163.373 7.56048C162.87 7.84264 162.464 8.2205 162.17 8.68416C161.878 9.14288 161.73 9.65604 161.73 10.2121V16.809C161.73 17.0829 161.777 17.2809 161.87 17.3783C161.913 17.4245 162.066 17.5334 162.584 17.5713L163.449 17.6456C163.972 17.7182 164.026 18.0317 164.026 18.1621C164.026 18.3254 163.955 18.7049 163.3 18.7049H157.911C157.256 18.7049 157.185 18.3419 157.185 18.1868C157.185 17.9905 157.292 17.738 157.804 17.6472L158.198 17.5961C158.725 17.5185 158.886 17.4047 158.931 17.3601C159.018 17.2727 159.066 17.0763 159.066 16.809V8.53896C159.066 8.2304 158.994 8.13964 158.971 8.11819C158.928 8.07859 158.807 8.00764 158.489 7.97299L157.819 7.89874C157.246 7.86574 157.184 7.52583 157.184 7.38227C157.184 6.97141 157.726 6.89221 157.906 6.8658C158.538 6.7866 159.02 6.66285 159.344 6.49619C159.682 6.32294 160.043 6.10348 160.418 5.84772C160.644 5.67282 160.85 5.58206 161.036 5.58206C161.367 5.58206 161.571 5.78997 161.571 6.12493V7.23212C161.571 7.25522 161.574 7.26677 161.576 7.26842C161.576 7.26842 161.584 7.27172 161.601 7.27667C161.677 7.29977 161.784 7.22717 161.842 7.18261C162.711 6.54405 163.49 6.10183 164.158 5.86587C164.832 5.62827 165.551 5.50781 166.299 5.50781C167.313 5.50781 168.142 5.78997 168.76 6.34604C169.386 6.90871 169.703 7.73703 169.703 8.80627V16.8057C169.703 17.073 169.75 17.2694 169.838 17.3568C169.883 17.4014 170.041 17.5103 170.567 17.568L171.267 17.6423C171.785 17.7149 171.839 18.0449 171.839 18.1835C171.839 18.3056 171.793 18.7016 171.209 18.7016V18.7033ZM165.652 18.1802C165.67 18.1901 165.726 18.2083 165.853 18.2083H171.211C171.323 18.2083 171.354 18.1868 171.354 18.1868C171.351 18.1901 171.346 18.1967 171.344 18.2017L171.582 18.106L171.344 18.1753C171.344 18.1753 171.326 18.1522 171.208 18.1357L170.514 18.0631C169.996 18.0053 169.671 17.8931 169.488 17.7083C169.3 17.5202 169.209 17.2248 169.209 16.8074V8.80792C169.209 7.88554 168.947 7.18096 168.43 6.71565C167.906 6.24374 167.19 6.00448 166.3 6.00448C165.609 6.00448 164.946 6.11503 164.327 6.33449C163.703 6.55559 162.969 6.97471 162.142 7.58028C161.911 7.75848 161.68 7.81788 161.462 7.75353C161.218 7.68258 161.078 7.49282 161.078 7.23377V6.12658C161.078 6.10513 161.076 6.09028 161.074 6.08203C161.068 6.08203 161.056 6.07873 161.04 6.07873C161.015 6.07873 160.918 6.09028 160.713 6.24869C160.31 6.52589 159.931 6.7536 159.575 6.93676C159.195 7.13311 158.672 7.27007 157.977 7.35587C157.891 7.36907 157.827 7.38227 157.779 7.39547C157.802 7.39877 157.83 7.40207 157.865 7.40372L158.548 7.47797C158.903 7.51757 159.152 7.60668 159.309 7.75023C159.482 7.90864 159.565 8.1644 159.565 8.53566V16.8057C159.565 17.2215 159.474 17.5169 159.286 17.7066C159.104 17.8898 158.781 18.0103 158.269 18.0845L157.882 18.134C157.792 18.1505 157.74 18.1703 157.71 18.1852C157.745 18.1951 157.807 18.2083 157.915 18.2083H163.304C163.457 18.2083 163.517 18.1802 163.533 18.172C163.515 18.1621 163.475 18.1472 163.398 18.1357L162.55 18.0631C162.03 18.0251 161.7 17.9145 161.513 17.7149C161.329 17.5185 161.239 17.2215 161.239 16.8074V10.2105C161.239 9.55869 161.413 8.95477 161.758 8.41685C162.096 7.88389 162.561 7.44992 163.137 7.12816C163.715 6.80475 164.371 6.6414 165.092 6.6414C165.851 6.6414 166.454 6.82785 166.879 7.19251C167.318 7.56873 167.539 8.20235 167.539 9.07852V16.8074C167.539 17.2199 167.45 17.5169 167.265 17.7149C167.081 17.9112 166.754 18.0301 166.234 18.0878L165.787 18.1373C165.683 18.1522 165.655 18.1802 165.655 18.1802H165.652Z" fill="white"/>
<path d="M176.651 18.6794C175.715 18.6794 174.87 18.4368 174.116 17.9533C173.361 17.4699 172.762 16.7769 172.314 15.8743C171.867 14.9717 171.645 13.8975 171.645 12.6501C171.645 11.2558 171.915 10.0413 172.458 9.00676C173.001 7.97383 173.738 7.17356 174.674 6.60759C175.61 6.04162 176.651 5.75781 177.799 5.75781C178.776 5.75781 179.542 5.90467 180.096 6.20168C180.309 6.31718 180.415 6.49704 180.415 6.74289L180.479 9.74599C180.479 9.99184 180.352 10.1156 180.096 10.1156C179.862 10.1156 179.713 10.0083 179.649 9.79549C179.35 8.89291 179.063 8.19494 178.788 7.70322C178.51 7.21151 178.223 6.86995 177.926 6.68184C177.628 6.49374 177.299 6.39968 176.938 6.39968C176.512 6.39968 176.072 6.58779 175.615 6.96565C175.158 7.34351 174.775 7.95403 174.466 8.79886C174.158 9.64368 174.004 10.7558 174.004 12.1336C174.004 13.8893 174.296 15.211 174.88 16.097C175.464 16.9831 176.225 17.427 177.161 17.427C177.905 17.427 178.527 17.1894 179.027 16.7125C179.527 16.2373 179.958 15.376 180.319 14.1285C180.383 13.9487 180.51 13.8579 180.702 13.8579C180.956 13.8579 181.052 14.0213 180.989 14.3496C180.755 15.4981 180.431 16.3891 180.015 17.0194C179.601 17.6514 179.111 18.087 178.548 18.3246C177.984 18.5622 177.352 18.681 176.651 18.681V18.6794Z" fill="white"/>
<path d="M176.651 18.9244C175.67 18.9244 174.773 18.667 173.982 18.1588C173.194 17.6538 172.557 16.9196 172.093 15.9807C171.631 15.0484 171.398 13.9264 171.398 12.6459C171.398 11.217 171.682 9.95305 172.24 8.88877C172.801 7.81954 173.577 6.97966 174.547 6.39224C175.517 5.80482 176.611 5.50781 177.801 5.50781C178.815 5.50781 179.627 5.66622 180.213 5.97973C180.508 6.13978 180.662 6.40214 180.662 6.73875L180.726 9.73689C180.726 10.123 180.485 10.359 180.096 10.359C179.751 10.359 179.507 10.1824 179.413 9.8623C179.122 8.98612 178.84 8.2964 178.573 7.82118C178.319 7.36742 178.056 7.05391 177.796 6.88726C177.535 6.72225 177.256 6.64305 176.939 6.64305C176.575 6.64305 176.184 6.81465 175.774 7.15291C175.354 7.50108 174.992 8.08189 174.702 8.88052C174.405 9.69399 174.255 10.788 174.255 12.1311C174.255 13.829 174.535 15.1177 175.091 15.9576C175.633 16.7777 176.311 17.1753 177.165 17.1753C177.85 17.1753 178.405 16.9641 178.86 16.5302C179.325 16.0879 179.736 15.2547 180.084 14.0567C180.188 13.7614 180.408 13.6079 180.705 13.6079C180.937 13.6079 181.069 13.7069 181.137 13.7894C181.254 13.9313 181.286 14.1293 181.234 14.395C180.995 15.5715 180.655 16.5005 180.226 17.1539C179.787 17.8238 179.256 18.2941 178.649 18.5498C178.056 18.799 177.387 18.926 176.656 18.926L176.651 18.9244ZM177.799 6.00283C176.702 6.00283 175.694 6.27674 174.801 6.8163C173.91 7.35587 173.194 8.12974 172.676 9.11978C172.154 10.1131 171.89 11.2995 171.89 12.6476C171.89 13.8505 172.106 14.8983 172.534 15.7629C172.958 16.6209 173.535 17.2875 174.246 17.7446C174.956 18.2 175.765 18.431 176.647 18.431C177.312 18.431 177.918 18.3172 178.449 18.0944C178.964 17.8766 179.421 17.469 179.806 16.8816C180.2 16.2793 180.515 15.4098 180.743 14.2976C180.768 14.1706 180.753 14.1178 180.749 14.1062C180.746 14.1062 180.731 14.1029 180.7 14.1029C180.612 14.1029 180.579 14.126 180.55 14.2085C180.177 15.4972 179.731 16.3784 179.195 16.8899C178.65 17.4096 177.966 17.672 177.159 17.672C176.139 17.672 175.303 17.1869 174.672 16.2315C174.063 15.3091 173.755 13.9297 173.755 12.1328C173.755 10.7319 173.915 9.58179 174.232 8.71221C174.553 7.82944 174.964 7.17767 175.454 6.7734C175.954 6.36089 176.453 6.15133 176.934 6.15133C177.34 6.15133 177.718 6.26024 178.055 6.47309C178.391 6.68595 178.7 7.04896 178.999 7.58193C179.281 8.08519 179.576 8.80297 179.878 9.71709C179.908 9.81775 179.949 9.86725 180.089 9.86725C180.22 9.86725 180.225 9.84415 180.225 9.74515L180.16 6.747C180.16 6.58695 180.104 6.48959 179.971 6.41864C179.457 6.14473 178.725 6.00613 177.792 6.00613L177.799 6.00283Z" fill="white"/>
<path d="M187.358 18.6777C186.338 18.6777 185.422 18.4154 184.615 17.8906C183.807 17.3659 183.165 16.6234 182.687 15.6631C182.208 14.7027 181.969 13.5923 181.969 12.3283C181.969 11.0644 182.213 9.89119 182.703 8.90776C183.191 7.92268 183.861 7.15211 184.711 6.59439C185.561 6.03667 186.508 5.75781 187.549 5.75781C188.803 5.75781 189.818 6.15548 190.595 6.9508C191.371 7.74612 191.759 9.03976 191.759 10.8268C191.759 11.368 191.493 11.6386 190.962 11.6386H184.903C184.477 11.6386 184.264 11.8267 184.264 12.2046C184.264 13.9437 184.594 15.2489 185.252 16.1185C185.911 16.9881 186.751 17.4237 187.772 17.4237C188.579 17.4237 189.239 17.2026 189.749 16.7587C190.259 16.3165 190.674 15.569 190.993 14.5196C191.057 14.3397 191.194 14.249 191.407 14.249C191.663 14.249 191.759 14.414 191.694 14.7407C191.354 16.201 190.811 17.2224 190.067 17.8048C189.323 18.3873 188.419 18.6777 187.356 18.6777H187.358ZM184.807 11.0231H188.028C189.048 11.0231 189.559 10.6123 189.559 9.79219C189.559 8.72625 189.389 7.88968 189.049 7.28246C188.709 6.67524 188.199 6.37163 187.518 6.37163C186.69 6.37163 185.992 6.74124 185.429 7.47882C184.865 8.21804 184.498 9.26747 184.328 10.6288C184.285 10.8911 184.445 11.0231 184.807 11.0231Z" fill="white"/>
<path d="M187.357 18.9244C186.293 18.9244 185.324 18.6455 184.479 18.0977C183.638 17.5515 182.96 16.7694 182.463 15.7728C181.97 14.7828 181.719 13.6244 181.719 12.3275C181.719 11.0305 181.975 9.8095 182.478 8.79637C182.984 7.77663 183.689 6.96646 184.572 6.38564C185.459 5.80317 186.459 5.50781 187.545 5.50781C188.862 5.50781 189.946 5.93518 190.768 6.7767C191.586 7.61658 192.002 8.97952 192.002 10.8259C192.002 11.4991 191.621 11.8853 190.957 11.8853H184.898C184.539 11.8853 184.507 12.0354 184.507 12.2037C184.507 13.8802 184.823 15.1458 185.446 15.9675C186.062 16.7793 186.821 17.1737 187.768 17.1737C188.51 17.1737 189.121 16.9707 189.583 16.5698C190.055 16.1605 190.449 15.4444 190.751 14.4445C190.854 14.1524 191.085 13.9973 191.403 13.9973C191.636 13.9973 191.768 14.0963 191.835 14.1805C191.952 14.3224 191.984 14.5204 191.933 14.7861C191.58 16.3058 191.002 17.3832 190.217 17.9987C189.431 18.6125 188.468 18.9244 187.354 18.9244H187.357ZM187.548 6.00283C186.56 6.00283 185.651 6.27014 184.846 6.7998C184.035 7.33112 183.389 8.07694 182.923 9.01582C182.453 9.9613 182.215 11.0751 182.215 12.3275C182.215 13.5799 182.448 14.6309 182.907 15.5517C183.362 16.4675 183.983 17.1836 184.75 17.6819C185.512 18.1786 186.39 18.4294 187.357 18.4294C188.324 18.4294 189.218 18.1538 189.915 17.6076C190.609 17.0648 191.127 16.0797 191.452 14.6821C191.476 14.5616 191.462 14.5088 191.457 14.4973C191.454 14.4989 191.438 14.494 191.406 14.494C191.273 14.494 191.246 14.5418 191.225 14.5996C190.898 15.6787 190.454 16.4708 189.91 16.9443C189.355 17.4261 188.636 17.6703 187.77 17.6703C186.672 17.6703 185.758 17.1984 185.054 16.2678C184.364 15.3586 184.014 13.9924 184.014 12.2054C184.014 11.6889 184.337 11.3919 184.9 11.3919H190.959C191.355 11.3919 191.509 11.2335 191.509 10.8276C191.509 9.11483 191.141 7.86904 190.415 7.12321C189.69 6.38069 188.725 6.00448 187.547 6.00448L187.548 6.00283ZM188.027 11.2698H184.806C184.519 11.2698 184.318 11.1988 184.194 11.052C184.123 10.9678 184.045 10.8193 184.083 10.5883C184.257 9.19733 184.643 8.09674 185.232 7.32782C185.842 6.52754 186.611 6.12328 187.517 6.12328C188.289 6.12328 188.878 6.47309 189.263 7.16116C189.623 7.80303 189.804 8.68911 189.804 9.793C189.804 10.4679 189.496 11.2714 188.025 11.2714L188.027 11.2698ZM184.57 10.7319C184.57 10.7319 184.616 10.7748 184.804 10.7748H188.025C189.162 10.7748 189.309 10.2501 189.309 9.79135C189.309 8.77326 189.147 7.96969 188.831 7.40207C188.535 6.87406 188.105 6.6183 187.515 6.6183C186.761 6.6183 186.141 6.94831 185.623 7.62813C185.088 8.32775 184.735 9.34748 184.572 10.6593C184.563 10.7154 184.57 10.7319 184.57 10.7319Z" fill="white"/>
</g>
<defs>
<clipPath id="clip0_6635_4415">
<rect width="192" height="24" fill="white"/>
</clipPath>
</defs>
</svg>
