<svg preserveAspectRatio="none" width="100%" height="100%" overflow="visible" style="display: block;" viewBox="0 0 23.712 24" fill="none" xmlns="http://www.w3.org/2000/svg">
<g id="Group">
<path id="Vector" d="M6.12011 0.0209433C0.711791 0.43287 -1.8992 7.11858 1.57389 11.3744C5.01554 15.5908 11.7327 14.1051 13.1606 8.77785C14.4358 4.02219 10.8549 -0.340071 6.12011 0.0209433ZM10.3745 7.75267C9.67177 11.3073 4.58899 11.6706 3.36544 8.3775C2.50334 6.05636 3.68423 3.33487 6.21664 3.06874C8.9803 2.77715 10.9335 4.91778 10.3722 7.75267H10.3745Z" fill="var(--fill-0, black)"/>
<path id="Vector_2" d="M2.3471 19.7724C2.53793 23.0099 6.00877 25.0117 8.79712 23.4704C11.3587 22.0518 11.8526 18.4348 9.79616 16.315C6.96067 13.3921 2.10014 15.6276 2.34485 19.7724H2.3471Z" fill="var(--fill-0, black)"/>
<path id="Vector_3" d="M22.9195 22.4593L21.999 22.332C21.3143 22.2278 21.1055 22.1006 21.0471 22.0496C21.0022 22.0126 20.899 21.8715 20.899 21.4017V2.59653C20.899 2.12675 21.0022 1.9879 21.0471 1.94855C21.1055 1.89764 21.3143 1.77268 21.9945 1.66854L22.933 1.53894C23.5773 1.42092 23.712 1.0923 23.712 0.837741C23.712 0.636406 23.6222 0.16431 22.796 0.16431H15.5198C14.6936 0.16431 14.6038 0.634092 14.6038 0.837741C14.6038 1.0923 14.7385 1.4186 15.3963 1.54126L16.3168 1.66854C16.9993 1.77268 17.2103 1.89996 17.2687 1.94855C17.3136 1.9879 17.4169 2.12675 17.4169 2.59653V21.4017C17.4169 21.8715 17.3136 22.0103 17.2687 22.0496C17.2103 22.1006 17.0016 22.2278 16.3213 22.3297L15.3829 22.4593C14.7385 22.5773 14.6016 22.9059 14.6016 23.1605C14.6016 23.3618 14.6914 23.8339 15.5176 23.8339H22.7938C23.62 23.8339 23.7098 23.3641 23.7098 23.1605C23.7098 22.9568 23.6087 22.5842 22.9173 22.4593H22.9195Z" fill="var(--fill-0, black)"/>
</g>
</svg>
