<svg width="1440" height="900" viewBox="0 0 1440 900" fill="none" xmlns="http://www.w3.org/2000/svg">
<g clip-path="url(#clip0_6718_7343)">
<path d="M499.948 445C499.628 445 499.468 444.867 499.468 444.6C499.468 444.36 499.681 444.187 500.108 444.08L500.748 443.96C501.281 443.853 501.748 443.6 502.148 443.2C502.521 442.773 502.881 442.187 503.228 441.44L515.188 416.44C515.321 416.173 515.454 416 515.588 415.92C515.721 415.84 515.841 415.8 515.948 415.8C516.081 415.8 516.188 415.84 516.268 415.92C516.374 416 516.428 416.173 516.428 416.44L516.868 441.8C516.894 442.547 516.988 443.067 517.148 443.36C517.308 443.627 517.641 443.827 518.148 443.96L518.668 444.08C518.988 444.16 519.148 444.32 519.148 444.56C519.148 444.853 518.921 445 518.468 445H511.868C511.521 445 511.348 444.867 511.348 444.6C511.348 444.307 511.614 444.133 512.148 444.08L512.948 444C513.401 443.947 513.708 443.8 513.868 443.56C514.054 443.32 514.148 442.907 514.148 442.32L514.068 436.12C514.068 435.427 513.708 435.08 512.988 435.08H508.708C508.014 435.08 507.494 435.427 507.148 436.12L504.548 441.48C503.828 443 504.068 443.84 505.268 444L505.828 444.08C506.228 444.133 506.428 444.293 506.428 444.56C506.428 444.853 506.201 445 505.748 445H499.948ZM508.868 433.88H513.348C513.801 433.88 514.028 433.653 514.028 433.2L513.948 422.28H513.748L508.508 433.2C508.401 433.387 508.388 433.547 508.468 433.68C508.548 433.813 508.681 433.88 508.868 433.88ZM519.204 445C518.83 445 518.644 444.867 518.644 444.6C518.644 444.307 518.91 444.12 519.444 444.04L520.244 443.92C520.83 443.84 521.23 443.707 521.444 443.52C521.684 443.307 521.857 442.92 521.964 442.36L527.404 418.84C527.537 418.28 527.537 417.907 527.404 417.72C527.27 417.533 526.937 417.387 526.404 417.28L525.604 417.12C525.257 417.04 525.084 416.893 525.084 416.68C525.084 416.36 525.324 416.2 525.804 416.2H532.924C533.297 416.2 533.484 416.333 533.484 416.6C533.484 416.893 533.217 417.08 532.684 417.16L531.884 417.28C531.297 417.36 530.897 417.507 530.684 417.72C530.47 417.907 530.297 418.28 530.164 418.84L524.724 442.36C524.617 442.92 524.617 443.293 524.724 443.48C524.857 443.667 525.19 443.813 525.724 443.92L526.524 444.08C526.87 444.16 527.044 444.307 527.044 444.52C527.044 444.84 526.804 445 526.324 445H519.204ZM547.121 445.36C544.294 445.36 542.241 444.467 540.961 442.68C539.707 440.893 539.081 438.307 539.081 434.92C539.081 433.293 539.281 431.6 539.681 429.84C540.081 428.08 540.654 426.373 541.401 424.72C542.174 423.04 543.094 421.533 544.161 420.2C545.227 418.867 546.427 417.8 547.761 417C549.121 416.2 550.587 415.8 552.161 415.8C554.027 415.8 555.721 416.427 557.241 417.68C557.507 417.893 557.601 418.187 557.521 418.56L556.321 424.6C556.241 425.027 556.041 425.24 555.721 425.24C555.401 425.24 555.241 425.027 555.241 424.6L555.201 423.04C555.147 420.827 554.827 419.253 554.241 418.32C553.654 417.387 552.814 416.92 551.721 416.92C550.681 416.92 549.681 417.347 548.721 418.2C547.761 419.027 546.867 420.147 546.041 421.56C545.214 422.947 544.481 424.493 543.841 426.2C543.227 427.88 542.747 429.573 542.401 431.28C542.054 432.987 541.881 434.573 541.881 436.04C541.881 438.44 542.241 440.4 542.961 441.92C543.707 443.44 544.934 444.2 546.641 444.2C547.654 444.2 548.547 443.84 549.321 443.12C550.121 442.373 550.934 441.107 551.761 439.32L552.641 437.44C552.774 437.12 552.974 436.96 553.241 436.96C553.667 436.96 553.814 437.213 553.681 437.72L552.081 443.96C551.974 444.36 551.761 444.6 551.441 444.68C550.987 444.84 550.334 444.987 549.481 445.12C548.627 445.28 547.841 445.36 547.121 445.36ZM559.425 445.36C558.465 445.36 557.718 444.947 557.185 444.12C556.652 443.293 556.385 442.08 556.385 440.48C556.385 438.96 556.598 437.44 557.025 435.92C557.452 434.373 558.038 432.907 558.785 431.52C559.532 430.133 560.372 428.907 561.305 427.84C562.265 426.773 563.265 425.933 564.305 425.32C565.372 424.68 566.425 424.36 567.465 424.36C567.972 424.36 568.452 424.467 568.905 424.68C569.358 424.867 569.732 425.173 570.025 425.6C570.185 425.84 570.345 425.96 570.505 425.96C570.665 425.96 570.825 425.84 570.985 425.6C571.278 425.173 571.518 424.907 571.705 424.8C571.892 424.667 572.065 424.6 572.225 424.6C572.572 424.6 572.705 424.787 572.625 425.16L569.065 440.48C568.665 442.213 568.932 443.08 569.865 443.08C570.478 443.08 571.025 442.667 571.505 441.84C572.012 441.013 572.518 439.733 573.025 438C573.105 437.707 573.278 437.56 573.545 437.56C573.732 437.56 573.852 437.64 573.905 437.8C573.958 437.96 573.958 438.147 573.905 438.36C573.398 440.867 572.718 442.667 571.865 443.76C571.012 444.827 569.985 445.36 568.785 445.36C567.745 445.36 566.998 444.92 566.545 444.04C566.118 443.16 566.078 441.96 566.425 440.44L566.945 438.24C566.998 438.053 566.958 437.947 566.825 437.92C566.718 437.893 566.625 437.96 566.545 438.12C565.078 440.813 563.772 442.693 562.625 443.76C561.505 444.827 560.438 445.36 559.425 445.36ZM560.425 443.32C561.065 443.32 561.772 442.933 562.545 442.16C563.318 441.387 564.078 440.387 564.825 439.16C565.598 437.933 566.305 436.613 566.945 435.2C567.585 433.787 568.092 432.427 568.465 431.12C568.865 429.813 569.065 428.707 569.065 427.8C569.065 426.173 568.492 425.36 567.345 425.36C566.652 425.36 565.918 425.68 565.145 426.32C564.372 426.933 563.625 427.773 562.905 428.84C562.212 429.907 561.572 431.12 560.985 432.48C560.425 433.813 559.972 435.213 559.625 436.68C559.278 438.12 559.105 439.533 559.105 440.92C559.105 441.853 559.212 442.493 559.425 442.84C559.665 443.16 559.998 443.32 560.425 443.32ZM577.37 445C576.997 445 576.85 444.827 576.93 444.48L580.73 428.52C580.864 427.933 580.877 427.48 580.77 427.16C580.69 426.813 580.45 426.64 580.05 426.64C579.57 426.64 579.037 427 578.45 427.72C577.89 428.413 577.25 429.747 576.53 431.72C576.424 432.067 576.237 432.24 575.97 432.24C575.57 432.24 575.464 432 575.65 431.52C576.237 429.68 576.85 428.24 577.49 427.2C578.157 426.16 578.824 425.427 579.49 425C580.157 424.573 580.77 424.36 581.33 424.36C582.21 424.36 582.837 424.693 583.21 425.36C583.584 426 583.597 427.067 583.25 428.56L582.81 430.44C582.784 430.627 582.824 430.733 582.93 430.76C583.037 430.787 583.13 430.72 583.21 430.56C584.224 428.24 585.144 426.627 585.97 425.72C586.797 424.813 587.744 424.36 588.81 424.36C589.53 424.36 590.064 424.56 590.41 424.96C590.784 425.333 590.97 425.853 590.97 426.52C590.97 427.187 590.81 427.72 590.49 428.12C590.17 428.52 589.757 428.72 589.25 428.72C588.824 428.72 588.517 428.613 588.33 428.4C588.144 428.187 587.997 427.947 587.89 427.68C587.81 427.387 587.717 427.133 587.61 426.92C587.504 426.707 587.33 426.6 587.09 426.6C586.69 426.6 586.17 427.107 585.53 428.12C584.89 429.133 584.197 430.507 583.45 432.24C582.73 433.947 582.024 435.867 581.33 438C580.664 440.133 580.077 442.32 579.57 444.56C579.49 444.853 579.304 445 579.01 445H577.37ZM593.994 445.36C592.58 445.36 591.447 444.813 590.594 443.72C589.74 442.6 589.314 441.027 589.314 439C589.314 437.24 589.62 435.493 590.234 433.76C590.874 432.027 591.7 430.453 592.714 429.04C593.727 427.627 594.834 426.493 596.034 425.64C597.26 424.787 598.447 424.36 599.594 424.36C600.847 424.36 601.74 424.667 602.274 425.28C602.834 425.867 603.114 426.667 603.114 427.68C603.114 428.88 602.687 430.08 601.834 431.28C601.007 432.453 599.834 433.507 598.314 434.44C596.82 435.373 595.06 436.067 593.034 436.52C592.447 436.653 592.14 436.987 592.114 437.52C592.087 437.707 592.074 437.907 592.074 438.12C592.074 438.307 592.074 438.493 592.074 438.68C592.074 440.2 592.327 441.347 592.834 442.12C593.367 442.893 594.087 443.28 594.994 443.28C596.007 443.28 596.98 442.813 597.914 441.88C598.874 440.947 599.674 439.627 600.314 437.92C600.394 437.68 600.554 437.56 600.794 437.56C600.954 437.56 601.047 437.627 601.074 437.76C601.127 437.893 601.127 438.053 601.074 438.24C600.22 440.587 599.18 442.36 597.954 443.56C596.754 444.76 595.434 445.36 593.994 445.36ZM592.514 435C592.46 435.187 592.487 435.347 592.594 435.48C592.727 435.587 592.887 435.613 593.074 435.56C594.727 435.107 596.114 434.427 597.234 433.52C598.354 432.587 599.194 431.547 599.754 430.4C600.34 429.253 600.634 428.133 600.634 427.04C600.634 425.92 600.194 425.36 599.314 425.36C598.54 425.36 597.7 425.813 596.794 426.72C595.887 427.627 595.047 428.813 594.274 430.28C593.5 431.747 592.914 433.32 592.514 435ZM611.619 445V425.364H614.636V445H611.619ZM613.153 422.091C612.565 422.091 612.057 421.891 611.631 421.49C611.214 421.089 611.005 420.608 611.005 420.045C611.005 419.483 611.214 419.001 611.631 418.601C612.057 418.2 612.565 418 613.153 418C613.741 418 614.244 418.2 614.661 418.601C615.087 419.001 615.3 419.483 615.3 420.045C615.3 420.608 615.087 421.089 614.661 421.49C614.244 421.891 613.741 422.091 613.153 422.091ZM632.811 429.761L630.1 430.528C629.93 430.077 629.679 429.638 629.346 429.212C629.022 428.777 628.579 428.419 628.017 428.138C627.454 427.857 626.734 427.716 625.856 427.716C624.654 427.716 623.653 427.993 622.852 428.547C622.059 429.092 621.663 429.787 621.663 430.631C621.663 431.381 621.936 431.973 622.481 432.408C623.027 432.842 623.879 433.205 625.038 433.494L627.953 434.21C629.708 434.636 631.017 435.288 631.877 436.166C632.738 437.036 633.169 438.156 633.169 439.528C633.169 440.653 632.845 441.659 632.197 442.545C631.558 443.432 630.663 444.131 629.512 444.642C628.362 445.153 627.024 445.409 625.498 445.409C623.495 445.409 621.838 444.974 620.525 444.105C619.213 443.236 618.382 441.966 618.032 440.295L620.896 439.58C621.169 440.636 621.684 441.429 622.443 441.957C623.21 442.486 624.211 442.75 625.447 442.75C626.853 442.75 627.97 442.452 628.796 441.855C629.632 441.25 630.049 440.526 630.049 439.682C630.049 439 629.811 438.429 629.333 437.969C628.856 437.5 628.123 437.151 627.134 436.92L623.862 436.153C622.063 435.727 620.742 435.067 619.899 434.172C619.063 433.268 618.646 432.139 618.646 430.784C618.646 429.676 618.957 428.696 619.579 427.844C620.21 426.991 621.066 426.322 622.149 425.837C623.24 425.351 624.475 425.108 625.856 425.108C627.799 425.108 629.325 425.534 630.433 426.386C631.549 427.239 632.342 428.364 632.811 429.761ZM653.855 425.364V427.92H643.679V425.364H653.855ZM646.645 420.659H649.662V439.375C649.662 440.227 649.785 440.866 650.032 441.293C650.288 441.71 650.612 441.991 651.004 442.136C651.405 442.273 651.826 442.341 652.27 442.341C652.602 442.341 652.875 442.324 653.088 442.29C653.301 442.247 653.471 442.213 653.599 442.188L654.213 444.898C654.008 444.974 653.723 445.051 653.356 445.128C652.99 445.213 652.525 445.256 651.963 445.256C651.111 445.256 650.275 445.072 649.457 444.706C648.648 444.339 647.974 443.781 647.437 443.031C646.909 442.281 646.645 441.335 646.645 440.193V420.659ZM660.572 433.188V445H657.555V418.818H660.572V428.432H660.828C661.288 427.418 661.978 426.612 662.899 426.016C663.828 425.411 665.064 425.108 666.606 425.108C667.944 425.108 669.116 425.376 670.122 425.913C671.128 426.442 671.907 427.256 672.461 428.355C673.024 429.446 673.305 430.835 673.305 432.523V445H670.288V432.727C670.288 431.168 669.883 429.962 669.074 429.109C668.272 428.249 667.16 427.818 665.737 427.818C664.748 427.818 663.862 428.027 663.078 428.445C662.302 428.862 661.689 429.472 661.237 430.273C660.794 431.074 660.572 432.045 660.572 433.188ZM685.798 445.409C683.906 445.409 682.273 444.991 680.901 444.156C679.538 443.312 678.485 442.136 677.744 440.628C677.011 439.111 676.644 437.347 676.644 435.335C676.644 433.324 677.011 431.551 677.744 430.017C678.485 428.474 679.516 427.273 680.837 426.412C682.167 425.543 683.718 425.108 685.491 425.108C686.514 425.108 687.523 425.278 688.521 425.619C689.518 425.96 690.425 426.514 691.244 427.281C692.062 428.04 692.714 429.045 693.2 430.298C693.685 431.551 693.928 433.094 693.928 434.926V436.205H678.792V433.597H690.86C690.86 432.489 690.639 431.5 690.195 430.631C689.761 429.761 689.139 429.075 688.329 428.572C687.528 428.07 686.582 427.818 685.491 427.818C684.289 427.818 683.249 428.116 682.371 428.713C681.502 429.301 680.833 430.068 680.364 431.014C679.896 431.96 679.661 432.974 679.661 434.057V435.795C679.661 437.278 679.917 438.536 680.428 439.567C680.948 440.589 681.668 441.369 682.589 441.906C683.509 442.435 684.579 442.699 685.798 442.699C686.59 442.699 687.306 442.588 687.945 442.366C688.593 442.136 689.151 441.795 689.62 441.344C690.089 440.884 690.451 440.312 690.707 439.631L693.621 440.449C693.315 441.438 692.799 442.307 692.075 443.057C691.35 443.798 690.455 444.378 689.39 444.795C688.325 445.205 687.127 445.409 685.798 445.409ZM714.867 425.364V427.92H704.282V425.364H714.867ZM707.452 445V422.653C707.452 421.528 707.717 420.591 708.245 419.841C708.773 419.091 709.459 418.528 710.303 418.153C711.147 417.778 712.038 417.591 712.975 417.591C713.717 417.591 714.322 417.651 714.79 417.77C715.259 417.889 715.609 418 715.839 418.102L714.969 420.71C714.816 420.659 714.603 420.595 714.33 420.518C714.066 420.442 713.717 420.403 713.282 420.403C712.285 420.403 711.565 420.655 711.121 421.158C710.687 421.661 710.469 422.398 710.469 423.369V445H707.452ZM725.004 445.409C723.231 445.409 721.676 444.987 720.338 444.143C719.008 443.3 717.969 442.119 717.219 440.602C716.477 439.085 716.106 437.312 716.106 435.284C716.106 433.239 716.477 431.453 717.219 429.928C717.969 428.402 719.008 427.217 720.338 426.374C721.676 425.53 723.231 425.108 725.004 425.108C726.777 425.108 728.328 425.53 729.658 426.374C730.996 427.217 732.035 428.402 732.777 429.928C733.527 431.453 733.902 433.239 733.902 435.284C733.902 437.312 733.527 439.085 732.777 440.602C732.035 442.119 730.996 443.3 729.658 444.143C728.328 444.987 726.777 445.409 725.004 445.409ZM725.004 442.699C726.351 442.699 727.459 442.354 728.328 441.663C729.197 440.973 729.841 440.065 730.258 438.94C730.676 437.815 730.885 436.597 730.885 435.284C730.885 433.972 730.676 432.749 730.258 431.615C729.841 430.482 729.197 429.565 728.328 428.866C727.459 428.168 726.351 427.818 725.004 427.818C723.658 427.818 722.55 428.168 721.68 428.866C720.811 429.565 720.167 430.482 719.75 431.615C719.332 432.749 719.123 433.972 719.123 435.284C719.123 436.597 719.332 437.815 719.75 438.94C720.167 440.065 720.811 440.973 721.68 441.663C722.55 442.354 723.658 442.699 725.004 442.699ZM737.247 445V425.364H740.162V428.33H740.367C740.725 427.358 741.372 426.57 742.31 425.964C743.247 425.359 744.304 425.057 745.48 425.057C745.702 425.057 745.979 425.061 746.311 425.07C746.644 425.078 746.895 425.091 747.065 425.108V428.176C746.963 428.151 746.729 428.112 746.362 428.061C746.004 428.001 745.625 427.972 745.225 427.972C744.27 427.972 743.418 428.172 742.668 428.572C741.926 428.964 741.338 429.51 740.904 430.209C740.477 430.899 740.264 431.687 740.264 432.574V445H737.247ZM756.761 445.409C754.921 445.409 753.335 444.974 752.006 444.105C750.676 443.236 749.654 442.038 748.938 440.513C748.222 438.987 747.864 437.244 747.864 435.284C747.864 433.29 748.23 431.53 748.963 430.004C749.705 428.47 750.736 427.273 752.057 426.412C753.386 425.543 754.938 425.108 756.71 425.108C758.091 425.108 759.335 425.364 760.443 425.875C761.551 426.386 762.459 427.102 763.166 428.023C763.874 428.943 764.313 430.017 764.483 431.244H761.466C761.236 430.349 760.725 429.557 759.932 428.866C759.148 428.168 758.091 427.818 756.761 427.818C755.585 427.818 754.554 428.125 753.668 428.739C752.79 429.344 752.104 430.2 751.609 431.308C751.124 432.408 750.881 433.699 750.881 435.182C750.881 436.699 751.119 438.02 751.597 439.145C752.082 440.27 752.764 441.143 753.642 441.766C754.529 442.388 755.568 442.699 756.761 442.699C757.546 442.699 758.257 442.562 758.896 442.29C759.536 442.017 760.077 441.625 760.52 441.114C760.963 440.602 761.279 439.989 761.466 439.273H764.483C764.313 440.432 763.891 441.476 763.217 442.405C762.553 443.325 761.671 444.058 760.571 444.604C759.48 445.141 758.21 445.409 756.761 445.409ZM775.867 445.409C773.974 445.409 772.342 444.991 770.97 444.156C769.607 443.312 768.554 442.136 767.813 440.628C767.08 439.111 766.713 437.347 766.713 435.335C766.713 433.324 767.08 431.551 767.813 430.017C768.554 428.474 769.585 427.273 770.906 426.412C772.236 425.543 773.787 425.108 775.56 425.108C776.582 425.108 777.592 425.278 778.59 425.619C779.587 425.96 780.494 426.514 781.313 427.281C782.131 428.04 782.783 429.045 783.269 430.298C783.754 431.551 783.997 433.094 783.997 434.926V436.205H768.861V433.597H780.929C780.929 432.489 780.707 431.5 780.264 430.631C779.83 429.761 779.207 429.075 778.398 428.572C777.597 428.07 776.651 427.818 775.56 427.818C774.358 427.818 773.318 428.116 772.44 428.713C771.571 429.301 770.902 430.068 770.433 431.014C769.965 431.96 769.73 432.974 769.73 434.057V435.795C769.73 437.278 769.986 438.536 770.497 439.567C771.017 440.589 771.737 441.369 772.658 441.906C773.578 442.435 774.648 442.699 775.867 442.699C776.659 442.699 777.375 442.588 778.014 442.366C778.662 442.136 779.22 441.795 779.689 441.344C780.158 440.884 780.52 440.312 780.776 439.631L783.69 440.449C783.384 441.438 782.868 442.307 782.143 443.057C781.419 443.798 780.524 444.378 779.459 444.795C778.393 445.205 777.196 445.409 775.867 445.409ZM796.192 445V425.364H799.106V428.432H799.362C799.771 427.384 800.432 426.57 801.344 425.99C802.256 425.402 803.351 425.108 804.629 425.108C805.925 425.108 807.003 425.402 807.864 425.99C808.733 426.57 809.41 427.384 809.896 428.432H810.101C810.604 427.418 811.358 426.612 812.364 426.016C813.369 425.411 814.575 425.108 815.981 425.108C817.737 425.108 819.173 425.658 820.29 426.757C821.406 427.848 821.964 429.548 821.964 431.858V445H818.947V431.858C818.947 430.409 818.551 429.374 817.758 428.751C816.966 428.129 816.033 427.818 814.959 427.818C813.578 427.818 812.508 428.236 811.75 429.071C810.991 429.898 810.612 430.946 810.612 432.216V445H807.544V431.551C807.544 430.435 807.182 429.536 806.457 428.854C805.733 428.163 804.8 427.818 803.658 427.818C802.873 427.818 802.141 428.027 801.459 428.445C800.785 428.862 800.24 429.442 799.822 430.183C799.413 430.916 799.209 431.764 799.209 432.727V445H796.192ZM838.596 436.972V425.364H841.613V445H838.596V441.676H838.391C837.931 442.673 837.215 443.521 836.243 444.22C835.272 444.911 834.045 445.256 832.562 445.256C831.334 445.256 830.243 444.987 829.289 444.45C828.334 443.905 827.584 443.087 827.039 441.996C826.493 440.896 826.221 439.511 826.221 437.841V425.364H829.238V437.636C829.238 439.068 829.638 440.21 830.439 441.062C831.249 441.915 832.28 442.341 833.533 442.341C834.283 442.341 835.046 442.149 835.822 441.766C836.606 441.382 837.262 440.794 837.79 440.001C838.327 439.209 838.596 438.199 838.596 436.972ZM848.896 418.818V445H845.879V418.818H848.896ZM861.701 425.364V427.92H851.525V425.364H861.701ZM854.491 420.659H857.508V439.375C857.508 440.227 857.632 440.866 857.879 441.293C858.135 441.71 858.459 441.991 858.851 442.136C859.251 442.273 859.673 442.341 860.116 442.341C860.449 442.341 860.721 442.324 860.934 442.29C861.147 442.247 861.318 442.213 861.446 442.188L862.059 444.898C861.855 444.974 861.569 445.051 861.203 445.128C860.836 445.213 860.372 445.256 859.809 445.256C858.957 445.256 858.122 445.072 857.304 444.706C856.494 444.339 855.821 443.781 855.284 443.031C854.755 442.281 854.491 441.335 854.491 440.193V420.659ZM864.98 445V425.364H867.997V445H864.98ZM866.514 422.091C865.926 422.091 865.419 421.891 864.993 421.49C864.575 421.089 864.366 420.608 864.366 420.045C864.366 419.483 864.575 419.001 864.993 418.601C865.419 418.2 865.926 418 866.514 418C867.102 418 867.605 418.2 868.022 418.601C868.449 419.001 868.662 419.483 868.662 420.045C868.662 420.608 868.449 421.089 868.022 421.49C867.605 421.891 867.102 422.091 866.514 422.091ZM872.263 452.364V425.364H875.178V428.483H875.535C875.757 428.142 876.064 427.707 876.456 427.179C876.857 426.642 877.428 426.165 878.169 425.747C878.919 425.321 879.933 425.108 881.212 425.108C882.865 425.108 884.322 425.521 885.584 426.348C886.845 427.175 887.83 428.347 888.537 429.864C889.244 431.381 889.598 433.17 889.598 435.233C889.598 437.312 889.244 439.115 888.537 440.641C887.83 442.158 886.849 443.334 885.597 444.169C884.344 444.996 882.899 445.409 881.263 445.409C880.001 445.409 878.991 445.2 878.233 444.783C877.474 444.357 876.891 443.875 876.482 443.338C876.072 442.793 875.757 442.341 875.535 441.983H875.28V452.364H872.263ZM875.229 435.182C875.229 436.665 875.446 437.973 875.881 439.107C876.315 440.232 876.95 441.114 877.785 441.753C878.621 442.384 879.643 442.699 880.854 442.699C882.115 442.699 883.168 442.366 884.011 441.702C884.864 441.028 885.503 440.125 885.929 438.991C886.364 437.849 886.581 436.58 886.581 435.182C886.581 433.801 886.368 432.557 885.942 431.449C885.524 430.332 884.889 429.45 884.037 428.803C883.193 428.146 882.132 427.818 880.854 427.818C879.626 427.818 878.595 428.129 877.76 428.751C876.925 429.365 876.294 430.226 875.868 431.334C875.442 432.433 875.229 433.716 875.229 435.182ZM895.957 418.818V445H892.94V418.818H895.957ZM900.223 445V425.364H903.24V445H900.223ZM901.757 422.091C901.169 422.091 900.662 421.891 900.236 421.49C899.818 421.089 899.61 420.608 899.61 420.045C899.61 419.483 899.818 419.001 900.236 418.601C900.662 418.2 901.169 418 901.757 418C902.345 418 902.848 418.2 903.266 418.601C903.692 419.001 903.905 419.483 903.905 420.045C903.905 420.608 903.692 421.089 903.266 421.49C902.848 421.891 902.345 422.091 901.757 422.091ZM915.739 445.409C913.847 445.409 912.215 444.991 910.843 444.156C909.479 443.312 908.427 442.136 907.685 440.628C906.952 439.111 906.586 437.347 906.586 435.335C906.586 433.324 906.952 431.551 907.685 430.017C908.427 428.474 909.458 427.273 910.779 426.412C912.109 425.543 913.66 425.108 915.432 425.108C916.455 425.108 917.465 425.278 918.462 425.619C919.459 425.96 920.367 426.514 921.185 427.281C922.003 428.04 922.655 429.045 923.141 430.298C923.627 431.551 923.87 433.094 923.87 434.926V436.205H908.734V433.597H920.802C920.802 432.489 920.58 431.5 920.137 430.631C919.702 429.761 919.08 429.075 918.27 428.572C917.469 428.07 916.523 427.818 915.432 427.818C914.231 427.818 913.191 428.116 912.313 428.713C911.444 429.301 910.775 430.068 910.306 431.014C909.837 431.96 909.603 432.974 909.603 434.057V435.795C909.603 437.278 909.859 438.536 910.37 439.567C910.89 440.589 911.61 441.369 912.53 441.906C913.451 442.435 914.52 442.699 915.739 442.699C916.532 442.699 917.248 442.588 917.887 442.366C918.535 442.136 919.093 441.795 919.562 441.344C920.03 440.884 920.393 440.312 920.648 439.631L923.563 440.449C923.256 441.438 922.741 442.307 922.016 443.057C921.292 443.798 920.397 444.378 919.332 444.795C918.266 445.205 917.069 445.409 915.739 445.409ZM927.199 445V425.364H930.114V428.33H930.319C930.677 427.358 931.324 426.57 932.262 425.964C933.199 425.359 934.256 425.057 935.432 425.057C935.654 425.057 935.931 425.061 936.263 425.07C936.596 425.078 936.847 425.091 937.018 425.108V428.176C936.915 428.151 936.681 428.112 936.314 428.061C935.956 428.001 935.577 427.972 935.177 427.972C934.222 427.972 933.37 428.172 932.62 428.572C931.878 428.964 931.29 429.51 930.856 430.209C930.429 430.899 930.216 431.687 930.216 432.574V445H927.199ZM546.523 470.188V482H543.506V455.818H546.523V465.432H546.779C547.239 464.418 547.929 463.612 548.85 463.016C549.779 462.411 551.014 462.108 552.557 462.108C553.895 462.108 555.067 462.376 556.073 462.913C557.078 463.442 557.858 464.256 558.412 465.355C558.975 466.446 559.256 467.835 559.256 469.523V482H556.239V469.727C556.239 468.168 555.834 466.962 555.024 466.109C554.223 465.249 553.111 464.818 551.688 464.818C550.699 464.818 549.813 465.027 549.029 465.445C548.253 465.862 547.639 466.472 547.188 467.273C546.745 468.074 546.523 469.045 546.523 470.188ZM571.748 482.409C569.856 482.409 568.224 481.991 566.852 481.156C565.488 480.312 564.436 479.136 563.694 477.628C562.961 476.111 562.595 474.347 562.595 472.335C562.595 470.324 562.961 468.551 563.694 467.017C564.436 465.474 565.467 464.273 566.788 463.412C568.118 462.543 569.669 462.108 571.442 462.108C572.464 462.108 573.474 462.278 574.471 462.619C575.469 462.96 576.376 463.514 577.194 464.281C578.013 465.04 578.665 466.045 579.15 467.298C579.636 468.551 579.879 470.094 579.879 471.926V473.205H564.743V470.597H576.811C576.811 469.489 576.589 468.5 576.146 467.631C575.711 466.761 575.089 466.075 574.28 465.572C573.478 465.07 572.532 464.818 571.442 464.818C570.24 464.818 569.2 465.116 568.322 465.713C567.453 466.301 566.784 467.068 566.315 468.014C565.846 468.96 565.612 469.974 565.612 471.057V472.795C565.612 474.278 565.868 475.536 566.379 476.567C566.899 477.589 567.619 478.369 568.54 478.906C569.46 479.435 570.53 479.699 571.748 479.699C572.541 479.699 573.257 479.588 573.896 479.366C574.544 479.136 575.102 478.795 575.571 478.344C576.04 477.884 576.402 477.312 576.657 476.631L579.572 477.449C579.265 478.438 578.75 479.307 578.025 480.057C577.301 480.798 576.406 481.378 575.341 481.795C574.275 482.205 573.078 482.409 571.748 482.409ZM588.987 482.46C587.743 482.46 586.613 482.226 585.599 481.757C584.585 481.28 583.78 480.594 583.183 479.699C582.586 478.795 582.288 477.705 582.288 476.426C582.288 475.301 582.51 474.389 582.953 473.69C583.396 472.983 583.988 472.429 584.73 472.028C585.471 471.628 586.29 471.33 587.184 471.134C588.088 470.929 588.995 470.767 589.907 470.648C591.101 470.494 592.068 470.379 592.809 470.303C593.559 470.217 594.105 470.077 594.446 469.881C594.795 469.685 594.97 469.344 594.97 468.858V468.756C594.97 467.494 594.625 466.514 593.934 465.815C593.253 465.116 592.217 464.767 590.828 464.767C589.388 464.767 588.258 465.082 587.44 465.713C586.622 466.344 586.047 467.017 585.714 467.733L582.851 466.71C583.362 465.517 584.044 464.588 584.896 463.923C585.757 463.25 586.694 462.781 587.709 462.517C588.731 462.244 589.737 462.108 590.726 462.108C591.356 462.108 592.081 462.185 592.899 462.338C593.726 462.483 594.522 462.786 595.29 463.246C596.065 463.706 596.709 464.401 597.22 465.33C597.731 466.259 597.987 467.503 597.987 469.062V482H594.97V479.341H594.817C594.612 479.767 594.271 480.223 593.794 480.709C593.317 481.195 592.682 481.608 591.889 481.949C591.096 482.29 590.129 482.46 588.987 482.46ZM589.447 479.75C590.64 479.75 591.646 479.516 592.464 479.047C593.291 478.578 593.913 477.973 594.331 477.232C594.757 476.49 594.97 475.71 594.97 474.892V472.131C594.842 472.284 594.561 472.425 594.126 472.553C593.7 472.672 593.206 472.778 592.643 472.872C592.089 472.957 591.548 473.034 591.02 473.102C590.5 473.162 590.078 473.213 589.754 473.256C588.97 473.358 588.237 473.524 587.555 473.754C586.882 473.976 586.336 474.312 585.919 474.764C585.51 475.207 585.305 475.812 585.305 476.58C585.305 477.628 585.693 478.42 586.468 478.957C587.253 479.486 588.245 479.75 589.447 479.75ZM605.251 455.818V482H602.234V455.818H605.251ZM618.056 462.364V464.92H607.88V462.364H618.056ZM610.846 457.659H613.863V476.375C613.863 477.227 613.987 477.866 614.234 478.293C614.49 478.71 614.814 478.991 615.206 479.136C615.606 479.273 616.028 479.341 616.471 479.341C616.804 479.341 617.076 479.324 617.289 479.29C617.502 479.247 617.673 479.213 617.801 479.188L618.414 481.898C618.21 481.974 617.924 482.051 617.558 482.128C617.191 482.213 616.727 482.256 616.164 482.256C615.312 482.256 614.477 482.072 613.659 481.706C612.849 481.339 612.176 480.781 611.639 480.031C611.11 479.281 610.846 478.335 610.846 477.193V457.659ZM624.774 470.188V482H621.757V455.818H624.774V465.432H625.029C625.49 464.418 626.18 463.612 627.1 463.016C628.029 462.411 629.265 462.108 630.808 462.108C632.146 462.108 633.318 462.376 634.323 462.913C635.329 463.442 636.109 464.256 636.663 465.355C637.225 466.446 637.507 467.835 637.507 469.523V482H634.49V469.727C634.49 468.168 634.085 466.962 633.275 466.109C632.474 465.249 631.362 464.818 629.938 464.818C628.95 464.818 628.063 465.027 627.279 465.445C626.504 465.862 625.89 466.472 625.438 467.273C624.995 468.074 624.774 469.045 624.774 470.188ZM649.743 482.409C647.903 482.409 646.317 481.974 644.988 481.105C643.658 480.236 642.636 479.038 641.92 477.513C641.204 475.987 640.846 474.244 640.846 472.284C640.846 470.29 641.212 468.53 641.945 467.004C642.687 465.47 643.718 464.273 645.039 463.412C646.368 462.543 647.92 462.108 649.692 462.108C651.073 462.108 652.317 462.364 653.425 462.875C654.533 463.386 655.441 464.102 656.148 465.023C656.856 465.943 657.295 467.017 657.465 468.244H654.448C654.218 467.349 653.707 466.557 652.914 465.866C652.13 465.168 651.073 464.818 649.743 464.818C648.567 464.818 647.536 465.125 646.65 465.739C645.772 466.344 645.086 467.2 644.591 468.308C644.106 469.408 643.863 470.699 643.863 472.182C643.863 473.699 644.101 475.02 644.579 476.145C645.065 477.27 645.746 478.143 646.624 478.766C647.511 479.388 648.55 479.699 649.743 479.699C650.528 479.699 651.239 479.562 651.878 479.29C652.518 479.017 653.059 478.625 653.502 478.114C653.945 477.602 654.261 476.989 654.448 476.273H657.465C657.295 477.432 656.873 478.476 656.199 479.405C655.535 480.325 654.653 481.058 653.553 481.604C652.462 482.141 651.192 482.409 649.743 482.409ZM666.394 482.46C665.15 482.46 664.02 482.226 663.006 481.757C661.992 481.28 661.187 480.594 660.59 479.699C659.993 478.795 659.695 477.705 659.695 476.426C659.695 475.301 659.917 474.389 660.36 473.69C660.803 472.983 661.395 472.429 662.137 472.028C662.878 471.628 663.697 471.33 664.591 471.134C665.495 470.929 666.403 470.767 667.314 470.648C668.508 470.494 669.475 470.379 670.216 470.303C670.966 470.217 671.512 470.077 671.853 469.881C672.202 469.685 672.377 469.344 672.377 468.858V468.756C672.377 467.494 672.032 466.514 671.341 465.815C670.66 465.116 669.624 464.767 668.235 464.767C666.795 464.767 665.665 465.082 664.847 465.713C664.029 466.344 663.454 467.017 663.121 467.733L660.258 466.71C660.769 465.517 661.451 464.588 662.303 463.923C663.164 463.25 664.101 462.781 665.116 462.517C666.138 462.244 667.144 462.108 668.133 462.108C668.763 462.108 669.488 462.185 670.306 462.338C671.133 462.483 671.93 462.786 672.697 463.246C673.472 463.706 674.116 464.401 674.627 465.33C675.138 466.259 675.394 467.503 675.394 469.062V482H672.377V479.341H672.224C672.019 479.767 671.678 480.223 671.201 480.709C670.724 481.195 670.089 481.608 669.296 481.949C668.503 482.29 667.536 482.46 666.394 482.46ZM666.854 479.75C668.047 479.75 669.053 479.516 669.871 479.047C670.698 478.578 671.32 477.973 671.738 477.232C672.164 476.49 672.377 475.71 672.377 474.892V472.131C672.249 472.284 671.968 472.425 671.533 472.553C671.107 472.672 670.613 472.778 670.05 472.872C669.496 472.957 668.955 473.034 668.427 473.102C667.907 473.162 667.485 473.213 667.161 473.256C666.377 473.358 665.644 473.524 664.962 473.754C664.289 473.976 663.743 474.312 663.326 474.764C662.917 475.207 662.712 475.812 662.712 476.58C662.712 477.628 663.1 478.42 663.876 478.957C664.66 479.486 665.653 479.75 666.854 479.75ZM679.641 482V462.364H682.556V465.33H682.76C683.118 464.358 683.766 463.57 684.703 462.964C685.641 462.359 686.698 462.057 687.874 462.057C688.095 462.057 688.372 462.061 688.705 462.07C689.037 462.078 689.288 462.091 689.459 462.108V465.176C689.357 465.151 689.122 465.112 688.756 465.061C688.398 465.001 688.019 464.972 687.618 464.972C686.663 464.972 685.811 465.172 685.061 465.572C684.32 465.964 683.732 466.51 683.297 467.209C682.871 467.899 682.658 468.687 682.658 469.574V482H679.641ZM699.411 482.409C697.519 482.409 695.886 481.991 694.514 481.156C693.151 480.312 692.098 479.136 691.357 477.628C690.624 476.111 690.257 474.347 690.257 472.335C690.257 470.324 690.624 468.551 691.357 467.017C692.098 465.474 693.129 464.273 694.45 463.412C695.78 462.543 697.331 462.108 699.104 462.108C700.126 462.108 701.136 462.278 702.134 462.619C703.131 462.96 704.038 463.514 704.857 464.281C705.675 465.04 706.327 466.045 706.813 467.298C707.298 468.551 707.541 470.094 707.541 471.926V473.205H692.405V470.597H704.473C704.473 469.489 704.251 468.5 703.808 467.631C703.374 466.761 702.751 466.075 701.942 465.572C701.141 465.07 700.195 464.818 699.104 464.818C697.902 464.818 696.862 465.116 695.984 465.713C695.115 466.301 694.446 467.068 693.977 468.014C693.509 468.96 693.274 469.974 693.274 471.057V472.795C693.274 474.278 693.53 475.536 694.041 476.567C694.561 477.589 695.281 478.369 696.202 478.906C697.122 479.435 698.192 479.699 699.411 479.699C700.203 479.699 700.919 479.588 701.558 479.366C702.206 479.136 702.764 478.795 703.233 478.344C703.702 477.884 704.064 477.312 704.32 476.631L707.234 477.449C706.928 478.438 706.412 479.307 705.688 480.057C704.963 480.798 704.068 481.378 703.003 481.795C701.938 482.205 700.74 482.409 699.411 482.409ZM722.753 470.188V482H719.736V462.364H722.651V465.432H722.906C723.366 464.435 724.065 463.634 725.003 463.028C725.94 462.415 727.151 462.108 728.633 462.108C729.963 462.108 731.126 462.381 732.124 462.926C733.121 463.463 733.896 464.281 734.45 465.381C735.004 466.472 735.281 467.852 735.281 469.523V482H732.264V469.727C732.264 468.185 731.864 466.983 731.062 466.122C730.261 465.253 729.162 464.818 727.764 464.818C726.801 464.818 725.94 465.027 725.182 465.445C724.432 465.862 723.839 466.472 723.405 467.273C722.97 468.074 722.753 469.045 722.753 470.188ZM747.767 482.409C745.875 482.409 744.243 481.991 742.871 481.156C741.507 480.312 740.455 479.136 739.713 477.628C738.98 476.111 738.614 474.347 738.614 472.335C738.614 470.324 738.98 468.551 739.713 467.017C740.455 465.474 741.486 464.273 742.807 463.412C744.137 462.543 745.688 462.108 747.46 462.108C748.483 462.108 749.493 462.278 750.49 462.619C751.487 462.96 752.395 463.514 753.213 464.281C754.032 465.04 754.683 466.045 755.169 467.298C755.655 468.551 755.898 470.094 755.898 471.926V473.205H740.762V470.597H752.83C752.83 469.489 752.608 468.5 752.165 467.631C751.73 466.761 751.108 466.075 750.299 465.572C749.497 465.07 748.551 464.818 747.46 464.818C746.259 464.818 745.219 465.116 744.341 465.713C743.472 466.301 742.803 467.068 742.334 468.014C741.865 468.96 741.631 469.974 741.631 471.057V472.795C741.631 474.278 741.887 475.536 742.398 476.567C742.918 477.589 743.638 478.369 744.558 478.906C745.479 479.435 746.549 479.699 747.767 479.699C748.56 479.699 749.276 479.588 749.915 479.366C750.563 479.136 751.121 478.795 751.59 478.344C752.058 477.884 752.421 477.312 752.676 476.631L755.591 477.449C755.284 478.438 754.769 479.307 754.044 480.057C753.32 480.798 752.425 481.378 751.36 481.795C750.294 482.205 749.097 482.409 747.767 482.409ZM767.46 482.409C765.568 482.409 763.936 481.991 762.564 481.156C761.2 480.312 760.148 479.136 759.406 477.628C758.673 476.111 758.307 474.347 758.307 472.335C758.307 470.324 758.673 468.551 759.406 467.017C760.148 465.474 761.179 464.273 762.5 463.412C763.83 462.543 765.381 462.108 767.154 462.108C768.176 462.108 769.186 462.278 770.183 462.619C771.181 462.96 772.088 463.514 772.906 464.281C773.725 465.04 774.377 466.045 774.862 467.298C775.348 468.551 775.591 470.094 775.591 471.926V473.205H760.455V470.597H772.523C772.523 469.489 772.301 468.5 771.858 467.631C771.423 466.761 770.801 466.075 769.992 465.572C769.191 465.07 768.245 464.818 767.154 464.818C765.952 464.818 764.912 465.116 764.034 465.713C763.165 466.301 762.496 467.068 762.027 468.014C761.558 468.96 761.324 469.974 761.324 471.057V472.795C761.324 474.278 761.58 475.536 762.091 476.567C762.611 477.589 763.331 478.369 764.252 478.906C765.172 479.435 766.242 479.699 767.46 479.699C768.253 479.699 768.969 479.588 769.608 479.366C770.256 479.136 770.814 478.795 771.283 478.344C771.752 477.884 772.114 477.312 772.37 476.631L775.284 477.449C774.977 478.438 774.462 479.307 773.737 480.057C773.013 480.798 772.118 481.378 771.053 481.795C769.987 482.205 768.79 482.409 767.46 482.409ZM786.335 482.409C784.699 482.409 783.254 481.996 782.002 481.169C780.749 480.334 779.769 479.158 779.061 477.641C778.354 476.115 778 474.312 778 472.233C778 470.17 778.354 468.381 779.061 466.864C779.769 465.347 780.753 464.175 782.014 463.348C783.276 462.521 784.733 462.108 786.387 462.108C787.665 462.108 788.675 462.321 789.416 462.747C790.166 463.165 790.737 463.642 791.129 464.179C791.53 464.707 791.841 465.142 792.063 465.483H792.318V455.818H795.335V482H792.421V478.983H792.063C791.841 479.341 791.526 479.793 791.117 480.338C790.708 480.875 790.124 481.357 789.365 481.783C788.607 482.2 787.597 482.409 786.335 482.409ZM786.744 479.699C787.955 479.699 788.977 479.384 789.813 478.753C790.648 478.114 791.283 477.232 791.717 476.107C792.152 474.973 792.369 473.665 792.369 472.182C792.369 470.716 792.156 469.433 791.73 468.334C791.304 467.226 790.673 466.365 789.838 465.751C789.003 465.129 787.972 464.818 786.744 464.818C785.466 464.818 784.401 465.146 783.548 465.803C782.705 466.45 782.07 467.332 781.644 468.449C781.226 469.557 781.017 470.801 781.017 472.182C781.017 473.58 781.23 474.849 781.656 475.991C782.091 477.125 782.73 478.028 783.574 478.702C784.426 479.366 785.483 479.699 786.744 479.699ZM813.929 466.761L811.219 467.528C811.048 467.077 810.797 466.638 810.465 466.212C810.141 465.777 809.698 465.419 809.135 465.138C808.573 464.857 807.852 464.716 806.975 464.716C805.773 464.716 804.771 464.993 803.97 465.547C803.178 466.092 802.781 466.787 802.781 467.631C802.781 468.381 803.054 468.973 803.6 469.408C804.145 469.842 804.997 470.205 806.156 470.494L809.071 471.21C810.827 471.636 812.135 472.288 812.996 473.166C813.857 474.036 814.287 475.156 814.287 476.528C814.287 477.653 813.963 478.659 813.315 479.545C812.676 480.432 811.781 481.131 810.631 481.642C809.48 482.153 808.142 482.409 806.617 482.409C804.614 482.409 802.956 481.974 801.644 481.105C800.331 480.236 799.5 478.966 799.151 477.295L802.014 476.58C802.287 477.636 802.803 478.429 803.561 478.957C804.328 479.486 805.33 479.75 806.565 479.75C807.972 479.75 809.088 479.452 809.915 478.855C810.75 478.25 811.168 477.526 811.168 476.682C811.168 476 810.929 475.429 810.452 474.969C809.975 474.5 809.242 474.151 808.253 473.92L804.98 473.153C803.182 472.727 801.861 472.067 801.017 471.172C800.182 470.268 799.764 469.139 799.764 467.784C799.764 466.676 800.075 465.696 800.698 464.844C801.328 463.991 802.185 463.322 803.267 462.837C804.358 462.351 805.594 462.108 806.975 462.108C808.918 462.108 810.443 462.534 811.551 463.386C812.668 464.239 813.46 465.364 813.929 466.761ZM829.451 470.188V482H826.434V462.364H829.348V465.432H829.604C830.064 464.435 830.763 463.634 831.701 463.028C832.638 462.415 833.848 462.108 835.331 462.108C836.661 462.108 837.824 462.381 838.821 462.926C839.818 463.463 840.594 464.281 841.148 465.381C841.702 466.472 841.979 467.852 841.979 469.523V482H838.962V469.727C838.962 468.185 838.561 466.983 837.76 466.122C836.959 465.253 835.86 464.818 834.462 464.818C833.499 464.818 832.638 465.027 831.88 465.445C831.13 465.862 830.537 466.472 830.103 467.273C829.668 468.074 829.451 469.045 829.451 470.188ZM854.209 482.409C852.437 482.409 850.881 481.987 849.543 481.143C848.214 480.3 847.174 479.119 846.424 477.602C845.682 476.085 845.312 474.312 845.312 472.284C845.312 470.239 845.682 468.453 846.424 466.928C847.174 465.402 848.214 464.217 849.543 463.374C850.881 462.53 852.437 462.108 854.209 462.108C855.982 462.108 857.533 462.53 858.863 463.374C860.201 464.217 861.241 465.402 861.982 466.928C862.732 468.453 863.107 470.239 863.107 472.284C863.107 474.312 862.732 476.085 861.982 477.602C861.241 479.119 860.201 480.3 858.863 481.143C857.533 481.987 855.982 482.409 854.209 482.409ZM854.209 479.699C855.556 479.699 856.664 479.354 857.533 478.663C858.403 477.973 859.046 477.065 859.464 475.94C859.881 474.815 860.09 473.597 860.09 472.284C860.09 470.972 859.881 469.749 859.464 468.615C859.046 467.482 858.403 466.565 857.533 465.866C856.664 465.168 855.556 464.818 854.209 464.818C852.863 464.818 851.755 465.168 850.886 465.866C850.016 466.565 849.373 467.482 848.955 468.615C848.538 469.749 848.329 470.972 848.329 472.284C848.329 473.597 848.538 474.815 848.955 475.94C849.373 477.065 850.016 477.973 850.886 478.663C851.755 479.354 852.863 479.699 854.209 479.699ZM870.234 482L864.251 462.364H867.421L871.665 477.398H871.87L876.063 462.364H879.285L883.427 477.347H883.631L887.876 462.364H891.046L885.063 482H882.097L877.802 466.915H877.495L873.199 482H870.234ZM893.302 482.205C892.671 482.205 892.13 481.979 891.678 481.527C891.226 481.075 891 480.534 891 479.903C891 479.273 891.226 478.732 891.678 478.28C892.13 477.828 892.671 477.602 893.302 477.602C893.932 477.602 894.474 477.828 894.925 478.28C895.377 478.732 895.603 479.273 895.603 479.903C895.603 480.321 895.496 480.705 895.283 481.054C895.079 481.403 894.802 481.685 894.452 481.898C894.111 482.102 893.728 482.205 893.302 482.205Z" fill="white"></path>
</g>
<defs>
<clipPath id="clip0_6718_7343">
<rect width="1440" height="900" fill="white"></rect>
</clipPath>
</defs>
</svg>