<svg viewBox="0 0 64 64" fill="none" xmlns="http://www.w3.org/2000/svg">
  <g transform="translate(-50 -50)" stroke="currentColor" stroke-width="2" stroke-linecap="round" stroke-linejoin="round" fill="none">
    <path d="M107.335 81.9998C107.335 95.991 95.9925 107.333 82.0013 107.333C77.6597 107.333 73.573 106.241 70.0013 104.316C65.0194 101.632 61.667 104.128 58.7104 104.575C58.2619 104.643 57.8153 104.48 57.4946 104.16C57.0077 103.673 56.9151 102.92 57.184 102.286C58.3444 99.5513 59.4098 94.3684 57.9571 89.9998C57.1208 87.4852 56.668 84.7953 56.668 81.9998C56.668 68.0086 68.0101 56.6665 82.0013 56.6665C95.9925 56.6665 107.335 68.0086 107.335 81.9998Z"/>
    <path d="M82.3365 82.0002H82.0032M71.668 82.0002H71.3346M93.0013 82.0002H92.668M82.6698 82.0002C82.6698 82.3684 82.3714 82.6668 82.0032 82.6668C81.6352 82.6668 81.3365 82.3684 81.3365 82.0002C81.3365 81.6319 81.6352 81.3335 82.0032 81.3335C82.3714 81.3335 82.6698 81.6319 82.6698 82.0002ZM72.0013 82.0002C72.0013 82.3684 71.7028 82.6668 71.3346 82.6668C70.9664 82.6668 70.668 82.3684 70.668 82.0002C70.668 81.6319 70.9664 81.3335 71.3346 81.3335C71.7028 81.3335 72.0013 81.6319 72.0013 82.0002ZM93.3346 82.0002C93.3346 82.3684 93.0362 82.6668 92.668 82.6668C92.2997 82.6668 92.0013 82.3684 92.0013 82.0002C92.0013 81.6319 92.2997 81.3335 92.668 81.3335C93.0362 81.3335 93.3346 81.6319 93.3346 82.0002Z"/>
  </g>
</svg>
