<svg preserveAspectRatio="none" width="100%" height="100%" overflow="visible" style="display: block;" viewBox="0 0 64 64" fill="none" xmlns="http://www.w3.org/2000/svg">
<g id="file-01">
<path id="Vector" d="M21.332 18.6666H42.6654" stroke="var(--stroke-0, black)" stroke-width="2" stroke-linecap="round" stroke-linejoin="round"/>
<path id="Vector_2" d="M21.332 29.3334H31.9987" stroke="var(--stroke-0, black)" stroke-width="2" stroke-linecap="round" stroke-linejoin="round"/>
<path id="Vector_3" d="M34.668 57.3334V56C34.668 48.4576 34.668 44.6864 37.0112 42.3432C39.3544 40 43.1256 40 50.668 40H52.0013M53.3346 35.5816V26.6667C53.3346 16.6101 53.3346 11.5818 50.2104 8.45756C47.0864 5.33337 42.0578 5.33337 32.0013 5.33337C21.9447 5.33337 16.9164 5.33337 13.7922 8.45756C10.668 11.5817 10.668 16.6101 10.668 26.6667V38.7846C10.668 47.4379 10.668 51.7646 13.0308 54.6952C13.5082 55.2872 14.0475 55.8264 14.6395 56.3038C17.5701 58.6667 21.8968 58.6667 30.5501 58.6667C32.4317 58.6667 33.3722 58.6667 34.2338 58.3627C34.413 58.2995 34.5885 58.2267 34.76 58.1448C35.5842 57.7504 36.2493 57.0854 37.5797 55.755L50.2104 43.1243C51.752 41.5827 52.5226 40.812 52.9288 39.8318C53.3346 38.8518 53.3346 37.7616 53.3346 35.5816Z" stroke="var(--stroke-0, black)" stroke-width="2" stroke-linecap="round" stroke-linejoin="round"/>
</g>
</svg>
