<svg preserveAspectRatio="none" width="100%" height="100%" overflow="visible" style="display: block;" viewBox="0 0 64 64" fill="none" xmlns="http://www.w3.org/2000/svg">
<g id="language-skill">
<path id="Vector" d="M5.33203 32.0001C5.33203 34.8051 5.81326 37.4977 6.69768 40.0001M6.69768 40.0001H29.332M6.69768 40.0001C9.99238 49.3217 18.8823 56.0001 29.332 56.0001C25.2142 56.0001 21.823 46.6665 21.3809 34.6667M34.7019 24H57.336M57.336 24C54.0414 14.6785 45.1515 8 34.7019 8C38.971 8 42.459 18.032 42.6896 30.6667M57.336 24C58.0795 26.1031 58.5379 28.3409 58.6654 30.6667" stroke="var(--stroke-0, black)" stroke-width="2" stroke-linecap="round" stroke-linejoin="round"/>
<path id="Vector_2" d="M5.33203 14.1262C5.33203 11.1972 5.33203 9.73269 5.83171 8.59696C6.36163 7.39253 7.27499 6.42448 8.41139 5.86285C9.48299 5.33325 10.8648 5.33325 13.6283 5.33325H15.9987C21.027 5.33325 23.5412 5.33325 25.1033 6.98885C26.6654 8.64445 26.6654 11.3091 26.6654 16.6384V22.6626C26.6654 24.9873 26.6654 26.1496 25.9612 26.549C25.257 26.9485 24.3445 26.3037 22.5195 25.0142L22.2414 24.8178C20.9077 23.8754 20.2408 23.4041 19.485 23.1616C18.7292 22.9191 17.9277 22.9191 16.3246 22.9191H13.6283C10.8648 22.9191 9.48299 22.9191 8.41139 22.3895C7.27499 21.8278 6.36163 20.8598 5.83171 19.6554C5.33203 18.5196 5.33203 17.0551 5.33203 14.1262Z" stroke="var(--stroke-0, black)" stroke-width="2" stroke-linecap="round"/>
<path id="Vector_3" d="M58.6654 46.1261C58.6654 43.1973 58.6654 41.7327 58.1656 40.597C57.6358 39.3925 56.7224 38.4245 55.5859 37.8629C54.5144 37.3333 53.1326 37.3333 50.3691 37.3333H47.9987C42.9704 37.3333 40.4563 37.3333 38.8942 38.989C37.332 40.6445 37.332 43.309 37.332 48.6383V54.6626C37.332 56.9874 37.332 58.1495 38.0363 58.549C38.7403 58.9485 39.6528 58.3036 41.4779 57.0143L41.756 56.8178C43.0896 55.8754 43.7566 55.4042 44.5123 55.1615C45.2683 54.9191 46.0696 54.9191 47.6728 54.9191H50.3691C53.1326 54.9191 54.5144 54.9191 55.5859 54.3895C56.7224 53.8279 57.6358 52.8599 58.1656 51.6554C58.6654 50.5197 58.6654 49.0551 58.6654 46.1261Z" stroke="var(--stroke-0, black)" stroke-width="2" stroke-linecap="round"/>
</g>
</svg>
